<svg width="159" height="85" viewBox="0 0 159 85" fill="none" xmlns="http://www.w3.org/2000/svg">
<path d="M14.6713 7.16933C13.8987 7.73867 13.492 8.47067 13.1667 9.32467C12.5567 10.626 11.8247 11.8867 11.5807 13.31C11.1333 14.286 11.0927 15.4653 10.4013 16.2787C10.3607 16.36 10.2793 16.482 10.3607 16.5227C10.5233 16.9293 10.2793 17.2547 10.198 17.6207C9.71 19.7353 9.222 21.8093 8.65267 23.924C8.65267 24.8593 8.28667 25.7947 8.49 26.7707C8.93733 27.1773 9.50667 27.4213 10.076 27.6653C10.198 27.9907 10.3607 28.316 10.442 28.6413C10.4827 28.804 10.442 29.048 10.4013 29.17C10.198 29.6987 9.954 29.7393 9.466 29.3733C9.1 29.6987 9.222 30.024 9.42533 30.3493C9.50667 30.268 9.62867 30.268 9.71 30.1867C10.076 29.9833 10.4013 29.9833 10.3607 30.146C10.2793 30.39 10.1573 30.512 9.954 30.7153C9.588 30.9593 9.222 31.0813 8.77467 31.2033C8.53067 31.3253 8.28667 31.3253 8.002 31.244C7.10733 31.0407 6.172 31.2033 5.35867 31.488C5.196 31.5693 5.11467 31.6913 4.952 31.7727C4.74867 31.8947 4.62667 32.2607 4.42333 32.342C4.13867 32.4233 3.89467 32.3827 3.61 32.5453C3.244 32.7893 2.79667 32.83 2.47133 32.3827C2.43067 32.342 2.268 32.342 2.10533 32.2607C2.34933 31.8133 2.55267 31.4473 2.67467 31.0407C2.756 30.878 2.67467 30.7153 2.59333 30.634C2.512 30.39 2.22733 30.39 2.06467 30.512C1.94267 30.5527 1.902 30.7153 1.902 30.878C1.902 31 1.902 31.122 1.82067 31.244C1.82067 31.3253 1.69867 31.3253 1.658 31.3253C1.536 31.366 1.45467 31.3253 1.45467 31.244C1.292 30.6747 1.33267 30.146 1.536 29.6173C2.024 28.6413 2.67467 27.9907 3.61 27.6653C3.854 27.584 4.05733 27.4213 4.22 27.34C4.26067 27.34 4.342 27.2993 4.42333 27.218C4.42333 26.974 4.464 26.6893 4.464 26.364C4.464 25.3473 4.464 24.412 4.66733 23.436C5.11467 21.24 5.562 19.0847 6.13133 17.0107C6.294 16.5227 6.37533 15.9533 6.74133 15.6687C6.782 15.5873 6.86333 15.506 6.86333 15.4653C6.74133 14.5707 7.10733 13.798 7.31067 13.066C7.55467 12.212 7.88 11.48 8.16467 10.7073C8.44933 10.138 8.44933 9.44667 8.93733 9.04C8.77467 8.63333 9.26267 8.38933 9.30333 8.064C9.38467 7.65733 9.588 7.29133 9.75067 6.966C9.91333 6.68133 9.954 6.39667 10.076 6.03067C9.87267 6.07133 9.75067 6.07133 9.71 6.15267C9.222 6.39667 8.69333 6.64067 8.16467 6.92533C7.636 7.21 7.18867 6.966 6.74133 6.68133C6.61933 6.64067 6.57867 6.39667 6.61933 6.27467C6.86333 5.78667 7.18867 5.33933 7.35133 4.85133C7.392 4.648 7.59533 4.60733 7.758 4.48533C7.43267 4.32267 7.18867 4.36333 7.026 4.60733C6.74133 4.97333 6.45667 5.21733 6.13133 5.54267C6.09067 5.33933 5.928 5.21733 5.928 5.014C5.96867 4.44467 6.00933 3.83467 6.45667 3.38733C7.10733 2.696 7.758 2.16733 8.65267 1.88267C8.856 1.80133 9.18133 1.72 9.42533 1.67933C9.54733 1.55733 9.71 1.476 9.87267 1.43533C10.8487 1.354 11.8653 1.19133 12.8413 1.15067C13.6547 1.11 14.468 1.15067 15.2407 1.15067C15.7287 1.19133 16.2167 1.354 16.7047 1.43533C16.664 1.598 16.5827 1.72 16.5827 1.80133C16.5827 1.88267 16.7453 2.00467 16.8267 2.00467C17.0707 2.00467 17.274 1.88267 17.4773 2.086C17.9653 2.452 18.0467 2.77733 17.8433 3.38733C17.762 3.55 17.5993 3.672 17.5587 3.916C17.4773 3.99733 17.4367 4.24133 17.4773 4.44467C17.518 4.60733 17.5993 4.892 17.396 5.09533C17.152 5.21733 16.908 5.54267 16.5827 5.502C15.932 5.46133 15.2813 5.66467 14.6307 5.502C14.3867 5.38 14.224 5.54267 14.1427 5.78667C14.1427 5.82733 14.1833 5.99 14.1833 5.99C14.468 6.03067 14.5493 6.15267 14.468 6.39667C14.3867 6.64067 14.5087 6.88467 14.6713 7.16933ZM7.636 17.4173C7.31067 17.702 7.27 18.1087 7.18867 18.6373C6.94467 19.776 6.74133 20.8333 6.09067 21.8093C6.13133 22.216 6.25333 22.582 6.172 23.0293C5.96867 24.0867 5.96867 25.2253 5.60267 26.2827C5.562 26.364 5.60267 26.608 5.60267 26.73C5.60267 26.852 5.76533 26.8927 5.806 26.8927C5.88733 26.8927 5.96867 26.8927 6.00933 26.8927C6.09067 26.7707 6.09067 26.73 6.13133 26.6487C6.172 26.5267 6.21267 26.3233 6.25333 26.1607C6.294 25.4693 6.21267 24.656 6.61933 23.9647C6.538 23.314 6.66 22.7447 6.782 22.1347C7.026 21.0773 7.18867 20.0607 7.514 19.0033C7.636 18.4747 7.758 17.9867 7.71733 17.458C8.246 16.848 8.20533 15.994 8.40867 15.2213C8.40867 15.2213 8.28667 15.0993 8.20533 15.0993C8.16467 15.0993 8.08333 15.1807 8.08333 15.2213C7.92067 15.9533 7.71733 16.6447 7.636 17.4173ZM9.1 13.188C9.1 13.188 8.978 13.0253 8.93733 13.066C8.856 13.066 8.734 13.1067 8.69333 13.1473C8.65267 13.432 8.612 13.7167 8.53067 13.9607C8.53067 14.0013 8.612 14.0013 8.65267 14.0827C8.65267 14.0827 8.69333 14.1233 8.69333 14.0827C8.93733 13.8387 9.1 13.554 9.1 13.188ZM9.588 11.9273C9.50667 11.9273 9.466 11.8053 9.38467 11.7647C9.30333 11.6833 9.18133 11.846 9.18133 12.09C9.222 12.1307 9.26267 12.2527 9.30333 12.2527C9.42533 12.3747 9.588 12.1713 9.588 11.9273ZM8.77467 2.41133C8.53067 2.61467 8.368 2.818 8.16467 2.94C8.16467 2.98067 8.16467 3.14333 8.246 3.184C8.28667 3.22467 8.44933 3.22467 8.44933 3.184C8.612 2.98067 8.856 2.89933 8.77467 2.41133ZM25.8169 17.2547C25.1255 17.4987 24.5562 17.8647 23.9869 18.2713C22.8482 19.166 21.8315 20.142 20.7335 21.118L20.0422 21.8907C19.9609 21.972 19.8389 22.094 19.5949 22.0533C19.4729 22.0127 19.4729 22.1347 19.4322 22.216C19.3915 22.6227 19.3915 22.6227 19.0662 22.704C18.9849 22.7447 18.9035 22.7447 18.8222 22.7447C18.7815 22.7447 18.7815 22.7853 18.7002 22.7853C18.5782 22.948 18.9035 22.9887 18.7409 23.3547L18.3749 23.7207C17.7242 24.412 17.1955 25.1847 16.7482 25.9573C16.6669 26.0387 16.5449 26.0793 16.5042 26.242C16.2602 26.6487 15.7722 26.852 15.6502 27.462C15.6095 27.8687 15.2842 28.316 15.0809 28.7227L14.5929 29.5767C14.4302 29.78 14.3489 30.024 14.2269 30.2273C14.0235 30.634 13.7389 30.878 13.1695 30.8373C13.1289 30.8373 13.0069 30.8373 12.9662 30.878L12.6002 31.0407C12.6002 30.7153 12.8442 30.3087 12.3562 30.0647L11.5835 30.5933C11.4209 30.4713 11.3395 30.1867 11.0955 30.0647C10.7702 29.902 10.7295 29.6173 10.9735 29.3327C11.0955 29.17 11.1769 29.0073 11.0955 28.7227C11.0549 28.5193 11.0955 28.316 11.1362 28.1127C11.6649 26.8113 11.9089 25.4693 12.4375 24.168C12.5595 23.7207 12.6002 23.2733 13.0069 22.8667C13.0069 22.826 13.0475 22.7853 13.0475 22.7853C13.0069 22.1347 13.1289 21.6467 13.4542 21.1587C13.5355 20.996 13.4542 20.752 13.4949 20.5893L13.9015 19.4913L14.0235 19.0847C14.1862 17.9867 14.6335 17.0513 14.8775 15.9127C14.9995 15.262 15.1215 14.5707 15.3655 13.8387C15.4062 13.554 15.5282 13.31 15.8129 13.1473L16.2602 13.4727C16.4229 13.676 16.3009 13.798 16.0162 13.798C15.9755 13.798 15.9349 13.8387 15.8942 13.8387C15.8129 14.0827 16.0975 14.2047 16.0569 14.4487C15.9755 14.5707 15.8942 14.652 15.8129 14.774L16.0975 15.262L16.2602 15.75C16.6262 15.4247 16.6262 15.018 16.6669 14.6927C16.7482 14.3673 16.8295 14.0013 16.9515 13.676C17.1955 13.7167 17.3175 13.798 17.5615 13.798C17.6429 13.798 17.6835 13.7573 17.7242 13.676C17.7242 13.6353 17.7242 13.5133 17.6835 13.4727C17.5615 13.3913 17.3582 13.3913 17.1955 13.2693C17.1955 13.2287 17.1955 13.1067 17.1955 13.066C17.1955 12.9847 17.3582 12.9033 17.4395 12.944C17.6835 12.9847 17.9275 13.066 18.1309 13.1473C18.4969 13.92 18.1309 14.652 18.0495 15.3433C18.1309 15.3433 18.4969 15.262 18.5782 15.14C18.6189 15.262 18.6595 15.3433 18.6595 15.4247C18.4562 16.3193 18.1715 17.2547 17.9682 18.2307L17.8869 18.8C18.1715 18.922 18.4155 18.8407 18.4969 18.678C19.1882 17.6613 20.3675 16.9293 21.3029 16.0347C21.4249 15.872 21.5469 15.8313 21.7095 15.7093C22.2789 15.384 22.8075 14.9773 23.3769 14.652C23.6615 14.6927 23.3362 14.896 23.4989 15.018L24.0682 15.14C24.1902 14.9773 23.9462 14.9367 23.8649 14.774C24.0682 14.3673 24.3122 14.0013 24.8002 13.798C25.1662 13.676 25.4915 13.5947 25.8575 13.676C26.1015 13.7573 26.1422 13.7167 26.1829 13.3913C26.2642 13.188 26.3862 13.1067 26.5489 13.1473C27.0775 13.1473 27.5249 12.9847 27.9722 12.7407C28.2975 12.822 28.5415 12.8627 28.9075 12.9033C29.1922 12.9033 29.4362 12.9847 29.7209 13.066C30.5749 13.31 30.8189 13.92 30.9002 14.5707C31.0222 14.9773 31.1035 15.506 30.7375 15.872C30.6562 15.9533 30.6969 16.1567 30.6969 16.238C30.5342 16.2787 30.4122 16.2787 30.3309 16.2787C30.0055 16.36 29.8429 16.4413 29.9242 16.5633C29.9649 16.6447 30.0055 16.6447 30.3715 16.6447C30.3715 16.6447 30.4122 16.726 30.3715 16.7667C30.2902 16.97 30.2089 17.092 30.1275 17.2547C29.8835 17.4987 29.5582 17.7833 29.5989 18.1493L28.9482 18.5967C28.9482 18.8 28.9075 19.0847 28.7855 19.3693L28.3789 19.9793C27.9722 20.7927 27.5655 21.606 27.0775 22.4193C26.5895 23.07 26.4269 23.7207 26.1422 24.3713C26.0609 24.534 26.0202 24.6967 25.9795 24.8187C25.3695 25.7133 25.3289 26.73 25.0442 27.6653C24.9629 28.0313 25.0849 28.316 25.4102 28.4787C25.7762 28.7227 25.8982 29.048 25.8169 29.3733C25.7762 29.5767 25.9389 29.7393 25.9795 29.9427C25.8169 30.4713 25.2475 30.8373 24.7595 31.1627C24.6782 31.2847 24.4749 31.2847 24.2715 31.2847C23.3362 31.244 22.5635 30.878 21.9942 30.1867C21.5875 29.6173 21.3029 28.8853 21.3842 28.1533C21.4249 27.218 21.5062 26.364 21.8315 25.4287C22.3602 23.9647 22.9295 22.5007 23.7429 21.118C24.0682 20.4673 24.3122 19.898 24.7189 19.3693C25.1662 18.678 25.4509 17.9867 25.8169 17.2547ZM22.9295 26.486C23.0109 26.486 23.0515 26.5267 23.0515 26.486C23.5802 26.0387 23.4175 25.3067 23.8242 24.778V24.5747L23.7835 24.534C23.7022 24.534 23.6209 24.534 23.5802 24.534L23.4175 24.7373C23.2549 25.266 23.0109 25.9167 22.9295 26.486ZM14.9589 17.3767C15.2842 17.3767 15.5282 17.4173 15.8129 17.4173C15.9349 17.2953 15.9349 17.1733 15.8942 17.0513C15.8129 16.7667 15.6502 16.6853 15.4469 16.8073C15.3655 16.9293 15.2029 17.092 14.9995 17.092C14.9589 17.1327 14.9589 17.2547 14.9589 17.3767ZM24.3935 23.192C23.9055 23.2327 24.0275 23.558 23.9055 23.6393C23.8242 23.8427 23.6615 23.9647 23.4175 24.168C23.8242 24.1273 24.0275 24.0867 24.0682 23.9647C24.1902 23.7207 24.2715 23.558 24.3935 23.192ZM27.6469 16.8073L28.3789 16.6853C28.3789 16.6447 28.3789 16.5633 28.4195 16.5227L27.8095 16.4413C27.7689 16.4007 27.6469 16.482 27.6062 16.482C27.5655 16.5633 27.5249 16.6447 27.5249 16.726C27.5249 16.7667 27.6469 16.8073 27.6469 16.8073ZM20.7742 20.264C20.8962 20.1013 20.8149 19.9387 20.8149 19.8167C20.7742 19.776 20.6115 19.7353 20.5302 19.776C20.4895 19.776 20.4082 19.898 20.4082 19.9387C20.5302 20.0607 20.5302 20.264 20.7742 20.264ZM45.3438 16.5227C45.0592 16.2787 44.7745 16.0753 44.8558 15.7093C44.9372 15.506 44.7745 15.3433 44.7338 15.14C44.2052 15.262 44.4085 15.628 44.2052 15.8313C43.8392 15.5467 43.9612 15.0993 43.7985 14.652C43.3105 14.53 42.9038 14.4893 42.2938 14.6113C40.7485 15.0993 39.3252 15.872 37.8612 16.6447C37.4545 16.848 37.3325 17.336 36.7225 17.336C36.4785 17.6613 36.2752 18.0273 36.0718 18.3527C36.2752 18.8407 36.8852 18.8 37.2105 19.1253L36.9665 19.5727C37.3325 19.7353 37.4138 19.3693 37.6985 19.3693H37.9018C39.1625 19.8573 40.3012 20.508 41.2772 21.362C41.9685 22.0127 42.5785 22.704 42.9038 23.5173C43.4732 24.9 43.3105 26.242 42.5378 27.5027C42.3752 27.6653 42.2125 27.828 42.1312 27.9907C41.8872 28.072 41.7652 27.9907 41.6838 27.9093C41.4398 27.706 41.1552 27.828 41.1145 28.072C41.0738 28.1533 41.0332 28.2753 41.0738 28.3567C41.3585 28.7633 41.1145 29.0073 40.7892 29.2107C40.3418 29.4547 39.9352 29.6987 39.4878 29.902C38.9998 30.1053 38.5118 30.3087 38.1052 30.512C37.7798 30.756 37.4138 30.6747 37.0478 30.5527C36.9258 30.756 36.7632 30.9187 36.5598 31.0407C36.1938 31.1627 35.8278 31.244 35.4212 31.3253C35.2178 31.366 34.9738 31.0813 34.8112 31.244C34.6892 31.366 34.6078 31.5287 34.4045 31.5693C34.1198 31.61 33.8758 31.6913 33.5912 31.6913C33.3065 31.732 33.0218 31.6913 32.6965 31.7727C32.0052 31.976 31.3138 31.732 30.6632 31.61C30.5818 31.61 30.5005 31.488 30.4192 31.4473V31.0407C30.2565 30.9187 30.1345 31.0407 29.9718 31C29.8498 30.9593 29.6872 30.9187 29.6465 30.8373C29.4432 30.512 29.2805 30.146 29.5245 29.8207C29.6872 29.6173 29.6872 29.536 29.5652 29.3733C29.4432 29.1293 29.5652 29.0073 29.8498 28.9667C29.9718 28.9667 30.0938 29.0073 30.1752 29.0073V28.6007C30.2158 28.6007 30.2158 28.5193 30.2565 28.438C30.7445 28.316 31.2732 28.1127 31.9238 28.316C32.1272 28.3973 32.4932 28.3973 32.7778 28.316C33.4285 28.194 33.9978 28.072 34.5672 27.95C34.9332 27.828 35.2585 27.706 35.6245 27.8687C35.8685 27.95 35.8278 27.706 35.9092 27.6247C36.0718 27.5433 36.2752 27.462 36.4785 27.34L38.3492 26.486C38.6745 26.3233 38.8778 26.0387 39.1218 25.8353C39.5692 25.3067 39.6098 25.0627 39.2032 24.534C38.9592 24.2087 38.7152 24.046 38.4305 23.7613C38.0238 23.3547 37.5765 22.9887 36.9665 22.826C36.1125 22.46 35.2585 22.0127 34.4045 21.6467C33.5505 21.1993 32.9812 20.4673 32.3712 19.776C32.2085 19.6133 32.1272 19.3693 32.1272 19.2067C31.9645 18.068 32.1272 17.092 33.1032 16.2787C33.1032 16.238 33.2252 16.1973 33.2252 16.1567C33.2658 15.5873 33.7945 15.384 34.0792 15.018L35.9498 13.6353C36.5598 13.2693 37.2105 12.944 37.8612 12.6593C38.4712 12.334 39.1625 12.0087 39.8132 11.8053C40.5858 11.5613 41.3178 11.3987 42.0905 11.1953C42.6192 11.114 43.1072 10.992 43.6358 10.992C44.4492 10.992 45.0998 11.1953 45.7912 11.5207C46.0758 11.6833 46.5232 11.8053 46.7672 12.0493C47.1738 12.456 47.4585 12.944 47.5398 13.5133C47.6212 14.0827 47.5805 14.6113 47.6212 15.2213C47.6212 15.262 47.6212 15.262 47.5805 15.3433C47.4992 16.0753 46.9298 16.5227 46.0758 16.36C45.7912 16.2787 45.5472 16.36 45.3438 16.5227ZM40.3418 11.8867C40.8298 12.0087 41.0738 12.09 41.3585 12.1713C41.5618 12.212 41.7652 12.09 41.7652 11.8053C41.3585 11.7647 40.9518 11.724 40.3418 11.8867ZM41.2365 14.5707C41.8465 14.652 42.0905 14.4893 42.2125 14.164V14.0827C42.1312 14.042 42.0092 14.042 41.9685 14.042C41.7652 14.1233 41.6025 14.286 41.2365 14.5707ZM34.2418 16.1973L34.3638 15.994C34.3232 15.8313 34.0792 15.7093 33.8758 15.75L33.8352 15.8313C33.8352 15.994 33.9978 16.1973 34.2418 16.1973ZM39.4878 14.774L39.8538 14.4893C39.8945 14.4893 39.8132 14.3267 39.8132 14.286C39.6098 14.2453 39.3658 14.408 39.3252 14.5707C39.3252 14.6113 39.3658 14.652 39.4878 14.774ZM30.8258 29.6173C30.7852 29.4953 30.7852 29.4547 30.7445 29.4547C30.6225 29.3327 30.5005 29.414 30.3785 29.4953C30.3785 29.5767 30.3378 29.658 30.3378 29.78L30.3785 29.8207C30.5818 29.7393 30.7038 29.6987 30.8258 29.6173ZM57.2563 14.774L57.5817 15.2213C57.785 15.6687 57.7443 15.872 57.297 16.0753C57.1343 16.1567 56.8497 16.1973 56.687 16.2787C56.5243 16.36 56.4023 16.482 56.2803 16.604C56.077 16.5227 55.833 16.4413 55.6297 16.3193C55.5077 16.36 55.4263 16.482 55.2637 16.482C54.5317 16.7667 54.2877 17.2953 54.1657 17.946C53.881 19.2473 53.5557 20.4267 53.1897 21.6467C52.9863 22.3787 52.905 23.1107 52.783 23.8833C52.6203 24.778 52.417 25.632 52.295 26.5267C52.1323 27.828 51.929 29.1293 52.4577 30.4713C52.4983 30.756 52.4983 31.0407 52.5797 31.3253C52.4577 31.5287 52.295 31.732 52.1323 31.854L51.5223 31.7727C51.441 31.9353 51.4003 32.098 51.2783 32.2607C51.1563 32.464 50.953 32.586 50.709 32.5047C50.3837 32.4233 50.221 32.2607 50.1397 31.9353C50.1397 31.7727 50.0583 31.6507 50.0583 31.5287C49.9363 31.244 49.733 31.0813 49.6517 31.1627L49.5703 31.5287C49.5297 31.6507 49.489 31.732 49.489 31.8133C49.123 31.6507 49.0417 31.3253 48.879 31.122C48.513 30.3087 48.269 29.5767 48.3097 28.7227C48.391 25.8353 48.9197 22.9887 49.5703 20.1827C49.8143 19.3693 50.0177 18.5967 50.221 17.7833L50.3023 17.2547C50.1803 17.214 50.099 17.1733 49.977 17.214C49.367 17.336 48.757 17.4987 48.1063 17.702C47.6997 17.7833 47.2117 17.824 46.7643 17.6207C46.7643 17.3767 46.7643 17.2547 46.7643 17.092C46.439 16.8073 46.195 17.214 45.8697 16.97C45.4223 16.482 45.3003 15.872 45.463 15.1807C45.6257 14.5707 45.9917 14.2453 46.5203 14.0827L49.977 13.3913C50.2617 13.3507 50.465 13.2693 50.7497 13.2693C51.441 13.2693 51.7257 12.822 51.929 12.2527C52.0103 12.09 52.051 12.0087 52.051 11.846C52.539 10.382 53.027 8.95867 53.5963 7.576C53.881 7.04733 54.003 6.478 54.2063 5.94933C54.491 5.258 54.735 4.48533 55.1417 3.794C55.2637 3.50933 55.5483 3.306 55.4263 2.85867C55.589 2.452 55.7517 2.00467 55.955 1.63867C56.1177 1.39467 56.3617 1.39467 56.6057 1.232C56.5243 1.06933 56.4837 0.947334 56.3617 0.866C56.4837 0.662666 56.6463 0.540668 56.8497 0.662666C56.9717 0.703333 57.0937 0.825333 57.2157 0.866C57.2157 0.825333 57.2563 0.784667 57.2563 0.744001C57.2563 0.540668 57.175 0.337335 57.4597 0.418667C57.663 0.418667 57.785 0.622 57.7037 0.825333C57.7443 0.906668 57.7443 0.988 57.7037 1.11L57.175 2.208C56.8903 2.24867 56.565 2.33 56.1583 2.37067L56.8903 2.98067C56.5243 3.71267 56.2803 4.44467 55.9957 5.17667C55.9143 5.29867 55.7923 5.42067 55.711 5.58333C55.6297 5.66467 55.5077 5.746 55.5077 5.78667C55.7517 6.27467 55.345 6.64067 55.223 7.00667C55.1417 7.332 54.8977 7.21 54.613 7.21C54.491 7.49467 54.979 7.576 54.857 7.77933C54.6943 8.22667 54.5317 8.63333 54.4503 9.12133C54.3283 9.528 53.9623 9.772 53.9623 10.26C53.881 10.6667 53.637 11.0733 53.515 11.5207C53.4743 11.968 53.2303 12.334 53.2303 12.8627C53.393 12.822 53.5557 12.822 53.515 12.7407L54.2877 10.87L55.6297 7.25067L56.077 6.112C56.5243 4.93267 57.0123 3.794 57.419 2.61467C57.5003 2.37067 57.663 2.208 57.7443 1.92333C57.8663 1.63867 58.0697 1.39467 58.4357 1.39467C58.5577 1.39467 58.6797 1.354 58.6797 1.27267C58.761 1.19133 58.8017 1.06933 58.6797 0.988C58.639 0.906668 58.517 0.906668 58.3543 0.866C58.639 0.581334 58.761 0.581334 58.9237 0.703333L59.4117 1.19133C59.615 1.39467 59.6557 1.63867 59.5337 1.842C59.371 2.04533 59.4523 2.24867 59.615 2.452C59.8183 2.77733 59.6557 3.02133 59.4523 3.306C59.371 3.38733 59.0863 3.38733 58.9643 3.672L59.4523 3.75333V3.916L58.883 4.85133L58.4357 5.70533C58.395 5.746 58.3137 5.82733 58.3137 5.94933C58.151 7.16933 57.4597 8.14533 57.175 9.284C57.1343 9.56867 56.809 9.81267 56.687 10.0973C56.6057 10.4633 56.6463 10.87 56.321 11.1547C56.321 11.5207 56.199 11.846 56.077 12.1713C55.9957 12.5373 56.077 12.944 56.1583 13.3507C56.443 13.554 56.5243 13.2693 56.687 13.31C56.8903 13.554 57.1343 13.554 57.4597 13.432C57.5003 13.432 57.5003 13.432 57.541 13.4727C57.7443 13.7573 57.5817 14.286 57.2563 14.408L56.8903 14.53C56.8497 14.53 56.809 14.652 56.809 14.7333C56.8497 14.7333 56.931 14.774 57.0123 14.774C57.053 14.8147 57.1343 14.774 57.2563 14.774ZM52.173 17.214C51.929 17.214 51.807 17.214 51.807 17.2547C51.5223 18.1087 51.197 18.9627 50.953 19.8167C50.6683 20.9553 50.465 22.1347 50.3023 23.314C50.1803 24.046 50.0583 24.778 49.977 25.5507C49.9363 25.7133 50.0177 25.8353 50.221 25.8353C50.465 24.9 50.587 23.9647 50.7497 23.0293C50.9937 22.0533 51.2377 21.0773 51.4003 20.1013C51.685 19.2067 51.8883 18.2713 52.173 17.214ZM47.1303 14.6113L46.927 14.408C46.805 14.3673 46.6423 14.6113 46.7237 14.774C46.7643 14.8147 46.8457 14.896 46.8863 14.896C47.049 14.896 47.1303 14.8147 47.1303 14.6113ZM56.443 13.8793C56.1583 13.8793 56.0363 13.798 55.8737 13.8387L55.6297 13.9607L55.6703 14.0827C55.711 14.2047 55.833 14.2047 55.955 14.164C56.1177 14.0827 56.1583 14.0013 56.443 13.8793ZM73.3034 16.0753C73.3848 16.2787 73.7508 16.1567 73.6695 16.5227C73.6288 16.6853 73.8728 16.8073 74.0761 16.8073C74.1574 16.8073 74.2795 16.8073 74.4015 16.8073C74.3608 16.9293 74.4015 17.0513 74.3608 17.1327C74.2388 17.4173 74.0355 17.6613 73.8728 17.8647C73.5881 18.2713 73.2221 18.5967 72.9781 18.9627C72.7341 19.3287 72.6528 19.776 72.4495 20.1827C72.4088 20.2233 72.3681 20.3047 72.3681 20.3453C72.2461 20.752 71.8801 20.996 71.7988 21.4433C71.7581 21.8093 71.6361 22.216 71.5548 22.6227C71.4735 23.192 71.3921 23.7613 71.2701 24.3713C71.0261 25.6727 70.9041 26.974 71.3108 28.2753C71.3515 28.5193 71.2701 28.7227 71.2295 28.9667C71.1888 29.0073 71.2295 29.0887 71.3921 29.1293C71.5548 29.17 71.5548 29.3733 71.4735 29.4547C71.3108 30.024 70.9041 30.39 70.4161 30.6747C70.0095 30.878 69.5621 30.8373 69.0741 30.7153C69.0335 30.6747 68.9521 30.5527 68.9115 30.4307C68.7488 30.1867 68.6675 29.902 68.5455 29.658C68.4641 29.4547 68.3015 29.536 68.1795 29.7393C67.6101 29.0073 67.2848 28.316 67.4068 27.3807C67.5288 26.6893 67.4068 26.0387 67.2848 25.3473C66.8781 25.3067 66.7561 25.5913 66.6341 25.754C65.9428 26.4453 65.3328 27.1773 64.7228 27.9093C64.4788 28.194 64.2348 28.4787 63.8688 28.6007C63.7875 28.6007 63.6655 28.7633 63.5841 28.8853C63.2181 29.3733 62.7301 29.658 62.1608 29.902C61.8355 30.0647 61.3881 30.268 61.0628 30.39C60.3308 30.634 59.5988 30.634 58.9075 30.3087C57.7688 29.7393 56.9148 28.9667 56.5895 27.6653C56.7115 27.5027 56.8335 27.3807 56.9148 27.218C56.8335 26.974 56.5895 27.096 56.4675 27.0553C56.4268 27.0147 56.3861 26.974 56.3861 26.9333C56.1421 24.9 56.3861 22.9073 57.0368 21.0367C57.6875 19.2473 58.6635 17.58 59.9241 16.0753C60.3308 15.628 60.8595 15.3433 61.3475 14.9367C61.7541 14.4893 62.1201 14.042 62.5675 13.676C63.1368 13.1473 63.8688 13.0253 64.5601 12.7407C65.1295 12.5373 67.0001 12.7813 67.5695 13.066C67.6915 13.1473 67.8948 13.2693 68.0168 13.3913C68.7488 14.0827 69.3995 14.8147 69.5621 15.872C69.6434 16.0753 69.6841 16.4007 70.0095 16.482C70.1315 16.3193 70.2941 16.116 70.4974 15.9127C70.7008 15.6687 70.9448 15.4653 71.1481 15.2213C71.3515 15.018 71.6361 15.0587 71.8801 15.14C71.9615 15.628 71.9208 15.994 71.5548 16.36C71.3921 16.5227 71.3108 16.8073 71.2295 17.0107C71.1888 17.0513 71.2701 17.214 71.3108 17.214C71.4328 17.214 71.5548 17.2547 71.5955 17.214C71.7581 17.0107 71.9615 16.848 72.0428 16.604C72.1648 16.3193 72.3275 15.994 72.6528 15.872C72.8155 15.7907 72.8155 15.628 72.8155 15.4653C72.8155 15.14 73.1001 15.0587 73.3034 14.9367C73.3848 14.9367 73.5068 14.9367 73.6288 14.9773C73.6695 14.9773 73.7508 15.14 73.7508 15.2213C73.7101 15.4247 73.6288 15.5873 73.5068 15.75C73.4661 15.872 73.3848 15.9533 73.3034 16.0753ZM59.9648 26.5267C60.4121 26.608 60.5748 26.4453 60.8188 26.242C61.9575 25.4287 62.8521 24.29 63.8281 23.2327C64.6008 22.4193 65.2108 21.5653 65.8615 20.63C66.1868 20.2233 66.6341 19.898 66.7155 19.3693C66.6341 19.0847 66.5528 18.7593 66.3901 18.434C66.2681 18.19 66.5121 17.9053 66.3901 17.702C66.2275 17.336 65.9428 16.9293 65.6988 16.5633C65.6175 16.4413 65.3735 16.4007 65.2108 16.482C64.8448 16.726 64.4381 16.8887 64.1941 17.1733C63.6248 17.8647 62.9335 18.3933 62.4048 19.1253C61.2661 20.7113 60.4121 22.3787 60.1275 24.29C60.0055 25.022 60.0055 25.754 59.9648 26.5267ZM58.7041 21.4433C58.9481 20.874 59.1515 20.4267 59.3548 19.9793C59.3548 19.898 59.2735 19.8573 59.1921 19.776H59.1108C58.9888 19.8573 58.9075 19.898 58.9075 20.02C58.7448 20.4267 58.6228 20.8333 58.5415 21.24C58.5008 21.24 58.5821 21.2807 58.7041 21.4433ZM70.7008 22.5007C70.8634 22.3787 71.0261 22.338 71.1481 22.216C71.1888 22.216 71.2295 22.094 71.1888 22.094C71.1481 22.0127 71.0261 21.972 71.0261 21.972C70.8634 22.094 70.7008 22.216 70.5788 22.2567C70.5381 22.2973 70.5381 22.338 70.5381 22.3787C70.5788 22.3787 70.6195 22.4193 70.7008 22.5007ZM84.6161 28.9667C84.7788 29.292 84.7381 29.5767 84.6568 29.9427C84.2501 31.122 83.8841 32.342 83.4774 33.4807C83.0708 34.782 82.5014 35.9613 81.7694 37.0593C81.3221 37.7507 80.7934 38.32 80.1834 38.8487C80.1021 38.8893 80.0614 39.0113 79.9801 39.0113C79.7361 39.052 79.4514 38.93 79.2481 39.296C79.1261 39.4993 78.8414 39.5807 78.5974 39.662C78.2721 39.8247 77.9061 39.9873 77.4994 39.8247C77.2961 39.7027 77.0928 39.784 76.9301 39.7433C76.6861 39.7433 76.4421 39.7433 76.2388 39.662C75.4254 39.296 74.5308 39.0927 73.9614 38.2793C73.8801 38.198 73.7988 38.1167 73.7174 38.076C72.8634 37.588 72.2128 36.856 71.7248 36.0833C71.6434 35.9207 71.5214 35.7987 71.3994 35.758C70.9521 35.392 70.7488 34.9853 70.6268 34.416C70.6268 34.3753 70.5861 34.2533 70.5454 34.1313C70.3421 33.2773 70.6268 32.6673 71.4401 32.22C71.8061 31.976 72.0908 32.0573 72.3348 32.464C72.3348 32.464 72.3348 32.5453 72.3754 32.5453C72.4568 32.6673 72.5381 32.7893 72.6194 32.7893C72.7008 32.7487 72.7821 32.6673 72.7821 32.5453C72.9041 32.4233 72.9041 32.3013 72.9448 32.1387C73.6361 32.4233 73.9614 32.9113 74.3681 33.3993C75.1408 34.3347 75.9541 35.148 76.9301 35.7987C77.3368 36.124 77.4994 36.124 77.9061 35.7987C78.5568 35.2293 78.9228 34.4567 79.2481 33.7653C79.8174 32.5047 80.3868 31.2847 80.6714 29.9427C80.7934 29.536 80.9561 29.0887 81.1188 28.682C81.2408 28.3973 81.3221 28.072 81.2001 27.7467C80.9154 27.6653 80.7121 27.8687 80.4681 28.0313C79.8581 28.3973 79.0854 28.5193 78.3941 28.6007C77.9468 28.7227 77.4994 28.6007 77.0928 28.5193C76.2388 28.316 75.6288 27.8687 74.9781 27.3807C74.1648 26.7707 73.8394 25.754 73.6361 24.778C73.3921 23.5987 73.5548 22.3787 73.9614 21.24C74.2868 20.02 74.8561 18.922 75.6288 17.9053C76.2794 17.0107 77.0928 16.1973 77.8654 15.4653C78.0281 15.3027 78.1908 15.14 78.3941 15.0587C78.7194 14.9367 78.9634 14.7333 79.2074 14.53C79.8988 14.0013 80.6714 13.554 81.6068 13.554C81.7694 13.554 81.8508 13.4727 81.9728 13.3913C82.1354 13.31 82.3388 13.2693 82.5014 13.2693C83.3554 13.2287 84.2094 13.2693 85.0228 13.554C85.3074 13.6353 85.5921 13.7573 85.7954 13.8793C86.4054 14.2047 86.4054 14.2453 86.5274 15.018C86.9341 15.14 87.1374 14.6927 87.5034 14.652C87.6254 14.7333 87.7474 14.8147 87.8694 14.9367C88.2761 15.262 88.1948 15.8313 88.3981 16.238C88.5201 16.4413 88.3981 16.726 88.3574 17.0107C88.2761 17.2953 88.1948 17.5393 88.1541 17.8647C88.0728 18.0273 87.9508 18.2307 87.9914 18.3933C88.1948 19.166 87.6661 19.8167 87.4221 20.4673C87.3001 20.9553 87.0968 21.4433 86.9748 21.9313C86.5681 23.68 86.0801 25.4287 85.5514 27.1367L85.1854 28.1533C85.0228 28.438 84.8194 28.6413 84.6161 28.9667ZM77.2554 23.68C77.2554 24.5747 77.7841 24.9407 78.5161 24.6967C78.5568 24.656 78.5974 24.656 78.5974 24.6153C79.2481 24.3307 79.8581 23.9647 80.3868 23.5173C80.9968 23.0293 81.4441 22.3787 82.1354 21.972C82.2574 21.8907 82.2981 21.7687 82.3794 21.6467C82.5014 21.362 82.6641 21.118 82.8268 20.874C83.4774 20.02 83.8434 19.044 84.0061 17.946C84.0874 17.458 84.0061 17.336 83.5588 17.092C83.1928 17.0107 82.8674 17.0107 82.4608 17.092C81.9321 17.2953 81.4441 17.4987 80.9968 17.8647C80.1834 18.434 79.4514 19.166 78.8414 20.02C78.4754 20.5487 78.0688 21.118 77.7841 21.6873C77.4994 22.338 77.3774 23.1107 77.2554 23.68ZM81.5254 32.1387L81.7288 32.0167C81.9728 31.2033 82.2981 30.39 82.5828 29.536C82.9488 28.56 83.1521 27.462 83.7214 26.4453C83.7621 26.364 83.8028 26.242 83.7621 26.1607C83.7621 26.0793 83.6401 25.9573 83.5588 25.9167C83.4774 25.876 83.3554 25.9167 83.3148 25.998C83.1928 26.2013 83.0708 26.4453 82.9894 26.6893C82.6234 27.9093 82.3794 29.0887 81.9321 30.268C81.7694 30.5933 81.8101 31 81.5661 31.2847C81.6474 31.5287 81.3221 31.854 81.5254 32.1387ZM84.9008 27.5433C84.6161 27.9907 84.6161 27.9907 84.7381 28.316C84.8601 28.1127 85.0634 27.8687 84.9008 27.5433ZM94.2067 22.0127C94.1661 22.094 94.2067 22.1753 94.1661 22.2973C93.8814 22.9887 93.5561 23.7207 93.3121 24.4527L92.8647 24.534C92.9461 24.6153 93.1087 24.778 93.1901 24.8593C93.1494 24.9 93.1901 24.9813 93.1494 25.022C92.7834 25.9573 92.4987 26.974 92.2954 27.95C92.1327 28.6007 92.1327 28.6007 91.5227 29.0073C91.5227 29.2107 91.7261 29.2513 91.8074 29.3733C91.8887 29.6173 91.7261 29.902 91.4414 29.902C91.2381 29.902 91.0754 29.8613 91.0347 30.0647C90.8314 30.3493 90.5874 30.4713 90.3027 30.512C90.0587 30.5527 89.8147 30.4307 89.8147 30.2273C89.8147 29.6987 89.7741 29.17 89.9774 28.6413C90.0181 28.56 89.9774 28.438 90.0181 28.316L89.9367 28.2347H89.7334C89.6927 28.3567 89.6521 28.4787 89.6114 28.6413C89.4894 28.926 89.4487 29.2513 89.2861 29.5767C89.1641 29.7393 89.1641 29.902 89.2047 30.0647C89.2047 30.1053 89.1641 30.1867 89.0827 30.1867C89.0827 30.1867 88.9607 30.2273 88.8794 30.146C88.7574 30.024 88.7167 29.8613 88.5541 29.78C88.3101 29.4547 88.1474 29.1293 88.4321 28.7633C88.3101 28.2753 88.3101 27.828 88.4321 27.3807C88.7574 26.1607 89.0014 24.8593 89.2454 23.5987C89.4894 22.7447 89.7334 21.8907 89.8554 20.996C89.9774 20.4673 90.1807 19.9387 90.3434 19.4507C90.3841 19.288 90.5061 19.2067 90.5061 19.0847C90.3841 18.434 90.6687 17.8647 90.7501 17.336C90.7501 16.7667 91.1567 16.2787 91.1567 15.75C91.1161 15.262 91.3194 14.7333 91.3601 14.2047C91.3601 13.92 91.4414 13.92 91.9701 13.8387L91.8481 13.2693C91.9701 13.2693 92.0107 13.2287 92.0921 13.188C92.1734 13.1473 92.2954 13.1067 92.3767 13.1067C92.4581 13.066 92.5394 12.9847 92.6207 12.944C92.7427 12.944 92.9054 12.9847 92.9867 12.9847L92.7021 13.676C92.6207 13.9607 92.8647 14.286 92.6614 14.6113C92.4987 14.774 92.5394 15.0993 92.5394 15.4247C92.6614 15.384 92.7834 15.3433 92.8241 15.3027C92.9054 15.018 92.9867 14.6927 93.3121 14.4893C93.3934 14.3673 93.4747 14.164 93.4747 14.042C93.6374 13.798 93.6374 13.5133 93.6374 13.188C93.9221 13.2693 94.2881 13.31 94.5321 13.31C94.7761 13.3913 94.9387 13.5947 94.9387 13.7167C94.8981 14.042 94.7761 14.3267 94.6947 14.6113C94.8574 14.652 94.9794 14.6113 95.0201 14.6113C95.2641 14.3673 95.5894 14.3267 95.8334 14.0827C96.0367 13.798 96.4027 13.676 96.7281 13.5947C96.8094 13.554 96.8907 13.5133 96.8501 13.4727C97.2161 13.066 97.6634 12.9847 98.1107 12.7813L99.8594 12.7407L100.144 12.9033C101.201 13.5947 101.445 14.4893 101.445 15.4653C101.445 15.5873 101.323 15.8313 101.445 15.9533C101.73 16.2787 101.486 16.7667 101.811 17.092C102.015 17.2547 102.015 17.4173 102.015 17.702C102.015 17.7427 102.259 17.824 102.381 17.824C102.381 17.9867 102.462 18.19 102.421 18.3933C102.462 18.678 102.299 18.8407 101.852 18.8407C101.771 18.8 101.567 18.7187 101.405 18.8813C101.567 19.166 101.933 19.2473 102.177 19.532C102.137 19.532 102.015 19.5727 102.015 19.6133C101.893 19.654 101.039 19.898 100.917 19.8573C100.835 19.898 100.754 19.898 100.713 19.9793C100.673 20.1013 100.429 20.0607 100.307 19.9387C100.022 19.654 99.6561 19.4507 99.2087 19.3287C98.6801 18.8 98.1921 18.2307 98.1514 17.5393C98.1107 17.092 98.1107 17.092 97.5821 16.726C97.6227 17.2547 97.6227 17.2547 97.3381 17.6207C97.1754 17.7833 96.9721 17.9867 96.8907 18.1087C96.5654 18.312 96.4027 18.434 96.2401 18.8C96.1994 19.044 95.9147 19.288 95.7114 19.532C95.4267 19.9387 95.2234 20.386 95.0201 20.7927C94.6947 21.1587 94.5727 21.6467 94.1661 21.972C94.0847 21.8907 94.0034 21.7687 93.9221 21.6873C93.7594 21.6467 93.5561 21.728 93.5561 21.8907C93.5154 21.9313 93.5967 22.0127 93.5967 22.1347C93.8407 22.094 94.0441 22.0127 94.2067 22.0127ZM92.5394 17.3767L92.4581 16.4007C92.2547 16.726 92.2141 16.8073 92.0921 16.97C91.9701 17.092 91.8481 17.1733 91.8887 17.336C92.2141 17.6207 92.4987 17.58 92.5394 17.3767ZM95.0201 16.116C95.1014 16.0347 95.2234 16.0347 95.2641 15.994C95.3047 15.9533 95.3861 15.75 95.3047 15.75C95.2234 15.7093 95.0607 15.6687 95.0201 15.7093C94.9387 15.75 94.8574 15.8313 94.8167 15.9533C94.7761 15.994 94.8981 16.0753 95.0201 16.116ZM119.53 16.0753C119.611 16.2787 119.977 16.1567 119.896 16.5227C119.855 16.6853 120.099 16.8073 120.303 16.8073C120.384 16.8073 120.506 16.8073 120.628 16.8073C120.587 16.9293 120.628 17.0513 120.587 17.1327C120.465 17.4173 120.262 17.6613 120.099 17.8647C119.815 18.2713 119.449 18.5967 119.205 18.9627C118.961 19.3287 118.879 19.776 118.676 20.1827C118.635 20.2233 118.595 20.3047 118.595 20.3453C118.473 20.752 118.107 20.996 118.025 21.4433C117.985 21.8093 117.863 22.216 117.781 22.6227C117.7 23.192 117.619 23.7613 117.497 24.3713C117.253 25.6727 117.131 26.974 117.537 28.2753C117.578 28.5193 117.497 28.7227 117.456 28.9667C117.415 29.0073 117.456 29.0887 117.619 29.1293C117.781 29.17 117.781 29.3733 117.7 29.4547C117.537 30.024 117.131 30.39 116.643 30.6747C116.236 30.878 115.789 30.8373 115.301 30.7153C115.26 30.6747 115.179 30.5527 115.138 30.4307C114.975 30.1867 114.894 29.902 114.772 29.658C114.691 29.4547 114.528 29.536 114.406 29.7393C113.837 29.0073 113.511 28.316 113.633 27.3807C113.755 26.6893 113.633 26.0387 113.511 25.3473C113.105 25.3067 112.983 25.5913 112.861 25.754C112.169 26.4453 111.559 27.1773 110.949 27.9093C110.705 28.194 110.461 28.4787 110.095 28.6007C110.014 28.6007 109.892 28.7633 109.811 28.8853C109.445 29.3733 108.957 29.658 108.387 29.902C108.062 30.0647 107.615 30.268 107.289 30.39C106.557 30.634 105.825 30.634 105.134 30.3087C103.995 29.7393 103.141 28.9667 102.816 27.6653C102.938 27.5027 103.06 27.3807 103.141 27.218C103.06 26.974 102.816 27.096 102.694 27.0553C102.653 27.0147 102.613 26.974 102.613 26.9333C102.369 24.9 102.613 22.9073 103.263 21.0367C103.914 19.2473 104.89 17.58 106.151 16.0753C106.557 15.628 107.086 15.3433 107.574 14.9367C107.981 14.4893 108.347 14.042 108.794 13.676C109.363 13.1473 110.095 13.0253 110.787 12.7407C111.356 12.5373 113.227 12.7813 113.796 13.066C113.918 13.1473 114.121 13.2693 114.243 13.3913C114.975 14.0827 115.626 14.8147 115.789 15.872C115.87 16.0753 115.911 16.4007 116.236 16.482C116.358 16.3193 116.521 16.116 116.724 15.9127C116.927 15.6687 117.171 15.4653 117.375 15.2213C117.578 15.018 117.863 15.0587 118.107 15.14C118.188 15.628 118.147 15.994 117.781 16.36C117.619 16.5227 117.537 16.8073 117.456 17.0107C117.415 17.0513 117.497 17.214 117.537 17.214C117.659 17.214 117.781 17.2547 117.822 17.214C117.985 17.0107 118.188 16.848 118.269 16.604C118.391 16.3193 118.554 15.994 118.879 15.872C119.042 15.7907 119.042 15.628 119.042 15.4653C119.042 15.14 119.327 15.0587 119.53 14.9367C119.611 14.9367 119.733 14.9367 119.855 14.9773C119.896 14.9773 119.977 15.14 119.977 15.2213C119.937 15.4247 119.855 15.5873 119.733 15.75C119.693 15.872 119.611 15.9533 119.53 16.0753ZM106.191 26.5267C106.639 26.608 106.801 26.4453 107.045 26.242C108.184 25.4287 109.079 24.29 110.055 23.2327C110.827 22.4193 111.437 21.5653 112.088 20.63C112.413 20.2233 112.861 19.898 112.942 19.3693C112.861 19.0847 112.779 18.7593 112.617 18.434C112.495 18.19 112.739 17.9053 112.617 17.702C112.454 17.336 112.169 16.9293 111.925 16.5633C111.844 16.4413 111.6 16.4007 111.437 16.482C111.071 16.726 110.665 16.8887 110.421 17.1733C109.851 17.8647 109.16 18.3933 108.631 19.1253C107.493 20.7113 106.639 22.3787 106.354 24.29C106.232 25.022 106.232 25.754 106.191 26.5267ZM104.931 21.4433C105.175 20.874 105.378 20.4267 105.581 19.9793C105.581 19.898 105.5 19.8573 105.419 19.776H105.337C105.215 19.8573 105.134 19.898 105.134 20.02C104.971 20.4267 104.849 20.8333 104.768 21.24C104.727 21.24 104.809 21.2807 104.931 21.4433ZM116.927 22.5007C117.09 22.3787 117.253 22.338 117.375 22.216C117.415 22.216 117.456 22.094 117.415 22.094C117.375 22.0127 117.253 21.972 117.253 21.972C117.09 22.094 116.927 22.216 116.805 22.2567C116.765 22.2973 116.765 22.338 116.765 22.3787C116.805 22.3787 116.846 22.4193 116.927 22.5007ZM127.305 11.3173L127.142 12.2527C127.305 12.2527 127.386 12.2527 127.549 12.2933C127.305 13.4727 127.305 13.4727 126.776 13.8793C126.898 14.0827 127.02 14.2453 127.183 14.3673C127.467 14.4487 127.589 14.2453 127.711 14.0827C128.281 13.188 129.094 12.6593 129.989 12.1713C130.192 12.1307 130.395 12.0493 130.639 12.1307C130.68 12.1713 130.883 12.1713 130.924 12.09C131.412 11.6833 131.981 11.724 132.51 11.846C133.039 12.0493 133.445 12.4153 133.73 12.944C133.933 13.3507 134.299 13.7573 134.259 14.2453C134.137 15.0587 134.543 15.8313 134.543 16.604C134.543 16.6447 134.625 16.6447 134.665 16.6853C134.828 16.726 134.909 16.6447 135.031 16.5227C135.601 15.8313 136.129 15.0587 136.78 14.4487C137.349 13.8387 137.959 13.31 138.529 12.7813L139.952 11.5613C140.359 11.1953 140.806 10.7887 141.335 10.7073C141.416 10.6667 141.497 10.5447 141.619 10.504C141.741 10.3413 141.782 10.1787 141.904 10.0973L143.327 9.20267L143.653 9.12133C143.612 9.36533 143.49 9.60933 143.49 9.81267C143.449 9.894 143.531 10.016 143.612 10.0973L143.815 9.97533C143.897 9.772 143.937 9.528 143.937 9.32467C143.937 9.162 143.775 9.12133 143.653 9.12133C143.978 8.63333 144.547 8.47067 145.035 8.308C145.239 8.22667 145.523 8.186 145.767 8.14533C145.93 8.26733 146.093 8.308 146.296 8.43L147.069 8.10467C147.15 8.14533 147.231 8.14533 147.272 8.186C147.557 8.43 147.841 8.75533 148.126 8.95867C148.37 9.162 148.533 9.36533 148.37 9.65C148.37 9.73133 148.37 9.894 148.451 9.93467C148.899 10.5853 148.777 11.236 148.492 11.8053C148.045 12.5373 147.923 13.31 147.557 14.0827C147.231 14.774 146.987 15.5467 146.662 16.2787C146.499 16.6447 146.377 17.0513 146.174 17.4173C146.093 17.58 145.889 17.7833 145.645 17.946C145.483 18.068 145.645 18.19 145.686 18.312C145.564 18.434 145.401 18.4747 145.239 18.556C145.157 18.8407 145.442 18.8813 145.564 19.0033C145.564 19.2473 144.629 22.4193 144.141 23.7613C143.978 23.8833 143.897 23.6393 143.775 23.6393C143.693 23.6393 143.531 23.7613 143.531 23.802C143.612 24.0867 143.368 24.2493 143.287 24.4933C143.612 24.656 143.693 24.29 143.937 24.29C143.978 24.3713 144.019 24.4933 144.019 24.5747C143.937 24.8187 143.856 25.144 143.571 25.3473C143.49 25.2253 143.409 25.144 143.327 24.9813C143.287 25.0627 143.205 25.0627 143.205 25.1033C143.165 25.2253 143.043 25.4693 143.002 25.632C143.002 25.876 142.717 26.1607 142.961 26.2827C143.327 26.5673 143.327 26.0387 143.612 25.876V26.364C143.693 26.73 143.205 27.0147 143.327 27.3807C143.409 27.706 143.287 28.072 143.246 28.3567C143.205 28.7227 143.124 29.0887 143.002 29.4547C142.921 29.6987 143.002 30.024 143.002 30.3493C143.083 30.39 143.205 30.4713 143.246 30.4713C143.368 30.5527 143.368 30.634 143.246 30.756C143.124 31 142.717 31.0407 142.595 31.4473C142.595 31.488 142.433 31.5693 142.311 31.5287C142.148 31.488 141.985 31.488 141.782 31.5693C141.416 31.6507 141.416 31.5693 141.294 31.1627C141.213 30.5527 141.091 30.024 140.928 29.3327C140.806 29.414 140.643 29.414 140.481 29.4953C140.481 29.8207 140.481 30.1053 140.521 30.4713L140.684 31.4067L140.359 31.244C139.464 30.1867 139.342 29.0073 139.505 27.6653C139.545 27.5027 139.627 27.34 139.83 27.2993L140.237 27.1367C140.033 27.0553 139.83 26.974 139.789 26.852C139.708 26.6487 139.708 26.4047 139.749 26.1607C139.789 25.7947 139.871 25.4287 139.952 25.0627C140.074 24.8187 140.318 24.8593 140.481 24.8187C140.521 24.8187 140.603 24.7373 140.603 24.7373C140.562 24.6153 140.481 24.4933 140.399 24.4933C140.277 24.4527 140.155 24.4527 140.155 24.2493C140.155 24.1273 140.196 24.0053 140.277 23.924C140.359 23.7207 140.562 23.436 140.725 23.2327C140.562 22.9073 140.684 22.6633 140.765 22.338C140.847 21.9313 140.887 21.484 141.05 21.0773C141.375 20.1827 141.497 19.2473 141.985 18.3933C142.067 18.2713 142.107 18.068 142.107 17.946C142.148 17.4987 142.311 17.0107 142.514 16.5633C142.636 16.36 142.717 16.116 142.758 15.872C142.839 15.628 142.921 15.506 143.165 15.3433C143.205 15.3027 143.287 15.14 143.246 15.0587C143.124 14.652 143.449 14.3267 143.531 13.92C143.449 13.8387 143.368 13.7573 143.246 13.7573C143.165 13.7573 142.961 13.798 142.839 13.8793C142.555 14.4487 141.945 14.6927 141.538 15.1807C141.457 15.3027 141.294 15.4247 141.213 15.4653C140.847 15.5467 140.603 15.6687 140.562 16.0347L139.139 17.458C138.895 17.6613 138.61 17.824 138.488 18.1493C138.407 18.312 138.203 18.3527 138.041 18.434C137.919 18.5153 137.797 18.6373 137.797 18.8C137.756 19.41 137.39 19.776 136.739 19.776L136.943 20.264C136.211 20.996 135.926 22.0533 135.357 22.9887C135.153 22.948 134.991 22.9073 134.828 22.9073C134.747 22.9073 134.665 22.9887 134.665 23.0293C134.625 23.07 134.665 23.192 134.706 23.2327C134.828 23.2733 134.991 23.314 135.072 23.3953C135.031 23.9647 134.543 24.29 134.381 24.8187C134.055 25.1033 133.649 25.388 133.201 25.3067C132.917 25.2253 132.713 25.5507 132.51 25.5913C132.347 25.4693 132.185 25.2253 132.063 25.2253C131.249 25.2253 131.127 24.6967 130.843 24.2493C130.965 24.0053 131.249 24.0867 131.209 23.802C131.168 23.4767 130.883 23.5987 130.68 23.5173C130.68 23.3547 130.639 23.192 130.639 22.9887C130.639 22.2973 130.68 21.606 130.68 20.874C130.68 20.2233 130.558 19.4913 130.68 18.8407V18.3933C130.68 17.824 130.68 17.2547 130.965 16.8073C130.802 16.5633 130.639 16.5633 130.477 16.6853C130.192 16.9293 129.867 17.1327 129.663 17.4173C129.094 18.068 128.525 18.8 128.037 19.4913C127.589 20.1827 127.183 20.9147 126.735 21.6873C126.573 21.9313 126.369 22.1347 126.207 22.338C126.166 22.4193 126.044 22.46 126.044 22.5413C126.247 23.192 125.434 23.4767 125.393 24.0867C125.393 24.4527 125.19 24.7373 124.987 25.0627C124.946 25.1033 124.824 25.022 124.702 24.9813C124.539 25.3473 124.783 25.876 124.336 26.1607C124.295 26.608 124.011 26.9333 123.889 27.2993C123.645 27.7873 123.238 28.194 123.238 28.804C123.238 28.8853 123.197 29.0073 123.116 29.0887C122.953 29.536 122.831 29.9427 122.506 30.2273C122.221 30.5527 121.774 30.8373 121.367 31.0407C121.205 31.1627 121.042 31.1627 120.757 31.1627C120.676 30.512 120.432 30.024 120.107 29.4547C119.903 29.536 120.025 29.6987 119.985 29.902C119.944 30.1053 119.944 30.39 119.944 30.756C119.578 30.5527 119.415 30.39 119.171 30.2273C119.131 29.9427 119.131 29.6173 119.049 29.3733C118.968 29.0887 119.049 28.8853 119.049 28.6007C119.09 28.1533 119.578 27.828 119.375 27.34C119.537 26.852 119.619 26.4047 119.741 25.9573L120.066 24.534C120.066 24.4527 120.107 24.412 120.107 24.29C120.229 23.8833 120.554 23.558 120.554 23.0293C120.554 22.5413 120.757 22.094 120.92 21.6467C121.123 20.7927 121.367 19.9387 121.652 19.0847C122.384 16.726 123.075 14.3267 123.807 11.9273C123.929 11.602 124.051 11.3173 124.133 10.992C124.295 10.26 124.905 10.016 125.393 9.56867C125.678 10.3413 125.678 10.3413 125.475 10.8293C125.231 11.5613 124.865 12.212 124.743 13.0253L124.661 13.188C124.173 13.798 124.173 14.53 123.97 15.1807L123.441 17.4173C123.441 17.4987 123.441 17.58 123.401 17.6207C122.709 18.068 122.994 18.8407 122.831 19.41C122.709 19.776 122.628 20.1827 122.303 20.508C122.343 20.7113 122.425 20.874 122.465 21.118H122.669C122.953 20.8333 123.035 20.4673 123.116 20.1013C123.36 19.41 123.523 18.7593 123.726 18.068C123.767 17.9867 123.767 17.946 123.767 17.9053C124.417 15.8313 125.027 13.7167 125.678 11.6833C125.759 11.5207 125.8 11.358 125.841 11.236C126.329 11.1953 126.329 11.1953 126.817 10.87C126.857 10.5853 126.573 10.26 126.979 9.93467C127.223 10.016 127.386 10.2193 127.589 10.4633C127.589 10.748 127.508 11.0733 127.305 11.3173ZM141.823 23.4767C141.782 23.4767 141.701 23.4767 141.619 23.5173C141.253 23.7613 141.213 23.802 141.497 24.2493V24.3307C141.294 24.534 141.131 24.7373 140.928 24.8593C141.213 25.388 141.253 25.876 141.009 26.4047C140.928 26.5673 140.969 26.73 140.969 26.9333C140.928 27.34 141.05 27.7467 140.684 28.072C140.684 28.072 140.765 28.194 140.806 28.2347C140.887 28.2753 140.969 28.2347 141.091 28.194L141.172 28.1127C141.335 27.218 141.579 26.364 141.741 25.4693C141.823 24.8187 141.823 24.168 141.904 23.5173C142.392 22.9887 142.351 22.338 142.473 21.728C142.514 21.6873 142.392 21.606 142.311 21.606C142.27 21.606 142.189 21.6467 142.189 21.6873C142.026 22.2567 141.945 22.8667 141.823 23.4767ZM140.359 14.0827V14.774C140.399 15.0587 140.603 15.1807 140.847 15.0993L141.172 15.018C141.619 14.774 141.66 14.4893 141.294 14.1233C140.969 13.8387 140.969 13.8387 140.359 14.0827ZM132.185 22.46C131.575 22.4193 131.168 22.5413 130.883 22.9073C130.843 22.9887 130.924 23.192 130.965 23.192C131.249 23.314 131.615 23.314 131.737 23.07C131.859 22.7853 132.063 22.6633 132.185 22.46ZM145.93 12.1713C146.093 12.3747 146.296 12.6187 146.499 12.7813H146.54C146.581 12.5373 146.621 12.2933 146.703 12.09C146.784 11.7647 146.703 11.602 146.459 11.4393C146.337 11.7647 146.255 11.9273 145.93 12.1713ZM132.469 17.6207L132.022 16.726C131.575 16.848 131.493 16.97 131.656 17.2547C131.778 17.4987 132.022 17.58 132.225 17.702C132.266 17.7427 132.388 17.6613 132.469 17.6207ZM144.181 15.7093C144.385 15.7907 144.547 15.872 144.71 15.9127L144.913 15.7093C144.588 15.506 144.669 15.0993 144.669 14.7333C144.263 14.9367 144.263 15.3027 144.181 15.7093ZM142.433 18.434L142.88 19.3287C142.921 19.3693 143.043 19.3693 143.083 19.3693C143.165 19.3693 143.205 19.2473 143.205 19.166C143.205 18.8407 142.961 18.678 142.433 18.434ZM141.782 22.2567C141.904 22.0127 141.701 21.8093 141.619 21.6873C141.579 21.6467 141.416 21.5653 141.335 21.606C141.253 21.606 141.213 21.728 141.091 21.8093C141.294 22.0533 141.497 22.1753 141.782 22.2567ZM125.231 21.2807C124.905 21.362 124.783 21.4027 124.58 21.5247C124.58 21.5247 124.499 21.6873 124.539 21.728C124.58 21.8093 124.702 21.8907 124.783 21.9313C124.987 21.9313 125.109 21.8093 125.231 21.2807ZM145.035 9.44667C145.483 9.284 145.442 8.87733 145.564 8.63333C145.564 8.63333 145.442 8.552 145.361 8.552C145.157 8.796 145.117 9.08067 145.035 9.44667ZM147.963 11.846C148.126 11.6833 148.248 11.48 148.248 11.236C148.248 11.1953 148.248 11.0733 148.167 11.0327C148.126 11.0327 148.045 11.0733 148.045 11.1547C147.841 11.3173 147.801 11.5613 147.963 11.846ZM144.222 16.6853C144.181 16.6447 144.181 16.5227 144.141 16.5227C144.1 16.5227 143.978 16.5227 143.937 16.5633C143.856 16.6447 143.775 16.726 143.775 16.848C143.693 16.97 143.815 17.0513 143.978 17.0513C144.181 17.0107 144.263 16.9293 144.222 16.6853ZM145.32 14.286C145.117 14.2047 144.954 14.1233 144.751 14.0827C144.71 14.042 144.629 14.1233 144.629 14.1233C144.588 14.164 144.629 14.286 144.669 14.3267C144.832 14.4893 145.076 14.4893 145.32 14.286ZM143.978 21.6467C144.507 21.5247 144.547 21.484 144.385 20.996C144.222 21.1993 144.1 21.4027 143.978 21.6467ZM127.874 14.9773C127.915 15.018 128.037 14.9773 128.077 14.9367C128.118 14.774 128.118 14.6113 127.996 14.5707C127.955 14.53 127.833 14.53 127.793 14.5707C127.671 14.6927 127.711 14.9367 127.874 14.9773ZM19.104 76.122C19.0227 75.878 18.982 75.634 18.9413 75.3493C18.616 75.5527 18.3313 75.6747 18.616 76C18.6973 76.0813 18.6567 76.2847 18.5753 76.4067C18.372 76.7727 17.9653 76.976 17.8027 76.854C17.5587 76.7727 17.396 76.5287 17.3553 76.2847C17.274 75.8373 17.274 75.4307 17.4367 75.024C17.4773 74.78 17.4773 74.536 17.4773 74.3327C17.4773 74.2513 17.3553 74.2107 17.2333 74.1293C17.1113 74.048 16.9893 74.2107 16.9487 74.3327C16.908 74.6173 16.8267 74.902 16.786 75.1867C16.7453 75.3087 16.7453 75.4713 16.7047 75.634C16.542 75.7153 16.3387 75.756 16.176 75.8373C16.1353 75.7967 16.054 75.756 16.054 75.6747C15.8913 74.9427 15.81 74.17 15.9727 73.4787C15.9727 72.95 16.0133 72.4213 16.054 71.8113C16.0133 71.5267 16.1353 71.242 16.2167 70.9573C16.298 70.9167 16.3387 70.7947 16.298 70.6727C16.2573 70.3067 16.298 69.8593 16.5827 69.4933C16.42 69.29 16.7047 69.2087 16.7047 68.9647C16.7453 68.8833 16.6233 68.68 16.5827 68.5173C16.5827 68.2733 16.6233 68.0293 16.9487 67.9073C17.03 67.8667 17.1113 67.7853 17.2333 67.704C17.4773 67.46 17.3553 67.1347 16.9487 67.0533C16.5827 66.9313 16.176 66.972 15.7287 67.0533C14.8747 67.2973 14.0207 67.46 13.2073 67.6227C12.8413 67.6633 12.516 67.7853 12.15 67.8667C11.8653 67.948 11.5807 67.9887 11.2147 68.0293C10.9707 68.0293 10.7673 67.9887 10.564 68.2327C10.5233 68.2327 10.442 68.2733 10.3607 68.2733C9.42533 68.314 9.30333 68.5987 8.978 69.3713C8.93733 69.5747 8.77467 69.7373 8.44933 69.778C8.32733 69.778 8.28667 69.8593 8.32733 69.9813C8.49 70.2253 8.44933 70.4287 8.32733 70.5913C8.124 70.998 8.002 71.3233 7.758 71.6893C7.758 71.7707 7.67667 71.852 7.67667 71.9333C7.59533 72.4213 7.31067 72.8687 7.06667 73.2347C6.904 73.7227 6.74133 74.1293 6.61933 74.536C6.45667 74.5767 6.33467 74.658 6.21267 74.7393C6.172 74.9833 6.538 75.2273 6.13133 75.39C6.09067 75.634 5.928 75.878 5.96867 76.122C6.00933 76.366 5.96867 76.488 5.72467 76.5693C5.60267 76.61 5.48067 76.8133 5.48067 76.854C5.44 77.342 5.03333 77.4233 4.586 77.464C4.42333 77.4233 4.22 77.2607 4.17933 77.1793C4.17933 76.9353 4.13867 76.6913 4.098 76.488C4.098 76.3253 4.05733 76.122 3.93533 76.0407C3.93533 75.9593 3.89467 75.9187 3.732 75.8373C3.732 76.122 3.69133 76.366 3.65067 76.5287C3.61 76.6913 3.52867 76.7727 3.40667 76.854C3.28467 77.0167 2.91867 77.0167 2.83733 76.854C2.512 76.3253 2.30867 75.9187 2.512 75.3087C3 74.1293 3.366 72.95 3.81333 71.8113C3.976 71.364 4.22 70.9573 4.42333 70.5507C4.586 70.3473 4.66733 70.0627 4.74867 69.7373C3.77267 69.4933 2.95933 69.9813 2.146 69.8593C2.10533 69.534 2.55267 69.412 2.30867 69.046C2.22733 69.046 2.146 69.0053 2.10533 69.0867C1.82067 69.1273 1.658 69.2493 1.45467 69.3307C1.414 69.3307 1.21067 69.29 1.21067 69.2493C1.21067 69.2087 1.21067 69.1273 1.25133 69.0053C1.33267 68.8833 1.37333 68.802 1.49533 68.68C1.414 68.6393 1.37333 68.5173 1.25133 68.3953C0.885333 68.1107 0.926 67.7447 1.21067 67.3787C1.49533 67.0127 1.82067 66.6467 2.39 66.606C3.61 66.484 4.78933 66.0773 6.05 65.874C6.57867 65.752 6.94467 65.5487 7.18867 65.0607C7.35133 64.6947 7.514 64.3287 7.758 64.044C7.92067 63.8 8.08333 63.7593 8.20533 63.5967C8.32733 63.434 8.28667 63.2307 8.368 62.9867C8.40867 62.824 8.53067 62.6207 8.69333 62.4173C9.42533 61.1973 10.1573 59.9367 10.93 58.798C11.784 57.3747 12.76 55.992 13.6547 54.65C14.7933 52.9827 16.054 51.3153 17.3553 49.7293C18.0467 48.8753 18.6973 48.062 19.47 47.2487C20.202 46.5167 20.934 45.7033 21.7067 45.012C22.276 44.5647 22.9267 44.1987 23.6587 44.0767C23.984 44.1173 24.106 44.28 24.3907 44.2393C24.838 44.158 25.1633 44.3613 25.448 44.646C25.57 44.768 25.7327 45.012 25.9767 45.134C26.0173 45.622 26.424 46.0693 26.302 46.598C26.18 46.8827 26.2207 47.208 26.18 47.452C25.8547 47.696 26.18 47.9807 25.8953 48.306C25.8547 48.428 25.8547 48.55 25.8547 48.7127C25.936 48.794 25.8953 48.8753 25.8953 48.916C25.692 49.0787 25.4887 49.2007 25.448 49.404C25.3667 49.526 25.5293 49.77 25.57 49.9327C25.57 49.9733 25.57 50.014 25.57 50.0547C25.3667 50.746 25.204 51.478 24.96 52.1693C24.7973 52.7793 24.5533 53.3487 24.3907 53.918C24.3093 54.4467 23.9027 54.8533 23.862 55.4227C23.862 55.9513 23.618 56.358 23.4553 56.846C23.2927 57.2933 23.1707 57.7407 22.9673 58.31C22.886 58.5947 22.886 58.92 22.6013 59.2047C22.52 59.2047 22.52 59.3267 22.52 59.3673C22.6827 59.8147 22.398 60.14 22.3167 60.5873C22.0727 61.4007 21.8287 62.1733 21.5847 63.0273C21.3 64.166 21.0967 65.3453 20.7307 66.5247C20.2833 68.1513 20.08 69.9 19.7953 71.608C19.6733 72.096 19.6327 72.6653 19.6327 73.194C19.592 73.5193 19.47 73.804 19.3073 74.0887C19.5513 74.6173 19.6733 75.0647 19.4293 75.6747C19.3887 75.8373 19.4293 76.0407 19.104 76.122ZM21.4627 50.4207C21.3 50.5833 21.178 50.7053 21.056 50.7867C20.446 51.5187 19.9173 52.1693 19.3073 52.942C18.982 53.3893 18.7787 53.8367 18.2093 54.04C18.1687 54.1213 18.0467 54.2027 18.0467 54.2027C18.0873 54.4873 17.884 54.65 17.7213 54.894C17.518 55.0973 17.274 55.3413 17.2333 55.626C17.152 55.87 16.9893 56.0733 16.8267 56.2767C16.4607 56.7647 16.0947 57.2933 15.81 57.8627C15.1187 58.8793 14.346 59.9367 13.736 61.0753C13.248 61.8887 12.638 62.702 12.15 63.5153C12.0687 63.7593 11.9873 63.9627 11.906 64.2473C11.8653 64.288 11.9873 64.41 12.028 64.4507C12.15 64.4913 12.2313 64.4507 12.3533 64.41C13.248 64.2067 14.102 64.044 14.9967 63.8813C15.7287 63.678 16.4607 63.6373 17.2333 63.556C17.5587 63.5153 17.762 63.3933 17.8027 63.1087C18.0873 62.0513 18.4127 60.994 18.738 59.896C18.86 59.408 18.9413 58.92 19.1853 58.4727C19.47 57.944 19.3887 57.334 19.6327 56.846C19.714 56.602 19.7953 56.3173 19.8767 56.0733C19.9173 55.9107 20.0393 55.6667 20.1207 55.4227C20.324 54.8127 20.4867 54.162 20.69 53.5113C20.7713 53.3487 20.8527 53.1047 21.0153 52.9827C21.056 52.82 21.2187 52.7387 21.3 52.698C21.1373 52.1693 21.1373 52.1693 21.5033 51.9253C21.6253 51.844 21.7067 51.844 21.788 51.7627C21.8287 51.6813 21.91 51.5593 21.8287 51.5187C21.788 51.478 21.6253 51.4373 21.544 51.356C21.422 51.112 21.788 50.7867 21.4627 50.4207ZM19.2667 63.5153C19.3073 63.4747 19.3887 63.3527 19.4293 63.2713C19.714 62.1327 19.9173 60.994 20.446 59.9367C20.4867 59.896 20.4867 59.8553 20.4867 59.8147C20.6087 58.7573 21.056 57.822 21.3813 56.7647C21.5847 55.8293 21.9507 54.8533 22.276 53.8367C22.6827 52.82 23.008 51.7627 23.2927 50.746C23.5367 50.0953 23.6587 49.404 23.7807 48.794C23.862 48.672 23.6993 48.4687 23.5773 48.5093C23.496 48.55 23.4147 48.5907 23.3333 48.672C23.252 48.794 23.13 48.8347 23.252 49.038C23.5367 49.404 23.2927 49.648 23.13 49.9733C22.9673 50.258 22.886 50.5833 22.7233 50.9087C22.6013 50.99 22.6827 51.2747 22.6827 51.478C22.7233 51.5187 22.6013 51.6407 22.6013 51.7627C22.1133 53.43 21.422 55.016 20.9747 56.7647C20.9747 56.8867 20.8933 57.09 20.812 57.212C20.5273 57.456 20.5273 57.822 20.4867 58.1473C20.446 58.5947 20.1207 59.042 20.1207 59.53C19.714 59.9773 19.9173 60.506 19.714 60.9533C19.5107 61.3193 19.592 61.848 19.1853 62.092C19.1853 62.336 19.226 62.58 19.226 62.7833C19.2667 63.0273 18.9413 63.2713 19.2667 63.5153ZM18.4533 67.0127C18.4533 67.0127 18.4533 66.972 18.4127 66.972C18.372 66.972 18.25 66.972 18.25 67.0127C17.8027 67.582 17.9653 68.314 17.9653 68.9647C17.9653 68.9647 18.0467 69.0867 18.0873 69.046C18.1687 69.046 18.25 68.9647 18.25 68.924C18.2907 68.3547 18.4533 67.7853 18.494 67.216C18.4533 67.1347 18.4533 67.0533 18.4533 67.0127ZM17.9247 69.534C17.762 69.9407 17.2333 70.3067 17.5587 70.8353C18.006 70.388 18.006 70.388 17.9247 69.534ZM35.2893 76.0407C34.842 75.7153 34.964 75.268 34.9233 74.902C34.8013 74.0887 34.842 74.0887 34.476 73.804C34.354 74.3327 34.2727 74.8207 34.1507 75.268C33.9067 75.3493 33.866 75.2273 33.8253 75.0647C33.5 74.414 33.378 73.682 33.3373 72.95C33.3373 72.0553 33.2967 71.1607 33.5 70.3067C33.5 70.2253 33.378 70.1033 33.3373 69.9813C33.256 70.0627 33.134 70.0627 33.0933 70.144C32.2393 71.0387 31.426 71.9333 30.45 72.6653C30.4093 72.7467 30.2873 72.8687 30.2467 72.95C29.352 73.926 28.2133 74.6173 27.0747 75.3493C26.5867 75.634 26.0173 75.6747 25.4073 75.878C25.3667 75.878 25.2853 75.878 25.204 75.878C24.106 75.634 23.1707 75.0647 22.4387 74.2107C22.4387 74.17 22.398 74.1293 22.398 74.0887C22.3167 73.926 22.276 73.7633 22.2353 73.56C22.1947 73.438 22.0727 73.2753 22.1133 73.1533C22.2353 72.5433 21.7473 72.0147 21.8693 71.4453C21.8693 71.2827 21.8693 71.0793 21.9507 70.9167C21.9913 70.5507 22.0727 70.266 22.154 69.9C22.276 69.6153 22.7233 69.778 22.8047 69.412C22.6827 69.29 22.52 69.168 22.3573 69.046C22.4387 68.68 22.52 68.3953 22.6013 68.1107C22.642 67.8667 22.7233 67.6633 22.764 67.46C23.252 66.5247 23.5773 65.4673 24.106 64.5727C24.3907 64.044 24.6753 63.5153 25.0007 63.0273C25.2853 62.58 25.692 62.1327 26.058 61.6447C26.2613 61.8073 26.0987 61.9293 26.1393 62.0513C26.18 62.1327 26.2613 62.1733 26.3427 62.1733C26.3833 62.1733 26.5053 62.1733 26.546 62.1327C26.5867 61.97 26.5867 61.8887 26.6273 61.726C26.668 61.6447 26.546 61.36 26.3833 61.1567C26.546 60.872 26.7493 60.75 27.0747 60.8313C27.4 60.9127 27.4813 60.7093 27.278 60.3027C27.4813 60.0993 27.6847 59.8553 27.9287 59.6113C28.0913 59.3673 28.376 59.164 28.7013 59.042C28.8233 59.0013 28.9453 58.7573 29.0267 58.6353C29.9213 58.0253 30.8973 57.5373 31.914 57.1713C31.914 57.1713 32.036 57.1713 32.1173 57.1713C33.134 57.212 34.1507 57.212 35.086 57.822C35.3707 58.0253 35.696 58.2287 35.9807 58.4727C36.306 58.1067 36.5093 57.7 36.6313 57.2933C37.4447 55.1787 38.502 53.186 39.5187 51.234C39.6407 50.99 39.8033 50.7867 39.966 50.624C40.1287 50.6647 40.2507 50.6647 40.4133 50.6647C40.576 50.38 40.1693 50.2987 40.2507 50.014C40.698 49.0787 41.3893 48.2247 42.04 47.33C42.3653 46.9233 42.894 46.7607 43.382 46.5573C43.4633 46.5573 43.5447 46.6387 43.626 46.72C43.6667 46.7607 43.6667 46.8827 43.6667 46.9233C43.5853 47.0453 43.504 47.1673 43.4633 47.33C42.9753 47.8993 42.528 48.5093 42.2027 49.282C42.162 49.404 42.0807 49.4853 42.04 49.648C40.7387 51.6 40.0473 52.9827 38.746 55.626C38.0547 57.09 37.4447 58.6353 36.916 60.2213C36.916 60.3027 36.8753 60.4247 36.8753 60.4247C36.916 60.506 36.9567 60.628 36.9973 60.7093C37.038 60.7093 37.16 60.6687 37.16 60.5873C37.3227 60.1807 37.6073 59.774 37.6887 59.286C38.0953 58.0253 38.6647 56.8053 39.1933 55.626C39.6407 54.65 40.1287 53.7553 40.576 52.8607C40.698 52.6167 40.9827 52.6167 41.064 52.4133C41.064 52.2507 41.064 52.0473 41.1453 51.8847C41.552 51.2747 41.7553 50.4207 42.4467 50.014C42.4873 49.9327 42.528 49.8513 42.528 49.8107C42.5687 49.648 42.5687 49.4447 42.6907 49.3227C43.0973 48.672 43.5447 48.0213 44.0327 47.4113C44.1547 47.2487 44.358 47.1267 44.48 46.964C45.0087 47.0047 45.0087 47.6147 45.456 47.7367C45.334 47.9807 45.2527 48.2247 45.1713 48.3873C45.0087 48.7127 45.0493 48.9567 45.3747 49.16C45.0087 49.8107 44.602 50.3393 44.1547 50.868C43.9107 51.234 43.6667 51.6407 43.4227 52.0473C43.3007 52.088 43.0973 52.0473 42.9753 52.088C42.7313 52.1693 42.5687 52.3727 42.65 52.4947C42.772 52.5353 42.9753 52.5353 43.138 52.576C42.8533 53.064 42.6093 53.552 42.3653 53.9993C41.9587 54.8127 41.552 55.626 41.1453 56.48C40.942 56.8867 40.698 57.2527 40.21 57.3747C40.1287 57.3747 40.1287 57.456 40.088 57.5373C40.21 57.6593 40.332 57.7813 40.4947 57.944C40.2507 58.554 39.966 59.2047 39.722 59.8553C39.5187 60.3433 39.1933 60.75 39.1933 61.3193C38.6647 62.336 38.5427 63.434 38.258 64.5727C37.7293 66.362 37.4853 68.192 37.282 70.0627C37.2413 70.998 37.2413 71.852 37.2413 72.7467C37.2413 73.0313 37.2413 73.3973 37.2413 73.7227C37.282 74.2107 37.404 74.7393 37.038 75.1053C36.672 75.512 36.2247 75.8373 35.696 75.9593C35.5333 76 35.3707 76 35.2893 76.0407ZM24.6347 66.8093C24.35 67.0533 24.0653 67.2567 24.0247 67.6633C23.984 68.192 23.618 68.7207 23.9027 69.3307C24.3907 68.5987 24.5533 67.704 24.716 66.8907C24.96 66.6467 25.1633 66.4027 25.204 65.996C24.96 66.0773 24.6753 66.118 24.472 66.1587C24.1873 66.24 24.0247 66.362 24.106 66.4433C24.1873 66.5653 24.35 66.606 24.472 66.6873C24.5127 66.6873 24.594 66.728 24.6347 66.8093ZM31.0193 66.728C31.426 66.24 31.914 65.752 32.402 65.264C32.5647 65.0607 32.8493 64.9387 32.9713 64.5727C33.0527 64.3287 33.2967 64.288 33.5 64.166C33.9067 63.9627 34.0693 63.6373 33.9067 63.2307C33.8253 62.9867 33.5 62.824 33.8253 62.5393C33.8253 62.5393 33.8253 62.458 33.7847 62.458C33.3373 62.3767 33.378 62.0107 33.2967 61.726C33.1747 61.4413 33.134 61.116 32.768 60.9533C32.0767 61.116 31.426 61.4007 30.938 61.97C30.816 62.1327 30.6533 62.2547 30.5313 62.3767C30.2873 62.6207 29.962 62.7833 29.7587 62.946C29.474 63.1493 29.352 63.556 29.108 63.8C28.8233 64.1253 28.62 64.4507 28.4167 64.776C28.0913 65.3453 27.766 65.8333 27.2373 66.118C27.1967 66.4027 27.278 66.6873 27.156 66.8907C26.8713 67.6227 26.546 68.2733 26.2207 69.046C25.936 69.656 25.814 70.388 25.814 71.12C25.814 71.242 25.8547 71.3233 25.936 71.486C26.0987 71.4047 26.2207 71.4047 26.3427 71.2827C27.0747 70.632 27.8067 69.9813 28.5387 69.29C29.1487 68.68 29.7587 68.1107 30.328 67.5007C30.5313 67.216 30.816 67.1753 31.0193 67.094C31.0193 66.9313 31.0193 66.85 31.0193 66.728ZM31.1007 58.2287C31.1007 58.31 31.1413 58.432 31.2227 58.5133C31.2227 58.5133 31.3853 58.5947 31.426 58.5947C31.4667 58.5133 31.5887 58.3913 31.6293 58.2693C31.7107 58.1067 31.6293 57.9847 31.5073 57.9033C31.426 57.822 31.182 57.8627 31.1413 58.0253C31.1007 58.0253 31.1007 58.1067 31.1007 58.2287ZM27.9693 62.7427C27.9287 62.7833 27.9287 62.824 27.9287 62.824C27.888 62.8647 27.888 62.8647 27.9287 62.9053C28.0913 63.1493 28.3353 63.312 28.62 63.2713C28.6607 63.2713 28.742 63.1493 28.742 63.1087C28.62 62.8647 28.2133 62.702 27.9693 62.7427ZM43.992 49.404C44.1547 49.526 44.1953 49.6073 44.236 49.6073C44.4393 49.77 44.602 49.7293 44.724 49.5667C44.724 49.4853 44.7647 49.3227 44.724 49.3227C44.602 49.2413 44.4393 49.2007 44.358 49.2007C44.2767 49.2413 44.1953 49.3227 43.992 49.404ZM25.0413 74.8207C24.8787 74.8207 24.716 74.902 24.7567 75.0647C24.7973 75.2273 24.8787 75.3493 25.082 75.3493C25.1633 75.3087 25.204 75.2273 25.2853 75.146C25.326 74.9833 25.204 74.8613 25.0413 74.8207ZM24.7567 65.3047C25.0007 65.3453 25.1633 65.386 25.3667 65.386C25.4073 65.386 25.5293 65.264 25.5293 65.264C25.4887 65.1827 25.448 65.0607 25.3667 65.02C25.1227 64.898 24.8787 65.02 24.7567 65.3047ZM34.3133 62.702C34.232 63.1087 34.0287 63.3527 34.3133 63.5967C34.3133 63.6373 34.3947 63.5967 34.4353 63.556C34.6387 63.312 34.4353 63.068 34.3133 62.702ZM33.2967 66.5247C33.378 66.4027 33.5813 66.3213 33.6627 66.1993C33.744 66.118 33.6627 65.996 33.6627 65.874C33.5813 65.9147 33.5 65.874 33.4593 65.9147C33.3373 66.0367 33.256 66.24 33.134 66.3213C33.134 66.362 33.1747 66.4027 33.1747 66.4027C33.2153 66.4433 33.2153 66.484 33.2967 66.5247ZM28.4573 60.7093C28.9047 60.506 29.0267 60.3027 29.1893 60.0587C28.742 59.9367 28.62 60.262 28.4573 60.7093ZM35.696 59.652C35.696 59.5707 35.6553 59.4893 35.574 59.4487C35.574 59.408 35.5333 59.408 35.4927 59.4487C35.2893 59.4893 35.2487 59.652 35.2487 59.8553C35.2487 59.896 35.3707 59.9367 35.3707 59.896C35.4927 59.8553 35.6147 59.7333 35.696 59.652ZM31.0193 59.3267C31.0193 59.4893 31.304 59.652 31.426 59.6113C31.4667 59.5707 31.5073 59.4893 31.5073 59.4893C31.548 59.3267 31.4667 59.164 31.3447 59.164C31.2227 59.164 31.1007 59.2453 31.0193 59.3267ZM25.2853 64.3287C25.4887 64.288 25.6513 64.2473 25.7327 64.2067C25.6513 64.0847 25.6513 63.922 25.5293 63.8813C25.3667 63.8 25.2447 63.9627 25.204 64.1253C25.204 64.166 25.2853 64.2473 25.2853 64.3287ZM51.3978 54.7313C51.3571 54.894 51.3571 55.0973 51.3164 55.3413C51.8858 55.4633 52.4144 55.8293 53.0651 55.748C53.2278 55.382 52.8211 55.26 52.8211 54.9753C52.8211 54.894 52.8211 54.8533 52.8618 54.8127C53.1058 54.406 53.4311 54.1213 53.7564 53.7553C53.9191 54.0807 54.1631 54.4467 54.3664 54.894C54.4478 54.7313 54.4884 54.6093 54.5698 54.4467C54.7731 54.65 54.6918 54.894 54.6511 55.016C54.5291 55.3413 54.7731 55.4227 54.8544 55.5853C54.7731 56.2767 54.4478 56.846 54.0004 57.334C53.5938 57.7813 53.2684 58.2693 52.9431 58.7573C52.0484 60.14 51.2351 61.5633 50.2591 62.9053C49.8931 63.434 49.6898 64.0847 49.4051 64.654C48.9984 65.4267 48.8358 66.2807 48.2258 66.972C48.1851 67.582 47.7378 68.1107 47.5751 68.7613C47.4124 69.2493 47.1684 69.6967 46.9651 70.1847C46.8838 70.3067 46.8024 70.4287 46.7618 70.5913C46.5584 71.8113 45.9078 72.9093 45.4198 74.0887C45.3384 74.3327 45.2164 74.658 44.9724 74.78C44.6878 74.9427 44.5658 75.268 44.2811 75.4713C44.1591 75.5933 43.9558 75.6747 43.7524 75.7967C43.2644 76 42.7358 76 42.3291 75.5933C42.2071 75.512 42.0851 75.39 41.9224 75.3493C40.9464 75.024 40.7024 74.2107 40.6618 73.2753C40.6211 73.194 40.7024 73.0313 40.6618 72.9907C40.4584 72.7467 40.4178 72.462 40.4178 72.1773C40.4178 71.4047 40.3771 70.6727 40.3771 69.9407C40.3771 69.778 40.5398 69.6153 40.6211 69.4527C40.2551 68.9647 40.1331 68.3953 40.2144 67.826C40.2551 67.2973 40.2551 66.7687 40.6618 66.3213C40.0111 65.7113 40.4991 65.1827 40.7024 64.5727C40.5398 64.3287 40.3771 64.0847 40.4178 63.7187C40.4584 63.2713 40.4584 62.824 40.5398 62.4173C40.7024 61.604 40.6211 60.7093 40.6618 59.896C40.6618 59.6113 40.7838 59.286 40.8651 58.9607C40.9871 58.7573 41.1904 58.554 41.4344 58.4727C41.7191 58.3913 41.8818 58.2693 42.1664 58.188C42.4104 58.31 42.1664 58.554 42.2478 58.7573C42.3291 58.9607 42.3291 59.2047 42.3291 59.408C42.3291 59.5707 42.4104 59.7333 42.4511 59.774C42.4918 59.896 42.6138 59.9367 42.6544 59.9367C42.7358 59.896 42.8578 59.774 42.8578 59.7333C42.8171 59.2453 43.0204 58.7573 43.1424 58.066C43.2644 58.2693 43.2644 58.3507 43.3051 58.432C44.1591 59.042 44.3624 59.896 44.2811 60.8313C44.2404 62.3767 44.1998 63.922 44.0778 65.4673C44.0371 65.7113 44.0778 65.996 43.8338 66.24C43.7524 66.362 43.7931 66.484 43.8744 66.5247C43.9964 66.6467 44.1591 66.6873 44.2811 66.5653C44.4031 66.4433 44.5251 66.3213 44.6064 66.118C44.7284 65.7113 44.8911 65.3047 45.2164 65.02C45.2978 64.9387 45.4198 64.8167 45.4198 64.7353C45.2978 64.0847 45.7451 63.6373 45.9484 63.1087C46.0704 62.824 46.1924 62.58 46.4771 62.4173C46.5584 62.336 46.6398 62.214 46.6398 62.1327C46.6398 61.3193 47.2498 60.75 47.6158 60.0993C47.9004 59.408 48.3478 58.8387 48.7544 58.2287C48.9578 57.8627 49.2018 57.5373 49.4051 57.212C49.9338 56.358 50.5438 55.6667 51.1538 54.894C51.2351 54.8533 51.3571 54.8127 51.4384 54.7313H51.3978ZM45.2164 68.3953C44.9724 68.436 44.8098 68.558 44.7284 68.8427C44.7284 69.046 44.6064 69.3307 44.5658 69.534C44.4031 70.022 44.2404 70.51 44.1184 70.998C44.0778 71.12 44.1591 71.2827 44.1998 71.608C44.4031 71.12 44.4844 70.8353 44.6878 70.51C45.0538 69.8593 45.1351 69.168 45.2164 68.436C45.7044 67.7853 45.7044 67.7853 45.7451 67.2567C45.2164 67.46 45.2164 67.948 45.2164 68.3953ZM46.6398 64.6133C47.0058 64.0847 47.3718 63.6373 47.6971 63.1493C47.6971 63.1087 47.6971 63.068 47.6971 62.946C47.6158 62.946 47.4531 62.9053 47.4124 62.9867C47.0871 63.312 46.7211 63.7187 46.5991 64.2067C46.5991 64.288 46.5991 64.41 46.6398 64.6133ZM48.5918 61.238C48.6731 61.1973 48.7138 61.1567 48.7544 61.1567C48.9578 60.7907 49.1611 60.506 49.6898 60.6687C49.6898 60.6687 49.7711 60.506 49.7304 60.4247C49.7304 60.384 49.6898 60.3027 49.6084 60.3027C49.3238 60.2213 49.0798 60.2213 48.7951 60.384C48.5511 60.5873 48.4698 60.8313 48.5918 61.238ZM42.7358 62.6613C42.6544 62.6207 42.6138 62.5393 42.5324 62.5393C42.3291 62.5393 42.1258 62.7833 42.2478 62.9867C42.2884 63.0273 42.3291 63.1087 42.4104 63.068C42.6138 63.0273 42.7358 62.824 42.7358 62.6613ZM46.1518 65.996C46.1924 65.996 46.1924 66.0773 46.2738 66.118C46.3551 65.996 46.4771 65.9553 46.5991 65.8333C46.6804 65.752 46.7211 65.5893 46.6398 65.508C46.5584 65.386 46.3958 65.4673 46.2738 65.5893C46.2331 65.7113 46.1924 65.874 46.1518 65.996ZM46.2331 64.4913C46.3144 64.288 46.2738 64.1253 46.1518 64.0847C46.0704 64.0847 45.9484 64.1253 45.9484 64.166C45.8264 64.3287 45.8264 64.4913 46.0298 64.5727C46.0704 64.5727 46.1924 64.532 46.2331 64.4913ZM51.5604 59.3673V59.286C51.4791 59.2453 51.4384 59.164 51.3571 59.0827C51.2758 59.2047 51.1944 59.2453 51.1538 59.286C51.1538 59.3673 51.1944 59.4893 51.2351 59.6113C51.2351 59.652 51.2758 59.6927 51.3164 59.6927C51.3571 59.652 51.4791 59.6113 51.4791 59.6113C51.5198 59.53 51.5198 59.4487 51.5604 59.3673ZM51.3978 54.7313H51.4384C51.4384 54.4873 51.5198 54.3247 51.7231 54.2027C52.0078 53.9587 52.3738 53.8367 52.6584 53.674C52.9431 53.796 52.8211 53.9587 52.6991 54.04C52.4144 54.406 52.0484 54.7313 51.7638 55.016C51.6011 54.894 51.4791 54.8533 51.3978 54.7313ZM57.5305 58.1067C57.7338 58.188 57.6118 58.432 57.7338 58.554C57.8965 58.6353 58.2625 58.5133 58.3845 58.31C58.4658 58.1067 58.3845 57.9033 58.4252 57.6187C58.9132 57.6187 59.4418 57.578 59.9298 57.6187C60.0925 57.6187 60.2958 57.7 60.4585 57.7813C60.6618 57.9033 60.9058 57.944 61.1905 57.8627C61.6378 57.822 62.1258 57.9847 62.5325 58.1067C62.7358 58.4727 62.9392 58.0253 63.1018 58.1473C63.3458 58.2693 63.4272 58.554 63.7932 58.554C63.9558 58.554 64.1998 58.6353 64.3625 58.7573C65.3385 59.2453 66.1112 59.9773 66.4772 61.0347C66.7212 61.604 66.8838 62.1733 66.8432 62.8647C66.8025 63.3527 66.8025 63.3527 66.3552 63.8407C66.4365 63.922 66.4772 64.044 66.5585 64.1253C66.5178 64.2067 66.5585 64.288 66.4772 64.3287C66.0705 65.1013 65.5418 65.7927 64.8098 66.3213C64.6065 66.4433 64.4032 66.6467 64.2405 66.6873C63.9152 66.8093 63.4678 66.8093 63.1832 67.0127C62.8578 67.216 62.5325 67.338 62.2072 67.4193C62.0445 67.338 61.9632 67.2567 61.8412 67.1753C61.3125 67.6633 61.3125 67.6633 60.7838 67.6633C60.3365 67.6633 59.9298 67.582 59.5232 67.3787C59.4825 66.8907 59.1165 67.1753 58.8318 67.1753C58.6692 67.094 58.5065 66.9313 58.3032 66.7687C58.1405 66.6873 58.0185 66.5247 57.8558 66.5247C57.3272 66.484 57.4492 66.118 57.4085 65.7927C57.2052 65.7927 57.0832 65.7927 56.9205 65.7927C56.8392 65.752 56.7985 65.7113 56.7985 65.7113C56.7172 65.5487 56.8392 65.264 56.5952 65.264C56.4732 65.264 56.3105 65.4267 56.2292 65.5487C56.1072 65.9553 55.9445 66.362 55.8632 66.8093C55.7005 67.46 55.5785 68.1107 55.4972 68.7613C55.4158 69.2493 55.4565 69.6967 55.5378 70.144C55.5785 70.5507 55.6598 70.998 55.7005 71.4453C56.1072 71.8113 56.5545 72.2587 57.0425 72.6653C57.2052 72.6653 57.4898 72.6247 57.7338 72.584C58.2625 72.5027 58.8725 72.5433 59.4418 72.2993C59.9298 72.0553 60.4585 72.0147 60.9872 71.73C61.4345 71.486 61.9632 71.3233 62.4512 71.0793C62.9798 70.7947 63.4678 70.51 63.9558 70.1847C64.6472 69.7373 65.3385 69.2493 65.9485 68.802C66.1112 68.68 66.2738 68.5987 66.4365 68.5173C66.5585 68.4767 66.8025 68.4767 66.8432 68.5173C67.1278 68.8427 67.4938 68.802 67.8598 68.802C67.9412 68.8427 68.0225 68.802 68.1038 68.802C68.7545 68.8833 68.8358 69.0053 68.7138 69.8187C68.8358 69.9 68.9985 69.9813 69.1612 70.1033C69.1205 71.3233 68.2258 72.0147 67.2905 72.5433C66.9245 72.7467 66.5992 72.7873 66.1925 72.9093C66.0705 73.072 65.9078 73.316 65.7858 73.5193C65.6638 73.7227 65.2165 73.2753 65.2165 73.7633C64.8098 74.1293 64.3625 74.414 63.9152 74.536C63.7118 74.5767 63.5085 74.6173 63.3865 74.6987C62.5732 75.268 61.6785 75.5527 60.7838 75.878C59.3605 76.3253 57.9778 76.4473 56.5138 76.2847C55.9445 76.2033 55.3752 75.9593 55.2532 75.268C55.2532 75.268 55.2125 75.2273 55.1718 75.1867C55.0498 75.146 54.9685 75.146 54.9278 75.268C54.8872 75.3493 54.8465 75.39 54.8465 75.4713C54.6838 75.5527 54.5618 75.4713 54.4398 75.39C54.1145 75.146 53.7892 74.9427 53.4638 74.658C53.2605 74.414 53.0572 74.17 52.8132 73.926C52.7725 73.804 52.6912 73.7227 52.6912 73.6413C52.4065 72.6653 51.7558 71.7707 51.8372 70.6727C51.8372 70.388 51.7558 70.1033 51.7152 69.8187C51.6745 68.6393 51.7558 67.3787 52.2845 66.24C52.3252 66.0773 52.4065 65.9147 52.3658 65.6707C52.3252 65.3453 52.3252 65.02 52.6098 64.7353C52.7725 64.5727 52.8538 64.288 52.9758 64.0847C52.7725 63.8407 52.9352 63.6373 53.0978 63.434C53.2198 63.2307 53.3012 62.946 53.3012 62.702C53.4638 62.2547 53.6265 61.8073 54.2365 61.6853C54.3178 61.6853 54.4398 61.4413 54.2772 61.36C54.1145 61.1567 54.1958 60.994 54.3178 60.872C54.4398 60.75 54.6025 60.628 54.7245 60.506C54.8465 60.4247 55.0498 60.3433 55.0498 60.2213C55.1718 59.53 55.7412 59.2047 56.1885 58.798C56.4732 58.5133 56.9205 58.3507 57.3272 58.1067C57.3678 58.1067 57.4492 58.1067 57.5305 58.1067ZM54.2365 64.166C53.8298 64.8167 53.7892 65.02 53.5452 66.2807C53.7485 66.3213 53.7892 66.1993 53.8298 66.0773C54.1145 65.4673 54.3178 64.8573 54.2365 64.166C54.4398 64.0847 54.6432 63.9627 54.6432 63.678C54.4398 63.6373 54.2365 63.6373 53.8705 63.556C54.0332 63.8407 54.1552 64.0033 54.2365 64.166ZM58.7505 61.6447C58.9945 62.0107 59.1572 62.3767 59.3198 62.7427C59.5638 63.2307 59.9705 63.5153 60.4178 63.8C60.5398 63.8407 60.7025 63.922 60.8245 63.8813C61.4752 63.7593 62.1665 63.5967 62.7358 63.1087C63.0612 62.7427 62.9392 62.1733 62.4512 61.9293C61.8818 61.6447 61.1092 61.6447 60.5398 61.1973C60.5398 61.1567 60.4178 61.1567 60.3365 61.1567C60.0518 61.2787 59.7672 61.238 59.5232 61.238C59.2385 61.238 59.0352 61.482 58.7505 61.6447ZM60.0518 58.7573C60.2552 58.7573 60.4585 58.5947 60.5398 58.3913C60.5398 58.3507 60.4992 58.2287 60.4585 58.2287C60.2145 58.1067 59.9705 58.2693 59.9298 58.5133C59.9298 58.554 60.0112 58.6353 60.0518 58.7573ZM55.7818 60.262C55.9038 60.506 55.9038 60.628 55.9852 60.7093C56.1072 60.872 56.2698 60.872 56.4325 60.75C56.5138 60.7093 56.5545 60.628 56.5545 60.5467C56.5545 60.506 56.5138 60.4247 56.4325 60.4247C56.2698 60.384 56.1072 60.3433 55.7818 60.262ZM58.0998 61.6447C58.1812 61.5633 58.2625 61.5633 58.3032 61.482C58.3845 61.3193 58.0998 60.9533 57.9372 60.994C57.8558 61.0347 57.8558 61.1567 57.8558 61.1973C57.9372 61.36 58.0185 61.482 58.0998 61.6447ZM53.5452 67.2567C53.4232 67.1753 53.3825 67.1347 53.3012 67.094C53.2198 67.094 53.0978 67.1753 53.0572 67.1753C52.9758 67.2567 53.1385 67.5007 53.3012 67.46C53.3418 67.46 53.4232 67.3787 53.5452 67.2567ZM75.462 67.0127C75.4213 67.094 75.462 67.1753 75.4213 67.2973C75.1366 67.9887 74.8113 68.7207 74.5673 69.4527L74.12 69.534C74.2013 69.6153 74.364 69.778 74.4453 69.8593C74.4046 69.9 74.4453 69.9813 74.4046 70.022C74.0386 70.9573 73.754 71.974 73.5506 72.95C73.388 73.6007 73.388 73.6007 72.778 74.0073C72.778 74.2107 72.9813 74.2513 73.0626 74.3733C73.144 74.6173 72.9813 74.902 72.6966 74.902C72.4933 74.902 72.3306 74.8613 72.29 75.0647C72.0866 75.3493 71.8426 75.4713 71.558 75.512C71.314 75.5527 71.07 75.4307 71.07 75.2273C71.07 74.6987 71.0293 74.17 71.2326 73.6413C71.2733 73.56 71.2326 73.438 71.2733 73.316L71.192 73.2347H70.9886C70.948 73.3567 70.9073 73.4787 70.8666 73.6413C70.7446 73.926 70.704 74.2513 70.5413 74.5767C70.4193 74.7393 70.4193 74.902 70.46 75.0647C70.46 75.1053 70.4193 75.1867 70.338 75.1867C70.338 75.1867 70.216 75.2273 70.1346 75.146C70.0126 75.024 69.972 74.8613 69.8093 74.78C69.5653 74.4547 69.4026 74.1293 69.6873 73.7633C69.5653 73.2753 69.5653 72.828 69.6873 72.3807C70.0126 71.1607 70.2566 69.8593 70.5006 68.5987C70.7446 67.7447 70.9886 66.8907 71.1106 65.996C71.2326 65.4673 71.436 64.9387 71.5986 64.4507C71.6393 64.288 71.7613 64.2067 71.7613 64.0847C71.6393 63.434 71.924 62.8647 72.0053 62.336C72.0053 61.7667 72.412 61.2787 72.412 60.75C72.3713 60.262 72.5746 59.7333 72.6153 59.2047C72.6153 58.92 72.6966 58.92 73.2253 58.8387L73.1033 58.2693C73.2253 58.2693 73.266 58.2287 73.3473 58.188C73.4286 58.1473 73.5506 58.1067 73.632 58.1067C73.7133 58.066 73.7946 57.9847 73.876 57.944C73.998 57.944 74.1606 57.9847 74.242 57.9847L73.9573 58.676C73.876 58.9607 74.12 59.286 73.9166 59.6113C73.754 59.774 73.7946 60.0993 73.7946 60.4247C73.9166 60.384 74.0386 60.3433 74.0793 60.3027C74.1606 60.018 74.242 59.6927 74.5673 59.4893C74.6486 59.3673 74.73 59.164 74.73 59.042C74.8926 58.798 74.8926 58.5133 74.8926 58.188C75.1773 58.2693 75.5433 58.31 75.7873 58.31C76.0313 58.3913 76.194 58.5947 76.194 58.7167C76.1533 59.042 76.0313 59.3267 75.95 59.6113C76.1126 59.652 76.2346 59.6113 76.2753 59.6113C76.5193 59.3673 76.8446 59.3267 77.0886 59.0827C77.292 58.798 77.658 58.676 77.9833 58.5947C78.0646 58.554 78.146 58.5133 78.1053 58.4727C78.4713 58.066 78.9186 57.9847 79.366 57.7813L81.1146 57.7407L81.3993 57.9033C82.4566 58.5947 82.7006 59.4893 82.7006 60.4653C82.7006 60.5873 82.5786 60.8313 82.7006 60.9533C82.9853 61.2787 82.7413 61.7667 83.0666 62.092C83.27 62.2547 83.27 62.4173 83.27 62.702C83.27 62.7427 83.514 62.824 83.636 62.824C83.636 62.9867 83.7173 63.19 83.6766 63.3933C83.7173 63.678 83.5546 63.8407 83.1073 63.8407C83.026 63.8 82.8226 63.7187 82.66 63.8813C82.8226 64.166 83.1886 64.2473 83.4326 64.532C83.392 64.532 83.27 64.5727 83.27 64.6133C83.148 64.654 82.294 64.898 82.172 64.8573C82.0906 64.898 82.0093 64.898 81.9686 64.9793C81.928 65.1013 81.684 65.0607 81.562 64.9387C81.2773 64.654 80.9113 64.4507 80.464 64.3287C79.9353 63.8 79.4473 63.2307 79.4066 62.5393C79.366 62.092 79.366 62.092 78.8373 61.726C78.878 62.2547 78.878 62.2547 78.5933 62.6207C78.4306 62.7833 78.2273 62.9867 78.146 63.1087C77.8206 63.312 77.658 63.434 77.4953 63.8C77.4546 64.044 77.17 64.288 76.9666 64.532C76.682 64.9387 76.4786 65.386 76.2753 65.7927C75.95 66.1587 75.828 66.6467 75.4213 66.972C75.34 66.8907 75.2586 66.7687 75.1773 66.6873C75.0146 66.6467 74.8113 66.728 74.8113 66.8907C74.7706 66.9313 74.852 67.0127 74.852 67.1347C75.096 67.094 75.2993 67.0127 75.462 67.0127ZM73.7946 62.3767L73.7133 61.4007C73.51 61.726 73.4693 61.8073 73.3473 61.97C73.2253 62.092 73.1033 62.1733 73.144 62.336C73.4693 62.6207 73.754 62.58 73.7946 62.3767ZM76.2753 61.116C76.3566 61.0347 76.4786 61.0347 76.5193 60.994C76.56 60.9533 76.6413 60.75 76.56 60.75C76.4786 60.7093 76.316 60.6687 76.2753 60.7093C76.194 60.75 76.1126 60.8313 76.072 60.9533C76.0313 60.994 76.1533 61.0753 76.2753 61.116ZM95.5799 59.774L95.9052 60.2213C96.1086 60.6687 96.0679 60.872 95.6205 61.0753C95.4579 61.1567 95.1732 61.1973 95.0105 61.2787C94.8479 61.36 94.7259 61.482 94.6039 61.604C94.4005 61.5227 94.1565 61.4413 93.9532 61.3193C93.8312 61.36 93.7499 61.482 93.5872 61.482C92.8552 61.7667 92.6112 62.2953 92.4892 62.946C92.2045 64.2473 91.8792 65.4267 91.5132 66.6467C91.3099 67.3787 91.2285 68.1107 91.1065 68.8833C90.9439 69.778 90.7405 70.632 90.6185 71.5267C90.4559 72.828 90.2525 74.1293 90.7812 75.4713C90.8219 75.756 90.8219 76.0407 90.9032 76.3253C90.7812 76.5287 90.6185 76.732 90.4559 76.854L89.8459 76.7727C89.7645 76.9353 89.7239 77.098 89.6019 77.2607C89.4799 77.464 89.2765 77.586 89.0325 77.5047C88.7072 77.4233 88.5445 77.2607 88.4632 76.9353C88.4632 76.7727 88.3819 76.6507 88.3819 76.5287C88.2599 76.244 88.0565 76.0813 87.9752 76.1627L87.8939 76.5287C87.8532 76.6507 87.8125 76.732 87.8125 76.8133C87.4465 76.6507 87.3652 76.3253 87.2025 76.122C86.8365 75.3087 86.5925 74.5767 86.6332 73.7227C86.7145 70.8353 87.2432 67.9887 87.8939 65.1827C88.1379 64.3693 88.3412 63.5967 88.5445 62.7833L88.6259 62.2547C88.5039 62.214 88.4225 62.1733 88.3005 62.214C87.6905 62.336 87.0805 62.4987 86.4299 62.702C86.0232 62.7833 85.5352 62.824 85.0879 62.6207C85.0879 62.3767 85.0879 62.2547 85.0879 62.092C84.7625 61.8073 84.5185 62.214 84.1932 61.97C83.7459 61.482 83.6239 60.872 83.7865 60.1807C83.9492 59.5707 84.3152 59.2453 84.8439 59.0827L88.3005 58.3913C88.5852 58.3507 88.7885 58.2693 89.0732 58.2693C89.7645 58.2693 90.0492 57.822 90.2525 57.2527C90.3339 57.09 90.3745 57.0087 90.3745 56.846C90.8625 55.382 91.3505 53.9587 91.9199 52.576C92.2045 52.0473 92.3265 51.478 92.5299 50.9493C92.8145 50.258 93.0585 49.4853 93.4652 48.794C93.5872 48.5093 93.8719 48.306 93.7499 47.8587C93.9125 47.452 94.0752 47.0047 94.2785 46.6387C94.4412 46.3947 94.6852 46.3947 94.9292 46.232C94.8479 46.0693 94.8072 45.9473 94.6852 45.866C94.8072 45.6627 94.9699 45.5407 95.1732 45.6627C95.2952 45.7033 95.4172 45.8253 95.5392 45.866C95.5392 45.8253 95.5799 45.7847 95.5799 45.744C95.5799 45.5407 95.4985 45.3373 95.7832 45.4187C95.9865 45.4187 96.1086 45.622 96.0272 45.8253C96.0679 45.9067 96.0679 45.988 96.0272 46.11L95.4985 47.208C95.2139 47.2487 94.8885 47.33 94.4819 47.3707L95.2139 47.9807C94.8479 48.7127 94.6039 49.4447 94.3192 50.1767C94.2379 50.2987 94.1159 50.4207 94.0345 50.5833C93.9532 50.6647 93.8312 50.746 93.8312 50.7867C94.0752 51.2747 93.6685 51.6407 93.5465 52.0067C93.4652 52.332 93.2212 52.21 92.9365 52.21C92.8145 52.4947 93.3025 52.576 93.1805 52.7793C93.0179 53.2267 92.8552 53.6333 92.7739 54.1213C92.6519 54.528 92.2859 54.772 92.2859 55.26C92.2045 55.6667 91.9605 56.0733 91.8385 56.5207C91.7979 56.968 91.5539 57.334 91.5539 57.8627C91.7165 57.822 91.8792 57.822 91.8385 57.7407L92.6112 55.87L93.9532 52.2507L94.4005 51.112C94.8479 49.9327 95.3359 48.794 95.7425 47.6147C95.8239 47.3707 95.9865 47.208 96.0679 46.9233C96.1899 46.6387 96.3932 46.3947 96.7592 46.3947C96.8812 46.3947 97.0032 46.354 97.0032 46.2727C97.0845 46.1913 97.1252 46.0693 97.0032 45.988C96.9625 45.9067 96.8405 45.9067 96.6779 45.866C96.9625 45.5813 97.0845 45.5813 97.2472 45.7033L97.7352 46.1913C97.9385 46.3947 97.9792 46.6387 97.8572 46.842C97.6945 47.0453 97.7759 47.2487 97.9385 47.452C98.1419 47.7773 97.9792 48.0213 97.7759 48.306C97.6945 48.3873 97.4099 48.3873 97.2879 48.672L97.7759 48.7533V48.916L97.2065 49.8513L96.7592 50.7053C96.7185 50.746 96.6372 50.8273 96.6372 50.9493C96.4745 52.1693 95.7832 53.1453 95.4985 54.284C95.4579 54.5687 95.1325 54.8127 95.0105 55.0973C94.9292 55.4633 94.9699 55.87 94.6445 56.1547C94.6445 56.5207 94.5225 56.846 94.4005 57.1713C94.3192 57.5373 94.4005 57.944 94.4819 58.3507C94.7665 58.554 94.8479 58.2693 95.0105 58.31C95.2139 58.554 95.4579 58.554 95.7832 58.432C95.8239 58.432 95.8239 58.432 95.8645 58.4727C96.0679 58.7573 95.9052 59.286 95.5799 59.408L95.2139 59.53C95.1732 59.53 95.1325 59.652 95.1325 59.7333C95.1732 59.7333 95.2545 59.774 95.3359 59.774C95.3765 59.8147 95.4579 59.774 95.5799 59.774ZM90.4965 62.214C90.2525 62.214 90.1305 62.214 90.1305 62.2547C89.8459 63.1087 89.5205 63.9627 89.2765 64.8167C88.9919 65.9553 88.7885 67.1347 88.6259 68.314C88.5039 69.046 88.3819 69.778 88.3005 70.5507C88.2599 70.7133 88.3412 70.8353 88.5445 70.8353C88.7885 69.9 88.9105 68.9647 89.0732 68.0293C89.3172 67.0533 89.5612 66.0773 89.7239 65.1013C90.0085 64.2067 90.2119 63.2713 90.4965 62.214ZM85.4539 59.6113L85.2505 59.408C85.1285 59.3673 84.9659 59.6113 85.0472 59.774C85.0879 59.8147 85.1692 59.896 85.2099 59.896C85.3725 59.896 85.4539 59.8147 85.4539 59.6113ZM94.7665 58.8793C94.4819 58.8793 94.3599 58.798 94.1972 58.8387L93.9532 58.9607L93.9939 59.0827C94.0345 59.2047 94.1565 59.2047 94.2785 59.164C94.4412 59.0827 94.4819 59.0013 94.7665 58.8793ZM100.606 60.7907C101.013 60.8313 100.81 61.6447 101.42 61.2787C101.704 61.726 101.298 62.092 101.42 62.5393C101.542 62.4173 101.664 62.3767 101.786 62.2953C101.867 62.6207 101.948 62.8647 101.786 63.2307C100.769 65.508 98.9797 71.8113 98.9797 74.902C97.9223 75.7967 98.329 75.3087 97.353 75.3087H97.2717C95.889 75.9593 96.3363 73.7227 95.645 74.3327C95.279 73.438 95.1977 72.5027 95.3603 71.608C95.7263 69.9 95.9703 68.1513 96.621 66.484L98.0037 62.1733C100.688 57.1307 99.1017 63.0273 100.606 60.7907ZM99.4677 57.2527C99.2643 56.8053 99.915 56.5207 99.7117 56.114C99.305 55.3007 102.152 53.8773 102.558 55.504C102.721 55.626 102.762 55.8293 102.762 56.0733C102.843 57.09 102.111 58.92 101.42 58.432C101.094 58.188 99.8743 57.944 99.4677 57.2527ZM97.0683 67.8667L97.3937 68.558C96.2143 72.1773 98.451 68.7207 97.963 67.6633C97.963 67.6227 97.8817 67.582 97.841 67.46C97.6783 67.826 97.2717 67.6227 97.0683 67.8667ZM102.152 55.9513C101.826 56.358 101.826 56.3987 101.948 56.48C101.989 56.602 102.111 56.724 102.274 56.602C102.274 56.3987 102.558 56.0733 102.152 55.9513ZM117.146 61.5227C116.861 61.2787 116.577 61.0753 116.658 60.7093C116.739 60.506 116.577 60.3433 116.536 60.14C116.007 60.262 116.211 60.628 116.007 60.8313C115.641 60.5467 115.763 60.0993 115.601 59.652C115.113 59.53 114.706 59.4893 114.096 59.6113C112.551 60.0993 111.127 60.872 109.663 61.6447C109.257 61.848 109.135 62.336 108.525 62.336C108.281 62.6613 108.077 63.0273 107.874 63.3527C108.077 63.8407 108.687 63.8 109.013 64.1253L108.769 64.5727C109.135 64.7353 109.216 64.3693 109.501 64.3693H109.704C110.965 64.8573 112.103 65.508 113.079 66.362C113.771 67.0127 114.381 67.704 114.706 68.5173C115.275 69.9 115.113 71.242 114.34 72.5027C114.177 72.6653 114.015 72.828 113.933 72.9907C113.689 73.072 113.567 72.9907 113.486 72.9093C113.242 72.706 112.957 72.828 112.917 73.072C112.876 73.1533 112.835 73.2753 112.876 73.3567C113.161 73.7633 112.917 74.0073 112.591 74.2107C112.144 74.4547 111.737 74.6987 111.29 74.902C110.802 75.1053 110.314 75.3087 109.907 75.512C109.582 75.756 109.216 75.6747 108.85 75.5527C108.728 75.756 108.565 75.9187 108.362 76.0407C107.996 76.1627 107.63 76.244 107.223 76.3253C107.02 76.366 106.776 76.0813 106.613 76.244C106.491 76.366 106.41 76.5287 106.207 76.5693C105.922 76.61 105.678 76.6913 105.393 76.6913C105.109 76.732 104.824 76.6913 104.499 76.7727C103.807 76.976 103.116 76.732 102.465 76.61C102.384 76.61 102.303 76.488 102.221 76.4473V76.0407C102.059 75.9187 101.937 76.0407 101.774 76C101.652 75.9593 101.489 75.9187 101.449 75.8373C101.245 75.512 101.083 75.146 101.327 74.8207C101.489 74.6173 101.489 74.536 101.367 74.3733C101.245 74.1293 101.367 74.0073 101.652 73.9667C101.774 73.9667 101.896 74.0073 101.977 74.0073V73.6007C102.018 73.6007 102.018 73.5193 102.059 73.438C102.547 73.316 103.075 73.1127 103.726 73.316C103.929 73.3973 104.295 73.3973 104.58 73.316C105.231 73.194 105.8 73.072 106.369 72.95C106.735 72.828 107.061 72.706 107.427 72.8687C107.671 72.95 107.63 72.706 107.711 72.6247C107.874 72.5433 108.077 72.462 108.281 72.34L110.151 71.486C110.477 71.3233 110.68 71.0387 110.924 70.8353C111.371 70.3067 111.412 70.0627 111.005 69.534C110.761 69.2087 110.517 69.046 110.233 68.7613C109.826 68.3547 109.379 67.9887 108.769 67.826C107.915 67.46 107.061 67.0127 106.207 66.6467C105.353 66.1993 104.783 65.4673 104.173 64.776C104.011 64.6133 103.929 64.3693 103.929 64.2067C103.767 63.068 103.929 62.092 104.905 61.2787C104.905 61.238 105.027 61.1973 105.027 61.1567C105.068 60.5873 105.597 60.384 105.881 60.018L107.752 58.6353C108.362 58.2693 109.013 57.944 109.663 57.6593C110.273 57.334 110.965 57.0087 111.615 56.8053C112.388 56.5613 113.12 56.3987 113.893 56.1953C114.421 56.114 114.909 55.992 115.438 55.992C116.251 55.992 116.902 56.1953 117.593 56.5207C117.878 56.6833 118.325 56.8053 118.569 57.0493C118.976 57.456 119.261 57.944 119.342 58.5133C119.423 59.0827 119.383 59.6113 119.423 60.2213C119.423 60.262 119.423 60.262 119.383 60.3433C119.301 61.0753 118.732 61.5227 117.878 61.36C117.593 61.2787 117.349 61.36 117.146 61.5227ZM112.144 56.8867C112.632 57.0087 112.876 57.09 113.161 57.1713C113.364 57.212 113.567 57.09 113.567 56.8053C113.161 56.7647 112.754 56.724 112.144 56.8867ZM113.039 59.5707C113.649 59.652 113.893 59.4893 114.015 59.164V59.0827C113.933 59.042 113.811 59.042 113.771 59.042C113.567 59.1233 113.405 59.286 113.039 59.5707ZM106.044 61.1973L106.166 60.994C106.125 60.8313 105.881 60.7093 105.678 60.75L105.637 60.8313C105.637 60.994 105.8 61.1973 106.044 61.1973ZM111.29 59.774L111.656 59.4893C111.697 59.4893 111.615 59.3267 111.615 59.286C111.412 59.2453 111.168 59.408 111.127 59.5707C111.127 59.6113 111.168 59.652 111.29 59.774ZM102.628 74.6173C102.587 74.4953 102.587 74.4547 102.547 74.4547C102.425 74.3327 102.303 74.414 102.181 74.4953C102.181 74.5767 102.14 74.658 102.14 74.78L102.181 74.8207C102.384 74.7393 102.506 74.6987 102.628 74.6173ZM123.243 60.7907C123.65 60.8313 123.446 61.6447 124.056 61.2787C124.341 61.726 123.934 62.092 124.056 62.5393C124.178 62.4173 124.3 62.3767 124.422 62.2953C124.504 62.6207 124.585 62.8647 124.422 63.2307C123.406 65.508 121.616 71.8113 121.616 74.902C120.559 75.7967 120.966 75.3087 119.99 75.3087H119.908C118.526 75.9593 118.973 73.7227 118.282 74.3327C117.916 73.438 117.834 72.5027 117.997 71.608C118.363 69.9 118.607 68.1513 119.258 66.484L120.64 62.1733C123.324 57.1307 121.738 63.0273 123.243 60.7907ZM122.104 57.2527C121.901 56.8053 122.552 56.5207 122.348 56.114C121.942 55.3007 124.788 53.8773 125.195 55.504C125.358 55.626 125.398 55.8293 125.398 56.0733C125.48 57.09 124.748 58.92 124.056 58.432C123.731 58.188 122.511 57.944 122.104 57.2527ZM119.705 67.8667L120.03 68.558C118.851 72.1773 121.088 68.7207 120.6 67.6633C120.6 67.6227 120.518 67.582 120.478 67.46C120.315 67.826 119.908 67.6227 119.705 67.8667ZM124.788 55.9513C124.463 56.358 124.463 56.3987 124.585 56.48C124.626 56.602 124.748 56.724 124.91 56.602C124.91 56.3987 125.195 56.0733 124.788 55.9513ZM138.603 62.2547C137.912 62.4987 137.343 62.8647 136.773 63.2713C135.635 64.166 134.618 65.142 133.52 66.118L132.829 66.8907C132.747 66.972 132.625 67.094 132.381 67.0533C132.259 67.0127 132.259 67.1347 132.219 67.216C132.178 67.6227 132.178 67.6227 131.853 67.704C131.771 67.7447 131.69 67.7447 131.609 67.7447C131.568 67.7447 131.568 67.7853 131.487 67.7853C131.365 67.948 131.69 67.9887 131.527 68.3547L131.161 68.7207C130.511 69.412 129.982 70.1847 129.535 70.9573C129.453 71.0387 129.331 71.0793 129.291 71.242C129.047 71.6487 128.559 71.852 128.437 72.462C128.396 72.8687 128.071 73.316 127.867 73.7227L127.379 74.5767C127.217 74.78 127.135 75.024 127.013 75.2273C126.81 75.634 126.525 75.878 125.956 75.8373C125.915 75.8373 125.793 75.8373 125.753 75.878L125.387 76.0407C125.387 75.7153 125.631 75.3087 125.143 75.0647L124.37 75.5933C124.207 75.4713 124.126 75.1867 123.882 75.0647C123.557 74.902 123.516 74.6173 123.76 74.3327C123.882 74.17 123.963 74.0073 123.882 73.7227C123.841 73.5193 123.882 73.316 123.923 73.1127C124.451 71.8113 124.695 70.4693 125.224 69.168C125.346 68.7207 125.387 68.2733 125.793 67.8667C125.793 67.826 125.834 67.7853 125.834 67.7853C125.793 67.1347 125.915 66.6467 126.241 66.1587C126.322 65.996 126.241 65.752 126.281 65.5893L126.688 64.4913L126.81 64.0847C126.973 62.9867 127.42 62.0513 127.664 60.9127C127.786 60.262 127.908 59.5707 128.152 58.8387C128.193 58.554 128.315 58.31 128.599 58.1473L129.047 58.4727C129.209 58.676 129.087 58.798 128.803 58.798C128.762 58.798 128.721 58.8387 128.681 58.8387C128.599 59.0827 128.884 59.2047 128.843 59.4487C128.762 59.5707 128.681 59.652 128.599 59.774L128.884 60.262L129.047 60.75C129.413 60.4247 129.413 60.018 129.453 59.6927C129.535 59.3673 129.616 59.0013 129.738 58.676C129.982 58.7167 130.104 58.798 130.348 58.798C130.429 58.798 130.47 58.7573 130.511 58.676C130.511 58.6353 130.511 58.5133 130.47 58.4727C130.348 58.3913 130.145 58.3913 129.982 58.2693C129.982 58.2287 129.982 58.1067 129.982 58.066C129.982 57.9847 130.145 57.9033 130.226 57.944C130.47 57.9847 130.714 58.066 130.917 58.1473C131.283 58.92 130.917 59.652 130.836 60.3433C130.917 60.3433 131.283 60.262 131.365 60.14C131.405 60.262 131.446 60.3433 131.446 60.4247C131.243 61.3193 130.958 62.2547 130.755 63.2307L130.673 63.8C130.958 63.922 131.202 63.8407 131.283 63.678C131.975 62.6613 133.154 61.9293 134.089 61.0347C134.211 60.872 134.333 60.8313 134.496 60.7093C135.065 60.384 135.594 59.9773 136.163 59.652C136.448 59.6927 136.123 59.896 136.285 60.018L136.855 60.14C136.977 59.9773 136.733 59.9367 136.651 59.774C136.855 59.3673 137.099 59.0013 137.587 58.798C137.953 58.676 138.278 58.5947 138.644 58.676C138.888 58.7573 138.929 58.7167 138.969 58.3913C139.051 58.188 139.173 58.1067 139.335 58.1473C139.864 58.1473 140.311 57.9847 140.759 57.7407C141.084 57.822 141.328 57.8627 141.694 57.9033C141.979 57.9033 142.223 57.9847 142.507 58.066C143.361 58.31 143.605 58.92 143.687 59.5707C143.809 59.9773 143.89 60.506 143.524 60.872C143.443 60.9533 143.483 61.1567 143.483 61.238C143.321 61.2787 143.199 61.2787 143.117 61.2787C142.792 61.36 142.629 61.4413 142.711 61.5633C142.751 61.6447 142.792 61.6447 143.158 61.6447C143.158 61.6447 143.199 61.726 143.158 61.7667C143.077 61.97 142.995 62.092 142.914 62.2547C142.67 62.4987 142.345 62.7833 142.385 63.1493L141.735 63.5967C141.735 63.8 141.694 64.0847 141.572 64.3693L141.165 64.9793C140.759 65.7927 140.352 66.606 139.864 67.4193C139.376 68.07 139.213 68.7207 138.929 69.3713C138.847 69.534 138.807 69.6967 138.766 69.8187C138.156 70.7133 138.115 71.73 137.831 72.6653C137.749 73.0313 137.871 73.316 138.197 73.4787C138.563 73.7227 138.685 74.048 138.603 74.3733C138.563 74.5767 138.725 74.7393 138.766 74.9427C138.603 75.4713 138.034 75.8373 137.546 76.1627C137.465 76.2847 137.261 76.2847 137.058 76.2847C136.123 76.244 135.35 75.878 134.781 75.1867C134.374 74.6173 134.089 73.8853 134.171 73.1533C134.211 72.218 134.293 71.364 134.618 70.4287C135.147 68.9647 135.716 67.5007 136.529 66.118C136.855 65.4673 137.099 64.898 137.505 64.3693C137.953 63.678 138.237 62.9867 138.603 62.2547ZM135.716 71.486C135.797 71.486 135.838 71.5267 135.838 71.486C136.367 71.0387 136.204 70.3067 136.611 69.778V69.5747L136.57 69.534C136.489 69.534 136.407 69.534 136.367 69.534L136.204 69.7373C136.041 70.266 135.797 70.9167 135.716 71.486ZM127.745 62.3767C128.071 62.3767 128.315 62.4173 128.599 62.4173C128.721 62.2953 128.721 62.1733 128.681 62.0513C128.599 61.7667 128.437 61.6853 128.233 61.8073C128.152 61.9293 127.989 62.092 127.786 62.092C127.745 62.1327 127.745 62.2547 127.745 62.3767ZM137.18 68.192C136.692 68.2327 136.814 68.558 136.692 68.6393C136.611 68.8427 136.448 68.9647 136.204 69.168C136.611 69.1273 136.814 69.0867 136.855 68.9647C136.977 68.7207 137.058 68.558 137.18 68.192ZM140.433 61.8073L141.165 61.6853C141.165 61.6447 141.165 61.5633 141.206 61.5227L140.596 61.4413C140.555 61.4007 140.433 61.482 140.393 61.482C140.352 61.5633 140.311 61.6447 140.311 61.726C140.311 61.7667 140.433 61.8073 140.433 61.8073ZM133.561 65.264C133.683 65.1013 133.601 64.9387 133.601 64.8167C133.561 64.776 133.398 64.7353 133.317 64.776C133.276 64.776 133.195 64.898 133.195 64.9387C133.317 65.0607 133.317 65.264 133.561 65.264ZM154.552 73.9667C154.714 74.292 154.674 74.5767 154.592 74.9427C154.186 76.122 153.82 77.342 153.413 78.4807C153.006 79.782 152.437 80.9613 151.705 82.0593C151.258 82.7507 150.729 83.32 150.119 83.8487C150.038 83.8893 149.997 84.0113 149.916 84.0113C149.672 84.052 149.387 83.93 149.184 84.296C149.062 84.4993 148.777 84.5807 148.533 84.662C148.208 84.8247 147.842 84.9873 147.435 84.8247C147.232 84.7027 147.028 84.784 146.866 84.7433C146.622 84.7433 146.378 84.7433 146.174 84.662C145.361 84.296 144.466 84.0927 143.897 83.2793C143.816 83.198 143.734 83.1167 143.653 83.076C142.799 82.588 142.148 81.856 141.66 81.0833C141.579 80.9207 141.457 80.7987 141.335 80.758C140.888 80.392 140.684 79.9853 140.562 79.416C140.562 79.3753 140.522 79.2533 140.481 79.1313C140.278 78.2773 140.562 77.6673 141.376 77.22C141.742 76.976 142.026 77.0573 142.27 77.464C142.27 77.464 142.27 77.5453 142.311 77.5453C142.392 77.6673 142.474 77.7893 142.555 77.7893C142.636 77.7487 142.718 77.6673 142.718 77.5453C142.84 77.4233 142.84 77.3013 142.88 77.1387C143.572 77.4233 143.897 77.9113 144.304 78.3993C145.076 79.3347 145.89 80.148 146.866 80.7987C147.272 81.124 147.435 81.124 147.842 80.7987C148.492 80.2293 148.858 79.4567 149.184 78.7653C149.753 77.5047 150.322 76.2847 150.607 74.9427C150.729 74.536 150.892 74.0887 151.054 73.682C151.176 73.3973 151.258 73.072 151.136 72.7467C150.851 72.6653 150.648 72.8687 150.404 73.0313C149.794 73.3973 149.021 73.5193 148.33 73.6007C147.882 73.7227 147.435 73.6007 147.028 73.5193C146.174 73.316 145.564 72.8687 144.914 72.3807C144.1 71.7707 143.775 70.754 143.572 69.778C143.328 68.5987 143.49 67.3787 143.897 66.24C144.222 65.02 144.792 63.922 145.564 62.9053C146.215 62.0107 147.028 61.1973 147.801 60.4653C147.964 60.3027 148.126 60.14 148.33 60.0587C148.655 59.9367 148.899 59.7333 149.143 59.53C149.834 59.0013 150.607 58.554 151.542 58.554C151.705 58.554 151.786 58.4727 151.908 58.3913C152.071 58.31 152.274 58.2693 152.437 58.2693C153.291 58.2287 154.145 58.2693 154.958 58.554C155.243 58.6353 155.528 58.7573 155.731 58.8793C156.341 59.2047 156.341 59.2453 156.463 60.018C156.87 60.14 157.073 59.6927 157.439 59.652C157.561 59.7333 157.683 59.8147 157.805 59.9367C158.212 60.262 158.13 60.8313 158.334 61.238C158.456 61.4413 158.334 61.726 158.293 62.0107C158.212 62.2953 158.13 62.5393 158.09 62.8647C158.008 63.0273 157.886 63.2307 157.927 63.3933C158.13 64.166 157.602 64.8167 157.358 65.4673C157.236 65.9553 157.032 66.4433 156.91 66.9313C156.504 68.68 156.016 70.4287 155.487 72.1367L155.121 73.1533C154.958 73.438 154.755 73.6413 154.552 73.9667ZM147.191 68.68C147.191 69.5747 147.72 69.9407 148.452 69.6967C148.492 69.656 148.533 69.656 148.533 69.6153C149.184 69.3307 149.794 68.9647 150.322 68.5173C150.932 68.0293 151.38 67.3787 152.071 66.972C152.193 66.8907 152.234 66.7687 152.315 66.6467C152.437 66.362 152.6 66.118 152.762 65.874C153.413 65.02 153.779 64.044 153.942 62.946C154.023 62.458 153.942 62.336 153.494 62.092C153.128 62.0107 152.803 62.0107 152.396 62.092C151.868 62.2953 151.38 62.4987 150.932 62.8647C150.119 63.434 149.387 64.166 148.777 65.02C148.411 65.5487 148.004 66.118 147.72 66.6873C147.435 67.338 147.313 68.1107 147.191 68.68ZM151.461 77.1387L151.664 77.0167C151.908 76.2033 152.234 75.39 152.518 74.536C152.884 73.56 153.088 72.462 153.657 71.4453C153.698 71.364 153.738 71.242 153.698 71.1607C153.698 71.0793 153.576 70.9573 153.494 70.9167C153.413 70.876 153.291 70.9167 153.25 70.998C153.128 71.2013 153.006 71.4453 152.925 71.6893C152.559 72.9093 152.315 74.0887 151.868 75.268C151.705 75.5933 151.746 76 151.502 76.2847C151.583 76.5287 151.258 76.854 151.461 77.1387ZM154.836 72.5433C154.552 72.9907 154.552 72.9907 154.674 73.316C154.796 73.1127 154.999 72.8687 154.836 72.5433Z" fill="black"/>
</svg>
