<svg width="225" height="97" viewBox="0 0 225 97" fill="none" xmlns="http://www.w3.org/2000/svg">
<path d="M3.25333 30V0.720001H8.15367V30H3.25333ZM29.4335 30V19.4267C29.4335 18.7353 29.386 17.9694 29.2911 17.129C29.1962 16.2886 28.9726 15.482 28.6201 14.7093C28.2812 13.9231 27.7661 13.2792 27.0748 12.7777C26.397 12.2761 25.4752 12.0253 24.3095 12.0253C23.6859 12.0253 23.0691 12.127 22.4591 12.3303C21.8491 12.5337 21.2933 12.8861 20.7918 13.3877C20.3038 13.8757 19.9107 14.5534 19.6125 15.421C19.3142 16.275 19.1651 17.373 19.1651 18.715L16.2575 17.4747C16.2575 15.604 16.6167 13.9096 17.3351 12.3913C18.0671 10.8731 19.138 9.66667 20.5478 8.772C21.9576 7.86378 23.6927 7.40967 25.7531 7.40967C27.3798 7.40967 28.7218 7.68078 29.7791 8.223C30.8365 8.76522 31.6769 9.45656 32.3005 10.297C32.924 11.1374 33.3849 12.0321 33.6831 12.981C33.9813 13.9299 34.1711 14.8313 34.2525 15.6853C34.3473 16.5258 34.3948 17.2103 34.3948 17.739V30H29.4335ZM14.2038 30V8.04H18.5755V14.8517H19.1651V30H14.2038ZM48.1798 30.61C45.4687 30.61 43.2659 30 41.5715 28.78C39.8771 27.56 38.8468 25.8452 38.4808 23.6357L43.4828 22.863C43.7404 23.9474 44.3097 24.8014 45.1908 25.425C46.0719 26.0486 47.1835 26.3603 48.5255 26.3603C49.7048 26.3603 50.6131 26.1299 51.2502 25.669C51.9008 25.1946 52.2262 24.5507 52.2262 23.7373C52.2262 23.2358 52.1042 22.8359 51.8602 22.5377C51.6297 22.2259 51.1146 21.9277 50.3148 21.643C49.5151 21.3583 48.2883 20.9991 46.6345 20.5653C44.7909 20.0773 43.3269 19.5554 42.2425 18.9997C41.1581 18.4303 40.3786 17.7593 39.9042 16.9867C39.4297 16.214 39.1925 15.2787 39.1925 14.1807C39.1925 12.8116 39.5517 11.6187 40.2702 10.602C40.9886 9.58533 41.9917 8.80589 43.2795 8.26367C44.5673 7.70789 46.0855 7.43 47.8342 7.43C49.5422 7.43 51.0536 7.69433 52.3685 8.223C53.6969 8.75167 54.7678 9.504 55.5812 10.48C56.3945 11.456 56.8961 12.6014 57.0858 13.9163L52.0838 14.811C51.9618 13.8757 51.5348 13.1369 50.8028 12.5947C50.0844 12.0524 49.1219 11.7474 47.9155 11.6797C46.7633 11.6119 45.8347 11.7881 45.1298 12.2083C44.4249 12.615 44.0725 13.1911 44.0725 13.9367C44.0725 14.3569 44.2148 14.7161 44.4995 15.0143C44.7842 15.3126 45.3535 15.6108 46.2075 15.909C47.0751 16.2072 48.3628 16.5732 50.0708 17.007C51.8195 17.4543 53.2157 17.9694 54.2595 18.5523C55.3168 19.1217 56.0759 19.8062 56.5368 20.606C57.0113 21.4058 57.2485 22.375 57.2485 23.5137C57.2485 25.7232 56.4419 27.4583 54.8288 28.719C53.2293 29.9797 51.0129 30.61 48.1798 30.61ZM74.5731 30C73.1227 30.2711 71.6994 30.3863 70.3031 30.3457C68.9205 30.3186 67.6801 30.0678 66.5821 29.5933C65.4841 29.1053 64.6505 28.3394 64.0811 27.2957C63.5796 26.3468 63.3152 25.3776 63.2881 24.388C63.261 23.3984 63.2475 22.2801 63.2475 21.033V1.94H68.1275V20.7483C68.1275 21.6294 68.1342 22.4021 68.1478 23.0663C68.1749 23.7306 68.3172 24.2728 68.5748 24.693C69.0628 25.5063 69.8422 25.9604 70.9131 26.0553C71.984 26.1502 73.204 26.096 74.5731 25.8927V30ZM59.2621 11.883V8.04H74.5731V11.883H59.2621ZM85.4359 30.61C83.8499 30.61 82.5079 30.3118 81.4099 29.7153C80.3119 29.1053 79.4782 28.2988 78.9089 27.2957C78.3531 26.2926 78.0752 25.1878 78.0752 23.9813C78.0752 22.924 78.2515 21.9751 78.6039 21.1347C78.9563 20.2807 79.4986 19.5487 80.2306 18.9387C80.9626 18.3151 81.9115 17.8068 83.0772 17.4137C83.9583 17.129 84.9886 16.8714 86.1679 16.641C87.3608 16.4106 88.6486 16.2004 90.0312 16.0107C91.4275 15.8073 92.8847 15.5904 94.4029 15.36L92.6542 16.3563C92.6678 14.8381 92.3289 13.7198 91.6376 13.0013C90.9462 12.2829 89.7805 11.9237 88.1402 11.9237C87.1507 11.9237 86.195 12.1541 85.2732 12.615C84.3515 13.0759 83.7076 13.8689 83.3416 14.994L78.8682 13.591C79.4105 11.7339 80.4407 10.2428 81.9589 9.11767C83.4907 7.99256 85.5511 7.43 88.1402 7.43C90.0922 7.43 91.807 7.74856 93.2846 8.38567C94.7757 9.02278 95.8805 10.0666 96.5989 11.517C96.992 12.2897 97.2292 13.0827 97.3106 13.896C97.3919 14.6958 97.4326 15.5701 97.4326 16.519V30H93.1422V25.242L93.8539 26.0147C92.8643 27.6007 91.7053 28.7664 90.3769 29.512C89.062 30.244 87.415 30.61 85.4359 30.61ZM86.4119 26.706C87.5235 26.706 88.4723 26.5094 89.2586 26.1163C90.0448 25.7232 90.6683 25.242 91.1292 24.6727C91.6037 24.1033 91.9222 23.5679 92.0849 23.0663C92.3425 22.4428 92.4848 21.7311 92.5119 20.9313C92.5526 20.118 92.5729 19.4606 92.5729 18.959L94.0776 19.4063C92.6 19.6368 91.3326 19.8401 90.2752 20.0163C89.2179 20.1926 88.3097 20.362 87.5506 20.5247C86.7915 20.6738 86.1205 20.8432 85.5376 21.033C84.9682 21.2363 84.487 21.4736 84.0939 21.7447C83.7008 22.0158 83.3958 22.3276 83.1789 22.68C82.9756 23.0324 82.8739 23.4459 82.8739 23.9203C82.8739 24.4626 83.0095 24.9438 83.2806 25.364C83.5517 25.7707 83.9448 26.096 84.4599 26.34C84.9886 26.584 85.6392 26.706 86.4119 26.706ZM111.958 40.37C110.738 40.37 109.565 40.1802 108.44 39.8007C107.328 39.4211 106.325 38.8721 105.431 38.1537C104.536 37.4488 103.804 36.5948 103.235 35.5917L107.749 33.355C108.169 34.1548 108.758 34.7444 109.518 35.124C110.29 35.5171 111.11 35.7137 111.978 35.7137C112.995 35.7137 113.903 35.5307 114.703 35.1647C115.502 34.8122 116.119 34.2836 116.553 33.5787C117 32.8873 117.21 32.0198 117.183 30.976V24.7337H117.793V8.04H122.084V31.0573C122.084 31.6131 122.056 32.1418 122.002 32.6433C121.962 33.1584 121.887 33.66 121.779 34.148C121.453 35.5713 120.83 36.7371 119.908 37.6453C118.986 38.5671 117.841 39.2517 116.472 39.699C115.116 40.1463 113.611 40.37 111.958 40.37ZM111.531 30.61C109.511 30.61 107.749 30.1017 106.244 29.085C104.739 28.0683 103.573 26.6857 102.747 24.937C101.92 23.1883 101.506 21.216 101.506 19.02C101.506 16.7969 101.92 14.8178 102.747 13.0827C103.587 11.334 104.773 9.95811 106.305 8.955C107.837 7.93833 109.64 7.43 111.714 7.43C113.801 7.43 115.55 7.93833 116.96 8.955C118.383 9.95811 119.461 11.334 120.193 13.0827C120.925 14.8313 121.291 16.8104 121.291 19.02C121.291 21.2024 120.925 23.1748 120.193 24.937C119.461 26.6857 118.369 28.0683 116.919 29.085C115.468 30.1017 113.672 30.61 111.531 30.61ZM112.283 26.218C113.598 26.218 114.655 25.9198 115.455 25.3233C116.268 24.7133 116.858 23.8661 117.224 22.7817C117.603 21.6972 117.793 20.4433 117.793 19.02C117.793 17.5831 117.603 16.3292 117.224 15.2583C116.858 14.1739 116.282 13.3334 115.496 12.737C114.709 12.127 113.693 11.822 112.446 11.822C111.131 11.822 110.046 12.1473 109.192 12.798C108.338 13.4351 107.708 14.3027 107.301 15.4007C106.895 16.4851 106.691 17.6916 106.691 19.02C106.691 20.362 106.888 21.582 107.281 22.68C107.688 23.7644 108.304 24.6252 109.131 25.2623C109.958 25.8994 111.009 26.218 112.283 26.218ZM127.785 30V8.04H132.116V13.3877L131.588 12.6963C131.859 11.9643 132.218 11.3001 132.665 10.7037C133.126 10.0937 133.675 9.59211 134.312 9.199C134.855 8.833 135.451 8.54833 136.102 8.345C136.766 8.12811 137.444 7.99933 138.135 7.95867C138.826 7.90444 139.497 7.93156 140.148 8.04V12.615C139.497 12.4252 138.745 12.3642 137.891 12.432C137.051 12.4998 136.292 12.737 135.614 13.1437C134.936 13.5097 134.38 13.9773 133.946 14.5467C133.526 15.116 133.214 15.7667 133.011 16.4987C132.808 17.2171 132.706 17.9966 132.706 18.837V30H127.785ZM149.653 30.61C148.067 30.61 146.725 30.3118 145.627 29.7153C144.529 29.1053 143.695 28.2988 143.126 27.2957C142.57 26.2926 142.292 25.1878 142.292 23.9813C142.292 22.924 142.468 21.9751 142.821 21.1347C143.173 20.2807 143.715 19.5487 144.447 18.9387C145.179 18.3151 146.128 17.8068 147.294 17.4137C148.175 17.129 149.205 16.8714 150.385 16.641C151.578 16.4106 152.865 16.2004 154.248 16.0107C155.644 15.8073 157.101 15.5904 158.62 15.36L156.871 16.3563C156.885 14.8381 156.546 13.7198 155.854 13.0013C155.163 12.2829 153.997 11.9237 152.357 11.9237C151.367 11.9237 150.412 12.1541 149.49 12.615C148.568 13.0759 147.924 13.8689 147.558 14.994L143.085 13.591C143.627 11.7339 144.657 10.2428 146.176 9.11767C147.707 7.99256 149.768 7.43 152.357 7.43C154.309 7.43 156.024 7.74856 157.501 8.38567C158.992 9.02278 160.097 10.0666 160.816 11.517C161.209 12.2897 161.446 13.0827 161.527 13.896C161.609 14.6958 161.649 15.5701 161.649 16.519V30H157.359V25.242L158.071 26.0147C157.081 27.6007 155.922 28.7664 154.594 29.512C153.279 30.244 151.632 30.61 149.653 30.61ZM150.629 26.706C151.74 26.706 152.689 26.5094 153.475 26.1163C154.262 25.7232 154.885 25.242 155.346 24.6727C155.82 24.1033 156.139 23.5679 156.302 23.0663C156.559 22.4428 156.702 21.7311 156.729 20.9313C156.769 20.118 156.79 19.4606 156.79 18.959L158.294 19.4063C156.817 19.6368 155.549 19.8401 154.492 20.0163C153.435 20.1926 152.526 20.362 151.767 20.5247C151.008 20.6738 150.337 20.8432 149.754 21.033C149.185 21.2363 148.704 21.4736 148.311 21.7447C147.918 22.0158 147.613 22.3276 147.396 22.68C147.192 23.0324 147.091 23.4459 147.091 23.9203C147.091 24.4626 147.226 24.9438 147.497 25.364C147.768 25.7707 148.162 26.096 148.677 26.34C149.205 26.584 149.856 26.706 150.629 26.706ZM193.315 30V16.6613C193.315 15.1567 192.943 13.9841 192.197 13.1437C191.451 12.2897 190.442 11.8627 189.167 11.8627C188.381 11.8627 187.676 12.0457 187.053 12.4117C186.429 12.7641 185.934 13.2928 185.568 13.9977C185.202 14.689 185.019 15.5159 185.019 16.4783L182.844 15.1973C182.83 13.6791 183.169 12.3439 183.86 11.1917C184.565 10.0259 185.514 9.11767 186.707 8.467C187.9 7.81633 189.228 7.491 190.692 7.491C193.119 7.491 194.976 8.223 196.264 9.687C197.565 11.1374 198.216 13.0488 198.216 15.421V30H193.315ZM166.902 30V8.04H171.233V14.8517H171.843V30H166.902ZM180.139 30V16.7223C180.139 15.1906 179.767 13.9977 179.021 13.1437C178.275 12.2897 177.259 11.8627 175.971 11.8627C174.724 11.8627 173.721 12.2897 172.962 13.1437C172.216 13.9977 171.843 15.1092 171.843 16.4783L169.647 15.0143C169.647 13.591 170 12.31 170.705 11.1713C171.41 10.0327 172.358 9.138 173.551 8.48733C174.758 7.82311 176.107 7.491 177.598 7.491C179.238 7.491 180.607 7.84345 181.705 8.54833C182.817 9.23967 183.643 10.1886 184.186 11.395C184.741 12.5879 185.019 13.9367 185.019 15.4413V30H180.139ZM0.813333 86L10.0447 56.72H17.2223L26.4537 86H21.411L13.0337 59.7293H14.1317L5.856 86H0.813333ZM5.95767 79.656V75.081H21.3297V79.656H5.95767ZM38.9342 86.61C36.9144 86.61 35.1522 86.1017 33.6475 85.085C32.1429 84.0683 30.9771 82.6857 30.1502 80.937C29.3233 79.1883 28.9099 77.216 28.9099 75.02C28.9099 72.7969 29.3233 70.8178 30.1502 69.0827C30.9906 67.334 32.1768 65.9581 33.7085 64.955C35.2403 63.9383 37.0432 63.43 39.1172 63.43C41.2048 63.43 42.9534 63.9383 44.3632 64.955C45.7865 65.9581 46.8642 67.334 47.5962 69.0827C48.3282 70.8313 48.6942 72.8104 48.6942 75.02C48.6942 77.2024 48.3282 79.1748 47.5962 80.937C46.8642 82.6857 45.773 84.0683 44.3225 85.085C42.8721 86.1017 41.076 86.61 38.9342 86.61ZM39.6865 82.218C41.0014 82.218 42.0588 81.9198 42.8585 81.3233C43.6719 80.7133 44.2615 79.8661 44.6275 78.7817C45.0071 77.6972 45.1969 76.4433 45.1969 75.02C45.1969 73.5831 45.0071 72.3292 44.6275 71.2583C44.2615 70.1739 43.6854 69.3334 42.8992 68.737C42.113 68.127 41.0963 67.822 39.8492 67.822C38.5343 67.822 37.4499 68.1473 36.5959 68.798C35.7419 69.4351 35.1115 70.3027 34.7049 71.4007C34.2982 72.4851 34.0949 73.6916 34.0949 75.02C34.0949 76.362 34.2914 77.582 34.6845 78.68C35.0912 79.7644 35.708 80.6252 36.5349 81.2623C37.3618 81.8994 38.4123 82.218 39.6865 82.218ZM45.1969 86V70.5873H44.5869V56.72H49.5279V86H45.1969ZM61.1662 86L53.1955 64.04H58.0958L63.6265 79.961L69.1368 64.04H74.0575L66.0868 86H61.1662ZM86.8961 86.61C84.673 86.61 82.721 86.1288 81.0401 85.1663C79.3592 84.2039 78.0443 82.8687 77.0954 81.1607C76.1601 79.4527 75.6924 77.4871 75.6924 75.264C75.6924 72.8647 76.1533 70.7839 77.0751 69.0217C77.9969 67.2459 79.2779 65.87 80.9181 64.894C82.5583 63.918 84.4561 63.43 86.6114 63.43C88.8887 63.43 90.8204 63.9654 92.4064 65.0363C94.006 66.0937 95.1921 67.5916 95.9647 69.53C96.7374 71.4684 97.0289 73.7526 96.8391 76.3823H91.9794V74.593C91.9659 72.2072 91.5456 70.4653 90.7188 69.3673C89.8919 68.2693 88.5905 67.7203 86.8148 67.7203C84.8085 67.7203 83.3174 68.3439 82.3414 69.591C81.3654 70.8246 80.8774 72.6342 80.8774 75.02C80.8774 77.2431 81.3654 78.9647 82.3414 80.1847C83.3174 81.4047 84.7408 82.0147 86.6114 82.0147C87.8179 82.0147 88.8549 81.7503 89.7224 81.2217C90.6035 80.6794 91.2813 79.9 91.7558 78.8833L96.5951 80.3473C95.7546 82.3264 94.4533 83.865 92.6911 84.963C90.9424 86.061 89.0108 86.61 86.8961 86.61ZM79.3321 76.3823V72.6817H94.4398V76.3823H79.3321ZM101.376 86V64.04H105.707V69.3877L105.178 68.6963C105.449 67.9643 105.809 67.3001 106.256 66.7037C106.717 66.0937 107.266 65.5921 107.903 65.199C108.445 64.833 109.042 64.5483 109.692 64.345C110.357 64.1281 111.034 63.9993 111.726 63.9587C112.417 63.9044 113.088 63.9316 113.739 64.04V68.615C113.088 68.4252 112.336 68.3642 111.482 68.432C110.641 68.4998 109.882 68.737 109.204 69.1437C108.527 69.5097 107.971 69.9773 107.537 70.5467C107.117 71.116 106.805 71.7667 106.602 72.4987C106.398 73.2171 106.297 73.9966 106.297 74.837V86H101.376ZM130.49 86C129.039 86.2711 127.616 86.3863 126.22 86.3457C124.837 86.3186 123.597 86.0678 122.499 85.5933C121.401 85.1053 120.567 84.3394 119.998 83.2957C119.496 82.3468 119.232 81.3776 119.205 80.388C119.178 79.3984 119.164 78.2801 119.164 77.033V57.94H124.044V76.7483C124.044 77.6294 124.051 78.4021 124.064 79.0663C124.092 79.7306 124.234 80.2728 124.491 80.693C124.979 81.5063 125.759 81.9604 126.83 82.0553C127.901 82.1502 129.121 82.096 130.49 81.8927V86ZM115.179 67.883V64.04H130.49V67.883H115.179ZM135.619 60.7053V56.2117H140.519V60.7053H135.619ZM135.619 86V64.04H140.519V86H135.619ZM155.089 86.61C152.378 86.61 150.175 86 148.48 84.78C146.786 83.56 145.756 81.8452 145.39 79.6357L150.392 78.863C150.649 79.9474 151.219 80.8014 152.1 81.425C152.981 82.0486 154.092 82.3603 155.434 82.3603C156.614 82.3603 157.522 82.1299 158.159 81.669C158.81 81.1946 159.135 80.5507 159.135 79.7373C159.135 79.2358 159.013 78.8359 158.769 78.5377C158.539 78.2259 158.023 77.9277 157.224 77.643C156.424 77.3583 155.197 76.9991 153.543 76.5653C151.7 76.0773 150.236 75.5554 149.151 74.9997C148.067 74.4303 147.287 73.7593 146.813 72.9867C146.339 72.214 146.101 71.2787 146.101 70.1807C146.101 68.8116 146.461 67.6187 147.179 66.602C147.897 65.5853 148.901 64.8059 150.188 64.2637C151.476 63.7079 152.994 63.43 154.743 63.43C156.451 63.43 157.962 63.6943 159.277 64.223C160.606 64.7517 161.677 65.504 162.49 66.48C163.303 67.456 163.805 68.6014 163.995 69.9163L158.993 70.811C158.871 69.8757 158.444 69.1369 157.712 68.5947C156.993 68.0524 156.031 67.7474 154.824 67.6797C153.672 67.6119 152.744 67.7881 152.039 68.2083C151.334 68.615 150.981 69.1911 150.981 69.9367C150.981 70.3569 151.124 70.7161 151.408 71.0143C151.693 71.3126 152.262 71.6108 153.116 71.909C153.984 72.2072 155.272 72.5732 156.98 73.007C158.728 73.4543 160.125 73.9694 161.168 74.5523C162.226 75.1217 162.985 75.8062 163.446 76.606C163.92 77.4058 164.157 78.375 164.157 79.5137C164.157 81.7232 163.351 83.4583 161.738 84.719C160.138 85.9797 157.922 86.61 155.089 86.61ZM169.018 60.7053V56.2117H173.918V60.7053H169.018ZM169.018 86V64.04H173.918V86H169.018ZM195.198 86V75.4267C195.198 74.7353 195.15 73.9694 195.055 73.129C194.961 72.2886 194.737 71.482 194.384 70.7093C194.046 69.9231 193.53 69.2792 192.839 68.7777C192.161 68.2761 191.24 68.0253 190.074 68.0253C189.45 68.0253 188.833 68.127 188.223 68.3303C187.613 68.5337 187.058 68.8861 186.556 69.3877C186.068 69.8757 185.675 70.5534 185.377 71.421C185.079 72.275 184.929 73.373 184.929 74.715L182.022 73.4747C182.022 71.604 182.381 69.9096 183.099 68.3913C183.831 66.8731 184.902 65.6667 186.312 64.772C187.722 63.8638 189.457 63.4097 191.517 63.4097C193.144 63.4097 194.486 63.6808 195.543 64.223C196.601 64.7652 197.441 65.4566 198.065 66.297C198.688 67.1374 199.149 68.0321 199.447 68.981C199.746 69.9299 199.935 70.8313 200.017 71.6853C200.112 72.5258 200.159 73.2103 200.159 73.739V86H195.198ZM179.968 86V64.04H184.34V70.8517H184.929V86H179.968ZM214.696 96.37C213.476 96.37 212.304 96.1802 211.179 95.8007C210.067 95.4211 209.064 94.8721 208.169 94.1537C207.275 93.4488 206.543 92.5948 205.973 91.5917L210.487 89.355C210.908 90.1548 211.497 90.7444 212.256 91.124C213.029 91.5171 213.849 91.7137 214.717 91.7137C215.733 91.7137 216.642 91.5307 217.441 91.1647C218.241 90.8122 218.858 90.2836 219.292 89.5787C219.739 88.8873 219.949 88.0198 219.922 86.976V80.7337H220.532V64.04H224.822V87.0573C224.822 87.6131 224.795 88.1418 224.741 88.6433C224.7 89.1584 224.626 89.66 224.517 90.148C224.192 91.5713 223.569 92.7371 222.647 93.6453C221.725 94.5671 220.58 95.2517 219.21 95.699C217.855 96.1463 216.35 96.37 214.696 96.37ZM214.269 86.61C212.25 86.61 210.487 86.1017 208.983 85.085C207.478 84.0683 206.312 82.6857 205.485 80.937C204.659 79.1883 204.245 77.216 204.245 75.02C204.245 72.7969 204.659 70.8178 205.485 69.0827C206.326 67.334 207.512 65.9581 209.044 64.955C210.576 63.9383 212.378 63.43 214.452 63.43C216.54 63.43 218.289 63.9383 219.698 64.955C221.122 65.9581 222.199 67.334 222.931 69.0827C223.663 70.8313 224.029 72.8104 224.029 75.02C224.029 77.2024 223.663 79.1748 222.931 80.937C222.199 82.6857 221.108 84.0683 219.658 85.085C218.207 86.1017 216.411 86.61 214.269 86.61ZM215.022 82.218C216.337 82.218 217.394 81.9198 218.194 81.3233C219.007 80.7133 219.597 79.8661 219.963 78.7817C220.342 77.6972 220.532 76.4433 220.532 75.02C220.532 73.5831 220.342 72.3292 219.963 71.2583C219.597 70.1739 219.021 69.3334 218.234 68.737C217.448 68.127 216.432 67.822 215.184 67.822C213.87 67.822 212.785 68.1473 211.931 68.798C211.077 69.4351 210.447 70.3027 210.04 71.4007C209.633 72.4851 209.43 73.6916 209.43 75.02C209.43 76.362 209.627 77.582 210.02 78.68C210.426 79.7644 211.043 80.6252 211.87 81.2623C212.697 81.8994 213.748 82.218 215.022 82.218Z" fill="black"/>
</svg>
