<svg width="159" height="86" viewBox="0 0 159 86" fill="none" xmlns="http://www.w3.org/2000/svg">
<path d="M17.274 32.7727C17.0707 32.9353 16.8267 32.854 16.7453 32.6913C16.2573 32.0407 15.9727 31.3087 16.1353 30.4953C16.298 29.3973 16.5827 28.218 16.8267 27.0793C16.908 26.7133 17.0707 26.3473 17.2333 25.9813C17.274 25.9 17.1927 25.8187 17.1113 25.8187C17.0707 25.778 16.9487 25.7373 16.908 25.7373C16.8267 25.778 16.7453 25.8187 16.7453 25.8187C15.6473 26.7133 14.6713 27.6893 13.4513 28.34C12.638 29.072 11.5807 29.4787 10.564 29.8853C9.87267 30.17 9.1 30.1293 8.40867 30.292C8.20533 30.3327 8.002 30.3327 7.79867 30.2513C6.98533 30.048 6.172 29.804 5.44 29.3567C5.27733 29.316 5.11467 29.2347 5.03333 29.072C4.83 28.584 4.38267 28.2587 3.976 27.8927C3.69133 27.486 3.488 27.0387 3.32533 26.5507C3.122 26.022 3 25.4933 2.878 25.0053C2.512 24.07 2.55267 23.094 2.47133 22.0773C2.39 21.3047 2.59333 20.4913 2.756 19.678C2.878 18.5393 3.122 17.36 3.56933 16.3027C3.69133 16.0993 3.69133 15.774 3.81333 15.53C3.854 15.164 3.89467 14.8387 4.098 14.554C4.62667 13.2933 5.23667 12.0327 5.76533 10.8127C5.96867 10.2433 6.538 9.83667 6.74133 9.22667C6.82267 8.90133 7.22933 9.064 7.35133 8.698C7.392 8.53533 7.47333 8.29133 7.55467 8.04733C8.002 7.478 8.44933 6.82733 9.01867 6.21733C9.87267 5.24133 10.808 4.34667 11.8653 3.574C12.638 3.086 13.1667 2.43533 14.0207 2.15067C14.8747 1.82533 15.6473 1.29667 16.6233 1.09333C16.664 1.05267 16.664 1.05267 16.7453 1.05267C17.1927 1.012 17.64 0.89 18.0873 0.930666C18.9007 1.05267 19.7547 0.808668 20.5273 1.134C20.934 1.378 21.3813 1.5 21.8693 1.70333C21.91 1.78467 21.9913 1.90667 22.0727 2.06933C22.154 2.15067 22.1947 2.27267 22.276 2.31333C22.3573 2.39467 22.7233 2.39467 22.7233 2.39467C22.8047 2.964 23.4147 2.80133 23.5773 3.208C23.6993 3.49267 23.984 3.818 24.1467 4.10267C24.4313 4.75333 24.716 5.36333 24.7973 5.97333C24.8787 6.58333 25.1633 7.27467 24.96 7.966C24.7973 8.04733 24.594 8.25067 24.472 8.41333C24.472 8.73867 24.7567 8.53533 24.8787 8.576C24.9193 8.61667 24.9193 8.61667 24.9193 8.65733C24.838 9.87733 24.472 10.9347 23.9433 11.992C23.6993 12.4393 23.2927 12.602 22.886 12.9273C22.6013 13.09 22.2353 13.09 21.91 13.0087C21.91 12.8867 22.032 12.6427 21.9507 12.6427C21.666 12.358 21.7067 11.992 21.8287 11.626C21.91 11.5853 22.032 11.5853 22.154 11.5447C22.3167 11.4633 22.3573 11.2193 22.276 11.0973C22.0727 10.6907 22.1947 10.3247 22.3167 9.99933C22.398 9.63333 22.4793 9.38933 22.3573 9.064C22.032 9.34867 22.032 9.34867 21.7067 9.918C21.5847 9.95867 21.422 9.95867 21.3 9.95867C21.422 10.2433 21.7067 10.4873 21.3813 10.8127C21.3 11.6667 21.3 11.6667 20.8527 12.236C20.3647 11.9107 20.3647 11.87 20.4867 11.5447C20.568 11.3413 20.69 11.0973 20.7713 10.9347C20.5273 10.8127 20.2427 10.8127 20.324 10.4467C20.4867 9.918 20.6493 9.34867 20.812 8.73867C20.8527 8.41333 20.934 8.00667 20.934 7.64067C20.9747 7.27467 20.8933 6.94933 20.812 6.58333C20.7307 6.21733 20.5273 5.77 20.3647 5.36333C20.0393 5.24133 19.6733 5.11933 19.3073 4.95667C18.9413 4.83467 18.5753 4.794 18.1687 4.916C17.274 5.11933 16.3793 5.36333 15.566 5.892C14.6307 6.46133 13.736 7.19333 12.9227 8.00667C12.6787 8.29133 12.394 8.53533 12.1907 8.73867C12.028 8.90133 11.8247 9.064 11.7027 9.26733C11.3773 9.674 11.052 10.2027 10.686 10.6907C10.564 10.8127 10.3607 10.8533 10.198 10.9347C10.0353 11.5853 9.71 12.114 9.42533 12.6833C8.246 14.7573 7.47333 16.9533 6.94467 19.2307C6.70067 20.3287 6.49733 21.386 6.538 22.5653C6.57867 23.0127 6.538 23.3787 6.538 23.9887C6.70067 24.2327 6.86333 24.6393 6.98533 24.9647C7.55467 26.1847 7.88 26.4287 9.344 25.9813C10.32 25.6967 11.1333 25.0867 11.9873 24.4767C13.126 23.6227 14.224 22.6873 15.2813 21.7113C15.8913 21.142 16.542 20.6133 17.1113 20.0847C17.2333 19.9627 17.274 19.8 17.3553 19.678C16.9893 19.4747 16.7047 19.556 16.3793 19.5967C15.444 19.7593 14.468 20.044 13.5327 20.2473C12.9633 20.3693 12.394 20.532 11.8653 20.6947C11.54 20.3287 11.6213 19.678 10.9707 19.7187C10.808 19.8813 10.9707 20.0033 10.9707 20.166C10.9707 20.2067 10.93 20.288 10.8893 20.3287C10.8487 20.3287 10.7267 20.3287 10.6453 20.3287C10.564 20.2473 10.442 20.2067 10.4013 20.1253C9.91333 19.4747 9.75067 18.7427 10.0353 18.0107C10.1573 17.482 10.564 17.116 11.052 16.8313C11.2147 16.6687 11.4587 16.628 11.5807 16.628C11.662 16.7093 11.7027 16.872 11.7433 16.9533C11.8247 16.9533 11.9873 16.9533 11.9873 16.9533C12.4347 16.384 13.0853 16.14 13.6953 16.018C14.6713 15.8147 15.5253 15.53 16.542 15.6927C16.664 15.7333 16.786 15.652 16.9487 15.5707C17.03 15.53 17.1927 15.4487 17.274 15.53C17.7213 15.6927 18.0873 15.4487 18.5347 15.3673C18.6567 15.286 18.7787 15.2453 18.9413 15.2453C19.958 15.286 20.934 15.0013 21.9913 14.9607C22.9267 14.9607 23.9433 14.92 24.9193 14.7573C25.4073 14.7167 25.936 14.7573 26.4647 14.798C26.8307 14.8387 27.156 15.042 27.4 15.3673C27.4813 15.4487 27.522 15.53 27.522 15.5707C27.3187 16.0993 27.7253 16.3027 28.0507 16.628C27.8067 16.7093 27.644 16.8313 27.522 16.9127C27.644 16.994 27.8067 17.0753 27.9287 17.1567C27.8067 18.092 27.1153 18.458 26.302 18.6207C25.7327 18.7427 25.082 18.7833 24.5127 18.9053C23.984 19.4747 23.7807 20.0847 23.4553 20.6947C22.7233 22.5247 21.9913 24.3953 21.3 26.3473C21.1373 26.6727 21.0153 27.12 20.8933 27.5267C20.8527 27.852 20.7307 28.096 20.6087 28.3807C20.568 28.462 20.4053 28.5433 20.4053 28.584C20.6087 29.3973 20.1207 30.0887 20.2833 30.902C20.0393 31.268 20.324 31.4713 20.4867 31.8373C20.324 32.122 20.1613 32.4473 19.958 32.6913C19.592 33.3013 18.982 33.464 18.2907 33.464C18.25 33.464 18.0467 33.2607 18.0467 33.1793C18.2093 32.488 17.8027 31.8373 17.9247 31.1053C17.9653 30.9427 17.9247 30.78 17.884 30.536C17.8027 30.4953 17.762 30.414 17.7213 30.414C17.64 30.414 17.518 30.4547 17.518 30.4953C17.518 31.268 17.2333 32 17.274 32.7727ZM4.586 18.7833C5.23667 17.238 5.318 15.7333 6.25333 14.5133C6.13133 14.31 6.25333 13.9847 5.88733 13.9033C5.76533 14.0253 5.562 14.1067 5.562 14.31C5.48067 14.92 5.11467 15.4487 4.99267 16.0587C4.91133 16.628 4.74867 17.1973 4.54533 17.8073C4.26067 18.092 4.42333 18.3767 4.586 18.7833ZM18.616 27.4047C18.2907 27.608 18.128 27.6893 18.128 27.7707C18.0467 28.096 17.9653 28.5027 17.9653 28.8687C17.9653 28.95 17.884 29.1127 18.0873 29.2347C18.25 28.6653 18.372 28.1773 18.616 27.4047ZM40.6281 22.484C40.9534 23.1753 40.7501 23.094 40.3028 23.2973C40.3841 23.5007 40.4654 23.704 40.3841 23.9073C40.2214 24.4767 39.9774 24.924 39.6521 25.534C39.5708 25.29 39.5301 25.29 39.5301 25.2087C39.4894 25.1273 39.4081 25.0867 39.4488 25.0053C38.9608 25.29 38.9608 25.29 39.3674 25.9813C38.9201 26.998 38.2288 27.8113 37.5781 28.584C37.4968 28.7467 37.3341 28.7873 37.2121 28.8687C37.1308 28.9093 36.9681 28.95 36.8868 29.1127C36.7648 29.2753 36.5208 29.3973 36.5208 29.6007C36.3174 30.0073 35.9108 30.2513 35.5448 30.4953C34.8941 31.0647 34.2028 31.4713 33.3894 31.7967C32.4948 32.122 31.6001 32.0813 30.6648 31.9593C30.5021 31.9187 30.5428 31.4713 30.2581 31.4307C29.9734 31.39 29.7294 31.2273 29.5261 31.146C28.9974 30.9427 28.7941 30.5767 28.8348 30.0887C28.8348 29.8447 28.6314 29.8447 28.5501 29.682C28.7128 29.6413 28.8754 29.6413 29.1194 29.6007C28.8754 29.316 28.4688 29.3567 28.2654 29.1533C28.0214 28.8687 28.0214 28.5433 27.9808 28.218C27.9401 27.3233 27.7774 26.388 27.8994 25.4933C28.0214 24.5173 28.0621 23.46 28.5094 22.5247C28.7128 21.9553 28.9568 21.386 28.9974 20.8573C29.0381 20.6947 29.0788 20.5727 29.1601 20.41C29.5668 19.8407 29.5668 19.1493 29.3634 18.5393C29.1194 17.6853 29.4041 16.9533 29.7294 16.14C29.9328 15.4893 30.3801 14.8793 30.8681 14.3507C31.3968 13.7407 32.0068 13.1307 32.7388 12.6833C33.1454 12.358 33.5928 12.0733 34.0401 11.9513C34.2841 11.9107 34.4468 11.8293 34.6094 11.748C35.4228 11.26 36.2768 11.1787 37.1308 11.4633C37.9848 11.6667 38.8388 11.9513 39.5301 12.5207C39.6928 12.6427 39.8148 12.7647 39.8148 12.846C39.8961 13.2933 40.4248 13.4153 40.5061 13.7407C40.6281 14.0253 40.8314 14.2693 40.8721 14.432C41.1974 15.3267 41.4008 16.262 41.4821 17.116C41.6041 18.0513 41.6448 18.946 41.4821 19.8407C41.4414 20.044 41.4821 20.288 41.4821 20.532C41.4414 20.7353 41.4414 20.9387 41.3194 21.0607C41.0754 21.3047 40.9534 21.63 40.9128 22.0367C40.8721 22.1587 40.6688 22.3213 40.6281 22.484ZM37.0088 21.386C36.7241 21.4267 36.6834 21.5893 36.6428 21.7927C36.5614 22.118 36.4801 22.24 36.1954 22.1587C36.1548 22.1587 36.0734 22.1993 35.9921 22.118C35.7481 22.0367 35.6668 22.118 35.5041 22.24C35.4634 22.362 35.3008 22.4027 35.1381 22.4433C34.8534 22.4027 34.5281 22.362 34.2028 22.2807C33.7554 22.1993 33.3488 22.118 32.9014 22.0367C32.5354 22.0367 32.3728 22.1587 32.3321 22.5247C32.2914 22.7687 32.2508 22.972 32.0881 23.1347C31.9254 23.2567 31.9254 23.3787 31.8848 23.46C31.8034 23.948 31.8034 24.436 31.7221 24.8833C31.6408 25.412 31.9254 25.9813 31.3561 26.3067C31.3561 26.3473 31.3561 26.388 31.3561 26.4287C31.6814 26.876 31.5594 27.4453 31.7221 27.9333C31.8441 28.1367 32.0474 28.218 32.2914 28.1367C33.0234 27.7707 33.6334 27.242 34.2434 26.7133C34.7721 26.2253 35.2194 25.6153 35.7481 25.1273C35.7888 25.046 35.8701 24.924 35.9108 24.8833C35.8294 24.558 36.0734 24.3547 36.1548 24.07C36.4394 23.5413 36.7241 22.972 36.9681 22.362C37.1308 22.118 37.0901 21.752 37.0088 21.386ZM36.7648 21.0607C37.0901 20.9793 37.2121 20.9793 37.2528 20.9793C37.6188 20.7353 37.8221 20.4507 37.8221 20.0847C37.8628 19.556 37.8221 19.0273 37.8221 18.5393C37.8221 17.726 37.7408 16.9533 37.4561 16.262C37.2934 15.8147 37.1714 15.408 36.7648 15.164C36.0328 15.0827 35.4228 15.4487 34.7721 15.5707C34.4061 15.6927 34.4061 16.1807 34.1214 16.4247C33.9994 16.5467 33.7961 16.6687 33.5928 16.7907C33.4301 16.994 33.3488 17.1567 33.1861 17.238C33.0234 17.6853 33.1861 18.0107 33.2674 18.4173C33.7554 18.2547 34.1214 18.458 34.5281 18.5393C34.9754 18.6207 35.3821 18.702 35.7888 18.7833C35.7888 19.068 35.7888 19.19 35.8294 19.3527C36.2361 19.5153 36.7241 19.19 37.0494 19.6373C37.2121 20.0847 37.0088 20.4913 36.7648 21.0607ZM38.9201 21.63C38.7574 21.7113 38.7168 21.7113 38.6761 21.6707C38.2694 22.5247 37.7814 23.2973 37.4154 24.1107C37.2934 24.2327 37.3341 24.4767 37.3341 24.6393C37.3748 24.7207 37.4561 24.7613 37.4561 24.802C37.4968 24.802 37.5781 24.7613 37.6188 24.7207C38.2694 23.7853 38.7574 22.8093 38.9201 21.63ZM40.4248 15.286C40.1401 15.408 39.8961 15.4487 39.6521 15.5707C39.6114 15.5707 39.5301 15.774 39.5301 15.8553C39.5708 15.9367 39.6114 16.018 39.6928 16.0587C39.9774 16.0993 40.2621 16.14 40.5468 16.1807C40.6688 16.1807 40.7094 16.018 40.6281 15.896C40.6281 15.7333 40.5874 15.5707 40.4248 15.286ZM36.7648 26.1033C36.7648 26.0627 36.6428 25.9 36.5614 25.9C36.2768 25.9 36.1954 26.0627 36.1141 26.3067C36.1141 26.3473 36.1548 26.4693 36.1954 26.4693C36.3581 26.5913 36.5614 26.51 36.7241 26.2253C36.7241 26.2253 36.7241 26.1847 36.7648 26.1033ZM33.1861 29.7633C33.2268 29.3973 32.9828 29.2347 32.6574 29.072C32.5761 29.072 32.4948 29.1533 32.4541 29.1533C32.4134 29.2347 32.4134 29.3567 32.4134 29.3567C32.6574 29.5193 32.9014 29.682 33.1048 29.8447C33.1454 29.8447 33.1454 29.804 33.1861 29.7633ZM55.8781 22.484C56.2034 23.1753 56.0001 23.094 55.5528 23.2973C55.6341 23.5007 55.7154 23.704 55.6341 23.9073C55.4714 24.4767 55.2274 24.924 54.9021 25.534C54.8208 25.29 54.7801 25.29 54.7801 25.2087C54.7394 25.1273 54.6581 25.0867 54.6988 25.0053C54.2108 25.29 54.2108 25.29 54.6174 25.9813C54.1701 26.998 53.4788 27.8113 52.8281 28.584C52.7468 28.7467 52.5841 28.7873 52.4621 28.8687C52.3808 28.9093 52.2181 28.95 52.1368 29.1127C52.0148 29.2753 51.7708 29.3973 51.7708 29.6007C51.5674 30.0073 51.1608 30.2513 50.7948 30.4953C50.1441 31.0647 49.4528 31.4713 48.6394 31.7967C47.7448 32.122 46.8501 32.0813 45.9148 31.9593C45.7521 31.9187 45.7928 31.4713 45.5081 31.4307C45.2234 31.39 44.9794 31.2273 44.7761 31.146C44.2474 30.9427 44.0441 30.5767 44.0848 30.0887C44.0848 29.8447 43.8814 29.8447 43.8001 29.682C43.9628 29.6413 44.1254 29.6413 44.3694 29.6007C44.1254 29.316 43.7188 29.3567 43.5154 29.1533C43.2714 28.8687 43.2714 28.5433 43.2308 28.218C43.1901 27.3233 43.0274 26.388 43.1494 25.4933C43.2714 24.5173 43.3121 23.46 43.7594 22.5247C43.9628 21.9553 44.2068 21.386 44.2474 20.8573C44.2881 20.6947 44.3288 20.5727 44.4101 20.41C44.8168 19.8407 44.8168 19.1493 44.6134 18.5393C44.3694 17.6853 44.6541 16.9533 44.9794 16.14C45.1828 15.4893 45.6301 14.8793 46.1181 14.3507C46.6468 13.7407 47.2568 13.1307 47.9888 12.6833C48.3954 12.358 48.8428 12.0733 49.2901 11.9513C49.5341 11.9107 49.6968 11.8293 49.8594 11.748C50.6728 11.26 51.5268 11.1787 52.3808 11.4633C53.2348 11.6667 54.0888 11.9513 54.7801 12.5207C54.9428 12.6427 55.0648 12.7647 55.0648 12.846C55.1461 13.2933 55.6748 13.4153 55.7561 13.7407C55.8781 14.0253 56.0814 14.2693 56.1221 14.432C56.4474 15.3267 56.6508 16.262 56.7321 17.116C56.8541 18.0513 56.8948 18.946 56.7321 19.8407C56.6914 20.044 56.7321 20.288 56.7321 20.532C56.6914 20.7353 56.6914 20.9387 56.5694 21.0607C56.3254 21.3047 56.2034 21.63 56.1628 22.0367C56.1221 22.1587 55.9188 22.3213 55.8781 22.484ZM52.2588 21.386C51.9741 21.4267 51.9334 21.5893 51.8928 21.7927C51.8114 22.118 51.7301 22.24 51.4454 22.1587C51.4048 22.1587 51.3234 22.1993 51.2421 22.118C50.9981 22.0367 50.9168 22.118 50.7541 22.24C50.7134 22.362 50.5508 22.4027 50.3881 22.4433C50.1034 22.4027 49.7781 22.362 49.4528 22.2807C49.0054 22.1993 48.5988 22.118 48.1514 22.0367C47.7854 22.0367 47.6228 22.1587 47.5821 22.5247C47.5414 22.7687 47.5008 22.972 47.3381 23.1347C47.1754 23.2567 47.1754 23.3787 47.1348 23.46C47.0534 23.948 47.0534 24.436 46.9721 24.8833C46.8908 25.412 47.1754 25.9813 46.6061 26.3067C46.6061 26.3473 46.6061 26.388 46.6061 26.4287C46.9314 26.876 46.8094 27.4453 46.9721 27.9333C47.0941 28.1367 47.2974 28.218 47.5414 28.1367C48.2734 27.7707 48.8834 27.242 49.4934 26.7133C50.0221 26.2253 50.4694 25.6153 50.9981 25.1273C51.0388 25.046 51.1201 24.924 51.1608 24.8833C51.0794 24.558 51.3234 24.3547 51.4048 24.07C51.6894 23.5413 51.9741 22.972 52.2181 22.362C52.3808 22.118 52.3401 21.752 52.2588 21.386ZM52.0148 21.0607C52.3401 20.9793 52.4621 20.9793 52.5028 20.9793C52.8688 20.7353 53.0721 20.4507 53.0721 20.0847C53.1128 19.556 53.0721 19.0273 53.0721 18.5393C53.0721 17.726 52.9908 16.9533 52.7061 16.262C52.5434 15.8147 52.4214 15.408 52.0148 15.164C51.2828 15.0827 50.6728 15.4487 50.0221 15.5707C49.6561 15.6927 49.6561 16.1807 49.3714 16.4247C49.2494 16.5467 49.0461 16.6687 48.8428 16.7907C48.6801 16.994 48.5988 17.1567 48.4361 17.238C48.2734 17.6853 48.4361 18.0107 48.5174 18.4173C49.0054 18.2547 49.3714 18.458 49.7781 18.5393C50.2254 18.6207 50.6321 18.702 51.0388 18.7833C51.0388 19.068 51.0388 19.19 51.0794 19.3527C51.4861 19.5153 51.9741 19.19 52.2994 19.6373C52.4621 20.0847 52.2588 20.4913 52.0148 21.0607ZM54.1701 21.63C54.0074 21.7113 53.9668 21.7113 53.9261 21.6707C53.5194 22.5247 53.0314 23.2973 52.6654 24.1107C52.5434 24.2327 52.5841 24.4767 52.5841 24.6393C52.6248 24.7207 52.7061 24.7613 52.7061 24.802C52.7468 24.802 52.8281 24.7613 52.8688 24.7207C53.5194 23.7853 54.0074 22.8093 54.1701 21.63ZM55.6748 15.286C55.3901 15.408 55.1461 15.4487 54.9021 15.5707C54.8614 15.5707 54.7801 15.774 54.7801 15.8553C54.8208 15.9367 54.8614 16.018 54.9428 16.0587C55.2274 16.0993 55.5121 16.14 55.7968 16.1807C55.9188 16.1807 55.9594 16.018 55.8781 15.896C55.8781 15.7333 55.8374 15.5707 55.6748 15.286ZM52.0148 26.1033C52.0148 26.0627 51.8928 25.9 51.8114 25.9C51.5268 25.9 51.4454 26.0627 51.3641 26.3067C51.3641 26.3473 51.4048 26.4693 51.4454 26.4693C51.6081 26.5913 51.8114 26.51 51.9741 26.2253C51.9741 26.2253 51.9741 26.1847 52.0148 26.1033ZM48.4361 29.7633C48.4768 29.3973 48.2328 29.2347 47.9074 29.072C47.8261 29.072 47.7448 29.1533 47.7041 29.1533C47.6634 29.2347 47.6634 29.3567 47.6634 29.3567C47.9074 29.5193 48.1514 29.682 48.3548 29.8447C48.3954 29.8447 48.3954 29.804 48.4361 29.7633ZM68.8101 29.9667C68.9728 30.292 68.9321 30.5767 68.8508 30.9427C68.4441 32.122 68.0781 33.342 67.6714 34.4807C67.2648 35.782 66.6954 36.9613 65.9634 38.0593C65.5161 38.7507 64.9874 39.32 64.3774 39.8487C64.2961 39.8893 64.2554 40.0113 64.1741 40.0113C63.9301 40.052 63.6454 39.93 63.4421 40.296C63.3201 40.4993 63.0354 40.5807 62.7914 40.662C62.4661 40.8247 62.1001 40.9873 61.6934 40.8247C61.4901 40.7027 61.2868 40.784 61.1241 40.7433C60.8801 40.7433 60.6361 40.7433 60.4328 40.662C59.6194 40.296 58.7248 40.0927 58.1554 39.2793C58.0741 39.198 57.9928 39.1167 57.9114 39.076C57.0574 38.588 56.4068 37.856 55.9188 37.0833C55.8374 36.9207 55.7154 36.7987 55.5934 36.758C55.1461 36.392 54.9428 35.9853 54.8208 35.416C54.8208 35.3753 54.7801 35.2533 54.7394 35.1313C54.5361 34.2773 54.8208 33.6673 55.6341 33.22C56.0001 32.976 56.2848 33.0573 56.5288 33.464C56.5288 33.464 56.5288 33.5453 56.5694 33.5453C56.6508 33.6673 56.7321 33.7893 56.8134 33.7893C56.8948 33.7487 56.9761 33.6673 56.9761 33.5453C57.0981 33.4233 57.0981 33.3013 57.1388 33.1387C57.8301 33.4233 58.1554 33.9113 58.5621 34.3993C59.3348 35.3347 60.1481 36.148 61.1241 36.7987C61.5308 37.124 61.6934 37.124 62.1001 36.7987C62.7508 36.2293 63.1168 35.4567 63.4421 34.7653C64.0114 33.5047 64.5808 32.2847 64.8654 30.9427C64.9874 30.536 65.1501 30.0887 65.3128 29.682C65.4348 29.3973 65.5161 29.072 65.3941 28.7467C65.1094 28.6653 64.9061 28.8687 64.6621 29.0313C64.0521 29.3973 63.2794 29.5193 62.5881 29.6007C62.1408 29.7227 61.6934 29.6007 61.2868 29.5193C60.4328 29.316 59.8228 28.8687 59.1721 28.3807C58.3588 27.7707 58.0334 26.754 57.8301 25.778C57.5861 24.5987 57.7488 23.3787 58.1554 22.24C58.4808 21.02 59.0501 19.922 59.8228 18.9053C60.4734 18.0107 61.2868 17.1973 62.0594 16.4653C62.2221 16.3027 62.3848 16.14 62.5881 16.0587C62.9134 15.9367 63.1574 15.7333 63.4014 15.53C64.0928 15.0013 64.8654 14.554 65.8008 14.554C65.9634 14.554 66.0448 14.4727 66.1668 14.3913C66.3294 14.31 66.5328 14.2693 66.6954 14.2693C67.5494 14.2287 68.4034 14.2693 69.2168 14.554C69.5014 14.6353 69.7861 14.7573 69.9894 14.8793C70.5994 15.2047 70.5994 15.2453 70.7214 16.018C71.1281 16.14 71.3314 15.6927 71.6974 15.652C71.8194 15.7333 71.9414 15.8147 72.0634 15.9367C72.4701 16.262 72.3888 16.8313 72.5921 17.238C72.7141 17.4413 72.5921 17.726 72.5514 18.0107C72.4701 18.2953 72.3888 18.5393 72.3481 18.8647C72.2668 19.0273 72.1448 19.2307 72.1854 19.3933C72.3888 20.166 71.8601 20.8167 71.6161 21.4673C71.4941 21.9553 71.2908 22.4433 71.1688 22.9313C70.7621 24.68 70.2741 26.4287 69.7454 28.1367L69.3794 29.1533C69.2168 29.438 69.0134 29.6413 68.8101 29.9667ZM61.4494 24.68C61.4494 25.5747 61.9781 25.9407 62.7101 25.6967C62.7508 25.656 62.7914 25.656 62.7914 25.6153C63.4421 25.3307 64.0521 24.9647 64.5808 24.5173C65.1908 24.0293 65.6381 23.3787 66.3294 22.972C66.4514 22.8907 66.4921 22.7687 66.5734 22.6467C66.6954 22.362 66.8581 22.118 67.0208 21.874C67.6714 21.02 68.0374 20.044 68.2001 18.946C68.2814 18.458 68.2001 18.336 67.7528 18.092C67.3868 18.0107 67.0614 18.0107 66.6548 18.092C66.1261 18.2953 65.6381 18.4987 65.1908 18.8647C64.3774 19.434 63.6454 20.166 63.0354 21.02C62.6694 21.5487 62.2628 22.118 61.9781 22.6873C61.6934 23.338 61.5714 24.1107 61.4494 24.68ZM65.7194 33.1387L65.9228 33.0167C66.1668 32.2033 66.4921 31.39 66.7768 30.536C67.1428 29.56 67.3461 28.462 67.9154 27.4453C67.9561 27.364 67.9968 27.242 67.9561 27.1607C67.9561 27.0793 67.8341 26.9573 67.7528 26.9167C67.6714 26.876 67.5494 26.9167 67.5088 26.998C67.3868 27.2013 67.2648 27.4453 67.1834 27.6893C66.8174 28.9093 66.5734 30.0887 66.1261 31.268C65.9634 31.5933 66.0041 32 65.7601 32.2847C65.8414 32.5287 65.5161 32.854 65.7194 33.1387ZM69.0948 28.5433C68.8101 28.9907 68.8101 28.9907 68.9321 29.316C69.0541 29.1127 69.2574 28.8687 69.0948 28.5433ZM80.8001 9.22667V9.10467C80.9221 8.576 82.0608 5.97333 82.4268 5.44467L83.2401 5.81067C83.4841 6.17667 83.5654 6.54267 83.4028 6.99C83.1181 7.43733 83.0774 7.478 82.4674 7.80333C82.7114 8.12867 82.9554 8.332 83.3214 8.65733C83.1181 9.22667 82.9148 9.796 82.6708 10.3653C82.5488 10.65 82.3454 10.65 82.1014 10.7313C81.6948 10.9347 81.6948 10.9347 82.0201 11.4227C82.0201 11.4633 82.0201 11.504 82.1014 11.5853L80.2714 16.2213L80.0274 16.994C79.7834 17.604 79.6614 18.214 79.4581 18.7833C79.2141 19.3527 79.1328 19.9627 78.8074 20.532C78.6854 20.9387 78.6041 21.386 78.5634 21.752C78.5634 22.24 78.2788 22.5247 77.9941 22.6873C78.1974 22.9313 78.3601 23.1753 78.2381 23.46C77.9128 24.6393 77.9128 25.9407 77.7094 27.2013C77.6688 27.486 77.8314 27.6893 77.9534 27.974C78.1161 28.462 78.1161 28.462 78.2788 28.5433C78.3601 28.5433 78.4008 28.6653 78.5228 28.706C78.5228 28.9907 78.4821 29.3973 78.6041 29.7227C78.7261 30.048 78.6448 30.4547 78.6854 30.8207C78.4414 31.1053 78.1568 31.3087 77.8721 31.5933C77.0994 32.244 75.9608 32.2033 75.3101 31.39C75.1474 31.1867 75.0254 31.0647 74.8628 30.8207C74.9441 30.6173 75.1068 30.536 75.1474 30.414C75.1881 30.292 75.1881 30.2107 75.1474 30.17C75.1068 30.1293 74.9441 30.048 74.9441 30.048C74.7408 30.2513 74.6188 30.4547 74.3748 30.536C73.8461 29.7227 73.6021 28.7873 73.6021 27.6893C73.6021 26.4287 73.7648 25.2493 73.9681 24.1107C74.2121 23.7447 74.6188 24.07 74.8628 23.704C74.6594 23.582 74.5374 23.5413 74.3341 23.4193C74.2528 23.338 74.1308 23.216 74.1714 23.1347C74.3748 22.3213 74.2528 21.4267 74.8628 20.6947C74.9441 20.654 74.9441 20.4913 74.9441 20.3693C74.7408 19.9627 74.9034 19.6373 75.0254 19.2307C75.3914 17.6853 75.9608 16.0993 76.5301 14.5133C76.6928 14.2287 76.9774 13.944 77.0181 13.7C77.0588 13.2933 77.0994 13.0087 77.2214 12.6833C77.3434 12.236 77.3434 12.236 77.9941 11.9513C77.8721 11.8293 77.8314 11.6667 77.7094 11.504C78.2788 9.674 79.1734 7.844 79.9461 6.05467C80.3528 6.014 80.6781 5.93267 80.8001 5.44467C80.8814 5.11933 81.0034 5.11933 81.6541 5.32267C81.4508 5.81067 81.3694 6.33933 81.1254 6.82733C80.4341 8.04733 80.0681 9.26733 79.5801 10.4873C79.1328 11.504 78.8888 12.5207 78.2381 13.3747C78.1974 13.4967 78.1161 13.6187 78.1568 13.7813C78.1568 14.2693 77.8721 14.798 77.6688 15.3267C77.3841 16.0993 77.1401 16.9127 76.8961 17.726C76.7741 18.0513 76.6928 18.336 76.5708 18.7427C76.4081 19.2307 76.0014 19.7187 76.1641 20.3693C76.2048 20.532 76.0421 20.776 76.0014 20.9793C75.8388 21.874 75.6761 22.7687 75.5134 23.7447C75.4728 23.826 75.5134 24.0293 75.5948 24.192C75.8388 24.07 75.8794 23.826 75.9201 23.6227C76.2454 21.508 76.8148 19.4747 77.4654 17.482C77.8721 16.1807 78.4008 14.8793 78.8074 13.7L79.8241 11.016C80.0681 10.6093 80.3121 10.162 80.5561 9.71467L80.6781 9.87733C80.8408 9.99933 81.0441 10.04 81.2068 9.83667C81.3288 9.59267 81.1661 9.47067 80.9628 9.308C80.8814 9.26733 80.8408 9.22667 80.8001 9.22667ZM86.9185 14.1067C87.1219 14.188 86.9999 14.432 87.1219 14.554C87.2845 14.6353 87.6505 14.5133 87.7725 14.31C87.8539 14.1067 87.7725 13.9033 87.8132 13.6187C88.3012 13.6187 88.8299 13.578 89.3179 13.6187C89.4805 13.6187 89.6839 13.7 89.8465 13.7813C90.0499 13.9033 90.2939 13.944 90.5785 13.8627C91.0259 13.822 91.5139 13.9847 91.9205 14.1067C92.1239 14.4727 92.3272 14.0253 92.4899 14.1473C92.7339 14.2693 92.8152 14.554 93.1812 14.554C93.3439 14.554 93.5879 14.6353 93.7505 14.7573C94.7265 15.2453 95.4992 15.9773 95.8652 17.0347C96.1092 17.604 96.2719 18.1733 96.2312 18.8647C96.1905 19.3527 96.1905 19.3527 95.7432 19.8407C95.8245 19.922 95.8652 20.044 95.9465 20.1253C95.9059 20.2067 95.9465 20.288 95.8652 20.3287C95.4585 21.1013 94.9299 21.7927 94.1979 22.3213C93.9945 22.4433 93.7912 22.6467 93.6285 22.6873C93.3032 22.8093 92.8559 22.8093 92.5712 23.0127C92.2459 23.216 91.9205 23.338 91.5952 23.4193C91.4325 23.338 91.3512 23.2567 91.2292 23.1753C90.7005 23.6633 90.7005 23.6633 90.1719 23.6633C89.7245 23.6633 89.3179 23.582 88.9112 23.3787C88.8705 22.8907 88.5045 23.1753 88.2199 23.1753C88.0572 23.094 87.8945 22.9313 87.6912 22.7687C87.5285 22.6873 87.4065 22.5247 87.2439 22.5247C86.7152 22.484 86.8372 22.118 86.7965 21.7927C86.5932 21.7927 86.4712 21.7927 86.3085 21.7927C86.2272 21.752 86.1865 21.7113 86.1865 21.7113C86.1052 21.5487 86.2272 21.264 85.9832 21.264C85.8612 21.264 85.6985 21.4267 85.6172 21.5487C85.4952 21.9553 85.3325 22.362 85.2512 22.8093C85.0885 23.46 84.9665 24.1107 84.8852 24.7613C84.8039 25.2493 84.8445 25.6967 84.9259 26.144C84.9665 26.5507 85.0479 26.998 85.0885 27.4453C85.4952 27.8113 85.9425 28.2587 86.4305 28.6653C86.5932 28.6653 86.8779 28.6247 87.1219 28.584C87.6505 28.5027 88.2605 28.5433 88.8299 28.2993C89.3179 28.0553 89.8465 28.0147 90.3752 27.73C90.8225 27.486 91.3512 27.3233 91.8392 27.0793C92.3679 26.7947 92.8559 26.51 93.3439 26.1847C94.0352 25.7373 94.7265 25.2493 95.3365 24.802C95.4992 24.68 95.6619 24.5987 95.8245 24.5173C95.9465 24.4767 96.1905 24.4767 96.2312 24.5173C96.5159 24.8427 96.8819 24.802 97.2479 24.802C97.3292 24.8427 97.4105 24.802 97.4919 24.802C98.1425 24.8833 98.2239 25.0053 98.1019 25.8187C98.2239 25.9 98.3865 25.9813 98.5492 26.1033C98.5085 27.3233 97.6139 28.0147 96.6785 28.5433C96.3125 28.7467 95.9872 28.7873 95.5805 28.9093C95.4585 29.072 95.2959 29.316 95.1739 29.5193C95.0519 29.7227 94.6045 29.2753 94.6045 29.7633C94.1979 30.1293 93.7505 30.414 93.3032 30.536C93.0999 30.5767 92.8965 30.6173 92.7745 30.6987C91.9612 31.268 91.0665 31.5527 90.1719 31.878C88.7485 32.3253 87.3659 32.4473 85.9019 32.2847C85.3325 32.2033 84.7632 31.9593 84.6412 31.268C84.6412 31.268 84.6005 31.2273 84.5599 31.1867C84.4379 31.146 84.3565 31.146 84.3159 31.268C84.2752 31.3493 84.2345 31.39 84.2345 31.4713C84.0719 31.5527 83.9499 31.4713 83.8279 31.39C83.5025 31.146 83.1772 30.9427 82.8519 30.658C82.6485 30.414 82.4452 30.17 82.2012 29.926C82.1605 29.804 82.0792 29.7227 82.0792 29.6413C81.7945 28.6653 81.1439 27.7707 81.2252 26.6727C81.2252 26.388 81.1439 26.1033 81.1032 25.8187C81.0625 24.6393 81.1439 23.3787 81.6725 22.24C81.7132 22.0773 81.7945 21.9147 81.7539 21.6707C81.7132 21.3453 81.7132 21.02 81.9979 20.7353C82.1605 20.5727 82.2419 20.288 82.3639 20.0847C82.1605 19.8407 82.3232 19.6373 82.4859 19.434C82.6079 19.2307 82.6892 18.946 82.6892 18.702C82.8519 18.2547 83.0145 17.8073 83.6245 17.6853C83.7059 17.6853 83.8279 17.4413 83.6652 17.36C83.5025 17.1567 83.5839 16.994 83.7059 16.872C83.8279 16.75 83.9905 16.628 84.1125 16.506C84.2345 16.4247 84.4379 16.3433 84.4379 16.2213C84.5599 15.53 85.1292 15.2047 85.5765 14.798C85.8612 14.5133 86.3085 14.3507 86.7152 14.1067C86.7559 14.1067 86.8372 14.1067 86.9185 14.1067ZM83.6245 20.166C83.2179 20.8167 83.1772 21.02 82.9332 22.2807C83.1365 22.3213 83.1772 22.1993 83.2179 22.0773C83.5025 21.4673 83.7059 20.8573 83.6245 20.166C83.8279 20.0847 84.0312 19.9627 84.0312 19.678C83.8279 19.6373 83.6245 19.6373 83.2585 19.556C83.4212 19.8407 83.5432 20.0033 83.6245 20.166ZM88.1385 17.6447C88.3825 18.0107 88.5452 18.3767 88.7079 18.7427C88.9519 19.2307 89.3585 19.5153 89.8059 19.8C89.9279 19.8407 90.0905 19.922 90.2125 19.8813C90.8632 19.7593 91.5545 19.5967 92.1239 19.1087C92.4492 18.7427 92.3272 18.1733 91.8392 17.9293C91.2699 17.6447 90.4972 17.6447 89.9279 17.1973C89.9279 17.1567 89.8059 17.1567 89.7245 17.1567C89.4399 17.2787 89.1552 17.238 88.9112 17.238C88.6265 17.238 88.4232 17.482 88.1385 17.6447ZM89.4399 14.7573C89.6432 14.7573 89.8465 14.5947 89.9279 14.3913C89.9279 14.3507 89.8872 14.2287 89.8465 14.2287C89.6025 14.1067 89.3585 14.2693 89.3179 14.5133C89.3179 14.554 89.3992 14.6353 89.4399 14.7573ZM85.1699 16.262C85.2919 16.506 85.2919 16.628 85.3732 16.7093C85.4952 16.872 85.6579 16.872 85.8205 16.75C85.9019 16.7093 85.9425 16.628 85.9425 16.5467C85.9425 16.506 85.9019 16.4247 85.8205 16.4247C85.6579 16.384 85.4952 16.3433 85.1699 16.262ZM87.4879 17.6447C87.5692 17.5633 87.6505 17.5633 87.6912 17.482C87.7725 17.3193 87.4879 16.9533 87.3252 16.994C87.2439 17.0347 87.2439 17.1567 87.2439 17.1973C87.3252 17.36 87.4065 17.482 87.4879 17.6447ZM82.9332 23.2567C82.8112 23.1753 82.7705 23.1347 82.6892 23.094C82.6079 23.094 82.4859 23.1753 82.4452 23.1753C82.3639 23.2567 82.5265 23.5007 82.6892 23.46C82.7299 23.46 82.8112 23.3787 82.9332 23.2567ZM19.104 77.122C19.0227 76.878 18.982 76.634 18.9413 76.3493C18.616 76.5527 18.3313 76.6747 18.616 77C18.6973 77.0813 18.6567 77.2847 18.5753 77.4067C18.372 77.7727 17.9653 77.976 17.8027 77.854C17.5587 77.7727 17.396 77.5287 17.3553 77.2847C17.274 76.8373 17.274 76.4307 17.4367 76.024C17.4773 75.78 17.4773 75.536 17.4773 75.3327C17.4773 75.2513 17.3553 75.2107 17.2333 75.1293C17.1113 75.048 16.9893 75.2107 16.9487 75.3327C16.908 75.6173 16.8267 75.902 16.786 76.1867C16.7453 76.3087 16.7453 76.4713 16.7047 76.634C16.542 76.7153 16.3387 76.756 16.176 76.8373C16.1353 76.7967 16.054 76.756 16.054 76.6747C15.8913 75.9427 15.81 75.17 15.9727 74.4787C15.9727 73.95 16.0133 73.4213 16.054 72.8113C16.0133 72.5267 16.1353 72.242 16.2167 71.9573C16.298 71.9167 16.3387 71.7947 16.298 71.6727C16.2573 71.3067 16.298 70.8593 16.5827 70.4933C16.42 70.29 16.7047 70.2087 16.7047 69.9647C16.7453 69.8833 16.6233 69.68 16.5827 69.5173C16.5827 69.2733 16.6233 69.0293 16.9487 68.9073C17.03 68.8667 17.1113 68.7853 17.2333 68.704C17.4773 68.46 17.3553 68.1347 16.9487 68.0533C16.5827 67.9313 16.176 67.972 15.7287 68.0533C14.8747 68.2973 14.0207 68.46 13.2073 68.6227C12.8413 68.6633 12.516 68.7853 12.15 68.8667C11.8653 68.948 11.5807 68.9887 11.2147 69.0293C10.9707 69.0293 10.7673 68.9887 10.564 69.2327C10.5233 69.2327 10.442 69.2733 10.3607 69.2733C9.42533 69.314 9.30333 69.5987 8.978 70.3713C8.93733 70.5747 8.77467 70.7373 8.44933 70.778C8.32733 70.778 8.28667 70.8593 8.32733 70.9813C8.49 71.2253 8.44933 71.4287 8.32733 71.5913C8.124 71.998 8.002 72.3233 7.758 72.6893C7.758 72.7707 7.67667 72.852 7.67667 72.9333C7.59533 73.4213 7.31067 73.8687 7.06667 74.2347C6.904 74.7227 6.74133 75.1293 6.61933 75.536C6.45667 75.5767 6.33467 75.658 6.21267 75.7393C6.172 75.9833 6.538 76.2273 6.13133 76.39C6.09067 76.634 5.928 76.878 5.96867 77.122C6.00933 77.366 5.96867 77.488 5.72467 77.5693C5.60267 77.61 5.48067 77.8133 5.48067 77.854C5.44 78.342 5.03333 78.4233 4.586 78.464C4.42333 78.4233 4.22 78.2607 4.17933 78.1793C4.17933 77.9353 4.13867 77.6913 4.098 77.488C4.098 77.3253 4.05733 77.122 3.93533 77.0407C3.93533 76.9593 3.89467 76.9187 3.732 76.8373C3.732 77.122 3.69133 77.366 3.65067 77.5287C3.61 77.6913 3.52867 77.7727 3.40667 77.854C3.28467 78.0167 2.91867 78.0167 2.83733 77.854C2.512 77.3253 2.30867 76.9187 2.512 76.3087C3 75.1293 3.366 73.95 3.81333 72.8113C3.976 72.364 4.22 71.9573 4.42333 71.5507C4.586 71.3473 4.66733 71.0627 4.74867 70.7373C3.77267 70.4933 2.95933 70.9813 2.146 70.8593C2.10533 70.534 2.55267 70.412 2.30867 70.046C2.22733 70.046 2.146 70.0053 2.10533 70.0867C1.82067 70.1273 1.658 70.2493 1.45467 70.3307C1.414 70.3307 1.21067 70.29 1.21067 70.2493C1.21067 70.2087 1.21067 70.1273 1.25133 70.0053C1.33267 69.8833 1.37333 69.802 1.49533 69.68C1.414 69.6393 1.37333 69.5173 1.25133 69.3953C0.885333 69.1107 0.926 68.7447 1.21067 68.3787C1.49533 68.0127 1.82067 67.6467 2.39 67.606C3.61 67.484 4.78933 67.0773 6.05 66.874C6.57867 66.752 6.94467 66.5487 7.18867 66.0607C7.35133 65.6947 7.514 65.3287 7.758 65.044C7.92067 64.8 8.08333 64.7593 8.20533 64.5967C8.32733 64.434 8.28667 64.2307 8.368 63.9867C8.40867 63.824 8.53067 63.6207 8.69333 63.4173C9.42533 62.1973 10.1573 60.9367 10.93 59.798C11.784 58.3747 12.76 56.992 13.6547 55.65C14.7933 53.9827 16.054 52.3153 17.3553 50.7293C18.0467 49.8753 18.6973 49.062 19.47 48.2487C20.202 47.5167 20.934 46.7033 21.7067 46.012C22.276 45.5647 22.9267 45.1987 23.6587 45.0767C23.984 45.1173 24.106 45.28 24.3907 45.2393C24.838 45.158 25.1633 45.3613 25.448 45.646C25.57 45.768 25.7327 46.012 25.9767 46.134C26.0173 46.622 26.424 47.0693 26.302 47.598C26.18 47.8827 26.2207 48.208 26.18 48.452C25.8547 48.696 26.18 48.9807 25.8953 49.306C25.8547 49.428 25.8547 49.55 25.8547 49.7127C25.936 49.794 25.8953 49.8753 25.8953 49.916C25.692 50.0787 25.4887 50.2007 25.448 50.404C25.3667 50.526 25.5293 50.77 25.57 50.9327C25.57 50.9733 25.57 51.014 25.57 51.0547C25.3667 51.746 25.204 52.478 24.96 53.1693C24.7973 53.7793 24.5533 54.3487 24.3907 54.918C24.3093 55.4467 23.9027 55.8533 23.862 56.4227C23.862 56.9513 23.618 57.358 23.4553 57.846C23.2927 58.2933 23.1707 58.7407 22.9673 59.31C22.886 59.5947 22.886 59.92 22.6013 60.2047C22.52 60.2047 22.52 60.3267 22.52 60.3673C22.6827 60.8147 22.398 61.14 22.3167 61.5873C22.0727 62.4007 21.8287 63.1733 21.5847 64.0273C21.3 65.166 21.0967 66.3453 20.7307 67.5247C20.2833 69.1513 20.08 70.9 19.7953 72.608C19.6733 73.096 19.6327 73.6653 19.6327 74.194C19.592 74.5193 19.47 74.804 19.3073 75.0887C19.5513 75.6173 19.6733 76.0647 19.4293 76.6747C19.3887 76.8373 19.4293 77.0407 19.104 77.122ZM21.4627 51.4207C21.3 51.5833 21.178 51.7053 21.056 51.7867C20.446 52.5187 19.9173 53.1693 19.3073 53.942C18.982 54.3893 18.7787 54.8367 18.2093 55.04C18.1687 55.1213 18.0467 55.2027 18.0467 55.2027C18.0873 55.4873 17.884 55.65 17.7213 55.894C17.518 56.0973 17.274 56.3413 17.2333 56.626C17.152 56.87 16.9893 57.0733 16.8267 57.2767C16.4607 57.7647 16.0947 58.2933 15.81 58.8627C15.1187 59.8793 14.346 60.9367 13.736 62.0753C13.248 62.8887 12.638 63.702 12.15 64.5153C12.0687 64.7593 11.9873 64.9627 11.906 65.2473C11.8653 65.288 11.9873 65.41 12.028 65.4507C12.15 65.4913 12.2313 65.4507 12.3533 65.41C13.248 65.2067 14.102 65.044 14.9967 64.8813C15.7287 64.678 16.4607 64.6373 17.2333 64.556C17.5587 64.5153 17.762 64.3933 17.8027 64.1087C18.0873 63.0513 18.4127 61.994 18.738 60.896C18.86 60.408 18.9413 59.92 19.1853 59.4727C19.47 58.944 19.3887 58.334 19.6327 57.846C19.714 57.602 19.7953 57.3173 19.8767 57.0733C19.9173 56.9107 20.0393 56.6667 20.1207 56.4227C20.324 55.8127 20.4867 55.162 20.69 54.5113C20.7713 54.3487 20.8527 54.1047 21.0153 53.9827C21.056 53.82 21.2187 53.7387 21.3 53.698C21.1373 53.1693 21.1373 53.1693 21.5033 52.9253C21.6253 52.844 21.7067 52.844 21.788 52.7627C21.8287 52.6813 21.91 52.5593 21.8287 52.5187C21.788 52.478 21.6253 52.4373 21.544 52.356C21.422 52.112 21.788 51.7867 21.4627 51.4207ZM19.2667 64.5153C19.3073 64.4747 19.3887 64.3527 19.4293 64.2713C19.714 63.1327 19.9173 61.994 20.446 60.9367C20.4867 60.896 20.4867 60.8553 20.4867 60.8147C20.6087 59.7573 21.056 58.822 21.3813 57.7647C21.5847 56.8293 21.9507 55.8533 22.276 54.8367C22.6827 53.82 23.008 52.7627 23.2927 51.746C23.5367 51.0953 23.6587 50.404 23.7807 49.794C23.862 49.672 23.6993 49.4687 23.5773 49.5093C23.496 49.55 23.4147 49.5907 23.3333 49.672C23.252 49.794 23.13 49.8347 23.252 50.038C23.5367 50.404 23.2927 50.648 23.13 50.9733C22.9673 51.258 22.886 51.5833 22.7233 51.9087C22.6013 51.99 22.6827 52.2747 22.6827 52.478C22.7233 52.5187 22.6013 52.6407 22.6013 52.7627C22.1133 54.43 21.422 56.016 20.9747 57.7647C20.9747 57.8867 20.8933 58.09 20.812 58.212C20.5273 58.456 20.5273 58.822 20.4867 59.1473C20.446 59.5947 20.1207 60.042 20.1207 60.53C19.714 60.9773 19.9173 61.506 19.714 61.9533C19.5107 62.3193 19.592 62.848 19.1853 63.092C19.1853 63.336 19.226 63.58 19.226 63.7833C19.2667 64.0273 18.9413 64.2713 19.2667 64.5153ZM18.4533 68.0127C18.4533 68.0127 18.4533 67.972 18.4127 67.972C18.372 67.972 18.25 67.972 18.25 68.0127C17.8027 68.582 17.9653 69.314 17.9653 69.9647C17.9653 69.9647 18.0467 70.0867 18.0873 70.046C18.1687 70.046 18.25 69.9647 18.25 69.924C18.2907 69.3547 18.4533 68.7853 18.494 68.216C18.4533 68.1347 18.4533 68.0533 18.4533 68.0127ZM17.9247 70.534C17.762 70.9407 17.2333 71.3067 17.5587 71.8353C18.006 71.388 18.006 71.388 17.9247 70.534ZM35.2893 77.0407C34.842 76.7153 34.964 76.268 34.9233 75.902C34.8013 75.0887 34.842 75.0887 34.476 74.804C34.354 75.3327 34.2727 75.8207 34.1507 76.268C33.9067 76.3493 33.866 76.2273 33.8253 76.0647C33.5 75.414 33.378 74.682 33.3373 73.95C33.3373 73.0553 33.2967 72.1607 33.5 71.3067C33.5 71.2253 33.378 71.1033 33.3373 70.9813C33.256 71.0627 33.134 71.0627 33.0933 71.144C32.2393 72.0387 31.426 72.9333 30.45 73.6653C30.4093 73.7467 30.2873 73.8687 30.2467 73.95C29.352 74.926 28.2133 75.6173 27.0747 76.3493C26.5867 76.634 26.0173 76.6747 25.4073 76.878C25.3667 76.878 25.2853 76.878 25.204 76.878C24.106 76.634 23.1707 76.0647 22.4387 75.2107C22.4387 75.17 22.398 75.1293 22.398 75.0887C22.3167 74.926 22.276 74.7633 22.2353 74.56C22.1947 74.438 22.0727 74.2753 22.1133 74.1533C22.2353 73.5433 21.7473 73.0147 21.8693 72.4453C21.8693 72.2827 21.8693 72.0793 21.9507 71.9167C21.9913 71.5507 22.0727 71.266 22.154 70.9C22.276 70.6153 22.7233 70.778 22.8047 70.412C22.6827 70.29 22.52 70.168 22.3573 70.046C22.4387 69.68 22.52 69.3953 22.6013 69.1107C22.642 68.8667 22.7233 68.6633 22.764 68.46C23.252 67.5247 23.5773 66.4673 24.106 65.5727C24.3907 65.044 24.6753 64.5153 25.0007 64.0273C25.2853 63.58 25.692 63.1327 26.058 62.6447C26.2613 62.8073 26.0987 62.9293 26.1393 63.0513C26.18 63.1327 26.2613 63.1733 26.3427 63.1733C26.3833 63.1733 26.5053 63.1733 26.546 63.1327C26.5867 62.97 26.5867 62.8887 26.6273 62.726C26.668 62.6447 26.546 62.36 26.3833 62.1567C26.546 61.872 26.7493 61.75 27.0747 61.8313C27.4 61.9127 27.4813 61.7093 27.278 61.3027C27.4813 61.0993 27.6847 60.8553 27.9287 60.6113C28.0913 60.3673 28.376 60.164 28.7013 60.042C28.8233 60.0013 28.9453 59.7573 29.0267 59.6353C29.9213 59.0253 30.8973 58.5373 31.914 58.1713C31.914 58.1713 32.036 58.1713 32.1173 58.1713C33.134 58.212 34.1507 58.212 35.086 58.822C35.3707 59.0253 35.696 59.2287 35.9807 59.4727C36.306 59.1067 36.5093 58.7 36.6313 58.2933C37.4447 56.1787 38.502 54.186 39.5187 52.234C39.6407 51.99 39.8033 51.7867 39.966 51.624C40.1287 51.6647 40.2507 51.6647 40.4133 51.6647C40.576 51.38 40.1693 51.2987 40.2507 51.014C40.698 50.0787 41.3893 49.2247 42.04 48.33C42.3653 47.9233 42.894 47.7607 43.382 47.5573C43.4633 47.5573 43.5447 47.6387 43.626 47.72C43.6667 47.7607 43.6667 47.8827 43.6667 47.9233C43.5853 48.0453 43.504 48.1673 43.4633 48.33C42.9753 48.8993 42.528 49.5093 42.2027 50.282C42.162 50.404 42.0807 50.4853 42.04 50.648C40.7387 52.6 40.0473 53.9827 38.746 56.626C38.0547 58.09 37.4447 59.6353 36.916 61.2213C36.916 61.3027 36.8753 61.4247 36.8753 61.4247C36.916 61.506 36.9567 61.628 36.9973 61.7093C37.038 61.7093 37.16 61.6687 37.16 61.5873C37.3227 61.1807 37.6073 60.774 37.6887 60.286C38.0953 59.0253 38.6647 57.8053 39.1933 56.626C39.6407 55.65 40.1287 54.7553 40.576 53.8607C40.698 53.6167 40.9827 53.6167 41.064 53.4133C41.064 53.2507 41.064 53.0473 41.1453 52.8847C41.552 52.2747 41.7553 51.4207 42.4467 51.014C42.4873 50.9327 42.528 50.8513 42.528 50.8107C42.5687 50.648 42.5687 50.4447 42.6907 50.3227C43.0973 49.672 43.5447 49.0213 44.0327 48.4113C44.1547 48.2487 44.358 48.1267 44.48 47.964C45.0087 48.0047 45.0087 48.6147 45.456 48.7367C45.334 48.9807 45.2527 49.2247 45.1713 49.3873C45.0087 49.7127 45.0493 49.9567 45.3747 50.16C45.0087 50.8107 44.602 51.3393 44.1547 51.868C43.9107 52.234 43.6667 52.6407 43.4227 53.0473C43.3007 53.088 43.0973 53.0473 42.9753 53.088C42.7313 53.1693 42.5687 53.3727 42.65 53.4947C42.772 53.5353 42.9753 53.5353 43.138 53.576C42.8533 54.064 42.6093 54.552 42.3653 54.9993C41.9587 55.8127 41.552 56.626 41.1453 57.48C40.942 57.8867 40.698 58.2527 40.21 58.3747C40.1287 58.3747 40.1287 58.456 40.088 58.5373C40.21 58.6593 40.332 58.7813 40.4947 58.944C40.2507 59.554 39.966 60.2047 39.722 60.8553C39.5187 61.3433 39.1933 61.75 39.1933 62.3193C38.6647 63.336 38.5427 64.434 38.258 65.5727C37.7293 67.362 37.4853 69.192 37.282 71.0627C37.2413 71.998 37.2413 72.852 37.2413 73.7467C37.2413 74.0313 37.2413 74.3973 37.2413 74.7227C37.282 75.2107 37.404 75.7393 37.038 76.1053C36.672 76.512 36.2247 76.8373 35.696 76.9593C35.5333 77 35.3707 77 35.2893 77.0407ZM24.6347 67.8093C24.35 68.0533 24.0653 68.2567 24.0247 68.6633C23.984 69.192 23.618 69.7207 23.9027 70.3307C24.3907 69.5987 24.5533 68.704 24.716 67.8907C24.96 67.6467 25.1633 67.4027 25.204 66.996C24.96 67.0773 24.6753 67.118 24.472 67.1587C24.1873 67.24 24.0247 67.362 24.106 67.4433C24.1873 67.5653 24.35 67.606 24.472 67.6873C24.5127 67.6873 24.594 67.728 24.6347 67.8093ZM31.0193 67.728C31.426 67.24 31.914 66.752 32.402 66.264C32.5647 66.0607 32.8493 65.9387 32.9713 65.5727C33.0527 65.3287 33.2967 65.288 33.5 65.166C33.9067 64.9627 34.0693 64.6373 33.9067 64.2307C33.8253 63.9867 33.5 63.824 33.8253 63.5393C33.8253 63.5393 33.8253 63.458 33.7847 63.458C33.3373 63.3767 33.378 63.0107 33.2967 62.726C33.1747 62.4413 33.134 62.116 32.768 61.9533C32.0767 62.116 31.426 62.4007 30.938 62.97C30.816 63.1327 30.6533 63.2547 30.5313 63.3767C30.2873 63.6207 29.962 63.7833 29.7587 63.946C29.474 64.1493 29.352 64.556 29.108 64.8C28.8233 65.1253 28.62 65.4507 28.4167 65.776C28.0913 66.3453 27.766 66.8333 27.2373 67.118C27.1967 67.4027 27.278 67.6873 27.156 67.8907C26.8713 68.6227 26.546 69.2733 26.2207 70.046C25.936 70.656 25.814 71.388 25.814 72.12C25.814 72.242 25.8547 72.3233 25.936 72.486C26.0987 72.4047 26.2207 72.4047 26.3427 72.2827C27.0747 71.632 27.8067 70.9813 28.5387 70.29C29.1487 69.68 29.7587 69.1107 30.328 68.5007C30.5313 68.216 30.816 68.1753 31.0193 68.094C31.0193 67.9313 31.0193 67.85 31.0193 67.728ZM31.1007 59.2287C31.1007 59.31 31.1413 59.432 31.2227 59.5133C31.2227 59.5133 31.3853 59.5947 31.426 59.5947C31.4667 59.5133 31.5887 59.3913 31.6293 59.2693C31.7107 59.1067 31.6293 58.9847 31.5073 58.9033C31.426 58.822 31.182 58.8627 31.1413 59.0253C31.1007 59.0253 31.1007 59.1067 31.1007 59.2287ZM27.9693 63.7427C27.9287 63.7833 27.9287 63.824 27.9287 63.824C27.888 63.8647 27.888 63.8647 27.9287 63.9053C28.0913 64.1493 28.3353 64.312 28.62 64.2713C28.6607 64.2713 28.742 64.1493 28.742 64.1087C28.62 63.8647 28.2133 63.702 27.9693 63.7427ZM43.992 50.404C44.1547 50.526 44.1953 50.6073 44.236 50.6073C44.4393 50.77 44.602 50.7293 44.724 50.5667C44.724 50.4853 44.7647 50.3227 44.724 50.3227C44.602 50.2413 44.4393 50.2007 44.358 50.2007C44.2767 50.2413 44.1953 50.3227 43.992 50.404ZM25.0413 75.8207C24.8787 75.8207 24.716 75.902 24.7567 76.0647C24.7973 76.2273 24.8787 76.3493 25.082 76.3493C25.1633 76.3087 25.204 76.2273 25.2853 76.146C25.326 75.9833 25.204 75.8613 25.0413 75.8207ZM24.7567 66.3047C25.0007 66.3453 25.1633 66.386 25.3667 66.386C25.4073 66.386 25.5293 66.264 25.5293 66.264C25.4887 66.1827 25.448 66.0607 25.3667 66.02C25.1227 65.898 24.8787 66.02 24.7567 66.3047ZM34.3133 63.702C34.232 64.1087 34.0287 64.3527 34.3133 64.5967C34.3133 64.6373 34.3947 64.5967 34.4353 64.556C34.6387 64.312 34.4353 64.068 34.3133 63.702ZM33.2967 67.5247C33.378 67.4027 33.5813 67.3213 33.6627 67.1993C33.744 67.118 33.6627 66.996 33.6627 66.874C33.5813 66.9147 33.5 66.874 33.4593 66.9147C33.3373 67.0367 33.256 67.24 33.134 67.3213C33.134 67.362 33.1747 67.4027 33.1747 67.4027C33.2153 67.4433 33.2153 67.484 33.2967 67.5247ZM28.4573 61.7093C28.9047 61.506 29.0267 61.3027 29.1893 61.0587C28.742 60.9367 28.62 61.262 28.4573 61.7093ZM35.696 60.652C35.696 60.5707 35.6553 60.4893 35.574 60.4487C35.574 60.408 35.5333 60.408 35.4927 60.4487C35.2893 60.4893 35.2487 60.652 35.2487 60.8553C35.2487 60.896 35.3707 60.9367 35.3707 60.896C35.4927 60.8553 35.6147 60.7333 35.696 60.652ZM31.0193 60.3267C31.0193 60.4893 31.304 60.652 31.426 60.6113C31.4667 60.5707 31.5073 60.4893 31.5073 60.4893C31.548 60.3267 31.4667 60.164 31.3447 60.164C31.2227 60.164 31.1007 60.2453 31.0193 60.3267ZM25.2853 65.3287C25.4887 65.288 25.6513 65.2473 25.7327 65.2067C25.6513 65.0847 25.6513 64.922 25.5293 64.8813C25.3667 64.8 25.2447 64.9627 25.204 65.1253C25.204 65.166 25.2853 65.2473 25.2853 65.3287ZM51.3978 55.7313C51.3571 55.894 51.3571 56.0973 51.3164 56.3413C51.8858 56.4633 52.4144 56.8293 53.0651 56.748C53.2278 56.382 52.8211 56.26 52.8211 55.9753C52.8211 55.894 52.8211 55.8533 52.8618 55.8127C53.1058 55.406 53.4311 55.1213 53.7564 54.7553C53.9191 55.0807 54.1631 55.4467 54.3664 55.894C54.4478 55.7313 54.4884 55.6093 54.5698 55.4467C54.7731 55.65 54.6918 55.894 54.6511 56.016C54.5291 56.3413 54.7731 56.4227 54.8544 56.5853C54.7731 57.2767 54.4478 57.846 54.0004 58.334C53.5938 58.7813 53.2684 59.2693 52.9431 59.7573C52.0484 61.14 51.2351 62.5633 50.2591 63.9053C49.8931 64.434 49.6898 65.0847 49.4051 65.654C48.9984 66.4267 48.8358 67.2807 48.2258 67.972C48.1851 68.582 47.7378 69.1107 47.5751 69.7613C47.4124 70.2493 47.1684 70.6967 46.9651 71.1847C46.8838 71.3067 46.8024 71.4287 46.7618 71.5913C46.5584 72.8113 45.9078 73.9093 45.4198 75.0887C45.3384 75.3327 45.2164 75.658 44.9724 75.78C44.6878 75.9427 44.5658 76.268 44.2811 76.4713C44.1591 76.5933 43.9558 76.6747 43.7524 76.7967C43.2644 77 42.7358 77 42.3291 76.5933C42.2071 76.512 42.0851 76.39 41.9224 76.3493C40.9464 76.024 40.7024 75.2107 40.6618 74.2753C40.6211 74.194 40.7024 74.0313 40.6618 73.9907C40.4584 73.7467 40.4178 73.462 40.4178 73.1773C40.4178 72.4047 40.3771 71.6727 40.3771 70.9407C40.3771 70.778 40.5398 70.6153 40.6211 70.4527C40.2551 69.9647 40.1331 69.3953 40.2144 68.826C40.2551 68.2973 40.2551 67.7687 40.6618 67.3213C40.0111 66.7113 40.4991 66.1827 40.7024 65.5727C40.5398 65.3287 40.3771 65.0847 40.4178 64.7187C40.4584 64.2713 40.4584 63.824 40.5398 63.4173C40.7024 62.604 40.6211 61.7093 40.6618 60.896C40.6618 60.6113 40.7838 60.286 40.8651 59.9607C40.9871 59.7573 41.1904 59.554 41.4344 59.4727C41.7191 59.3913 41.8818 59.2693 42.1664 59.188C42.4104 59.31 42.1664 59.554 42.2478 59.7573C42.3291 59.9607 42.3291 60.2047 42.3291 60.408C42.3291 60.5707 42.4104 60.7333 42.4511 60.774C42.4918 60.896 42.6138 60.9367 42.6544 60.9367C42.7358 60.896 42.8578 60.774 42.8578 60.7333C42.8171 60.2453 43.0204 59.7573 43.1424 59.066C43.2644 59.2693 43.2644 59.3507 43.3051 59.432C44.1591 60.042 44.3624 60.896 44.2811 61.8313C44.2404 63.3767 44.1998 64.922 44.0778 66.4673C44.0371 66.7113 44.0778 66.996 43.8338 67.24C43.7524 67.362 43.7931 67.484 43.8744 67.5247C43.9964 67.6467 44.1591 67.6873 44.2811 67.5653C44.4031 67.4433 44.5251 67.3213 44.6064 67.118C44.7284 66.7113 44.8911 66.3047 45.2164 66.02C45.2978 65.9387 45.4198 65.8167 45.4198 65.7353C45.2978 65.0847 45.7451 64.6373 45.9484 64.1087C46.0704 63.824 46.1924 63.58 46.4771 63.4173C46.5584 63.336 46.6398 63.214 46.6398 63.1327C46.6398 62.3193 47.2498 61.75 47.6158 61.0993C47.9004 60.408 48.3478 59.8387 48.7544 59.2287C48.9578 58.8627 49.2018 58.5373 49.4051 58.212C49.9338 57.358 50.5438 56.6667 51.1538 55.894C51.2351 55.8533 51.3571 55.8127 51.4384 55.7313H51.3978ZM45.2164 69.3953C44.9724 69.436 44.8098 69.558 44.7284 69.8427C44.7284 70.046 44.6064 70.3307 44.5658 70.534C44.4031 71.022 44.2404 71.51 44.1184 71.998C44.0778 72.12 44.1591 72.2827 44.1998 72.608C44.4031 72.12 44.4844 71.8353 44.6878 71.51C45.0538 70.8593 45.1351 70.168 45.2164 69.436C45.7044 68.7853 45.7044 68.7853 45.7451 68.2567C45.2164 68.46 45.2164 68.948 45.2164 69.3953ZM46.6398 65.6133C47.0058 65.0847 47.3718 64.6373 47.6971 64.1493C47.6971 64.1087 47.6971 64.068 47.6971 63.946C47.6158 63.946 47.4531 63.9053 47.4124 63.9867C47.0871 64.312 46.7211 64.7187 46.5991 65.2067C46.5991 65.288 46.5991 65.41 46.6398 65.6133ZM48.5918 62.238C48.6731 62.1973 48.7138 62.1567 48.7544 62.1567C48.9578 61.7907 49.1611 61.506 49.6898 61.6687C49.6898 61.6687 49.7711 61.506 49.7304 61.4247C49.7304 61.384 49.6898 61.3027 49.6084 61.3027C49.3238 61.2213 49.0798 61.2213 48.7951 61.384C48.5511 61.5873 48.4698 61.8313 48.5918 62.238ZM42.7358 63.6613C42.6544 63.6207 42.6138 63.5393 42.5324 63.5393C42.3291 63.5393 42.1258 63.7833 42.2478 63.9867C42.2884 64.0273 42.3291 64.1087 42.4104 64.068C42.6138 64.0273 42.7358 63.824 42.7358 63.6613ZM46.1518 66.996C46.1924 66.996 46.1924 67.0773 46.2738 67.118C46.3551 66.996 46.4771 66.9553 46.5991 66.8333C46.6804 66.752 46.7211 66.5893 46.6398 66.508C46.5584 66.386 46.3958 66.4673 46.2738 66.5893C46.2331 66.7113 46.1924 66.874 46.1518 66.996ZM46.2331 65.4913C46.3144 65.288 46.2738 65.1253 46.1518 65.0847C46.0704 65.0847 45.9484 65.1253 45.9484 65.166C45.8264 65.3287 45.8264 65.4913 46.0298 65.5727C46.0704 65.5727 46.1924 65.532 46.2331 65.4913ZM51.5604 60.3673V60.286C51.4791 60.2453 51.4384 60.164 51.3571 60.0827C51.2758 60.2047 51.1944 60.2453 51.1538 60.286C51.1538 60.3673 51.1944 60.4893 51.2351 60.6113C51.2351 60.652 51.2758 60.6927 51.3164 60.6927C51.3571 60.652 51.4791 60.6113 51.4791 60.6113C51.5198 60.53 51.5198 60.4487 51.5604 60.3673ZM51.3978 55.7313H51.4384C51.4384 55.4873 51.5198 55.3247 51.7231 55.2027C52.0078 54.9587 52.3738 54.8367 52.6584 54.674C52.9431 54.796 52.8211 54.9587 52.6991 55.04C52.4144 55.406 52.0484 55.7313 51.7638 56.016C51.6011 55.894 51.4791 55.8533 51.3978 55.7313ZM57.5305 59.1067C57.7338 59.188 57.6118 59.432 57.7338 59.554C57.8965 59.6353 58.2625 59.5133 58.3845 59.31C58.4658 59.1067 58.3845 58.9033 58.4252 58.6187C58.9132 58.6187 59.4418 58.578 59.9298 58.6187C60.0925 58.6187 60.2958 58.7 60.4585 58.7813C60.6618 58.9033 60.9058 58.944 61.1905 58.8627C61.6378 58.822 62.1258 58.9847 62.5325 59.1067C62.7358 59.4727 62.9392 59.0253 63.1018 59.1473C63.3458 59.2693 63.4272 59.554 63.7932 59.554C63.9558 59.554 64.1998 59.6353 64.3625 59.7573C65.3385 60.2453 66.1112 60.9773 66.4772 62.0347C66.7212 62.604 66.8838 63.1733 66.8432 63.8647C66.8025 64.3527 66.8025 64.3527 66.3552 64.8407C66.4365 64.922 66.4772 65.044 66.5585 65.1253C66.5178 65.2067 66.5585 65.288 66.4772 65.3287C66.0705 66.1013 65.5418 66.7927 64.8098 67.3213C64.6065 67.4433 64.4032 67.6467 64.2405 67.6873C63.9152 67.8093 63.4678 67.8093 63.1832 68.0127C62.8578 68.216 62.5325 68.338 62.2072 68.4193C62.0445 68.338 61.9632 68.2567 61.8412 68.1753C61.3125 68.6633 61.3125 68.6633 60.7838 68.6633C60.3365 68.6633 59.9298 68.582 59.5232 68.3787C59.4825 67.8907 59.1165 68.1753 58.8318 68.1753C58.6692 68.094 58.5065 67.9313 58.3032 67.7687C58.1405 67.6873 58.0185 67.5247 57.8558 67.5247C57.3272 67.484 57.4492 67.118 57.4085 66.7927C57.2052 66.7927 57.0832 66.7927 56.9205 66.7927C56.8392 66.752 56.7985 66.7113 56.7985 66.7113C56.7172 66.5487 56.8392 66.264 56.5952 66.264C56.4732 66.264 56.3105 66.4267 56.2292 66.5487C56.1072 66.9553 55.9445 67.362 55.8632 67.8093C55.7005 68.46 55.5785 69.1107 55.4972 69.7613C55.4158 70.2493 55.4565 70.6967 55.5378 71.144C55.5785 71.5507 55.6598 71.998 55.7005 72.4453C56.1072 72.8113 56.5545 73.2587 57.0425 73.6653C57.2052 73.6653 57.4898 73.6247 57.7338 73.584C58.2625 73.5027 58.8725 73.5433 59.4418 73.2993C59.9298 73.0553 60.4585 73.0147 60.9872 72.73C61.4345 72.486 61.9632 72.3233 62.4512 72.0793C62.9798 71.7947 63.4678 71.51 63.9558 71.1847C64.6472 70.7373 65.3385 70.2493 65.9485 69.802C66.1112 69.68 66.2738 69.5987 66.4365 69.5173C66.5585 69.4767 66.8025 69.4767 66.8432 69.5173C67.1278 69.8427 67.4938 69.802 67.8598 69.802C67.9412 69.8427 68.0225 69.802 68.1038 69.802C68.7545 69.8833 68.8358 70.0053 68.7138 70.8187C68.8358 70.9 68.9985 70.9813 69.1612 71.1033C69.1205 72.3233 68.2258 73.0147 67.2905 73.5433C66.9245 73.7467 66.5992 73.7873 66.1925 73.9093C66.0705 74.072 65.9078 74.316 65.7858 74.5193C65.6638 74.7227 65.2165 74.2753 65.2165 74.7633C64.8098 75.1293 64.3625 75.414 63.9152 75.536C63.7118 75.5767 63.5085 75.6173 63.3865 75.6987C62.5732 76.268 61.6785 76.5527 60.7838 76.878C59.3605 77.3253 57.9778 77.4473 56.5138 77.2847C55.9445 77.2033 55.3752 76.9593 55.2532 76.268C55.2532 76.268 55.2125 76.2273 55.1718 76.1867C55.0498 76.146 54.9685 76.146 54.9278 76.268C54.8872 76.3493 54.8465 76.39 54.8465 76.4713C54.6838 76.5527 54.5618 76.4713 54.4398 76.39C54.1145 76.146 53.7892 75.9427 53.4638 75.658C53.2605 75.414 53.0572 75.17 52.8132 74.926C52.7725 74.804 52.6912 74.7227 52.6912 74.6413C52.4065 73.6653 51.7558 72.7707 51.8372 71.6727C51.8372 71.388 51.7558 71.1033 51.7152 70.8187C51.6745 69.6393 51.7558 68.3787 52.2845 67.24C52.3252 67.0773 52.4065 66.9147 52.3658 66.6707C52.3252 66.3453 52.3252 66.02 52.6098 65.7353C52.7725 65.5727 52.8538 65.288 52.9758 65.0847C52.7725 64.8407 52.9352 64.6373 53.0978 64.434C53.2198 64.2307 53.3012 63.946 53.3012 63.702C53.4638 63.2547 53.6265 62.8073 54.2365 62.6853C54.3178 62.6853 54.4398 62.4413 54.2772 62.36C54.1145 62.1567 54.1958 61.994 54.3178 61.872C54.4398 61.75 54.6025 61.628 54.7245 61.506C54.8465 61.4247 55.0498 61.3433 55.0498 61.2213C55.1718 60.53 55.7412 60.2047 56.1885 59.798C56.4732 59.5133 56.9205 59.3507 57.3272 59.1067C57.3678 59.1067 57.4492 59.1067 57.5305 59.1067ZM54.2365 65.166C53.8298 65.8167 53.7892 66.02 53.5452 67.2807C53.7485 67.3213 53.7892 67.1993 53.8298 67.0773C54.1145 66.4673 54.3178 65.8573 54.2365 65.166C54.4398 65.0847 54.6432 64.9627 54.6432 64.678C54.4398 64.6373 54.2365 64.6373 53.8705 64.556C54.0332 64.8407 54.1552 65.0033 54.2365 65.166ZM58.7505 62.6447C58.9945 63.0107 59.1572 63.3767 59.3198 63.7427C59.5638 64.2307 59.9705 64.5153 60.4178 64.8C60.5398 64.8407 60.7025 64.922 60.8245 64.8813C61.4752 64.7593 62.1665 64.5967 62.7358 64.1087C63.0612 63.7427 62.9392 63.1733 62.4512 62.9293C61.8818 62.6447 61.1092 62.6447 60.5398 62.1973C60.5398 62.1567 60.4178 62.1567 60.3365 62.1567C60.0518 62.2787 59.7672 62.238 59.5232 62.238C59.2385 62.238 59.0352 62.482 58.7505 62.6447ZM60.0518 59.7573C60.2552 59.7573 60.4585 59.5947 60.5398 59.3913C60.5398 59.3507 60.4992 59.2287 60.4585 59.2287C60.2145 59.1067 59.9705 59.2693 59.9298 59.5133C59.9298 59.554 60.0112 59.6353 60.0518 59.7573ZM55.7818 61.262C55.9038 61.506 55.9038 61.628 55.9852 61.7093C56.1072 61.872 56.2698 61.872 56.4325 61.75C56.5138 61.7093 56.5545 61.628 56.5545 61.5467C56.5545 61.506 56.5138 61.4247 56.4325 61.4247C56.2698 61.384 56.1072 61.3433 55.7818 61.262ZM58.0998 62.6447C58.1812 62.5633 58.2625 62.5633 58.3032 62.482C58.3845 62.3193 58.0998 61.9533 57.9372 61.994C57.8558 62.0347 57.8558 62.1567 57.8558 62.1973C57.9372 62.36 58.0185 62.482 58.0998 62.6447ZM53.5452 68.2567C53.4232 68.1753 53.3825 68.1347 53.3012 68.094C53.2198 68.094 53.0978 68.1753 53.0572 68.1753C52.9758 68.2567 53.1385 68.5007 53.3012 68.46C53.3418 68.46 53.4232 68.3787 53.5452 68.2567ZM75.462 68.0127C75.4213 68.094 75.462 68.1753 75.4213 68.2973C75.1366 68.9887 74.8113 69.7207 74.5673 70.4527L74.12 70.534C74.2013 70.6153 74.364 70.778 74.4453 70.8593C74.4046 70.9 74.4453 70.9813 74.4046 71.022C74.0386 71.9573 73.754 72.974 73.5506 73.95C73.388 74.6007 73.388 74.6007 72.778 75.0073C72.778 75.2107 72.9813 75.2513 73.0626 75.3733C73.144 75.6173 72.9813 75.902 72.6966 75.902C72.4933 75.902 72.3306 75.8613 72.29 76.0647C72.0866 76.3493 71.8426 76.4713 71.558 76.512C71.314 76.5527 71.07 76.4307 71.07 76.2273C71.07 75.6987 71.0293 75.17 71.2326 74.6413C71.2733 74.56 71.2326 74.438 71.2733 74.316L71.192 74.2347H70.9886C70.948 74.3567 70.9073 74.4787 70.8666 74.6413C70.7446 74.926 70.704 75.2513 70.5413 75.5767C70.4193 75.7393 70.4193 75.902 70.46 76.0647C70.46 76.1053 70.4193 76.1867 70.338 76.1867C70.338 76.1867 70.216 76.2273 70.1346 76.146C70.0126 76.024 69.972 75.8613 69.8093 75.78C69.5653 75.4547 69.4026 75.1293 69.6873 74.7633C69.5653 74.2753 69.5653 73.828 69.6873 73.3807C70.0126 72.1607 70.2566 70.8593 70.5006 69.5987C70.7446 68.7447 70.9886 67.8907 71.1106 66.996C71.2326 66.4673 71.436 65.9387 71.5986 65.4507C71.6393 65.288 71.7613 65.2067 71.7613 65.0847C71.6393 64.434 71.924 63.8647 72.0053 63.336C72.0053 62.7667 72.412 62.2787 72.412 61.75C72.3713 61.262 72.5746 60.7333 72.6153 60.2047C72.6153 59.92 72.6966 59.92 73.2253 59.8387L73.1033 59.2693C73.2253 59.2693 73.266 59.2287 73.3473 59.188C73.4286 59.1473 73.5506 59.1067 73.632 59.1067C73.7133 59.066 73.7946 58.9847 73.876 58.944C73.998 58.944 74.1606 58.9847 74.242 58.9847L73.9573 59.676C73.876 59.9607 74.12 60.286 73.9166 60.6113C73.754 60.774 73.7946 61.0993 73.7946 61.4247C73.9166 61.384 74.0386 61.3433 74.0793 61.3027C74.1606 61.018 74.242 60.6927 74.5673 60.4893C74.6486 60.3673 74.73 60.164 74.73 60.042C74.8926 59.798 74.8926 59.5133 74.8926 59.188C75.1773 59.2693 75.5433 59.31 75.7873 59.31C76.0313 59.3913 76.194 59.5947 76.194 59.7167C76.1533 60.042 76.0313 60.3267 75.95 60.6113C76.1126 60.652 76.2346 60.6113 76.2753 60.6113C76.5193 60.3673 76.8446 60.3267 77.0886 60.0827C77.292 59.798 77.658 59.676 77.9833 59.5947C78.0646 59.554 78.146 59.5133 78.1053 59.4727C78.4713 59.066 78.9186 58.9847 79.366 58.7813L81.1146 58.7407L81.3993 58.9033C82.4566 59.5947 82.7006 60.4893 82.7006 61.4653C82.7006 61.5873 82.5786 61.8313 82.7006 61.9533C82.9853 62.2787 82.7413 62.7667 83.0666 63.092C83.27 63.2547 83.27 63.4173 83.27 63.702C83.27 63.7427 83.514 63.824 83.636 63.824C83.636 63.9867 83.7173 64.19 83.6766 64.3933C83.7173 64.678 83.5546 64.8407 83.1073 64.8407C83.026 64.8 82.8226 64.7187 82.66 64.8813C82.8226 65.166 83.1886 65.2473 83.4326 65.532C83.392 65.532 83.27 65.5727 83.27 65.6133C83.148 65.654 82.294 65.898 82.172 65.8573C82.0906 65.898 82.0093 65.898 81.9686 65.9793C81.928 66.1013 81.684 66.0607 81.562 65.9387C81.2773 65.654 80.9113 65.4507 80.464 65.3287C79.9353 64.8 79.4473 64.2307 79.4066 63.5393C79.366 63.092 79.366 63.092 78.8373 62.726C78.878 63.2547 78.878 63.2547 78.5933 63.6207C78.4306 63.7833 78.2273 63.9867 78.146 64.1087C77.8206 64.312 77.658 64.434 77.4953 64.8C77.4546 65.044 77.17 65.288 76.9666 65.532C76.682 65.9387 76.4786 66.386 76.2753 66.7927C75.95 67.1587 75.828 67.6467 75.4213 67.972C75.34 67.8907 75.2586 67.7687 75.1773 67.6873C75.0146 67.6467 74.8113 67.728 74.8113 67.8907C74.7706 67.9313 74.852 68.0127 74.852 68.1347C75.096 68.094 75.2993 68.0127 75.462 68.0127ZM73.7946 63.3767L73.7133 62.4007C73.51 62.726 73.4693 62.8073 73.3473 62.97C73.2253 63.092 73.1033 63.1733 73.144 63.336C73.4693 63.6207 73.754 63.58 73.7946 63.3767ZM76.2753 62.116C76.3566 62.0347 76.4786 62.0347 76.5193 61.994C76.56 61.9533 76.6413 61.75 76.56 61.75C76.4786 61.7093 76.316 61.6687 76.2753 61.7093C76.194 61.75 76.1126 61.8313 76.072 61.9533C76.0313 61.994 76.1533 62.0753 76.2753 62.116ZM95.5799 60.774L95.9052 61.2213C96.1086 61.6687 96.0679 61.872 95.6205 62.0753C95.4579 62.1567 95.1732 62.1973 95.0105 62.2787C94.8479 62.36 94.7259 62.482 94.6039 62.604C94.4005 62.5227 94.1565 62.4413 93.9532 62.3193C93.8312 62.36 93.7499 62.482 93.5872 62.482C92.8552 62.7667 92.6112 63.2953 92.4892 63.946C92.2045 65.2473 91.8792 66.4267 91.5132 67.6467C91.3099 68.3787 91.2285 69.1107 91.1065 69.8833C90.9439 70.778 90.7405 71.632 90.6185 72.5267C90.4559 73.828 90.2525 75.1293 90.7812 76.4713C90.8219 76.756 90.8219 77.0407 90.9032 77.3253C90.7812 77.5287 90.6185 77.732 90.4559 77.854L89.8459 77.7727C89.7645 77.9353 89.7239 78.098 89.6019 78.2607C89.4799 78.464 89.2765 78.586 89.0325 78.5047C88.7072 78.4233 88.5445 78.2607 88.4632 77.9353C88.4632 77.7727 88.3819 77.6507 88.3819 77.5287C88.2599 77.244 88.0565 77.0813 87.9752 77.1627L87.8939 77.5287C87.8532 77.6507 87.8125 77.732 87.8125 77.8133C87.4465 77.6507 87.3652 77.3253 87.2025 77.122C86.8365 76.3087 86.5925 75.5767 86.6332 74.7227C86.7145 71.8353 87.2432 68.9887 87.8939 66.1827C88.1379 65.3693 88.3412 64.5967 88.5445 63.7833L88.6259 63.2547C88.5039 63.214 88.4225 63.1733 88.3005 63.214C87.6905 63.336 87.0805 63.4987 86.4299 63.702C86.0232 63.7833 85.5352 63.824 85.0879 63.6207C85.0879 63.3767 85.0879 63.2547 85.0879 63.092C84.7625 62.8073 84.5185 63.214 84.1932 62.97C83.7459 62.482 83.6239 61.872 83.7865 61.1807C83.9492 60.5707 84.3152 60.2453 84.8439 60.0827L88.3005 59.3913C88.5852 59.3507 88.7885 59.2693 89.0732 59.2693C89.7645 59.2693 90.0492 58.822 90.2525 58.2527C90.3339 58.09 90.3745 58.0087 90.3745 57.846C90.8625 56.382 91.3505 54.9587 91.9199 53.576C92.2045 53.0473 92.3265 52.478 92.5299 51.9493C92.8145 51.258 93.0585 50.4853 93.4652 49.794C93.5872 49.5093 93.8719 49.306 93.7499 48.8587C93.9125 48.452 94.0752 48.0047 94.2785 47.6387C94.4412 47.3947 94.6852 47.3947 94.9292 47.232C94.8479 47.0693 94.8072 46.9473 94.6852 46.866C94.8072 46.6627 94.9699 46.5407 95.1732 46.6627C95.2952 46.7033 95.4172 46.8253 95.5392 46.866C95.5392 46.8253 95.5799 46.7847 95.5799 46.744C95.5799 46.5407 95.4985 46.3373 95.7832 46.4187C95.9865 46.4187 96.1086 46.622 96.0272 46.8253C96.0679 46.9067 96.0679 46.988 96.0272 47.11L95.4985 48.208C95.2139 48.2487 94.8885 48.33 94.4819 48.3707L95.2139 48.9807C94.8479 49.7127 94.6039 50.4447 94.3192 51.1767C94.2379 51.2987 94.1159 51.4207 94.0345 51.5833C93.9532 51.6647 93.8312 51.746 93.8312 51.7867C94.0752 52.2747 93.6685 52.6407 93.5465 53.0067C93.4652 53.332 93.2212 53.21 92.9365 53.21C92.8145 53.4947 93.3025 53.576 93.1805 53.7793C93.0179 54.2267 92.8552 54.6333 92.7739 55.1213C92.6519 55.528 92.2859 55.772 92.2859 56.26C92.2045 56.6667 91.9605 57.0733 91.8385 57.5207C91.7979 57.968 91.5539 58.334 91.5539 58.8627C91.7165 58.822 91.8792 58.822 91.8385 58.7407L92.6112 56.87L93.9532 53.2507L94.4005 52.112C94.8479 50.9327 95.3359 49.794 95.7425 48.6147C95.8239 48.3707 95.9865 48.208 96.0679 47.9233C96.1899 47.6387 96.3932 47.3947 96.7592 47.3947C96.8812 47.3947 97.0032 47.354 97.0032 47.2727C97.0845 47.1913 97.1252 47.0693 97.0032 46.988C96.9625 46.9067 96.8405 46.9067 96.6779 46.866C96.9625 46.5813 97.0845 46.5813 97.2472 46.7033L97.7352 47.1913C97.9385 47.3947 97.9792 47.6387 97.8572 47.842C97.6945 48.0453 97.7759 48.2487 97.9385 48.452C98.1419 48.7773 97.9792 49.0213 97.7759 49.306C97.6945 49.3873 97.4099 49.3873 97.2879 49.672L97.7759 49.7533V49.916L97.2065 50.8513L96.7592 51.7053C96.7185 51.746 96.6372 51.8273 96.6372 51.9493C96.4745 53.1693 95.7832 54.1453 95.4985 55.284C95.4579 55.5687 95.1325 55.8127 95.0105 56.0973C94.9292 56.4633 94.9699 56.87 94.6445 57.1547C94.6445 57.5207 94.5225 57.846 94.4005 58.1713C94.3192 58.5373 94.4005 58.944 94.4819 59.3507C94.7665 59.554 94.8479 59.2693 95.0105 59.31C95.2139 59.554 95.4579 59.554 95.7832 59.432C95.8239 59.432 95.8239 59.432 95.8645 59.4727C96.0679 59.7573 95.9052 60.286 95.5799 60.408L95.2139 60.53C95.1732 60.53 95.1325 60.652 95.1325 60.7333C95.1732 60.7333 95.2545 60.774 95.3359 60.774C95.3765 60.8147 95.4579 60.774 95.5799 60.774ZM90.4965 63.214C90.2525 63.214 90.1305 63.214 90.1305 63.2547C89.8459 64.1087 89.5205 64.9627 89.2765 65.8167C88.9919 66.9553 88.7885 68.1347 88.6259 69.314C88.5039 70.046 88.3819 70.778 88.3005 71.5507C88.2599 71.7133 88.3412 71.8353 88.5445 71.8353C88.7885 70.9 88.9105 69.9647 89.0732 69.0293C89.3172 68.0533 89.5612 67.0773 89.7239 66.1013C90.0085 65.2067 90.2119 64.2713 90.4965 63.214ZM85.4539 60.6113L85.2505 60.408C85.1285 60.3673 84.9659 60.6113 85.0472 60.774C85.0879 60.8147 85.1692 60.896 85.2099 60.896C85.3725 60.896 85.4539 60.8147 85.4539 60.6113ZM94.7665 59.8793C94.4819 59.8793 94.3599 59.798 94.1972 59.8387L93.9532 59.9607L93.9939 60.0827C94.0345 60.2047 94.1565 60.2047 94.2785 60.164C94.4412 60.0827 94.4819 60.0013 94.7665 59.8793ZM100.606 61.7907C101.013 61.8313 100.81 62.6447 101.42 62.2787C101.704 62.726 101.298 63.092 101.42 63.5393C101.542 63.4173 101.664 63.3767 101.786 63.2953C101.867 63.6207 101.948 63.8647 101.786 64.2307C100.769 66.508 98.9797 72.8113 98.9797 75.902C97.9223 76.7967 98.329 76.3087 97.353 76.3087H97.2717C95.889 76.9593 96.3363 74.7227 95.645 75.3327C95.279 74.438 95.1977 73.5027 95.3603 72.608C95.7263 70.9 95.9703 69.1513 96.621 67.484L98.0037 63.1733C100.688 58.1307 99.1017 64.0273 100.606 61.7907ZM99.4677 58.2527C99.2643 57.8053 99.915 57.5207 99.7117 57.114C99.305 56.3007 102.152 54.8773 102.558 56.504C102.721 56.626 102.762 56.8293 102.762 57.0733C102.843 58.09 102.111 59.92 101.42 59.432C101.094 59.188 99.8743 58.944 99.4677 58.2527ZM97.0683 68.8667L97.3937 69.558C96.2143 73.1773 98.451 69.7207 97.963 68.6633C97.963 68.6227 97.8817 68.582 97.841 68.46C97.6783 68.826 97.2717 68.6227 97.0683 68.8667ZM102.152 56.9513C101.826 57.358 101.826 57.3987 101.948 57.48C101.989 57.602 102.111 57.724 102.274 57.602C102.274 57.3987 102.558 57.0733 102.152 56.9513ZM117.146 62.5227C116.861 62.2787 116.577 62.0753 116.658 61.7093C116.739 61.506 116.577 61.3433 116.536 61.14C116.007 61.262 116.211 61.628 116.007 61.8313C115.641 61.5467 115.763 61.0993 115.601 60.652C115.113 60.53 114.706 60.4893 114.096 60.6113C112.551 61.0993 111.127 61.872 109.663 62.6447C109.257 62.848 109.135 63.336 108.525 63.336C108.281 63.6613 108.077 64.0273 107.874 64.3527C108.077 64.8407 108.687 64.8 109.013 65.1253L108.769 65.5727C109.135 65.7353 109.216 65.3693 109.501 65.3693H109.704C110.965 65.8573 112.103 66.508 113.079 67.362C113.771 68.0127 114.381 68.704 114.706 69.5173C115.275 70.9 115.113 72.242 114.34 73.5027C114.177 73.6653 114.015 73.828 113.933 73.9907C113.689 74.072 113.567 73.9907 113.486 73.9093C113.242 73.706 112.957 73.828 112.917 74.072C112.876 74.1533 112.835 74.2753 112.876 74.3567C113.161 74.7633 112.917 75.0073 112.591 75.2107C112.144 75.4547 111.737 75.6987 111.29 75.902C110.802 76.1053 110.314 76.3087 109.907 76.512C109.582 76.756 109.216 76.6747 108.85 76.5527C108.728 76.756 108.565 76.9187 108.362 77.0407C107.996 77.1627 107.63 77.244 107.223 77.3253C107.02 77.366 106.776 77.0813 106.613 77.244C106.491 77.366 106.41 77.5287 106.207 77.5693C105.922 77.61 105.678 77.6913 105.393 77.6913C105.109 77.732 104.824 77.6913 104.499 77.7727C103.807 77.976 103.116 77.732 102.465 77.61C102.384 77.61 102.303 77.488 102.221 77.4473V77.0407C102.059 76.9187 101.937 77.0407 101.774 77C101.652 76.9593 101.489 76.9187 101.449 76.8373C101.245 76.512 101.083 76.146 101.327 75.8207C101.489 75.6173 101.489 75.536 101.367 75.3733C101.245 75.1293 101.367 75.0073 101.652 74.9667C101.774 74.9667 101.896 75.0073 101.977 75.0073V74.6007C102.018 74.6007 102.018 74.5193 102.059 74.438C102.547 74.316 103.075 74.1127 103.726 74.316C103.929 74.3973 104.295 74.3973 104.58 74.316C105.231 74.194 105.8 74.072 106.369 73.95C106.735 73.828 107.061 73.706 107.427 73.8687C107.671 73.95 107.63 73.706 107.711 73.6247C107.874 73.5433 108.077 73.462 108.281 73.34L110.151 72.486C110.477 72.3233 110.68 72.0387 110.924 71.8353C111.371 71.3067 111.412 71.0627 111.005 70.534C110.761 70.2087 110.517 70.046 110.233 69.7613C109.826 69.3547 109.379 68.9887 108.769 68.826C107.915 68.46 107.061 68.0127 106.207 67.6467C105.353 67.1993 104.783 66.4673 104.173 65.776C104.011 65.6133 103.929 65.3693 103.929 65.2067C103.767 64.068 103.929 63.092 104.905 62.2787C104.905 62.238 105.027 62.1973 105.027 62.1567C105.068 61.5873 105.597 61.384 105.881 61.018L107.752 59.6353C108.362 59.2693 109.013 58.944 109.663 58.6593C110.273 58.334 110.965 58.0087 111.615 57.8053C112.388 57.5613 113.12 57.3987 113.893 57.1953C114.421 57.114 114.909 56.992 115.438 56.992C116.251 56.992 116.902 57.1953 117.593 57.5207C117.878 57.6833 118.325 57.8053 118.569 58.0493C118.976 58.456 119.261 58.944 119.342 59.5133C119.423 60.0827 119.383 60.6113 119.423 61.2213C119.423 61.262 119.423 61.262 119.383 61.3433C119.301 62.0753 118.732 62.5227 117.878 62.36C117.593 62.2787 117.349 62.36 117.146 62.5227ZM112.144 57.8867C112.632 58.0087 112.876 58.09 113.161 58.1713C113.364 58.212 113.567 58.09 113.567 57.8053C113.161 57.7647 112.754 57.724 112.144 57.8867ZM113.039 60.5707C113.649 60.652 113.893 60.4893 114.015 60.164V60.0827C113.933 60.042 113.811 60.042 113.771 60.042C113.567 60.1233 113.405 60.286 113.039 60.5707ZM106.044 62.1973L106.166 61.994C106.125 61.8313 105.881 61.7093 105.678 61.75L105.637 61.8313C105.637 61.994 105.8 62.1973 106.044 62.1973ZM111.29 60.774L111.656 60.4893C111.697 60.4893 111.615 60.3267 111.615 60.286C111.412 60.2453 111.168 60.408 111.127 60.5707C111.127 60.6113 111.168 60.652 111.29 60.774ZM102.628 75.6173C102.587 75.4953 102.587 75.4547 102.547 75.4547C102.425 75.3327 102.303 75.414 102.181 75.4953C102.181 75.5767 102.14 75.658 102.14 75.78L102.181 75.8207C102.384 75.7393 102.506 75.6987 102.628 75.6173ZM123.243 61.7907C123.65 61.8313 123.446 62.6447 124.056 62.2787C124.341 62.726 123.934 63.092 124.056 63.5393C124.178 63.4173 124.3 63.3767 124.422 63.2953C124.504 63.6207 124.585 63.8647 124.422 64.2307C123.406 66.508 121.616 72.8113 121.616 75.902C120.559 76.7967 120.966 76.3087 119.99 76.3087H119.908C118.526 76.9593 118.973 74.7227 118.282 75.3327C117.916 74.438 117.834 73.5027 117.997 72.608C118.363 70.9 118.607 69.1513 119.258 67.484L120.64 63.1733C123.324 58.1307 121.738 64.0273 123.243 61.7907ZM122.104 58.2527C121.901 57.8053 122.552 57.5207 122.348 57.114C121.942 56.3007 124.788 54.8773 125.195 56.504C125.358 56.626 125.398 56.8293 125.398 57.0733C125.48 58.09 124.748 59.92 124.056 59.432C123.731 59.188 122.511 58.944 122.104 58.2527ZM119.705 68.8667L120.03 69.558C118.851 73.1773 121.088 69.7207 120.6 68.6633C120.6 68.6227 120.518 68.582 120.478 68.46C120.315 68.826 119.908 68.6227 119.705 68.8667ZM124.788 56.9513C124.463 57.358 124.463 57.3987 124.585 57.48C124.626 57.602 124.748 57.724 124.91 57.602C124.91 57.3987 125.195 57.0733 124.788 56.9513ZM138.603 63.2547C137.912 63.4987 137.343 63.8647 136.773 64.2713C135.635 65.166 134.618 66.142 133.52 67.118L132.829 67.8907C132.747 67.972 132.625 68.094 132.381 68.0533C132.259 68.0127 132.259 68.1347 132.219 68.216C132.178 68.6227 132.178 68.6227 131.853 68.704C131.771 68.7447 131.69 68.7447 131.609 68.7447C131.568 68.7447 131.568 68.7853 131.487 68.7853C131.365 68.948 131.69 68.9887 131.527 69.3547L131.161 69.7207C130.511 70.412 129.982 71.1847 129.535 71.9573C129.453 72.0387 129.331 72.0793 129.291 72.242C129.047 72.6487 128.559 72.852 128.437 73.462C128.396 73.8687 128.071 74.316 127.867 74.7227L127.379 75.5767C127.217 75.78 127.135 76.024 127.013 76.2273C126.81 76.634 126.525 76.878 125.956 76.8373C125.915 76.8373 125.793 76.8373 125.753 76.878L125.387 77.0407C125.387 76.7153 125.631 76.3087 125.143 76.0647L124.37 76.5933C124.207 76.4713 124.126 76.1867 123.882 76.0647C123.557 75.902 123.516 75.6173 123.76 75.3327C123.882 75.17 123.963 75.0073 123.882 74.7227C123.841 74.5193 123.882 74.316 123.923 74.1127C124.451 72.8113 124.695 71.4693 125.224 70.168C125.346 69.7207 125.387 69.2733 125.793 68.8667C125.793 68.826 125.834 68.7853 125.834 68.7853C125.793 68.1347 125.915 67.6467 126.241 67.1587C126.322 66.996 126.241 66.752 126.281 66.5893L126.688 65.4913L126.81 65.0847C126.973 63.9867 127.42 63.0513 127.664 61.9127C127.786 61.262 127.908 60.5707 128.152 59.8387C128.193 59.554 128.315 59.31 128.599 59.1473L129.047 59.4727C129.209 59.676 129.087 59.798 128.803 59.798C128.762 59.798 128.721 59.8387 128.681 59.8387C128.599 60.0827 128.884 60.2047 128.843 60.4487C128.762 60.5707 128.681 60.652 128.599 60.774L128.884 61.262L129.047 61.75C129.413 61.4247 129.413 61.018 129.453 60.6927C129.535 60.3673 129.616 60.0013 129.738 59.676C129.982 59.7167 130.104 59.798 130.348 59.798C130.429 59.798 130.47 59.7573 130.511 59.676C130.511 59.6353 130.511 59.5133 130.47 59.4727C130.348 59.3913 130.145 59.3913 129.982 59.2693C129.982 59.2287 129.982 59.1067 129.982 59.066C129.982 58.9847 130.145 58.9033 130.226 58.944C130.47 58.9847 130.714 59.066 130.917 59.1473C131.283 59.92 130.917 60.652 130.836 61.3433C130.917 61.3433 131.283 61.262 131.365 61.14C131.405 61.262 131.446 61.3433 131.446 61.4247C131.243 62.3193 130.958 63.2547 130.755 64.2307L130.673 64.8C130.958 64.922 131.202 64.8407 131.283 64.678C131.975 63.6613 133.154 62.9293 134.089 62.0347C134.211 61.872 134.333 61.8313 134.496 61.7093C135.065 61.384 135.594 60.9773 136.163 60.652C136.448 60.6927 136.123 60.896 136.285 61.018L136.855 61.14C136.977 60.9773 136.733 60.9367 136.651 60.774C136.855 60.3673 137.099 60.0013 137.587 59.798C137.953 59.676 138.278 59.5947 138.644 59.676C138.888 59.7573 138.929 59.7167 138.969 59.3913C139.051 59.188 139.173 59.1067 139.335 59.1473C139.864 59.1473 140.311 58.9847 140.759 58.7407C141.084 58.822 141.328 58.8627 141.694 58.9033C141.979 58.9033 142.223 58.9847 142.507 59.066C143.361 59.31 143.605 59.92 143.687 60.5707C143.809 60.9773 143.89 61.506 143.524 61.872C143.443 61.9533 143.483 62.1567 143.483 62.238C143.321 62.2787 143.199 62.2787 143.117 62.2787C142.792 62.36 142.629 62.4413 142.711 62.5633C142.751 62.6447 142.792 62.6447 143.158 62.6447C143.158 62.6447 143.199 62.726 143.158 62.7667C143.077 62.97 142.995 63.092 142.914 63.2547C142.67 63.4987 142.345 63.7833 142.385 64.1493L141.735 64.5967C141.735 64.8 141.694 65.0847 141.572 65.3693L141.165 65.9793C140.759 66.7927 140.352 67.606 139.864 68.4193C139.376 69.07 139.213 69.7207 138.929 70.3713C138.847 70.534 138.807 70.6967 138.766 70.8187C138.156 71.7133 138.115 72.73 137.831 73.6653C137.749 74.0313 137.871 74.316 138.197 74.4787C138.563 74.7227 138.685 75.048 138.603 75.3733C138.563 75.5767 138.725 75.7393 138.766 75.9427C138.603 76.4713 138.034 76.8373 137.546 77.1627C137.465 77.2847 137.261 77.2847 137.058 77.2847C136.123 77.244 135.35 76.878 134.781 76.1867C134.374 75.6173 134.089 74.8853 134.171 74.1533C134.211 73.218 134.293 72.364 134.618 71.4287C135.147 69.9647 135.716 68.5007 136.529 67.118C136.855 66.4673 137.099 65.898 137.505 65.3693C137.953 64.678 138.237 63.9867 138.603 63.2547ZM135.716 72.486C135.797 72.486 135.838 72.5267 135.838 72.486C136.367 72.0387 136.204 71.3067 136.611 70.778V70.5747L136.57 70.534C136.489 70.534 136.407 70.534 136.367 70.534L136.204 70.7373C136.041 71.266 135.797 71.9167 135.716 72.486ZM127.745 63.3767C128.071 63.3767 128.315 63.4173 128.599 63.4173C128.721 63.2953 128.721 63.1733 128.681 63.0513C128.599 62.7667 128.437 62.6853 128.233 62.8073C128.152 62.9293 127.989 63.092 127.786 63.092C127.745 63.1327 127.745 63.2547 127.745 63.3767ZM137.18 69.192C136.692 69.2327 136.814 69.558 136.692 69.6393C136.611 69.8427 136.448 69.9647 136.204 70.168C136.611 70.1273 136.814 70.0867 136.855 69.9647C136.977 69.7207 137.058 69.558 137.18 69.192ZM140.433 62.8073L141.165 62.6853C141.165 62.6447 141.165 62.5633 141.206 62.5227L140.596 62.4413C140.555 62.4007 140.433 62.482 140.393 62.482C140.352 62.5633 140.311 62.6447 140.311 62.726C140.311 62.7667 140.433 62.8073 140.433 62.8073ZM133.561 66.264C133.683 66.1013 133.601 65.9387 133.601 65.8167C133.561 65.776 133.398 65.7353 133.317 65.776C133.276 65.776 133.195 65.898 133.195 65.9387C133.317 66.0607 133.317 66.264 133.561 66.264ZM154.552 74.9667C154.714 75.292 154.674 75.5767 154.592 75.9427C154.186 77.122 153.82 78.342 153.413 79.4807C153.006 80.782 152.437 81.9613 151.705 83.0593C151.258 83.7507 150.729 84.32 150.119 84.8487C150.038 84.8893 149.997 85.0113 149.916 85.0113C149.672 85.052 149.387 84.93 149.184 85.296C149.062 85.4993 148.777 85.5807 148.533 85.662C148.208 85.8247 147.842 85.9873 147.435 85.8247C147.232 85.7027 147.028 85.784 146.866 85.7433C146.622 85.7433 146.378 85.7433 146.174 85.662C145.361 85.296 144.466 85.0927 143.897 84.2793C143.816 84.198 143.734 84.1167 143.653 84.076C142.799 83.588 142.148 82.856 141.66 82.0833C141.579 81.9207 141.457 81.7987 141.335 81.758C140.888 81.392 140.684 80.9853 140.562 80.416C140.562 80.3753 140.522 80.2533 140.481 80.1313C140.278 79.2773 140.562 78.6673 141.376 78.22C141.742 77.976 142.026 78.0573 142.27 78.464C142.27 78.464 142.27 78.5453 142.311 78.5453C142.392 78.6673 142.474 78.7893 142.555 78.7893C142.636 78.7487 142.718 78.6673 142.718 78.5453C142.84 78.4233 142.84 78.3013 142.88 78.1387C143.572 78.4233 143.897 78.9113 144.304 79.3993C145.076 80.3347 145.89 81.148 146.866 81.7987C147.272 82.124 147.435 82.124 147.842 81.7987C148.492 81.2293 148.858 80.4567 149.184 79.7653C149.753 78.5047 150.322 77.2847 150.607 75.9427C150.729 75.536 150.892 75.0887 151.054 74.682C151.176 74.3973 151.258 74.072 151.136 73.7467C150.851 73.6653 150.648 73.8687 150.404 74.0313C149.794 74.3973 149.021 74.5193 148.33 74.6007C147.882 74.7227 147.435 74.6007 147.028 74.5193C146.174 74.316 145.564 73.8687 144.914 73.3807C144.1 72.7707 143.775 71.754 143.572 70.778C143.328 69.5987 143.49 68.3787 143.897 67.24C144.222 66.02 144.792 64.922 145.564 63.9053C146.215 63.0107 147.028 62.1973 147.801 61.4653C147.964 61.3027 148.126 61.14 148.33 61.0587C148.655 60.9367 148.899 60.7333 149.143 60.53C149.834 60.0013 150.607 59.554 151.542 59.554C151.705 59.554 151.786 59.4727 151.908 59.3913C152.071 59.31 152.274 59.2693 152.437 59.2693C153.291 59.2287 154.145 59.2693 154.958 59.554C155.243 59.6353 155.528 59.7573 155.731 59.8793C156.341 60.2047 156.341 60.2453 156.463 61.018C156.87 61.14 157.073 60.6927 157.439 60.652C157.561 60.7333 157.683 60.8147 157.805 60.9367C158.212 61.262 158.13 61.8313 158.334 62.238C158.456 62.4413 158.334 62.726 158.293 63.0107C158.212 63.2953 158.13 63.5393 158.09 63.8647C158.008 64.0273 157.886 64.2307 157.927 64.3933C158.13 65.166 157.602 65.8167 157.358 66.4673C157.236 66.9553 157.032 67.4433 156.91 67.9313C156.504 69.68 156.016 71.4287 155.487 73.1367L155.121 74.1533C154.958 74.438 154.755 74.6413 154.552 74.9667ZM147.191 69.68C147.191 70.5747 147.72 70.9407 148.452 70.6967C148.492 70.656 148.533 70.656 148.533 70.6153C149.184 70.3307 149.794 69.9647 150.322 69.5173C150.932 69.0293 151.38 68.3787 152.071 67.972C152.193 67.8907 152.234 67.7687 152.315 67.6467C152.437 67.362 152.6 67.118 152.762 66.874C153.413 66.02 153.779 65.044 153.942 63.946C154.023 63.458 153.942 63.336 153.494 63.092C153.128 63.0107 152.803 63.0107 152.396 63.092C151.868 63.2953 151.38 63.4987 150.932 63.8647C150.119 64.434 149.387 65.166 148.777 66.02C148.411 66.5487 148.004 67.118 147.72 67.6873C147.435 68.338 147.313 69.1107 147.191 69.68ZM151.461 78.1387L151.664 78.0167C151.908 77.2033 152.234 76.39 152.518 75.536C152.884 74.56 153.088 73.462 153.657 72.4453C153.698 72.364 153.738 72.242 153.698 72.1607C153.698 72.0793 153.576 71.9573 153.494 71.9167C153.413 71.876 153.291 71.9167 153.25 71.998C153.128 72.2013 153.006 72.4453 152.925 72.6893C152.559 73.9093 152.315 75.0887 151.868 76.268C151.705 76.5933 151.746 77 151.502 77.2847C151.583 77.5287 151.258 77.854 151.461 78.1387ZM154.836 73.5433C154.552 73.9907 154.552 73.9907 154.674 74.316C154.796 74.1127 154.999 73.8687 154.836 73.5433Z" fill="black"/>
</svg>
