<svg width="225" height="97" viewBox="0 0 225 97" fill="none" xmlns="http://www.w3.org/2000/svg">
<path d="M14.9247 30.61C13.0269 30.61 11.2443 30.2779 9.577 29.6137C7.92322 28.9359 6.466 27.9463 5.20533 26.645C3.95822 25.3437 2.98222 23.7509 2.27733 21.8667C1.57244 19.9689 1.22 17.8 1.22 15.36C1.22 12.1609 1.81644 9.42945 3.00933 7.16567C4.20222 4.88833 5.83567 3.14645 7.90967 1.94C9.98367 0.720001 12.322 0.110001 14.9247 0.110001C18.5304 0.110001 21.3839 0.950445 23.485 2.63133C25.5997 4.29867 27.0298 6.64378 27.7753 9.66667L22.7733 10.4597C22.2176 8.72456 21.3093 7.34189 20.0487 6.31167C18.788 5.26789 17.1817 4.746 15.2297 4.746C13.2641 4.71889 11.6307 5.14589 10.3293 6.027C9.028 6.90811 8.04522 8.14844 7.381 9.748C6.73033 11.3476 6.405 13.2182 6.405 15.36C6.405 17.5018 6.73033 19.3657 7.381 20.9517C8.03167 22.5241 9.00767 23.7509 10.309 24.632C11.6239 25.5131 13.2641 25.9672 15.2297 25.9943C16.7072 26.0079 18.0018 25.7436 19.1133 25.2013C20.2249 24.6456 21.1331 23.8119 21.838 22.7003C22.5429 21.5752 23.0173 20.1722 23.2613 18.4913H18.0967V14.6483H28.4667C28.4938 14.8652 28.5141 15.1838 28.5277 15.604C28.5412 16.0242 28.548 16.275 28.548 16.3563C28.548 19.1217 27.999 21.582 26.901 23.7373C25.8166 25.8791 24.2577 27.56 22.2243 28.78C20.191 30 17.7578 30.61 14.9247 30.61ZM42.3308 30.61C40.1348 30.61 38.2167 30.1152 36.5765 29.1257C34.9363 28.1361 33.662 26.7738 32.7538 25.0387C31.8592 23.29 31.4118 21.2838 31.4118 19.02C31.4118 16.7156 31.8727 14.6958 32.7945 12.9607C33.7163 11.2256 34.9973 9.87 36.6375 8.894C38.2777 7.918 40.1755 7.43 42.3308 7.43C44.5404 7.43 46.4653 7.92478 48.1055 8.91433C49.7457 9.90389 51.0199 11.273 51.9282 13.0217C52.8364 14.7568 53.2905 16.7562 53.2905 19.02C53.2905 21.2973 52.8296 23.3103 51.9078 25.059C50.9996 26.7941 49.7254 28.1564 48.0852 29.146C46.4449 30.122 44.5268 30.61 42.3308 30.61ZM42.3308 26.0147C44.2828 26.0147 45.7333 25.364 46.6822 24.0627C47.631 22.7613 48.1055 21.0804 48.1055 19.02C48.1055 16.8918 47.6243 15.1973 46.6618 13.9367C45.6994 12.6624 44.2557 12.0253 42.3308 12.0253C41.0159 12.0253 39.9315 12.3236 39.0775 12.92C38.237 13.5029 37.6135 14.323 37.2068 15.3803C36.8002 16.4241 36.5968 17.6373 36.5968 19.02C36.5968 21.1482 37.078 22.8494 38.0405 24.1237C39.0165 25.3843 40.4466 26.0147 42.3308 26.0147ZM67.4695 30.61C65.2735 30.61 63.3554 30.1152 61.7152 29.1257C60.0749 28.1361 58.8007 26.7738 57.8925 25.0387C56.9978 23.29 56.5505 21.2838 56.5505 19.02C56.5505 16.7156 57.0114 14.6958 57.9332 12.9607C58.8549 11.2256 60.1359 9.87 61.7762 8.894C63.4164 7.918 65.3142 7.43 67.4695 7.43C69.679 7.43 71.6039 7.92478 73.2442 8.91433C74.8844 9.90389 76.1586 11.273 77.0668 13.0217C77.975 14.7568 78.4292 16.7562 78.4292 19.02C78.4292 21.2973 77.9683 23.3103 77.0465 25.059C76.1383 26.7941 74.864 28.1564 73.2238 29.146C71.5836 30.122 69.6655 30.61 67.4695 30.61ZM67.4695 26.0147C69.4215 26.0147 70.8719 25.364 71.8208 24.0627C72.7697 22.7613 73.2442 21.0804 73.2442 19.02C73.2442 16.8918 72.7629 15.1973 71.8005 13.9367C70.838 12.6624 69.3944 12.0253 67.4695 12.0253C66.1546 12.0253 65.0702 12.3236 64.2162 12.92C63.3757 13.5029 62.7522 14.323 62.3455 15.3803C61.9388 16.4241 61.7355 17.6373 61.7355 19.02C61.7355 21.1482 62.2167 22.8494 63.1792 24.1237C64.1552 25.3843 65.5853 26.0147 67.4695 26.0147ZM92.1405 40.37C90.9205 40.37 89.7479 40.1802 88.6228 39.8007C87.5113 39.4211 86.5082 38.8721 85.6135 38.1537C84.7188 37.4488 83.9868 36.5948 83.4175 35.5917L87.9315 33.355C88.3517 34.1548 88.9414 34.7444 89.7005 35.124C90.4732 35.5171 91.2933 35.7137 92.1608 35.7137C93.1775 35.7137 94.0857 35.5307 94.8855 35.1647C95.6853 34.8122 96.302 34.2836 96.7358 33.5787C97.1832 32.8873 97.3933 32.0198 97.3662 30.976V24.7337H97.9762V8.04H102.266V31.0573C102.266 31.6131 102.239 32.1418 102.185 32.6433C102.144 33.1584 102.07 33.66 101.961 34.148C101.636 35.5713 101.013 36.7371 100.091 37.6453C99.169 38.5671 98.0236 39.2517 96.6545 39.699C95.2989 40.1463 93.7943 40.37 92.1405 40.37ZM91.7135 30.61C89.6937 30.61 87.9315 30.1017 86.4268 29.085C84.9222 28.0683 83.7564 26.6857 82.9295 24.937C82.1026 23.1883 81.6892 21.216 81.6892 19.02C81.6892 16.7969 82.1026 14.8178 82.9295 13.0827C83.7699 11.334 84.956 9.95811 86.4878 8.955C88.0196 7.93833 89.8225 7.43 91.8965 7.43C93.984 7.43 95.7327 7.93833 97.1425 8.955C98.5658 9.95811 99.6435 11.334 100.375 13.0827C101.107 14.8313 101.473 16.8104 101.473 19.02C101.473 21.2024 101.107 23.1748 100.375 24.937C99.6435 26.6857 98.5523 28.0683 97.1018 29.085C95.6514 30.1017 93.8553 30.61 91.7135 30.61ZM92.4658 26.218C93.7807 26.218 94.838 25.9198 95.6378 25.3233C96.4512 24.7133 97.0408 23.8661 97.4068 22.7817C97.7864 21.6972 97.9762 20.4433 97.9762 19.02C97.9762 17.5831 97.7864 16.3292 97.4068 15.2583C97.0408 14.1739 96.4647 13.3334 95.6785 12.737C94.8923 12.127 93.8756 11.822 92.6285 11.822C91.3136 11.822 90.2292 12.1473 89.3752 12.798C88.5212 13.4351 87.8908 14.3027 87.4842 15.4007C87.0775 16.4851 86.8742 17.6916 86.8742 19.02C86.8742 20.362 87.0707 21.582 87.4638 22.68C87.8705 23.7644 88.4873 24.6252 89.3142 25.2623C90.141 25.8994 91.1916 26.218 92.4658 26.218ZM108.375 30V0.110001H113.275V30H108.375ZM129.35 30.61C127.127 30.61 125.175 30.1288 123.494 29.1663C121.813 28.2039 120.498 26.8687 119.549 25.1607C118.614 23.4527 118.146 21.4871 118.146 19.264C118.146 16.8647 118.607 14.7839 119.529 13.0217C120.451 11.2459 121.732 9.87 123.372 8.894C125.012 7.918 126.91 7.43 129.065 7.43C131.343 7.43 133.274 7.96545 134.86 9.03633C136.46 10.0937 137.646 11.5916 138.419 13.53C139.191 15.4684 139.483 17.7526 139.293 20.3823H134.433V18.593C134.42 16.2072 133.999 14.4653 133.173 13.3673C132.346 12.2693 131.044 11.7203 129.269 11.7203C127.262 11.7203 125.771 12.3439 124.795 13.591C123.819 14.8246 123.331 16.6342 123.331 19.02C123.331 21.2431 123.819 22.9647 124.795 24.1847C125.771 25.4047 127.195 26.0147 129.065 26.0147C130.272 26.0147 131.309 25.7503 132.176 25.2217C133.057 24.6794 133.735 23.9 134.21 22.8833L139.049 24.3473C138.208 26.3264 136.907 27.865 135.145 28.963C133.396 30.061 131.465 30.61 129.35 30.61ZM121.786 20.3823V16.6817H136.894V20.3823H121.786ZM0.813333 86L10.0447 56.72H17.2223L26.4537 86H21.411L13.0337 59.7293H14.1317L5.856 86H0.813333ZM5.95767 79.656V75.081H21.3297V79.656H5.95767ZM38.9342 86.61C36.9144 86.61 35.1522 86.1017 33.6475 85.085C32.1429 84.0683 30.9771 82.6857 30.1502 80.937C29.3233 79.1883 28.9099 77.216 28.9099 75.02C28.9099 72.7969 29.3233 70.8178 30.1502 69.0827C30.9906 67.334 32.1768 65.9581 33.7085 64.955C35.2403 63.9383 37.0432 63.43 39.1172 63.43C41.2048 63.43 42.9534 63.9383 44.3632 64.955C45.7865 65.9581 46.8642 67.334 47.5962 69.0827C48.3282 70.8313 48.6942 72.8104 48.6942 75.02C48.6942 77.2024 48.3282 79.1748 47.5962 80.937C46.8642 82.6857 45.773 84.0683 44.3225 85.085C42.8721 86.1017 41.076 86.61 38.9342 86.61ZM39.6865 82.218C41.0014 82.218 42.0588 81.9198 42.8585 81.3233C43.6719 80.7133 44.2615 79.8661 44.6275 78.7817C45.0071 77.6972 45.1969 76.4433 45.1969 75.02C45.1969 73.5831 45.0071 72.3292 44.6275 71.2583C44.2615 70.1739 43.6854 69.3334 42.8992 68.737C42.113 68.127 41.0963 67.822 39.8492 67.822C38.5343 67.822 37.4499 68.1473 36.5959 68.798C35.7419 69.4351 35.1115 70.3027 34.7049 71.4007C34.2982 72.4851 34.0949 73.6916 34.0949 75.02C34.0949 76.362 34.2914 77.582 34.6845 78.68C35.0912 79.7644 35.708 80.6252 36.5349 81.2623C37.3618 81.8994 38.4123 82.218 39.6865 82.218ZM45.1969 86V70.5873H44.5869V56.72H49.5279V86H45.1969ZM61.1662 86L53.1955 64.04H58.0958L63.6265 79.961L69.1368 64.04H74.0575L66.0868 86H61.1662ZM86.8961 86.61C84.673 86.61 82.721 86.1288 81.0401 85.1663C79.3592 84.2039 78.0443 82.8687 77.0954 81.1607C76.1601 79.4527 75.6924 77.4871 75.6924 75.264C75.6924 72.8647 76.1533 70.7839 77.0751 69.0217C77.9969 67.2459 79.2779 65.87 80.9181 64.894C82.5583 63.918 84.4561 63.43 86.6114 63.43C88.8887 63.43 90.8204 63.9654 92.4064 65.0363C94.006 66.0937 95.1921 67.5916 95.9647 69.53C96.7374 71.4684 97.0289 73.7526 96.8391 76.3823H91.9794V74.593C91.9659 72.2072 91.5456 70.4653 90.7188 69.3673C89.8919 68.2693 88.5905 67.7203 86.8148 67.7203C84.8085 67.7203 83.3174 68.3439 82.3414 69.591C81.3654 70.8246 80.8774 72.6342 80.8774 75.02C80.8774 77.2431 81.3654 78.9647 82.3414 80.1847C83.3174 81.4047 84.7408 82.0147 86.6114 82.0147C87.8179 82.0147 88.8549 81.7503 89.7224 81.2217C90.6035 80.6794 91.2813 79.9 91.7558 78.8833L96.5951 80.3473C95.7546 82.3264 94.4533 83.865 92.6911 84.963C90.9424 86.061 89.0108 86.61 86.8961 86.61ZM79.3321 76.3823V72.6817H94.4398V76.3823H79.3321ZM101.376 86V64.04H105.707V69.3877L105.178 68.6963C105.449 67.9643 105.809 67.3001 106.256 66.7037C106.717 66.0937 107.266 65.5921 107.903 65.199C108.445 64.833 109.042 64.5483 109.692 64.345C110.357 64.1281 111.034 63.9993 111.726 63.9587C112.417 63.9044 113.088 63.9316 113.739 64.04V68.615C113.088 68.4252 112.336 68.3642 111.482 68.432C110.641 68.4998 109.882 68.737 109.204 69.1437C108.527 69.5097 107.971 69.9773 107.537 70.5467C107.117 71.116 106.805 71.7667 106.602 72.4987C106.398 73.2171 106.297 73.9966 106.297 74.837V86H101.376ZM130.49 86C129.039 86.2711 127.616 86.3863 126.22 86.3457C124.837 86.3186 123.597 86.0678 122.499 85.5933C121.401 85.1053 120.567 84.3394 119.998 83.2957C119.496 82.3468 119.232 81.3776 119.205 80.388C119.178 79.3984 119.164 78.2801 119.164 77.033V57.94H124.044V76.7483C124.044 77.6294 124.051 78.4021 124.064 79.0663C124.092 79.7306 124.234 80.2728 124.491 80.693C124.979 81.5063 125.759 81.9604 126.83 82.0553C127.901 82.1502 129.121 82.096 130.49 81.8927V86ZM115.179 67.883V64.04H130.49V67.883H115.179ZM135.619 60.7053V56.2117H140.519V60.7053H135.619ZM135.619 86V64.04H140.519V86H135.619ZM155.089 86.61C152.378 86.61 150.175 86 148.48 84.78C146.786 83.56 145.756 81.8452 145.39 79.6357L150.392 78.863C150.649 79.9474 151.219 80.8014 152.1 81.425C152.981 82.0486 154.092 82.3603 155.434 82.3603C156.614 82.3603 157.522 82.1299 158.159 81.669C158.81 81.1946 159.135 80.5507 159.135 79.7373C159.135 79.2358 159.013 78.8359 158.769 78.5377C158.539 78.2259 158.023 77.9277 157.224 77.643C156.424 77.3583 155.197 76.9991 153.543 76.5653C151.7 76.0773 150.236 75.5554 149.151 74.9997C148.067 74.4303 147.287 73.7593 146.813 72.9867C146.339 72.214 146.101 71.2787 146.101 70.1807C146.101 68.8116 146.461 67.6187 147.179 66.602C147.897 65.5853 148.901 64.8059 150.188 64.2637C151.476 63.7079 152.994 63.43 154.743 63.43C156.451 63.43 157.962 63.6943 159.277 64.223C160.606 64.7517 161.677 65.504 162.49 66.48C163.303 67.456 163.805 68.6014 163.995 69.9163L158.993 70.811C158.871 69.8757 158.444 69.1369 157.712 68.5947C156.993 68.0524 156.031 67.7474 154.824 67.6797C153.672 67.6119 152.744 67.7881 152.039 68.2083C151.334 68.615 150.981 69.1911 150.981 69.9367C150.981 70.3569 151.124 70.7161 151.408 71.0143C151.693 71.3126 152.262 71.6108 153.116 71.909C153.984 72.2072 155.272 72.5732 156.98 73.007C158.728 73.4543 160.125 73.9694 161.168 74.5523C162.226 75.1217 162.985 75.8062 163.446 76.606C163.92 77.4058 164.157 78.375 164.157 79.5137C164.157 81.7232 163.351 83.4583 161.738 84.719C160.138 85.9797 157.922 86.61 155.089 86.61ZM169.018 60.7053V56.2117H173.918V60.7053H169.018ZM169.018 86V64.04H173.918V86H169.018ZM195.198 86V75.4267C195.198 74.7353 195.15 73.9694 195.055 73.129C194.961 72.2886 194.737 71.482 194.384 70.7093C194.046 69.9231 193.53 69.2792 192.839 68.7777C192.161 68.2761 191.24 68.0253 190.074 68.0253C189.45 68.0253 188.833 68.127 188.223 68.3303C187.613 68.5337 187.058 68.8861 186.556 69.3877C186.068 69.8757 185.675 70.5534 185.377 71.421C185.079 72.275 184.929 73.373 184.929 74.715L182.022 73.4747C182.022 71.604 182.381 69.9096 183.099 68.3913C183.831 66.8731 184.902 65.6667 186.312 64.772C187.722 63.8638 189.457 63.4097 191.517 63.4097C193.144 63.4097 194.486 63.6808 195.543 64.223C196.601 64.7652 197.441 65.4566 198.065 66.297C198.688 67.1374 199.149 68.0321 199.447 68.981C199.746 69.9299 199.935 70.8313 200.017 71.6853C200.112 72.5258 200.159 73.2103 200.159 73.739V86H195.198ZM179.968 86V64.04H184.34V70.8517H184.929V86H179.968ZM214.696 96.37C213.476 96.37 212.304 96.1802 211.179 95.8007C210.067 95.4211 209.064 94.8721 208.169 94.1537C207.275 93.4488 206.543 92.5948 205.973 91.5917L210.487 89.355C210.908 90.1548 211.497 90.7444 212.256 91.124C213.029 91.5171 213.849 91.7137 214.717 91.7137C215.733 91.7137 216.642 91.5307 217.441 91.1647C218.241 90.8122 218.858 90.2836 219.292 89.5787C219.739 88.8873 219.949 88.0198 219.922 86.976V80.7337H220.532V64.04H224.822V87.0573C224.822 87.6131 224.795 88.1418 224.741 88.6433C224.7 89.1584 224.626 89.66 224.517 90.148C224.192 91.5713 223.569 92.7371 222.647 93.6453C221.725 94.5671 220.58 95.2517 219.21 95.699C217.855 96.1463 216.35 96.37 214.696 96.37ZM214.269 86.61C212.25 86.61 210.487 86.1017 208.983 85.085C207.478 84.0683 206.312 82.6857 205.485 80.937C204.659 79.1883 204.245 77.216 204.245 75.02C204.245 72.7969 204.659 70.8178 205.485 69.0827C206.326 67.334 207.512 65.9581 209.044 64.955C210.576 63.9383 212.378 63.43 214.452 63.43C216.54 63.43 218.289 63.9383 219.698 64.955C221.122 65.9581 222.199 67.334 222.931 69.0827C223.663 70.8313 224.029 72.8104 224.029 75.02C224.029 77.2024 223.663 79.1748 222.931 80.937C222.199 82.6857 221.108 84.0683 219.658 85.085C218.207 86.1017 216.411 86.61 214.269 86.61ZM215.022 82.218C216.337 82.218 217.394 81.9198 218.194 81.3233C219.007 80.7133 219.597 79.8661 219.963 78.7817C220.342 77.6972 220.532 76.4433 220.532 75.02C220.532 73.5831 220.342 72.3292 219.963 71.2583C219.597 70.1739 219.021 69.3334 218.234 68.737C217.448 68.127 216.432 67.822 215.184 67.822C213.87 67.822 212.785 68.1473 211.931 68.798C211.077 69.4351 210.447 70.3027 210.04 71.4007C209.633 72.4851 209.43 73.6916 209.43 75.02C209.43 76.362 209.627 77.582 210.02 78.68C210.426 79.7644 211.043 80.6252 211.87 81.2623C212.697 81.8994 213.748 82.218 215.022 82.218Z" fill="black"/>
</svg>
