<svg width="225" height="97" viewBox="0 0 225 97" fill="none" xmlns="http://www.w3.org/2000/svg">
<path d="M9.96333 30V18.0033L0 0.720001H5.71367L12.444 12.3913L19.154 0.720001H24.8677L14.9247 18.0033V30H9.96333ZM34.1498 30.61C31.9538 30.61 30.0357 30.1152 28.3955 29.1257C26.7553 28.1361 25.4811 26.7738 24.5728 25.0387C23.6782 23.29 23.2308 21.2838 23.2308 19.02C23.2308 16.7156 23.6917 14.6958 24.6135 12.9607C25.5353 11.2256 26.8163 9.87 28.4565 8.894C30.0967 7.918 31.9945 7.43 34.1498 7.43C36.3594 7.43 38.2843 7.92478 39.9245 8.91433C41.5647 9.90389 42.8389 11.273 43.7472 13.0217C44.6554 14.7568 45.1095 16.7562 45.1095 19.02C45.1095 21.2973 44.6486 23.3103 43.7268 25.059C42.8186 26.7941 41.5444 28.1564 39.9042 29.146C38.2639 30.122 36.3458 30.61 34.1498 30.61ZM34.1498 26.0147C36.1018 26.0147 37.5523 25.364 38.5012 24.0627C39.4501 22.7613 39.9245 21.0804 39.9245 19.02C39.9245 16.8918 39.4433 15.1973 38.4808 13.9367C37.5184 12.6624 36.0747 12.0253 34.1498 12.0253C32.8349 12.0253 31.7505 12.3236 30.8965 12.92C30.0561 13.5029 29.4325 14.323 29.0258 15.3803C28.6192 16.4241 28.4158 17.6373 28.4158 19.02C28.4158 21.1482 28.8971 22.8494 29.8595 24.1237C30.8355 25.3843 32.2656 26.0147 34.1498 26.0147ZM57.8245 30.6303C56.1978 30.6303 54.8558 30.3592 53.7985 29.817C52.7412 29.2748 51.9007 28.5834 51.2772 27.743C50.6536 26.9026 50.1927 26.0079 49.8945 25.059C49.5963 24.1101 49.3997 23.2154 49.3048 22.375C49.2235 21.521 49.1828 20.8297 49.1828 20.301V8.04H54.1442V18.6133C54.1442 19.2911 54.1916 20.057 54.2865 20.911C54.3814 21.7514 54.5983 22.5648 54.9372 23.351C55.2896 24.1237 55.8047 24.7608 56.4825 25.2623C57.1738 25.7639 58.1024 26.0147 59.2682 26.0147C59.8917 26.0147 60.5085 25.913 61.1185 25.7097C61.7285 25.5063 62.2775 25.1607 62.7655 24.6727C63.2671 24.1711 63.6669 23.4866 63.9652 22.619C64.2634 21.7514 64.4125 20.6534 64.4125 19.325L67.3202 20.5653C67.3202 22.436 66.9542 24.1304 66.2222 25.6487C65.5037 27.1669 64.4396 28.3801 63.0298 29.2883C61.6201 30.183 59.8849 30.6303 57.8245 30.6303ZM65.0022 30V23.1883H64.4125V8.04H69.3332V30H65.0022ZM87.9169 30C86.4664 30.2711 85.0431 30.3863 83.6469 30.3457C82.2642 30.3186 81.0239 30.0678 79.9259 29.5933C78.8279 29.1053 77.9942 28.3394 77.4249 27.2957C76.9233 26.3468 76.659 25.3776 76.6319 24.388C76.6048 23.3984 76.5912 22.2801 76.5912 21.033V1.94H81.4712V20.7483C81.4712 21.6294 81.478 22.4021 81.4916 23.0663C81.5187 23.7306 81.661 24.2728 81.9186 24.693C82.4066 25.5063 83.186 25.9604 84.2569 26.0553C85.3278 26.1502 86.5478 26.096 87.9169 25.8927V30ZM72.6059 11.883V8.04H87.9169V11.883H72.6059ZM100.874 30.6303C99.2473 30.6303 97.9053 30.3592 96.848 29.817C95.7906 29.2748 94.9502 28.5834 94.3266 27.743C93.7031 26.9026 93.2422 26.0079 92.944 25.059C92.6458 24.1101 92.4492 23.2154 92.3543 22.375C92.273 21.521 92.2323 20.8297 92.2323 20.301V8.04H97.1936V18.6133C97.1936 19.2911 97.2411 20.057 97.336 20.911C97.4309 21.7514 97.6478 22.5648 97.9866 23.351C98.3391 24.1237 98.8542 24.7608 99.532 25.2623C100.223 25.7639 101.152 26.0147 102.318 26.0147C102.941 26.0147 103.558 25.913 104.168 25.7097C104.778 25.5063 105.327 25.1607 105.815 24.6727C106.317 24.1711 106.716 23.4866 107.015 22.619C107.313 21.7514 107.462 20.6534 107.462 19.325L110.37 20.5653C110.37 22.436 110.004 24.1304 109.272 25.6487C108.553 27.1669 107.489 28.3801 106.079 29.2883C104.67 30.183 102.934 30.6303 100.874 30.6303ZM108.052 30V23.1883H107.462V8.04H112.383V30H108.052ZM128.648 30.61C126.507 30.61 124.71 30.1017 123.26 29.085C121.81 28.0683 120.718 26.6857 119.986 24.937C119.254 23.1748 118.888 21.2024 118.888 19.02C118.888 16.8104 119.254 14.8313 119.986 13.0827C120.718 11.334 121.789 9.95811 123.199 8.955C124.622 7.93833 126.378 7.43 128.465 7.43C130.539 7.43 132.335 7.93833 133.854 8.955C135.385 9.95811 136.572 11.334 137.412 13.0827C138.252 14.8178 138.673 16.7969 138.673 19.02C138.673 21.216 138.259 23.1883 137.432 24.937C136.605 26.6857 135.44 28.0683 133.935 29.085C132.43 30.1017 130.668 30.61 128.648 30.61ZM118.055 30V0.720001H122.996V14.5873H122.386V30H118.055ZM127.896 26.218C129.17 26.218 130.221 25.8994 131.048 25.2623C131.875 24.6252 132.485 23.7644 132.878 22.68C133.284 21.582 133.488 20.362 133.488 19.02C133.488 17.6916 133.284 16.4851 132.878 15.4007C132.471 14.3027 131.841 13.4351 130.987 12.798C130.133 12.1473 129.048 11.822 127.733 11.822C126.486 11.822 125.47 12.127 124.683 12.737C123.897 13.3334 123.314 14.1739 122.935 15.2583C122.569 16.3292 122.386 17.5831 122.386 19.02C122.386 20.4433 122.569 21.6972 122.935 22.7817C123.314 23.8661 123.904 24.7133 124.704 25.3233C125.517 25.9198 126.581 26.218 127.896 26.218ZM153.138 30.61C150.915 30.61 148.963 30.1288 147.282 29.1663C145.601 28.2039 144.286 26.8687 143.338 25.1607C142.402 23.4527 141.935 21.4871 141.935 19.264C141.935 16.8647 142.395 14.7839 143.317 13.0217C144.239 11.2459 145.52 9.87 147.16 8.894C148.8 7.918 150.698 7.43 152.854 7.43C155.131 7.43 157.063 7.96545 158.649 9.03633C160.248 10.0937 161.434 11.5916 162.207 13.53C162.98 15.4684 163.271 17.7526 163.081 20.3823H158.222V18.593C158.208 16.2072 157.788 14.4653 156.961 13.3673C156.134 12.2693 154.833 11.7203 153.057 11.7203C151.051 11.7203 149.56 12.3439 148.584 13.591C147.608 14.8246 147.12 16.6342 147.12 19.02C147.12 21.2431 147.608 22.9647 148.584 24.1847C149.56 25.4047 150.983 26.0147 152.854 26.0147C154.06 26.0147 155.097 25.7503 155.965 25.2217C156.846 24.6794 157.523 23.9 157.998 22.8833L162.837 24.3473C161.997 26.3264 160.695 27.865 158.933 28.963C157.185 30.061 155.253 30.61 153.138 30.61ZM145.574 20.3823V16.6817H160.682V20.3823H145.574ZM0.813333 86L10.0447 56.72H17.2223L26.4537 86H21.411L13.0337 59.7293H14.1317L5.856 86H0.813333ZM5.95767 79.656V75.081H21.3297V79.656H5.95767ZM38.9342 86.61C36.9144 86.61 35.1522 86.1017 33.6475 85.085C32.1429 84.0683 30.9771 82.6857 30.1502 80.937C29.3233 79.1883 28.9099 77.216 28.9099 75.02C28.9099 72.7969 29.3233 70.8178 30.1502 69.0827C30.9906 67.334 32.1768 65.9581 33.7085 64.955C35.2403 63.9383 37.0432 63.43 39.1172 63.43C41.2048 63.43 42.9534 63.9383 44.3632 64.955C45.7865 65.9581 46.8642 67.334 47.5962 69.0827C48.3282 70.8313 48.6942 72.8104 48.6942 75.02C48.6942 77.2024 48.3282 79.1748 47.5962 80.937C46.8642 82.6857 45.773 84.0683 44.3225 85.085C42.8721 86.1017 41.076 86.61 38.9342 86.61ZM39.6865 82.218C41.0014 82.218 42.0588 81.9198 42.8585 81.3233C43.6719 80.7133 44.2615 79.8661 44.6275 78.7817C45.0071 77.6972 45.1969 76.4433 45.1969 75.02C45.1969 73.5831 45.0071 72.3292 44.6275 71.2583C44.2615 70.1739 43.6854 69.3334 42.8992 68.737C42.113 68.127 41.0963 67.822 39.8492 67.822C38.5343 67.822 37.4499 68.1473 36.5959 68.798C35.7419 69.4351 35.1115 70.3027 34.7049 71.4007C34.2982 72.4851 34.0949 73.6916 34.0949 75.02C34.0949 76.362 34.2914 77.582 34.6845 78.68C35.0912 79.7644 35.708 80.6252 36.5349 81.2623C37.3618 81.8994 38.4123 82.218 39.6865 82.218ZM45.1969 86V70.5873H44.5869V56.72H49.5279V86H45.1969ZM61.1662 86L53.1955 64.04H58.0958L63.6265 79.961L69.1368 64.04H74.0575L66.0868 86H61.1662ZM86.8961 86.61C84.673 86.61 82.721 86.1288 81.0401 85.1663C79.3592 84.2039 78.0443 82.8687 77.0954 81.1607C76.1601 79.4527 75.6924 77.4871 75.6924 75.264C75.6924 72.8647 76.1533 70.7839 77.0751 69.0217C77.9969 67.2459 79.2779 65.87 80.9181 64.894C82.5583 63.918 84.4561 63.43 86.6114 63.43C88.8887 63.43 90.8204 63.9654 92.4064 65.0363C94.006 66.0937 95.1921 67.5916 95.9647 69.53C96.7374 71.4684 97.0289 73.7526 96.8391 76.3823H91.9794V74.593C91.9659 72.2072 91.5456 70.4653 90.7188 69.3673C89.8919 68.2693 88.5905 67.7203 86.8148 67.7203C84.8085 67.7203 83.3174 68.3439 82.3414 69.591C81.3654 70.8246 80.8774 72.6342 80.8774 75.02C80.8774 77.2431 81.3654 78.9647 82.3414 80.1847C83.3174 81.4047 84.7408 82.0147 86.6114 82.0147C87.8179 82.0147 88.8549 81.7503 89.7224 81.2217C90.6035 80.6794 91.2813 79.9 91.7558 78.8833L96.5951 80.3473C95.7546 82.3264 94.4533 83.865 92.6911 84.963C90.9424 86.061 89.0108 86.61 86.8961 86.61ZM79.3321 76.3823V72.6817H94.4398V76.3823H79.3321ZM101.376 86V64.04H105.707V69.3877L105.178 68.6963C105.449 67.9643 105.809 67.3001 106.256 66.7037C106.717 66.0937 107.266 65.5921 107.903 65.199C108.445 64.833 109.042 64.5483 109.692 64.345C110.357 64.1281 111.034 63.9993 111.726 63.9587C112.417 63.9044 113.088 63.9316 113.739 64.04V68.615C113.088 68.4252 112.336 68.3642 111.482 68.432C110.641 68.4998 109.882 68.737 109.204 69.1437C108.527 69.5097 107.971 69.9773 107.537 70.5467C107.117 71.116 106.805 71.7667 106.602 72.4987C106.398 73.2171 106.297 73.9966 106.297 74.837V86H101.376ZM130.49 86C129.039 86.2711 127.616 86.3863 126.22 86.3457C124.837 86.3186 123.597 86.0678 122.499 85.5933C121.401 85.1053 120.567 84.3394 119.998 83.2957C119.496 82.3468 119.232 81.3776 119.205 80.388C119.178 79.3984 119.164 78.2801 119.164 77.033V57.94H124.044V76.7483C124.044 77.6294 124.051 78.4021 124.064 79.0663C124.092 79.7306 124.234 80.2728 124.491 80.693C124.979 81.5063 125.759 81.9604 126.83 82.0553C127.901 82.1502 129.121 82.096 130.49 81.8927V86ZM115.179 67.883V64.04H130.49V67.883H115.179ZM135.619 60.7053V56.2117H140.519V60.7053H135.619ZM135.619 86V64.04H140.519V86H135.619ZM155.089 86.61C152.378 86.61 150.175 86 148.48 84.78C146.786 83.56 145.756 81.8452 145.39 79.6357L150.392 78.863C150.649 79.9474 151.219 80.8014 152.1 81.425C152.981 82.0486 154.092 82.3603 155.434 82.3603C156.614 82.3603 157.522 82.1299 158.159 81.669C158.81 81.1946 159.135 80.5507 159.135 79.7373C159.135 79.2358 159.013 78.8359 158.769 78.5377C158.539 78.2259 158.023 77.9277 157.224 77.643C156.424 77.3583 155.197 76.9991 153.543 76.5653C151.7 76.0773 150.236 75.5554 149.151 74.9997C148.067 74.4303 147.287 73.7593 146.813 72.9867C146.339 72.214 146.101 71.2787 146.101 70.1807C146.101 68.8116 146.461 67.6187 147.179 66.602C147.897 65.5853 148.901 64.8059 150.188 64.2637C151.476 63.7079 152.994 63.43 154.743 63.43C156.451 63.43 157.962 63.6943 159.277 64.223C160.606 64.7517 161.677 65.504 162.49 66.48C163.303 67.456 163.805 68.6014 163.995 69.9163L158.993 70.811C158.871 69.8757 158.444 69.1369 157.712 68.5947C156.993 68.0524 156.031 67.7474 154.824 67.6797C153.672 67.6119 152.744 67.7881 152.039 68.2083C151.334 68.615 150.981 69.1911 150.981 69.9367C150.981 70.3569 151.124 70.7161 151.408 71.0143C151.693 71.3126 152.262 71.6108 153.116 71.909C153.984 72.2072 155.272 72.5732 156.98 73.007C158.728 73.4543 160.125 73.9694 161.168 74.5523C162.226 75.1217 162.985 75.8062 163.446 76.606C163.92 77.4058 164.157 78.375 164.157 79.5137C164.157 81.7232 163.351 83.4583 161.738 84.719C160.138 85.9797 157.922 86.61 155.089 86.61ZM169.018 60.7053V56.2117H173.918V60.7053H169.018ZM169.018 86V64.04H173.918V86H169.018ZM195.198 86V75.4267C195.198 74.7353 195.15 73.9694 195.055 73.129C194.961 72.2886 194.737 71.482 194.384 70.7093C194.046 69.9231 193.53 69.2792 192.839 68.7777C192.161 68.2761 191.24 68.0253 190.074 68.0253C189.45 68.0253 188.833 68.127 188.223 68.3303C187.613 68.5337 187.058 68.8861 186.556 69.3877C186.068 69.8757 185.675 70.5534 185.377 71.421C185.079 72.275 184.929 73.373 184.929 74.715L182.022 73.4747C182.022 71.604 182.381 69.9096 183.099 68.3913C183.831 66.8731 184.902 65.6667 186.312 64.772C187.722 63.8638 189.457 63.4097 191.517 63.4097C193.144 63.4097 194.486 63.6808 195.543 64.223C196.601 64.7652 197.441 65.4566 198.065 66.297C198.688 67.1374 199.149 68.0321 199.447 68.981C199.746 69.9299 199.935 70.8313 200.017 71.6853C200.112 72.5258 200.159 73.2103 200.159 73.739V86H195.198ZM179.968 86V64.04H184.34V70.8517H184.929V86H179.968ZM214.696 96.37C213.476 96.37 212.304 96.1802 211.179 95.8007C210.067 95.4211 209.064 94.8721 208.169 94.1537C207.275 93.4488 206.543 92.5948 205.973 91.5917L210.487 89.355C210.908 90.1548 211.497 90.7444 212.256 91.124C213.029 91.5171 213.849 91.7137 214.717 91.7137C215.733 91.7137 216.642 91.5307 217.441 91.1647C218.241 90.8122 218.858 90.2836 219.292 89.5787C219.739 88.8873 219.949 88.0198 219.922 86.976V80.7337H220.532V64.04H224.822V87.0573C224.822 87.6131 224.795 88.1418 224.741 88.6433C224.7 89.1584 224.626 89.66 224.517 90.148C224.192 91.5713 223.569 92.7371 222.647 93.6453C221.725 94.5671 220.58 95.2517 219.21 95.699C217.855 96.1463 216.35 96.37 214.696 96.37ZM214.269 86.61C212.25 86.61 210.487 86.1017 208.983 85.085C207.478 84.0683 206.312 82.6857 205.485 80.937C204.659 79.1883 204.245 77.216 204.245 75.02C204.245 72.7969 204.659 70.8178 205.485 69.0827C206.326 67.334 207.512 65.9581 209.044 64.955C210.576 63.9383 212.378 63.43 214.452 63.43C216.54 63.43 218.289 63.9383 219.698 64.955C221.122 65.9581 222.199 67.334 222.931 69.0827C223.663 70.8313 224.029 72.8104 224.029 75.02C224.029 77.2024 223.663 79.1748 222.931 80.937C222.199 82.6857 221.108 84.0683 219.658 85.085C218.207 86.1017 216.411 86.61 214.269 86.61ZM215.022 82.218C216.337 82.218 217.394 81.9198 218.194 81.3233C219.007 80.7133 219.597 79.8661 219.963 78.7817C220.342 77.6972 220.532 76.4433 220.532 75.02C220.532 73.5831 220.342 72.3292 219.963 71.2583C219.597 70.1739 219.021 69.3334 218.234 68.737C217.448 68.127 216.432 67.822 215.184 67.822C213.87 67.822 212.785 68.1473 211.931 68.798C211.077 69.4351 210.447 70.3027 210.04 71.4007C209.633 72.4851 209.43 73.6916 209.43 75.02C209.43 76.362 209.627 77.582 210.02 78.68C210.426 79.7644 211.043 80.6252 211.87 81.2623C212.697 81.8994 213.748 82.218 215.022 82.218Z" fill="black"/>
</svg>
