<svg width="159" height="85" viewBox="0 0 159 85" fill="none" xmlns="http://www.w3.org/2000/svg">
<path d="M10.32 0.418667L10.4013 1.354L11.4587 0.703333L11.784 1.15067C11.418 1.476 11.0927 1.72 10.8487 2.00467C10.9707 2.53333 11.418 2.33 11.7433 2.33C11.784 2.49267 11.7027 2.696 11.7433 2.818C11.906 3.306 11.7433 3.71267 11.6213 4.16L10.9707 5.78667C10.93 5.94933 10.8487 6.03067 10.7267 6.15267C10.6453 6.234 10.564 6.356 10.564 6.51867C10.564 7.25067 10.2387 7.86067 9.954 8.51133C9.79133 8.83667 9.54733 9.12133 9.588 9.48733C9.54733 9.65 9.466 9.81267 9.38467 10.016C8.77467 11.5207 8.246 13.0253 7.71733 14.53C7.47333 15.0993 7.31067 15.5873 7.148 16.1567C7.10733 16.4413 6.98533 16.7667 7.06667 17.092C7.35133 17.214 7.514 17.0107 7.636 16.9293C8.612 16.238 9.62867 15.4247 10.564 14.6113C11.9873 13.3913 13.2073 11.9273 14.5087 10.626C15.078 10.0567 15.4847 9.44667 16.0133 8.83667C16.3793 8.43 16.7047 8.02333 17.03 7.53533C17.2333 7.21 17.5993 7.21 17.762 6.76267C17.884 6.43733 18.2093 6.15267 18.372 5.868C18.616 5.58333 18.8193 5.33933 18.982 5.09533L19.6733 4.24133C19.9173 3.916 20.1207 3.63133 20.3647 3.38733C20.4867 3.14333 20.6493 2.98067 20.7307 2.77733C20.934 2.24867 21.422 1.92333 21.788 1.55733C22.032 1.19133 22.4387 1.232 22.8047 1.19133C23.008 1.354 22.9267 1.51667 22.886 1.63867C22.6827 2.04533 22.4793 2.53333 22.1947 3.02133C22.4387 2.89933 22.5607 2.94 22.6013 2.85867C22.9267 2.452 23.2113 1.964 23.5367 1.55733C24.3907 1.80133 24.5533 2.00467 24.594 2.77733L24.5533 2.98067C24.8787 3.63133 24.472 4.16 24.228 4.72933C24.0247 5.09533 23.74 5.38 23.618 5.82733C23.4553 6.27467 23.0893 6.68133 22.886 7.088C22.642 7.454 22.398 7.86067 22.154 8.186C21.788 8.796 21.4627 9.406 21.1373 10.016L20.6493 10.87C20.4053 11.4393 19.958 11.7647 19.7953 12.4153C19.5513 12.9033 19.226 13.3507 18.982 13.8387C18.5347 14.5707 18.0873 15.384 17.5587 16.0753C17.4773 16.1567 17.4367 16.3193 17.396 16.482C17.3147 16.604 17.3147 16.7667 17.274 16.8887C16.6233 17.824 16.298 18.8407 15.7287 19.776C15.2 20.7113 14.8747 21.6873 14.4273 22.5413C13.6547 24.0867 13.0447 25.7133 12.4753 27.2587C12.1093 28.194 11.7027 29.2107 11.7027 30.268L11.662 30.4307C11.54 31.4067 10.9707 31.8947 10.198 32.2607C10.076 32.3013 9.87267 32.2607 9.66933 32.2607C9.54733 32.2607 9.38467 32.22 9.344 32.098C9.14067 31.5287 9.14067 30.9593 9.38467 30.4307C9.42533 30.39 9.54733 30.1867 9.54733 30.1867C9.26267 29.9427 9.588 29.658 9.54733 29.3733C9.54733 29.3327 9.50667 29.3327 9.466 29.292L9.38467 29.2513C9.30333 29.292 9.222 29.3327 9.222 29.414C9.1 29.6987 8.81533 29.9427 8.57133 30.0647C8.77467 30.3493 8.81533 30.7153 8.65267 31C8.612 31.0813 8.53067 31.2033 8.44933 31.2033C8.32733 31.2033 8.16467 31.1627 8.124 31.0407C8.08333 30.9187 7.96133 30.6747 7.96133 30.4713C7.83933 29.3733 7.96133 28.682 8.40867 27.34C9.01867 25.388 9.79133 23.5173 10.6047 21.6873C10.9707 20.8333 11.418 19.9387 11.8247 19.044C11.8653 18.9627 11.8653 18.8407 11.906 18.7593C11.6213 18.678 11.4587 18.8813 11.296 18.9627C10.808 19.3693 10.3607 19.6947 9.87267 20.0607C9.50667 20.386 9.01867 20.63 8.49 20.5893C8.28667 20.5893 8.28667 20.752 8.16467 20.8333C8.04267 20.996 7.79867 21.118 7.59533 21.118C7.18867 21.2807 6.782 21.484 6.33467 21.362C5.76533 21.1993 5.15533 21.1993 4.66733 20.7927C4.01667 20.3047 3.488 19.8167 3.366 19.0033C3.56933 18.5967 3.08133 18.19 3.122 17.7427C3.32533 16.97 3.28467 16.1973 3.52867 15.4653C3.77267 14.3673 3.976 13.31 4.50467 12.2933C4.708 11.48 5.03333 10.7073 5.35867 9.93467L7.392 4.81067C7.514 4.526 7.392 4.07867 7.79867 3.95667C7.83933 3.916 7.83933 3.83467 7.83933 3.83467C7.67667 3.184 8.124 2.65533 8.20533 2.00467C8.368 1.27267 8.89667 0.744001 9.588 0.418667C9.79133 0.337335 10.076 0.378001 10.32 0.418667ZM9.99467 27.9093L10.442 26.8113C11.1333 24.7373 11.906 22.704 12.8413 20.7927L13.3293 19.898C13.8987 18.5967 14.5493 17.336 15.322 16.116C15.4847 15.872 15.566 15.6687 15.444 15.384C14.9153 15.7907 14.9153 15.8313 14.712 16.2787C14.6307 16.5227 14.5087 16.726 14.346 17.0107C13.8173 17.9053 13.4513 18.9627 12.8007 19.8573C12.7193 20.02 12.6787 20.2233 12.638 20.386C12.028 21.6467 11.6213 23.0293 10.8487 24.168C10.808 24.2087 10.7267 24.29 10.7267 24.3713C10.6047 25.1847 10.2387 25.9573 9.99467 26.8113C9.87267 27.1367 9.79133 27.5433 9.99467 27.9093ZM17.5587 8.87733C17.6807 8.83667 17.8027 8.796 17.8433 8.71467C17.9653 8.47067 17.884 8.186 17.64 8.064C17.64 8.02333 17.518 8.02333 17.4773 8.064C17.3147 8.186 17.152 8.308 17.2333 8.51133C17.274 8.63333 17.396 8.75533 17.5587 8.87733ZM5.15533 13.8387L5.074 14.164C5.15533 14.2453 5.27733 14.286 5.35867 14.286C5.562 14.164 5.64333 14.0013 5.64333 13.7573C5.64333 13.676 5.60267 13.554 5.52133 13.554C5.48067 13.5133 5.318 13.5133 5.23667 13.554C5.15533 13.676 5.11467 13.8793 5.15533 13.8387ZM21.2187 4.97333L22.032 4.44467C21.3407 4.282 21.056 4.404 21.2187 4.97333ZM9.832 18.0273C10.0353 18.068 10.1167 17.9867 10.2793 17.824V17.702C10.2387 17.6207 10.1573 17.58 10.076 17.58L9.75067 17.7833C9.66933 17.824 9.71 17.9053 9.71 17.946C9.75067 17.9867 9.79133 18.0273 9.832 18.0273ZM12.5567 16.1567C12.9633 16.1973 13.126 16.0753 13.248 15.9127C13.3293 15.872 13.3293 15.7907 13.2887 15.7093C13.248 15.6687 13.126 15.6687 13.126 15.6687C12.9633 15.7907 12.8007 15.994 12.5567 16.1567ZM32.2088 21.484C32.5342 22.1753 32.3308 22.094 31.8835 22.2973C31.9648 22.5007 32.0462 22.704 31.9648 22.9073C31.8022 23.4767 31.5582 23.924 31.2328 24.534C31.1515 24.29 31.1108 24.29 31.1108 24.2087C31.0702 24.1273 30.9888 24.0867 31.0295 24.0053C30.5415 24.29 30.5415 24.29 30.9482 24.9813C30.5008 25.998 29.8095 26.8113 29.1588 27.584C29.0775 27.7467 28.9148 27.7873 28.7928 27.8687C28.7115 27.9093 28.5488 27.95 28.4675 28.1127C28.3455 28.2753 28.1015 28.3973 28.1015 28.6007C27.8982 29.0073 27.4915 29.2513 27.1255 29.4953C26.4748 30.0647 25.7835 30.4713 24.9702 30.7967C24.0755 31.122 23.1808 31.0813 22.2455 30.9593C22.0828 30.9187 22.1235 30.4713 21.8388 30.4307C21.5542 30.39 21.3102 30.2273 21.1068 30.146C20.5782 29.9427 20.3748 29.5767 20.4155 29.0887C20.4155 28.8447 20.2122 28.8447 20.1308 28.682C20.2935 28.6413 20.4562 28.6413 20.7002 28.6007C20.4562 28.316 20.0495 28.3567 19.8462 28.1533C19.6022 27.8687 19.6022 27.5433 19.5615 27.218C19.5208 26.3233 19.3582 25.388 19.4802 24.4933C19.6022 23.5173 19.6428 22.46 20.0902 21.5247C20.2935 20.9553 20.5375 20.386 20.5782 19.8573C20.6188 19.6947 20.6595 19.5727 20.7408 19.41C21.1475 18.8407 21.1475 18.1493 20.9442 17.5393C20.7002 16.6853 20.9848 15.9533 21.3102 15.14C21.5135 14.4893 21.9608 13.8793 22.4488 13.3507C22.9775 12.7407 23.5875 12.1307 24.3195 11.6833C24.7262 11.358 25.1735 11.0733 25.6208 10.9513C25.8648 10.9107 26.0275 10.8293 26.1902 10.748C27.0035 10.26 27.8575 10.1787 28.7115 10.4633C29.5655 10.6667 30.4195 10.9513 31.1108 11.5207C31.2735 11.6427 31.3955 11.7647 31.3955 11.846C31.4768 12.2933 32.0055 12.4153 32.0868 12.7407C32.2088 13.0253 32.4122 13.2693 32.4528 13.432C32.7782 14.3267 32.9815 15.262 33.0628 16.116C33.1848 17.0513 33.2255 17.946 33.0628 18.8407C33.0222 19.044 33.0628 19.288 33.0628 19.532C33.0222 19.7353 33.0222 19.9387 32.9002 20.0607C32.6562 20.3047 32.5342 20.63 32.4935 21.0367C32.4528 21.1587 32.2495 21.3213 32.2088 21.484ZM28.5895 20.386C28.3048 20.4267 28.2642 20.5893 28.2235 20.7927C28.1422 21.118 28.0608 21.24 27.7762 21.1587C27.7355 21.1587 27.6542 21.1993 27.5728 21.118C27.3288 21.0367 27.2475 21.118 27.0848 21.24C27.0442 21.362 26.8815 21.4027 26.7188 21.4433C26.4342 21.4027 26.1088 21.362 25.7835 21.2807C25.3362 21.1993 24.9295 21.118 24.4822 21.0367C24.1162 21.0367 23.9535 21.1587 23.9128 21.5247C23.8722 21.7687 23.8315 21.972 23.6688 22.1347C23.5062 22.2567 23.5062 22.3787 23.4655 22.46C23.3842 22.948 23.3842 23.436 23.3028 23.8833C23.2215 24.412 23.5062 24.9813 22.9368 25.3067C22.9368 25.3473 22.9368 25.388 22.9368 25.4287C23.2622 25.876 23.1402 26.4453 23.3028 26.9333C23.4248 27.1367 23.6282 27.218 23.8722 27.1367C24.6042 26.7707 25.2142 26.242 25.8242 25.7133C26.3528 25.2253 26.8002 24.6153 27.3288 24.1273C27.3695 24.046 27.4508 23.924 27.4915 23.8833C27.4102 23.558 27.6542 23.3547 27.7355 23.07C28.0202 22.5413 28.3048 21.972 28.5488 21.362C28.7115 21.118 28.6708 20.752 28.5895 20.386ZM28.3455 20.0607C28.6708 19.9793 28.7928 19.9793 28.8335 19.9793C29.1995 19.7353 29.4028 19.4507 29.4028 19.0847C29.4435 18.556 29.4028 18.0273 29.4028 17.5393C29.4028 16.726 29.3215 15.9533 29.0368 15.262C28.8742 14.8147 28.7522 14.408 28.3455 14.164C27.6135 14.0827 27.0035 14.4487 26.3528 14.5707C25.9868 14.6927 25.9868 15.1807 25.7022 15.4247C25.5802 15.5467 25.3768 15.6687 25.1735 15.7907C25.0108 15.994 24.9295 16.1567 24.7668 16.238C24.6042 16.6853 24.7668 17.0107 24.8482 17.4173C25.3362 17.2547 25.7022 17.458 26.1088 17.5393C26.5562 17.6207 26.9628 17.702 27.3695 17.7833C27.3695 18.068 27.3695 18.19 27.4102 18.3527C27.8168 18.5153 28.3048 18.19 28.6302 18.6373C28.7928 19.0847 28.5895 19.4913 28.3455 20.0607ZM30.5008 20.63C30.3382 20.7113 30.2975 20.7113 30.2568 20.6707C29.8502 21.5247 29.3622 22.2973 28.9962 23.1107C28.8742 23.2327 28.9148 23.4767 28.9148 23.6393C28.9555 23.7207 29.0368 23.7613 29.0368 23.802C29.0775 23.802 29.1588 23.7613 29.1995 23.7207C29.8502 22.7853 30.3382 21.8093 30.5008 20.63ZM32.0055 14.286C31.7208 14.408 31.4768 14.4487 31.2328 14.5707C31.1922 14.5707 31.1108 14.774 31.1108 14.8553C31.1515 14.9367 31.1922 15.018 31.2735 15.0587C31.5582 15.0993 31.8428 15.14 32.1275 15.1807C32.2495 15.1807 32.2902 15.018 32.2088 14.896C32.2088 14.7333 32.1682 14.5707 32.0055 14.286ZM28.3455 25.1033C28.3455 25.0627 28.2235 24.9 28.1422 24.9C27.8575 24.9 27.7762 25.0627 27.6948 25.3067C27.6948 25.3473 27.7355 25.4693 27.7762 25.4693C27.9388 25.5913 28.1422 25.51 28.3048 25.2253C28.3048 25.2253 28.3048 25.1847 28.3455 25.1033ZM24.7668 28.7633C24.8075 28.3973 24.5635 28.2347 24.2382 28.072C24.1568 28.072 24.0755 28.1533 24.0348 28.1533C23.9942 28.2347 23.9942 28.3567 23.9942 28.3567C24.2382 28.5193 24.4822 28.682 24.6855 28.8447C24.7262 28.8447 24.7262 28.804 24.7668 28.7633ZM51.6882 16.0753C51.6475 16.1973 51.6475 16.4007 51.5662 16.4413L50.9968 16.848C51.0782 17.0107 51.2408 17.1327 51.1188 17.336C48.0282 22.6227 47.0928 25.7947 46.8895 30.146C46.8895 30.268 46.8488 30.3493 46.8082 30.4713C46.7675 30.512 46.6862 30.5933 46.6048 30.5933C46.5642 30.634 46.4828 30.5527 46.4422 30.512C46.4015 30.4713 46.4015 30.3493 46.4828 30.3087C46.5235 30.2273 46.6048 30.1867 46.7268 30.024C46.5642 29.9833 46.4828 29.9427 46.4015 29.9833C45.9948 30.1053 45.7102 30.3087 45.7102 30.7967C45.7102 31.122 45.5475 31.366 45.4255 31.6507C44.9375 31.488 44.9375 31.488 44.4902 31.6507C44.1242 33.074 42.8635 29.5767 43.3515 27.2993C43.3922 27.0553 43.3922 26.852 43.1888 26.608C42.4975 26.974 42.1315 27.706 41.3995 28.0313L41.1962 27.706C40.6268 28.8853 39.7728 29.6987 38.5935 30.1053L38.4308 29.9833C38.1868 29.902 38.1868 30.1053 38.1055 30.1867C37.8208 30.4713 37.4955 30.634 37.1295 30.634C36.8448 30.634 36.5195 30.7153 36.1942 30.634C35.7875 30.512 35.2995 30.39 35.1775 29.8613C35.1368 29.6987 35.0962 29.5767 35.0148 29.4547C34.6488 29.4547 34.9742 29.78 34.7708 29.8613C34.7708 29.8613 34.6895 29.8613 34.6488 29.8207C34.4455 29.5767 34.4048 29.2513 34.1608 28.9667C33.8355 28.7227 33.7542 28.316 33.8762 27.8687C33.9575 27.7467 33.9575 27.5433 33.8762 27.462C33.6322 27.2587 33.8762 27.1773 33.9575 27.0553C33.9982 26.9333 33.9982 26.8113 33.9982 26.73C33.7542 26.5673 33.6322 26.4047 33.6728 26.12L34.2015 23.7613C34.2828 23.3953 34.4862 23.192 34.7708 22.9887C34.9742 22.826 34.8928 22.704 34.5675 22.582C34.7708 21.5247 34.8928 21.2807 35.5028 20.6707C35.3808 20.5487 35.2995 20.4267 35.2182 20.3047C35.3808 19.8167 35.6248 19.3287 35.8282 18.8C35.9095 18.678 36.1128 18.556 36.1942 18.3933C36.2755 18.312 36.4382 18.1493 36.3975 18.068C36.1942 17.6613 36.7228 17.4173 36.5602 17.0107C36.5195 16.9293 36.5602 16.8073 36.6822 16.726C36.8448 16.4007 37.0482 16.0347 37.1702 15.6687C37.2515 15.3027 37.4955 15.018 37.6582 14.652L38.3088 13.554C38.5122 13.2693 38.7968 13.066 39.0815 12.9033C39.2442 12.7407 39.5695 12.7813 39.6508 12.944C39.7728 13.1067 39.7322 13.2693 39.6508 13.4727L38.7155 15.1807C38.6342 15.262 38.5935 15.384 38.5935 15.4653C38.6342 15.7907 38.5122 15.9533 38.3088 16.116C38.1055 16.3193 37.9022 16.4413 37.6582 16.5633C37.7802 16.726 37.8208 16.8887 37.9022 17.0107C37.7802 17.2953 37.6175 17.5393 37.4955 17.9053C37.3735 18.2713 37.1702 18.4747 36.7635 18.5967C36.9668 18.8407 37.0482 19.0033 36.9668 19.3287C36.8855 19.654 36.5602 19.8167 36.5602 20.1827C36.6008 20.5893 36.4788 20.9553 36.4382 21.362C36.3162 21.362 36.1942 21.3213 36.1128 21.2807V22.216C36.3162 22.1753 36.5602 22.094 36.7228 22.0127C36.6822 21.7687 36.5602 21.606 36.4788 21.4433L37.1295 21.606C37.1702 21.606 37.2515 21.484 37.2515 21.4433C37.2922 21.362 37.2922 21.2807 37.2515 21.2807C37.1702 21.118 37.0075 20.996 36.8042 20.8333C36.8448 20.6707 36.8855 20.4267 36.9668 20.264L38.5935 16.6447C38.8782 15.9533 39.2442 15.3433 39.5695 14.652C39.7728 14.1233 40.0575 13.798 40.6675 14.0013C40.7082 14.042 40.8302 13.92 40.8302 13.8793C40.8302 13.798 40.7895 13.7167 40.7082 13.676L40.5455 13.5947C40.5048 13.5947 40.4235 13.554 40.3422 13.5133C40.3828 13.3913 40.4235 13.2693 40.5048 13.188C40.7488 12.7813 41.0335 12.7813 41.3182 13.1473C41.4808 13.3507 41.5622 13.5947 41.7248 13.8387C41.6028 14.042 41.5215 14.2047 41.4402 14.4487C41.8468 14.9773 41.8875 15.262 41.5622 15.7093L40.8708 16.726C40.7895 16.8073 40.6675 16.9293 40.5455 16.9293C40.3828 17.0107 40.2202 17.0107 40.1388 17.1327C40.0168 17.2547 39.8542 17.4173 39.8542 17.5393C39.8542 17.7427 39.9762 17.9053 40.0575 18.1087C39.5288 19.3287 39.0408 20.7113 38.5528 22.0127C38.0648 23.3547 37.7802 24.778 37.4548 26.1607H38.5122C38.6342 26.0793 38.4308 25.876 38.5528 25.7133L38.8782 25.3067C39.2442 25.022 39.6102 24.6967 39.9762 24.4527C40.2202 24.412 40.2608 24.8593 40.5455 24.6153C40.7082 24.4527 40.5455 24.2493 40.5455 24.0867C40.5455 24.0867 40.5455 24.046 40.5048 23.9647C40.9928 23.1513 41.8062 22.582 42.4568 21.8907C42.7415 21.85 42.7415 21.6467 42.8228 21.4433C42.9448 21.1993 43.1075 20.9553 43.3108 20.752C43.6362 20.3453 44.1242 20.264 44.3682 19.6947C44.5308 19.2473 44.9375 18.8813 45.2628 18.434C45.8322 17.458 46.6455 16.6447 47.2555 15.6687C47.5402 15.2213 47.9468 14.8553 48.4755 14.6927C48.4755 14.3673 48.3535 14.0827 48.6382 13.798C48.7602 13.5947 48.8822 13.5947 49.2075 13.798H49.3702C49.5735 13.3913 49.5735 12.8627 49.9802 12.578C50.2242 12.578 49.9395 12.822 50.0615 12.944C50.1835 13.0253 50.2242 13.1067 50.3462 13.2287C50.1835 13.6353 49.9395 13.9607 49.6142 14.2047V14.4487C49.6142 14.53 49.7768 14.53 49.8988 14.4893C49.9802 14.408 50.1022 14.3267 50.1428 14.2453C50.5902 13.798 50.9968 13.3913 51.3628 12.944L51.7695 13.0253C52.2982 13.1473 52.5422 13.554 52.2982 14.042L51.9728 14.4487C51.6882 14.6113 51.8915 14.8553 51.9322 15.018L52.6235 14.408C52.4202 15.14 52.2575 15.7093 51.6882 16.0753ZM44.6935 20.5487C44.4902 20.8333 44.1242 20.7113 43.8802 20.874C43.9208 20.9553 44.0022 21.0773 44.1242 21.118C44.3275 21.1993 44.5308 21.1993 44.7342 21.1993C45.0188 21.1993 45.0595 20.9553 45.0595 20.752C45.1408 20.63 45.3035 20.5487 45.3442 20.386C45.3848 20.3453 45.3442 20.1827 45.3442 20.142C45.2628 20.1013 45.0595 20.1013 45.0188 20.142C44.8562 20.264 44.8155 20.386 44.6935 20.5487ZM42.2128 22.704H43.0668C42.7822 22.216 42.4975 22.338 42.2535 22.5413C42.2128 22.5413 42.2128 22.6227 42.2128 22.704ZM42.1315 26.364C41.9688 26.3233 41.9282 26.242 41.8062 26.242C41.5215 26.242 41.4402 26.364 41.4402 26.5267V26.5673C41.5622 26.73 41.7248 26.6487 41.8468 26.5673C41.9688 26.5673 41.9688 26.486 42.1315 26.364ZM34.8928 26.6487C34.6895 26.5673 34.4455 26.5673 34.2828 26.5673C34.2015 26.5673 34.1202 26.608 34.0388 26.6893C34.2828 26.8113 34.5675 27.0147 34.8928 26.6487ZM40.7488 25.266C41.1148 25.388 41.1148 25.388 41.4402 25.0627C41.0335 24.9407 41.0335 24.9407 40.7488 25.266ZM51.8102 15.5467C51.8508 15.4653 51.8508 15.384 51.8508 15.3027C51.8508 15.384 51.8508 15.4653 51.8102 15.5467ZM63.0148 14.774L63.3401 15.2213C63.5434 15.6687 63.5028 15.872 63.0554 16.0753C62.8928 16.1567 62.6081 16.1973 62.4454 16.2787C62.2828 16.36 62.1608 16.482 62.0388 16.604C61.8354 16.5227 61.5914 16.4413 61.3881 16.3193C61.2661 16.36 61.1848 16.482 61.0221 16.482C60.2901 16.7667 60.0461 17.2953 59.9241 17.946C59.6394 19.2473 59.3141 20.4267 58.9481 21.6467C58.7448 22.3787 58.6634 23.1107 58.5414 23.8833C58.3788 24.778 58.1754 25.632 58.0534 26.5267C57.8908 27.828 57.6874 29.1293 58.2161 30.4713C58.2568 30.756 58.2568 31.0407 58.3381 31.3253C58.2161 31.5287 58.0534 31.732 57.8908 31.854L57.2808 31.7727C57.1994 31.9353 57.1588 32.098 57.0368 32.2607C56.9148 32.464 56.7114 32.586 56.4674 32.5047C56.1421 32.4233 55.9794 32.2607 55.8981 31.9353C55.8981 31.7727 55.8168 31.6507 55.8168 31.5287C55.6948 31.244 55.4914 31.0813 55.4101 31.1627L55.3288 31.5287C55.2881 31.6507 55.2474 31.732 55.2474 31.8133C54.8814 31.6507 54.8001 31.3253 54.6374 31.122C54.2714 30.3087 54.0274 29.5767 54.0681 28.7227C54.1494 25.8353 54.6781 22.9887 55.3288 20.1827C55.5728 19.3693 55.7761 18.5967 55.9794 17.7833L56.0608 17.2547C55.9388 17.214 55.8574 17.1733 55.7354 17.214C55.1254 17.336 54.5154 17.4987 53.8648 17.702C53.4581 17.7833 52.9701 17.824 52.5228 17.6207C52.5228 17.3767 52.5228 17.2547 52.5228 17.092C52.1974 16.8073 51.9534 17.214 51.6281 16.97C51.1808 16.482 51.0588 15.872 51.2214 15.1807C51.3841 14.5707 51.7501 14.2453 52.2788 14.0827L55.7354 13.3913C56.0201 13.3507 56.2234 13.2693 56.5081 13.2693C57.1994 13.2693 57.4841 12.822 57.6874 12.2527C57.7688 12.09 57.8094 12.0087 57.8094 11.846C58.2974 10.382 58.7854 8.95867 59.3548 7.576C59.6394 7.04733 59.7614 6.478 59.9648 5.94933C60.2494 5.258 60.4934 4.48533 60.9001 3.794C61.0221 3.50933 61.3068 3.306 61.1848 2.85867C61.3474 2.452 61.5101 2.00467 61.7134 1.63867C61.8761 1.39467 62.1201 1.39467 62.3641 1.232C62.2828 1.06933 62.2421 0.947334 62.1201 0.866C62.2421 0.662666 62.4048 0.540668 62.6081 0.662666C62.7301 0.703333 62.8521 0.825333 62.9741 0.866C62.9741 0.825333 63.0148 0.784667 63.0148 0.744001C63.0148 0.540668 62.9334 0.337335 63.2181 0.418667C63.4214 0.418667 63.5434 0.622 63.4621 0.825333C63.5028 0.906668 63.5028 0.988 63.4621 1.11L62.9334 2.208C62.6488 2.24867 62.3234 2.33 61.9168 2.37067L62.6488 2.98067C62.2828 3.71267 62.0388 4.44467 61.7541 5.17667C61.6728 5.29867 61.5508 5.42067 61.4694 5.58333C61.3881 5.66467 61.2661 5.746 61.2661 5.78667C61.5101 6.27467 61.1034 6.64067 60.9814 7.00667C60.9001 7.332 60.6561 7.21 60.3714 7.21C60.2494 7.49467 60.7374 7.576 60.6154 7.77933C60.4528 8.22667 60.2901 8.63333 60.2088 9.12133C60.0868 9.528 59.7208 9.772 59.7208 10.26C59.6394 10.6667 59.3954 11.0733 59.2734 11.5207C59.2328 11.968 58.9888 12.334 58.9888 12.8627C59.1514 12.822 59.3141 12.822 59.2734 12.7407L60.0461 10.87L61.3881 7.25067L61.8354 6.112C62.2828 4.93267 62.7708 3.794 63.1774 2.61467C63.2588 2.37067 63.4214 2.208 63.5028 1.92333C63.6248 1.63867 63.8281 1.39467 64.1941 1.39467C64.3161 1.39467 64.4381 1.354 64.4381 1.27267C64.5194 1.19133 64.5601 1.06933 64.4381 0.988C64.3974 0.906668 64.2754 0.906668 64.1128 0.866C64.3974 0.581334 64.5194 0.581334 64.6821 0.703333L65.1701 1.19133C65.3734 1.39467 65.4141 1.63867 65.2921 1.842C65.1294 2.04533 65.2108 2.24867 65.3734 2.452C65.5768 2.77733 65.4141 3.02133 65.2108 3.306C65.1294 3.38733 64.8448 3.38733 64.7228 3.672L65.2108 3.75333V3.916L64.6414 4.85133L64.1941 5.70533C64.1534 5.746 64.0721 5.82733 64.0721 5.94933C63.9094 7.16933 63.2181 8.14533 62.9334 9.284C62.8928 9.56867 62.5674 9.81267 62.4454 10.0973C62.3641 10.4633 62.4048 10.87 62.0794 11.1547C62.0794 11.5207 61.9574 11.846 61.8354 12.1713C61.7541 12.5373 61.8354 12.944 61.9168 13.3507C62.2014 13.554 62.2828 13.2693 62.4454 13.31C62.6488 13.554 62.8928 13.554 63.2181 13.432C63.2588 13.432 63.2588 13.432 63.2994 13.4727C63.5028 13.7573 63.3401 14.286 63.0148 14.408L62.6488 14.53C62.6081 14.53 62.5674 14.652 62.5674 14.7333C62.6081 14.7333 62.6894 14.774 62.7708 14.774C62.8114 14.8147 62.8928 14.774 63.0148 14.774ZM57.9314 17.214C57.6874 17.214 57.5654 17.214 57.5654 17.2547C57.2808 18.1087 56.9554 18.9627 56.7114 19.8167C56.4268 20.9553 56.2234 22.1347 56.0608 23.314C55.9388 24.046 55.8168 24.778 55.7354 25.5507C55.6948 25.7133 55.7761 25.8353 55.9794 25.8353C56.2234 24.9 56.3454 23.9647 56.5081 23.0293C56.7521 22.0533 56.9961 21.0773 57.1588 20.1013C57.4434 19.2067 57.6468 18.2713 57.9314 17.214ZM52.8888 14.6113L52.6854 14.408C52.5634 14.3673 52.4008 14.6113 52.4821 14.774C52.5228 14.8147 52.6041 14.896 52.6448 14.896C52.8074 14.896 52.8888 14.8147 52.8888 14.6113ZM62.2014 13.8793C61.9168 13.8793 61.7948 13.798 61.6321 13.8387L61.3881 13.9607L61.4288 14.0827C61.4694 14.2047 61.5914 14.2047 61.7134 14.164C61.8761 14.0827 61.9168 14.0013 62.2014 13.8793ZM80.2819 16.0753C80.2412 16.1973 80.2412 16.4007 80.1599 16.4413L79.5906 16.848C79.6719 17.0107 79.8346 17.1327 79.7126 17.336C76.6219 22.6227 75.6866 25.7947 75.4832 30.146C75.4832 30.268 75.4426 30.3493 75.4019 30.4713C75.3612 30.512 75.2799 30.5933 75.1986 30.5933C75.1579 30.634 75.0766 30.5527 75.0359 30.512C74.9952 30.4713 74.9952 30.3493 75.0766 30.3087C75.1172 30.2273 75.1986 30.1867 75.3206 30.024C75.1579 29.9833 75.0766 29.9427 74.9952 29.9833C74.5886 30.1053 74.3039 30.3087 74.3039 30.7967C74.3039 31.122 74.1412 31.366 74.0192 31.6507C73.5312 31.488 73.5312 31.488 73.0839 31.6507C72.7179 33.074 71.4572 29.5767 71.9452 27.2993C71.9859 27.0553 71.9859 26.852 71.7826 26.608C71.0912 26.974 70.7252 27.706 69.9932 28.0313L69.7899 27.706C69.2206 28.8853 68.3666 29.6987 67.1872 30.1053L67.0246 29.9833C66.7806 29.902 66.7806 30.1053 66.6992 30.1867C66.4146 30.4713 66.0892 30.634 65.7232 30.634C65.4386 30.634 65.1132 30.7153 64.7879 30.634C64.3812 30.512 63.8932 30.39 63.7712 29.8613C63.7306 29.6987 63.6899 29.5767 63.6086 29.4547C63.2426 29.4547 63.5679 29.78 63.3646 29.8613C63.3646 29.8613 63.2832 29.8613 63.2426 29.8207C63.0392 29.5767 62.9986 29.2513 62.7546 28.9667C62.4292 28.7227 62.3479 28.316 62.4699 27.8687C62.5512 27.7467 62.5512 27.5433 62.4699 27.462C62.2259 27.2587 62.4699 27.1773 62.5512 27.0553C62.5919 26.9333 62.5919 26.8113 62.5919 26.73C62.3479 26.5673 62.2259 26.4047 62.2666 26.12L62.7952 23.7613C62.8766 23.3953 63.0799 23.192 63.3646 22.9887C63.5679 22.826 63.4866 22.704 63.1612 22.582C63.3646 21.5247 63.4866 21.2807 64.0966 20.6707C63.9746 20.5487 63.8932 20.4267 63.8119 20.3047C63.9746 19.8167 64.2186 19.3287 64.4219 18.8C64.5032 18.678 64.7066 18.556 64.7879 18.3933C64.8692 18.312 65.0319 18.1493 64.9912 18.068C64.7879 17.6613 65.3166 17.4173 65.1539 17.0107C65.1132 16.9293 65.1539 16.8073 65.2759 16.726C65.4386 16.4007 65.6419 16.0347 65.7639 15.6687C65.8452 15.3027 66.0892 15.018 66.2519 14.652L66.9026 13.554C67.1059 13.2693 67.3906 13.066 67.6752 12.9033C67.8379 12.7407 68.1632 12.7813 68.2446 12.944C68.3666 13.1067 68.3259 13.2693 68.2446 13.4727L67.3092 15.1807C67.2279 15.262 67.1872 15.384 67.1872 15.4653C67.2279 15.7907 67.1059 15.9533 66.9026 16.116C66.6992 16.3193 66.4959 16.4413 66.2519 16.5633C66.3739 16.726 66.4146 16.8887 66.4959 17.0107C66.3739 17.2953 66.2112 17.5393 66.0892 17.9053C65.9672 18.2713 65.7639 18.4747 65.3572 18.5967C65.5606 18.8407 65.6419 19.0033 65.5606 19.3287C65.4792 19.654 65.1539 19.8167 65.1539 20.1827C65.1946 20.5893 65.0726 20.9553 65.0319 21.362C64.9099 21.362 64.7879 21.3213 64.7066 21.2807V22.216C64.9099 22.1753 65.1539 22.094 65.3166 22.0127C65.2759 21.7687 65.1539 21.606 65.0726 21.4433L65.7232 21.606C65.7639 21.606 65.8452 21.484 65.8452 21.4433C65.8859 21.362 65.8859 21.2807 65.8452 21.2807C65.7639 21.118 65.6012 20.996 65.3979 20.8333C65.4386 20.6707 65.4792 20.4267 65.5606 20.264L67.1872 16.6447C67.4719 15.9533 67.8379 15.3433 68.1632 14.652C68.3666 14.1233 68.6512 13.798 69.2612 14.0013C69.3019 14.042 69.4239 13.92 69.4239 13.8793C69.4239 13.798 69.3832 13.7167 69.3019 13.676L69.1392 13.5947C69.0986 13.5947 69.0172 13.554 68.9359 13.5133C68.9766 13.3913 69.0172 13.2693 69.0986 13.188C69.3426 12.7813 69.6272 12.7813 69.9119 13.1473C70.0746 13.3507 70.1559 13.5947 70.3186 13.8387C70.1966 14.042 70.1152 14.2047 70.0339 14.4487C70.4406 14.9773 70.4812 15.262 70.1559 15.7093L69.4646 16.726C69.3832 16.8073 69.2612 16.9293 69.1392 16.9293C68.9766 17.0107 68.8139 17.0107 68.7326 17.1327C68.6106 17.2547 68.4479 17.4173 68.4479 17.5393C68.4479 17.7427 68.5699 17.9053 68.6512 18.1087C68.1226 19.3287 67.6346 20.7113 67.1466 22.0127C66.6586 23.3547 66.3739 24.778 66.0486 26.1607H67.1059C67.2279 26.0793 67.0246 25.876 67.1466 25.7133L67.4719 25.3067C67.8379 25.022 68.2039 24.6967 68.5699 24.4527C68.8139 24.412 68.8546 24.8593 69.1392 24.6153C69.3019 24.4527 69.1392 24.2493 69.1392 24.0867C69.1392 24.0867 69.1392 24.046 69.0986 23.9647C69.5866 23.1513 70.3999 22.582 71.0506 21.8907C71.3352 21.85 71.3352 21.6467 71.4166 21.4433C71.5386 21.1993 71.7012 20.9553 71.9046 20.752C72.2299 20.3453 72.7179 20.264 72.9619 19.6947C73.1246 19.2473 73.5312 18.8813 73.8566 18.434C74.4259 17.458 75.2392 16.6447 75.8492 15.6687C76.1339 15.2213 76.5406 14.8553 77.0692 14.6927C77.0692 14.3673 76.9472 14.0827 77.2319 13.798C77.3539 13.5947 77.4759 13.5947 77.8012 13.798H77.9639C78.1672 13.3913 78.1672 12.8627 78.5739 12.578C78.8179 12.578 78.5332 12.822 78.6552 12.944C78.7772 13.0253 78.8179 13.1067 78.9399 13.2287C78.7772 13.6353 78.5332 13.9607 78.2079 14.2047V14.4487C78.2079 14.53 78.3706 14.53 78.4926 14.4893C78.5739 14.408 78.6959 14.3267 78.7366 14.2453C79.1839 13.798 79.5906 13.3913 79.9566 12.944L80.3632 13.0253C80.8919 13.1473 81.1359 13.554 80.8919 14.042L80.5666 14.4487C80.2819 14.6113 80.4852 14.8553 80.5259 15.018L81.2172 14.408C81.0139 15.14 80.8512 15.7093 80.2819 16.0753ZM73.2872 20.5487C73.0839 20.8333 72.7179 20.7113 72.4739 20.874C72.5146 20.9553 72.5959 21.0773 72.7179 21.118C72.9212 21.1993 73.1246 21.1993 73.3279 21.1993C73.6126 21.1993 73.6532 20.9553 73.6532 20.752C73.7346 20.63 73.8972 20.5487 73.9379 20.386C73.9786 20.3453 73.9379 20.1827 73.9379 20.142C73.8566 20.1013 73.6532 20.1013 73.6126 20.142C73.4499 20.264 73.4092 20.386 73.2872 20.5487ZM70.8066 22.704H71.6606C71.3759 22.216 71.0912 22.338 70.8472 22.5413C70.8066 22.5413 70.8066 22.6227 70.8066 22.704ZM70.7252 26.364C70.5626 26.3233 70.5219 26.242 70.3999 26.242C70.1152 26.242 70.0339 26.364 70.0339 26.5267V26.5673C70.1559 26.73 70.3186 26.6487 70.4406 26.5673C70.5626 26.5673 70.5626 26.486 70.7252 26.364ZM63.4866 26.6487C63.2832 26.5673 63.0392 26.5673 62.8766 26.5673C62.7952 26.5673 62.7139 26.608 62.6326 26.6893C62.8766 26.8113 63.1612 27.0147 63.4866 26.6487ZM69.3426 25.266C69.7086 25.388 69.7086 25.388 70.0339 25.0627C69.6272 24.9407 69.6272 24.9407 69.3426 25.266ZM80.4039 15.5467C80.4446 15.4653 80.4446 15.384 80.4446 15.3027C80.4446 15.384 80.4446 15.4653 80.4039 15.5467ZM87.5825 15.384L87.7452 15.5467L88.3145 14.8553C88.6399 14.286 89.2092 14.042 89.5345 13.4727C89.8599 12.9847 90.3885 12.7 90.8359 12.2527L91.1612 12.0087C91.3239 11.8867 91.4865 11.968 91.6492 12.1307L91.7712 12.4153C91.8119 12.456 91.8932 12.456 91.9339 12.456C91.8932 12.4153 92.0152 12.3747 92.0152 12.334C92.0152 12.1713 91.9339 12.0087 91.8932 11.8053C92.1372 11.7647 92.3405 11.7647 92.5032 11.602C92.6659 11.48 92.8692 11.2767 93.1539 11.3173C93.3979 11.3173 93.5605 11.3173 93.8045 11.2767C94.0485 11.4393 94.2112 11.8053 94.6585 11.6427C94.9025 11.5613 94.9432 12.0493 95.2279 12.0493L95.2685 12.6187C95.3092 12.944 95.4312 12.9847 95.7972 12.7407C95.9192 12.6187 96.0412 12.7 96.0412 12.822C96.2445 13.0253 96.2039 13.0253 95.9599 13.554L96.4072 13.7167L96.4885 14.53C96.5699 15.14 96.5699 15.14 96.1225 15.5873C96.2852 15.75 96.4479 15.9127 96.6512 16.0753C96.6919 17.0513 96.4479 17.9053 96.3259 18.8813C96.2852 19.166 95.9192 19.1253 95.8379 19.41C95.8785 19.532 96.0005 19.6947 96.1632 19.8167C95.9599 20.3453 95.7972 20.9147 95.5939 21.484C95.5532 21.6467 95.4312 21.7687 95.4719 21.85C95.5532 22.3787 95.1465 22.5413 94.8212 22.826C94.7805 23.1107 95.1872 23.436 94.8212 23.7207C94.6585 24.534 94.1299 25.1033 93.8045 25.8353C93.6825 26.0793 93.4792 26.3233 93.3979 26.6487C93.3979 26.8927 93.2352 27.1367 93.0319 27.34C92.4625 28.1533 91.8119 28.8447 91.0392 29.536C90.9579 29.5767 90.8765 29.658 90.7952 29.7393C90.6325 29.8207 90.4699 29.9427 90.2665 29.9833C89.9005 30.146 89.4532 30.3087 89.0465 30.512C88.7619 30.634 88.5179 30.634 88.2739 30.634C87.9079 30.6747 87.5419 30.6747 87.1759 30.7153L86.3625 30.5527C85.3865 30.4307 84.5325 29.9427 83.8005 29.2107C83.6785 29.1293 83.6785 29.1293 83.1905 28.9667C83.0685 29.414 82.8245 29.8613 82.5399 30.2273C82.3365 30.4307 82.2145 30.756 82.0112 31.0407C81.7265 31.488 81.3199 31.7727 80.7505 31.8133L80.6692 31.2847C80.3845 31.3253 80.0592 31.2847 79.8152 31.4067C79.4085 31.5287 79.2459 31.0813 78.8392 31.0813C78.8799 30.9187 79.0019 30.8373 79.0425 30.7153C79.0425 30.5527 79.0425 30.39 79.0425 30.3493C78.5952 30.1053 78.5952 29.6987 78.6359 29.3327C78.6765 28.926 78.7985 28.56 78.9612 28.2347C79.5712 26.7707 80.2219 25.3067 80.8319 23.7613C81.3605 22.4193 81.8079 20.9553 82.2552 19.6133C82.3772 19.288 82.3772 18.8813 82.8245 18.7187C82.8652 18.678 82.9465 18.556 82.9465 18.5153C82.7839 17.7427 83.1092 17.092 83.3125 16.36C83.6785 15.018 84.0852 13.7167 84.4105 12.334C84.5325 11.846 84.7359 11.4393 85.3052 11.2767C85.3459 11.2767 85.3865 11.1953 85.4272 11.1547C85.3865 10.9513 85.2239 10.992 85.1019 10.9107C85.0205 10.8293 84.8985 10.748 84.8985 10.6667C84.9392 10.504 84.9799 10.382 85.0205 10.26C85.4272 8.83667 85.7525 7.332 85.9559 5.82733C86.0372 5.70533 85.9965 5.54267 86.1185 5.38C86.2812 4.85133 86.3219 4.282 85.9965 3.71267C85.9152 3.428 85.9559 3.22467 86.0779 2.94C86.1592 2.89933 86.1592 2.85867 86.2405 2.77733C86.3625 2.49267 86.3219 2.452 85.8339 2.28933C85.9152 1.51667 86.1999 0.988 86.8912 0.622C87.0132 0.581334 87.0945 0.499999 87.1352 0.418667C87.4605 0.0526671 87.8672 0.0526671 88.2739 0.0526671C88.3552 0.0933332 88.4772 0.174668 88.5585 0.256C88.9652 1.11 88.9652 1.11 89.6159 1.27267C89.8599 1.39467 89.9412 1.55733 89.8192 1.842C89.7785 1.88267 89.6972 1.964 89.6972 2.00467L89.7379 2.28933L90.1852 2.24867V2.37067C90.0632 3.59067 90.1039 4.892 89.7785 6.07133C89.6565 6.478 89.6565 6.92533 89.5752 7.29133C89.5752 7.41333 89.5345 7.49467 89.5345 7.61667C89.5345 7.942 89.0059 8.10467 89.1279 8.43C89.2499 8.83667 89.1279 9.12133 89.1279 9.48733C89.0872 9.65 89.0465 9.81267 88.9652 9.97533C88.5179 11.6427 88.1112 13.3507 87.6639 14.9773L87.5825 15.384ZM92.4625 15.8313L91.6085 16.9293C91.1205 17.5393 90.5919 18.068 90.2259 18.678C89.8599 19.3287 89.4125 19.898 88.9652 20.4673C88.7619 20.7113 88.6399 20.9553 88.4365 21.1993L86.8505 23.5987L85.9965 24.8593C85.9152 25.0627 85.8745 25.266 85.8745 25.388C85.8745 25.8353 86.1185 26.2013 86.4032 26.486C87.0132 27.0147 87.9892 27.0147 88.6805 26.5267L89.0872 26.1607C89.5752 25.5507 90.0632 24.9407 90.4292 24.2493C90.8765 23.3953 91.2832 22.582 91.6492 21.6873C92.0152 20.6707 92.1779 19.5727 92.5439 18.5153C92.5032 18.068 92.9099 18.0273 93.1132 17.7427C93.0319 17.458 92.9505 17.214 92.9099 16.8887C92.9099 16.7667 92.8692 16.604 92.9912 16.482C93.1945 16.0753 93.0319 15.8313 92.6659 15.5467C92.6252 15.4247 92.6659 15.262 92.5032 15.3027C92.3405 15.262 92.1372 15.4247 92.0559 15.5467C92.0559 15.628 92.0965 15.75 92.1372 15.75C92.2592 15.7907 92.3812 15.8313 92.4625 15.8313ZM84.7765 18.5967L84.4512 19.776C84.8579 19.4913 84.8985 19.4913 84.9799 19.2473C85.0612 18.6373 85.3052 18.1087 85.8339 17.7833C85.9152 17.7833 85.9152 17.58 85.8339 17.4987L85.5899 17.1733C86.3219 14.7333 86.4845 14.1233 86.4032 13.554C86.1592 14.0827 86.0372 14.4893 85.9152 14.896C85.8339 15.018 85.5899 15.0993 85.6712 15.14C85.8745 15.5467 85.5085 15.872 85.4272 16.2787C85.3459 17.0513 85.0205 17.824 84.7765 18.5967ZM94.2112 20.996C94.2519 20.996 94.2925 20.996 94.2925 20.9553C94.9025 20.3453 94.7805 19.532 95.1465 18.8813C95.1872 18.7593 95.1872 18.556 95.1465 18.5153C94.9839 18.1493 95.4719 18.2713 95.4719 17.9867C95.3092 17.9053 95.1465 17.7427 94.9839 17.6207C94.8619 17.7427 94.7399 17.824 94.7805 17.946C94.5772 18.8 94.4145 19.6947 94.0892 20.4673C94.0079 20.63 94.0485 20.874 94.2112 20.996ZM93.6825 23.3953C93.4792 23.1513 93.2352 23.07 92.9912 23.2733C92.8285 23.3953 92.8692 23.5987 92.9505 23.802C93.1539 23.924 92.8692 24.2087 93.2759 24.3713C93.3979 24.0053 93.6825 23.802 93.6825 23.3953ZM88.8432 3.672C88.8432 3.71267 88.8839 3.83467 88.9245 3.95667C88.9245 3.99733 89.0465 4.07867 89.0872 4.07867C89.1279 4.07867 89.2499 3.916 89.2499 3.87533C89.1279 3.63133 89.1685 3.428 89.3312 3.14333L89.2092 3.062C89.1685 3.02133 89.0465 3.02133 89.0059 3.10267C88.8025 3.22467 88.8432 3.428 88.8432 3.672ZM93.6825 16.97C93.6419 16.97 93.6419 16.9293 93.5605 16.9293L93.3979 17.702C93.3979 17.702 93.4792 17.8647 93.5199 17.8647C93.6419 17.824 93.7232 17.824 93.8045 17.7427C93.8452 17.6613 93.9265 17.58 93.8452 17.458C93.8452 17.2953 93.7639 17.1327 93.6825 16.97ZM87.6639 11.0327C87.3792 10.9107 87.1352 10.9513 87.0132 11.1953C86.9319 11.236 86.9319 11.358 86.9725 11.3987C87.0539 11.48 87.1759 11.5613 87.2572 11.5207C87.4199 11.4393 87.6232 11.3173 87.6639 11.0327ZM94.1299 21.5247C93.9265 21.5653 93.6825 21.606 93.5605 21.728C93.5199 21.7687 93.4792 21.8907 93.5199 22.0127C93.5199 22.0533 93.6419 22.0533 93.6825 22.0533C93.9672 22.0533 94.1705 21.8907 94.1299 21.5247ZM86.5659 13.2287C86.7285 13.066 86.8912 12.944 86.9319 12.7407C86.9725 12.7 86.9319 12.578 86.8912 12.5373C86.8505 12.578 86.7285 12.5373 86.6065 12.5373C86.4032 12.6593 86.4439 12.9033 86.5659 13.2287ZM87.5012 9.48733C87.2572 9.528 87.1352 9.69067 87.2572 9.81267C87.2572 9.85333 87.4199 9.97533 87.5012 9.97533C87.5825 9.93467 87.7859 9.81267 87.7045 9.65C87.7045 9.56867 87.5419 9.56867 87.5012 9.48733ZM95.1059 16.6447L94.7805 16.9293C94.9025 17.0513 94.9432 17.1733 95.0245 17.214C95.1059 17.336 95.2685 17.1327 95.2685 17.0107C95.3092 16.848 95.1872 16.6447 95.1059 16.6447ZM94.8619 14.652L94.5772 14.8553L94.6179 15.0993C94.6992 15.0587 94.8619 15.0587 94.9839 14.9773C95.0652 14.9367 95.1059 14.8147 95.1465 14.7333C95.1059 14.652 95.0245 14.652 94.8619 14.652ZM103.519 13.1067C103.722 13.188 103.6 13.432 103.722 13.554C103.885 13.6353 104.251 13.5133 104.373 13.31C104.454 13.1067 104.373 12.9033 104.413 12.6187C104.901 12.6187 105.43 12.578 105.918 12.6187C106.081 12.6187 106.284 12.7 106.447 12.7813C106.65 12.9033 106.894 12.944 107.179 12.8627C107.626 12.822 108.114 12.9847 108.521 13.1067C108.724 13.4727 108.927 13.0253 109.09 13.1473C109.334 13.2693 109.415 13.554 109.781 13.554C109.944 13.554 110.188 13.6353 110.351 13.7573C111.327 14.2453 112.099 14.9773 112.465 16.0347C112.709 16.604 112.872 17.1733 112.831 17.8647C112.791 18.3527 112.791 18.3527 112.343 18.8407C112.425 18.922 112.465 19.044 112.547 19.1253C112.506 19.2067 112.547 19.288 112.465 19.3287C112.059 20.1013 111.53 20.7927 110.798 21.3213C110.595 21.4433 110.391 21.6467 110.229 21.6873C109.903 21.8093 109.456 21.8093 109.171 22.0127C108.846 22.216 108.521 22.338 108.195 22.4193C108.033 22.338 107.951 22.2567 107.829 22.1753C107.301 22.6633 107.301 22.6633 106.772 22.6633C106.325 22.6633 105.918 22.582 105.511 22.3787C105.471 21.8907 105.105 22.1753 104.82 22.1753C104.657 22.094 104.495 21.9313 104.291 21.7687C104.129 21.6873 104.007 21.5247 103.844 21.5247C103.315 21.484 103.437 21.118 103.397 20.7927C103.193 20.7927 103.071 20.7927 102.909 20.7927C102.827 20.752 102.787 20.7113 102.787 20.7113C102.705 20.5487 102.827 20.264 102.583 20.264C102.461 20.264 102.299 20.4267 102.217 20.5487C102.095 20.9553 101.933 21.362 101.851 21.8093C101.689 22.46 101.567 23.1107 101.485 23.7613C101.404 24.2493 101.445 24.6967 101.526 25.144C101.567 25.5507 101.648 25.998 101.689 26.4453C102.095 26.8113 102.543 27.2587 103.031 27.6653C103.193 27.6653 103.478 27.6247 103.722 27.584C104.251 27.5027 104.861 27.5433 105.43 27.2993C105.918 27.0553 106.447 27.0147 106.975 26.73C107.423 26.486 107.951 26.3233 108.439 26.0793C108.968 25.7947 109.456 25.51 109.944 25.1847C110.635 24.7373 111.327 24.2493 111.937 23.802C112.099 23.68 112.262 23.5987 112.425 23.5173C112.547 23.4767 112.791 23.4767 112.831 23.5173C113.116 23.8427 113.482 23.802 113.848 23.802C113.929 23.8427 114.011 23.802 114.092 23.802C114.743 23.8833 114.824 24.0053 114.702 24.8187C114.824 24.9 114.987 24.9813 115.149 25.1033C115.109 26.3233 114.214 27.0147 113.279 27.5433C112.913 27.7467 112.587 27.7873 112.181 27.9093C112.059 28.072 111.896 28.316 111.774 28.5193C111.652 28.7227 111.205 28.2753 111.205 28.7633C110.798 29.1293 110.351 29.414 109.903 29.536C109.7 29.5767 109.497 29.6173 109.375 29.6987C108.561 30.268 107.667 30.5527 106.772 30.878C105.349 31.3253 103.966 31.4473 102.502 31.2847C101.933 31.2033 101.363 30.9593 101.241 30.268C101.241 30.268 101.201 30.2273 101.16 30.1867C101.038 30.146 100.957 30.146 100.916 30.268C100.875 30.3493 100.835 30.39 100.835 30.4713C100.672 30.5527 100.55 30.4713 100.428 30.39C100.103 30.146 99.7774 29.9427 99.4521 29.658C99.2488 29.414 99.0454 29.17 98.8014 28.926C98.7608 28.804 98.6794 28.7227 98.6794 28.6413C98.3948 27.6653 97.7441 26.7707 97.8254 25.6727C97.8254 25.388 97.7441 25.1033 97.7034 24.8187C97.6628 23.6393 97.7441 22.3787 98.2728 21.24C98.3134 21.0773 98.3948 20.9147 98.3541 20.6707C98.3134 20.3453 98.3134 20.02 98.5981 19.7353C98.7608 19.5727 98.8421 19.288 98.9641 19.0847C98.7608 18.8407 98.9234 18.6373 99.0861 18.434C99.2081 18.2307 99.2894 17.946 99.2894 17.702C99.4521 17.2547 99.6148 16.8073 100.225 16.6853C100.306 16.6853 100.428 16.4413 100.265 16.36C100.103 16.1567 100.184 15.994 100.306 15.872C100.428 15.75 100.591 15.628 100.713 15.506C100.835 15.4247 101.038 15.3433 101.038 15.2213C101.16 14.53 101.729 14.2047 102.177 13.798C102.461 13.5133 102.909 13.3507 103.315 13.1067C103.356 13.1067 103.437 13.1067 103.519 13.1067ZM100.225 19.166C99.8181 19.8167 99.7774 20.02 99.5334 21.2807C99.7368 21.3213 99.7774 21.1993 99.8181 21.0773C100.103 20.4673 100.306 19.8573 100.225 19.166C100.428 19.0847 100.631 18.9627 100.631 18.678C100.428 18.6373 100.225 18.6373 99.8588 18.556C100.021 18.8407 100.143 19.0033 100.225 19.166ZM104.739 16.6447C104.983 17.0107 105.145 17.3767 105.308 17.7427C105.552 18.2307 105.959 18.5153 106.406 18.8C106.528 18.8407 106.691 18.922 106.813 18.8813C107.463 18.7593 108.155 18.5967 108.724 18.1087C109.049 17.7427 108.927 17.1733 108.439 16.9293C107.87 16.6447 107.097 16.6447 106.528 16.1973C106.528 16.1567 106.406 16.1567 106.325 16.1567C106.04 16.2787 105.755 16.238 105.511 16.238C105.227 16.238 105.023 16.482 104.739 16.6447ZM106.04 13.7573C106.243 13.7573 106.447 13.5947 106.528 13.3913C106.528 13.3507 106.487 13.2287 106.447 13.2287C106.203 13.1067 105.959 13.2693 105.918 13.5133C105.918 13.554 105.999 13.6353 106.04 13.7573ZM101.77 15.262C101.892 15.506 101.892 15.628 101.973 15.7093C102.095 15.872 102.258 15.872 102.421 15.75C102.502 15.7093 102.543 15.628 102.543 15.5467C102.543 15.506 102.502 15.4247 102.421 15.4247C102.258 15.384 102.095 15.3433 101.77 15.262ZM104.088 16.6447C104.169 16.5633 104.251 16.5633 104.291 16.482C104.373 16.3193 104.088 15.9533 103.925 15.994C103.844 16.0347 103.844 16.1567 103.844 16.1973C103.925 16.36 104.007 16.482 104.088 16.6447ZM99.5334 22.2567C99.4114 22.1753 99.3708 22.1347 99.2894 22.094C99.2081 22.094 99.0861 22.1753 99.0454 22.1753C98.9641 22.2567 99.1268 22.5007 99.2894 22.46C99.3301 22.46 99.4114 22.3787 99.5334 22.2567ZM19.104 76.122C19.0227 75.878 18.982 75.634 18.9413 75.3493C18.616 75.5527 18.3313 75.6747 18.616 76C18.6973 76.0813 18.6567 76.2847 18.5753 76.4067C18.372 76.7727 17.9653 76.976 17.8027 76.854C17.5587 76.7727 17.396 76.5287 17.3553 76.2847C17.274 75.8373 17.274 75.4307 17.4367 75.024C17.4773 74.78 17.4773 74.536 17.4773 74.3327C17.4773 74.2513 17.3553 74.2107 17.2333 74.1293C17.1113 74.048 16.9893 74.2107 16.9487 74.3327C16.908 74.6173 16.8267 74.902 16.786 75.1867C16.7453 75.3087 16.7453 75.4713 16.7047 75.634C16.542 75.7153 16.3387 75.756 16.176 75.8373C16.1353 75.7967 16.054 75.756 16.054 75.6747C15.8913 74.9427 15.81 74.17 15.9727 73.4787C15.9727 72.95 16.0133 72.4213 16.054 71.8113C16.0133 71.5267 16.1353 71.242 16.2167 70.9573C16.298 70.9167 16.3387 70.7947 16.298 70.6727C16.2573 70.3067 16.298 69.8593 16.5827 69.4933C16.42 69.29 16.7047 69.2087 16.7047 68.9647C16.7453 68.8833 16.6233 68.68 16.5827 68.5173C16.5827 68.2733 16.6233 68.0293 16.9487 67.9073C17.03 67.8667 17.1113 67.7853 17.2333 67.704C17.4773 67.46 17.3553 67.1347 16.9487 67.0533C16.5827 66.9313 16.176 66.972 15.7287 67.0533C14.8747 67.2973 14.0207 67.46 13.2073 67.6227C12.8413 67.6633 12.516 67.7853 12.15 67.8667C11.8653 67.948 11.5807 67.9887 11.2147 68.0293C10.9707 68.0293 10.7673 67.9887 10.564 68.2327C10.5233 68.2327 10.442 68.2733 10.3607 68.2733C9.42533 68.314 9.30333 68.5987 8.978 69.3713C8.93733 69.5747 8.77467 69.7373 8.44933 69.778C8.32733 69.778 8.28667 69.8593 8.32733 69.9813C8.49 70.2253 8.44933 70.4287 8.32733 70.5913C8.124 70.998 8.002 71.3233 7.758 71.6893C7.758 71.7707 7.67667 71.852 7.67667 71.9333C7.59533 72.4213 7.31067 72.8687 7.06667 73.2347C6.904 73.7227 6.74133 74.1293 6.61933 74.536C6.45667 74.5767 6.33467 74.658 6.21267 74.7393C6.172 74.9833 6.538 75.2273 6.13133 75.39C6.09067 75.634 5.928 75.878 5.96867 76.122C6.00933 76.366 5.96867 76.488 5.72467 76.5693C5.60267 76.61 5.48067 76.8133 5.48067 76.854C5.44 77.342 5.03333 77.4233 4.586 77.464C4.42333 77.4233 4.22 77.2607 4.17933 77.1793C4.17933 76.9353 4.13867 76.6913 4.098 76.488C4.098 76.3253 4.05733 76.122 3.93533 76.0407C3.93533 75.9593 3.89467 75.9187 3.732 75.8373C3.732 76.122 3.69133 76.366 3.65067 76.5287C3.61 76.6913 3.52867 76.7727 3.40667 76.854C3.28467 77.0167 2.91867 77.0167 2.83733 76.854C2.512 76.3253 2.30867 75.9187 2.512 75.3087C3 74.1293 3.366 72.95 3.81333 71.8113C3.976 71.364 4.22 70.9573 4.42333 70.5507C4.586 70.3473 4.66733 70.0627 4.74867 69.7373C3.77267 69.4933 2.95933 69.9813 2.146 69.8593C2.10533 69.534 2.55267 69.412 2.30867 69.046C2.22733 69.046 2.146 69.0053 2.10533 69.0867C1.82067 69.1273 1.658 69.2493 1.45467 69.3307C1.414 69.3307 1.21067 69.29 1.21067 69.2493C1.21067 69.2087 1.21067 69.1273 1.25133 69.0053C1.33267 68.8833 1.37333 68.802 1.49533 68.68C1.414 68.6393 1.37333 68.5173 1.25133 68.3953C0.885333 68.1107 0.926 67.7447 1.21067 67.3787C1.49533 67.0127 1.82067 66.6467 2.39 66.606C3.61 66.484 4.78933 66.0773 6.05 65.874C6.57867 65.752 6.94467 65.5487 7.18867 65.0607C7.35133 64.6947 7.514 64.3287 7.758 64.044C7.92067 63.8 8.08333 63.7593 8.20533 63.5967C8.32733 63.434 8.28667 63.2307 8.368 62.9867C8.40867 62.824 8.53067 62.6207 8.69333 62.4173C9.42533 61.1973 10.1573 59.9367 10.93 58.798C11.784 57.3747 12.76 55.992 13.6547 54.65C14.7933 52.9827 16.054 51.3153 17.3553 49.7293C18.0467 48.8753 18.6973 48.062 19.47 47.2487C20.202 46.5167 20.934 45.7033 21.7067 45.012C22.276 44.5647 22.9267 44.1987 23.6587 44.0767C23.984 44.1173 24.106 44.28 24.3907 44.2393C24.838 44.158 25.1633 44.3613 25.448 44.646C25.57 44.768 25.7327 45.012 25.9767 45.134C26.0173 45.622 26.424 46.0693 26.302 46.598C26.18 46.8827 26.2207 47.208 26.18 47.452C25.8547 47.696 26.18 47.9807 25.8953 48.306C25.8547 48.428 25.8547 48.55 25.8547 48.7127C25.936 48.794 25.8953 48.8753 25.8953 48.916C25.692 49.0787 25.4887 49.2007 25.448 49.404C25.3667 49.526 25.5293 49.77 25.57 49.9327C25.57 49.9733 25.57 50.014 25.57 50.0547C25.3667 50.746 25.204 51.478 24.96 52.1693C24.7973 52.7793 24.5533 53.3487 24.3907 53.918C24.3093 54.4467 23.9027 54.8533 23.862 55.4227C23.862 55.9513 23.618 56.358 23.4553 56.846C23.2927 57.2933 23.1707 57.7407 22.9673 58.31C22.886 58.5947 22.886 58.92 22.6013 59.2047C22.52 59.2047 22.52 59.3267 22.52 59.3673C22.6827 59.8147 22.398 60.14 22.3167 60.5873C22.0727 61.4007 21.8287 62.1733 21.5847 63.0273C21.3 64.166 21.0967 65.3453 20.7307 66.5247C20.2833 68.1513 20.08 69.9 19.7953 71.608C19.6733 72.096 19.6327 72.6653 19.6327 73.194C19.592 73.5193 19.47 73.804 19.3073 74.0887C19.5513 74.6173 19.6733 75.0647 19.4293 75.6747C19.3887 75.8373 19.4293 76.0407 19.104 76.122ZM21.4627 50.4207C21.3 50.5833 21.178 50.7053 21.056 50.7867C20.446 51.5187 19.9173 52.1693 19.3073 52.942C18.982 53.3893 18.7787 53.8367 18.2093 54.04C18.1687 54.1213 18.0467 54.2027 18.0467 54.2027C18.0873 54.4873 17.884 54.65 17.7213 54.894C17.518 55.0973 17.274 55.3413 17.2333 55.626C17.152 55.87 16.9893 56.0733 16.8267 56.2767C16.4607 56.7647 16.0947 57.2933 15.81 57.8627C15.1187 58.8793 14.346 59.9367 13.736 61.0753C13.248 61.8887 12.638 62.702 12.15 63.5153C12.0687 63.7593 11.9873 63.9627 11.906 64.2473C11.8653 64.288 11.9873 64.41 12.028 64.4507C12.15 64.4913 12.2313 64.4507 12.3533 64.41C13.248 64.2067 14.102 64.044 14.9967 63.8813C15.7287 63.678 16.4607 63.6373 17.2333 63.556C17.5587 63.5153 17.762 63.3933 17.8027 63.1087C18.0873 62.0513 18.4127 60.994 18.738 59.896C18.86 59.408 18.9413 58.92 19.1853 58.4727C19.47 57.944 19.3887 57.334 19.6327 56.846C19.714 56.602 19.7953 56.3173 19.8767 56.0733C19.9173 55.9107 20.0393 55.6667 20.1207 55.4227C20.324 54.8127 20.4867 54.162 20.69 53.5113C20.7713 53.3487 20.8527 53.1047 21.0153 52.9827C21.056 52.82 21.2187 52.7387 21.3 52.698C21.1373 52.1693 21.1373 52.1693 21.5033 51.9253C21.6253 51.844 21.7067 51.844 21.788 51.7627C21.8287 51.6813 21.91 51.5593 21.8287 51.5187C21.788 51.478 21.6253 51.4373 21.544 51.356C21.422 51.112 21.788 50.7867 21.4627 50.4207ZM19.2667 63.5153C19.3073 63.4747 19.3887 63.3527 19.4293 63.2713C19.714 62.1327 19.9173 60.994 20.446 59.9367C20.4867 59.896 20.4867 59.8553 20.4867 59.8147C20.6087 58.7573 21.056 57.822 21.3813 56.7647C21.5847 55.8293 21.9507 54.8533 22.276 53.8367C22.6827 52.82 23.008 51.7627 23.2927 50.746C23.5367 50.0953 23.6587 49.404 23.7807 48.794C23.862 48.672 23.6993 48.4687 23.5773 48.5093C23.496 48.55 23.4147 48.5907 23.3333 48.672C23.252 48.794 23.13 48.8347 23.252 49.038C23.5367 49.404 23.2927 49.648 23.13 49.9733C22.9673 50.258 22.886 50.5833 22.7233 50.9087C22.6013 50.99 22.6827 51.2747 22.6827 51.478C22.7233 51.5187 22.6013 51.6407 22.6013 51.7627C22.1133 53.43 21.422 55.016 20.9747 56.7647C20.9747 56.8867 20.8933 57.09 20.812 57.212C20.5273 57.456 20.5273 57.822 20.4867 58.1473C20.446 58.5947 20.1207 59.042 20.1207 59.53C19.714 59.9773 19.9173 60.506 19.714 60.9533C19.5107 61.3193 19.592 61.848 19.1853 62.092C19.1853 62.336 19.226 62.58 19.226 62.7833C19.2667 63.0273 18.9413 63.2713 19.2667 63.5153ZM18.4533 67.0127C18.4533 67.0127 18.4533 66.972 18.4127 66.972C18.372 66.972 18.25 66.972 18.25 67.0127C17.8027 67.582 17.9653 68.314 17.9653 68.9647C17.9653 68.9647 18.0467 69.0867 18.0873 69.046C18.1687 69.046 18.25 68.9647 18.25 68.924C18.2907 68.3547 18.4533 67.7853 18.494 67.216C18.4533 67.1347 18.4533 67.0533 18.4533 67.0127ZM17.9247 69.534C17.762 69.9407 17.2333 70.3067 17.5587 70.8353C18.006 70.388 18.006 70.388 17.9247 69.534ZM35.2893 76.0407C34.842 75.7153 34.964 75.268 34.9233 74.902C34.8013 74.0887 34.842 74.0887 34.476 73.804C34.354 74.3327 34.2727 74.8207 34.1507 75.268C33.9067 75.3493 33.866 75.2273 33.8253 75.0647C33.5 74.414 33.378 73.682 33.3373 72.95C33.3373 72.0553 33.2967 71.1607 33.5 70.3067C33.5 70.2253 33.378 70.1033 33.3373 69.9813C33.256 70.0627 33.134 70.0627 33.0933 70.144C32.2393 71.0387 31.426 71.9333 30.45 72.6653C30.4093 72.7467 30.2873 72.8687 30.2467 72.95C29.352 73.926 28.2133 74.6173 27.0747 75.3493C26.5867 75.634 26.0173 75.6747 25.4073 75.878C25.3667 75.878 25.2853 75.878 25.204 75.878C24.106 75.634 23.1707 75.0647 22.4387 74.2107C22.4387 74.17 22.398 74.1293 22.398 74.0887C22.3167 73.926 22.276 73.7633 22.2353 73.56C22.1947 73.438 22.0727 73.2753 22.1133 73.1533C22.2353 72.5433 21.7473 72.0147 21.8693 71.4453C21.8693 71.2827 21.8693 71.0793 21.9507 70.9167C21.9913 70.5507 22.0727 70.266 22.154 69.9C22.276 69.6153 22.7233 69.778 22.8047 69.412C22.6827 69.29 22.52 69.168 22.3573 69.046C22.4387 68.68 22.52 68.3953 22.6013 68.1107C22.642 67.8667 22.7233 67.6633 22.764 67.46C23.252 66.5247 23.5773 65.4673 24.106 64.5727C24.3907 64.044 24.6753 63.5153 25.0007 63.0273C25.2853 62.58 25.692 62.1327 26.058 61.6447C26.2613 61.8073 26.0987 61.9293 26.1393 62.0513C26.18 62.1327 26.2613 62.1733 26.3427 62.1733C26.3833 62.1733 26.5053 62.1733 26.546 62.1327C26.5867 61.97 26.5867 61.8887 26.6273 61.726C26.668 61.6447 26.546 61.36 26.3833 61.1567C26.546 60.872 26.7493 60.75 27.0747 60.8313C27.4 60.9127 27.4813 60.7093 27.278 60.3027C27.4813 60.0993 27.6847 59.8553 27.9287 59.6113C28.0913 59.3673 28.376 59.164 28.7013 59.042C28.8233 59.0013 28.9453 58.7573 29.0267 58.6353C29.9213 58.0253 30.8973 57.5373 31.914 57.1713C31.914 57.1713 32.036 57.1713 32.1173 57.1713C33.134 57.212 34.1507 57.212 35.086 57.822C35.3707 58.0253 35.696 58.2287 35.9807 58.4727C36.306 58.1067 36.5093 57.7 36.6313 57.2933C37.4447 55.1787 38.502 53.186 39.5187 51.234C39.6407 50.99 39.8033 50.7867 39.966 50.624C40.1287 50.6647 40.2507 50.6647 40.4133 50.6647C40.576 50.38 40.1693 50.2987 40.2507 50.014C40.698 49.0787 41.3893 48.2247 42.04 47.33C42.3653 46.9233 42.894 46.7607 43.382 46.5573C43.4633 46.5573 43.5447 46.6387 43.626 46.72C43.6667 46.7607 43.6667 46.8827 43.6667 46.9233C43.5853 47.0453 43.504 47.1673 43.4633 47.33C42.9753 47.8993 42.528 48.5093 42.2027 49.282C42.162 49.404 42.0807 49.4853 42.04 49.648C40.7387 51.6 40.0473 52.9827 38.746 55.626C38.0547 57.09 37.4447 58.6353 36.916 60.2213C36.916 60.3027 36.8753 60.4247 36.8753 60.4247C36.916 60.506 36.9567 60.628 36.9973 60.7093C37.038 60.7093 37.16 60.6687 37.16 60.5873C37.3227 60.1807 37.6073 59.774 37.6887 59.286C38.0953 58.0253 38.6647 56.8053 39.1933 55.626C39.6407 54.65 40.1287 53.7553 40.576 52.8607C40.698 52.6167 40.9827 52.6167 41.064 52.4133C41.064 52.2507 41.064 52.0473 41.1453 51.8847C41.552 51.2747 41.7553 50.4207 42.4467 50.014C42.4873 49.9327 42.528 49.8513 42.528 49.8107C42.5687 49.648 42.5687 49.4447 42.6907 49.3227C43.0973 48.672 43.5447 48.0213 44.0327 47.4113C44.1547 47.2487 44.358 47.1267 44.48 46.964C45.0087 47.0047 45.0087 47.6147 45.456 47.7367C45.334 47.9807 45.2527 48.2247 45.1713 48.3873C45.0087 48.7127 45.0493 48.9567 45.3747 49.16C45.0087 49.8107 44.602 50.3393 44.1547 50.868C43.9107 51.234 43.6667 51.6407 43.4227 52.0473C43.3007 52.088 43.0973 52.0473 42.9753 52.088C42.7313 52.1693 42.5687 52.3727 42.65 52.4947C42.772 52.5353 42.9753 52.5353 43.138 52.576C42.8533 53.064 42.6093 53.552 42.3653 53.9993C41.9587 54.8127 41.552 55.626 41.1453 56.48C40.942 56.8867 40.698 57.2527 40.21 57.3747C40.1287 57.3747 40.1287 57.456 40.088 57.5373C40.21 57.6593 40.332 57.7813 40.4947 57.944C40.2507 58.554 39.966 59.2047 39.722 59.8553C39.5187 60.3433 39.1933 60.75 39.1933 61.3193C38.6647 62.336 38.5427 63.434 38.258 64.5727C37.7293 66.362 37.4853 68.192 37.282 70.0627C37.2413 70.998 37.2413 71.852 37.2413 72.7467C37.2413 73.0313 37.2413 73.3973 37.2413 73.7227C37.282 74.2107 37.404 74.7393 37.038 75.1053C36.672 75.512 36.2247 75.8373 35.696 75.9593C35.5333 76 35.3707 76 35.2893 76.0407ZM24.6347 66.8093C24.35 67.0533 24.0653 67.2567 24.0247 67.6633C23.984 68.192 23.618 68.7207 23.9027 69.3307C24.3907 68.5987 24.5533 67.704 24.716 66.8907C24.96 66.6467 25.1633 66.4027 25.204 65.996C24.96 66.0773 24.6753 66.118 24.472 66.1587C24.1873 66.24 24.0247 66.362 24.106 66.4433C24.1873 66.5653 24.35 66.606 24.472 66.6873C24.5127 66.6873 24.594 66.728 24.6347 66.8093ZM31.0193 66.728C31.426 66.24 31.914 65.752 32.402 65.264C32.5647 65.0607 32.8493 64.9387 32.9713 64.5727C33.0527 64.3287 33.2967 64.288 33.5 64.166C33.9067 63.9627 34.0693 63.6373 33.9067 63.2307C33.8253 62.9867 33.5 62.824 33.8253 62.5393C33.8253 62.5393 33.8253 62.458 33.7847 62.458C33.3373 62.3767 33.378 62.0107 33.2967 61.726C33.1747 61.4413 33.134 61.116 32.768 60.9533C32.0767 61.116 31.426 61.4007 30.938 61.97C30.816 62.1327 30.6533 62.2547 30.5313 62.3767C30.2873 62.6207 29.962 62.7833 29.7587 62.946C29.474 63.1493 29.352 63.556 29.108 63.8C28.8233 64.1253 28.62 64.4507 28.4167 64.776C28.0913 65.3453 27.766 65.8333 27.2373 66.118C27.1967 66.4027 27.278 66.6873 27.156 66.8907C26.8713 67.6227 26.546 68.2733 26.2207 69.046C25.936 69.656 25.814 70.388 25.814 71.12C25.814 71.242 25.8547 71.3233 25.936 71.486C26.0987 71.4047 26.2207 71.4047 26.3427 71.2827C27.0747 70.632 27.8067 69.9813 28.5387 69.29C29.1487 68.68 29.7587 68.1107 30.328 67.5007C30.5313 67.216 30.816 67.1753 31.0193 67.094C31.0193 66.9313 31.0193 66.85 31.0193 66.728ZM31.1007 58.2287C31.1007 58.31 31.1413 58.432 31.2227 58.5133C31.2227 58.5133 31.3853 58.5947 31.426 58.5947C31.4667 58.5133 31.5887 58.3913 31.6293 58.2693C31.7107 58.1067 31.6293 57.9847 31.5073 57.9033C31.426 57.822 31.182 57.8627 31.1413 58.0253C31.1007 58.0253 31.1007 58.1067 31.1007 58.2287ZM27.9693 62.7427C27.9287 62.7833 27.9287 62.824 27.9287 62.824C27.888 62.8647 27.888 62.8647 27.9287 62.9053C28.0913 63.1493 28.3353 63.312 28.62 63.2713C28.6607 63.2713 28.742 63.1493 28.742 63.1087C28.62 62.8647 28.2133 62.702 27.9693 62.7427ZM43.992 49.404C44.1547 49.526 44.1953 49.6073 44.236 49.6073C44.4393 49.77 44.602 49.7293 44.724 49.5667C44.724 49.4853 44.7647 49.3227 44.724 49.3227C44.602 49.2413 44.4393 49.2007 44.358 49.2007C44.2767 49.2413 44.1953 49.3227 43.992 49.404ZM25.0413 74.8207C24.8787 74.8207 24.716 74.902 24.7567 75.0647C24.7973 75.2273 24.8787 75.3493 25.082 75.3493C25.1633 75.3087 25.204 75.2273 25.2853 75.146C25.326 74.9833 25.204 74.8613 25.0413 74.8207ZM24.7567 65.3047C25.0007 65.3453 25.1633 65.386 25.3667 65.386C25.4073 65.386 25.5293 65.264 25.5293 65.264C25.4887 65.1827 25.448 65.0607 25.3667 65.02C25.1227 64.898 24.8787 65.02 24.7567 65.3047ZM34.3133 62.702C34.232 63.1087 34.0287 63.3527 34.3133 63.5967C34.3133 63.6373 34.3947 63.5967 34.4353 63.556C34.6387 63.312 34.4353 63.068 34.3133 62.702ZM33.2967 66.5247C33.378 66.4027 33.5813 66.3213 33.6627 66.1993C33.744 66.118 33.6627 65.996 33.6627 65.874C33.5813 65.9147 33.5 65.874 33.4593 65.9147C33.3373 66.0367 33.256 66.24 33.134 66.3213C33.134 66.362 33.1747 66.4027 33.1747 66.4027C33.2153 66.4433 33.2153 66.484 33.2967 66.5247ZM28.4573 60.7093C28.9047 60.506 29.0267 60.3027 29.1893 60.0587C28.742 59.9367 28.62 60.262 28.4573 60.7093ZM35.696 59.652C35.696 59.5707 35.6553 59.4893 35.574 59.4487C35.574 59.408 35.5333 59.408 35.4927 59.4487C35.2893 59.4893 35.2487 59.652 35.2487 59.8553C35.2487 59.896 35.3707 59.9367 35.3707 59.896C35.4927 59.8553 35.6147 59.7333 35.696 59.652ZM31.0193 59.3267C31.0193 59.4893 31.304 59.652 31.426 59.6113C31.4667 59.5707 31.5073 59.4893 31.5073 59.4893C31.548 59.3267 31.4667 59.164 31.3447 59.164C31.2227 59.164 31.1007 59.2453 31.0193 59.3267ZM25.2853 64.3287C25.4887 64.288 25.6513 64.2473 25.7327 64.2067C25.6513 64.0847 25.6513 63.922 25.5293 63.8813C25.3667 63.8 25.2447 63.9627 25.204 64.1253C25.204 64.166 25.2853 64.2473 25.2853 64.3287ZM51.3978 54.7313C51.3571 54.894 51.3571 55.0973 51.3164 55.3413C51.8858 55.4633 52.4144 55.8293 53.0651 55.748C53.2278 55.382 52.8211 55.26 52.8211 54.9753C52.8211 54.894 52.8211 54.8533 52.8618 54.8127C53.1058 54.406 53.4311 54.1213 53.7564 53.7553C53.9191 54.0807 54.1631 54.4467 54.3664 54.894C54.4478 54.7313 54.4884 54.6093 54.5698 54.4467C54.7731 54.65 54.6918 54.894 54.6511 55.016C54.5291 55.3413 54.7731 55.4227 54.8544 55.5853C54.7731 56.2767 54.4478 56.846 54.0004 57.334C53.5938 57.7813 53.2684 58.2693 52.9431 58.7573C52.0484 60.14 51.2351 61.5633 50.2591 62.9053C49.8931 63.434 49.6898 64.0847 49.4051 64.654C48.9984 65.4267 48.8358 66.2807 48.2258 66.972C48.1851 67.582 47.7378 68.1107 47.5751 68.7613C47.4124 69.2493 47.1684 69.6967 46.9651 70.1847C46.8838 70.3067 46.8024 70.4287 46.7618 70.5913C46.5584 71.8113 45.9078 72.9093 45.4198 74.0887C45.3384 74.3327 45.2164 74.658 44.9724 74.78C44.6878 74.9427 44.5658 75.268 44.2811 75.4713C44.1591 75.5933 43.9558 75.6747 43.7524 75.7967C43.2644 76 42.7358 76 42.3291 75.5933C42.2071 75.512 42.0851 75.39 41.9224 75.3493C40.9464 75.024 40.7024 74.2107 40.6618 73.2753C40.6211 73.194 40.7024 73.0313 40.6618 72.9907C40.4584 72.7467 40.4178 72.462 40.4178 72.1773C40.4178 71.4047 40.3771 70.6727 40.3771 69.9407C40.3771 69.778 40.5398 69.6153 40.6211 69.4527C40.2551 68.9647 40.1331 68.3953 40.2144 67.826C40.2551 67.2973 40.2551 66.7687 40.6618 66.3213C40.0111 65.7113 40.4991 65.1827 40.7024 64.5727C40.5398 64.3287 40.3771 64.0847 40.4178 63.7187C40.4584 63.2713 40.4584 62.824 40.5398 62.4173C40.7024 61.604 40.6211 60.7093 40.6618 59.896C40.6618 59.6113 40.7838 59.286 40.8651 58.9607C40.9871 58.7573 41.1904 58.554 41.4344 58.4727C41.7191 58.3913 41.8818 58.2693 42.1664 58.188C42.4104 58.31 42.1664 58.554 42.2478 58.7573C42.3291 58.9607 42.3291 59.2047 42.3291 59.408C42.3291 59.5707 42.4104 59.7333 42.4511 59.774C42.4918 59.896 42.6138 59.9367 42.6544 59.9367C42.7358 59.896 42.8578 59.774 42.8578 59.7333C42.8171 59.2453 43.0204 58.7573 43.1424 58.066C43.2644 58.2693 43.2644 58.3507 43.3051 58.432C44.1591 59.042 44.3624 59.896 44.2811 60.8313C44.2404 62.3767 44.1998 63.922 44.0778 65.4673C44.0371 65.7113 44.0778 65.996 43.8338 66.24C43.7524 66.362 43.7931 66.484 43.8744 66.5247C43.9964 66.6467 44.1591 66.6873 44.2811 66.5653C44.4031 66.4433 44.5251 66.3213 44.6064 66.118C44.7284 65.7113 44.8911 65.3047 45.2164 65.02C45.2978 64.9387 45.4198 64.8167 45.4198 64.7353C45.2978 64.0847 45.7451 63.6373 45.9484 63.1087C46.0704 62.824 46.1924 62.58 46.4771 62.4173C46.5584 62.336 46.6398 62.214 46.6398 62.1327C46.6398 61.3193 47.2498 60.75 47.6158 60.0993C47.9004 59.408 48.3478 58.8387 48.7544 58.2287C48.9578 57.8627 49.2018 57.5373 49.4051 57.212C49.9338 56.358 50.5438 55.6667 51.1538 54.894C51.2351 54.8533 51.3571 54.8127 51.4384 54.7313H51.3978ZM45.2164 68.3953C44.9724 68.436 44.8098 68.558 44.7284 68.8427C44.7284 69.046 44.6064 69.3307 44.5658 69.534C44.4031 70.022 44.2404 70.51 44.1184 70.998C44.0778 71.12 44.1591 71.2827 44.1998 71.608C44.4031 71.12 44.4844 70.8353 44.6878 70.51C45.0538 69.8593 45.1351 69.168 45.2164 68.436C45.7044 67.7853 45.7044 67.7853 45.7451 67.2567C45.2164 67.46 45.2164 67.948 45.2164 68.3953ZM46.6398 64.6133C47.0058 64.0847 47.3718 63.6373 47.6971 63.1493C47.6971 63.1087 47.6971 63.068 47.6971 62.946C47.6158 62.946 47.4531 62.9053 47.4124 62.9867C47.0871 63.312 46.7211 63.7187 46.5991 64.2067C46.5991 64.288 46.5991 64.41 46.6398 64.6133ZM48.5918 61.238C48.6731 61.1973 48.7138 61.1567 48.7544 61.1567C48.9578 60.7907 49.1611 60.506 49.6898 60.6687C49.6898 60.6687 49.7711 60.506 49.7304 60.4247C49.7304 60.384 49.6898 60.3027 49.6084 60.3027C49.3238 60.2213 49.0798 60.2213 48.7951 60.384C48.5511 60.5873 48.4698 60.8313 48.5918 61.238ZM42.7358 62.6613C42.6544 62.6207 42.6138 62.5393 42.5324 62.5393C42.3291 62.5393 42.1258 62.7833 42.2478 62.9867C42.2884 63.0273 42.3291 63.1087 42.4104 63.068C42.6138 63.0273 42.7358 62.824 42.7358 62.6613ZM46.1518 65.996C46.1924 65.996 46.1924 66.0773 46.2738 66.118C46.3551 65.996 46.4771 65.9553 46.5991 65.8333C46.6804 65.752 46.7211 65.5893 46.6398 65.508C46.5584 65.386 46.3958 65.4673 46.2738 65.5893C46.2331 65.7113 46.1924 65.874 46.1518 65.996ZM46.2331 64.4913C46.3144 64.288 46.2738 64.1253 46.1518 64.0847C46.0704 64.0847 45.9484 64.1253 45.9484 64.166C45.8264 64.3287 45.8264 64.4913 46.0298 64.5727C46.0704 64.5727 46.1924 64.532 46.2331 64.4913ZM51.5604 59.3673V59.286C51.4791 59.2453 51.4384 59.164 51.3571 59.0827C51.2758 59.2047 51.1944 59.2453 51.1538 59.286C51.1538 59.3673 51.1944 59.4893 51.2351 59.6113C51.2351 59.652 51.2758 59.6927 51.3164 59.6927C51.3571 59.652 51.4791 59.6113 51.4791 59.6113C51.5198 59.53 51.5198 59.4487 51.5604 59.3673ZM51.3978 54.7313H51.4384C51.4384 54.4873 51.5198 54.3247 51.7231 54.2027C52.0078 53.9587 52.3738 53.8367 52.6584 53.674C52.9431 53.796 52.8211 53.9587 52.6991 54.04C52.4144 54.406 52.0484 54.7313 51.7638 55.016C51.6011 54.894 51.4791 54.8533 51.3978 54.7313ZM57.5305 58.1067C57.7338 58.188 57.6118 58.432 57.7338 58.554C57.8965 58.6353 58.2625 58.5133 58.3845 58.31C58.4658 58.1067 58.3845 57.9033 58.4252 57.6187C58.9132 57.6187 59.4418 57.578 59.9298 57.6187C60.0925 57.6187 60.2958 57.7 60.4585 57.7813C60.6618 57.9033 60.9058 57.944 61.1905 57.8627C61.6378 57.822 62.1258 57.9847 62.5325 58.1067C62.7358 58.4727 62.9392 58.0253 63.1018 58.1473C63.3458 58.2693 63.4272 58.554 63.7932 58.554C63.9558 58.554 64.1998 58.6353 64.3625 58.7573C65.3385 59.2453 66.1112 59.9773 66.4772 61.0347C66.7212 61.604 66.8838 62.1733 66.8432 62.8647C66.8025 63.3527 66.8025 63.3527 66.3552 63.8407C66.4365 63.922 66.4772 64.044 66.5585 64.1253C66.5178 64.2067 66.5585 64.288 66.4772 64.3287C66.0705 65.1013 65.5418 65.7927 64.8098 66.3213C64.6065 66.4433 64.4032 66.6467 64.2405 66.6873C63.9152 66.8093 63.4678 66.8093 63.1832 67.0127C62.8578 67.216 62.5325 67.338 62.2072 67.4193C62.0445 67.338 61.9632 67.2567 61.8412 67.1753C61.3125 67.6633 61.3125 67.6633 60.7838 67.6633C60.3365 67.6633 59.9298 67.582 59.5232 67.3787C59.4825 66.8907 59.1165 67.1753 58.8318 67.1753C58.6692 67.094 58.5065 66.9313 58.3032 66.7687C58.1405 66.6873 58.0185 66.5247 57.8558 66.5247C57.3272 66.484 57.4492 66.118 57.4085 65.7927C57.2052 65.7927 57.0832 65.7927 56.9205 65.7927C56.8392 65.752 56.7985 65.7113 56.7985 65.7113C56.7172 65.5487 56.8392 65.264 56.5952 65.264C56.4732 65.264 56.3105 65.4267 56.2292 65.5487C56.1072 65.9553 55.9445 66.362 55.8632 66.8093C55.7005 67.46 55.5785 68.1107 55.4972 68.7613C55.4158 69.2493 55.4565 69.6967 55.5378 70.144C55.5785 70.5507 55.6598 70.998 55.7005 71.4453C56.1072 71.8113 56.5545 72.2587 57.0425 72.6653C57.2052 72.6653 57.4898 72.6247 57.7338 72.584C58.2625 72.5027 58.8725 72.5433 59.4418 72.2993C59.9298 72.0553 60.4585 72.0147 60.9872 71.73C61.4345 71.486 61.9632 71.3233 62.4512 71.0793C62.9798 70.7947 63.4678 70.51 63.9558 70.1847C64.6472 69.7373 65.3385 69.2493 65.9485 68.802C66.1112 68.68 66.2738 68.5987 66.4365 68.5173C66.5585 68.4767 66.8025 68.4767 66.8432 68.5173C67.1278 68.8427 67.4938 68.802 67.8598 68.802C67.9412 68.8427 68.0225 68.802 68.1038 68.802C68.7545 68.8833 68.8358 69.0053 68.7138 69.8187C68.8358 69.9 68.9985 69.9813 69.1612 70.1033C69.1205 71.3233 68.2258 72.0147 67.2905 72.5433C66.9245 72.7467 66.5992 72.7873 66.1925 72.9093C66.0705 73.072 65.9078 73.316 65.7858 73.5193C65.6638 73.7227 65.2165 73.2753 65.2165 73.7633C64.8098 74.1293 64.3625 74.414 63.9152 74.536C63.7118 74.5767 63.5085 74.6173 63.3865 74.6987C62.5732 75.268 61.6785 75.5527 60.7838 75.878C59.3605 76.3253 57.9778 76.4473 56.5138 76.2847C55.9445 76.2033 55.3752 75.9593 55.2532 75.268C55.2532 75.268 55.2125 75.2273 55.1718 75.1867C55.0498 75.146 54.9685 75.146 54.9278 75.268C54.8872 75.3493 54.8465 75.39 54.8465 75.4713C54.6838 75.5527 54.5618 75.4713 54.4398 75.39C54.1145 75.146 53.7892 74.9427 53.4638 74.658C53.2605 74.414 53.0572 74.17 52.8132 73.926C52.7725 73.804 52.6912 73.7227 52.6912 73.6413C52.4065 72.6653 51.7558 71.7707 51.8372 70.6727C51.8372 70.388 51.7558 70.1033 51.7152 69.8187C51.6745 68.6393 51.7558 67.3787 52.2845 66.24C52.3252 66.0773 52.4065 65.9147 52.3658 65.6707C52.3252 65.3453 52.3252 65.02 52.6098 64.7353C52.7725 64.5727 52.8538 64.288 52.9758 64.0847C52.7725 63.8407 52.9352 63.6373 53.0978 63.434C53.2198 63.2307 53.3012 62.946 53.3012 62.702C53.4638 62.2547 53.6265 61.8073 54.2365 61.6853C54.3178 61.6853 54.4398 61.4413 54.2772 61.36C54.1145 61.1567 54.1958 60.994 54.3178 60.872C54.4398 60.75 54.6025 60.628 54.7245 60.506C54.8465 60.4247 55.0498 60.3433 55.0498 60.2213C55.1718 59.53 55.7412 59.2047 56.1885 58.798C56.4732 58.5133 56.9205 58.3507 57.3272 58.1067C57.3678 58.1067 57.4492 58.1067 57.5305 58.1067ZM54.2365 64.166C53.8298 64.8167 53.7892 65.02 53.5452 66.2807C53.7485 66.3213 53.7892 66.1993 53.8298 66.0773C54.1145 65.4673 54.3178 64.8573 54.2365 64.166C54.4398 64.0847 54.6432 63.9627 54.6432 63.678C54.4398 63.6373 54.2365 63.6373 53.8705 63.556C54.0332 63.8407 54.1552 64.0033 54.2365 64.166ZM58.7505 61.6447C58.9945 62.0107 59.1572 62.3767 59.3198 62.7427C59.5638 63.2307 59.9705 63.5153 60.4178 63.8C60.5398 63.8407 60.7025 63.922 60.8245 63.8813C61.4752 63.7593 62.1665 63.5967 62.7358 63.1087C63.0612 62.7427 62.9392 62.1733 62.4512 61.9293C61.8818 61.6447 61.1092 61.6447 60.5398 61.1973C60.5398 61.1567 60.4178 61.1567 60.3365 61.1567C60.0518 61.2787 59.7672 61.238 59.5232 61.238C59.2385 61.238 59.0352 61.482 58.7505 61.6447ZM60.0518 58.7573C60.2552 58.7573 60.4585 58.5947 60.5398 58.3913C60.5398 58.3507 60.4992 58.2287 60.4585 58.2287C60.2145 58.1067 59.9705 58.2693 59.9298 58.5133C59.9298 58.554 60.0112 58.6353 60.0518 58.7573ZM55.7818 60.262C55.9038 60.506 55.9038 60.628 55.9852 60.7093C56.1072 60.872 56.2698 60.872 56.4325 60.75C56.5138 60.7093 56.5545 60.628 56.5545 60.5467C56.5545 60.506 56.5138 60.4247 56.4325 60.4247C56.2698 60.384 56.1072 60.3433 55.7818 60.262ZM58.0998 61.6447C58.1812 61.5633 58.2625 61.5633 58.3032 61.482C58.3845 61.3193 58.0998 60.9533 57.9372 60.994C57.8558 61.0347 57.8558 61.1567 57.8558 61.1973C57.9372 61.36 58.0185 61.482 58.0998 61.6447ZM53.5452 67.2567C53.4232 67.1753 53.3825 67.1347 53.3012 67.094C53.2198 67.094 53.0978 67.1753 53.0572 67.1753C52.9758 67.2567 53.1385 67.5007 53.3012 67.46C53.3418 67.46 53.4232 67.3787 53.5452 67.2567ZM75.462 67.0127C75.4213 67.094 75.462 67.1753 75.4213 67.2973C75.1366 67.9887 74.8113 68.7207 74.5673 69.4527L74.12 69.534C74.2013 69.6153 74.364 69.778 74.4453 69.8593C74.4046 69.9 74.4453 69.9813 74.4046 70.022C74.0386 70.9573 73.754 71.974 73.5506 72.95C73.388 73.6007 73.388 73.6007 72.778 74.0073C72.778 74.2107 72.9813 74.2513 73.0626 74.3733C73.144 74.6173 72.9813 74.902 72.6966 74.902C72.4933 74.902 72.3306 74.8613 72.29 75.0647C72.0866 75.3493 71.8426 75.4713 71.558 75.512C71.314 75.5527 71.07 75.4307 71.07 75.2273C71.07 74.6987 71.0293 74.17 71.2326 73.6413C71.2733 73.56 71.2326 73.438 71.2733 73.316L71.192 73.2347H70.9886C70.948 73.3567 70.9073 73.4787 70.8666 73.6413C70.7446 73.926 70.704 74.2513 70.5413 74.5767C70.4193 74.7393 70.4193 74.902 70.46 75.0647C70.46 75.1053 70.4193 75.1867 70.338 75.1867C70.338 75.1867 70.216 75.2273 70.1346 75.146C70.0126 75.024 69.972 74.8613 69.8093 74.78C69.5653 74.4547 69.4026 74.1293 69.6873 73.7633C69.5653 73.2753 69.5653 72.828 69.6873 72.3807C70.0126 71.1607 70.2566 69.8593 70.5006 68.5987C70.7446 67.7447 70.9886 66.8907 71.1106 65.996C71.2326 65.4673 71.436 64.9387 71.5986 64.4507C71.6393 64.288 71.7613 64.2067 71.7613 64.0847C71.6393 63.434 71.924 62.8647 72.0053 62.336C72.0053 61.7667 72.412 61.2787 72.412 60.75C72.3713 60.262 72.5746 59.7333 72.6153 59.2047C72.6153 58.92 72.6966 58.92 73.2253 58.8387L73.1033 58.2693C73.2253 58.2693 73.266 58.2287 73.3473 58.188C73.4286 58.1473 73.5506 58.1067 73.632 58.1067C73.7133 58.066 73.7946 57.9847 73.876 57.944C73.998 57.944 74.1606 57.9847 74.242 57.9847L73.9573 58.676C73.876 58.9607 74.12 59.286 73.9166 59.6113C73.754 59.774 73.7946 60.0993 73.7946 60.4247C73.9166 60.384 74.0386 60.3433 74.0793 60.3027C74.1606 60.018 74.242 59.6927 74.5673 59.4893C74.6486 59.3673 74.73 59.164 74.73 59.042C74.8926 58.798 74.8926 58.5133 74.8926 58.188C75.1773 58.2693 75.5433 58.31 75.7873 58.31C76.0313 58.3913 76.194 58.5947 76.194 58.7167C76.1533 59.042 76.0313 59.3267 75.95 59.6113C76.1126 59.652 76.2346 59.6113 76.2753 59.6113C76.5193 59.3673 76.8446 59.3267 77.0886 59.0827C77.292 58.798 77.658 58.676 77.9833 58.5947C78.0646 58.554 78.146 58.5133 78.1053 58.4727C78.4713 58.066 78.9186 57.9847 79.366 57.7813L81.1146 57.7407L81.3993 57.9033C82.4566 58.5947 82.7006 59.4893 82.7006 60.4653C82.7006 60.5873 82.5786 60.8313 82.7006 60.9533C82.9853 61.2787 82.7413 61.7667 83.0666 62.092C83.27 62.2547 83.27 62.4173 83.27 62.702C83.27 62.7427 83.514 62.824 83.636 62.824C83.636 62.9867 83.7173 63.19 83.6766 63.3933C83.7173 63.678 83.5546 63.8407 83.1073 63.8407C83.026 63.8 82.8226 63.7187 82.66 63.8813C82.8226 64.166 83.1886 64.2473 83.4326 64.532C83.392 64.532 83.27 64.5727 83.27 64.6133C83.148 64.654 82.294 64.898 82.172 64.8573C82.0906 64.898 82.0093 64.898 81.9686 64.9793C81.928 65.1013 81.684 65.0607 81.562 64.9387C81.2773 64.654 80.9113 64.4507 80.464 64.3287C79.9353 63.8 79.4473 63.2307 79.4066 62.5393C79.366 62.092 79.366 62.092 78.8373 61.726C78.878 62.2547 78.878 62.2547 78.5933 62.6207C78.4306 62.7833 78.2273 62.9867 78.146 63.1087C77.8206 63.312 77.658 63.434 77.4953 63.8C77.4546 64.044 77.17 64.288 76.9666 64.532C76.682 64.9387 76.4786 65.386 76.2753 65.7927C75.95 66.1587 75.828 66.6467 75.4213 66.972C75.34 66.8907 75.2586 66.7687 75.1773 66.6873C75.0146 66.6467 74.8113 66.728 74.8113 66.8907C74.7706 66.9313 74.852 67.0127 74.852 67.1347C75.096 67.094 75.2993 67.0127 75.462 67.0127ZM73.7946 62.3767L73.7133 61.4007C73.51 61.726 73.4693 61.8073 73.3473 61.97C73.2253 62.092 73.1033 62.1733 73.144 62.336C73.4693 62.6207 73.754 62.58 73.7946 62.3767ZM76.2753 61.116C76.3566 61.0347 76.4786 61.0347 76.5193 60.994C76.56 60.9533 76.6413 60.75 76.56 60.75C76.4786 60.7093 76.316 60.6687 76.2753 60.7093C76.194 60.75 76.1126 60.8313 76.072 60.9533C76.0313 60.994 76.1533 61.0753 76.2753 61.116ZM95.5799 59.774L95.9052 60.2213C96.1086 60.6687 96.0679 60.872 95.6205 61.0753C95.4579 61.1567 95.1732 61.1973 95.0105 61.2787C94.8479 61.36 94.7259 61.482 94.6039 61.604C94.4005 61.5227 94.1565 61.4413 93.9532 61.3193C93.8312 61.36 93.7499 61.482 93.5872 61.482C92.8552 61.7667 92.6112 62.2953 92.4892 62.946C92.2045 64.2473 91.8792 65.4267 91.5132 66.6467C91.3099 67.3787 91.2285 68.1107 91.1065 68.8833C90.9439 69.778 90.7405 70.632 90.6185 71.5267C90.4559 72.828 90.2525 74.1293 90.7812 75.4713C90.8219 75.756 90.8219 76.0407 90.9032 76.3253C90.7812 76.5287 90.6185 76.732 90.4559 76.854L89.8459 76.7727C89.7645 76.9353 89.7239 77.098 89.6019 77.2607C89.4799 77.464 89.2765 77.586 89.0325 77.5047C88.7072 77.4233 88.5445 77.2607 88.4632 76.9353C88.4632 76.7727 88.3819 76.6507 88.3819 76.5287C88.2599 76.244 88.0565 76.0813 87.9752 76.1627L87.8939 76.5287C87.8532 76.6507 87.8125 76.732 87.8125 76.8133C87.4465 76.6507 87.3652 76.3253 87.2025 76.122C86.8365 75.3087 86.5925 74.5767 86.6332 73.7227C86.7145 70.8353 87.2432 67.9887 87.8939 65.1827C88.1379 64.3693 88.3412 63.5967 88.5445 62.7833L88.6259 62.2547C88.5039 62.214 88.4225 62.1733 88.3005 62.214C87.6905 62.336 87.0805 62.4987 86.4299 62.702C86.0232 62.7833 85.5352 62.824 85.0879 62.6207C85.0879 62.3767 85.0879 62.2547 85.0879 62.092C84.7625 61.8073 84.5185 62.214 84.1932 61.97C83.7459 61.482 83.6239 60.872 83.7865 60.1807C83.9492 59.5707 84.3152 59.2453 84.8439 59.0827L88.3005 58.3913C88.5852 58.3507 88.7885 58.2693 89.0732 58.2693C89.7645 58.2693 90.0492 57.822 90.2525 57.2527C90.3339 57.09 90.3745 57.0087 90.3745 56.846C90.8625 55.382 91.3505 53.9587 91.9199 52.576C92.2045 52.0473 92.3265 51.478 92.5299 50.9493C92.8145 50.258 93.0585 49.4853 93.4652 48.794C93.5872 48.5093 93.8719 48.306 93.7499 47.8587C93.9125 47.452 94.0752 47.0047 94.2785 46.6387C94.4412 46.3947 94.6852 46.3947 94.9292 46.232C94.8479 46.0693 94.8072 45.9473 94.6852 45.866C94.8072 45.6627 94.9699 45.5407 95.1732 45.6627C95.2952 45.7033 95.4172 45.8253 95.5392 45.866C95.5392 45.8253 95.5799 45.7847 95.5799 45.744C95.5799 45.5407 95.4985 45.3373 95.7832 45.4187C95.9865 45.4187 96.1086 45.622 96.0272 45.8253C96.0679 45.9067 96.0679 45.988 96.0272 46.11L95.4985 47.208C95.2139 47.2487 94.8885 47.33 94.4819 47.3707L95.2139 47.9807C94.8479 48.7127 94.6039 49.4447 94.3192 50.1767C94.2379 50.2987 94.1159 50.4207 94.0345 50.5833C93.9532 50.6647 93.8312 50.746 93.8312 50.7867C94.0752 51.2747 93.6685 51.6407 93.5465 52.0067C93.4652 52.332 93.2212 52.21 92.9365 52.21C92.8145 52.4947 93.3025 52.576 93.1805 52.7793C93.0179 53.2267 92.8552 53.6333 92.7739 54.1213C92.6519 54.528 92.2859 54.772 92.2859 55.26C92.2045 55.6667 91.9605 56.0733 91.8385 56.5207C91.7979 56.968 91.5539 57.334 91.5539 57.8627C91.7165 57.822 91.8792 57.822 91.8385 57.7407L92.6112 55.87L93.9532 52.2507L94.4005 51.112C94.8479 49.9327 95.3359 48.794 95.7425 47.6147C95.8239 47.3707 95.9865 47.208 96.0679 46.9233C96.1899 46.6387 96.3932 46.3947 96.7592 46.3947C96.8812 46.3947 97.0032 46.354 97.0032 46.2727C97.0845 46.1913 97.1252 46.0693 97.0032 45.988C96.9625 45.9067 96.8405 45.9067 96.6779 45.866C96.9625 45.5813 97.0845 45.5813 97.2472 45.7033L97.7352 46.1913C97.9385 46.3947 97.9792 46.6387 97.8572 46.842C97.6945 47.0453 97.7759 47.2487 97.9385 47.452C98.1419 47.7773 97.9792 48.0213 97.7759 48.306C97.6945 48.3873 97.4099 48.3873 97.2879 48.672L97.7759 48.7533V48.916L97.2065 49.8513L96.7592 50.7053C96.7185 50.746 96.6372 50.8273 96.6372 50.9493C96.4745 52.1693 95.7832 53.1453 95.4985 54.284C95.4579 54.5687 95.1325 54.8127 95.0105 55.0973C94.9292 55.4633 94.9699 55.87 94.6445 56.1547C94.6445 56.5207 94.5225 56.846 94.4005 57.1713C94.3192 57.5373 94.4005 57.944 94.4819 58.3507C94.7665 58.554 94.8479 58.2693 95.0105 58.31C95.2139 58.554 95.4579 58.554 95.7832 58.432C95.8239 58.432 95.8239 58.432 95.8645 58.4727C96.0679 58.7573 95.9052 59.286 95.5799 59.408L95.2139 59.53C95.1732 59.53 95.1325 59.652 95.1325 59.7333C95.1732 59.7333 95.2545 59.774 95.3359 59.774C95.3765 59.8147 95.4579 59.774 95.5799 59.774ZM90.4965 62.214C90.2525 62.214 90.1305 62.214 90.1305 62.2547C89.8459 63.1087 89.5205 63.9627 89.2765 64.8167C88.9919 65.9553 88.7885 67.1347 88.6259 68.314C88.5039 69.046 88.3819 69.778 88.3005 70.5507C88.2599 70.7133 88.3412 70.8353 88.5445 70.8353C88.7885 69.9 88.9105 68.9647 89.0732 68.0293C89.3172 67.0533 89.5612 66.0773 89.7239 65.1013C90.0085 64.2067 90.2119 63.2713 90.4965 62.214ZM85.4539 59.6113L85.2505 59.408C85.1285 59.3673 84.9659 59.6113 85.0472 59.774C85.0879 59.8147 85.1692 59.896 85.2099 59.896C85.3725 59.896 85.4539 59.8147 85.4539 59.6113ZM94.7665 58.8793C94.4819 58.8793 94.3599 58.798 94.1972 58.8387L93.9532 58.9607L93.9939 59.0827C94.0345 59.2047 94.1565 59.2047 94.2785 59.164C94.4412 59.0827 94.4819 59.0013 94.7665 58.8793ZM100.606 60.7907C101.013 60.8313 100.81 61.6447 101.42 61.2787C101.704 61.726 101.298 62.092 101.42 62.5393C101.542 62.4173 101.664 62.3767 101.786 62.2953C101.867 62.6207 101.948 62.8647 101.786 63.2307C100.769 65.508 98.9797 71.8113 98.9797 74.902C97.9223 75.7967 98.329 75.3087 97.353 75.3087H97.2717C95.889 75.9593 96.3363 73.7227 95.645 74.3327C95.279 73.438 95.1977 72.5027 95.3603 71.608C95.7263 69.9 95.9703 68.1513 96.621 66.484L98.0037 62.1733C100.688 57.1307 99.1017 63.0273 100.606 60.7907ZM99.4677 57.2527C99.2643 56.8053 99.915 56.5207 99.7117 56.114C99.305 55.3007 102.152 53.8773 102.558 55.504C102.721 55.626 102.762 55.8293 102.762 56.0733C102.843 57.09 102.111 58.92 101.42 58.432C101.094 58.188 99.8743 57.944 99.4677 57.2527ZM97.0683 67.8667L97.3937 68.558C96.2143 72.1773 98.451 68.7207 97.963 67.6633C97.963 67.6227 97.8817 67.582 97.841 67.46C97.6783 67.826 97.2717 67.6227 97.0683 67.8667ZM102.152 55.9513C101.826 56.358 101.826 56.3987 101.948 56.48C101.989 56.602 102.111 56.724 102.274 56.602C102.274 56.3987 102.558 56.0733 102.152 55.9513ZM117.146 61.5227C116.861 61.2787 116.577 61.0753 116.658 60.7093C116.739 60.506 116.577 60.3433 116.536 60.14C116.007 60.262 116.211 60.628 116.007 60.8313C115.641 60.5467 115.763 60.0993 115.601 59.652C115.113 59.53 114.706 59.4893 114.096 59.6113C112.551 60.0993 111.127 60.872 109.663 61.6447C109.257 61.848 109.135 62.336 108.525 62.336C108.281 62.6613 108.077 63.0273 107.874 63.3527C108.077 63.8407 108.687 63.8 109.013 64.1253L108.769 64.5727C109.135 64.7353 109.216 64.3693 109.501 64.3693H109.704C110.965 64.8573 112.103 65.508 113.079 66.362C113.771 67.0127 114.381 67.704 114.706 68.5173C115.275 69.9 115.113 71.242 114.34 72.5027C114.177 72.6653 114.015 72.828 113.933 72.9907C113.689 73.072 113.567 72.9907 113.486 72.9093C113.242 72.706 112.957 72.828 112.917 73.072C112.876 73.1533 112.835 73.2753 112.876 73.3567C113.161 73.7633 112.917 74.0073 112.591 74.2107C112.144 74.4547 111.737 74.6987 111.29 74.902C110.802 75.1053 110.314 75.3087 109.907 75.512C109.582 75.756 109.216 75.6747 108.85 75.5527C108.728 75.756 108.565 75.9187 108.362 76.0407C107.996 76.1627 107.63 76.244 107.223 76.3253C107.02 76.366 106.776 76.0813 106.613 76.244C106.491 76.366 106.41 76.5287 106.207 76.5693C105.922 76.61 105.678 76.6913 105.393 76.6913C105.109 76.732 104.824 76.6913 104.499 76.7727C103.807 76.976 103.116 76.732 102.465 76.61C102.384 76.61 102.303 76.488 102.221 76.4473V76.0407C102.059 75.9187 101.937 76.0407 101.774 76C101.652 75.9593 101.489 75.9187 101.449 75.8373C101.245 75.512 101.083 75.146 101.327 74.8207C101.489 74.6173 101.489 74.536 101.367 74.3733C101.245 74.1293 101.367 74.0073 101.652 73.9667C101.774 73.9667 101.896 74.0073 101.977 74.0073V73.6007C102.018 73.6007 102.018 73.5193 102.059 73.438C102.547 73.316 103.075 73.1127 103.726 73.316C103.929 73.3973 104.295 73.3973 104.58 73.316C105.231 73.194 105.8 73.072 106.369 72.95C106.735 72.828 107.061 72.706 107.427 72.8687C107.671 72.95 107.63 72.706 107.711 72.6247C107.874 72.5433 108.077 72.462 108.281 72.34L110.151 71.486C110.477 71.3233 110.68 71.0387 110.924 70.8353C111.371 70.3067 111.412 70.0627 111.005 69.534C110.761 69.2087 110.517 69.046 110.233 68.7613C109.826 68.3547 109.379 67.9887 108.769 67.826C107.915 67.46 107.061 67.0127 106.207 66.6467C105.353 66.1993 104.783 65.4673 104.173 64.776C104.011 64.6133 103.929 64.3693 103.929 64.2067C103.767 63.068 103.929 62.092 104.905 61.2787C104.905 61.238 105.027 61.1973 105.027 61.1567C105.068 60.5873 105.597 60.384 105.881 60.018L107.752 58.6353C108.362 58.2693 109.013 57.944 109.663 57.6593C110.273 57.334 110.965 57.0087 111.615 56.8053C112.388 56.5613 113.12 56.3987 113.893 56.1953C114.421 56.114 114.909 55.992 115.438 55.992C116.251 55.992 116.902 56.1953 117.593 56.5207C117.878 56.6833 118.325 56.8053 118.569 57.0493C118.976 57.456 119.261 57.944 119.342 58.5133C119.423 59.0827 119.383 59.6113 119.423 60.2213C119.423 60.262 119.423 60.262 119.383 60.3433C119.301 61.0753 118.732 61.5227 117.878 61.36C117.593 61.2787 117.349 61.36 117.146 61.5227ZM112.144 56.8867C112.632 57.0087 112.876 57.09 113.161 57.1713C113.364 57.212 113.567 57.09 113.567 56.8053C113.161 56.7647 112.754 56.724 112.144 56.8867ZM113.039 59.5707C113.649 59.652 113.893 59.4893 114.015 59.164V59.0827C113.933 59.042 113.811 59.042 113.771 59.042C113.567 59.1233 113.405 59.286 113.039 59.5707ZM106.044 61.1973L106.166 60.994C106.125 60.8313 105.881 60.7093 105.678 60.75L105.637 60.8313C105.637 60.994 105.8 61.1973 106.044 61.1973ZM111.29 59.774L111.656 59.4893C111.697 59.4893 111.615 59.3267 111.615 59.286C111.412 59.2453 111.168 59.408 111.127 59.5707C111.127 59.6113 111.168 59.652 111.29 59.774ZM102.628 74.6173C102.587 74.4953 102.587 74.4547 102.547 74.4547C102.425 74.3327 102.303 74.414 102.181 74.4953C102.181 74.5767 102.14 74.658 102.14 74.78L102.181 74.8207C102.384 74.7393 102.506 74.6987 102.628 74.6173ZM123.243 60.7907C123.65 60.8313 123.446 61.6447 124.056 61.2787C124.341 61.726 123.934 62.092 124.056 62.5393C124.178 62.4173 124.3 62.3767 124.422 62.2953C124.504 62.6207 124.585 62.8647 124.422 63.2307C123.406 65.508 121.616 71.8113 121.616 74.902C120.559 75.7967 120.966 75.3087 119.99 75.3087H119.908C118.526 75.9593 118.973 73.7227 118.282 74.3327C117.916 73.438 117.834 72.5027 117.997 71.608C118.363 69.9 118.607 68.1513 119.258 66.484L120.64 62.1733C123.324 57.1307 121.738 63.0273 123.243 60.7907ZM122.104 57.2527C121.901 56.8053 122.552 56.5207 122.348 56.114C121.942 55.3007 124.788 53.8773 125.195 55.504C125.358 55.626 125.398 55.8293 125.398 56.0733C125.48 57.09 124.748 58.92 124.056 58.432C123.731 58.188 122.511 57.944 122.104 57.2527ZM119.705 67.8667L120.03 68.558C118.851 72.1773 121.088 68.7207 120.6 67.6633C120.6 67.6227 120.518 67.582 120.478 67.46C120.315 67.826 119.908 67.6227 119.705 67.8667ZM124.788 55.9513C124.463 56.358 124.463 56.3987 124.585 56.48C124.626 56.602 124.748 56.724 124.91 56.602C124.91 56.3987 125.195 56.0733 124.788 55.9513ZM138.603 62.2547C137.912 62.4987 137.343 62.8647 136.773 63.2713C135.635 64.166 134.618 65.142 133.52 66.118L132.829 66.8907C132.747 66.972 132.625 67.094 132.381 67.0533C132.259 67.0127 132.259 67.1347 132.219 67.216C132.178 67.6227 132.178 67.6227 131.853 67.704C131.771 67.7447 131.69 67.7447 131.609 67.7447C131.568 67.7447 131.568 67.7853 131.487 67.7853C131.365 67.948 131.69 67.9887 131.527 68.3547L131.161 68.7207C130.511 69.412 129.982 70.1847 129.535 70.9573C129.453 71.0387 129.331 71.0793 129.291 71.242C129.047 71.6487 128.559 71.852 128.437 72.462C128.396 72.8687 128.071 73.316 127.867 73.7227L127.379 74.5767C127.217 74.78 127.135 75.024 127.013 75.2273C126.81 75.634 126.525 75.878 125.956 75.8373C125.915 75.8373 125.793 75.8373 125.753 75.878L125.387 76.0407C125.387 75.7153 125.631 75.3087 125.143 75.0647L124.37 75.5933C124.207 75.4713 124.126 75.1867 123.882 75.0647C123.557 74.902 123.516 74.6173 123.76 74.3327C123.882 74.17 123.963 74.0073 123.882 73.7227C123.841 73.5193 123.882 73.316 123.923 73.1127C124.451 71.8113 124.695 70.4693 125.224 69.168C125.346 68.7207 125.387 68.2733 125.793 67.8667C125.793 67.826 125.834 67.7853 125.834 67.7853C125.793 67.1347 125.915 66.6467 126.241 66.1587C126.322 65.996 126.241 65.752 126.281 65.5893L126.688 64.4913L126.81 64.0847C126.973 62.9867 127.42 62.0513 127.664 60.9127C127.786 60.262 127.908 59.5707 128.152 58.8387C128.193 58.554 128.315 58.31 128.599 58.1473L129.047 58.4727C129.209 58.676 129.087 58.798 128.803 58.798C128.762 58.798 128.721 58.8387 128.681 58.8387C128.599 59.0827 128.884 59.2047 128.843 59.4487C128.762 59.5707 128.681 59.652 128.599 59.774L128.884 60.262L129.047 60.75C129.413 60.4247 129.413 60.018 129.453 59.6927C129.535 59.3673 129.616 59.0013 129.738 58.676C129.982 58.7167 130.104 58.798 130.348 58.798C130.429 58.798 130.47 58.7573 130.511 58.676C130.511 58.6353 130.511 58.5133 130.47 58.4727C130.348 58.3913 130.145 58.3913 129.982 58.2693C129.982 58.2287 129.982 58.1067 129.982 58.066C129.982 57.9847 130.145 57.9033 130.226 57.944C130.47 57.9847 130.714 58.066 130.917 58.1473C131.283 58.92 130.917 59.652 130.836 60.3433C130.917 60.3433 131.283 60.262 131.365 60.14C131.405 60.262 131.446 60.3433 131.446 60.4247C131.243 61.3193 130.958 62.2547 130.755 63.2307L130.673 63.8C130.958 63.922 131.202 63.8407 131.283 63.678C131.975 62.6613 133.154 61.9293 134.089 61.0347C134.211 60.872 134.333 60.8313 134.496 60.7093C135.065 60.384 135.594 59.9773 136.163 59.652C136.448 59.6927 136.123 59.896 136.285 60.018L136.855 60.14C136.977 59.9773 136.733 59.9367 136.651 59.774C136.855 59.3673 137.099 59.0013 137.587 58.798C137.953 58.676 138.278 58.5947 138.644 58.676C138.888 58.7573 138.929 58.7167 138.969 58.3913C139.051 58.188 139.173 58.1067 139.335 58.1473C139.864 58.1473 140.311 57.9847 140.759 57.7407C141.084 57.822 141.328 57.8627 141.694 57.9033C141.979 57.9033 142.223 57.9847 142.507 58.066C143.361 58.31 143.605 58.92 143.687 59.5707C143.809 59.9773 143.89 60.506 143.524 60.872C143.443 60.9533 143.483 61.1567 143.483 61.238C143.321 61.2787 143.199 61.2787 143.117 61.2787C142.792 61.36 142.629 61.4413 142.711 61.5633C142.751 61.6447 142.792 61.6447 143.158 61.6447C143.158 61.6447 143.199 61.726 143.158 61.7667C143.077 61.97 142.995 62.092 142.914 62.2547C142.67 62.4987 142.345 62.7833 142.385 63.1493L141.735 63.5967C141.735 63.8 141.694 64.0847 141.572 64.3693L141.165 64.9793C140.759 65.7927 140.352 66.606 139.864 67.4193C139.376 68.07 139.213 68.7207 138.929 69.3713C138.847 69.534 138.807 69.6967 138.766 69.8187C138.156 70.7133 138.115 71.73 137.831 72.6653C137.749 73.0313 137.871 73.316 138.197 73.4787C138.563 73.7227 138.685 74.048 138.603 74.3733C138.563 74.5767 138.725 74.7393 138.766 74.9427C138.603 75.4713 138.034 75.8373 137.546 76.1627C137.465 76.2847 137.261 76.2847 137.058 76.2847C136.123 76.244 135.35 75.878 134.781 75.1867C134.374 74.6173 134.089 73.8853 134.171 73.1533C134.211 72.218 134.293 71.364 134.618 70.4287C135.147 68.9647 135.716 67.5007 136.529 66.118C136.855 65.4673 137.099 64.898 137.505 64.3693C137.953 63.678 138.237 62.9867 138.603 62.2547ZM135.716 71.486C135.797 71.486 135.838 71.5267 135.838 71.486C136.367 71.0387 136.204 70.3067 136.611 69.778V69.5747L136.57 69.534C136.489 69.534 136.407 69.534 136.367 69.534L136.204 69.7373C136.041 70.266 135.797 70.9167 135.716 71.486ZM127.745 62.3767C128.071 62.3767 128.315 62.4173 128.599 62.4173C128.721 62.2953 128.721 62.1733 128.681 62.0513C128.599 61.7667 128.437 61.6853 128.233 61.8073C128.152 61.9293 127.989 62.092 127.786 62.092C127.745 62.1327 127.745 62.2547 127.745 62.3767ZM137.18 68.192C136.692 68.2327 136.814 68.558 136.692 68.6393C136.611 68.8427 136.448 68.9647 136.204 69.168C136.611 69.1273 136.814 69.0867 136.855 68.9647C136.977 68.7207 137.058 68.558 137.18 68.192ZM140.433 61.8073L141.165 61.6853C141.165 61.6447 141.165 61.5633 141.206 61.5227L140.596 61.4413C140.555 61.4007 140.433 61.482 140.393 61.482C140.352 61.5633 140.311 61.6447 140.311 61.726C140.311 61.7667 140.433 61.8073 140.433 61.8073ZM133.561 65.264C133.683 65.1013 133.601 64.9387 133.601 64.8167C133.561 64.776 133.398 64.7353 133.317 64.776C133.276 64.776 133.195 64.898 133.195 64.9387C133.317 65.0607 133.317 65.264 133.561 65.264ZM154.552 73.9667C154.714 74.292 154.674 74.5767 154.592 74.9427C154.186 76.122 153.82 77.342 153.413 78.4807C153.006 79.782 152.437 80.9613 151.705 82.0593C151.258 82.7507 150.729 83.32 150.119 83.8487C150.038 83.8893 149.997 84.0113 149.916 84.0113C149.672 84.052 149.387 83.93 149.184 84.296C149.062 84.4993 148.777 84.5807 148.533 84.662C148.208 84.8247 147.842 84.9873 147.435 84.8247C147.232 84.7027 147.028 84.784 146.866 84.7433C146.622 84.7433 146.378 84.7433 146.174 84.662C145.361 84.296 144.466 84.0927 143.897 83.2793C143.816 83.198 143.734 83.1167 143.653 83.076C142.799 82.588 142.148 81.856 141.66 81.0833C141.579 80.9207 141.457 80.7987 141.335 80.758C140.888 80.392 140.684 79.9853 140.562 79.416C140.562 79.3753 140.522 79.2533 140.481 79.1313C140.278 78.2773 140.562 77.6673 141.376 77.22C141.742 76.976 142.026 77.0573 142.27 77.464C142.27 77.464 142.27 77.5453 142.311 77.5453C142.392 77.6673 142.474 77.7893 142.555 77.7893C142.636 77.7487 142.718 77.6673 142.718 77.5453C142.84 77.4233 142.84 77.3013 142.88 77.1387C143.572 77.4233 143.897 77.9113 144.304 78.3993C145.076 79.3347 145.89 80.148 146.866 80.7987C147.272 81.124 147.435 81.124 147.842 80.7987C148.492 80.2293 148.858 79.4567 149.184 78.7653C149.753 77.5047 150.322 76.2847 150.607 74.9427C150.729 74.536 150.892 74.0887 151.054 73.682C151.176 73.3973 151.258 73.072 151.136 72.7467C150.851 72.6653 150.648 72.8687 150.404 73.0313C149.794 73.3973 149.021 73.5193 148.33 73.6007C147.882 73.7227 147.435 73.6007 147.028 73.5193C146.174 73.316 145.564 72.8687 144.914 72.3807C144.1 71.7707 143.775 70.754 143.572 69.778C143.328 68.5987 143.49 67.3787 143.897 66.24C144.222 65.02 144.792 63.922 145.564 62.9053C146.215 62.0107 147.028 61.1973 147.801 60.4653C147.964 60.3027 148.126 60.14 148.33 60.0587C148.655 59.9367 148.899 59.7333 149.143 59.53C149.834 59.0013 150.607 58.554 151.542 58.554C151.705 58.554 151.786 58.4727 151.908 58.3913C152.071 58.31 152.274 58.2693 152.437 58.2693C153.291 58.2287 154.145 58.2693 154.958 58.554C155.243 58.6353 155.528 58.7573 155.731 58.8793C156.341 59.2047 156.341 59.2453 156.463 60.018C156.87 60.14 157.073 59.6927 157.439 59.652C157.561 59.7333 157.683 59.8147 157.805 59.9367C158.212 60.262 158.13 60.8313 158.334 61.238C158.456 61.4413 158.334 61.726 158.293 62.0107C158.212 62.2953 158.13 62.5393 158.09 62.8647C158.008 63.0273 157.886 63.2307 157.927 63.3933C158.13 64.166 157.602 64.8167 157.358 65.4673C157.236 65.9553 157.032 66.4433 156.91 66.9313C156.504 68.68 156.016 70.4287 155.487 72.1367L155.121 73.1533C154.958 73.438 154.755 73.6413 154.552 73.9667ZM147.191 68.68C147.191 69.5747 147.72 69.9407 148.452 69.6967C148.492 69.656 148.533 69.656 148.533 69.6153C149.184 69.3307 149.794 68.9647 150.322 68.5173C150.932 68.0293 151.38 67.3787 152.071 66.972C152.193 66.8907 152.234 66.7687 152.315 66.6467C152.437 66.362 152.6 66.118 152.762 65.874C153.413 65.02 153.779 64.044 153.942 62.946C154.023 62.458 153.942 62.336 153.494 62.092C153.128 62.0107 152.803 62.0107 152.396 62.092C151.868 62.2953 151.38 62.4987 150.932 62.8647C150.119 63.434 149.387 64.166 148.777 65.02C148.411 65.5487 148.004 66.118 147.72 66.6873C147.435 67.338 147.313 68.1107 147.191 68.68ZM151.461 77.1387L151.664 77.0167C151.908 76.2033 152.234 75.39 152.518 74.536C152.884 73.56 153.088 72.462 153.657 71.4453C153.698 71.364 153.738 71.242 153.698 71.1607C153.698 71.0793 153.576 70.9573 153.494 70.9167C153.413 70.876 153.291 70.9167 153.25 70.998C153.128 71.2013 153.006 71.4453 152.925 71.6893C152.559 72.9093 152.315 74.0887 151.868 75.268C151.705 75.5933 151.746 76 151.502 76.2847C151.583 76.5287 151.258 76.854 151.461 77.1387ZM154.836 72.5433C154.552 72.9907 154.552 72.9907 154.674 73.316C154.796 73.1127 154.999 72.8687 154.836 72.5433Z" fill="black"/>
</svg>
