<svg width="159" height="86" viewBox="0 0 159 86" fill="none" xmlns="http://www.w3.org/2000/svg">
<path d="M8.16467 5.77C7.758 5.81067 7.514 5.93267 7.148 5.97333C6.70067 6.05467 6.21267 6.29867 5.72467 6.09533C5.64333 6.05467 5.44 6.136 5.27733 6.17667C5.074 5.93267 4.87067 5.60733 4.62667 5.44467C4.586 5.36333 4.464 5.24133 4.38267 5.24133C3.65067 5.32267 3.61 4.75333 3.69133 4.34667C3.854 3.696 3.93533 3.04533 4.54533 2.72C4.708 2.76067 4.87067 2.80133 4.99267 2.88267C5.318 2.842 5.196 2.43533 5.562 2.232C6.416 2.11 7.35133 1.82533 8.32733 1.58133C8.69333 1.54067 9.14067 1.58133 9.588 1.54067C9.75067 1.378 9.832 1.05267 10.1167 0.930666C10.2793 0.89 10.4013 0.849334 10.564 1.012C10.6453 1.134 11.418 1.21533 11.6213 1.256C11.9873 1.29667 12.3533 1.256 12.638 1.378C13.1667 1.622 13.614 1.66267 14.1833 1.78467C14.2647 1.866 14.3053 1.744 14.4273 1.378C14.7527 1.378 15.1187 1.29667 15.444 1.33733C15.8507 1.378 16.2167 1.33733 16.6233 1.378C16.9487 1.33733 17.3147 1.33733 17.64 1.45933C17.9247 1.54067 18.25 1.66267 18.616 1.622C18.9007 1.622 19.226 1.622 19.5107 1.54067C20.1613 1.378 20.7307 1.58133 21.3 1.82533C21.422 1.866 21.6253 1.988 21.7473 2.02867C21.8287 1.988 21.9507 1.90667 22.032 1.866C22.6013 1.54067 22.6827 1.58133 23.2113 2.06933C23.374 2.19133 23.4553 1.988 23.5773 1.988C23.74 1.94733 23.862 1.90667 23.984 1.94733C24.228 1.988 24.35 2.19133 24.5127 2.15067C24.716 2.232 24.9193 2.11 25.082 2.232C25.2853 2.39467 25.4073 2.476 25.6513 2.67933C25.5293 2.92333 25.4073 3.00467 25.3667 3.208C25.57 3.49267 25.8953 3.77733 26.0987 4.02133C26.18 4.38733 26.0173 4.63133 25.936 4.916C25.692 4.83467 25.5293 4.794 25.3667 4.672C25.082 4.916 25.4887 5.16 25.326 5.48533C25.0007 5.48533 24.6753 5.526 24.1873 5.60733C24.3907 5.77 24.472 5.77 24.6753 5.892C24.2687 6.014 23.9027 6.05467 23.496 5.93267C23.1707 5.81067 22.8453 5.85133 22.4793 5.72933C21.3407 5.56667 20.1207 5.60733 18.9007 5.404C18.616 5.36333 18.3313 5.404 18.006 5.404C17.6807 5.44467 17.274 5.36333 16.9487 5.32267C16.908 5.282 16.8267 5.24133 16.786 5.282C16.0947 5.60733 15.444 5.282 14.7933 5.32267C14.1833 5.32267 13.5327 5.36333 12.8413 5.36333C12.3533 5.36333 12.15 5.60733 12.1907 6.136C12.272 6.746 12.0687 7.31533 11.8653 7.844C11.8247 8.21 11.7027 8.576 11.662 9.02333C11.54 9.552 11.3773 10.04 11.296 10.5687C11.052 11.5853 10.8487 12.5613 10.564 13.6187C10.4827 13.7813 10.5233 14.0253 10.4827 14.2287C10.6453 14.5133 10.8893 14.2287 11.0113 14.2693C11.2553 14.31 11.418 14.4727 11.6213 14.554C11.784 14.4727 11.906 14.3507 11.9873 14.2693C12.9633 14.31 15.444 14.3913 16.3793 14.3507C16.6233 14.31 16.8673 14.3507 17.03 14.4727C17.1113 14.6353 17.274 14.5133 17.4773 14.5133C17.5993 14.5133 17.8433 14.5947 17.9653 14.676C18.4127 15.042 18.9007 15.2047 19.47 15.2453C19.5513 16.0587 19.5513 16.0587 19.348 16.5467C19.6733 16.7907 20.1207 17.0347 19.7547 17.6447C19.5513 17.604 19.3887 17.604 19.1447 17.604C18.6567 18.1327 18.6567 18.092 17.9247 18.2953C17.5993 18.4173 17.152 18.2547 16.8267 18.458C16.5827 18.58 16.2573 18.3767 16.0947 18.1733C15.9727 18.0513 15.8507 17.8887 15.6067 17.9293C15.566 17.9293 15.4847 18.0107 15.4847 18.0107C15.566 18.1733 15.5253 18.336 15.3627 18.2547C15.0373 18.092 13.2073 18.2547 12.9227 18.2547C11.9467 18.2953 10.9707 18.4173 9.954 18.2953C9.87267 18.2953 9.75067 18.2953 9.62867 18.2953C9.54733 18.4173 9.42533 18.6613 9.38467 18.8647C9.05933 20.0847 8.32733 22.972 8.04267 24.1513C8.002 24.3953 7.92067 24.6393 7.92067 24.8833C7.55467 26.4693 7.27 28.1367 6.98533 29.7227C6.86333 30.2513 6.86333 30.7393 6.904 31.2273C6.904 32.4067 6.09067 33.3827 4.74867 33.586C4.586 33.6267 4.42333 33.5047 4.42333 33.3827C4.66733 32.5287 4.38267 31.7967 4.586 30.9833C4.66733 30.2513 4.74867 29.3973 4.952 28.6653C5.23667 27.1607 5.48067 25.6153 5.76533 24.07C5.806 23.9073 5.76533 23.704 5.684 23.338C5.27733 24.3953 5.11467 25.29 4.91133 26.266C4.74867 26.876 4.66733 27.5673 4.42333 28.218C4.38267 28.2993 4.342 28.4213 4.38267 28.5027C4.586 29.1533 4.42333 29.804 4.26067 30.414C4.098 31.1867 3.81333 32 3.854 32.9353C3.854 33.0167 3.77267 33.0573 3.69133 33.1387C3.65067 33.1387 3.52867 33.098 3.44733 33.0573C3.122 32.854 2.83733 32.488 2.79667 32C2.79667 31.5527 2.79667 31.1053 2.79667 30.6173C2.83733 29.9667 3 29.3567 3.16267 28.706C3.20333 28.584 3.244 28.4213 3.244 28.2993C3.28467 26.8353 3.732 25.4933 4.01667 24.1513C4.098 23.2567 4.83 20.776 4.99267 19.8407C5.11467 19.434 5.196 18.946 5.27733 18.58C5.48067 18.0513 5.48067 17.6447 5.196 17.1973C5.11467 17.0753 5.03333 16.872 5.074 16.8313C5.35867 16.5873 5.15533 16.2213 5.39933 15.9367C5.88733 15.53 6.37533 14.2287 6.45667 13.6187C6.82267 12.5613 6.82267 11.4227 7.392 10.4873C7.514 9.83667 7.59533 9.14533 7.71733 8.53533C7.79867 8.04733 7.79867 7.51867 7.96133 7.112C8.20533 6.66467 8.20533 6.21733 8.124 5.77C8.40867 5.526 8.32733 5.24133 8.44933 4.916C8.40867 4.87533 8.28667 4.71267 8.16467 4.71267C8.16467 4.672 7.96133 4.794 7.96133 4.87533C7.96133 5.16 7.92067 5.48533 8.16467 5.77ZM8.368 12.6833C8.69333 12.2767 8.734 11.7887 8.856 11.3413C8.856 10.8533 9.14067 10.4467 9.14067 9.87733C8.734 10.1213 8.612 10.3247 8.612 10.6907C8.612 11.1787 8.40867 11.626 8.32733 12.0733C8.32733 12.236 8.32733 12.4393 8.368 12.6833ZM6.94467 18.6207C6.82267 18.9053 6.66 18.9867 6.61933 19.19C6.538 19.556 6.49733 19.922 6.45667 20.3287C6.45667 20.3693 6.538 20.4507 6.57867 20.4507C7.026 19.5153 7.06667 19.3933 6.94467 18.6207ZM4.01667 4.59067C4.22 4.71267 4.464 4.794 4.708 4.87533C4.708 4.87533 4.83 4.83467 4.87067 4.75333C4.91133 4.71267 4.87067 4.63133 4.83 4.55C4.708 4.428 4.586 4.34667 4.38267 4.26533C4.17933 4.184 4.05733 4.34667 4.01667 4.59067ZM9.62867 7.07133C9.344 7.478 9.344 7.478 9.42533 7.6C9.42533 7.68133 9.588 7.76267 9.588 7.722C9.75067 7.478 9.75067 7.39667 9.62867 7.07133ZM18.128 16.994C18.0467 17.238 17.884 17.36 17.762 17.5633C17.7213 17.604 17.8027 17.6853 17.8027 17.726C17.884 17.726 17.9653 17.726 18.0467 17.6853C18.2093 17.5633 18.372 17.3193 18.128 16.994ZM36.6876 17.0753C36.7689 17.2787 37.1349 17.1567 37.0536 17.5227C37.0129 17.6853 37.2569 17.8073 37.4602 17.8073C37.5416 17.8073 37.6636 17.8073 37.7856 17.8073C37.7449 17.9293 37.7856 18.0513 37.7449 18.1327C37.6229 18.4173 37.4196 18.6613 37.2569 18.8647C36.9722 19.2713 36.6062 19.5967 36.3622 19.9627C36.1182 20.3287 36.0369 20.776 35.8336 21.1827C35.7929 21.2233 35.7522 21.3047 35.7522 21.3453C35.6302 21.752 35.2642 21.996 35.1829 22.4433C35.1422 22.8093 35.0202 23.216 34.9389 23.6227C34.8576 24.192 34.7762 24.7613 34.6542 25.3713C34.4102 26.6727 34.2882 27.974 34.6949 29.2753C34.7356 29.5193 34.6542 29.7227 34.6136 29.9667C34.5729 30.0073 34.6136 30.0887 34.7762 30.1293C34.9389 30.17 34.9389 30.3733 34.8576 30.4547C34.6949 31.024 34.2882 31.39 33.8002 31.6747C33.3936 31.878 32.9462 31.8373 32.4582 31.7153C32.4176 31.6747 32.3362 31.5527 32.2956 31.4307C32.1329 31.1867 32.0516 30.902 31.9296 30.658C31.8482 30.4547 31.6856 30.536 31.5636 30.7393C30.9942 30.0073 30.6689 29.316 30.7909 28.3807C30.9129 27.6893 30.7909 27.0387 30.6689 26.3473C30.2622 26.3067 30.1402 26.5913 30.0182 26.754C29.3269 27.4453 28.7169 28.1773 28.1069 28.9093C27.8629 29.194 27.6189 29.4787 27.2529 29.6007C27.1716 29.6007 27.0496 29.7633 26.9682 29.8853C26.6022 30.3733 26.1142 30.658 25.5449 30.902C25.2196 31.0647 24.7722 31.268 24.4469 31.39C23.7149 31.634 22.9829 31.634 22.2916 31.3087C21.1529 30.7393 20.2989 29.9667 19.9736 28.6653C20.0956 28.5027 20.2176 28.3807 20.2989 28.218C20.2176 27.974 19.9736 28.096 19.8516 28.0553C19.8109 28.0147 19.7702 27.974 19.7702 27.9333C19.5262 25.9 19.7702 23.9073 20.4209 22.0367C21.0716 20.2473 22.0476 18.58 23.3082 17.0753C23.7149 16.628 24.2436 16.3433 24.7316 15.9367C25.1382 15.4893 25.5042 15.042 25.9516 14.676C26.5209 14.1473 27.2529 14.0253 27.9442 13.7407C28.5136 13.5373 30.3842 13.7813 30.9536 14.066C31.0756 14.1473 31.2789 14.2693 31.4009 14.3913C32.1329 15.0827 32.7836 15.8147 32.9462 16.872C33.0276 17.0753 33.0682 17.4007 33.3936 17.482C33.5156 17.3193 33.6782 17.116 33.8816 16.9127C34.0849 16.6687 34.3289 16.4653 34.5322 16.2213C34.7356 16.018 35.0202 16.0587 35.2642 16.14C35.3456 16.628 35.3049 16.994 34.9389 17.36C34.7762 17.5227 34.6949 17.8073 34.6136 18.0107C34.5729 18.0513 34.6542 18.214 34.6949 18.214C34.8169 18.214 34.9389 18.2547 34.9796 18.214C35.1422 18.0107 35.3456 17.848 35.4269 17.604C35.5489 17.3193 35.7116 16.994 36.0369 16.872C36.1996 16.7907 36.1996 16.628 36.1996 16.4653C36.1996 16.14 36.4842 16.0587 36.6876 15.9367C36.7689 15.9367 36.8909 15.9367 37.0129 15.9773C37.0536 15.9773 37.1349 16.14 37.1349 16.2213C37.0942 16.4247 37.0129 16.5873 36.8909 16.75C36.8502 16.872 36.7689 16.9533 36.6876 17.0753ZM23.3489 27.5267C23.7962 27.608 23.9589 27.4453 24.2029 27.242C25.3416 26.4287 26.2362 25.29 27.2122 24.2327C27.9849 23.4193 28.5949 22.5653 29.2456 21.63C29.5709 21.2233 30.0182 20.898 30.0996 20.3693C30.0182 20.0847 29.9369 19.7593 29.7742 19.434C29.6522 19.19 29.8962 18.9053 29.7742 18.702C29.6116 18.336 29.3269 17.9293 29.0829 17.5633C29.0016 17.4413 28.7576 17.4007 28.5949 17.482C28.2289 17.726 27.8222 17.8887 27.5782 18.1733C27.0089 18.8647 26.3176 19.3933 25.7889 20.1253C24.6502 21.7113 23.7962 23.3787 23.5116 25.29C23.3896 26.022 23.3896 26.754 23.3489 27.5267ZM22.0882 22.4433C22.3322 21.874 22.5356 21.4267 22.7389 20.9793C22.7389 20.898 22.6576 20.8573 22.5762 20.776H22.4949C22.3729 20.8573 22.2916 20.898 22.2916 21.02C22.1289 21.4267 22.0069 21.8333 21.9256 22.24C21.8849 22.24 21.9662 22.2807 22.0882 22.4433ZM34.0849 23.5007C34.2476 23.3787 34.4102 23.338 34.5322 23.216C34.5729 23.216 34.6136 23.094 34.5729 23.094C34.5322 23.0127 34.4102 22.972 34.4102 22.972C34.2476 23.094 34.0849 23.216 33.9629 23.2567C33.9222 23.2973 33.9222 23.338 33.9222 23.3787C33.9629 23.3787 34.0036 23.4193 34.0849 23.5007ZM48.6915 11.0973C48.8542 11.3007 48.9355 11.4633 49.0575 11.5447L49.3422 11.382L50.3182 11.9107V12.9273C50.3182 12.9273 50.4402 12.968 50.4809 13.0087C50.4809 12.968 50.5622 12.9273 50.5622 12.846V12.48C50.9282 12.6427 51.0909 12.846 50.9689 13.212C50.8875 13.4967 50.9689 13.4967 51.2942 13.6187C51.4162 13.8627 51.4569 14.1067 51.4975 14.3507C51.6195 14.798 51.5789 15.164 51.3349 15.53C51.2535 15.6927 51.1315 15.8553 50.9282 15.8147C50.7655 15.8147 50.7249 15.896 50.6842 16.018C50.6842 16.506 50.3589 16.7093 49.9929 16.9127C49.7082 16.628 49.5455 16.3433 49.3422 16.018L48.8949 15.53C48.8135 15.4487 48.5695 15.53 48.5695 15.6927L48.4475 16.4247H48.2849C48.2035 16.018 47.9189 15.7333 47.9189 15.3267C47.9189 14.9607 47.6749 14.798 47.3902 14.798C47.1055 14.8793 46.8209 14.8793 46.5362 14.9607C46.1702 15.2047 45.8042 15.4893 45.4789 15.774C44.9502 16.262 44.4215 16.7907 44.0555 17.4007C43.1202 18.8647 42.3069 20.41 41.9409 22.118C41.9002 22.362 41.8189 22.606 41.7375 22.85L40.9242 23.0533C40.8429 23.2973 40.6395 23.582 40.5175 23.9073C40.4769 24.0293 40.5989 24.1107 40.6802 24.192C40.7209 24.192 40.9242 24.192 40.9242 24.1107C41.0055 23.7853 41.3309 23.582 41.5342 23.2973V25.534C41.5342 25.9813 41.6562 26.4287 41.7375 26.876C41.8595 27.6487 42.3475 28.1773 43.0795 28.462C43.2422 28.584 43.4049 28.6247 43.5675 28.706C44.6655 28.584 45.3975 27.9333 46.1702 27.3233C46.4142 27.12 46.6582 26.8353 46.9429 26.7133C47.0649 26.6727 47.1055 26.5507 47.1462 26.4693C47.4309 25.9813 47.6342 25.4933 48.0002 25.046C48.4069 24.3547 48.7322 23.582 48.7729 22.7687C48.8135 22.5653 48.8542 22.362 48.9762 22.118C49.0575 21.9147 49.0575 21.7113 49.0575 21.508C49.0169 21.1827 49.2202 21.02 49.6269 21.02C49.8302 21.02 49.9929 21.1827 50.0335 21.3047C50.0742 21.6707 50.0335 21.996 49.9522 22.3213C49.7895 22.606 49.8302 22.8907 49.8709 23.1753C49.9115 23.216 49.9929 23.338 49.9929 23.338C50.0335 23.2973 50.2369 23.2567 50.2369 23.1753C50.4402 22.2807 50.6029 21.4267 50.7655 20.4913C50.9689 20.6947 51.1722 20.654 51.4162 20.6947C51.7415 20.6947 51.9042 20.9387 51.8635 21.264V21.9147C51.9449 21.9147 52.0262 21.9147 52.0262 21.874C52.1889 21.752 52.3515 21.7113 52.4329 21.874C52.5142 22.0367 52.6362 22.1993 52.6362 22.362C52.6362 22.7687 52.6362 23.1753 52.5955 23.582C52.5955 24.07 52.0262 24.3953 52.2295 24.924L51.7009 26.1033L51.4569 26.5913C51.1722 27.242 50.8469 27.6893 50.1555 27.852C50.0335 28.0553 49.9115 28.34 49.8709 28.584C49.8302 28.9907 49.5862 29.316 49.3015 29.6007C48.5695 30.292 47.8375 30.9427 46.9835 31.4713C46.1702 31.9593 45.3162 32.244 44.4215 32.4067C44.2182 32.488 44.0555 32.4473 43.8522 32.4473C43.5269 32.5287 43.4455 32.244 43.2829 32C43.1202 32.0813 42.9169 32.244 42.7542 32.244C42.3475 32.2033 41.9409 32.122 41.5749 31.9593C41.3715 31.878 41.2495 31.7967 41.0055 31.756C40.5989 31.7153 40.3142 31.4307 40.2329 31.0647C40.1922 30.8207 40.1515 30.6173 39.9075 30.536C38.9315 30.1293 38.4842 29.316 38.3215 28.34C38.3215 28.218 38.3215 28.096 38.2402 27.974C37.8335 27.1607 37.7522 26.266 37.7929 25.3713C37.8335 24.8427 37.7115 24.3953 37.7522 23.9073C37.9555 22.4433 38.1995 21.02 38.7282 19.6373C39.0942 18.5393 39.4602 17.4413 40.0702 16.5467C40.1922 16.506 40.2735 16.4247 40.3142 16.4247C40.4769 16.4247 40.8022 16.7093 40.8835 16.384C40.9242 16.3027 40.7209 16.0993 40.5989 15.896C40.5989 15.8147 40.5989 15.652 40.7209 15.53C41.4529 14.2693 42.5102 13.212 43.6489 12.2767C44.3402 11.748 45.1942 11.4633 46.0075 11.138C46.4142 11.0567 46.8209 11.0567 47.2275 11.0973C47.4715 11.0973 47.7155 11.26 48.0002 11.26C48.2035 11.26 48.4882 11.138 48.6915 11.0973ZM39.9889 23.6227C39.6635 23.0533 39.6229 22.972 39.7449 22.5247C39.9075 21.6707 39.9482 20.8573 40.1922 20.044L40.1109 19.9627C40.0702 20.0033 39.9482 20.0033 39.9075 20.0847C39.6635 20.4507 39.5822 20.898 39.5009 21.386L39.2975 22.7687C39.2569 23.0127 39.1755 23.1753 39.1755 23.4193C39.2162 23.7447 39.1755 24.07 39.2975 24.436C39.5415 24.1107 39.3789 23.582 39.9889 23.6227ZM41.0055 18.2953V18.214C40.8429 18.1733 40.7209 18.092 40.5989 18.0513C40.4362 18.0107 40.3142 17.9293 40.1922 18.092V18.214L40.5582 18.336C40.7209 18.3767 40.8429 18.336 41.0055 18.2953ZM40.7209 18.9053C40.7209 18.824 40.7209 18.7427 40.6395 18.7427C40.4769 18.6613 40.1922 18.9053 40.2735 19.1493C40.2735 19.19 40.3549 19.2307 40.3955 19.2307C40.5989 19.2307 40.7209 19.1493 40.7209 18.9053ZM39.1755 27.608C39.2162 27.4453 39.1755 27.3233 38.9722 27.1607C38.9315 27.12 38.8502 27.1607 38.8502 27.2013C38.7282 27.4453 38.8502 27.6487 39.0129 27.6893C39.0535 27.73 39.1349 27.6487 39.1755 27.608ZM59.953 14.1067C60.1564 14.188 60.0344 14.432 60.1564 14.554C60.319 14.6353 60.685 14.5133 60.807 14.31C60.8884 14.1067 60.807 13.9033 60.8477 13.6187C61.3357 13.6187 61.8644 13.578 62.3524 13.6187C62.515 13.6187 62.7184 13.7 62.881 13.7813C63.0844 13.9033 63.3284 13.944 63.613 13.8627C64.0604 13.822 64.5484 13.9847 64.955 14.1067C65.1584 14.4727 65.3617 14.0253 65.5244 14.1473C65.7684 14.2693 65.8497 14.554 66.2157 14.554C66.3784 14.554 66.6224 14.6353 66.785 14.7573C67.761 15.2453 68.5337 15.9773 68.8997 17.0347C69.1437 17.604 69.3064 18.1733 69.2657 18.8647C69.225 19.3527 69.225 19.3527 68.7777 19.8407C68.859 19.922 68.8997 20.044 68.981 20.1253C68.9404 20.2067 68.981 20.288 68.8997 20.3287C68.493 21.1013 67.9644 21.7927 67.2324 22.3213C67.029 22.4433 66.8257 22.6467 66.663 22.6873C66.3377 22.8093 65.8904 22.8093 65.6057 23.0127C65.2804 23.216 64.955 23.338 64.6297 23.4193C64.467 23.338 64.3857 23.2567 64.2637 23.1753C63.735 23.6633 63.735 23.6633 63.2064 23.6633C62.759 23.6633 62.3524 23.582 61.9457 23.3787C61.905 22.8907 61.539 23.1753 61.2544 23.1753C61.0917 23.094 60.929 22.9313 60.7257 22.7687C60.563 22.6873 60.441 22.5247 60.2784 22.5247C59.7497 22.484 59.8717 22.118 59.831 21.7927C59.6277 21.7927 59.5057 21.7927 59.343 21.7927C59.2617 21.752 59.221 21.7113 59.221 21.7113C59.1397 21.5487 59.2617 21.264 59.0177 21.264C58.8957 21.264 58.733 21.4267 58.6517 21.5487C58.5297 21.9553 58.367 22.362 58.2857 22.8093C58.123 23.46 58.001 24.1107 57.9197 24.7613C57.8384 25.2493 57.879 25.6967 57.9604 26.144C58.001 26.5507 58.0824 26.998 58.123 27.4453C58.5297 27.8113 58.977 28.2587 59.465 28.6653C59.6277 28.6653 59.9124 28.6247 60.1564 28.584C60.685 28.5027 61.295 28.5433 61.8644 28.2993C62.3524 28.0553 62.881 28.0147 63.4097 27.73C63.857 27.486 64.3857 27.3233 64.8737 27.0793C65.4024 26.7947 65.8904 26.51 66.3784 26.1847C67.0697 25.7373 67.761 25.2493 68.371 24.802C68.5337 24.68 68.6964 24.5987 68.859 24.5173C68.981 24.4767 69.225 24.4767 69.2657 24.5173C69.5504 24.8427 69.9164 24.802 70.2824 24.802C70.3637 24.8427 70.445 24.802 70.5264 24.802C71.177 24.8833 71.2584 25.0053 71.1364 25.8187C71.2584 25.9 71.421 25.9813 71.5837 26.1033C71.543 27.3233 70.6484 28.0147 69.713 28.5433C69.347 28.7467 69.0217 28.7873 68.615 28.9093C68.493 29.072 68.3304 29.316 68.2084 29.5193C68.0864 29.7227 67.639 29.2753 67.639 29.7633C67.2324 30.1293 66.785 30.414 66.3377 30.536C66.1344 30.5767 65.931 30.6173 65.809 30.6987C64.9957 31.268 64.101 31.5527 63.2064 31.878C61.783 32.3253 60.4004 32.4473 58.9364 32.2847C58.367 32.2033 57.7977 31.9593 57.6757 31.268C57.6757 31.268 57.635 31.2273 57.5944 31.1867C57.4724 31.146 57.391 31.146 57.3504 31.268C57.3097 31.3493 57.269 31.39 57.269 31.4713C57.1064 31.5527 56.9844 31.4713 56.8624 31.39C56.537 31.146 56.2117 30.9427 55.8864 30.658C55.683 30.414 55.4797 30.17 55.2357 29.926C55.195 29.804 55.1137 29.7227 55.1137 29.6413C54.829 28.6653 54.1784 27.7707 54.2597 26.6727C54.2597 26.388 54.1784 26.1033 54.1377 25.8187C54.097 24.6393 54.1784 23.3787 54.707 22.24C54.7477 22.0773 54.829 21.9147 54.7884 21.6707C54.7477 21.3453 54.7477 21.02 55.0324 20.7353C55.195 20.5727 55.2764 20.288 55.3984 20.0847C55.195 19.8407 55.3577 19.6373 55.5204 19.434C55.6424 19.2307 55.7237 18.946 55.7237 18.702C55.8864 18.2547 56.049 17.8073 56.659 17.6853C56.7404 17.6853 56.8624 17.4413 56.6997 17.36C56.537 17.1567 56.6184 16.994 56.7404 16.872C56.8624 16.75 57.025 16.628 57.147 16.506C57.269 16.4247 57.4724 16.3433 57.4724 16.2213C57.5944 15.53 58.1637 15.2047 58.611 14.798C58.8957 14.5133 59.343 14.3507 59.7497 14.1067C59.7904 14.1067 59.8717 14.1067 59.953 14.1067ZM56.659 20.166C56.2524 20.8167 56.2117 21.02 55.9677 22.2807C56.171 22.3213 56.2117 22.1993 56.2524 22.0773C56.537 21.4673 56.7404 20.8573 56.659 20.166C56.8624 20.0847 57.0657 19.9627 57.0657 19.678C56.8624 19.6373 56.659 19.6373 56.293 19.556C56.4557 19.8407 56.5777 20.0033 56.659 20.166ZM61.173 17.6447C61.417 18.0107 61.5797 18.3767 61.7424 18.7427C61.9864 19.2307 62.393 19.5153 62.8404 19.8C62.9624 19.8407 63.125 19.922 63.247 19.8813C63.8977 19.7593 64.589 19.5967 65.1584 19.1087C65.4837 18.7427 65.3617 18.1733 64.8737 17.9293C64.3044 17.6447 63.5317 17.6447 62.9624 17.1973C62.9624 17.1567 62.8404 17.1567 62.759 17.1567C62.4744 17.2787 62.1897 17.238 61.9457 17.238C61.661 17.238 61.4577 17.482 61.173 17.6447ZM62.4744 14.7573C62.6777 14.7573 62.881 14.5947 62.9624 14.3913C62.9624 14.3507 62.9217 14.2287 62.881 14.2287C62.637 14.1067 62.393 14.2693 62.3524 14.5133C62.3524 14.554 62.4337 14.6353 62.4744 14.7573ZM58.2044 16.262C58.3264 16.506 58.3264 16.628 58.4077 16.7093C58.5297 16.872 58.6924 16.872 58.855 16.75C58.9364 16.7093 58.977 16.628 58.977 16.5467C58.977 16.506 58.9364 16.4247 58.855 16.4247C58.6924 16.384 58.5297 16.3433 58.2044 16.262ZM60.5224 17.6447C60.6037 17.5633 60.685 17.5633 60.7257 17.482C60.807 17.3193 60.5224 16.9533 60.3597 16.994C60.2784 17.0347 60.2784 17.1567 60.2784 17.1973C60.3597 17.36 60.441 17.482 60.5224 17.6447ZM55.9677 23.2567C55.8457 23.1753 55.805 23.1347 55.7237 23.094C55.6424 23.094 55.5204 23.1753 55.4797 23.1753C55.3984 23.2567 55.561 23.5007 55.7237 23.46C55.7644 23.46 55.8457 23.3787 55.9677 23.2567ZM79.9178 16.384L80.0805 16.5467L80.6498 15.8553C80.9752 15.286 81.5445 15.042 81.8698 14.4727C82.1952 13.9847 82.7238 13.7 83.1712 13.2527L83.4965 13.0087C83.6592 12.8867 83.8218 12.968 83.9845 13.1307L84.1065 13.4153C84.1472 13.456 84.2285 13.456 84.2692 13.456C84.2285 13.4153 84.3505 13.3747 84.3505 13.334C84.3505 13.1713 84.2692 13.0087 84.2285 12.8053C84.4725 12.7647 84.6758 12.7647 84.8385 12.602C85.0012 12.48 85.2045 12.2767 85.4892 12.3173C85.7332 12.3173 85.8958 12.3173 86.1398 12.2767C86.3838 12.4393 86.5465 12.8053 86.9938 12.6427C87.2378 12.5613 87.2785 13.0493 87.5632 13.0493L87.6038 13.6187C87.6445 13.944 87.7665 13.9847 88.1325 13.7407C88.2545 13.6187 88.3765 13.7 88.3765 13.822C88.5798 14.0253 88.5392 14.0253 88.2952 14.554L88.7425 14.7167L88.8238 15.53C88.9052 16.14 88.9052 16.14 88.4578 16.5873C88.6205 16.75 88.7832 16.9127 88.9865 17.0753C89.0272 18.0513 88.7832 18.9053 88.6612 19.8813C88.6205 20.166 88.2545 20.1253 88.1732 20.41C88.2138 20.532 88.3358 20.6947 88.4985 20.8167C88.2952 21.3453 88.1325 21.9147 87.9292 22.484C87.8885 22.6467 87.7665 22.7687 87.8072 22.85C87.8885 23.3787 87.4818 23.5413 87.1565 23.826C87.1158 24.1107 87.5225 24.436 87.1565 24.7207C86.9938 25.534 86.4652 26.1033 86.1398 26.8353C86.0178 27.0793 85.8145 27.3233 85.7332 27.6487C85.7332 27.8927 85.5705 28.1367 85.3672 28.34C84.7978 29.1533 84.1472 29.8447 83.3745 30.536C83.2932 30.5767 83.2118 30.658 83.1305 30.7393C82.9678 30.8207 82.8052 30.9427 82.6018 30.9833C82.2358 31.146 81.7885 31.3087 81.3818 31.512C81.0972 31.634 80.8532 31.634 80.6092 31.634C80.2432 31.6747 79.8772 31.6747 79.5112 31.7153L78.6978 31.5527C77.7218 31.4307 76.8678 30.9427 76.1358 30.2107C76.0138 30.1293 76.0138 30.1293 75.5258 29.9667C75.4038 30.414 75.1598 30.8613 74.8752 31.2273C74.6718 31.4307 74.5498 31.756 74.3465 32.0407C74.0618 32.488 73.6552 32.7727 73.0858 32.8133L73.0045 32.2847C72.7198 32.3253 72.3945 32.2847 72.1505 32.4067C71.7438 32.5287 71.5812 32.0813 71.1745 32.0813C71.2152 31.9187 71.3372 31.8373 71.3778 31.7153C71.3778 31.5527 71.3778 31.39 71.3778 31.3493C70.9305 31.1053 70.9305 30.6987 70.9712 30.3327C71.0118 29.926 71.1338 29.56 71.2965 29.2347C71.9065 27.7707 72.5572 26.3067 73.1672 24.7613C73.6958 23.4193 74.1432 21.9553 74.5905 20.6133C74.7125 20.288 74.7125 19.8813 75.1598 19.7187C75.2005 19.678 75.2818 19.556 75.2818 19.5153C75.1192 18.7427 75.4445 18.092 75.6478 17.36C76.0138 16.018 76.4205 14.7167 76.7458 13.334C76.8678 12.846 77.0712 12.4393 77.6405 12.2767C77.6812 12.2767 77.7218 12.1953 77.7625 12.1547C77.7218 11.9513 77.5592 11.992 77.4372 11.9107C77.3558 11.8293 77.2338 11.748 77.2338 11.6667C77.2745 11.504 77.3152 11.382 77.3558 11.26C77.7625 9.83667 78.0878 8.332 78.2912 6.82733C78.3725 6.70533 78.3318 6.54267 78.4538 6.38C78.6165 5.85133 78.6572 5.282 78.3318 4.71267C78.2505 4.428 78.2912 4.22467 78.4132 3.94C78.4945 3.89933 78.4945 3.85867 78.5758 3.77733C78.6978 3.49267 78.6572 3.452 78.1692 3.28933C78.2505 2.51667 78.5352 1.988 79.2265 1.622C79.3485 1.58133 79.4298 1.5 79.4705 1.41867C79.7958 1.05267 80.2025 1.05267 80.6092 1.05267C80.6905 1.09333 80.8125 1.17467 80.8938 1.256C81.3005 2.11 81.3005 2.11 81.9512 2.27267C82.1952 2.39467 82.2765 2.55733 82.1545 2.842C82.1138 2.88267 82.0325 2.964 82.0325 3.00467L82.0732 3.28933L82.5205 3.24867V3.37067C82.3985 4.59067 82.4392 5.892 82.1138 7.07133C81.9918 7.478 81.9918 7.92533 81.9105 8.29133C81.9105 8.41333 81.8698 8.49467 81.8698 8.61667C81.8698 8.942 81.3412 9.10467 81.4632 9.43C81.5852 9.83667 81.4632 10.1213 81.4632 10.4873C81.4225 10.65 81.3818 10.8127 81.3005 10.9753C80.8532 12.6427 80.4465 14.3507 79.9992 15.9773L79.9178 16.384ZM84.7978 16.8313L83.9438 17.9293C83.4558 18.5393 82.9272 19.068 82.5612 19.678C82.1952 20.3287 81.7478 20.898 81.3005 21.4673C81.0972 21.7113 80.9752 21.9553 80.7718 22.1993L79.1858 24.5987L78.3318 25.8593C78.2505 26.0627 78.2098 26.266 78.2098 26.388C78.2098 26.8353 78.4538 27.2013 78.7385 27.486C79.3485 28.0147 80.3245 28.0147 81.0158 27.5267L81.4225 27.1607C81.9105 26.5507 82.3985 25.9407 82.7645 25.2493C83.2118 24.3953 83.6185 23.582 83.9845 22.6873C84.3505 21.6707 84.5132 20.5727 84.8792 19.5153C84.8385 19.068 85.2452 19.0273 85.4485 18.7427C85.3672 18.458 85.2858 18.214 85.2452 17.8887C85.2452 17.7667 85.2045 17.604 85.3265 17.482C85.5298 17.0753 85.3672 16.8313 85.0012 16.5467C84.9605 16.4247 85.0012 16.262 84.8385 16.3027C84.6758 16.262 84.4725 16.4247 84.3912 16.5467C84.3912 16.628 84.4318 16.75 84.4725 16.75C84.5945 16.7907 84.7165 16.8313 84.7978 16.8313ZM77.1118 19.5967L76.7865 20.776C77.1932 20.4913 77.2338 20.4913 77.3152 20.2473C77.3965 19.6373 77.6405 19.1087 78.1692 18.7833C78.2505 18.7833 78.2505 18.58 78.1692 18.4987L77.9252 18.1733C78.6572 15.7333 78.8198 15.1233 78.7385 14.554C78.4945 15.0827 78.3725 15.4893 78.2505 15.896C78.1692 16.018 77.9252 16.0993 78.0065 16.14C78.2098 16.5467 77.8438 16.872 77.7625 17.2787C77.6812 18.0513 77.3558 18.824 77.1118 19.5967ZM86.5465 21.996C86.5872 21.996 86.6278 21.996 86.6278 21.9553C87.2378 21.3453 87.1158 20.532 87.4818 19.8813C87.5225 19.7593 87.5225 19.556 87.4818 19.5153C87.3192 19.1493 87.8072 19.2713 87.8072 18.9867C87.6445 18.9053 87.4818 18.7427 87.3192 18.6207C87.1972 18.7427 87.0752 18.824 87.1158 18.946C86.9125 19.8 86.7498 20.6947 86.4245 21.4673C86.3432 21.63 86.3838 21.874 86.5465 21.996ZM86.0178 24.3953C85.8145 24.1513 85.5705 24.07 85.3265 24.2733C85.1638 24.3953 85.2045 24.5987 85.2858 24.802C85.4892 24.924 85.2045 25.2087 85.6112 25.3713C85.7332 25.0053 86.0178 24.802 86.0178 24.3953ZM81.1785 4.672C81.1785 4.71267 81.2192 4.83467 81.2598 4.95667C81.2598 4.99733 81.3818 5.07867 81.4225 5.07867C81.4632 5.07867 81.5852 4.916 81.5852 4.87533C81.4632 4.63133 81.5038 4.428 81.6665 4.14333L81.5445 4.062C81.5038 4.02133 81.3818 4.02133 81.3412 4.10267C81.1378 4.22467 81.1785 4.428 81.1785 4.672ZM86.0178 17.97C85.9772 17.97 85.9772 17.9293 85.8958 17.9293L85.7332 18.702C85.7332 18.702 85.8145 18.8647 85.8552 18.8647C85.9772 18.824 86.0585 18.824 86.1398 18.7427C86.1805 18.6613 86.2618 18.58 86.1805 18.458C86.1805 18.2953 86.0992 18.1327 86.0178 17.97ZM79.9992 12.0327C79.7145 11.9107 79.4705 11.9513 79.3485 12.1953C79.2672 12.236 79.2672 12.358 79.3078 12.3987C79.3892 12.48 79.5112 12.5613 79.5925 12.5207C79.7552 12.4393 79.9585 12.3173 79.9992 12.0327ZM86.4652 22.5247C86.2618 22.5653 86.0178 22.606 85.8958 22.728C85.8552 22.7687 85.8145 22.8907 85.8552 23.0127C85.8552 23.0533 85.9772 23.0533 86.0178 23.0533C86.3025 23.0533 86.5058 22.8907 86.4652 22.5247ZM78.9012 14.2287C79.0638 14.066 79.2265 13.944 79.2672 13.7407C79.3078 13.7 79.2672 13.578 79.2265 13.5373C79.1858 13.578 79.0638 13.5373 78.9418 13.5373C78.7385 13.6593 78.7792 13.9033 78.9012 14.2287ZM79.8365 10.4873C79.5925 10.528 79.4705 10.6907 79.5925 10.8127C79.5925 10.8533 79.7552 10.9753 79.8365 10.9753C79.9178 10.9347 80.1212 10.8127 80.0398 10.65C80.0398 10.5687 79.8772 10.5687 79.8365 10.4873ZM87.4412 17.6447L87.1158 17.9293C87.2378 18.0513 87.2785 18.1733 87.3598 18.214C87.4412 18.336 87.6038 18.1327 87.6038 18.0107C87.6445 17.848 87.5225 17.6447 87.4412 17.6447ZM87.1972 15.652L86.9125 15.8553L86.9532 16.0993C87.0345 16.0587 87.1972 16.0587 87.3192 15.9773C87.4005 15.9367 87.4412 15.8147 87.4818 15.7333C87.4412 15.652 87.3598 15.652 87.1972 15.652ZM103.296 22.484C103.621 23.1753 103.418 23.094 102.971 23.2973C103.052 23.5007 103.133 23.704 103.052 23.9073C102.889 24.4767 102.645 24.924 102.32 25.534C102.239 25.29 102.198 25.29 102.198 25.2087C102.157 25.1273 102.076 25.0867 102.117 25.0053C101.629 25.29 101.629 25.29 102.035 25.9813C101.588 26.998 100.897 27.8113 100.246 28.584C100.165 28.7467 100.002 28.7873 99.8801 28.8687C99.7987 28.9093 99.6361 28.95 99.5547 29.1127C99.4327 29.2753 99.1887 29.3973 99.1887 29.6007C98.9854 30.0073 98.5787 30.2513 98.2127 30.4953C97.5621 31.0647 96.8707 31.4713 96.0574 31.7967C95.1627 32.122 94.2681 32.0813 93.3327 31.9593C93.1701 31.9187 93.2107 31.4713 92.9261 31.4307C92.6414 31.39 92.3974 31.2273 92.1941 31.146C91.6654 30.9427 91.4621 30.5767 91.5027 30.0887C91.5027 29.8447 91.2994 29.8447 91.2181 29.682C91.3807 29.6413 91.5434 29.6413 91.7874 29.6007C91.5434 29.316 91.1367 29.3567 90.9334 29.1533C90.6894 28.8687 90.6894 28.5433 90.6487 28.218C90.6081 27.3233 90.4454 26.388 90.5674 25.4933C90.6894 24.5173 90.7301 23.46 91.1774 22.5247C91.3807 21.9553 91.6247 21.386 91.6654 20.8573C91.7061 20.6947 91.7467 20.5727 91.8281 20.41C92.2347 19.8407 92.2347 19.1493 92.0314 18.5393C91.7874 17.6853 92.0721 16.9533 92.3974 16.14C92.6007 15.4893 93.0481 14.8793 93.5361 14.3507C94.0647 13.7407 94.6747 13.1307 95.4067 12.6833C95.8134 12.358 96.2607 12.0733 96.7081 11.9513C96.9521 11.9107 97.1147 11.8293 97.2774 11.748C98.0907 11.26 98.9447 11.1787 99.7987 11.4633C100.653 11.6667 101.507 11.9513 102.198 12.5207C102.361 12.6427 102.483 12.7647 102.483 12.846C102.564 13.2933 103.093 13.4153 103.174 13.7407C103.296 14.0253 103.499 14.2693 103.54 14.432C103.865 15.3267 104.069 16.262 104.15 17.116C104.272 18.0513 104.313 18.946 104.15 19.8407C104.109 20.044 104.15 20.288 104.15 20.532C104.109 20.7353 104.109 20.9387 103.987 21.0607C103.743 21.3047 103.621 21.63 103.581 22.0367C103.54 22.1587 103.337 22.3213 103.296 22.484ZM99.6767 21.386C99.3921 21.4267 99.3514 21.5893 99.3107 21.7927C99.2294 22.118 99.1481 22.24 98.8634 22.1587C98.8227 22.1587 98.7414 22.1993 98.6601 22.118C98.4161 22.0367 98.3347 22.118 98.1721 22.24C98.1314 22.362 97.9687 22.4027 97.8061 22.4433C97.5214 22.4027 97.1961 22.362 96.8707 22.2807C96.4234 22.1993 96.0167 22.118 95.5694 22.0367C95.2034 22.0367 95.0407 22.1587 95.0001 22.5247C94.9594 22.7687 94.9187 22.972 94.7561 23.1347C94.5934 23.2567 94.5934 23.3787 94.5527 23.46C94.4714 23.948 94.4714 24.436 94.3901 24.8833C94.3087 25.412 94.5934 25.9813 94.0241 26.3067C94.0241 26.3473 94.0241 26.388 94.0241 26.4287C94.3494 26.876 94.2274 27.4453 94.3901 27.9333C94.5121 28.1367 94.7154 28.218 94.9594 28.1367C95.6914 27.7707 96.3014 27.242 96.9114 26.7133C97.4401 26.2253 97.8874 25.6153 98.4161 25.1273C98.4567 25.046 98.5381 24.924 98.5787 24.8833C98.4974 24.558 98.7414 24.3547 98.8227 24.07C99.1074 23.5413 99.3921 22.972 99.6361 22.362C99.7987 22.118 99.7581 21.752 99.6767 21.386ZM99.4327 21.0607C99.7581 20.9793 99.8801 20.9793 99.9207 20.9793C100.287 20.7353 100.49 20.4507 100.49 20.0847C100.531 19.556 100.49 19.0273 100.49 18.5393C100.49 17.726 100.409 16.9533 100.124 16.262C99.9614 15.8147 99.8394 15.408 99.4327 15.164C98.7007 15.0827 98.0907 15.4487 97.4401 15.5707C97.0741 15.6927 97.0741 16.1807 96.7894 16.4247C96.6674 16.5467 96.4641 16.6687 96.2607 16.7907C96.0981 16.994 96.0167 17.1567 95.8541 17.238C95.6914 17.6853 95.8541 18.0107 95.9354 18.4173C96.4234 18.2547 96.7894 18.458 97.1961 18.5393C97.6434 18.6207 98.0501 18.702 98.4567 18.7833C98.4567 19.068 98.4567 19.19 98.4974 19.3527C98.9041 19.5153 99.3921 19.19 99.7174 19.6373C99.8801 20.0847 99.6767 20.4913 99.4327 21.0607ZM101.588 21.63C101.425 21.7113 101.385 21.7113 101.344 21.6707C100.937 22.5247 100.449 23.2973 100.083 24.1107C99.9614 24.2327 100.002 24.4767 100.002 24.6393C100.043 24.7207 100.124 24.7613 100.124 24.802C100.165 24.802 100.246 24.7613 100.287 24.7207C100.937 23.7853 101.425 22.8093 101.588 21.63ZM103.093 15.286C102.808 15.408 102.564 15.4487 102.32 15.5707C102.279 15.5707 102.198 15.774 102.198 15.8553C102.239 15.9367 102.279 16.018 102.361 16.0587C102.645 16.0993 102.93 16.14 103.215 16.1807C103.337 16.1807 103.377 16.018 103.296 15.896C103.296 15.7333 103.255 15.5707 103.093 15.286ZM99.4327 26.1033C99.4327 26.0627 99.3107 25.9 99.2294 25.9C98.9447 25.9 98.8634 26.0627 98.7821 26.3067C98.7821 26.3473 98.8227 26.4693 98.8634 26.4693C99.0261 26.5913 99.2294 26.51 99.3921 26.2253C99.3921 26.2253 99.3921 26.1847 99.4327 26.1033ZM95.8541 29.7633C95.8947 29.3973 95.6507 29.2347 95.3254 29.072C95.2441 29.072 95.1627 29.1533 95.1221 29.1533C95.0814 29.2347 95.0814 29.3567 95.0814 29.3567C95.3254 29.5193 95.5694 29.682 95.7727 29.8447C95.8134 29.8447 95.8134 29.804 95.8541 29.7633ZM118.546 22.484C118.871 23.1753 118.668 23.094 118.221 23.2973C118.302 23.5007 118.383 23.704 118.302 23.9073C118.139 24.4767 117.895 24.924 117.57 25.534C117.489 25.29 117.448 25.29 117.448 25.2087C117.407 25.1273 117.326 25.0867 117.367 25.0053C116.879 25.29 116.879 25.29 117.285 25.9813C116.838 26.998 116.147 27.8113 115.496 28.584C115.415 28.7467 115.252 28.7873 115.13 28.8687C115.049 28.9093 114.886 28.95 114.805 29.1127C114.683 29.2753 114.439 29.3973 114.439 29.6007C114.235 30.0073 113.829 30.2513 113.463 30.4953C112.812 31.0647 112.121 31.4713 111.307 31.7967C110.413 32.122 109.518 32.0813 108.583 31.9593C108.42 31.9187 108.461 31.4713 108.176 31.4307C107.891 31.39 107.647 31.2273 107.444 31.146C106.915 30.9427 106.712 30.5767 106.753 30.0887C106.753 29.8447 106.549 29.8447 106.468 29.682C106.631 29.6413 106.793 29.6413 107.037 29.6007C106.793 29.316 106.387 29.3567 106.183 29.1533C105.939 28.8687 105.939 28.5433 105.899 28.218C105.858 27.3233 105.695 26.388 105.817 25.4933C105.939 24.5173 105.98 23.46 106.427 22.5247C106.631 21.9553 106.875 21.386 106.915 20.8573C106.956 20.6947 106.997 20.5727 107.078 20.41C107.485 19.8407 107.485 19.1493 107.281 18.5393C107.037 17.6853 107.322 16.9533 107.647 16.14C107.851 15.4893 108.298 14.8793 108.786 14.3507C109.315 13.7407 109.925 13.1307 110.657 12.6833C111.063 12.358 111.511 12.0733 111.958 11.9513C112.202 11.9107 112.365 11.8293 112.527 11.748C113.341 11.26 114.195 11.1787 115.049 11.4633C115.903 11.6667 116.757 11.9513 117.448 12.5207C117.611 12.6427 117.733 12.7647 117.733 12.846C117.814 13.2933 118.343 13.4153 118.424 13.7407C118.546 14.0253 118.749 14.2693 118.79 14.432C119.115 15.3267 119.319 16.262 119.4 17.116C119.522 18.0513 119.563 18.946 119.4 19.8407C119.359 20.044 119.4 20.288 119.4 20.532C119.359 20.7353 119.359 20.9387 119.237 21.0607C118.993 21.3047 118.871 21.63 118.831 22.0367C118.79 22.1587 118.587 22.3213 118.546 22.484ZM114.927 21.386C114.642 21.4267 114.601 21.5893 114.561 21.7927C114.479 22.118 114.398 22.24 114.113 22.1587C114.073 22.1587 113.991 22.1993 113.91 22.118C113.666 22.0367 113.585 22.118 113.422 22.24C113.381 22.362 113.219 22.4027 113.056 22.4433C112.771 22.4027 112.446 22.362 112.121 22.2807C111.673 22.1993 111.267 22.118 110.819 22.0367C110.453 22.0367 110.291 22.1587 110.25 22.5247C110.209 22.7687 110.169 22.972 110.006 23.1347C109.843 23.2567 109.843 23.3787 109.803 23.46C109.721 23.948 109.721 24.436 109.64 24.8833C109.559 25.412 109.843 25.9813 109.274 26.3067C109.274 26.3473 109.274 26.388 109.274 26.4287C109.599 26.876 109.477 27.4453 109.64 27.9333C109.762 28.1367 109.965 28.218 110.209 28.1367C110.941 27.7707 111.551 27.242 112.161 26.7133C112.69 26.2253 113.137 25.6153 113.666 25.1273C113.707 25.046 113.788 24.924 113.829 24.8833C113.747 24.558 113.991 24.3547 114.073 24.07C114.357 23.5413 114.642 22.972 114.886 22.362C115.049 22.118 115.008 21.752 114.927 21.386ZM114.683 21.0607C115.008 20.9793 115.13 20.9793 115.171 20.9793C115.537 20.7353 115.74 20.4507 115.74 20.0847C115.781 19.556 115.74 19.0273 115.74 18.5393C115.74 17.726 115.659 16.9533 115.374 16.262C115.211 15.8147 115.089 15.408 114.683 15.164C113.951 15.0827 113.341 15.4487 112.69 15.5707C112.324 15.6927 112.324 16.1807 112.039 16.4247C111.917 16.5467 111.714 16.6687 111.511 16.7907C111.348 16.994 111.267 17.1567 111.104 17.238C110.941 17.6853 111.104 18.0107 111.185 18.4173C111.673 18.2547 112.039 18.458 112.446 18.5393C112.893 18.6207 113.3 18.702 113.707 18.7833C113.707 19.068 113.707 19.19 113.747 19.3527C114.154 19.5153 114.642 19.19 114.967 19.6373C115.13 20.0847 114.927 20.4913 114.683 21.0607ZM116.838 21.63C116.675 21.7113 116.635 21.7113 116.594 21.6707C116.187 22.5247 115.699 23.2973 115.333 24.1107C115.211 24.2327 115.252 24.4767 115.252 24.6393C115.293 24.7207 115.374 24.7613 115.374 24.802C115.415 24.802 115.496 24.7613 115.537 24.7207C116.187 23.7853 116.675 22.8093 116.838 21.63ZM118.343 15.286C118.058 15.408 117.814 15.4487 117.57 15.5707C117.529 15.5707 117.448 15.774 117.448 15.8553C117.489 15.9367 117.529 16.018 117.611 16.0587C117.895 16.0993 118.18 16.14 118.465 16.1807C118.587 16.1807 118.627 16.018 118.546 15.896C118.546 15.7333 118.505 15.5707 118.343 15.286ZM114.683 26.1033C114.683 26.0627 114.561 25.9 114.479 25.9C114.195 25.9 114.113 26.0627 114.032 26.3067C114.032 26.3473 114.073 26.4693 114.113 26.4693C114.276 26.5913 114.479 26.51 114.642 26.2253C114.642 26.2253 114.642 26.1847 114.683 26.1033ZM111.104 29.7633C111.145 29.3973 110.901 29.2347 110.575 29.072C110.494 29.072 110.413 29.1533 110.372 29.1533C110.331 29.2347 110.331 29.3567 110.331 29.3567C110.575 29.5193 110.819 29.682 111.023 29.8447C111.063 29.8447 111.063 29.804 111.104 29.7633ZM132.657 16.3433L132.332 16.994C132.495 16.994 132.698 16.994 132.901 16.9533C133.145 16.872 133.267 16.628 133.471 16.506C133.796 16.262 134.081 16.3027 134.325 16.5467C134.487 16.7907 134.772 16.994 134.935 17.238L134.487 18.0513C134.772 18.1733 134.935 18.3767 135.179 18.5393C134.975 18.7833 134.813 18.946 134.569 19.068C134.487 19.2713 134.487 19.5153 134.365 19.6373C134.162 19.8813 133.959 20.166 133.633 20.288C132.21 21.02 131.031 22.0367 129.526 22.6467C129.485 22.728 129.363 22.8093 129.323 22.85C129.241 23.1753 129.363 23.338 129.485 23.5413C129.729 23.8667 130.014 24.07 130.258 24.3953C130.421 24.5173 130.502 24.7207 130.421 25.046C130.38 25.0867 130.543 25.29 130.624 25.29C130.99 25.168 131.112 25.29 131.356 25.4933C132.007 26.022 132.657 26.632 133.389 27.0387C133.796 27.2013 133.959 27.5267 134.04 27.852C134.162 28.2587 134.04 28.5027 133.674 28.7873C133.349 29.072 133.349 29.194 133.674 29.7227C133.471 30.048 133.023 30.1293 132.942 30.5767C132.901 30.8207 132.657 30.8613 132.454 30.902C131.844 30.9427 131.397 30.536 130.99 30.2513C131.031 29.8853 130.787 29.8853 130.502 29.8853C130.299 29.8853 130.095 29.8447 129.933 29.7227C129.526 29.3973 129.16 29.072 128.753 28.706C128.591 28.462 128.591 27.9333 128.021 28.1367C127.94 28.1773 127.777 27.9333 127.696 27.8113C127.452 27.5267 127.127 27.1607 126.964 26.7947C126.842 26.5507 126.72 26.4287 126.395 26.3067C125.947 26.022 125.744 25.6153 125.337 25.2493C125.215 25.0867 124.971 25.0867 124.89 25.29C124.687 26.1847 124.565 27.0793 124.402 28.0553C124.402 28.1367 124.443 28.1773 124.443 28.2587C124.687 28.95 124.687 28.95 124.402 29.6413L124.768 29.926C124.768 30.048 124.809 30.0887 124.809 30.0887C124.524 30.2513 124.687 30.8207 124.158 30.8207C123.955 30.8207 123.711 30.902 123.629 31.1053C123.263 31.5933 122.775 31.5933 122.125 31.5527C122.125 31.3493 122.084 31.024 122.043 30.78C121.962 30.536 121.799 30.3733 121.637 30.292C121.433 30.0887 121.149 30.17 120.945 30.292C120.498 29.7227 120.417 29.1127 120.376 28.4213C120.295 26.9167 120.62 25.4527 120.823 23.948C120.905 23.2973 121.149 22.6873 121.23 21.9553C121.311 21.264 121.718 20.6947 121.799 20.0033C121.921 19.312 122.165 18.6613 122.369 18.0513C122.735 16.3433 123.385 14.798 124.077 13.212C124.199 12.7647 124.524 12.5207 124.605 12.114C124.931 10.5687 125.907 9.34867 126.517 7.88467C126.639 7.55933 126.801 7.31533 127.086 7.234C127.167 7.19333 127.208 6.99 127.289 6.90867C127.371 6.78667 127.371 6.66467 127.371 6.54267C127.493 6.17667 127.615 5.77 127.899 5.48533C128.347 5.16 128.672 4.916 129.241 4.916C129.282 5.36333 129.038 5.648 128.753 5.81067C128.591 5.93267 128.469 6.05467 128.55 6.21733C128.631 6.54267 128.55 6.78667 128.428 6.99C128.225 7.39667 127.94 7.80333 127.818 8.25067C127.777 8.29133 127.859 8.37267 127.859 8.53533C127.981 8.49467 128.062 8.49467 128.143 8.37267L128.875 7.19333L130.014 5.282C130.136 5.20067 130.258 5.16 130.38 5.16C130.502 5.16 130.665 5.20067 130.665 5.282C130.543 5.72933 131.031 5.85133 131.193 6.17667C131.153 6.58333 130.909 6.90867 130.705 7.27467C130.624 7.356 130.624 7.55933 130.543 7.68133C130.543 7.722 130.624 7.80333 130.665 7.80333C130.705 7.844 130.746 7.844 130.787 7.80333C131.031 7.55933 131.153 7.31533 131.478 6.99C131.397 7.844 131.071 8.37267 130.665 8.942C130.38 9.43 130.014 9.75533 129.973 10.2027C129.933 10.528 129.689 10.894 129.404 11.0973C129.363 11.3007 129.363 11.504 129.282 11.748C128.225 13.7407 127.411 16.0587 126.557 18.2547C126.395 18.4987 126.354 18.946 126.232 19.19C126.395 19.434 126.639 19.4747 126.761 19.434L127.859 18.9053L130.99 16.9533C131.356 16.7093 131.763 16.384 132.21 16.3027C132.373 16.3027 132.495 16.3433 132.657 16.3433ZM125.907 12.7647C125.297 13.578 125.053 14.432 124.646 15.286C124.605 15.9367 124.199 16.5467 124.036 17.1973C123.955 17.482 123.833 17.6853 123.751 17.8887C123.629 18.6207 123.426 19.312 123.263 20.0033V20.166L123.426 20.288C123.467 20.288 123.507 20.2473 123.589 20.2067C123.629 20.0033 123.711 19.6373 123.833 19.4747C123.955 19.19 124.158 19.068 124.28 18.7833C124.321 18.7427 124.158 18.6207 124.158 18.4987C124.199 18.214 124.239 17.97 124.321 17.6853C124.727 16.5467 125.134 15.4893 125.581 14.3507C125.785 13.8627 125.947 13.3747 125.988 12.846C126.801 11.6667 127.045 10.894 126.964 10.2433C126.273 11.3413 126.151 11.626 125.907 12.7647ZM132.332 16.994L132.657 17.5633C132.495 17.7667 132.332 17.97 132.088 18.0513C131.966 18.1733 131.763 18.092 131.641 18.0107C131.6 17.848 131.559 17.6853 131.641 17.5227L132.332 16.994ZM129.363 11.0567C129.363 10.894 129.323 10.7313 129.241 10.6907C129.16 10.6907 128.916 10.772 128.875 10.8533C128.753 11.0567 128.591 11.2193 128.753 11.504C128.916 11.3413 129.16 11.2193 129.363 11.0973C129.363 11.0567 129.404 11.0567 129.363 11.0567ZM19.104 77.122C19.0227 76.878 18.982 76.634 18.9413 76.3493C18.616 76.5527 18.3313 76.6747 18.616 77C18.6973 77.0813 18.6567 77.2847 18.5753 77.4067C18.372 77.7727 17.9653 77.976 17.8027 77.854C17.5587 77.7727 17.396 77.5287 17.3553 77.2847C17.274 76.8373 17.274 76.4307 17.4367 76.024C17.4773 75.78 17.4773 75.536 17.4773 75.3327C17.4773 75.2513 17.3553 75.2107 17.2333 75.1293C17.1113 75.048 16.9893 75.2107 16.9487 75.3327C16.908 75.6173 16.8267 75.902 16.786 76.1867C16.7453 76.3087 16.7453 76.4713 16.7047 76.634C16.542 76.7153 16.3387 76.756 16.176 76.8373C16.1353 76.7967 16.054 76.756 16.054 76.6747C15.8913 75.9427 15.81 75.17 15.9727 74.4787C15.9727 73.95 16.0133 73.4213 16.054 72.8113C16.0133 72.5267 16.1353 72.242 16.2167 71.9573C16.298 71.9167 16.3387 71.7947 16.298 71.6727C16.2573 71.3067 16.298 70.8593 16.5827 70.4933C16.42 70.29 16.7047 70.2087 16.7047 69.9647C16.7453 69.8833 16.6233 69.68 16.5827 69.5173C16.5827 69.2733 16.6233 69.0293 16.9487 68.9073C17.03 68.8667 17.1113 68.7853 17.2333 68.704C17.4773 68.46 17.3553 68.1347 16.9487 68.0533C16.5827 67.9313 16.176 67.972 15.7287 68.0533C14.8747 68.2973 14.0207 68.46 13.2073 68.6227C12.8413 68.6633 12.516 68.7853 12.15 68.8667C11.8653 68.948 11.5807 68.9887 11.2147 69.0293C10.9707 69.0293 10.7673 68.9887 10.564 69.2327C10.5233 69.2327 10.442 69.2733 10.3607 69.2733C9.42533 69.314 9.30333 69.5987 8.978 70.3713C8.93733 70.5747 8.77467 70.7373 8.44933 70.778C8.32733 70.778 8.28667 70.8593 8.32733 70.9813C8.49 71.2253 8.44933 71.4287 8.32733 71.5913C8.124 71.998 8.002 72.3233 7.758 72.6893C7.758 72.7707 7.67667 72.852 7.67667 72.9333C7.59533 73.4213 7.31067 73.8687 7.06667 74.2347C6.904 74.7227 6.74133 75.1293 6.61933 75.536C6.45667 75.5767 6.33467 75.658 6.21267 75.7393C6.172 75.9833 6.538 76.2273 6.13133 76.39C6.09067 76.634 5.928 76.878 5.96867 77.122C6.00933 77.366 5.96867 77.488 5.72467 77.5693C5.60267 77.61 5.48067 77.8133 5.48067 77.854C5.44 78.342 5.03333 78.4233 4.586 78.464C4.42333 78.4233 4.22 78.2607 4.17933 78.1793C4.17933 77.9353 4.13867 77.6913 4.098 77.488C4.098 77.3253 4.05733 77.122 3.93533 77.0407C3.93533 76.9593 3.89467 76.9187 3.732 76.8373C3.732 77.122 3.69133 77.366 3.65067 77.5287C3.61 77.6913 3.52867 77.7727 3.40667 77.854C3.28467 78.0167 2.91867 78.0167 2.83733 77.854C2.512 77.3253 2.30867 76.9187 2.512 76.3087C3 75.1293 3.366 73.95 3.81333 72.8113C3.976 72.364 4.22 71.9573 4.42333 71.5507C4.586 71.3473 4.66733 71.0627 4.74867 70.7373C3.77267 70.4933 2.95933 70.9813 2.146 70.8593C2.10533 70.534 2.55267 70.412 2.30867 70.046C2.22733 70.046 2.146 70.0053 2.10533 70.0867C1.82067 70.1273 1.658 70.2493 1.45467 70.3307C1.414 70.3307 1.21067 70.29 1.21067 70.2493C1.21067 70.2087 1.21067 70.1273 1.25133 70.0053C1.33267 69.8833 1.37333 69.802 1.49533 69.68C1.414 69.6393 1.37333 69.5173 1.25133 69.3953C0.885333 69.1107 0.926 68.7447 1.21067 68.3787C1.49533 68.0127 1.82067 67.6467 2.39 67.606C3.61 67.484 4.78933 67.0773 6.05 66.874C6.57867 66.752 6.94467 66.5487 7.18867 66.0607C7.35133 65.6947 7.514 65.3287 7.758 65.044C7.92067 64.8 8.08333 64.7593 8.20533 64.5967C8.32733 64.434 8.28667 64.2307 8.368 63.9867C8.40867 63.824 8.53067 63.6207 8.69333 63.4173C9.42533 62.1973 10.1573 60.9367 10.93 59.798C11.784 58.3747 12.76 56.992 13.6547 55.65C14.7933 53.9827 16.054 52.3153 17.3553 50.7293C18.0467 49.8753 18.6973 49.062 19.47 48.2487C20.202 47.5167 20.934 46.7033 21.7067 46.012C22.276 45.5647 22.9267 45.1987 23.6587 45.0767C23.984 45.1173 24.106 45.28 24.3907 45.2393C24.838 45.158 25.1633 45.3613 25.448 45.646C25.57 45.768 25.7327 46.012 25.9767 46.134C26.0173 46.622 26.424 47.0693 26.302 47.598C26.18 47.8827 26.2207 48.208 26.18 48.452C25.8547 48.696 26.18 48.9807 25.8953 49.306C25.8547 49.428 25.8547 49.55 25.8547 49.7127C25.936 49.794 25.8953 49.8753 25.8953 49.916C25.692 50.0787 25.4887 50.2007 25.448 50.404C25.3667 50.526 25.5293 50.77 25.57 50.9327C25.57 50.9733 25.57 51.014 25.57 51.0547C25.3667 51.746 25.204 52.478 24.96 53.1693C24.7973 53.7793 24.5533 54.3487 24.3907 54.918C24.3093 55.4467 23.9027 55.8533 23.862 56.4227C23.862 56.9513 23.618 57.358 23.4553 57.846C23.2927 58.2933 23.1707 58.7407 22.9673 59.31C22.886 59.5947 22.886 59.92 22.6013 60.2047C22.52 60.2047 22.52 60.3267 22.52 60.3673C22.6827 60.8147 22.398 61.14 22.3167 61.5873C22.0727 62.4007 21.8287 63.1733 21.5847 64.0273C21.3 65.166 21.0967 66.3453 20.7307 67.5247C20.2833 69.1513 20.08 70.9 19.7953 72.608C19.6733 73.096 19.6327 73.6653 19.6327 74.194C19.592 74.5193 19.47 74.804 19.3073 75.0887C19.5513 75.6173 19.6733 76.0647 19.4293 76.6747C19.3887 76.8373 19.4293 77.0407 19.104 77.122ZM21.4627 51.4207C21.3 51.5833 21.178 51.7053 21.056 51.7867C20.446 52.5187 19.9173 53.1693 19.3073 53.942C18.982 54.3893 18.7787 54.8367 18.2093 55.04C18.1687 55.1213 18.0467 55.2027 18.0467 55.2027C18.0873 55.4873 17.884 55.65 17.7213 55.894C17.518 56.0973 17.274 56.3413 17.2333 56.626C17.152 56.87 16.9893 57.0733 16.8267 57.2767C16.4607 57.7647 16.0947 58.2933 15.81 58.8627C15.1187 59.8793 14.346 60.9367 13.736 62.0753C13.248 62.8887 12.638 63.702 12.15 64.5153C12.0687 64.7593 11.9873 64.9627 11.906 65.2473C11.8653 65.288 11.9873 65.41 12.028 65.4507C12.15 65.4913 12.2313 65.4507 12.3533 65.41C13.248 65.2067 14.102 65.044 14.9967 64.8813C15.7287 64.678 16.4607 64.6373 17.2333 64.556C17.5587 64.5153 17.762 64.3933 17.8027 64.1087C18.0873 63.0513 18.4127 61.994 18.738 60.896C18.86 60.408 18.9413 59.92 19.1853 59.4727C19.47 58.944 19.3887 58.334 19.6327 57.846C19.714 57.602 19.7953 57.3173 19.8767 57.0733C19.9173 56.9107 20.0393 56.6667 20.1207 56.4227C20.324 55.8127 20.4867 55.162 20.69 54.5113C20.7713 54.3487 20.8527 54.1047 21.0153 53.9827C21.056 53.82 21.2187 53.7387 21.3 53.698C21.1373 53.1693 21.1373 53.1693 21.5033 52.9253C21.6253 52.844 21.7067 52.844 21.788 52.7627C21.8287 52.6813 21.91 52.5593 21.8287 52.5187C21.788 52.478 21.6253 52.4373 21.544 52.356C21.422 52.112 21.788 51.7867 21.4627 51.4207ZM19.2667 64.5153C19.3073 64.4747 19.3887 64.3527 19.4293 64.2713C19.714 63.1327 19.9173 61.994 20.446 60.9367C20.4867 60.896 20.4867 60.8553 20.4867 60.8147C20.6087 59.7573 21.056 58.822 21.3813 57.7647C21.5847 56.8293 21.9507 55.8533 22.276 54.8367C22.6827 53.82 23.008 52.7627 23.2927 51.746C23.5367 51.0953 23.6587 50.404 23.7807 49.794C23.862 49.672 23.6993 49.4687 23.5773 49.5093C23.496 49.55 23.4147 49.5907 23.3333 49.672C23.252 49.794 23.13 49.8347 23.252 50.038C23.5367 50.404 23.2927 50.648 23.13 50.9733C22.9673 51.258 22.886 51.5833 22.7233 51.9087C22.6013 51.99 22.6827 52.2747 22.6827 52.478C22.7233 52.5187 22.6013 52.6407 22.6013 52.7627C22.1133 54.43 21.422 56.016 20.9747 57.7647C20.9747 57.8867 20.8933 58.09 20.812 58.212C20.5273 58.456 20.5273 58.822 20.4867 59.1473C20.446 59.5947 20.1207 60.042 20.1207 60.53C19.714 60.9773 19.9173 61.506 19.714 61.9533C19.5107 62.3193 19.592 62.848 19.1853 63.092C19.1853 63.336 19.226 63.58 19.226 63.7833C19.2667 64.0273 18.9413 64.2713 19.2667 64.5153ZM18.4533 68.0127C18.4533 68.0127 18.4533 67.972 18.4127 67.972C18.372 67.972 18.25 67.972 18.25 68.0127C17.8027 68.582 17.9653 69.314 17.9653 69.9647C17.9653 69.9647 18.0467 70.0867 18.0873 70.046C18.1687 70.046 18.25 69.9647 18.25 69.924C18.2907 69.3547 18.4533 68.7853 18.494 68.216C18.4533 68.1347 18.4533 68.0533 18.4533 68.0127ZM17.9247 70.534C17.762 70.9407 17.2333 71.3067 17.5587 71.8353C18.006 71.388 18.006 71.388 17.9247 70.534ZM35.2893 77.0407C34.842 76.7153 34.964 76.268 34.9233 75.902C34.8013 75.0887 34.842 75.0887 34.476 74.804C34.354 75.3327 34.2727 75.8207 34.1507 76.268C33.9067 76.3493 33.866 76.2273 33.8253 76.0647C33.5 75.414 33.378 74.682 33.3373 73.95C33.3373 73.0553 33.2967 72.1607 33.5 71.3067C33.5 71.2253 33.378 71.1033 33.3373 70.9813C33.256 71.0627 33.134 71.0627 33.0933 71.144C32.2393 72.0387 31.426 72.9333 30.45 73.6653C30.4093 73.7467 30.2873 73.8687 30.2467 73.95C29.352 74.926 28.2133 75.6173 27.0747 76.3493C26.5867 76.634 26.0173 76.6747 25.4073 76.878C25.3667 76.878 25.2853 76.878 25.204 76.878C24.106 76.634 23.1707 76.0647 22.4387 75.2107C22.4387 75.17 22.398 75.1293 22.398 75.0887C22.3167 74.926 22.276 74.7633 22.2353 74.56C22.1947 74.438 22.0727 74.2753 22.1133 74.1533C22.2353 73.5433 21.7473 73.0147 21.8693 72.4453C21.8693 72.2827 21.8693 72.0793 21.9507 71.9167C21.9913 71.5507 22.0727 71.266 22.154 70.9C22.276 70.6153 22.7233 70.778 22.8047 70.412C22.6827 70.29 22.52 70.168 22.3573 70.046C22.4387 69.68 22.52 69.3953 22.6013 69.1107C22.642 68.8667 22.7233 68.6633 22.764 68.46C23.252 67.5247 23.5773 66.4673 24.106 65.5727C24.3907 65.044 24.6753 64.5153 25.0007 64.0273C25.2853 63.58 25.692 63.1327 26.058 62.6447C26.2613 62.8073 26.0987 62.9293 26.1393 63.0513C26.18 63.1327 26.2613 63.1733 26.3427 63.1733C26.3833 63.1733 26.5053 63.1733 26.546 63.1327C26.5867 62.97 26.5867 62.8887 26.6273 62.726C26.668 62.6447 26.546 62.36 26.3833 62.1567C26.546 61.872 26.7493 61.75 27.0747 61.8313C27.4 61.9127 27.4813 61.7093 27.278 61.3027C27.4813 61.0993 27.6847 60.8553 27.9287 60.6113C28.0913 60.3673 28.376 60.164 28.7013 60.042C28.8233 60.0013 28.9453 59.7573 29.0267 59.6353C29.9213 59.0253 30.8973 58.5373 31.914 58.1713C31.914 58.1713 32.036 58.1713 32.1173 58.1713C33.134 58.212 34.1507 58.212 35.086 58.822C35.3707 59.0253 35.696 59.2287 35.9807 59.4727C36.306 59.1067 36.5093 58.7 36.6313 58.2933C37.4447 56.1787 38.502 54.186 39.5187 52.234C39.6407 51.99 39.8033 51.7867 39.966 51.624C40.1287 51.6647 40.2507 51.6647 40.4133 51.6647C40.576 51.38 40.1693 51.2987 40.2507 51.014C40.698 50.0787 41.3893 49.2247 42.04 48.33C42.3653 47.9233 42.894 47.7607 43.382 47.5573C43.4633 47.5573 43.5447 47.6387 43.626 47.72C43.6667 47.7607 43.6667 47.8827 43.6667 47.9233C43.5853 48.0453 43.504 48.1673 43.4633 48.33C42.9753 48.8993 42.528 49.5093 42.2027 50.282C42.162 50.404 42.0807 50.4853 42.04 50.648C40.7387 52.6 40.0473 53.9827 38.746 56.626C38.0547 58.09 37.4447 59.6353 36.916 61.2213C36.916 61.3027 36.8753 61.4247 36.8753 61.4247C36.916 61.506 36.9567 61.628 36.9973 61.7093C37.038 61.7093 37.16 61.6687 37.16 61.5873C37.3227 61.1807 37.6073 60.774 37.6887 60.286C38.0953 59.0253 38.6647 57.8053 39.1933 56.626C39.6407 55.65 40.1287 54.7553 40.576 53.8607C40.698 53.6167 40.9827 53.6167 41.064 53.4133C41.064 53.2507 41.064 53.0473 41.1453 52.8847C41.552 52.2747 41.7553 51.4207 42.4467 51.014C42.4873 50.9327 42.528 50.8513 42.528 50.8107C42.5687 50.648 42.5687 50.4447 42.6907 50.3227C43.0973 49.672 43.5447 49.0213 44.0327 48.4113C44.1547 48.2487 44.358 48.1267 44.48 47.964C45.0087 48.0047 45.0087 48.6147 45.456 48.7367C45.334 48.9807 45.2527 49.2247 45.1713 49.3873C45.0087 49.7127 45.0493 49.9567 45.3747 50.16C45.0087 50.8107 44.602 51.3393 44.1547 51.868C43.9107 52.234 43.6667 52.6407 43.4227 53.0473C43.3007 53.088 43.0973 53.0473 42.9753 53.088C42.7313 53.1693 42.5687 53.3727 42.65 53.4947C42.772 53.5353 42.9753 53.5353 43.138 53.576C42.8533 54.064 42.6093 54.552 42.3653 54.9993C41.9587 55.8127 41.552 56.626 41.1453 57.48C40.942 57.8867 40.698 58.2527 40.21 58.3747C40.1287 58.3747 40.1287 58.456 40.088 58.5373C40.21 58.6593 40.332 58.7813 40.4947 58.944C40.2507 59.554 39.966 60.2047 39.722 60.8553C39.5187 61.3433 39.1933 61.75 39.1933 62.3193C38.6647 63.336 38.5427 64.434 38.258 65.5727C37.7293 67.362 37.4853 69.192 37.282 71.0627C37.2413 71.998 37.2413 72.852 37.2413 73.7467C37.2413 74.0313 37.2413 74.3973 37.2413 74.7227C37.282 75.2107 37.404 75.7393 37.038 76.1053C36.672 76.512 36.2247 76.8373 35.696 76.9593C35.5333 77 35.3707 77 35.2893 77.0407ZM24.6347 67.8093C24.35 68.0533 24.0653 68.2567 24.0247 68.6633C23.984 69.192 23.618 69.7207 23.9027 70.3307C24.3907 69.5987 24.5533 68.704 24.716 67.8907C24.96 67.6467 25.1633 67.4027 25.204 66.996C24.96 67.0773 24.6753 67.118 24.472 67.1587C24.1873 67.24 24.0247 67.362 24.106 67.4433C24.1873 67.5653 24.35 67.606 24.472 67.6873C24.5127 67.6873 24.594 67.728 24.6347 67.8093ZM31.0193 67.728C31.426 67.24 31.914 66.752 32.402 66.264C32.5647 66.0607 32.8493 65.9387 32.9713 65.5727C33.0527 65.3287 33.2967 65.288 33.5 65.166C33.9067 64.9627 34.0693 64.6373 33.9067 64.2307C33.8253 63.9867 33.5 63.824 33.8253 63.5393C33.8253 63.5393 33.8253 63.458 33.7847 63.458C33.3373 63.3767 33.378 63.0107 33.2967 62.726C33.1747 62.4413 33.134 62.116 32.768 61.9533C32.0767 62.116 31.426 62.4007 30.938 62.97C30.816 63.1327 30.6533 63.2547 30.5313 63.3767C30.2873 63.6207 29.962 63.7833 29.7587 63.946C29.474 64.1493 29.352 64.556 29.108 64.8C28.8233 65.1253 28.62 65.4507 28.4167 65.776C28.0913 66.3453 27.766 66.8333 27.2373 67.118C27.1967 67.4027 27.278 67.6873 27.156 67.8907C26.8713 68.6227 26.546 69.2733 26.2207 70.046C25.936 70.656 25.814 71.388 25.814 72.12C25.814 72.242 25.8547 72.3233 25.936 72.486C26.0987 72.4047 26.2207 72.4047 26.3427 72.2827C27.0747 71.632 27.8067 70.9813 28.5387 70.29C29.1487 69.68 29.7587 69.1107 30.328 68.5007C30.5313 68.216 30.816 68.1753 31.0193 68.094C31.0193 67.9313 31.0193 67.85 31.0193 67.728ZM31.1007 59.2287C31.1007 59.31 31.1413 59.432 31.2227 59.5133C31.2227 59.5133 31.3853 59.5947 31.426 59.5947C31.4667 59.5133 31.5887 59.3913 31.6293 59.2693C31.7107 59.1067 31.6293 58.9847 31.5073 58.9033C31.426 58.822 31.182 58.8627 31.1413 59.0253C31.1007 59.0253 31.1007 59.1067 31.1007 59.2287ZM27.9693 63.7427C27.9287 63.7833 27.9287 63.824 27.9287 63.824C27.888 63.8647 27.888 63.8647 27.9287 63.9053C28.0913 64.1493 28.3353 64.312 28.62 64.2713C28.6607 64.2713 28.742 64.1493 28.742 64.1087C28.62 63.8647 28.2133 63.702 27.9693 63.7427ZM43.992 50.404C44.1547 50.526 44.1953 50.6073 44.236 50.6073C44.4393 50.77 44.602 50.7293 44.724 50.5667C44.724 50.4853 44.7647 50.3227 44.724 50.3227C44.602 50.2413 44.4393 50.2007 44.358 50.2007C44.2767 50.2413 44.1953 50.3227 43.992 50.404ZM25.0413 75.8207C24.8787 75.8207 24.716 75.902 24.7567 76.0647C24.7973 76.2273 24.8787 76.3493 25.082 76.3493C25.1633 76.3087 25.204 76.2273 25.2853 76.146C25.326 75.9833 25.204 75.8613 25.0413 75.8207ZM24.7567 66.3047C25.0007 66.3453 25.1633 66.386 25.3667 66.386C25.4073 66.386 25.5293 66.264 25.5293 66.264C25.4887 66.1827 25.448 66.0607 25.3667 66.02C25.1227 65.898 24.8787 66.02 24.7567 66.3047ZM34.3133 63.702C34.232 64.1087 34.0287 64.3527 34.3133 64.5967C34.3133 64.6373 34.3947 64.5967 34.4353 64.556C34.6387 64.312 34.4353 64.068 34.3133 63.702ZM33.2967 67.5247C33.378 67.4027 33.5813 67.3213 33.6627 67.1993C33.744 67.118 33.6627 66.996 33.6627 66.874C33.5813 66.9147 33.5 66.874 33.4593 66.9147C33.3373 67.0367 33.256 67.24 33.134 67.3213C33.134 67.362 33.1747 67.4027 33.1747 67.4027C33.2153 67.4433 33.2153 67.484 33.2967 67.5247ZM28.4573 61.7093C28.9047 61.506 29.0267 61.3027 29.1893 61.0587C28.742 60.9367 28.62 61.262 28.4573 61.7093ZM35.696 60.652C35.696 60.5707 35.6553 60.4893 35.574 60.4487C35.574 60.408 35.5333 60.408 35.4927 60.4487C35.2893 60.4893 35.2487 60.652 35.2487 60.8553C35.2487 60.896 35.3707 60.9367 35.3707 60.896C35.4927 60.8553 35.6147 60.7333 35.696 60.652ZM31.0193 60.3267C31.0193 60.4893 31.304 60.652 31.426 60.6113C31.4667 60.5707 31.5073 60.4893 31.5073 60.4893C31.548 60.3267 31.4667 60.164 31.3447 60.164C31.2227 60.164 31.1007 60.2453 31.0193 60.3267ZM25.2853 65.3287C25.4887 65.288 25.6513 65.2473 25.7327 65.2067C25.6513 65.0847 25.6513 64.922 25.5293 64.8813C25.3667 64.8 25.2447 64.9627 25.204 65.1253C25.204 65.166 25.2853 65.2473 25.2853 65.3287ZM51.3978 55.7313C51.3571 55.894 51.3571 56.0973 51.3164 56.3413C51.8858 56.4633 52.4144 56.8293 53.0651 56.748C53.2278 56.382 52.8211 56.26 52.8211 55.9753C52.8211 55.894 52.8211 55.8533 52.8618 55.8127C53.1058 55.406 53.4311 55.1213 53.7564 54.7553C53.9191 55.0807 54.1631 55.4467 54.3664 55.894C54.4478 55.7313 54.4884 55.6093 54.5698 55.4467C54.7731 55.65 54.6918 55.894 54.6511 56.016C54.5291 56.3413 54.7731 56.4227 54.8544 56.5853C54.7731 57.2767 54.4478 57.846 54.0004 58.334C53.5938 58.7813 53.2684 59.2693 52.9431 59.7573C52.0484 61.14 51.2351 62.5633 50.2591 63.9053C49.8931 64.434 49.6898 65.0847 49.4051 65.654C48.9984 66.4267 48.8358 67.2807 48.2258 67.972C48.1851 68.582 47.7378 69.1107 47.5751 69.7613C47.4124 70.2493 47.1684 70.6967 46.9651 71.1847C46.8838 71.3067 46.8024 71.4287 46.7618 71.5913C46.5584 72.8113 45.9078 73.9093 45.4198 75.0887C45.3384 75.3327 45.2164 75.658 44.9724 75.78C44.6878 75.9427 44.5658 76.268 44.2811 76.4713C44.1591 76.5933 43.9558 76.6747 43.7524 76.7967C43.2644 77 42.7358 77 42.3291 76.5933C42.2071 76.512 42.0851 76.39 41.9224 76.3493C40.9464 76.024 40.7024 75.2107 40.6618 74.2753C40.6211 74.194 40.7024 74.0313 40.6618 73.9907C40.4584 73.7467 40.4178 73.462 40.4178 73.1773C40.4178 72.4047 40.3771 71.6727 40.3771 70.9407C40.3771 70.778 40.5398 70.6153 40.6211 70.4527C40.2551 69.9647 40.1331 69.3953 40.2144 68.826C40.2551 68.2973 40.2551 67.7687 40.6618 67.3213C40.0111 66.7113 40.4991 66.1827 40.7024 65.5727C40.5398 65.3287 40.3771 65.0847 40.4178 64.7187C40.4584 64.2713 40.4584 63.824 40.5398 63.4173C40.7024 62.604 40.6211 61.7093 40.6618 60.896C40.6618 60.6113 40.7838 60.286 40.8651 59.9607C40.9871 59.7573 41.1904 59.554 41.4344 59.4727C41.7191 59.3913 41.8818 59.2693 42.1664 59.188C42.4104 59.31 42.1664 59.554 42.2478 59.7573C42.3291 59.9607 42.3291 60.2047 42.3291 60.408C42.3291 60.5707 42.4104 60.7333 42.4511 60.774C42.4918 60.896 42.6138 60.9367 42.6544 60.9367C42.7358 60.896 42.8578 60.774 42.8578 60.7333C42.8171 60.2453 43.0204 59.7573 43.1424 59.066C43.2644 59.2693 43.2644 59.3507 43.3051 59.432C44.1591 60.042 44.3624 60.896 44.2811 61.8313C44.2404 63.3767 44.1998 64.922 44.0778 66.4673C44.0371 66.7113 44.0778 66.996 43.8338 67.24C43.7524 67.362 43.7931 67.484 43.8744 67.5247C43.9964 67.6467 44.1591 67.6873 44.2811 67.5653C44.4031 67.4433 44.5251 67.3213 44.6064 67.118C44.7284 66.7113 44.8911 66.3047 45.2164 66.02C45.2978 65.9387 45.4198 65.8167 45.4198 65.7353C45.2978 65.0847 45.7451 64.6373 45.9484 64.1087C46.0704 63.824 46.1924 63.58 46.4771 63.4173C46.5584 63.336 46.6398 63.214 46.6398 63.1327C46.6398 62.3193 47.2498 61.75 47.6158 61.0993C47.9004 60.408 48.3478 59.8387 48.7544 59.2287C48.9578 58.8627 49.2018 58.5373 49.4051 58.212C49.9338 57.358 50.5438 56.6667 51.1538 55.894C51.2351 55.8533 51.3571 55.8127 51.4384 55.7313H51.3978ZM45.2164 69.3953C44.9724 69.436 44.8098 69.558 44.7284 69.8427C44.7284 70.046 44.6064 70.3307 44.5658 70.534C44.4031 71.022 44.2404 71.51 44.1184 71.998C44.0778 72.12 44.1591 72.2827 44.1998 72.608C44.4031 72.12 44.4844 71.8353 44.6878 71.51C45.0538 70.8593 45.1351 70.168 45.2164 69.436C45.7044 68.7853 45.7044 68.7853 45.7451 68.2567C45.2164 68.46 45.2164 68.948 45.2164 69.3953ZM46.6398 65.6133C47.0058 65.0847 47.3718 64.6373 47.6971 64.1493C47.6971 64.1087 47.6971 64.068 47.6971 63.946C47.6158 63.946 47.4531 63.9053 47.4124 63.9867C47.0871 64.312 46.7211 64.7187 46.5991 65.2067C46.5991 65.288 46.5991 65.41 46.6398 65.6133ZM48.5918 62.238C48.6731 62.1973 48.7138 62.1567 48.7544 62.1567C48.9578 61.7907 49.1611 61.506 49.6898 61.6687C49.6898 61.6687 49.7711 61.506 49.7304 61.4247C49.7304 61.384 49.6898 61.3027 49.6084 61.3027C49.3238 61.2213 49.0798 61.2213 48.7951 61.384C48.5511 61.5873 48.4698 61.8313 48.5918 62.238ZM42.7358 63.6613C42.6544 63.6207 42.6138 63.5393 42.5324 63.5393C42.3291 63.5393 42.1258 63.7833 42.2478 63.9867C42.2884 64.0273 42.3291 64.1087 42.4104 64.068C42.6138 64.0273 42.7358 63.824 42.7358 63.6613ZM46.1518 66.996C46.1924 66.996 46.1924 67.0773 46.2738 67.118C46.3551 66.996 46.4771 66.9553 46.5991 66.8333C46.6804 66.752 46.7211 66.5893 46.6398 66.508C46.5584 66.386 46.3958 66.4673 46.2738 66.5893C46.2331 66.7113 46.1924 66.874 46.1518 66.996ZM46.2331 65.4913C46.3144 65.288 46.2738 65.1253 46.1518 65.0847C46.0704 65.0847 45.9484 65.1253 45.9484 65.166C45.8264 65.3287 45.8264 65.4913 46.0298 65.5727C46.0704 65.5727 46.1924 65.532 46.2331 65.4913ZM51.5604 60.3673V60.286C51.4791 60.2453 51.4384 60.164 51.3571 60.0827C51.2758 60.2047 51.1944 60.2453 51.1538 60.286C51.1538 60.3673 51.1944 60.4893 51.2351 60.6113C51.2351 60.652 51.2758 60.6927 51.3164 60.6927C51.3571 60.652 51.4791 60.6113 51.4791 60.6113C51.5198 60.53 51.5198 60.4487 51.5604 60.3673ZM51.3978 55.7313H51.4384C51.4384 55.4873 51.5198 55.3247 51.7231 55.2027C52.0078 54.9587 52.3738 54.8367 52.6584 54.674C52.9431 54.796 52.8211 54.9587 52.6991 55.04C52.4144 55.406 52.0484 55.7313 51.7638 56.016C51.6011 55.894 51.4791 55.8533 51.3978 55.7313ZM57.5305 59.1067C57.7338 59.188 57.6118 59.432 57.7338 59.554C57.8965 59.6353 58.2625 59.5133 58.3845 59.31C58.4658 59.1067 58.3845 58.9033 58.4252 58.6187C58.9132 58.6187 59.4418 58.578 59.9298 58.6187C60.0925 58.6187 60.2958 58.7 60.4585 58.7813C60.6618 58.9033 60.9058 58.944 61.1905 58.8627C61.6378 58.822 62.1258 58.9847 62.5325 59.1067C62.7358 59.4727 62.9392 59.0253 63.1018 59.1473C63.3458 59.2693 63.4272 59.554 63.7932 59.554C63.9558 59.554 64.1998 59.6353 64.3625 59.7573C65.3385 60.2453 66.1112 60.9773 66.4772 62.0347C66.7212 62.604 66.8838 63.1733 66.8432 63.8647C66.8025 64.3527 66.8025 64.3527 66.3552 64.8407C66.4365 64.922 66.4772 65.044 66.5585 65.1253C66.5178 65.2067 66.5585 65.288 66.4772 65.3287C66.0705 66.1013 65.5418 66.7927 64.8098 67.3213C64.6065 67.4433 64.4032 67.6467 64.2405 67.6873C63.9152 67.8093 63.4678 67.8093 63.1832 68.0127C62.8578 68.216 62.5325 68.338 62.2072 68.4193C62.0445 68.338 61.9632 68.2567 61.8412 68.1753C61.3125 68.6633 61.3125 68.6633 60.7838 68.6633C60.3365 68.6633 59.9298 68.582 59.5232 68.3787C59.4825 67.8907 59.1165 68.1753 58.8318 68.1753C58.6692 68.094 58.5065 67.9313 58.3032 67.7687C58.1405 67.6873 58.0185 67.5247 57.8558 67.5247C57.3272 67.484 57.4492 67.118 57.4085 66.7927C57.2052 66.7927 57.0832 66.7927 56.9205 66.7927C56.8392 66.752 56.7985 66.7113 56.7985 66.7113C56.7172 66.5487 56.8392 66.264 56.5952 66.264C56.4732 66.264 56.3105 66.4267 56.2292 66.5487C56.1072 66.9553 55.9445 67.362 55.8632 67.8093C55.7005 68.46 55.5785 69.1107 55.4972 69.7613C55.4158 70.2493 55.4565 70.6967 55.5378 71.144C55.5785 71.5507 55.6598 71.998 55.7005 72.4453C56.1072 72.8113 56.5545 73.2587 57.0425 73.6653C57.2052 73.6653 57.4898 73.6247 57.7338 73.584C58.2625 73.5027 58.8725 73.5433 59.4418 73.2993C59.9298 73.0553 60.4585 73.0147 60.9872 72.73C61.4345 72.486 61.9632 72.3233 62.4512 72.0793C62.9798 71.7947 63.4678 71.51 63.9558 71.1847C64.6472 70.7373 65.3385 70.2493 65.9485 69.802C66.1112 69.68 66.2738 69.5987 66.4365 69.5173C66.5585 69.4767 66.8025 69.4767 66.8432 69.5173C67.1278 69.8427 67.4938 69.802 67.8598 69.802C67.9412 69.8427 68.0225 69.802 68.1038 69.802C68.7545 69.8833 68.8358 70.0053 68.7138 70.8187C68.8358 70.9 68.9985 70.9813 69.1612 71.1033C69.1205 72.3233 68.2258 73.0147 67.2905 73.5433C66.9245 73.7467 66.5992 73.7873 66.1925 73.9093C66.0705 74.072 65.9078 74.316 65.7858 74.5193C65.6638 74.7227 65.2165 74.2753 65.2165 74.7633C64.8098 75.1293 64.3625 75.414 63.9152 75.536C63.7118 75.5767 63.5085 75.6173 63.3865 75.6987C62.5732 76.268 61.6785 76.5527 60.7838 76.878C59.3605 77.3253 57.9778 77.4473 56.5138 77.2847C55.9445 77.2033 55.3752 76.9593 55.2532 76.268C55.2532 76.268 55.2125 76.2273 55.1718 76.1867C55.0498 76.146 54.9685 76.146 54.9278 76.268C54.8872 76.3493 54.8465 76.39 54.8465 76.4713C54.6838 76.5527 54.5618 76.4713 54.4398 76.39C54.1145 76.146 53.7892 75.9427 53.4638 75.658C53.2605 75.414 53.0572 75.17 52.8132 74.926C52.7725 74.804 52.6912 74.7227 52.6912 74.6413C52.4065 73.6653 51.7558 72.7707 51.8372 71.6727C51.8372 71.388 51.7558 71.1033 51.7152 70.8187C51.6745 69.6393 51.7558 68.3787 52.2845 67.24C52.3252 67.0773 52.4065 66.9147 52.3658 66.6707C52.3252 66.3453 52.3252 66.02 52.6098 65.7353C52.7725 65.5727 52.8538 65.288 52.9758 65.0847C52.7725 64.8407 52.9352 64.6373 53.0978 64.434C53.2198 64.2307 53.3012 63.946 53.3012 63.702C53.4638 63.2547 53.6265 62.8073 54.2365 62.6853C54.3178 62.6853 54.4398 62.4413 54.2772 62.36C54.1145 62.1567 54.1958 61.994 54.3178 61.872C54.4398 61.75 54.6025 61.628 54.7245 61.506C54.8465 61.4247 55.0498 61.3433 55.0498 61.2213C55.1718 60.53 55.7412 60.2047 56.1885 59.798C56.4732 59.5133 56.9205 59.3507 57.3272 59.1067C57.3678 59.1067 57.4492 59.1067 57.5305 59.1067ZM54.2365 65.166C53.8298 65.8167 53.7892 66.02 53.5452 67.2807C53.7485 67.3213 53.7892 67.1993 53.8298 67.0773C54.1145 66.4673 54.3178 65.8573 54.2365 65.166C54.4398 65.0847 54.6432 64.9627 54.6432 64.678C54.4398 64.6373 54.2365 64.6373 53.8705 64.556C54.0332 64.8407 54.1552 65.0033 54.2365 65.166ZM58.7505 62.6447C58.9945 63.0107 59.1572 63.3767 59.3198 63.7427C59.5638 64.2307 59.9705 64.5153 60.4178 64.8C60.5398 64.8407 60.7025 64.922 60.8245 64.8813C61.4752 64.7593 62.1665 64.5967 62.7358 64.1087C63.0612 63.7427 62.9392 63.1733 62.4512 62.9293C61.8818 62.6447 61.1092 62.6447 60.5398 62.1973C60.5398 62.1567 60.4178 62.1567 60.3365 62.1567C60.0518 62.2787 59.7672 62.238 59.5232 62.238C59.2385 62.238 59.0352 62.482 58.7505 62.6447ZM60.0518 59.7573C60.2552 59.7573 60.4585 59.5947 60.5398 59.3913C60.5398 59.3507 60.4992 59.2287 60.4585 59.2287C60.2145 59.1067 59.9705 59.2693 59.9298 59.5133C59.9298 59.554 60.0112 59.6353 60.0518 59.7573ZM55.7818 61.262C55.9038 61.506 55.9038 61.628 55.9852 61.7093C56.1072 61.872 56.2698 61.872 56.4325 61.75C56.5138 61.7093 56.5545 61.628 56.5545 61.5467C56.5545 61.506 56.5138 61.4247 56.4325 61.4247C56.2698 61.384 56.1072 61.3433 55.7818 61.262ZM58.0998 62.6447C58.1812 62.5633 58.2625 62.5633 58.3032 62.482C58.3845 62.3193 58.0998 61.9533 57.9372 61.994C57.8558 62.0347 57.8558 62.1567 57.8558 62.1973C57.9372 62.36 58.0185 62.482 58.0998 62.6447ZM53.5452 68.2567C53.4232 68.1753 53.3825 68.1347 53.3012 68.094C53.2198 68.094 53.0978 68.1753 53.0572 68.1753C52.9758 68.2567 53.1385 68.5007 53.3012 68.46C53.3418 68.46 53.4232 68.3787 53.5452 68.2567ZM75.462 68.0127C75.4213 68.094 75.462 68.1753 75.4213 68.2973C75.1366 68.9887 74.8113 69.7207 74.5673 70.4527L74.12 70.534C74.2013 70.6153 74.364 70.778 74.4453 70.8593C74.4046 70.9 74.4453 70.9813 74.4046 71.022C74.0386 71.9573 73.754 72.974 73.5506 73.95C73.388 74.6007 73.388 74.6007 72.778 75.0073C72.778 75.2107 72.9813 75.2513 73.0626 75.3733C73.144 75.6173 72.9813 75.902 72.6966 75.902C72.4933 75.902 72.3306 75.8613 72.29 76.0647C72.0866 76.3493 71.8426 76.4713 71.558 76.512C71.314 76.5527 71.07 76.4307 71.07 76.2273C71.07 75.6987 71.0293 75.17 71.2326 74.6413C71.2733 74.56 71.2326 74.438 71.2733 74.316L71.192 74.2347H70.9886C70.948 74.3567 70.9073 74.4787 70.8666 74.6413C70.7446 74.926 70.704 75.2513 70.5413 75.5767C70.4193 75.7393 70.4193 75.902 70.46 76.0647C70.46 76.1053 70.4193 76.1867 70.338 76.1867C70.338 76.1867 70.216 76.2273 70.1346 76.146C70.0126 76.024 69.972 75.8613 69.8093 75.78C69.5653 75.4547 69.4026 75.1293 69.6873 74.7633C69.5653 74.2753 69.5653 73.828 69.6873 73.3807C70.0126 72.1607 70.2566 70.8593 70.5006 69.5987C70.7446 68.7447 70.9886 67.8907 71.1106 66.996C71.2326 66.4673 71.436 65.9387 71.5986 65.4507C71.6393 65.288 71.7613 65.2067 71.7613 65.0847C71.6393 64.434 71.924 63.8647 72.0053 63.336C72.0053 62.7667 72.412 62.2787 72.412 61.75C72.3713 61.262 72.5746 60.7333 72.6153 60.2047C72.6153 59.92 72.6966 59.92 73.2253 59.8387L73.1033 59.2693C73.2253 59.2693 73.266 59.2287 73.3473 59.188C73.4286 59.1473 73.5506 59.1067 73.632 59.1067C73.7133 59.066 73.7946 58.9847 73.876 58.944C73.998 58.944 74.1606 58.9847 74.242 58.9847L73.9573 59.676C73.876 59.9607 74.12 60.286 73.9166 60.6113C73.754 60.774 73.7946 61.0993 73.7946 61.4247C73.9166 61.384 74.0386 61.3433 74.0793 61.3027C74.1606 61.018 74.242 60.6927 74.5673 60.4893C74.6486 60.3673 74.73 60.164 74.73 60.042C74.8926 59.798 74.8926 59.5133 74.8926 59.188C75.1773 59.2693 75.5433 59.31 75.7873 59.31C76.0313 59.3913 76.194 59.5947 76.194 59.7167C76.1533 60.042 76.0313 60.3267 75.95 60.6113C76.1126 60.652 76.2346 60.6113 76.2753 60.6113C76.5193 60.3673 76.8446 60.3267 77.0886 60.0827C77.292 59.798 77.658 59.676 77.9833 59.5947C78.0646 59.554 78.146 59.5133 78.1053 59.4727C78.4713 59.066 78.9186 58.9847 79.366 58.7813L81.1146 58.7407L81.3993 58.9033C82.4566 59.5947 82.7006 60.4893 82.7006 61.4653C82.7006 61.5873 82.5786 61.8313 82.7006 61.9533C82.9853 62.2787 82.7413 62.7667 83.0666 63.092C83.27 63.2547 83.27 63.4173 83.27 63.702C83.27 63.7427 83.514 63.824 83.636 63.824C83.636 63.9867 83.7173 64.19 83.6766 64.3933C83.7173 64.678 83.5546 64.8407 83.1073 64.8407C83.026 64.8 82.8226 64.7187 82.66 64.8813C82.8226 65.166 83.1886 65.2473 83.4326 65.532C83.392 65.532 83.27 65.5727 83.27 65.6133C83.148 65.654 82.294 65.898 82.172 65.8573C82.0906 65.898 82.0093 65.898 81.9686 65.9793C81.928 66.1013 81.684 66.0607 81.562 65.9387C81.2773 65.654 80.9113 65.4507 80.464 65.3287C79.9353 64.8 79.4473 64.2307 79.4066 63.5393C79.366 63.092 79.366 63.092 78.8373 62.726C78.878 63.2547 78.878 63.2547 78.5933 63.6207C78.4306 63.7833 78.2273 63.9867 78.146 64.1087C77.8206 64.312 77.658 64.434 77.4953 64.8C77.4546 65.044 77.17 65.288 76.9666 65.532C76.682 65.9387 76.4786 66.386 76.2753 66.7927C75.95 67.1587 75.828 67.6467 75.4213 67.972C75.34 67.8907 75.2586 67.7687 75.1773 67.6873C75.0146 67.6467 74.8113 67.728 74.8113 67.8907C74.7706 67.9313 74.852 68.0127 74.852 68.1347C75.096 68.094 75.2993 68.0127 75.462 68.0127ZM73.7946 63.3767L73.7133 62.4007C73.51 62.726 73.4693 62.8073 73.3473 62.97C73.2253 63.092 73.1033 63.1733 73.144 63.336C73.4693 63.6207 73.754 63.58 73.7946 63.3767ZM76.2753 62.116C76.3566 62.0347 76.4786 62.0347 76.5193 61.994C76.56 61.9533 76.6413 61.75 76.56 61.75C76.4786 61.7093 76.316 61.6687 76.2753 61.7093C76.194 61.75 76.1126 61.8313 76.072 61.9533C76.0313 61.994 76.1533 62.0753 76.2753 62.116ZM95.5799 60.774L95.9052 61.2213C96.1086 61.6687 96.0679 61.872 95.6205 62.0753C95.4579 62.1567 95.1732 62.1973 95.0105 62.2787C94.8479 62.36 94.7259 62.482 94.6039 62.604C94.4005 62.5227 94.1565 62.4413 93.9532 62.3193C93.8312 62.36 93.7499 62.482 93.5872 62.482C92.8552 62.7667 92.6112 63.2953 92.4892 63.946C92.2045 65.2473 91.8792 66.4267 91.5132 67.6467C91.3099 68.3787 91.2285 69.1107 91.1065 69.8833C90.9439 70.778 90.7405 71.632 90.6185 72.5267C90.4559 73.828 90.2525 75.1293 90.7812 76.4713C90.8219 76.756 90.8219 77.0407 90.9032 77.3253C90.7812 77.5287 90.6185 77.732 90.4559 77.854L89.8459 77.7727C89.7645 77.9353 89.7239 78.098 89.6019 78.2607C89.4799 78.464 89.2765 78.586 89.0325 78.5047C88.7072 78.4233 88.5445 78.2607 88.4632 77.9353C88.4632 77.7727 88.3819 77.6507 88.3819 77.5287C88.2599 77.244 88.0565 77.0813 87.9752 77.1627L87.8939 77.5287C87.8532 77.6507 87.8125 77.732 87.8125 77.8133C87.4465 77.6507 87.3652 77.3253 87.2025 77.122C86.8365 76.3087 86.5925 75.5767 86.6332 74.7227C86.7145 71.8353 87.2432 68.9887 87.8939 66.1827C88.1379 65.3693 88.3412 64.5967 88.5445 63.7833L88.6259 63.2547C88.5039 63.214 88.4225 63.1733 88.3005 63.214C87.6905 63.336 87.0805 63.4987 86.4299 63.702C86.0232 63.7833 85.5352 63.824 85.0879 63.6207C85.0879 63.3767 85.0879 63.2547 85.0879 63.092C84.7625 62.8073 84.5185 63.214 84.1932 62.97C83.7459 62.482 83.6239 61.872 83.7865 61.1807C83.9492 60.5707 84.3152 60.2453 84.8439 60.0827L88.3005 59.3913C88.5852 59.3507 88.7885 59.2693 89.0732 59.2693C89.7645 59.2693 90.0492 58.822 90.2525 58.2527C90.3339 58.09 90.3745 58.0087 90.3745 57.846C90.8625 56.382 91.3505 54.9587 91.9199 53.576C92.2045 53.0473 92.3265 52.478 92.5299 51.9493C92.8145 51.258 93.0585 50.4853 93.4652 49.794C93.5872 49.5093 93.8719 49.306 93.7499 48.8587C93.9125 48.452 94.0752 48.0047 94.2785 47.6387C94.4412 47.3947 94.6852 47.3947 94.9292 47.232C94.8479 47.0693 94.8072 46.9473 94.6852 46.866C94.8072 46.6627 94.9699 46.5407 95.1732 46.6627C95.2952 46.7033 95.4172 46.8253 95.5392 46.866C95.5392 46.8253 95.5799 46.7847 95.5799 46.744C95.5799 46.5407 95.4985 46.3373 95.7832 46.4187C95.9865 46.4187 96.1086 46.622 96.0272 46.8253C96.0679 46.9067 96.0679 46.988 96.0272 47.11L95.4985 48.208C95.2139 48.2487 94.8885 48.33 94.4819 48.3707L95.2139 48.9807C94.8479 49.7127 94.6039 50.4447 94.3192 51.1767C94.2379 51.2987 94.1159 51.4207 94.0345 51.5833C93.9532 51.6647 93.8312 51.746 93.8312 51.7867C94.0752 52.2747 93.6685 52.6407 93.5465 53.0067C93.4652 53.332 93.2212 53.21 92.9365 53.21C92.8145 53.4947 93.3025 53.576 93.1805 53.7793C93.0179 54.2267 92.8552 54.6333 92.7739 55.1213C92.6519 55.528 92.2859 55.772 92.2859 56.26C92.2045 56.6667 91.9605 57.0733 91.8385 57.5207C91.7979 57.968 91.5539 58.334 91.5539 58.8627C91.7165 58.822 91.8792 58.822 91.8385 58.7407L92.6112 56.87L93.9532 53.2507L94.4005 52.112C94.8479 50.9327 95.3359 49.794 95.7425 48.6147C95.8239 48.3707 95.9865 48.208 96.0679 47.9233C96.1899 47.6387 96.3932 47.3947 96.7592 47.3947C96.8812 47.3947 97.0032 47.354 97.0032 47.2727C97.0845 47.1913 97.1252 47.0693 97.0032 46.988C96.9625 46.9067 96.8405 46.9067 96.6779 46.866C96.9625 46.5813 97.0845 46.5813 97.2472 46.7033L97.7352 47.1913C97.9385 47.3947 97.9792 47.6387 97.8572 47.842C97.6945 48.0453 97.7759 48.2487 97.9385 48.452C98.1419 48.7773 97.9792 49.0213 97.7759 49.306C97.6945 49.3873 97.4099 49.3873 97.2879 49.672L97.7759 49.7533V49.916L97.2065 50.8513L96.7592 51.7053C96.7185 51.746 96.6372 51.8273 96.6372 51.9493C96.4745 53.1693 95.7832 54.1453 95.4985 55.284C95.4579 55.5687 95.1325 55.8127 95.0105 56.0973C94.9292 56.4633 94.9699 56.87 94.6445 57.1547C94.6445 57.5207 94.5225 57.846 94.4005 58.1713C94.3192 58.5373 94.4005 58.944 94.4819 59.3507C94.7665 59.554 94.8479 59.2693 95.0105 59.31C95.2139 59.554 95.4579 59.554 95.7832 59.432C95.8239 59.432 95.8239 59.432 95.8645 59.4727C96.0679 59.7573 95.9052 60.286 95.5799 60.408L95.2139 60.53C95.1732 60.53 95.1325 60.652 95.1325 60.7333C95.1732 60.7333 95.2545 60.774 95.3359 60.774C95.3765 60.8147 95.4579 60.774 95.5799 60.774ZM90.4965 63.214C90.2525 63.214 90.1305 63.214 90.1305 63.2547C89.8459 64.1087 89.5205 64.9627 89.2765 65.8167C88.9919 66.9553 88.7885 68.1347 88.6259 69.314C88.5039 70.046 88.3819 70.778 88.3005 71.5507C88.2599 71.7133 88.3412 71.8353 88.5445 71.8353C88.7885 70.9 88.9105 69.9647 89.0732 69.0293C89.3172 68.0533 89.5612 67.0773 89.7239 66.1013C90.0085 65.2067 90.2119 64.2713 90.4965 63.214ZM85.4539 60.6113L85.2505 60.408C85.1285 60.3673 84.9659 60.6113 85.0472 60.774C85.0879 60.8147 85.1692 60.896 85.2099 60.896C85.3725 60.896 85.4539 60.8147 85.4539 60.6113ZM94.7665 59.8793C94.4819 59.8793 94.3599 59.798 94.1972 59.8387L93.9532 59.9607L93.9939 60.0827C94.0345 60.2047 94.1565 60.2047 94.2785 60.164C94.4412 60.0827 94.4819 60.0013 94.7665 59.8793ZM100.606 61.7907C101.013 61.8313 100.81 62.6447 101.42 62.2787C101.704 62.726 101.298 63.092 101.42 63.5393C101.542 63.4173 101.664 63.3767 101.786 63.2953C101.867 63.6207 101.948 63.8647 101.786 64.2307C100.769 66.508 98.9797 72.8113 98.9797 75.902C97.9223 76.7967 98.329 76.3087 97.353 76.3087H97.2717C95.889 76.9593 96.3363 74.7227 95.645 75.3327C95.279 74.438 95.1977 73.5027 95.3603 72.608C95.7263 70.9 95.9703 69.1513 96.621 67.484L98.0037 63.1733C100.688 58.1307 99.1017 64.0273 100.606 61.7907ZM99.4677 58.2527C99.2643 57.8053 99.915 57.5207 99.7117 57.114C99.305 56.3007 102.152 54.8773 102.558 56.504C102.721 56.626 102.762 56.8293 102.762 57.0733C102.843 58.09 102.111 59.92 101.42 59.432C101.094 59.188 99.8743 58.944 99.4677 58.2527ZM97.0683 68.8667L97.3937 69.558C96.2143 73.1773 98.451 69.7207 97.963 68.6633C97.963 68.6227 97.8817 68.582 97.841 68.46C97.6783 68.826 97.2717 68.6227 97.0683 68.8667ZM102.152 56.9513C101.826 57.358 101.826 57.3987 101.948 57.48C101.989 57.602 102.111 57.724 102.274 57.602C102.274 57.3987 102.558 57.0733 102.152 56.9513ZM117.146 62.5227C116.861 62.2787 116.577 62.0753 116.658 61.7093C116.739 61.506 116.577 61.3433 116.536 61.14C116.007 61.262 116.211 61.628 116.007 61.8313C115.641 61.5467 115.763 61.0993 115.601 60.652C115.113 60.53 114.706 60.4893 114.096 60.6113C112.551 61.0993 111.127 61.872 109.663 62.6447C109.257 62.848 109.135 63.336 108.525 63.336C108.281 63.6613 108.077 64.0273 107.874 64.3527C108.077 64.8407 108.687 64.8 109.013 65.1253L108.769 65.5727C109.135 65.7353 109.216 65.3693 109.501 65.3693H109.704C110.965 65.8573 112.103 66.508 113.079 67.362C113.771 68.0127 114.381 68.704 114.706 69.5173C115.275 70.9 115.113 72.242 114.34 73.5027C114.177 73.6653 114.015 73.828 113.933 73.9907C113.689 74.072 113.567 73.9907 113.486 73.9093C113.242 73.706 112.957 73.828 112.917 74.072C112.876 74.1533 112.835 74.2753 112.876 74.3567C113.161 74.7633 112.917 75.0073 112.591 75.2107C112.144 75.4547 111.737 75.6987 111.29 75.902C110.802 76.1053 110.314 76.3087 109.907 76.512C109.582 76.756 109.216 76.6747 108.85 76.5527C108.728 76.756 108.565 76.9187 108.362 77.0407C107.996 77.1627 107.63 77.244 107.223 77.3253C107.02 77.366 106.776 77.0813 106.613 77.244C106.491 77.366 106.41 77.5287 106.207 77.5693C105.922 77.61 105.678 77.6913 105.393 77.6913C105.109 77.732 104.824 77.6913 104.499 77.7727C103.807 77.976 103.116 77.732 102.465 77.61C102.384 77.61 102.303 77.488 102.221 77.4473V77.0407C102.059 76.9187 101.937 77.0407 101.774 77C101.652 76.9593 101.489 76.9187 101.449 76.8373C101.245 76.512 101.083 76.146 101.327 75.8207C101.489 75.6173 101.489 75.536 101.367 75.3733C101.245 75.1293 101.367 75.0073 101.652 74.9667C101.774 74.9667 101.896 75.0073 101.977 75.0073V74.6007C102.018 74.6007 102.018 74.5193 102.059 74.438C102.547 74.316 103.075 74.1127 103.726 74.316C103.929 74.3973 104.295 74.3973 104.58 74.316C105.231 74.194 105.8 74.072 106.369 73.95C106.735 73.828 107.061 73.706 107.427 73.8687C107.671 73.95 107.63 73.706 107.711 73.6247C107.874 73.5433 108.077 73.462 108.281 73.34L110.151 72.486C110.477 72.3233 110.68 72.0387 110.924 71.8353C111.371 71.3067 111.412 71.0627 111.005 70.534C110.761 70.2087 110.517 70.046 110.233 69.7613C109.826 69.3547 109.379 68.9887 108.769 68.826C107.915 68.46 107.061 68.0127 106.207 67.6467C105.353 67.1993 104.783 66.4673 104.173 65.776C104.011 65.6133 103.929 65.3693 103.929 65.2067C103.767 64.068 103.929 63.092 104.905 62.2787C104.905 62.238 105.027 62.1973 105.027 62.1567C105.068 61.5873 105.597 61.384 105.881 61.018L107.752 59.6353C108.362 59.2693 109.013 58.944 109.663 58.6593C110.273 58.334 110.965 58.0087 111.615 57.8053C112.388 57.5613 113.12 57.3987 113.893 57.1953C114.421 57.114 114.909 56.992 115.438 56.992C116.251 56.992 116.902 57.1953 117.593 57.5207C117.878 57.6833 118.325 57.8053 118.569 58.0493C118.976 58.456 119.261 58.944 119.342 59.5133C119.423 60.0827 119.383 60.6113 119.423 61.2213C119.423 61.262 119.423 61.262 119.383 61.3433C119.301 62.0753 118.732 62.5227 117.878 62.36C117.593 62.2787 117.349 62.36 117.146 62.5227ZM112.144 57.8867C112.632 58.0087 112.876 58.09 113.161 58.1713C113.364 58.212 113.567 58.09 113.567 57.8053C113.161 57.7647 112.754 57.724 112.144 57.8867ZM113.039 60.5707C113.649 60.652 113.893 60.4893 114.015 60.164V60.0827C113.933 60.042 113.811 60.042 113.771 60.042C113.567 60.1233 113.405 60.286 113.039 60.5707ZM106.044 62.1973L106.166 61.994C106.125 61.8313 105.881 61.7093 105.678 61.75L105.637 61.8313C105.637 61.994 105.8 62.1973 106.044 62.1973ZM111.29 60.774L111.656 60.4893C111.697 60.4893 111.615 60.3267 111.615 60.286C111.412 60.2453 111.168 60.408 111.127 60.5707C111.127 60.6113 111.168 60.652 111.29 60.774ZM102.628 75.6173C102.587 75.4953 102.587 75.4547 102.547 75.4547C102.425 75.3327 102.303 75.414 102.181 75.4953C102.181 75.5767 102.14 75.658 102.14 75.78L102.181 75.8207C102.384 75.7393 102.506 75.6987 102.628 75.6173ZM123.243 61.7907C123.65 61.8313 123.446 62.6447 124.056 62.2787C124.341 62.726 123.934 63.092 124.056 63.5393C124.178 63.4173 124.3 63.3767 124.422 63.2953C124.504 63.6207 124.585 63.8647 124.422 64.2307C123.406 66.508 121.616 72.8113 121.616 75.902C120.559 76.7967 120.966 76.3087 119.99 76.3087H119.908C118.526 76.9593 118.973 74.7227 118.282 75.3327C117.916 74.438 117.834 73.5027 117.997 72.608C118.363 70.9 118.607 69.1513 119.258 67.484L120.64 63.1733C123.324 58.1307 121.738 64.0273 123.243 61.7907ZM122.104 58.2527C121.901 57.8053 122.552 57.5207 122.348 57.114C121.942 56.3007 124.788 54.8773 125.195 56.504C125.358 56.626 125.398 56.8293 125.398 57.0733C125.48 58.09 124.748 59.92 124.056 59.432C123.731 59.188 122.511 58.944 122.104 58.2527ZM119.705 68.8667L120.03 69.558C118.851 73.1773 121.088 69.7207 120.6 68.6633C120.6 68.6227 120.518 68.582 120.478 68.46C120.315 68.826 119.908 68.6227 119.705 68.8667ZM124.788 56.9513C124.463 57.358 124.463 57.3987 124.585 57.48C124.626 57.602 124.748 57.724 124.91 57.602C124.91 57.3987 125.195 57.0733 124.788 56.9513ZM138.603 63.2547C137.912 63.4987 137.343 63.8647 136.773 64.2713C135.635 65.166 134.618 66.142 133.52 67.118L132.829 67.8907C132.747 67.972 132.625 68.094 132.381 68.0533C132.259 68.0127 132.259 68.1347 132.219 68.216C132.178 68.6227 132.178 68.6227 131.853 68.704C131.771 68.7447 131.69 68.7447 131.609 68.7447C131.568 68.7447 131.568 68.7853 131.487 68.7853C131.365 68.948 131.69 68.9887 131.527 69.3547L131.161 69.7207C130.511 70.412 129.982 71.1847 129.535 71.9573C129.453 72.0387 129.331 72.0793 129.291 72.242C129.047 72.6487 128.559 72.852 128.437 73.462C128.396 73.8687 128.071 74.316 127.867 74.7227L127.379 75.5767C127.217 75.78 127.135 76.024 127.013 76.2273C126.81 76.634 126.525 76.878 125.956 76.8373C125.915 76.8373 125.793 76.8373 125.753 76.878L125.387 77.0407C125.387 76.7153 125.631 76.3087 125.143 76.0647L124.37 76.5933C124.207 76.4713 124.126 76.1867 123.882 76.0647C123.557 75.902 123.516 75.6173 123.76 75.3327C123.882 75.17 123.963 75.0073 123.882 74.7227C123.841 74.5193 123.882 74.316 123.923 74.1127C124.451 72.8113 124.695 71.4693 125.224 70.168C125.346 69.7207 125.387 69.2733 125.793 68.8667C125.793 68.826 125.834 68.7853 125.834 68.7853C125.793 68.1347 125.915 67.6467 126.241 67.1587C126.322 66.996 126.241 66.752 126.281 66.5893L126.688 65.4913L126.81 65.0847C126.973 63.9867 127.42 63.0513 127.664 61.9127C127.786 61.262 127.908 60.5707 128.152 59.8387C128.193 59.554 128.315 59.31 128.599 59.1473L129.047 59.4727C129.209 59.676 129.087 59.798 128.803 59.798C128.762 59.798 128.721 59.8387 128.681 59.8387C128.599 60.0827 128.884 60.2047 128.843 60.4487C128.762 60.5707 128.681 60.652 128.599 60.774L128.884 61.262L129.047 61.75C129.413 61.4247 129.413 61.018 129.453 60.6927C129.535 60.3673 129.616 60.0013 129.738 59.676C129.982 59.7167 130.104 59.798 130.348 59.798C130.429 59.798 130.47 59.7573 130.511 59.676C130.511 59.6353 130.511 59.5133 130.47 59.4727C130.348 59.3913 130.145 59.3913 129.982 59.2693C129.982 59.2287 129.982 59.1067 129.982 59.066C129.982 58.9847 130.145 58.9033 130.226 58.944C130.47 58.9847 130.714 59.066 130.917 59.1473C131.283 59.92 130.917 60.652 130.836 61.3433C130.917 61.3433 131.283 61.262 131.365 61.14C131.405 61.262 131.446 61.3433 131.446 61.4247C131.243 62.3193 130.958 63.2547 130.755 64.2307L130.673 64.8C130.958 64.922 131.202 64.8407 131.283 64.678C131.975 63.6613 133.154 62.9293 134.089 62.0347C134.211 61.872 134.333 61.8313 134.496 61.7093C135.065 61.384 135.594 60.9773 136.163 60.652C136.448 60.6927 136.123 60.896 136.285 61.018L136.855 61.14C136.977 60.9773 136.733 60.9367 136.651 60.774C136.855 60.3673 137.099 60.0013 137.587 59.798C137.953 59.676 138.278 59.5947 138.644 59.676C138.888 59.7573 138.929 59.7167 138.969 59.3913C139.051 59.188 139.173 59.1067 139.335 59.1473C139.864 59.1473 140.311 58.9847 140.759 58.7407C141.084 58.822 141.328 58.8627 141.694 58.9033C141.979 58.9033 142.223 58.9847 142.507 59.066C143.361 59.31 143.605 59.92 143.687 60.5707C143.809 60.9773 143.89 61.506 143.524 61.872C143.443 61.9533 143.483 62.1567 143.483 62.238C143.321 62.2787 143.199 62.2787 143.117 62.2787C142.792 62.36 142.629 62.4413 142.711 62.5633C142.751 62.6447 142.792 62.6447 143.158 62.6447C143.158 62.6447 143.199 62.726 143.158 62.7667C143.077 62.97 142.995 63.092 142.914 63.2547C142.67 63.4987 142.345 63.7833 142.385 64.1493L141.735 64.5967C141.735 64.8 141.694 65.0847 141.572 65.3693L141.165 65.9793C140.759 66.7927 140.352 67.606 139.864 68.4193C139.376 69.07 139.213 69.7207 138.929 70.3713C138.847 70.534 138.807 70.6967 138.766 70.8187C138.156 71.7133 138.115 72.73 137.831 73.6653C137.749 74.0313 137.871 74.316 138.197 74.4787C138.563 74.7227 138.685 75.048 138.603 75.3733C138.563 75.5767 138.725 75.7393 138.766 75.9427C138.603 76.4713 138.034 76.8373 137.546 77.1627C137.465 77.2847 137.261 77.2847 137.058 77.2847C136.123 77.244 135.35 76.878 134.781 76.1867C134.374 75.6173 134.089 74.8853 134.171 74.1533C134.211 73.218 134.293 72.364 134.618 71.4287C135.147 69.9647 135.716 68.5007 136.529 67.118C136.855 66.4673 137.099 65.898 137.505 65.3693C137.953 64.678 138.237 63.9867 138.603 63.2547ZM135.716 72.486C135.797 72.486 135.838 72.5267 135.838 72.486C136.367 72.0387 136.204 71.3067 136.611 70.778V70.5747L136.57 70.534C136.489 70.534 136.407 70.534 136.367 70.534L136.204 70.7373C136.041 71.266 135.797 71.9167 135.716 72.486ZM127.745 63.3767C128.071 63.3767 128.315 63.4173 128.599 63.4173C128.721 63.2953 128.721 63.1733 128.681 63.0513C128.599 62.7667 128.437 62.6853 128.233 62.8073C128.152 62.9293 127.989 63.092 127.786 63.092C127.745 63.1327 127.745 63.2547 127.745 63.3767ZM137.18 69.192C136.692 69.2327 136.814 69.558 136.692 69.6393C136.611 69.8427 136.448 69.9647 136.204 70.168C136.611 70.1273 136.814 70.0867 136.855 69.9647C136.977 69.7207 137.058 69.558 137.18 69.192ZM140.433 62.8073L141.165 62.6853C141.165 62.6447 141.165 62.5633 141.206 62.5227L140.596 62.4413C140.555 62.4007 140.433 62.482 140.393 62.482C140.352 62.5633 140.311 62.6447 140.311 62.726C140.311 62.7667 140.433 62.8073 140.433 62.8073ZM133.561 66.264C133.683 66.1013 133.601 65.9387 133.601 65.8167C133.561 65.776 133.398 65.7353 133.317 65.776C133.276 65.776 133.195 65.898 133.195 65.9387C133.317 66.0607 133.317 66.264 133.561 66.264ZM154.552 74.9667C154.714 75.292 154.674 75.5767 154.592 75.9427C154.186 77.122 153.82 78.342 153.413 79.4807C153.006 80.782 152.437 81.9613 151.705 83.0593C151.258 83.7507 150.729 84.32 150.119 84.8487C150.038 84.8893 149.997 85.0113 149.916 85.0113C149.672 85.052 149.387 84.93 149.184 85.296C149.062 85.4993 148.777 85.5807 148.533 85.662C148.208 85.8247 147.842 85.9873 147.435 85.8247C147.232 85.7027 147.028 85.784 146.866 85.7433C146.622 85.7433 146.378 85.7433 146.174 85.662C145.361 85.296 144.466 85.0927 143.897 84.2793C143.816 84.198 143.734 84.1167 143.653 84.076C142.799 83.588 142.148 82.856 141.66 82.0833C141.579 81.9207 141.457 81.7987 141.335 81.758C140.888 81.392 140.684 80.9853 140.562 80.416C140.562 80.3753 140.522 80.2533 140.481 80.1313C140.278 79.2773 140.562 78.6673 141.376 78.22C141.742 77.976 142.026 78.0573 142.27 78.464C142.27 78.464 142.27 78.5453 142.311 78.5453C142.392 78.6673 142.474 78.7893 142.555 78.7893C142.636 78.7487 142.718 78.6673 142.718 78.5453C142.84 78.4233 142.84 78.3013 142.88 78.1387C143.572 78.4233 143.897 78.9113 144.304 79.3993C145.076 80.3347 145.89 81.148 146.866 81.7987C147.272 82.124 147.435 82.124 147.842 81.7987C148.492 81.2293 148.858 80.4567 149.184 79.7653C149.753 78.5047 150.322 77.2847 150.607 75.9427C150.729 75.536 150.892 75.0887 151.054 74.682C151.176 74.3973 151.258 74.072 151.136 73.7467C150.851 73.6653 150.648 73.8687 150.404 74.0313C149.794 74.3973 149.021 74.5193 148.33 74.6007C147.882 74.7227 147.435 74.6007 147.028 74.5193C146.174 74.316 145.564 73.8687 144.914 73.3807C144.1 72.7707 143.775 71.754 143.572 70.778C143.328 69.5987 143.49 68.3787 143.897 67.24C144.222 66.02 144.792 64.922 145.564 63.9053C146.215 63.0107 147.028 62.1973 147.801 61.4653C147.964 61.3027 148.126 61.14 148.33 61.0587C148.655 60.9367 148.899 60.7333 149.143 60.53C149.834 60.0013 150.607 59.554 151.542 59.554C151.705 59.554 151.786 59.4727 151.908 59.3913C152.071 59.31 152.274 59.2693 152.437 59.2693C153.291 59.2287 154.145 59.2693 154.958 59.554C155.243 59.6353 155.528 59.7573 155.731 59.8793C156.341 60.2047 156.341 60.2453 156.463 61.018C156.87 61.14 157.073 60.6927 157.439 60.652C157.561 60.7333 157.683 60.8147 157.805 60.9367C158.212 61.262 158.13 61.8313 158.334 62.238C158.456 62.4413 158.334 62.726 158.293 63.0107C158.212 63.2953 158.13 63.5393 158.09 63.8647C158.008 64.0273 157.886 64.2307 157.927 64.3933C158.13 65.166 157.602 65.8167 157.358 66.4673C157.236 66.9553 157.032 67.4433 156.91 67.9313C156.504 69.68 156.016 71.4287 155.487 73.1367L155.121 74.1533C154.958 74.438 154.755 74.6413 154.552 74.9667ZM147.191 69.68C147.191 70.5747 147.72 70.9407 148.452 70.6967C148.492 70.656 148.533 70.656 148.533 70.6153C149.184 70.3307 149.794 69.9647 150.322 69.5173C150.932 69.0293 151.38 68.3787 152.071 67.972C152.193 67.8907 152.234 67.7687 152.315 67.6467C152.437 67.362 152.6 67.118 152.762 66.874C153.413 66.02 153.779 65.044 153.942 63.946C154.023 63.458 153.942 63.336 153.494 63.092C153.128 63.0107 152.803 63.0107 152.396 63.092C151.868 63.2953 151.38 63.4987 150.932 63.8647C150.119 64.434 149.387 65.166 148.777 66.02C148.411 66.5487 148.004 67.118 147.72 67.6873C147.435 68.338 147.313 69.1107 147.191 69.68ZM151.461 78.1387L151.664 78.0167C151.908 77.2033 152.234 76.39 152.518 75.536C152.884 74.56 153.088 73.462 153.657 72.4453C153.698 72.364 153.738 72.242 153.698 72.1607C153.698 72.0793 153.576 71.9573 153.494 71.9167C153.413 71.876 153.291 71.9167 153.25 71.998C153.128 72.2013 153.006 72.4453 152.925 72.6893C152.559 73.9093 152.315 75.0887 151.868 76.268C151.705 76.5933 151.746 77 151.502 77.2847C151.583 77.5287 151.258 77.854 151.461 78.1387ZM154.836 73.5433C154.552 73.9907 154.552 73.9907 154.674 74.316C154.796 74.1127 154.999 73.8687 154.836 73.5433Z" fill="black"/>
</svg>
