<svg width="225" height="97" viewBox="0 0 225 97" fill="none" xmlns="http://www.w3.org/2000/svg">
<path d="M2.84667 30V0.720001H20.4757V5.62033H7.747V12.92H18.0357V17.8H7.747V30H2.84667ZM29.4795 30.61C27.8935 30.61 26.5515 30.3118 25.4535 29.7153C24.3555 29.1053 23.5219 28.2988 22.9525 27.2957C22.3967 26.2926 22.1189 25.1878 22.1189 23.9813C22.1189 22.924 22.2951 21.9751 22.6475 21.1347C23 20.2807 23.5422 19.5487 24.2742 18.9387C25.0062 18.3151 25.9551 17.8068 27.1209 17.4137C28.002 17.129 29.0322 16.8714 30.2115 16.641C31.4044 16.4106 32.6922 16.2004 34.0749 16.0107C35.4711 15.8073 36.9283 15.5904 38.4465 15.36L36.6979 16.3563C36.7114 14.8381 36.3725 13.7198 35.6812 13.0013C34.9899 12.2829 33.8241 11.9237 32.1839 11.9237C31.1943 11.9237 30.2386 12.1541 29.3169 12.615C28.3951 13.0759 27.7512 13.8689 27.3852 14.994L22.9119 13.591C23.4541 11.7339 24.4843 10.2428 26.0025 9.11767C27.5343 7.99256 29.5947 7.43 32.1839 7.43C34.1359 7.43 35.8506 7.74856 37.3282 8.38567C38.8193 9.02278 39.9241 10.0666 40.6425 11.517C41.0356 12.2897 41.2729 13.0827 41.3542 13.896C41.4355 14.6958 41.4762 15.5701 41.4762 16.519V30H37.1859V25.242L37.8975 26.0147C36.908 27.6007 35.749 28.7664 34.4205 29.512C33.1056 30.244 31.4586 30.61 29.4795 30.61ZM30.4555 26.706C31.5671 26.706 32.516 26.5094 33.3022 26.1163C34.0884 25.7232 34.712 25.242 35.1729 24.6727C35.6473 24.1033 35.9659 23.5679 36.1285 23.0663C36.3861 22.4428 36.5284 21.7311 36.5555 20.9313C36.5962 20.118 36.6165 19.4606 36.6165 18.959L38.1212 19.4063C36.6436 19.6368 35.3762 19.8401 34.3189 20.0163C33.2615 20.1926 32.3533 20.362 31.5942 20.5247C30.8351 20.6738 30.1641 20.8432 29.5812 21.033C29.0119 21.2363 28.5306 21.4736 28.1375 21.7447C27.7444 22.0158 27.4394 22.3276 27.2225 22.68C27.0192 23.0324 26.9175 23.4459 26.9175 23.9203C26.9175 24.4626 27.0531 24.9438 27.3242 25.364C27.5953 25.7707 27.9884 26.096 28.5035 26.34C29.0322 26.584 29.6829 26.706 30.4555 26.706ZM56.3062 30.61C54.0424 30.61 52.1107 30.1084 50.5112 29.1053C48.9116 28.0887 47.6848 26.706 46.8308 24.9573C45.9904 23.2087 45.5634 21.2296 45.5498 19.02C45.5634 16.7698 46.0039 14.7771 46.8715 13.042C47.7526 11.2933 48.9997 9.92422 50.6128 8.93467C52.2259 7.93156 54.1441 7.43 56.3672 7.43C58.8614 7.43 60.9693 8.06033 62.6908 9.321C64.4259 10.5681 65.5578 12.2761 66.0865 14.445L61.2065 15.7667C60.8269 14.5873 60.1966 13.6723 59.3155 13.0217C58.4344 12.3574 57.4313 12.0253 56.3062 12.0253C55.0319 12.0253 53.9814 12.3303 53.1545 12.9403C52.3276 13.5368 51.7176 14.3637 51.3245 15.421C50.9314 16.4783 50.7348 17.678 50.7348 19.02C50.7348 21.1076 51.2025 22.7952 52.1378 24.083C53.0732 25.3708 54.4626 26.0147 56.3062 26.0147C57.6075 26.0147 58.6309 25.7164 59.3765 25.12C60.1356 24.5236 60.7049 23.6628 61.0845 22.5377L66.0865 23.656C65.4087 25.8927 64.2226 27.6142 62.5282 28.8207C60.8337 30.0136 58.7597 30.61 56.3062 30.61ZM79.5491 30.61C77.326 30.61 75.374 30.1288 73.6931 29.1663C72.0122 28.2039 70.6973 26.8687 69.7484 25.1607C68.8131 23.4527 68.3454 21.4871 68.3454 19.264C68.3454 16.8647 68.8063 14.7839 69.7281 13.0217C70.6499 11.2459 71.9309 9.87 73.5711 8.894C75.2113 7.918 77.1091 7.43 79.2644 7.43C81.5417 7.43 83.4734 7.96545 85.0594 9.03633C86.659 10.0937 87.8451 11.5916 88.6177 13.53C89.3904 15.4684 89.6819 17.7526 89.4921 20.3823H84.6324V18.593C84.6189 16.2072 84.1986 14.4653 83.3718 13.3673C82.5449 12.2693 81.2435 11.7203 79.4677 11.7203C77.4615 11.7203 75.9704 12.3439 74.9944 13.591C74.0184 14.8246 73.5304 16.6342 73.5304 19.02C73.5304 21.2431 74.0184 22.9647 74.9944 24.1847C75.9704 25.4047 77.3938 26.0147 79.2644 26.0147C80.4709 26.0147 81.5079 25.7503 82.3754 25.2217C83.2565 24.6794 83.9343 23.9 84.4088 22.8833L89.2481 24.3473C88.4076 26.3264 87.1063 27.865 85.3441 28.963C83.5954 30.061 81.6638 30.61 79.5491 30.61ZM71.9851 20.3823V16.6817H87.0928V20.3823H71.9851ZM104.582 30.61C102.44 30.61 100.644 30.1017 99.1936 29.085C97.7432 28.0683 96.652 26.6857 95.92 24.937C95.188 23.1748 94.822 21.2024 94.822 19.02C94.822 16.8104 95.188 14.8313 95.92 13.0827C96.652 11.334 97.7228 9.95811 99.1326 8.955C100.556 7.93833 102.311 7.43 104.399 7.43C106.473 7.43 108.269 7.93833 109.787 8.955C111.319 9.95811 112.505 11.334 113.346 13.0827C114.186 14.8178 114.606 16.7969 114.606 19.02C114.606 21.216 114.193 23.1883 113.366 24.937C112.539 26.6857 111.373 28.0683 109.869 29.085C108.364 30.1017 106.602 30.61 104.582 30.61ZM93.9883 30V0.720001H98.9293V14.5873H98.3193V30H93.9883ZM103.83 26.218C105.104 26.218 106.154 25.8994 106.981 25.2623C107.808 24.6252 108.418 23.7644 108.811 22.68C109.218 21.582 109.421 20.362 109.421 19.02C109.421 17.6916 109.218 16.4851 108.811 15.4007C108.405 14.3027 107.774 13.4351 106.92 12.798C106.066 12.1473 104.982 11.822 103.667 11.822C102.42 11.822 101.403 12.127 100.617 12.737C99.8307 13.3334 99.2478 14.1739 98.8683 15.2583C98.5023 16.3292 98.3193 17.5831 98.3193 19.02C98.3193 20.4433 98.5023 21.6972 98.8683 22.7817C99.2478 23.8661 99.8375 24.7133 100.637 25.3233C101.451 25.9198 102.515 26.218 103.83 26.218ZM128.787 30.61C126.591 30.61 124.673 30.1152 123.033 29.1257C121.393 28.1361 120.118 26.7738 119.21 25.0387C118.316 23.29 117.868 21.2838 117.868 19.02C117.868 16.7156 118.329 14.6958 119.251 12.9607C120.173 11.2256 121.454 9.87 123.094 8.894C124.734 7.918 126.632 7.43 128.787 7.43C130.997 7.43 132.922 7.92478 134.562 8.91433C136.202 9.90389 137.476 11.273 138.385 13.0217C139.293 14.7568 139.747 16.7562 139.747 19.02C139.747 21.2973 139.286 23.3103 138.364 25.059C137.456 26.7941 136.182 28.1564 134.542 29.146C132.901 30.122 130.983 30.61 128.787 30.61ZM128.787 26.0147C130.739 26.0147 132.19 25.364 133.139 24.0627C134.087 22.7613 134.562 21.0804 134.562 19.02C134.562 16.8918 134.081 15.1973 133.118 13.9367C132.156 12.6624 130.712 12.0253 128.787 12.0253C127.472 12.0253 126.388 12.3236 125.534 12.92C124.693 13.5029 124.07 14.323 123.663 15.3803C123.257 16.4241 123.053 17.6373 123.053 19.02C123.053 21.1482 123.534 22.8494 124.497 24.1237C125.473 25.3843 126.903 26.0147 128.787 26.0147ZM153.926 30.61C151.73 30.61 149.812 30.1152 148.172 29.1257C146.531 28.1361 145.257 26.7738 144.349 25.0387C143.454 23.29 143.007 21.2838 143.007 19.02C143.007 16.7156 143.468 14.6958 144.39 12.9607C145.311 11.2256 146.592 9.87 148.233 8.894C149.873 7.918 151.771 7.43 153.926 7.43C156.135 7.43 158.06 7.92478 159.701 8.91433C161.341 9.90389 162.615 11.273 163.523 13.0217C164.431 14.7568 164.886 16.7562 164.886 19.02C164.886 21.2973 164.425 23.3103 163.503 25.059C162.595 26.7941 161.32 28.1564 159.68 29.146C158.04 30.122 156.122 30.61 153.926 30.61ZM153.926 26.0147C155.878 26.0147 157.328 25.364 158.277 24.0627C159.226 22.7613 159.701 21.0804 159.701 19.02C159.701 16.8918 159.219 15.1973 158.257 13.9367C157.294 12.6624 155.851 12.0253 153.926 12.0253C152.611 12.0253 151.527 12.3236 150.673 12.92C149.832 13.5029 149.209 14.323 148.802 15.3803C148.395 16.4241 148.192 17.6373 148.192 19.02C148.192 21.1482 148.673 22.8494 149.636 24.1237C150.612 25.3843 152.042 26.0147 153.926 26.0147ZM169.325 30L169.366 0.720001H174.327V18.6133L182.359 8.04H188.479L179.959 19.02L189.211 30H182.725L174.327 19.4267V30H169.325ZM0.813333 86L10.0447 56.72H17.2223L26.4537 86H21.411L13.0337 59.7293H14.1317L5.856 86H0.813333ZM5.95767 79.656V75.081H21.3297V79.656H5.95767ZM38.9342 86.61C36.9144 86.61 35.1522 86.1017 33.6475 85.085C32.1429 84.0683 30.9771 82.6857 30.1502 80.937C29.3233 79.1883 28.9099 77.216 28.9099 75.02C28.9099 72.7969 29.3233 70.8178 30.1502 69.0827C30.9906 67.334 32.1768 65.9581 33.7085 64.955C35.2403 63.9383 37.0432 63.43 39.1172 63.43C41.2048 63.43 42.9534 63.9383 44.3632 64.955C45.7865 65.9581 46.8642 67.334 47.5962 69.0827C48.3282 70.8313 48.6942 72.8104 48.6942 75.02C48.6942 77.2024 48.3282 79.1748 47.5962 80.937C46.8642 82.6857 45.773 84.0683 44.3225 85.085C42.8721 86.1017 41.076 86.61 38.9342 86.61ZM39.6865 82.218C41.0014 82.218 42.0588 81.9198 42.8585 81.3233C43.6719 80.7133 44.2615 79.8661 44.6275 78.7817C45.0071 77.6972 45.1969 76.4433 45.1969 75.02C45.1969 73.5831 45.0071 72.3292 44.6275 71.2583C44.2615 70.1739 43.6854 69.3334 42.8992 68.737C42.113 68.127 41.0963 67.822 39.8492 67.822C38.5343 67.822 37.4499 68.1473 36.5959 68.798C35.7419 69.4351 35.1115 70.3027 34.7049 71.4007C34.2982 72.4851 34.0949 73.6916 34.0949 75.02C34.0949 76.362 34.2914 77.582 34.6845 78.68C35.0912 79.7644 35.708 80.6252 36.5349 81.2623C37.3618 81.8994 38.4123 82.218 39.6865 82.218ZM45.1969 86V70.5873H44.5869V56.72H49.5279V86H45.1969ZM61.1662 86L53.1955 64.04H58.0958L63.6265 79.961L69.1368 64.04H74.0575L66.0868 86H61.1662ZM86.8961 86.61C84.673 86.61 82.721 86.1288 81.0401 85.1663C79.3592 84.2039 78.0443 82.8687 77.0954 81.1607C76.1601 79.4527 75.6924 77.4871 75.6924 75.264C75.6924 72.8647 76.1533 70.7839 77.0751 69.0217C77.9969 67.2459 79.2779 65.87 80.9181 64.894C82.5583 63.918 84.4561 63.43 86.6114 63.43C88.8887 63.43 90.8204 63.9654 92.4064 65.0363C94.006 66.0937 95.1921 67.5916 95.9647 69.53C96.7374 71.4684 97.0289 73.7526 96.8391 76.3823H91.9794V74.593C91.9659 72.2072 91.5456 70.4653 90.7188 69.3673C89.8919 68.2693 88.5905 67.7203 86.8148 67.7203C84.8085 67.7203 83.3174 68.3439 82.3414 69.591C81.3654 70.8246 80.8774 72.6342 80.8774 75.02C80.8774 77.2431 81.3654 78.9647 82.3414 80.1847C83.3174 81.4047 84.7408 82.0147 86.6114 82.0147C87.8179 82.0147 88.8549 81.7503 89.7224 81.2217C90.6035 80.6794 91.2813 79.9 91.7558 78.8833L96.5951 80.3473C95.7546 82.3264 94.4533 83.865 92.6911 84.963C90.9424 86.061 89.0108 86.61 86.8961 86.61ZM79.3321 76.3823V72.6817H94.4398V76.3823H79.3321ZM101.376 86V64.04H105.707V69.3877L105.178 68.6963C105.449 67.9643 105.809 67.3001 106.256 66.7037C106.717 66.0937 107.266 65.5921 107.903 65.199C108.445 64.833 109.042 64.5483 109.692 64.345C110.357 64.1281 111.034 63.9993 111.726 63.9587C112.417 63.9044 113.088 63.9316 113.739 64.04V68.615C113.088 68.4252 112.336 68.3642 111.482 68.432C110.641 68.4998 109.882 68.737 109.204 69.1437C108.527 69.5097 107.971 69.9773 107.537 70.5467C107.117 71.116 106.805 71.7667 106.602 72.4987C106.398 73.2171 106.297 73.9966 106.297 74.837V86H101.376ZM130.49 86C129.039 86.2711 127.616 86.3863 126.22 86.3457C124.837 86.3186 123.597 86.0678 122.499 85.5933C121.401 85.1053 120.567 84.3394 119.998 83.2957C119.496 82.3468 119.232 81.3776 119.205 80.388C119.178 79.3984 119.164 78.2801 119.164 77.033V57.94H124.044V76.7483C124.044 77.6294 124.051 78.4021 124.064 79.0663C124.092 79.7306 124.234 80.2728 124.491 80.693C124.979 81.5063 125.759 81.9604 126.83 82.0553C127.901 82.1502 129.121 82.096 130.49 81.8927V86ZM115.179 67.883V64.04H130.49V67.883H115.179ZM135.619 60.7053V56.2117H140.519V60.7053H135.619ZM135.619 86V64.04H140.519V86H135.619ZM155.089 86.61C152.378 86.61 150.175 86 148.48 84.78C146.786 83.56 145.756 81.8452 145.39 79.6357L150.392 78.863C150.649 79.9474 151.219 80.8014 152.1 81.425C152.981 82.0486 154.092 82.3603 155.434 82.3603C156.614 82.3603 157.522 82.1299 158.159 81.669C158.81 81.1946 159.135 80.5507 159.135 79.7373C159.135 79.2358 159.013 78.8359 158.769 78.5377C158.539 78.2259 158.023 77.9277 157.224 77.643C156.424 77.3583 155.197 76.9991 153.543 76.5653C151.7 76.0773 150.236 75.5554 149.151 74.9997C148.067 74.4303 147.287 73.7593 146.813 72.9867C146.339 72.214 146.101 71.2787 146.101 70.1807C146.101 68.8116 146.461 67.6187 147.179 66.602C147.897 65.5853 148.901 64.8059 150.188 64.2637C151.476 63.7079 152.994 63.43 154.743 63.43C156.451 63.43 157.962 63.6943 159.277 64.223C160.606 64.7517 161.677 65.504 162.49 66.48C163.303 67.456 163.805 68.6014 163.995 69.9163L158.993 70.811C158.871 69.8757 158.444 69.1369 157.712 68.5947C156.993 68.0524 156.031 67.7474 154.824 67.6797C153.672 67.6119 152.744 67.7881 152.039 68.2083C151.334 68.615 150.981 69.1911 150.981 69.9367C150.981 70.3569 151.124 70.7161 151.408 71.0143C151.693 71.3126 152.262 71.6108 153.116 71.909C153.984 72.2072 155.272 72.5732 156.98 73.007C158.728 73.4543 160.125 73.9694 161.168 74.5523C162.226 75.1217 162.985 75.8062 163.446 76.606C163.92 77.4058 164.157 78.375 164.157 79.5137C164.157 81.7232 163.351 83.4583 161.738 84.719C160.138 85.9797 157.922 86.61 155.089 86.61ZM169.018 60.7053V56.2117H173.918V60.7053H169.018ZM169.018 86V64.04H173.918V86H169.018ZM195.198 86V75.4267C195.198 74.7353 195.15 73.9694 195.055 73.129C194.961 72.2886 194.737 71.482 194.384 70.7093C194.046 69.9231 193.53 69.2792 192.839 68.7777C192.161 68.2761 191.24 68.0253 190.074 68.0253C189.45 68.0253 188.833 68.127 188.223 68.3303C187.613 68.5337 187.058 68.8861 186.556 69.3877C186.068 69.8757 185.675 70.5534 185.377 71.421C185.079 72.275 184.929 73.373 184.929 74.715L182.022 73.4747C182.022 71.604 182.381 69.9096 183.099 68.3913C183.831 66.8731 184.902 65.6667 186.312 64.772C187.722 63.8638 189.457 63.4097 191.517 63.4097C193.144 63.4097 194.486 63.6808 195.543 64.223C196.601 64.7652 197.441 65.4566 198.065 66.297C198.688 67.1374 199.149 68.0321 199.447 68.981C199.746 69.9299 199.935 70.8313 200.017 71.6853C200.112 72.5258 200.159 73.2103 200.159 73.739V86H195.198ZM179.968 86V64.04H184.34V70.8517H184.929V86H179.968ZM214.696 96.37C213.476 96.37 212.304 96.1802 211.179 95.8007C210.067 95.4211 209.064 94.8721 208.169 94.1537C207.275 93.4488 206.543 92.5948 205.973 91.5917L210.487 89.355C210.908 90.1548 211.497 90.7444 212.256 91.124C213.029 91.5171 213.849 91.7137 214.717 91.7137C215.733 91.7137 216.642 91.5307 217.441 91.1647C218.241 90.8122 218.858 90.2836 219.292 89.5787C219.739 88.8873 219.949 88.0198 219.922 86.976V80.7337H220.532V64.04H224.822V87.0573C224.822 87.6131 224.795 88.1418 224.741 88.6433C224.7 89.1584 224.626 89.66 224.517 90.148C224.192 91.5713 223.569 92.7371 222.647 93.6453C221.725 94.5671 220.58 95.2517 219.21 95.699C217.855 96.1463 216.35 96.37 214.696 96.37ZM214.269 86.61C212.25 86.61 210.487 86.1017 208.983 85.085C207.478 84.0683 206.312 82.6857 205.485 80.937C204.659 79.1883 204.245 77.216 204.245 75.02C204.245 72.7969 204.659 70.8178 205.485 69.0827C206.326 67.334 207.512 65.9581 209.044 64.955C210.576 63.9383 212.378 63.43 214.452 63.43C216.54 63.43 218.289 63.9383 219.698 64.955C221.122 65.9581 222.199 67.334 222.931 69.0827C223.663 70.8313 224.029 72.8104 224.029 75.02C224.029 77.2024 223.663 79.1748 222.931 80.937C222.199 82.6857 221.108 84.0683 219.658 85.085C218.207 86.1017 216.411 86.61 214.269 86.61ZM215.022 82.218C216.337 82.218 217.394 81.9198 218.194 81.3233C219.007 80.7133 219.597 79.8661 219.963 78.7817C220.342 77.6972 220.532 76.4433 220.532 75.02C220.532 73.5831 220.342 72.3292 219.963 71.2583C219.597 70.1739 219.021 69.3334 218.234 68.737C217.448 68.127 216.432 67.822 215.184 67.822C213.87 67.822 212.785 68.1473 211.931 68.798C211.077 69.4351 210.447 70.3027 210.04 71.4007C209.633 72.4851 209.43 73.6916 209.43 75.02C209.43 76.362 209.627 77.582 210.02 78.68C210.426 79.7644 211.043 80.6252 211.87 81.2623C212.697 81.8994 213.748 82.218 215.022 82.218Z" fill="black"/>
</svg>
