<svg width="159" height="87" viewBox="0 0 159 87" fill="none" xmlns="http://www.w3.org/2000/svg">
<path d="M6.49733 31.292C6.294 31.3327 6.09067 31.414 6.09067 31.658C6.05 32.4307 6.00933 33.2847 5.64333 34.0573C5.60267 34.1387 5.64333 34.22 5.684 34.3013C5.684 34.6267 5.52133 34.8707 5.39933 34.8707C5.15533 34.8707 4.99267 34.6673 4.83 34.4233C4.586 33.7727 4.464 33.122 4.62667 32.4307C4.99267 30.9667 5.27733 29.462 5.64333 28.0387L5.84667 27.3067C6.05 26.2087 6.70067 22.7113 7.026 21.5727C7.026 21.288 7.148 21.2067 7.22933 20.9627C7.31067 20.8813 7.43267 20.7593 7.392 20.7593C7.148 20.19 7.514 19.7427 7.67667 19.1733C7.83933 18.1567 8.08333 17.14 8.32733 16.042C8.368 15.9607 8.368 15.8793 8.44933 15.7573C8.612 15.4727 8.81533 15.2287 8.81533 14.9033C8.89667 14.578 8.81533 14.334 8.89667 14.0087L9.42533 12.1787C9.588 11.2433 9.79133 10.308 9.99467 9.37267C10.076 8.844 10.2793 8.31533 10.4013 7.78667C10.4827 7.58333 10.6453 7.42067 10.8487 7.21733C10.7673 7.09533 10.6453 6.93267 10.5233 6.85133C10.4827 6.68867 10.4013 6.48533 10.32 6.36333C9.99467 6.36333 9.62867 6.282 9.42533 6.404C8.49 6.56667 7.636 6.404 6.70067 6.526C6.61933 6.36333 6.49733 6.11933 6.294 5.916C5.84667 6.56667 5.84667 6.526 5.318 6.72933C4.78933 6.93267 4.22 7.09533 3.56933 6.93267C3.40667 6.81067 3.40667 6.526 3.52867 6.36333C3.56933 6.11933 3.854 6.038 3.52867 5.83467C3.122 5.83467 3.04067 6.44467 2.47133 6.282C2.34933 6.038 2.47133 5.87533 2.47133 5.672C2.55267 5.38733 2.43067 5.10267 2.146 4.85867C1.902 4.53333 1.94267 4.16733 2.10533 3.842C2.59333 3.19133 3.122 2.66267 4.05733 2.744L4.464 3.39467L4.952 2.58133C5.196 2.58133 5.39933 2.622 5.684 2.58133L6.172 2.378C6.66 2.21533 7.026 2.378 7.392 2.33733C7.55467 2.33733 7.758 2.5 7.96133 2.70333C8.53067 2.05267 9.38467 2.29667 10.1573 2.134C10.5233 2.256 10.93 2.012 11.296 2.05267C11.7433 2.134 12.15 2.17467 12.4347 2.012C12.76 1.89 13.2887 2.256 13.5327 1.89L14.5493 1.97133C14.5493 2.17467 14.4273 2.256 14.3867 2.378C14.4273 2.5 14.5493 2.66267 14.6307 2.66267C14.834 2.66267 14.834 2.378 14.8747 2.17467C14.8747 2.012 14.712 1.93067 14.59 1.97133C14.6307 1.93067 14.712 1.80867 14.712 1.80867L17.4773 1.36133C17.64 1.32067 17.762 1.28 17.9247 1.32067C18.2907 1.402 18.6973 1.32067 19.0633 1.11733C19.3073 1.036 19.6733 1.036 19.836 1.32067C19.8767 1.36133 20.08 1.23933 20.202 1.11733L20.7713 1.60533C20.8527 1.48333 20.934 1.44267 20.934 1.36133C20.934 0.832668 21.178 0.710667 21.6253 0.792C21.422 1.28 21.4627 1.36133 21.8693 1.48333C22.0727 1.56467 22.1947 1.60533 22.2353 1.84933C22.2353 1.97133 22.52 2.05267 22.764 2.17467C22.8047 1.524 22.8047 1.48333 22.4793 1.28C22.1947 1.11733 21.91 0.954667 21.6253 0.792C22.2353 0.466668 22.3573 0.466668 23.0893 0.629333C23.2927 0.670001 23.496 0.588667 23.74 0.588667C24.1467 0.548 24.472 0.629333 24.6753 1.07667C24.6753 1.158 24.5533 1.28 24.5127 1.402C25.0413 1.524 25.1633 1.97133 25.2447 2.378C25.4073 2.744 25.3667 3.15067 25.1227 3.39467C25.0007 3.55733 24.9193 3.76067 24.838 4.00467C24.2687 4.208 23.618 4.53333 22.9267 4.61467L23.13 4.16733C23.13 4.12667 23.0487 4.00467 23.008 4.00467C22.764 4.086 22.4793 4.12667 22.2353 4.208C22.2353 4.41133 22.2353 4.574 22.2353 4.77733C21.9913 4.85867 21.7473 4.98067 21.4627 5.02133C20.934 5.14333 20.3647 5.22467 19.7547 5.38733C19.47 5.38733 19.47 5.38733 18.616 4.89933C18.372 4.77733 18.0467 4.65533 17.8433 4.53333C17.5587 5.794 16.6233 5.794 15.7287 5.83467C15.688 5.672 15.688 5.63133 15.688 5.55L15.566 5.22467C15.444 5.14333 15.322 5.22467 15.2 5.46867C15.1593 5.59067 15.1593 5.83467 15.078 5.916C14.5087 6.93267 14.346 8.112 14.1427 9.25067C13.8987 10.308 13.7767 11.406 13.4107 12.382C13.0853 13.602 12.882 14.9033 12.516 16.042C12.3533 16.652 12.15 17.2213 12.0687 17.7907C11.8653 19.4987 10.7673 23.4027 10.5233 25.1107C10.4013 25.6393 10.32 26.2493 9.99467 26.6967C9.954 26.778 9.87267 26.8593 9.91333 26.9813C9.91333 27.754 9.66933 28.4453 9.466 29.096C9.14067 30.4787 8.856 31.78 8.69333 33.1627C8.49 33.9353 8.20533 34.586 7.59533 35.074C7.35133 35.2773 7.026 35.3993 6.66 35.3993C6.538 35.3993 6.33467 35.2773 6.33467 35.074C6.33467 34.6267 6.25333 34.1387 6.25333 33.6913C6.37533 33.0407 6.37533 32.3493 6.57867 31.78C6.66 31.658 6.57867 31.4953 6.538 31.3327C6.66 31.3327 6.86333 31.2513 6.98533 31.292C7.10733 31.292 7.27 31.3327 7.31067 31.1293C7.31067 31.048 7.22933 30.8853 7.18867 30.8447C6.904 30.6007 6.94467 30.3973 6.98533 30.072C6.98533 29.706 7.18867 29.462 6.94467 29.0553C6.49733 29.706 6.294 30.4787 6.49733 31.292ZM7.35133 28.0387L7.67667 27.266C8.57133 23.606 9.87267 17.5467 10.7673 13.8867C11.2553 11.7313 11.784 9.576 12.2313 7.42067C12.3127 7.17667 12.3533 6.93267 12.3533 6.72933C12.3127 6.56667 12.15 6.48533 12.1093 6.44467C12.0687 6.44467 11.9467 6.48533 11.906 6.56667L11.4993 8.64067C11.4587 9.088 11.4587 9.49467 11.0927 9.73867C11.0113 9.86067 10.93 10.0233 11.052 10.1453C11.2147 10.5113 11.0113 10.8367 10.93 11.0807C10.8487 11.3653 10.564 11.6093 10.4827 11.8533C10.4013 12.1787 10.686 12.504 10.4013 12.7887C10.32 14.0087 9.91333 15.066 9.71 16.286C9.66933 16.7333 9.588 17.2213 9.38467 17.628C9.1 18.482 8.93733 19.2953 8.81533 20.2307C8.734 20.4747 8.734 20.8407 8.57133 21.044C8.16467 21.4913 7.758 24.3787 7.71733 24.948C7.67667 25.2733 7.636 25.558 7.55467 25.8427C7.392 26.412 7.31067 26.9407 7.148 27.4693C7.148 27.6727 7.10733 27.8353 7.35133 28.0387ZM19.836 3.842L20.1207 2.90667C19.9173 2.70333 19.836 2.66267 19.6733 2.70333C19.5107 2.78467 19.47 2.94733 19.47 3.15067C19.5107 3.31333 19.47 3.598 19.592 3.80133C19.592 3.842 19.6327 3.964 19.714 4.00467C19.7547 4.00467 19.836 3.964 19.836 3.842ZM2.512 4.89933C3.08133 5.10267 3.08133 5.10267 3.56933 4.28933C3.52867 4.24867 3.44733 4.208 3.40667 4.24867C3.16267 4.41133 2.91867 4.574 2.512 4.89933ZM10.1573 2.78467C10.0353 2.82533 9.954 2.90667 9.79133 3.02867L9.71 3.39467C9.71 3.476 9.75067 3.51667 9.79133 3.55733C10.076 3.63867 10.198 3.51667 10.32 3.31333C10.4013 3.232 10.4013 3.11 10.2793 2.90667C10.2793 2.866 10.2387 2.82533 10.1573 2.78467ZM16.8267 3.598L17.3147 3.11C17.1927 2.94733 17.0707 2.82533 17.03 2.82533C16.8267 2.866 16.664 3.11 16.664 3.27267C16.6233 3.354 16.664 3.476 16.7047 3.55733C16.7453 3.55733 16.8673 3.63867 16.8267 3.598ZM12.8413 13.5613L12.7193 13.3173C12.638 13.3173 12.4753 13.3173 12.4753 13.358C12.4347 13.5207 12.394 13.6833 12.3533 13.8053C12.3533 13.8867 12.4347 13.9273 12.4753 13.968C12.4753 14.0087 12.5567 13.968 12.5567 13.9273C12.7193 13.8053 12.8413 13.6833 12.8413 13.5613ZM19.7496 17.7907C20.1562 17.8313 19.9529 18.6447 20.5629 18.2787C20.8476 18.726 20.4409 19.092 20.5629 19.5393C20.6849 19.4173 20.8069 19.3767 20.9289 19.2953C21.0102 19.6207 21.0916 19.8647 20.9289 20.2307C19.9122 22.508 18.1229 28.8113 18.1229 31.902C17.0656 32.7967 17.4722 32.3087 16.4962 32.3087H16.4149C15.0322 32.9593 15.4796 30.7227 14.7882 31.3327C14.4222 30.438 14.3409 29.5027 14.5036 28.608C14.8696 26.9 15.1136 25.1513 15.7642 23.484L17.1469 19.1733C19.8309 14.1307 18.2449 20.0273 19.7496 17.7907ZM18.6109 14.2527C18.4076 13.8053 19.0582 13.5207 18.8549 13.114C18.4482 12.3007 21.2949 10.8773 21.7016 12.504C21.8642 12.626 21.9049 12.8293 21.9049 13.0733C21.9862 14.09 21.2542 15.92 20.5629 15.432C20.2376 15.188 19.0176 14.944 18.6109 14.2527ZM16.2116 24.8667L16.5369 25.558C15.3576 29.1773 17.5942 25.7207 17.1062 24.6633C17.1062 24.6227 17.0249 24.582 16.9842 24.46C16.8216 24.826 16.4149 24.6227 16.2116 24.8667ZM21.2949 12.9513C20.9696 13.358 20.9696 13.3987 21.0916 13.48C21.1322 13.602 21.2542 13.724 21.4169 13.602C21.4169 13.3987 21.7016 13.0733 21.2949 12.9513ZM33.8898 17.3433L33.5645 17.994C33.7272 17.994 33.9305 17.994 34.1338 17.9533C34.3778 17.872 34.4998 17.628 34.7032 17.506C35.0285 17.262 35.3132 17.3027 35.5572 17.5467C35.7198 17.7907 36.0045 17.994 36.1672 18.238L35.7198 19.0513C36.0045 19.1733 36.1672 19.3767 36.4112 19.5393C36.2078 19.7833 36.0452 19.946 35.8012 20.068C35.7198 20.2713 35.7198 20.5153 35.5978 20.6373C35.3945 20.8813 35.1912 21.166 34.8658 21.288C33.4425 22.02 32.2632 23.0367 30.7585 23.6467C30.7178 23.728 30.5958 23.8093 30.5552 23.85C30.4738 24.1753 30.5958 24.338 30.7178 24.5413C30.9618 24.8667 31.2465 25.07 31.4905 25.3953C31.6532 25.5173 31.7345 25.7207 31.6532 26.046C31.6125 26.0867 31.7752 26.29 31.8565 26.29C32.2225 26.168 32.3445 26.29 32.5885 26.4933C33.2392 27.022 33.8898 27.632 34.6218 28.0387C35.0285 28.2013 35.1912 28.5267 35.2725 28.852C35.3945 29.2587 35.2725 29.5027 34.9065 29.7873C34.5812 30.072 34.5812 30.194 34.9065 30.7227C34.7032 31.048 34.2558 31.1293 34.1745 31.5767C34.1338 31.8207 33.8898 31.8613 33.6865 31.902C33.0765 31.9427 32.6292 31.536 32.2225 31.2513C32.2632 30.8853 32.0192 30.8853 31.7345 30.8853C31.5312 30.8853 31.3278 30.8447 31.1652 30.7227C30.7585 30.3973 30.3925 30.072 29.9858 29.706C29.8232 29.462 29.8232 28.9333 29.2538 29.1367C29.1725 29.1773 29.0098 28.9333 28.9285 28.8113C28.6845 28.5267 28.3592 28.1607 28.1965 27.7947C28.0745 27.5507 27.9525 27.4287 27.6272 27.3067C27.1798 27.022 26.9765 26.6153 26.5698 26.2493C26.4478 26.0867 26.2038 26.0867 26.1225 26.29C25.9192 27.1847 25.7972 28.0793 25.6345 29.0553C25.6345 29.1367 25.6752 29.1773 25.6752 29.2587C25.9192 29.95 25.9192 29.95 25.6345 30.6413L26.0005 30.926C26.0005 31.048 26.0412 31.0887 26.0412 31.0887C25.7565 31.2513 25.9192 31.8207 25.3905 31.8207C25.1872 31.8207 24.9432 31.902 24.8618 32.1053C24.4958 32.5933 24.0078 32.5933 23.3572 32.5527C23.3572 32.3493 23.3165 32.024 23.2758 31.78C23.1945 31.536 23.0318 31.3733 22.8692 31.292C22.6658 31.0887 22.3812 31.17 22.1778 31.292C21.7305 30.7227 21.6492 30.1127 21.6085 29.4213C21.5272 27.9167 21.8525 26.4527 22.0558 24.948C22.1372 24.2973 22.3812 23.6873 22.4625 22.9553C22.5438 22.264 22.9505 21.6947 23.0318 21.0033C23.1538 20.312 23.3978 19.6613 23.6012 19.0513C23.9672 17.3433 24.6178 15.798 25.3092 14.212C25.4312 13.7647 25.7565 13.5207 25.8378 13.114C26.1632 11.5687 27.1392 10.3487 27.7492 8.88467C27.8712 8.55933 28.0338 8.31533 28.3185 8.234C28.3998 8.19333 28.4405 7.99 28.5218 7.90867C28.6032 7.78667 28.6032 7.66467 28.6032 7.54267C28.7252 7.17667 28.8472 6.77 29.1318 6.48533C29.5792 6.16 29.9045 5.916 30.4738 5.916C30.5145 6.36333 30.2705 6.648 29.9858 6.81067C29.8232 6.93267 29.7012 7.05467 29.7825 7.21733C29.8638 7.54267 29.7825 7.78667 29.6605 7.99C29.4572 8.39667 29.1725 8.80333 29.0505 9.25067C29.0098 9.29133 29.0912 9.37267 29.0912 9.53533C29.2132 9.49467 29.2945 9.49467 29.3758 9.37267L30.1078 8.19333L31.2465 6.282C31.3685 6.20067 31.4905 6.16 31.6125 6.16C31.7345 6.16 31.8972 6.20067 31.8972 6.282C31.7752 6.72933 32.2632 6.85133 32.4258 7.17667C32.3852 7.58333 32.1412 7.90867 31.9378 8.27467C31.8565 8.356 31.8565 8.55933 31.7752 8.68133C31.7752 8.722 31.8565 8.80333 31.8972 8.80333C31.9378 8.844 31.9785 8.844 32.0192 8.80333C32.2632 8.55933 32.3852 8.31533 32.7105 7.99C32.6292 8.844 32.3038 9.37267 31.8972 9.942C31.6125 10.43 31.2465 10.7553 31.2058 11.2027C31.1652 11.528 30.9212 11.894 30.6365 12.0973C30.5958 12.3007 30.5958 12.504 30.5145 12.748C29.4572 14.7407 28.6438 17.0587 27.7898 19.2547C27.6272 19.4987 27.5865 19.946 27.4645 20.19C27.6272 20.434 27.8712 20.4747 27.9932 20.434L29.0912 19.9053L32.2225 17.9533C32.5885 17.7093 32.9952 17.384 33.4425 17.3027C33.6052 17.3027 33.7272 17.3433 33.8898 17.3433ZM27.1392 13.7647C26.5292 14.578 26.2852 15.432 25.8785 16.286C25.8378 16.9367 25.4312 17.5467 25.2685 18.1973C25.1872 18.482 25.0652 18.6853 24.9838 18.8887C24.8618 19.6207 24.6585 20.312 24.4958 21.0033V21.166L24.6585 21.288C24.6992 21.288 24.7398 21.2473 24.8212 21.2067C24.8618 21.0033 24.9432 20.6373 25.0652 20.4747C25.1872 20.19 25.3905 20.068 25.5125 19.7833C25.5532 19.7427 25.3905 19.6207 25.3905 19.4987C25.4312 19.214 25.4718 18.97 25.5532 18.6853C25.9598 17.5467 26.3665 16.4893 26.8138 15.3507C27.0172 14.8627 27.1798 14.3747 27.2205 13.846C28.0338 12.6667 28.2778 11.894 28.1965 11.2433C27.5052 12.3413 27.3832 12.626 27.1392 13.7647ZM33.5645 17.994L33.8898 18.5633C33.7272 18.7667 33.5645 18.97 33.3205 19.0513C33.1985 19.1733 32.9952 19.092 32.8732 19.0107C32.8325 18.848 32.7918 18.6853 32.8732 18.5227L33.5645 17.994ZM30.5958 12.0567C30.5958 11.894 30.5552 11.7313 30.4738 11.6907C30.3925 11.6907 30.1485 11.772 30.1078 11.8533C29.9858 12.0567 29.8232 12.2193 29.9858 12.504C30.1485 12.3413 30.3925 12.2193 30.5958 12.0973C30.5958 12.0567 30.6365 12.0567 30.5958 12.0567ZM49.2456 20.2713C49.2863 20.4747 49.0423 20.556 49.205 20.678C49.6116 21.044 49.693 21.532 49.815 22.0607C49.5303 22.0607 49.327 22.0607 49.083 22.1013C49.0423 22.3047 49.0016 22.5487 48.9203 22.7113C48.8796 22.752 48.7983 22.752 48.7576 22.8333C48.7576 22.752 48.717 22.6707 48.6763 22.63C48.6356 22.5487 48.595 22.5487 48.5543 22.508C48.0663 22.5487 47.863 22.9553 47.619 23.24C46.9276 23.24 46.3176 23.24 45.6263 23.2807C45.179 23.3213 44.7723 22.996 44.325 23.1993C43.593 23.0367 42.861 23.0773 42.129 23.1587C42.0476 23.1993 41.9663 23.0773 41.885 23.0367C41.8443 22.6707 42.2916 22.752 42.3323 22.508C42.251 22.4673 42.251 22.3453 42.2103 22.3453C41.9256 22.2233 41.5596 22.1013 41.275 22.0607C41.1936 22.02 41.031 22.0607 40.9903 22.0607C40.909 22.4267 41.2343 22.508 41.3563 22.7113C41.4783 22.9147 41.397 23.1587 41.153 23.24C41.031 23.2807 40.787 23.2807 40.543 23.3213C40.5836 22.9553 40.177 22.752 40.3396 22.4673C40.421 22.142 40.543 21.9387 40.665 21.5727H40.055C39.933 21.5727 39.811 21.6947 39.7703 21.8167C39.7703 21.898 39.933 21.9793 39.9736 22.0607C39.9736 22.1013 40.0143 22.1827 40.0143 22.2233C39.9736 22.264 39.8516 22.3453 39.811 22.3453C39.567 22.264 39.3636 22.2233 39.323 21.9793C39.201 21.6947 39.201 21.4507 39.1603 21.166C39.2823 21.0033 39.445 20.8407 39.567 20.6373C39.6483 20.678 39.7296 20.7593 39.811 20.7593C39.8516 20.8 40.0143 20.8 40.0143 20.8C40.055 20.7187 40.055 20.5967 40.055 20.5153C40.055 20.3933 39.933 20.2307 39.8516 20.1493L40.665 19.7833C40.665 19.7833 40.787 19.7833 40.787 19.824C41.031 20.19 41.3156 20.2713 41.763 20.1493L41.519 19.824C41.519 19.6613 41.5596 19.458 41.6816 19.458C42.0476 19.4173 42.4543 19.336 42.7796 19.4173C43.1863 19.58 43.593 19.3767 43.959 19.3767C44.325 19.4173 44.691 19.458 45.0163 19.5393C45.1383 19.5393 45.2603 19.58 45.3823 19.6207C45.6263 19.6613 45.8703 19.7427 46.1143 19.6207C46.4803 19.4173 46.887 19.458 47.2936 19.6613C47.497 19.702 47.7003 19.824 47.9036 19.702C48.107 19.6207 48.2696 19.702 48.4323 19.7833C48.717 19.946 49.0016 20.1493 49.2456 20.2713ZM46.7243 21.898V21.4507L47.131 21.288C47.253 21.2473 47.375 21.166 47.497 21.0847C47.741 20.9627 47.741 20.5967 47.497 20.312C47.4563 20.2713 47.375 20.3527 47.2936 20.3527C47.3343 20.5967 47.2123 20.6373 47.009 20.678C46.8056 20.7593 46.6836 20.9627 46.4803 21.044C46.1143 21.166 46.033 21.288 46.3176 21.5727C46.3583 21.6947 46.4803 21.898 46.7243 21.898ZM55.623 31.292C55.4196 31.3327 55.2163 31.414 55.2163 31.658C55.1756 32.4307 55.135 33.2847 54.769 34.0573C54.7283 34.1387 54.769 34.22 54.8096 34.3013C54.8096 34.6267 54.647 34.8707 54.525 34.8707C54.281 34.8707 54.1183 34.6673 53.9556 34.4233C53.7116 33.7727 53.5896 33.122 53.7523 32.4307C54.1183 30.9667 54.403 29.462 54.769 28.0387L54.9723 27.3067C55.1756 26.2087 55.8263 22.7113 56.1516 21.5727C56.1516 21.288 56.2736 21.2067 56.355 20.9627C56.4363 20.8813 56.5583 20.7593 56.5176 20.7593C56.2736 20.19 56.6396 19.7427 56.8023 19.1733C56.965 18.1567 57.209 17.14 57.453 16.042C57.4936 15.9607 57.4936 15.8793 57.575 15.7573C57.7376 15.4727 57.941 15.2287 57.941 14.9033C58.0223 14.578 57.941 14.334 58.0223 14.0087L58.551 12.1787C58.7136 11.2433 58.917 10.308 59.1203 9.37267C59.2016 8.844 59.405 8.31533 59.527 7.78667C59.6083 7.58333 59.771 7.42067 59.9743 7.21733C59.893 7.09533 59.771 6.93267 59.649 6.85133C59.6083 6.68867 59.527 6.48533 59.4456 6.36333C59.1203 6.36333 58.7543 6.282 58.551 6.404C57.6156 6.56667 56.7616 6.404 55.8263 6.526C55.745 6.36333 55.623 6.11933 55.4196 5.916C54.9723 6.56667 54.9723 6.526 54.4436 6.72933C53.915 6.93267 53.3456 7.09533 52.695 6.93267C52.5323 6.81067 52.5323 6.526 52.6543 6.36333C52.695 6.11933 52.9796 6.038 52.6543 5.83467C52.2476 5.83467 52.1663 6.44467 51.597 6.282C51.475 6.038 51.597 5.87533 51.597 5.672C51.6783 5.38733 51.5563 5.10267 51.2716 4.85867C51.0276 4.53333 51.0683 4.16733 51.231 3.842C51.719 3.19133 52.2476 2.66267 53.183 2.744L53.5896 3.39467L54.0776 2.58133C54.3216 2.58133 54.525 2.622 54.8096 2.58133L55.2976 2.378C55.7856 2.21533 56.1516 2.378 56.5176 2.33733C56.6803 2.33733 56.8836 2.5 57.087 2.70333C57.6563 2.05267 58.5103 2.29667 59.283 2.134C59.649 2.256 60.0556 2.012 60.4216 2.05267C60.869 2.134 61.2756 2.17467 61.5603 2.012C61.8856 1.89 62.4143 2.256 62.6583 1.89L63.675 1.97133C63.675 2.17467 63.553 2.256 63.5123 2.378C63.553 2.5 63.675 2.66267 63.7563 2.66267C63.9596 2.66267 63.9596 2.378 64.0003 2.17467C64.0003 2.012 63.8376 1.93067 63.7156 1.97133C63.7563 1.93067 63.8376 1.80867 63.8376 1.80867L66.603 1.36133C66.7656 1.32067 66.8876 1.28 67.0503 1.32067C67.4163 1.402 67.823 1.32067 68.189 1.11733C68.433 1.036 68.799 1.036 68.9616 1.32067C69.0023 1.36133 69.2056 1.23933 69.3276 1.11733L69.897 1.60533C69.9783 1.48333 70.0596 1.44267 70.0596 1.36133C70.0596 0.832668 70.3036 0.710667 70.751 0.792C70.5476 1.28 70.5883 1.36133 70.995 1.48333C71.1983 1.56467 71.3203 1.60533 71.361 1.84933C71.361 1.97133 71.6456 2.05267 71.8896 2.17467C71.9303 1.524 71.9303 1.48333 71.605 1.28C71.3203 1.11733 71.0356 0.954667 70.751 0.792C71.361 0.466668 71.483 0.466668 72.215 0.629333C72.4183 0.670001 72.6216 0.588667 72.8656 0.588667C73.2723 0.548 73.5976 0.629333 73.801 1.07667C73.801 1.158 73.679 1.28 73.6383 1.402C74.167 1.524 74.289 1.97133 74.3703 2.378C74.533 2.744 74.4923 3.15067 74.2483 3.39467C74.1263 3.55733 74.045 3.76067 73.9636 4.00467C73.3943 4.208 72.7436 4.53333 72.0523 4.61467L72.2556 4.16733C72.2556 4.12667 72.1743 4.00467 72.1336 4.00467C71.8896 4.086 71.605 4.12667 71.361 4.208C71.361 4.41133 71.361 4.574 71.361 4.77733C71.117 4.85867 70.873 4.98067 70.5883 5.02133C70.0596 5.14333 69.4903 5.22467 68.8803 5.38733C68.5956 5.38733 68.5956 5.38733 67.7416 4.89933C67.4976 4.77733 67.1723 4.65533 66.969 4.53333C66.6843 5.794 65.749 5.794 64.8543 5.83467C64.8136 5.672 64.8136 5.63133 64.8136 5.55L64.6916 5.22467C64.5696 5.14333 64.4476 5.22467 64.3256 5.46867C64.285 5.59067 64.285 5.83467 64.2036 5.916C63.6343 6.93267 63.4716 8.112 63.2683 9.25067C63.0243 10.308 62.9023 11.406 62.5363 12.382C62.211 13.602 62.0076 14.9033 61.6416 16.042C61.479 16.652 61.2756 17.2213 61.1943 17.7907C60.991 19.4987 59.893 23.4027 59.649 25.1107C59.527 25.6393 59.4456 26.2493 59.1203 26.6967C59.0796 26.778 58.9983 26.8593 59.039 26.9813C59.039 27.754 58.795 28.4453 58.5916 29.096C58.2663 30.4787 57.9816 31.78 57.819 33.1627C57.6156 33.9353 57.331 34.586 56.721 35.074C56.477 35.2773 56.1516 35.3993 55.7856 35.3993C55.6636 35.3993 55.4603 35.2773 55.4603 35.074C55.4603 34.6267 55.379 34.1387 55.379 33.6913C55.501 33.0407 55.501 32.3493 55.7043 31.78C55.7856 31.658 55.7043 31.4953 55.6636 31.3327C55.7856 31.3327 55.989 31.2513 56.111 31.292C56.233 31.292 56.3956 31.3327 56.4363 31.1293C56.4363 31.048 56.355 30.8853 56.3143 30.8447C56.0296 30.6007 56.0703 30.3973 56.111 30.072C56.111 29.706 56.3143 29.462 56.0703 29.0553C55.623 29.706 55.4196 30.4787 55.623 31.292ZM56.477 28.0387L56.8023 27.266C57.697 23.606 58.9983 17.5467 59.893 13.8867C60.381 11.7313 60.9096 9.576 61.357 7.42067C61.4383 7.17667 61.479 6.93267 61.479 6.72933C61.4383 6.56667 61.2756 6.48533 61.235 6.44467C61.1943 6.44467 61.0723 6.48533 61.0316 6.56667L60.625 8.64067C60.5843 9.088 60.5843 9.49467 60.2183 9.73867C60.137 9.86067 60.0556 10.0233 60.1776 10.1453C60.3403 10.5113 60.137 10.8367 60.0556 11.0807C59.9743 11.3653 59.6896 11.6093 59.6083 11.8533C59.527 12.1787 59.8116 12.504 59.527 12.7887C59.4456 14.0087 59.039 15.066 58.8356 16.286C58.795 16.7333 58.7136 17.2213 58.5103 17.628C58.2256 18.482 58.063 19.2953 57.941 20.2307C57.8596 20.4747 57.8596 20.8407 57.697 21.044C57.2903 21.4913 56.8836 24.3787 56.843 24.948C56.8023 25.2733 56.7616 25.558 56.6803 25.8427C56.5176 26.412 56.4363 26.9407 56.2736 27.4693C56.2736 27.6727 56.233 27.8353 56.477 28.0387ZM68.9616 3.842L69.2463 2.90667C69.043 2.70333 68.9616 2.66267 68.799 2.70333C68.6363 2.78467 68.5956 2.94733 68.5956 3.15067C68.6363 3.31333 68.5956 3.598 68.7176 3.80133C68.7176 3.842 68.7583 3.964 68.8396 4.00467C68.8803 4.00467 68.9616 3.964 68.9616 3.842ZM51.6376 4.89933C52.207 5.10267 52.207 5.10267 52.695 4.28933C52.6543 4.24867 52.573 4.208 52.5323 4.24867C52.2883 4.41133 52.0443 4.574 51.6376 4.89933ZM59.283 2.78467C59.161 2.82533 59.0796 2.90667 58.917 3.02867L58.8356 3.39467C58.8356 3.476 58.8763 3.51667 58.917 3.55733C59.2016 3.63867 59.3236 3.51667 59.4456 3.31333C59.527 3.232 59.527 3.11 59.405 2.90667C59.405 2.866 59.3643 2.82533 59.283 2.78467ZM65.9523 3.598L66.4403 3.11C66.3183 2.94733 66.1963 2.82533 66.1556 2.82533C65.9523 2.866 65.7896 3.11 65.7896 3.27267C65.749 3.354 65.7896 3.476 65.8303 3.55733C65.871 3.55733 65.993 3.63867 65.9523 3.598ZM61.967 13.5613L61.845 13.3173C61.7636 13.3173 61.601 13.3173 61.601 13.358C61.5603 13.5207 61.5196 13.6833 61.479 13.8053C61.479 13.8867 61.5603 13.9273 61.601 13.968C61.601 14.0087 61.6823 13.968 61.6823 13.9273C61.845 13.8053 61.967 13.6833 61.967 13.5613ZM76.8866 23.484C77.2119 24.1753 77.0086 24.094 76.5612 24.2973C76.6426 24.5007 76.7239 24.704 76.6426 24.9073C76.4799 25.4767 76.2359 25.924 75.9106 26.534C75.8292 26.29 75.7886 26.29 75.7886 26.2087C75.7479 26.1273 75.6666 26.0867 75.7072 26.0053C75.2192 26.29 75.2192 26.29 75.6259 26.9813C75.1786 27.998 74.4872 28.8113 73.8366 29.584C73.7552 29.7467 73.5926 29.7873 73.4706 29.8687C73.3892 29.9093 73.2266 29.95 73.1452 30.1127C73.0232 30.2753 72.7792 30.3973 72.7792 30.6007C72.5759 31.0073 72.1692 31.2513 71.8032 31.4953C71.1526 32.0647 70.4612 32.4713 69.6479 32.7967C68.7532 33.122 67.8586 33.0813 66.9232 32.9593C66.7606 32.9187 66.8012 32.4713 66.5166 32.4307C66.2319 32.39 65.9879 32.2273 65.7846 32.146C65.2559 31.9427 65.0526 31.5767 65.0932 31.0887C65.0932 30.8447 64.8899 30.8447 64.8086 30.682C64.9712 30.6413 65.1339 30.6413 65.3779 30.6007C65.1339 30.316 64.7272 30.3567 64.5239 30.1533C64.2799 29.8687 64.2799 29.5433 64.2392 29.218C64.1986 28.3233 64.0359 27.388 64.1579 26.4933C64.2799 25.5173 64.3206 24.46 64.7679 23.5247C64.9712 22.9553 65.2152 22.386 65.2559 21.8573C65.2966 21.6947 65.3372 21.5727 65.4186 21.41C65.8252 20.8407 65.8252 20.1493 65.6219 19.5393C65.3779 18.6853 65.6626 17.9533 65.9879 17.14C66.1912 16.4893 66.6386 15.8793 67.1266 15.3507C67.6552 14.7407 68.2652 14.1307 68.9972 13.6833C69.4039 13.358 69.8512 13.0733 70.2986 12.9513C70.5426 12.9107 70.7052 12.8293 70.8679 12.748C71.6812 12.26 72.5352 12.1787 73.3892 12.4633C74.2432 12.6667 75.0972 12.9513 75.7886 13.5207C75.9512 13.6427 76.0732 13.7647 76.0732 13.846C76.1546 14.2933 76.6832 14.4153 76.7646 14.7407C76.8866 15.0253 77.0899 15.2693 77.1306 15.432C77.4559 16.3267 77.6592 17.262 77.7406 18.116C77.8626 19.0513 77.9032 19.946 77.7406 20.8407C77.6999 21.044 77.7406 21.288 77.7406 21.532C77.6999 21.7353 77.6999 21.9387 77.5779 22.0607C77.3339 22.3047 77.2119 22.63 77.1712 23.0367C77.1306 23.1587 76.9272 23.3213 76.8866 23.484ZM73.2672 22.386C72.9826 22.4267 72.9419 22.5893 72.9012 22.7927C72.8199 23.118 72.7386 23.24 72.4539 23.1587C72.4132 23.1587 72.3319 23.1993 72.2506 23.118C72.0066 23.0367 71.9252 23.118 71.7626 23.24C71.7219 23.362 71.5592 23.4027 71.3966 23.4433C71.1119 23.4027 70.7866 23.362 70.4612 23.2807C70.0139 23.1993 69.6072 23.118 69.1599 23.0367C68.7939 23.0367 68.6312 23.1587 68.5906 23.5247C68.5499 23.7687 68.5092 23.972 68.3466 24.1347C68.1839 24.2567 68.1839 24.3787 68.1432 24.46C68.0619 24.948 68.0619 25.436 67.9806 25.8833C67.8992 26.412 68.1839 26.9813 67.6146 27.3067C67.6146 27.3473 67.6146 27.388 67.6146 27.4287C67.9399 27.876 67.8179 28.4453 67.9806 28.9333C68.1026 29.1367 68.3059 29.218 68.5499 29.1367C69.2819 28.7707 69.8919 28.242 70.5019 27.7133C71.0306 27.2253 71.4779 26.6153 72.0066 26.1273C72.0472 26.046 72.1286 25.924 72.1692 25.8833C72.0879 25.558 72.3319 25.3547 72.4132 25.07C72.6979 24.5413 72.9826 23.972 73.2266 23.362C73.3892 23.118 73.3486 22.752 73.2672 22.386ZM73.0232 22.0607C73.3486 21.9793 73.4706 21.9793 73.5112 21.9793C73.8772 21.7353 74.0806 21.4507 74.0806 21.0847C74.1212 20.556 74.0806 20.0273 74.0806 19.5393C74.0806 18.726 73.9992 17.9533 73.7146 17.262C73.5519 16.8147 73.4299 16.408 73.0232 16.164C72.2912 16.0827 71.6812 16.4487 71.0306 16.5707C70.6646 16.6927 70.6646 17.1807 70.3799 17.4247C70.2579 17.5467 70.0546 17.6687 69.8512 17.7907C69.6886 17.994 69.6072 18.1567 69.4446 18.238C69.2819 18.6853 69.4446 19.0107 69.5259 19.4173C70.0139 19.2547 70.3799 19.458 70.7866 19.5393C71.2339 19.6207 71.6406 19.702 72.0472 19.7833C72.0472 20.068 72.0472 20.19 72.0879 20.3527C72.4946 20.5153 72.9826 20.19 73.3079 20.6373C73.4706 21.0847 73.2672 21.4913 73.0232 22.0607ZM75.1786 22.63C75.0159 22.7113 74.9752 22.7113 74.9346 22.6707C74.5279 23.5247 74.0399 24.2973 73.6739 25.1107C73.5519 25.2327 73.5926 25.4767 73.5926 25.6393C73.6332 25.7207 73.7146 25.7613 73.7146 25.802C73.7552 25.802 73.8366 25.7613 73.8772 25.7207C74.5279 24.7853 75.0159 23.8093 75.1786 22.63ZM76.6832 16.286C76.3986 16.408 76.1546 16.4487 75.9106 16.5707C75.8699 16.5707 75.7886 16.774 75.7886 16.8553C75.8292 16.9367 75.8699 17.018 75.9512 17.0587C76.2359 17.0993 76.5206 17.14 76.8052 17.1807C76.9272 17.1807 76.9679 17.018 76.8866 16.896C76.8866 16.7333 76.8459 16.5707 76.6832 16.286ZM73.0232 27.1033C73.0232 27.0627 72.9012 26.9 72.8199 26.9C72.5352 26.9 72.4539 27.0627 72.3726 27.3067C72.3726 27.3473 72.4132 27.4693 72.4539 27.4693C72.6166 27.5913 72.8199 27.51 72.9826 27.2253C72.9826 27.2253 72.9826 27.1847 73.0232 27.1033ZM69.4446 30.7633C69.4852 30.3973 69.2412 30.2347 68.9159 30.072C68.8346 30.072 68.7532 30.1533 68.7126 30.1533C68.6719 30.2347 68.6719 30.3567 68.6719 30.3567C68.9159 30.5193 69.1599 30.682 69.3632 30.8447C69.4039 30.8447 69.4039 30.804 69.4446 30.7633ZM90.9979 17.3433L90.6726 17.994C90.8352 17.994 91.0386 17.994 91.2419 17.9533C91.4859 17.872 91.6079 17.628 91.8112 17.506C92.1366 17.262 92.4212 17.3027 92.6652 17.5467C92.8279 17.7907 93.1126 17.994 93.2752 18.238L92.8279 19.0513C93.1126 19.1733 93.2752 19.3767 93.5192 19.5393C93.3159 19.7833 93.1532 19.946 92.9092 20.068C92.8279 20.2713 92.8279 20.5153 92.7059 20.6373C92.5026 20.8813 92.2992 21.166 91.9739 21.288C90.5506 22.02 89.3712 23.0367 87.8666 23.6467C87.8259 23.728 87.7039 23.8093 87.6632 23.85C87.5819 24.1753 87.7039 24.338 87.8259 24.5413C88.0699 24.8667 88.3546 25.07 88.5986 25.3953C88.7612 25.5173 88.8426 25.7207 88.7612 26.046C88.7206 26.0867 88.8832 26.29 88.9646 26.29C89.3306 26.168 89.4526 26.29 89.6966 26.4933C90.3472 27.022 90.9979 27.632 91.7299 28.0387C92.1366 28.2013 92.2992 28.5267 92.3806 28.852C92.5026 29.2587 92.3806 29.5027 92.0146 29.7873C91.6892 30.072 91.6892 30.194 92.0146 30.7227C91.8112 31.048 91.3639 31.1293 91.2826 31.5767C91.2419 31.8207 90.9979 31.8613 90.7946 31.902C90.1846 31.9427 89.7372 31.536 89.3306 31.2513C89.3712 30.8853 89.1272 30.8853 88.8426 30.8853C88.6392 30.8853 88.4359 30.8447 88.2732 30.7227C87.8666 30.3973 87.5006 30.072 87.0939 29.706C86.9312 29.462 86.9312 28.9333 86.3619 29.1367C86.2806 29.1773 86.1179 28.9333 86.0366 28.8113C85.7926 28.5267 85.4672 28.1607 85.3046 27.7947C85.1826 27.5507 85.0606 27.4287 84.7352 27.3067C84.2879 27.022 84.0846 26.6153 83.6779 26.2493C83.5559 26.0867 83.3119 26.0867 83.2306 26.29C83.0272 27.1847 82.9052 28.0793 82.7426 29.0553C82.7426 29.1367 82.7832 29.1773 82.7832 29.2587C83.0272 29.95 83.0272 29.95 82.7426 30.6413L83.1086 30.926C83.1086 31.048 83.1492 31.0887 83.1492 31.0887C82.8646 31.2513 83.0272 31.8207 82.4986 31.8207C82.2952 31.8207 82.0512 31.902 81.9699 32.1053C81.6039 32.5933 81.1159 32.5933 80.4652 32.5527C80.4652 32.3493 80.4246 32.024 80.3839 31.78C80.3026 31.536 80.1399 31.3733 79.9772 31.292C79.7739 31.0887 79.4892 31.17 79.2859 31.292C78.8386 30.7227 78.7572 30.1127 78.7166 29.4213C78.6352 27.9167 78.9606 26.4527 79.1639 24.948C79.2452 24.2973 79.4892 23.6873 79.5706 22.9553C79.6519 22.264 80.0586 21.6947 80.1399 21.0033C80.2619 20.312 80.5059 19.6613 80.7092 19.0513C81.0752 17.3433 81.7259 15.798 82.4172 14.212C82.5392 13.7647 82.8646 13.5207 82.9459 13.114C83.2712 11.5687 84.2472 10.3487 84.8572 8.88467C84.9792 8.55933 85.1419 8.31533 85.4266 8.234C85.5079 8.19333 85.5486 7.99 85.6299 7.90867C85.7112 7.78667 85.7112 7.66467 85.7112 7.54267C85.8332 7.17667 85.9552 6.77 86.2399 6.48533C86.6872 6.16 87.0126 5.916 87.5819 5.916C87.6226 6.36333 87.3786 6.648 87.0939 6.81067C86.9312 6.93267 86.8092 7.05467 86.8906 7.21733C86.9719 7.54267 86.8906 7.78667 86.7686 7.99C86.5652 8.39667 86.2806 8.80333 86.1586 9.25067C86.1179 9.29133 86.1992 9.37267 86.1992 9.53533C86.3212 9.49467 86.4026 9.49467 86.4839 9.37267L87.2159 8.19333L88.3546 6.282C88.4766 6.20067 88.5986 6.16 88.7206 6.16C88.8426 6.16 89.0052 6.20067 89.0052 6.282C88.8832 6.72933 89.3712 6.85133 89.5339 7.17667C89.4932 7.58333 89.2492 7.90867 89.0459 8.27467C88.9646 8.356 88.9646 8.55933 88.8832 8.68133C88.8832 8.722 88.9646 8.80333 89.0052 8.80333C89.0459 8.844 89.0866 8.844 89.1272 8.80333C89.3712 8.55933 89.4932 8.31533 89.8186 7.99C89.7372 8.844 89.4119 9.37267 89.0052 9.942C88.7206 10.43 88.3546 10.7553 88.3139 11.2027C88.2732 11.528 88.0292 11.894 87.7446 12.0973C87.7039 12.3007 87.7039 12.504 87.6226 12.748C86.5652 14.7407 85.7519 17.0587 84.8979 19.2547C84.7352 19.4987 84.6946 19.946 84.5726 20.19C84.7352 20.434 84.9792 20.4747 85.1012 20.434L86.1992 19.9053L89.3306 17.9533C89.6966 17.7093 90.1032 17.384 90.5506 17.3027C90.7132 17.3027 90.8352 17.3433 90.9979 17.3433ZM84.2472 13.7647C83.6372 14.578 83.3932 15.432 82.9866 16.286C82.9459 16.9367 82.5392 17.5467 82.3766 18.1973C82.2952 18.482 82.1732 18.6853 82.0919 18.8887C81.9699 19.6207 81.7666 20.312 81.6039 21.0033V21.166L81.7666 21.288C81.8072 21.288 81.8479 21.2473 81.9292 21.2067C81.9699 21.0033 82.0512 20.6373 82.1732 20.4747C82.2952 20.19 82.4986 20.068 82.6206 19.7833C82.6612 19.7427 82.4986 19.6207 82.4986 19.4987C82.5392 19.214 82.5799 18.97 82.6612 18.6853C83.0679 17.5467 83.4746 16.4893 83.9219 15.3507C84.1252 14.8627 84.2879 14.3747 84.3286 13.846C85.1419 12.6667 85.3859 11.894 85.3046 11.2433C84.6132 12.3413 84.4912 12.626 84.2472 13.7647ZM90.6726 17.994L90.9979 18.5633C90.8352 18.7667 90.6726 18.97 90.4286 19.0513C90.3066 19.1733 90.1032 19.092 89.9812 19.0107C89.9406 18.848 89.8999 18.6853 89.9812 18.5227L90.6726 17.994ZM87.7039 12.0567C87.7039 11.894 87.6632 11.7313 87.5819 11.6907C87.5006 11.6907 87.2566 11.772 87.2159 11.8533C87.0939 12.0567 86.9312 12.2193 87.0939 12.504C87.2566 12.3413 87.5006 12.2193 87.7039 12.0973C87.7039 12.0567 87.7446 12.0567 87.7039 12.0567ZM19.104 78.122C19.0227 77.878 18.982 77.634 18.9413 77.3493C18.616 77.5527 18.3313 77.6747 18.616 78C18.6973 78.0813 18.6567 78.2847 18.5753 78.4067C18.372 78.7727 17.9653 78.976 17.8027 78.854C17.5587 78.7727 17.396 78.5287 17.3553 78.2847C17.274 77.8373 17.274 77.4307 17.4367 77.024C17.4773 76.78 17.4773 76.536 17.4773 76.3327C17.4773 76.2513 17.3553 76.2107 17.2333 76.1293C17.1113 76.048 16.9893 76.2107 16.9487 76.3327C16.908 76.6173 16.8267 76.902 16.786 77.1867C16.7453 77.3087 16.7453 77.4713 16.7047 77.634C16.542 77.7153 16.3387 77.756 16.176 77.8373C16.1353 77.7967 16.054 77.756 16.054 77.6747C15.8913 76.9427 15.81 76.17 15.9727 75.4787C15.9727 74.95 16.0133 74.4213 16.054 73.8113C16.0133 73.5267 16.1353 73.242 16.2167 72.9573C16.298 72.9167 16.3387 72.7947 16.298 72.6727C16.2573 72.3067 16.298 71.8593 16.5827 71.4933C16.42 71.29 16.7047 71.2087 16.7047 70.9647C16.7453 70.8833 16.6233 70.68 16.5827 70.5173C16.5827 70.2733 16.6233 70.0293 16.9487 69.9073C17.03 69.8667 17.1113 69.7853 17.2333 69.704C17.4773 69.46 17.3553 69.1347 16.9487 69.0533C16.5827 68.9313 16.176 68.972 15.7287 69.0533C14.8747 69.2973 14.0207 69.46 13.2073 69.6227C12.8413 69.6633 12.516 69.7853 12.15 69.8667C11.8653 69.948 11.5807 69.9887 11.2147 70.0293C10.9707 70.0293 10.7673 69.9887 10.564 70.2327C10.5233 70.2327 10.442 70.2733 10.3607 70.2733C9.42533 70.314 9.30333 70.5987 8.978 71.3713C8.93733 71.5747 8.77467 71.7373 8.44933 71.778C8.32733 71.778 8.28667 71.8593 8.32733 71.9813C8.49 72.2253 8.44933 72.4287 8.32733 72.5913C8.124 72.998 8.002 73.3233 7.758 73.6893C7.758 73.7707 7.67667 73.852 7.67667 73.9333C7.59533 74.4213 7.31067 74.8687 7.06667 75.2347C6.904 75.7227 6.74133 76.1293 6.61933 76.536C6.45667 76.5767 6.33467 76.658 6.21267 76.7393C6.172 76.9833 6.538 77.2273 6.13133 77.39C6.09067 77.634 5.928 77.878 5.96867 78.122C6.00933 78.366 5.96867 78.488 5.72467 78.5693C5.60267 78.61 5.48067 78.8133 5.48067 78.854C5.44 79.342 5.03333 79.4233 4.586 79.464C4.42333 79.4233 4.22 79.2607 4.17933 79.1793C4.17933 78.9353 4.13867 78.6913 4.098 78.488C4.098 78.3253 4.05733 78.122 3.93533 78.0407C3.93533 77.9593 3.89467 77.9187 3.732 77.8373C3.732 78.122 3.69133 78.366 3.65067 78.5287C3.61 78.6913 3.52867 78.7727 3.40667 78.854C3.28467 79.0167 2.91867 79.0167 2.83733 78.854C2.512 78.3253 2.30867 77.9187 2.512 77.3087C3 76.1293 3.366 74.95 3.81333 73.8113C3.976 73.364 4.22 72.9573 4.42333 72.5507C4.586 72.3473 4.66733 72.0627 4.74867 71.7373C3.77267 71.4933 2.95933 71.9813 2.146 71.8593C2.10533 71.534 2.55267 71.412 2.30867 71.046C2.22733 71.046 2.146 71.0053 2.10533 71.0867C1.82067 71.1273 1.658 71.2493 1.45467 71.3307C1.414 71.3307 1.21067 71.29 1.21067 71.2493C1.21067 71.2087 1.21067 71.1273 1.25133 71.0053C1.33267 70.8833 1.37333 70.802 1.49533 70.68C1.414 70.6393 1.37333 70.5173 1.25133 70.3953C0.885333 70.1107 0.926 69.7447 1.21067 69.3787C1.49533 69.0127 1.82067 68.6467 2.39 68.606C3.61 68.484 4.78933 68.0773 6.05 67.874C6.57867 67.752 6.94467 67.5487 7.18867 67.0607C7.35133 66.6947 7.514 66.3287 7.758 66.044C7.92067 65.8 8.08333 65.7593 8.20533 65.5967C8.32733 65.434 8.28667 65.2307 8.368 64.9867C8.40867 64.824 8.53067 64.6207 8.69333 64.4173C9.42533 63.1973 10.1573 61.9367 10.93 60.798C11.784 59.3747 12.76 57.992 13.6547 56.65C14.7933 54.9827 16.054 53.3153 17.3553 51.7293C18.0467 50.8753 18.6973 50.062 19.47 49.2487C20.202 48.5167 20.934 47.7033 21.7067 47.012C22.276 46.5647 22.9267 46.1987 23.6587 46.0767C23.984 46.1173 24.106 46.28 24.3907 46.2393C24.838 46.158 25.1633 46.3613 25.448 46.646C25.57 46.768 25.7327 47.012 25.9767 47.134C26.0173 47.622 26.424 48.0693 26.302 48.598C26.18 48.8827 26.2207 49.208 26.18 49.452C25.8547 49.696 26.18 49.9807 25.8953 50.306C25.8547 50.428 25.8547 50.55 25.8547 50.7127C25.936 50.794 25.8953 50.8753 25.8953 50.916C25.692 51.0787 25.4887 51.2007 25.448 51.404C25.3667 51.526 25.5293 51.77 25.57 51.9327C25.57 51.9733 25.57 52.014 25.57 52.0547C25.3667 52.746 25.204 53.478 24.96 54.1693C24.7973 54.7793 24.5533 55.3487 24.3907 55.918C24.3093 56.4467 23.9027 56.8533 23.862 57.4227C23.862 57.9513 23.618 58.358 23.4553 58.846C23.2927 59.2933 23.1707 59.7407 22.9673 60.31C22.886 60.5947 22.886 60.92 22.6013 61.2047C22.52 61.2047 22.52 61.3267 22.52 61.3673C22.6827 61.8147 22.398 62.14 22.3167 62.5873C22.0727 63.4007 21.8287 64.1733 21.5847 65.0273C21.3 66.166 21.0967 67.3453 20.7307 68.5247C20.2833 70.1513 20.08 71.9 19.7953 73.608C19.6733 74.096 19.6327 74.6653 19.6327 75.194C19.592 75.5193 19.47 75.804 19.3073 76.0887C19.5513 76.6173 19.6733 77.0647 19.4293 77.6747C19.3887 77.8373 19.4293 78.0407 19.104 78.122ZM21.4627 52.4207C21.3 52.5833 21.178 52.7053 21.056 52.7867C20.446 53.5187 19.9173 54.1693 19.3073 54.942C18.982 55.3893 18.7787 55.8367 18.2093 56.04C18.1687 56.1213 18.0467 56.2027 18.0467 56.2027C18.0873 56.4873 17.884 56.65 17.7213 56.894C17.518 57.0973 17.274 57.3413 17.2333 57.626C17.152 57.87 16.9893 58.0733 16.8267 58.2767C16.4607 58.7647 16.0947 59.2933 15.81 59.8627C15.1187 60.8793 14.346 61.9367 13.736 63.0753C13.248 63.8887 12.638 64.702 12.15 65.5153C12.0687 65.7593 11.9873 65.9627 11.906 66.2473C11.8653 66.288 11.9873 66.41 12.028 66.4507C12.15 66.4913 12.2313 66.4507 12.3533 66.41C13.248 66.2067 14.102 66.044 14.9967 65.8813C15.7287 65.678 16.4607 65.6373 17.2333 65.556C17.5587 65.5153 17.762 65.3933 17.8027 65.1087C18.0873 64.0513 18.4127 62.994 18.738 61.896C18.86 61.408 18.9413 60.92 19.1853 60.4727C19.47 59.944 19.3887 59.334 19.6327 58.846C19.714 58.602 19.7953 58.3173 19.8767 58.0733C19.9173 57.9107 20.0393 57.6667 20.1207 57.4227C20.324 56.8127 20.4867 56.162 20.69 55.5113C20.7713 55.3487 20.8527 55.1047 21.0153 54.9827C21.056 54.82 21.2187 54.7387 21.3 54.698C21.1373 54.1693 21.1373 54.1693 21.5033 53.9253C21.6253 53.844 21.7067 53.844 21.788 53.7627C21.8287 53.6813 21.91 53.5593 21.8287 53.5187C21.788 53.478 21.6253 53.4373 21.544 53.356C21.422 53.112 21.788 52.7867 21.4627 52.4207ZM19.2667 65.5153C19.3073 65.4747 19.3887 65.3527 19.4293 65.2713C19.714 64.1327 19.9173 62.994 20.446 61.9367C20.4867 61.896 20.4867 61.8553 20.4867 61.8147C20.6087 60.7573 21.056 59.822 21.3813 58.7647C21.5847 57.8293 21.9507 56.8533 22.276 55.8367C22.6827 54.82 23.008 53.7627 23.2927 52.746C23.5367 52.0953 23.6587 51.404 23.7807 50.794C23.862 50.672 23.6993 50.4687 23.5773 50.5093C23.496 50.55 23.4147 50.5907 23.3333 50.672C23.252 50.794 23.13 50.8347 23.252 51.038C23.5367 51.404 23.2927 51.648 23.13 51.9733C22.9673 52.258 22.886 52.5833 22.7233 52.9087C22.6013 52.99 22.6827 53.2747 22.6827 53.478C22.7233 53.5187 22.6013 53.6407 22.6013 53.7627C22.1133 55.43 21.422 57.016 20.9747 58.7647C20.9747 58.8867 20.8933 59.09 20.812 59.212C20.5273 59.456 20.5273 59.822 20.4867 60.1473C20.446 60.5947 20.1207 61.042 20.1207 61.53C19.714 61.9773 19.9173 62.506 19.714 62.9533C19.5107 63.3193 19.592 63.848 19.1853 64.092C19.1853 64.336 19.226 64.58 19.226 64.7833C19.2667 65.0273 18.9413 65.2713 19.2667 65.5153ZM18.4533 69.0127C18.4533 69.0127 18.4533 68.972 18.4127 68.972C18.372 68.972 18.25 68.972 18.25 69.0127C17.8027 69.582 17.9653 70.314 17.9653 70.9647C17.9653 70.9647 18.0467 71.0867 18.0873 71.046C18.1687 71.046 18.25 70.9647 18.25 70.924C18.2907 70.3547 18.4533 69.7853 18.494 69.216C18.4533 69.1347 18.4533 69.0533 18.4533 69.0127ZM17.9247 71.534C17.762 71.9407 17.2333 72.3067 17.5587 72.8353C18.006 72.388 18.006 72.388 17.9247 71.534ZM35.2893 78.0407C34.842 77.7153 34.964 77.268 34.9233 76.902C34.8013 76.0887 34.842 76.0887 34.476 75.804C34.354 76.3327 34.2727 76.8207 34.1507 77.268C33.9067 77.3493 33.866 77.2273 33.8253 77.0647C33.5 76.414 33.378 75.682 33.3373 74.95C33.3373 74.0553 33.2967 73.1607 33.5 72.3067C33.5 72.2253 33.378 72.1033 33.3373 71.9813C33.256 72.0627 33.134 72.0627 33.0933 72.144C32.2393 73.0387 31.426 73.9333 30.45 74.6653C30.4093 74.7467 30.2873 74.8687 30.2467 74.95C29.352 75.926 28.2133 76.6173 27.0747 77.3493C26.5867 77.634 26.0173 77.6747 25.4073 77.878C25.3667 77.878 25.2853 77.878 25.204 77.878C24.106 77.634 23.1707 77.0647 22.4387 76.2107C22.4387 76.17 22.398 76.1293 22.398 76.0887C22.3167 75.926 22.276 75.7633 22.2353 75.56C22.1947 75.438 22.0727 75.2753 22.1133 75.1533C22.2353 74.5433 21.7473 74.0147 21.8693 73.4453C21.8693 73.2827 21.8693 73.0793 21.9507 72.9167C21.9913 72.5507 22.0727 72.266 22.154 71.9C22.276 71.6153 22.7233 71.778 22.8047 71.412C22.6827 71.29 22.52 71.168 22.3573 71.046C22.4387 70.68 22.52 70.3953 22.6013 70.1107C22.642 69.8667 22.7233 69.6633 22.764 69.46C23.252 68.5247 23.5773 67.4673 24.106 66.5727C24.3907 66.044 24.6753 65.5153 25.0007 65.0273C25.2853 64.58 25.692 64.1327 26.058 63.6447C26.2613 63.8073 26.0987 63.9293 26.1393 64.0513C26.18 64.1327 26.2613 64.1733 26.3427 64.1733C26.3833 64.1733 26.5053 64.1733 26.546 64.1327C26.5867 63.97 26.5867 63.8887 26.6273 63.726C26.668 63.6447 26.546 63.36 26.3833 63.1567C26.546 62.872 26.7493 62.75 27.0747 62.8313C27.4 62.9127 27.4813 62.7093 27.278 62.3027C27.4813 62.0993 27.6847 61.8553 27.9287 61.6113C28.0913 61.3673 28.376 61.164 28.7013 61.042C28.8233 61.0013 28.9453 60.7573 29.0267 60.6353C29.9213 60.0253 30.8973 59.5373 31.914 59.1713C31.914 59.1713 32.036 59.1713 32.1173 59.1713C33.134 59.212 34.1507 59.212 35.086 59.822C35.3707 60.0253 35.696 60.2287 35.9807 60.4727C36.306 60.1067 36.5093 59.7 36.6313 59.2933C37.4447 57.1787 38.502 55.186 39.5187 53.234C39.6407 52.99 39.8033 52.7867 39.966 52.624C40.1287 52.6647 40.2507 52.6647 40.4133 52.6647C40.576 52.38 40.1693 52.2987 40.2507 52.014C40.698 51.0787 41.3893 50.2247 42.04 49.33C42.3653 48.9233 42.894 48.7607 43.382 48.5573C43.4633 48.5573 43.5447 48.6387 43.626 48.72C43.6667 48.7607 43.6667 48.8827 43.6667 48.9233C43.5853 49.0453 43.504 49.1673 43.4633 49.33C42.9753 49.8993 42.528 50.5093 42.2027 51.282C42.162 51.404 42.0807 51.4853 42.04 51.648C40.7387 53.6 40.0473 54.9827 38.746 57.626C38.0547 59.09 37.4447 60.6353 36.916 62.2213C36.916 62.3027 36.8753 62.4247 36.8753 62.4247C36.916 62.506 36.9567 62.628 36.9973 62.7093C37.038 62.7093 37.16 62.6687 37.16 62.5873C37.3227 62.1807 37.6073 61.774 37.6887 61.286C38.0953 60.0253 38.6647 58.8053 39.1933 57.626C39.6407 56.65 40.1287 55.7553 40.576 54.8607C40.698 54.6167 40.9827 54.6167 41.064 54.4133C41.064 54.2507 41.064 54.0473 41.1453 53.8847C41.552 53.2747 41.7553 52.4207 42.4467 52.014C42.4873 51.9327 42.528 51.8513 42.528 51.8107C42.5687 51.648 42.5687 51.4447 42.6907 51.3227C43.0973 50.672 43.5447 50.0213 44.0327 49.4113C44.1547 49.2487 44.358 49.1267 44.48 48.964C45.0087 49.0047 45.0087 49.6147 45.456 49.7367C45.334 49.9807 45.2527 50.2247 45.1713 50.3873C45.0087 50.7127 45.0493 50.9567 45.3747 51.16C45.0087 51.8107 44.602 52.3393 44.1547 52.868C43.9107 53.234 43.6667 53.6407 43.4227 54.0473C43.3007 54.088 43.0973 54.0473 42.9753 54.088C42.7313 54.1693 42.5687 54.3727 42.65 54.4947C42.772 54.5353 42.9753 54.5353 43.138 54.576C42.8533 55.064 42.6093 55.552 42.3653 55.9993C41.9587 56.8127 41.552 57.626 41.1453 58.48C40.942 58.8867 40.698 59.2527 40.21 59.3747C40.1287 59.3747 40.1287 59.456 40.088 59.5373C40.21 59.6593 40.332 59.7813 40.4947 59.944C40.2507 60.554 39.966 61.2047 39.722 61.8553C39.5187 62.3433 39.1933 62.75 39.1933 63.3193C38.6647 64.336 38.5427 65.434 38.258 66.5727C37.7293 68.362 37.4853 70.192 37.282 72.0627C37.2413 72.998 37.2413 73.852 37.2413 74.7467C37.2413 75.0313 37.2413 75.3973 37.2413 75.7227C37.282 76.2107 37.404 76.7393 37.038 77.1053C36.672 77.512 36.2247 77.8373 35.696 77.9593C35.5333 78 35.3707 78 35.2893 78.0407ZM24.6347 68.8093C24.35 69.0533 24.0653 69.2567 24.0247 69.6633C23.984 70.192 23.618 70.7207 23.9027 71.3307C24.3907 70.5987 24.5533 69.704 24.716 68.8907C24.96 68.6467 25.1633 68.4027 25.204 67.996C24.96 68.0773 24.6753 68.118 24.472 68.1587C24.1873 68.24 24.0247 68.362 24.106 68.4433C24.1873 68.5653 24.35 68.606 24.472 68.6873C24.5127 68.6873 24.594 68.728 24.6347 68.8093ZM31.0193 68.728C31.426 68.24 31.914 67.752 32.402 67.264C32.5647 67.0607 32.8493 66.9387 32.9713 66.5727C33.0527 66.3287 33.2967 66.288 33.5 66.166C33.9067 65.9627 34.0693 65.6373 33.9067 65.2307C33.8253 64.9867 33.5 64.824 33.8253 64.5393C33.8253 64.5393 33.8253 64.458 33.7847 64.458C33.3373 64.3767 33.378 64.0107 33.2967 63.726C33.1747 63.4413 33.134 63.116 32.768 62.9533C32.0767 63.116 31.426 63.4007 30.938 63.97C30.816 64.1327 30.6533 64.2547 30.5313 64.3767C30.2873 64.6207 29.962 64.7833 29.7587 64.946C29.474 65.1493 29.352 65.556 29.108 65.8C28.8233 66.1253 28.62 66.4507 28.4167 66.776C28.0913 67.3453 27.766 67.8333 27.2373 68.118C27.1967 68.4027 27.278 68.6873 27.156 68.8907C26.8713 69.6227 26.546 70.2733 26.2207 71.046C25.936 71.656 25.814 72.388 25.814 73.12C25.814 73.242 25.8547 73.3233 25.936 73.486C26.0987 73.4047 26.2207 73.4047 26.3427 73.2827C27.0747 72.632 27.8067 71.9813 28.5387 71.29C29.1487 70.68 29.7587 70.1107 30.328 69.5007C30.5313 69.216 30.816 69.1753 31.0193 69.094C31.0193 68.9313 31.0193 68.85 31.0193 68.728ZM31.1007 60.2287C31.1007 60.31 31.1413 60.432 31.2227 60.5133C31.2227 60.5133 31.3853 60.5947 31.426 60.5947C31.4667 60.5133 31.5887 60.3913 31.6293 60.2693C31.7107 60.1067 31.6293 59.9847 31.5073 59.9033C31.426 59.822 31.182 59.8627 31.1413 60.0253C31.1007 60.0253 31.1007 60.1067 31.1007 60.2287ZM27.9693 64.7427C27.9287 64.7833 27.9287 64.824 27.9287 64.824C27.888 64.8647 27.888 64.8647 27.9287 64.9053C28.0913 65.1493 28.3353 65.312 28.62 65.2713C28.6607 65.2713 28.742 65.1493 28.742 65.1087C28.62 64.8647 28.2133 64.702 27.9693 64.7427ZM43.992 51.404C44.1547 51.526 44.1953 51.6073 44.236 51.6073C44.4393 51.77 44.602 51.7293 44.724 51.5667C44.724 51.4853 44.7647 51.3227 44.724 51.3227C44.602 51.2413 44.4393 51.2007 44.358 51.2007C44.2767 51.2413 44.1953 51.3227 43.992 51.404ZM25.0413 76.8207C24.8787 76.8207 24.716 76.902 24.7567 77.0647C24.7973 77.2273 24.8787 77.3493 25.082 77.3493C25.1633 77.3087 25.204 77.2273 25.2853 77.146C25.326 76.9833 25.204 76.8613 25.0413 76.8207ZM24.7567 67.3047C25.0007 67.3453 25.1633 67.386 25.3667 67.386C25.4073 67.386 25.5293 67.264 25.5293 67.264C25.4887 67.1827 25.448 67.0607 25.3667 67.02C25.1227 66.898 24.8787 67.02 24.7567 67.3047ZM34.3133 64.702C34.232 65.1087 34.0287 65.3527 34.3133 65.5967C34.3133 65.6373 34.3947 65.5967 34.4353 65.556C34.6387 65.312 34.4353 65.068 34.3133 64.702ZM33.2967 68.5247C33.378 68.4027 33.5813 68.3213 33.6627 68.1993C33.744 68.118 33.6627 67.996 33.6627 67.874C33.5813 67.9147 33.5 67.874 33.4593 67.9147C33.3373 68.0367 33.256 68.24 33.134 68.3213C33.134 68.362 33.1747 68.4027 33.1747 68.4027C33.2153 68.4433 33.2153 68.484 33.2967 68.5247ZM28.4573 62.7093C28.9047 62.506 29.0267 62.3027 29.1893 62.0587C28.742 61.9367 28.62 62.262 28.4573 62.7093ZM35.696 61.652C35.696 61.5707 35.6553 61.4893 35.574 61.4487C35.574 61.408 35.5333 61.408 35.4927 61.4487C35.2893 61.4893 35.2487 61.652 35.2487 61.8553C35.2487 61.896 35.3707 61.9367 35.3707 61.896C35.4927 61.8553 35.6147 61.7333 35.696 61.652ZM31.0193 61.3267C31.0193 61.4893 31.304 61.652 31.426 61.6113C31.4667 61.5707 31.5073 61.4893 31.5073 61.4893C31.548 61.3267 31.4667 61.164 31.3447 61.164C31.2227 61.164 31.1007 61.2453 31.0193 61.3267ZM25.2853 66.3287C25.4887 66.288 25.6513 66.2473 25.7327 66.2067C25.6513 66.0847 25.6513 65.922 25.5293 65.8813C25.3667 65.8 25.2447 65.9627 25.204 66.1253C25.204 66.166 25.2853 66.2473 25.2853 66.3287ZM51.3978 56.7313C51.3571 56.894 51.3571 57.0973 51.3164 57.3413C51.8858 57.4633 52.4144 57.8293 53.0651 57.748C53.2278 57.382 52.8211 57.26 52.8211 56.9753C52.8211 56.894 52.8211 56.8533 52.8618 56.8127C53.1058 56.406 53.4311 56.1213 53.7564 55.7553C53.9191 56.0807 54.1631 56.4467 54.3664 56.894C54.4478 56.7313 54.4884 56.6093 54.5698 56.4467C54.7731 56.65 54.6918 56.894 54.6511 57.016C54.5291 57.3413 54.7731 57.4227 54.8544 57.5853C54.7731 58.2767 54.4478 58.846 54.0004 59.334C53.5938 59.7813 53.2684 60.2693 52.9431 60.7573C52.0484 62.14 51.2351 63.5633 50.2591 64.9053C49.8931 65.434 49.6898 66.0847 49.4051 66.654C48.9984 67.4267 48.8358 68.2807 48.2258 68.972C48.1851 69.582 47.7378 70.1107 47.5751 70.7613C47.4124 71.2493 47.1684 71.6967 46.9651 72.1847C46.8838 72.3067 46.8024 72.4287 46.7618 72.5913C46.5584 73.8113 45.9078 74.9093 45.4198 76.0887C45.3384 76.3327 45.2164 76.658 44.9724 76.78C44.6878 76.9427 44.5658 77.268 44.2811 77.4713C44.1591 77.5933 43.9558 77.6747 43.7524 77.7967C43.2644 78 42.7358 78 42.3291 77.5933C42.2071 77.512 42.0851 77.39 41.9224 77.3493C40.9464 77.024 40.7024 76.2107 40.6618 75.2753C40.6211 75.194 40.7024 75.0313 40.6618 74.9907C40.4584 74.7467 40.4178 74.462 40.4178 74.1773C40.4178 73.4047 40.3771 72.6727 40.3771 71.9407C40.3771 71.778 40.5398 71.6153 40.6211 71.4527C40.2551 70.9647 40.1331 70.3953 40.2144 69.826C40.2551 69.2973 40.2551 68.7687 40.6618 68.3213C40.0111 67.7113 40.4991 67.1827 40.7024 66.5727C40.5398 66.3287 40.3771 66.0847 40.4178 65.7187C40.4584 65.2713 40.4584 64.824 40.5398 64.4173C40.7024 63.604 40.6211 62.7093 40.6618 61.896C40.6618 61.6113 40.7838 61.286 40.8651 60.9607C40.9871 60.7573 41.1904 60.554 41.4344 60.4727C41.7191 60.3913 41.8818 60.2693 42.1664 60.188C42.4104 60.31 42.1664 60.554 42.2478 60.7573C42.3291 60.9607 42.3291 61.2047 42.3291 61.408C42.3291 61.5707 42.4104 61.7333 42.4511 61.774C42.4918 61.896 42.6138 61.9367 42.6544 61.9367C42.7358 61.896 42.8578 61.774 42.8578 61.7333C42.8171 61.2453 43.0204 60.7573 43.1424 60.066C43.2644 60.2693 43.2644 60.3507 43.3051 60.432C44.1591 61.042 44.3624 61.896 44.2811 62.8313C44.2404 64.3767 44.1998 65.922 44.0778 67.4673C44.0371 67.7113 44.0778 67.996 43.8338 68.24C43.7524 68.362 43.7931 68.484 43.8744 68.5247C43.9964 68.6467 44.1591 68.6873 44.2811 68.5653C44.4031 68.4433 44.5251 68.3213 44.6064 68.118C44.7284 67.7113 44.8911 67.3047 45.2164 67.02C45.2978 66.9387 45.4198 66.8167 45.4198 66.7353C45.2978 66.0847 45.7451 65.6373 45.9484 65.1087C46.0704 64.824 46.1924 64.58 46.4771 64.4173C46.5584 64.336 46.6398 64.214 46.6398 64.1327C46.6398 63.3193 47.2498 62.75 47.6158 62.0993C47.9004 61.408 48.3478 60.8387 48.7544 60.2287C48.9578 59.8627 49.2018 59.5373 49.4051 59.212C49.9338 58.358 50.5438 57.6667 51.1538 56.894C51.2351 56.8533 51.3571 56.8127 51.4384 56.7313H51.3978ZM45.2164 70.3953C44.9724 70.436 44.8098 70.558 44.7284 70.8427C44.7284 71.046 44.6064 71.3307 44.5658 71.534C44.4031 72.022 44.2404 72.51 44.1184 72.998C44.0778 73.12 44.1591 73.2827 44.1998 73.608C44.4031 73.12 44.4844 72.8353 44.6878 72.51C45.0538 71.8593 45.1351 71.168 45.2164 70.436C45.7044 69.7853 45.7044 69.7853 45.7451 69.2567C45.2164 69.46 45.2164 69.948 45.2164 70.3953ZM46.6398 66.6133C47.0058 66.0847 47.3718 65.6373 47.6971 65.1493C47.6971 65.1087 47.6971 65.068 47.6971 64.946C47.6158 64.946 47.4531 64.9053 47.4124 64.9867C47.0871 65.312 46.7211 65.7187 46.5991 66.2067C46.5991 66.288 46.5991 66.41 46.6398 66.6133ZM48.5918 63.238C48.6731 63.1973 48.7138 63.1567 48.7544 63.1567C48.9578 62.7907 49.1611 62.506 49.6898 62.6687C49.6898 62.6687 49.7711 62.506 49.7304 62.4247C49.7304 62.384 49.6898 62.3027 49.6084 62.3027C49.3238 62.2213 49.0798 62.2213 48.7951 62.384C48.5511 62.5873 48.4698 62.8313 48.5918 63.238ZM42.7358 64.6613C42.6544 64.6207 42.6138 64.5393 42.5324 64.5393C42.3291 64.5393 42.1258 64.7833 42.2478 64.9867C42.2884 65.0273 42.3291 65.1087 42.4104 65.068C42.6138 65.0273 42.7358 64.824 42.7358 64.6613ZM46.1518 67.996C46.1924 67.996 46.1924 68.0773 46.2738 68.118C46.3551 67.996 46.4771 67.9553 46.5991 67.8333C46.6804 67.752 46.7211 67.5893 46.6398 67.508C46.5584 67.386 46.3958 67.4673 46.2738 67.5893C46.2331 67.7113 46.1924 67.874 46.1518 67.996ZM46.2331 66.4913C46.3144 66.288 46.2738 66.1253 46.1518 66.0847C46.0704 66.0847 45.9484 66.1253 45.9484 66.166C45.8264 66.3287 45.8264 66.4913 46.0298 66.5727C46.0704 66.5727 46.1924 66.532 46.2331 66.4913ZM51.5604 61.3673V61.286C51.4791 61.2453 51.4384 61.164 51.3571 61.0827C51.2758 61.2047 51.1944 61.2453 51.1538 61.286C51.1538 61.3673 51.1944 61.4893 51.2351 61.6113C51.2351 61.652 51.2758 61.6927 51.3164 61.6927C51.3571 61.652 51.4791 61.6113 51.4791 61.6113C51.5198 61.53 51.5198 61.4487 51.5604 61.3673ZM51.3978 56.7313H51.4384C51.4384 56.4873 51.5198 56.3247 51.7231 56.2027C52.0078 55.9587 52.3738 55.8367 52.6584 55.674C52.9431 55.796 52.8211 55.9587 52.6991 56.04C52.4144 56.406 52.0484 56.7313 51.7638 57.016C51.6011 56.894 51.4791 56.8533 51.3978 56.7313ZM57.5305 60.1067C57.7338 60.188 57.6118 60.432 57.7338 60.554C57.8965 60.6353 58.2625 60.5133 58.3845 60.31C58.4658 60.1067 58.3845 59.9033 58.4252 59.6187C58.9132 59.6187 59.4418 59.578 59.9298 59.6187C60.0925 59.6187 60.2958 59.7 60.4585 59.7813C60.6618 59.9033 60.9058 59.944 61.1905 59.8627C61.6378 59.822 62.1258 59.9847 62.5325 60.1067C62.7358 60.4727 62.9392 60.0253 63.1018 60.1473C63.3458 60.2693 63.4272 60.554 63.7932 60.554C63.9558 60.554 64.1998 60.6353 64.3625 60.7573C65.3385 61.2453 66.1112 61.9773 66.4772 63.0347C66.7212 63.604 66.8838 64.1733 66.8432 64.8647C66.8025 65.3527 66.8025 65.3527 66.3552 65.8407C66.4365 65.922 66.4772 66.044 66.5585 66.1253C66.5178 66.2067 66.5585 66.288 66.4772 66.3287C66.0705 67.1013 65.5418 67.7927 64.8098 68.3213C64.6065 68.4433 64.4032 68.6467 64.2405 68.6873C63.9152 68.8093 63.4678 68.8093 63.1832 69.0127C62.8578 69.216 62.5325 69.338 62.2072 69.4193C62.0445 69.338 61.9632 69.2567 61.8412 69.1753C61.3125 69.6633 61.3125 69.6633 60.7838 69.6633C60.3365 69.6633 59.9298 69.582 59.5232 69.3787C59.4825 68.8907 59.1165 69.1753 58.8318 69.1753C58.6692 69.094 58.5065 68.9313 58.3032 68.7687C58.1405 68.6873 58.0185 68.5247 57.8558 68.5247C57.3272 68.484 57.4492 68.118 57.4085 67.7927C57.2052 67.7927 57.0832 67.7927 56.9205 67.7927C56.8392 67.752 56.7985 67.7113 56.7985 67.7113C56.7172 67.5487 56.8392 67.264 56.5952 67.264C56.4732 67.264 56.3105 67.4267 56.2292 67.5487C56.1072 67.9553 55.9445 68.362 55.8632 68.8093C55.7005 69.46 55.5785 70.1107 55.4972 70.7613C55.4158 71.2493 55.4565 71.6967 55.5378 72.144C55.5785 72.5507 55.6598 72.998 55.7005 73.4453C56.1072 73.8113 56.5545 74.2587 57.0425 74.6653C57.2052 74.6653 57.4898 74.6247 57.7338 74.584C58.2625 74.5027 58.8725 74.5433 59.4418 74.2993C59.9298 74.0553 60.4585 74.0147 60.9872 73.73C61.4345 73.486 61.9632 73.3233 62.4512 73.0793C62.9798 72.7947 63.4678 72.51 63.9558 72.1847C64.6472 71.7373 65.3385 71.2493 65.9485 70.802C66.1112 70.68 66.2738 70.5987 66.4365 70.5173C66.5585 70.4767 66.8025 70.4767 66.8432 70.5173C67.1278 70.8427 67.4938 70.802 67.8598 70.802C67.9412 70.8427 68.0225 70.802 68.1038 70.802C68.7545 70.8833 68.8358 71.0053 68.7138 71.8187C68.8358 71.9 68.9985 71.9813 69.1612 72.1033C69.1205 73.3233 68.2258 74.0147 67.2905 74.5433C66.9245 74.7467 66.5992 74.7873 66.1925 74.9093C66.0705 75.072 65.9078 75.316 65.7858 75.5193C65.6638 75.7227 65.2165 75.2753 65.2165 75.7633C64.8098 76.1293 64.3625 76.414 63.9152 76.536C63.7118 76.5767 63.5085 76.6173 63.3865 76.6987C62.5732 77.268 61.6785 77.5527 60.7838 77.878C59.3605 78.3253 57.9778 78.4473 56.5138 78.2847C55.9445 78.2033 55.3752 77.9593 55.2532 77.268C55.2532 77.268 55.2125 77.2273 55.1718 77.1867C55.0498 77.146 54.9685 77.146 54.9278 77.268C54.8872 77.3493 54.8465 77.39 54.8465 77.4713C54.6838 77.5527 54.5618 77.4713 54.4398 77.39C54.1145 77.146 53.7892 76.9427 53.4638 76.658C53.2605 76.414 53.0572 76.17 52.8132 75.926C52.7725 75.804 52.6912 75.7227 52.6912 75.6413C52.4065 74.6653 51.7558 73.7707 51.8372 72.6727C51.8372 72.388 51.7558 72.1033 51.7152 71.8187C51.6745 70.6393 51.7558 69.3787 52.2845 68.24C52.3252 68.0773 52.4065 67.9147 52.3658 67.6707C52.3252 67.3453 52.3252 67.02 52.6098 66.7353C52.7725 66.5727 52.8538 66.288 52.9758 66.0847C52.7725 65.8407 52.9352 65.6373 53.0978 65.434C53.2198 65.2307 53.3012 64.946 53.3012 64.702C53.4638 64.2547 53.6265 63.8073 54.2365 63.6853C54.3178 63.6853 54.4398 63.4413 54.2772 63.36C54.1145 63.1567 54.1958 62.994 54.3178 62.872C54.4398 62.75 54.6025 62.628 54.7245 62.506C54.8465 62.4247 55.0498 62.3433 55.0498 62.2213C55.1718 61.53 55.7412 61.2047 56.1885 60.798C56.4732 60.5133 56.9205 60.3507 57.3272 60.1067C57.3678 60.1067 57.4492 60.1067 57.5305 60.1067ZM54.2365 66.166C53.8298 66.8167 53.7892 67.02 53.5452 68.2807C53.7485 68.3213 53.7892 68.1993 53.8298 68.0773C54.1145 67.4673 54.3178 66.8573 54.2365 66.166C54.4398 66.0847 54.6432 65.9627 54.6432 65.678C54.4398 65.6373 54.2365 65.6373 53.8705 65.556C54.0332 65.8407 54.1552 66.0033 54.2365 66.166ZM58.7505 63.6447C58.9945 64.0107 59.1572 64.3767 59.3198 64.7427C59.5638 65.2307 59.9705 65.5153 60.4178 65.8C60.5398 65.8407 60.7025 65.922 60.8245 65.8813C61.4752 65.7593 62.1665 65.5967 62.7358 65.1087C63.0612 64.7427 62.9392 64.1733 62.4512 63.9293C61.8818 63.6447 61.1092 63.6447 60.5398 63.1973C60.5398 63.1567 60.4178 63.1567 60.3365 63.1567C60.0518 63.2787 59.7672 63.238 59.5232 63.238C59.2385 63.238 59.0352 63.482 58.7505 63.6447ZM60.0518 60.7573C60.2552 60.7573 60.4585 60.5947 60.5398 60.3913C60.5398 60.3507 60.4992 60.2287 60.4585 60.2287C60.2145 60.1067 59.9705 60.2693 59.9298 60.5133C59.9298 60.554 60.0112 60.6353 60.0518 60.7573ZM55.7818 62.262C55.9038 62.506 55.9038 62.628 55.9852 62.7093C56.1072 62.872 56.2698 62.872 56.4325 62.75C56.5138 62.7093 56.5545 62.628 56.5545 62.5467C56.5545 62.506 56.5138 62.4247 56.4325 62.4247C56.2698 62.384 56.1072 62.3433 55.7818 62.262ZM58.0998 63.6447C58.1812 63.5633 58.2625 63.5633 58.3032 63.482C58.3845 63.3193 58.0998 62.9533 57.9372 62.994C57.8558 63.0347 57.8558 63.1567 57.8558 63.1973C57.9372 63.36 58.0185 63.482 58.0998 63.6447ZM53.5452 69.2567C53.4232 69.1753 53.3825 69.1347 53.3012 69.094C53.2198 69.094 53.0978 69.1753 53.0572 69.1753C52.9758 69.2567 53.1385 69.5007 53.3012 69.46C53.3418 69.46 53.4232 69.3787 53.5452 69.2567ZM75.462 69.0127C75.4213 69.094 75.462 69.1753 75.4213 69.2973C75.1366 69.9887 74.8113 70.7207 74.5673 71.4527L74.12 71.534C74.2013 71.6153 74.364 71.778 74.4453 71.8593C74.4046 71.9 74.4453 71.9813 74.4046 72.022C74.0386 72.9573 73.754 73.974 73.5506 74.95C73.388 75.6007 73.388 75.6007 72.778 76.0073C72.778 76.2107 72.9813 76.2513 73.0626 76.3733C73.144 76.6173 72.9813 76.902 72.6966 76.902C72.4933 76.902 72.3306 76.8613 72.29 77.0647C72.0866 77.3493 71.8426 77.4713 71.558 77.512C71.314 77.5527 71.07 77.4307 71.07 77.2273C71.07 76.6987 71.0293 76.17 71.2326 75.6413C71.2733 75.56 71.2326 75.438 71.2733 75.316L71.192 75.2347H70.9886C70.948 75.3567 70.9073 75.4787 70.8666 75.6413C70.7446 75.926 70.704 76.2513 70.5413 76.5767C70.4193 76.7393 70.4193 76.902 70.46 77.0647C70.46 77.1053 70.4193 77.1867 70.338 77.1867C70.338 77.1867 70.216 77.2273 70.1346 77.146C70.0126 77.024 69.972 76.8613 69.8093 76.78C69.5653 76.4547 69.4026 76.1293 69.6873 75.7633C69.5653 75.2753 69.5653 74.828 69.6873 74.3807C70.0126 73.1607 70.2566 71.8593 70.5006 70.5987C70.7446 69.7447 70.9886 68.8907 71.1106 67.996C71.2326 67.4673 71.436 66.9387 71.5986 66.4507C71.6393 66.288 71.7613 66.2067 71.7613 66.0847C71.6393 65.434 71.924 64.8647 72.0053 64.336C72.0053 63.7667 72.412 63.2787 72.412 62.75C72.3713 62.262 72.5746 61.7333 72.6153 61.2047C72.6153 60.92 72.6966 60.92 73.2253 60.8387L73.1033 60.2693C73.2253 60.2693 73.266 60.2287 73.3473 60.188C73.4286 60.1473 73.5506 60.1067 73.632 60.1067C73.7133 60.066 73.7946 59.9847 73.876 59.944C73.998 59.944 74.1606 59.9847 74.242 59.9847L73.9573 60.676C73.876 60.9607 74.12 61.286 73.9166 61.6113C73.754 61.774 73.7946 62.0993 73.7946 62.4247C73.9166 62.384 74.0386 62.3433 74.0793 62.3027C74.1606 62.018 74.242 61.6927 74.5673 61.4893C74.6486 61.3673 74.73 61.164 74.73 61.042C74.8926 60.798 74.8926 60.5133 74.8926 60.188C75.1773 60.2693 75.5433 60.31 75.7873 60.31C76.0313 60.3913 76.194 60.5947 76.194 60.7167C76.1533 61.042 76.0313 61.3267 75.95 61.6113C76.1126 61.652 76.2346 61.6113 76.2753 61.6113C76.5193 61.3673 76.8446 61.3267 77.0886 61.0827C77.292 60.798 77.658 60.676 77.9833 60.5947C78.0646 60.554 78.146 60.5133 78.1053 60.4727C78.4713 60.066 78.9186 59.9847 79.366 59.7813L81.1146 59.7407L81.3993 59.9033C82.4566 60.5947 82.7006 61.4893 82.7006 62.4653C82.7006 62.5873 82.5786 62.8313 82.7006 62.9533C82.9853 63.2787 82.7413 63.7667 83.0666 64.092C83.27 64.2547 83.27 64.4173 83.27 64.702C83.27 64.7427 83.514 64.824 83.636 64.824C83.636 64.9867 83.7173 65.19 83.6766 65.3933C83.7173 65.678 83.5546 65.8407 83.1073 65.8407C83.026 65.8 82.8226 65.7187 82.66 65.8813C82.8226 66.166 83.1886 66.2473 83.4326 66.532C83.392 66.532 83.27 66.5727 83.27 66.6133C83.148 66.654 82.294 66.898 82.172 66.8573C82.0906 66.898 82.0093 66.898 81.9686 66.9793C81.928 67.1013 81.684 67.0607 81.562 66.9387C81.2773 66.654 80.9113 66.4507 80.464 66.3287C79.9353 65.8 79.4473 65.2307 79.4066 64.5393C79.366 64.092 79.366 64.092 78.8373 63.726C78.878 64.2547 78.878 64.2547 78.5933 64.6207C78.4306 64.7833 78.2273 64.9867 78.146 65.1087C77.8206 65.312 77.658 65.434 77.4953 65.8C77.4546 66.044 77.17 66.288 76.9666 66.532C76.682 66.9387 76.4786 67.386 76.2753 67.7927C75.95 68.1587 75.828 68.6467 75.4213 68.972C75.34 68.8907 75.2586 68.7687 75.1773 68.6873C75.0146 68.6467 74.8113 68.728 74.8113 68.8907C74.7706 68.9313 74.852 69.0127 74.852 69.1347C75.096 69.094 75.2993 69.0127 75.462 69.0127ZM73.7946 64.3767L73.7133 63.4007C73.51 63.726 73.4693 63.8073 73.3473 63.97C73.2253 64.092 73.1033 64.1733 73.144 64.336C73.4693 64.6207 73.754 64.58 73.7946 64.3767ZM76.2753 63.116C76.3566 63.0347 76.4786 63.0347 76.5193 62.994C76.56 62.9533 76.6413 62.75 76.56 62.75C76.4786 62.7093 76.316 62.6687 76.2753 62.7093C76.194 62.75 76.1126 62.8313 76.072 62.9533C76.0313 62.994 76.1533 63.0753 76.2753 63.116ZM95.5799 61.774L95.9052 62.2213C96.1086 62.6687 96.0679 62.872 95.6205 63.0753C95.4579 63.1567 95.1732 63.1973 95.0105 63.2787C94.8479 63.36 94.7259 63.482 94.6039 63.604C94.4005 63.5227 94.1565 63.4413 93.9532 63.3193C93.8312 63.36 93.7499 63.482 93.5872 63.482C92.8552 63.7667 92.6112 64.2953 92.4892 64.946C92.2045 66.2473 91.8792 67.4267 91.5132 68.6467C91.3099 69.3787 91.2285 70.1107 91.1065 70.8833C90.9439 71.778 90.7405 72.632 90.6185 73.5267C90.4559 74.828 90.2525 76.1293 90.7812 77.4713C90.8219 77.756 90.8219 78.0407 90.9032 78.3253C90.7812 78.5287 90.6185 78.732 90.4559 78.854L89.8459 78.7727C89.7645 78.9353 89.7239 79.098 89.6019 79.2607C89.4799 79.464 89.2765 79.586 89.0325 79.5047C88.7072 79.4233 88.5445 79.2607 88.4632 78.9353C88.4632 78.7727 88.3819 78.6507 88.3819 78.5287C88.2599 78.244 88.0565 78.0813 87.9752 78.1627L87.8939 78.5287C87.8532 78.6507 87.8125 78.732 87.8125 78.8133C87.4465 78.6507 87.3652 78.3253 87.2025 78.122C86.8365 77.3087 86.5925 76.5767 86.6332 75.7227C86.7145 72.8353 87.2432 69.9887 87.8939 67.1827C88.1379 66.3693 88.3412 65.5967 88.5445 64.7833L88.6259 64.2547C88.5039 64.214 88.4225 64.1733 88.3005 64.214C87.6905 64.336 87.0805 64.4987 86.4299 64.702C86.0232 64.7833 85.5352 64.824 85.0879 64.6207C85.0879 64.3767 85.0879 64.2547 85.0879 64.092C84.7625 63.8073 84.5185 64.214 84.1932 63.97C83.7459 63.482 83.6239 62.872 83.7865 62.1807C83.9492 61.5707 84.3152 61.2453 84.8439 61.0827L88.3005 60.3913C88.5852 60.3507 88.7885 60.2693 89.0732 60.2693C89.7645 60.2693 90.0492 59.822 90.2525 59.2527C90.3339 59.09 90.3745 59.0087 90.3745 58.846C90.8625 57.382 91.3505 55.9587 91.9199 54.576C92.2045 54.0473 92.3265 53.478 92.5299 52.9493C92.8145 52.258 93.0585 51.4853 93.4652 50.794C93.5872 50.5093 93.8719 50.306 93.7499 49.8587C93.9125 49.452 94.0752 49.0047 94.2785 48.6387C94.4412 48.3947 94.6852 48.3947 94.9292 48.232C94.8479 48.0693 94.8072 47.9473 94.6852 47.866C94.8072 47.6627 94.9699 47.5407 95.1732 47.6627C95.2952 47.7033 95.4172 47.8253 95.5392 47.866C95.5392 47.8253 95.5799 47.7847 95.5799 47.744C95.5799 47.5407 95.4985 47.3373 95.7832 47.4187C95.9865 47.4187 96.1086 47.622 96.0272 47.8253C96.0679 47.9067 96.0679 47.988 96.0272 48.11L95.4985 49.208C95.2139 49.2487 94.8885 49.33 94.4819 49.3707L95.2139 49.9807C94.8479 50.7127 94.6039 51.4447 94.3192 52.1767C94.2379 52.2987 94.1159 52.4207 94.0345 52.5833C93.9532 52.6647 93.8312 52.746 93.8312 52.7867C94.0752 53.2747 93.6685 53.6407 93.5465 54.0067C93.4652 54.332 93.2212 54.21 92.9365 54.21C92.8145 54.4947 93.3025 54.576 93.1805 54.7793C93.0179 55.2267 92.8552 55.6333 92.7739 56.1213C92.6519 56.528 92.2859 56.772 92.2859 57.26C92.2045 57.6667 91.9605 58.0733 91.8385 58.5207C91.7979 58.968 91.5539 59.334 91.5539 59.8627C91.7165 59.822 91.8792 59.822 91.8385 59.7407L92.6112 57.87L93.9532 54.2507L94.4005 53.112C94.8479 51.9327 95.3359 50.794 95.7425 49.6147C95.8239 49.3707 95.9865 49.208 96.0679 48.9233C96.1899 48.6387 96.3932 48.3947 96.7592 48.3947C96.8812 48.3947 97.0032 48.354 97.0032 48.2727C97.0845 48.1913 97.1252 48.0693 97.0032 47.988C96.9625 47.9067 96.8405 47.9067 96.6779 47.866C96.9625 47.5813 97.0845 47.5813 97.2472 47.7033L97.7352 48.1913C97.9385 48.3947 97.9792 48.6387 97.8572 48.842C97.6945 49.0453 97.7759 49.2487 97.9385 49.452C98.1419 49.7773 97.9792 50.0213 97.7759 50.306C97.6945 50.3873 97.4099 50.3873 97.2879 50.672L97.7759 50.7533V50.916L97.2065 51.8513L96.7592 52.7053C96.7185 52.746 96.6372 52.8273 96.6372 52.9493C96.4745 54.1693 95.7832 55.1453 95.4985 56.284C95.4579 56.5687 95.1325 56.8127 95.0105 57.0973C94.9292 57.4633 94.9699 57.87 94.6445 58.1547C94.6445 58.5207 94.5225 58.846 94.4005 59.1713C94.3192 59.5373 94.4005 59.944 94.4819 60.3507C94.7665 60.554 94.8479 60.2693 95.0105 60.31C95.2139 60.554 95.4579 60.554 95.7832 60.432C95.8239 60.432 95.8239 60.432 95.8645 60.4727C96.0679 60.7573 95.9052 61.286 95.5799 61.408L95.2139 61.53C95.1732 61.53 95.1325 61.652 95.1325 61.7333C95.1732 61.7333 95.2545 61.774 95.3359 61.774C95.3765 61.8147 95.4579 61.774 95.5799 61.774ZM90.4965 64.214C90.2525 64.214 90.1305 64.214 90.1305 64.2547C89.8459 65.1087 89.5205 65.9627 89.2765 66.8167C88.9919 67.9553 88.7885 69.1347 88.6259 70.314C88.5039 71.046 88.3819 71.778 88.3005 72.5507C88.2599 72.7133 88.3412 72.8353 88.5445 72.8353C88.7885 71.9 88.9105 70.9647 89.0732 70.0293C89.3172 69.0533 89.5612 68.0773 89.7239 67.1013C90.0085 66.2067 90.2119 65.2713 90.4965 64.214ZM85.4539 61.6113L85.2505 61.408C85.1285 61.3673 84.9659 61.6113 85.0472 61.774C85.0879 61.8147 85.1692 61.896 85.2099 61.896C85.3725 61.896 85.4539 61.8147 85.4539 61.6113ZM94.7665 60.8793C94.4819 60.8793 94.3599 60.798 94.1972 60.8387L93.9532 60.9607L93.9939 61.0827C94.0345 61.2047 94.1565 61.2047 94.2785 61.164C94.4412 61.0827 94.4819 61.0013 94.7665 60.8793ZM100.606 62.7907C101.013 62.8313 100.81 63.6447 101.42 63.2787C101.704 63.726 101.298 64.092 101.42 64.5393C101.542 64.4173 101.664 64.3767 101.786 64.2953C101.867 64.6207 101.948 64.8647 101.786 65.2307C100.769 67.508 98.9797 73.8113 98.9797 76.902C97.9223 77.7967 98.329 77.3087 97.353 77.3087H97.2717C95.889 77.9593 96.3363 75.7227 95.645 76.3327C95.279 75.438 95.1977 74.5027 95.3603 73.608C95.7263 71.9 95.9703 70.1513 96.621 68.484L98.0037 64.1733C100.688 59.1307 99.1017 65.0273 100.606 62.7907ZM99.4677 59.2527C99.2643 58.8053 99.915 58.5207 99.7117 58.114C99.305 57.3007 102.152 55.8773 102.558 57.504C102.721 57.626 102.762 57.8293 102.762 58.0733C102.843 59.09 102.111 60.92 101.42 60.432C101.094 60.188 99.8743 59.944 99.4677 59.2527ZM97.0683 69.8667L97.3937 70.558C96.2143 74.1773 98.451 70.7207 97.963 69.6633C97.963 69.6227 97.8817 69.582 97.841 69.46C97.6783 69.826 97.2717 69.6227 97.0683 69.8667ZM102.152 57.9513C101.826 58.358 101.826 58.3987 101.948 58.48C101.989 58.602 102.111 58.724 102.274 58.602C102.274 58.3987 102.558 58.0733 102.152 57.9513ZM117.146 63.5227C116.861 63.2787 116.577 63.0753 116.658 62.7093C116.739 62.506 116.577 62.3433 116.536 62.14C116.007 62.262 116.211 62.628 116.007 62.8313C115.641 62.5467 115.763 62.0993 115.601 61.652C115.113 61.53 114.706 61.4893 114.096 61.6113C112.551 62.0993 111.127 62.872 109.663 63.6447C109.257 63.848 109.135 64.336 108.525 64.336C108.281 64.6613 108.077 65.0273 107.874 65.3527C108.077 65.8407 108.687 65.8 109.013 66.1253L108.769 66.5727C109.135 66.7353 109.216 66.3693 109.501 66.3693H109.704C110.965 66.8573 112.103 67.508 113.079 68.362C113.771 69.0127 114.381 69.704 114.706 70.5173C115.275 71.9 115.113 73.242 114.34 74.5027C114.177 74.6653 114.015 74.828 113.933 74.9907C113.689 75.072 113.567 74.9907 113.486 74.9093C113.242 74.706 112.957 74.828 112.917 75.072C112.876 75.1533 112.835 75.2753 112.876 75.3567C113.161 75.7633 112.917 76.0073 112.591 76.2107C112.144 76.4547 111.737 76.6987 111.29 76.902C110.802 77.1053 110.314 77.3087 109.907 77.512C109.582 77.756 109.216 77.6747 108.85 77.5527C108.728 77.756 108.565 77.9187 108.362 78.0407C107.996 78.1627 107.63 78.244 107.223 78.3253C107.02 78.366 106.776 78.0813 106.613 78.244C106.491 78.366 106.41 78.5287 106.207 78.5693C105.922 78.61 105.678 78.6913 105.393 78.6913C105.109 78.732 104.824 78.6913 104.499 78.7727C103.807 78.976 103.116 78.732 102.465 78.61C102.384 78.61 102.303 78.488 102.221 78.4473V78.0407C102.059 77.9187 101.937 78.0407 101.774 78C101.652 77.9593 101.489 77.9187 101.449 77.8373C101.245 77.512 101.083 77.146 101.327 76.8207C101.489 76.6173 101.489 76.536 101.367 76.3733C101.245 76.1293 101.367 76.0073 101.652 75.9667C101.774 75.9667 101.896 76.0073 101.977 76.0073V75.6007C102.018 75.6007 102.018 75.5193 102.059 75.438C102.547 75.316 103.075 75.1127 103.726 75.316C103.929 75.3973 104.295 75.3973 104.58 75.316C105.231 75.194 105.8 75.072 106.369 74.95C106.735 74.828 107.061 74.706 107.427 74.8687C107.671 74.95 107.63 74.706 107.711 74.6247C107.874 74.5433 108.077 74.462 108.281 74.34L110.151 73.486C110.477 73.3233 110.68 73.0387 110.924 72.8353C111.371 72.3067 111.412 72.0627 111.005 71.534C110.761 71.2087 110.517 71.046 110.233 70.7613C109.826 70.3547 109.379 69.9887 108.769 69.826C107.915 69.46 107.061 69.0127 106.207 68.6467C105.353 68.1993 104.783 67.4673 104.173 66.776C104.011 66.6133 103.929 66.3693 103.929 66.2067C103.767 65.068 103.929 64.092 104.905 63.2787C104.905 63.238 105.027 63.1973 105.027 63.1567C105.068 62.5873 105.597 62.384 105.881 62.018L107.752 60.6353C108.362 60.2693 109.013 59.944 109.663 59.6593C110.273 59.334 110.965 59.0087 111.615 58.8053C112.388 58.5613 113.12 58.3987 113.893 58.1953C114.421 58.114 114.909 57.992 115.438 57.992C116.251 57.992 116.902 58.1953 117.593 58.5207C117.878 58.6833 118.325 58.8053 118.569 59.0493C118.976 59.456 119.261 59.944 119.342 60.5133C119.423 61.0827 119.383 61.6113 119.423 62.2213C119.423 62.262 119.423 62.262 119.383 62.3433C119.301 63.0753 118.732 63.5227 117.878 63.36C117.593 63.2787 117.349 63.36 117.146 63.5227ZM112.144 58.8867C112.632 59.0087 112.876 59.09 113.161 59.1713C113.364 59.212 113.567 59.09 113.567 58.8053C113.161 58.7647 112.754 58.724 112.144 58.8867ZM113.039 61.5707C113.649 61.652 113.893 61.4893 114.015 61.164V61.0827C113.933 61.042 113.811 61.042 113.771 61.042C113.567 61.1233 113.405 61.286 113.039 61.5707ZM106.044 63.1973L106.166 62.994C106.125 62.8313 105.881 62.7093 105.678 62.75L105.637 62.8313C105.637 62.994 105.8 63.1973 106.044 63.1973ZM111.29 61.774L111.656 61.4893C111.697 61.4893 111.615 61.3267 111.615 61.286C111.412 61.2453 111.168 61.408 111.127 61.5707C111.127 61.6113 111.168 61.652 111.29 61.774ZM102.628 76.6173C102.587 76.4953 102.587 76.4547 102.547 76.4547C102.425 76.3327 102.303 76.414 102.181 76.4953C102.181 76.5767 102.14 76.658 102.14 76.78L102.181 76.8207C102.384 76.7393 102.506 76.6987 102.628 76.6173ZM123.243 62.7907C123.65 62.8313 123.446 63.6447 124.056 63.2787C124.341 63.726 123.934 64.092 124.056 64.5393C124.178 64.4173 124.3 64.3767 124.422 64.2953C124.504 64.6207 124.585 64.8647 124.422 65.2307C123.406 67.508 121.616 73.8113 121.616 76.902C120.559 77.7967 120.966 77.3087 119.99 77.3087H119.908C118.526 77.9593 118.973 75.7227 118.282 76.3327C117.916 75.438 117.834 74.5027 117.997 73.608C118.363 71.9 118.607 70.1513 119.258 68.484L120.64 64.1733C123.324 59.1307 121.738 65.0273 123.243 62.7907ZM122.104 59.2527C121.901 58.8053 122.552 58.5207 122.348 58.114C121.942 57.3007 124.788 55.8773 125.195 57.504C125.358 57.626 125.398 57.8293 125.398 58.0733C125.48 59.09 124.748 60.92 124.056 60.432C123.731 60.188 122.511 59.944 122.104 59.2527ZM119.705 69.8667L120.03 70.558C118.851 74.1773 121.088 70.7207 120.6 69.6633C120.6 69.6227 120.518 69.582 120.478 69.46C120.315 69.826 119.908 69.6227 119.705 69.8667ZM124.788 57.9513C124.463 58.358 124.463 58.3987 124.585 58.48C124.626 58.602 124.748 58.724 124.91 58.602C124.91 58.3987 125.195 58.0733 124.788 57.9513ZM138.603 64.2547C137.912 64.4987 137.343 64.8647 136.773 65.2713C135.635 66.166 134.618 67.142 133.52 68.118L132.829 68.8907C132.747 68.972 132.625 69.094 132.381 69.0533C132.259 69.0127 132.259 69.1347 132.219 69.216C132.178 69.6227 132.178 69.6227 131.853 69.704C131.771 69.7447 131.69 69.7447 131.609 69.7447C131.568 69.7447 131.568 69.7853 131.487 69.7853C131.365 69.948 131.69 69.9887 131.527 70.3547L131.161 70.7207C130.511 71.412 129.982 72.1847 129.535 72.9573C129.453 73.0387 129.331 73.0793 129.291 73.242C129.047 73.6487 128.559 73.852 128.437 74.462C128.396 74.8687 128.071 75.316 127.867 75.7227L127.379 76.5767C127.217 76.78 127.135 77.024 127.013 77.2273C126.81 77.634 126.525 77.878 125.956 77.8373C125.915 77.8373 125.793 77.8373 125.753 77.878L125.387 78.0407C125.387 77.7153 125.631 77.3087 125.143 77.0647L124.37 77.5933C124.207 77.4713 124.126 77.1867 123.882 77.0647C123.557 76.902 123.516 76.6173 123.76 76.3327C123.882 76.17 123.963 76.0073 123.882 75.7227C123.841 75.5193 123.882 75.316 123.923 75.1127C124.451 73.8113 124.695 72.4693 125.224 71.168C125.346 70.7207 125.387 70.2733 125.793 69.8667C125.793 69.826 125.834 69.7853 125.834 69.7853C125.793 69.1347 125.915 68.6467 126.241 68.1587C126.322 67.996 126.241 67.752 126.281 67.5893L126.688 66.4913L126.81 66.0847C126.973 64.9867 127.42 64.0513 127.664 62.9127C127.786 62.262 127.908 61.5707 128.152 60.8387C128.193 60.554 128.315 60.31 128.599 60.1473L129.047 60.4727C129.209 60.676 129.087 60.798 128.803 60.798C128.762 60.798 128.721 60.8387 128.681 60.8387C128.599 61.0827 128.884 61.2047 128.843 61.4487C128.762 61.5707 128.681 61.652 128.599 61.774L128.884 62.262L129.047 62.75C129.413 62.4247 129.413 62.018 129.453 61.6927C129.535 61.3673 129.616 61.0013 129.738 60.676C129.982 60.7167 130.104 60.798 130.348 60.798C130.429 60.798 130.47 60.7573 130.511 60.676C130.511 60.6353 130.511 60.5133 130.47 60.4727C130.348 60.3913 130.145 60.3913 129.982 60.2693C129.982 60.2287 129.982 60.1067 129.982 60.066C129.982 59.9847 130.145 59.9033 130.226 59.944C130.47 59.9847 130.714 60.066 130.917 60.1473C131.283 60.92 130.917 61.652 130.836 62.3433C130.917 62.3433 131.283 62.262 131.365 62.14C131.405 62.262 131.446 62.3433 131.446 62.4247C131.243 63.3193 130.958 64.2547 130.755 65.2307L130.673 65.8C130.958 65.922 131.202 65.8407 131.283 65.678C131.975 64.6613 133.154 63.9293 134.089 63.0347C134.211 62.872 134.333 62.8313 134.496 62.7093C135.065 62.384 135.594 61.9773 136.163 61.652C136.448 61.6927 136.123 61.896 136.285 62.018L136.855 62.14C136.977 61.9773 136.733 61.9367 136.651 61.774C136.855 61.3673 137.099 61.0013 137.587 60.798C137.953 60.676 138.278 60.5947 138.644 60.676C138.888 60.7573 138.929 60.7167 138.969 60.3913C139.051 60.188 139.173 60.1067 139.335 60.1473C139.864 60.1473 140.311 59.9847 140.759 59.7407C141.084 59.822 141.328 59.8627 141.694 59.9033C141.979 59.9033 142.223 59.9847 142.507 60.066C143.361 60.31 143.605 60.92 143.687 61.5707C143.809 61.9773 143.89 62.506 143.524 62.872C143.443 62.9533 143.483 63.1567 143.483 63.238C143.321 63.2787 143.199 63.2787 143.117 63.2787C142.792 63.36 142.629 63.4413 142.711 63.5633C142.751 63.6447 142.792 63.6447 143.158 63.6447C143.158 63.6447 143.199 63.726 143.158 63.7667C143.077 63.97 142.995 64.092 142.914 64.2547C142.67 64.4987 142.345 64.7833 142.385 65.1493L141.735 65.5967C141.735 65.8 141.694 66.0847 141.572 66.3693L141.165 66.9793C140.759 67.7927 140.352 68.606 139.864 69.4193C139.376 70.07 139.213 70.7207 138.929 71.3713C138.847 71.534 138.807 71.6967 138.766 71.8187C138.156 72.7133 138.115 73.73 137.831 74.6653C137.749 75.0313 137.871 75.316 138.197 75.4787C138.563 75.7227 138.685 76.048 138.603 76.3733C138.563 76.5767 138.725 76.7393 138.766 76.9427C138.603 77.4713 138.034 77.8373 137.546 78.1627C137.465 78.2847 137.261 78.2847 137.058 78.2847C136.123 78.244 135.35 77.878 134.781 77.1867C134.374 76.6173 134.089 75.8853 134.171 75.1533C134.211 74.218 134.293 73.364 134.618 72.4287C135.147 70.9647 135.716 69.5007 136.529 68.118C136.855 67.4673 137.099 66.898 137.505 66.3693C137.953 65.678 138.237 64.9867 138.603 64.2547ZM135.716 73.486C135.797 73.486 135.838 73.5267 135.838 73.486C136.367 73.0387 136.204 72.3067 136.611 71.778V71.5747L136.57 71.534C136.489 71.534 136.407 71.534 136.367 71.534L136.204 71.7373C136.041 72.266 135.797 72.9167 135.716 73.486ZM127.745 64.3767C128.071 64.3767 128.315 64.4173 128.599 64.4173C128.721 64.2953 128.721 64.1733 128.681 64.0513C128.599 63.7667 128.437 63.6853 128.233 63.8073C128.152 63.9293 127.989 64.092 127.786 64.092C127.745 64.1327 127.745 64.2547 127.745 64.3767ZM137.18 70.192C136.692 70.2327 136.814 70.558 136.692 70.6393C136.611 70.8427 136.448 70.9647 136.204 71.168C136.611 71.1273 136.814 71.0867 136.855 70.9647C136.977 70.7207 137.058 70.558 137.18 70.192ZM140.433 63.8073L141.165 63.6853C141.165 63.6447 141.165 63.5633 141.206 63.5227L140.596 63.4413C140.555 63.4007 140.433 63.482 140.393 63.482C140.352 63.5633 140.311 63.6447 140.311 63.726C140.311 63.7667 140.433 63.8073 140.433 63.8073ZM133.561 67.264C133.683 67.1013 133.601 66.9387 133.601 66.8167C133.561 66.776 133.398 66.7353 133.317 66.776C133.276 66.776 133.195 66.898 133.195 66.9387C133.317 67.0607 133.317 67.264 133.561 67.264ZM154.552 75.9667C154.714 76.292 154.674 76.5767 154.592 76.9427C154.186 78.122 153.82 79.342 153.413 80.4807C153.006 81.782 152.437 82.9613 151.705 84.0593C151.258 84.7507 150.729 85.32 150.119 85.8487C150.038 85.8893 149.997 86.0113 149.916 86.0113C149.672 86.052 149.387 85.93 149.184 86.296C149.062 86.4993 148.777 86.5807 148.533 86.662C148.208 86.8247 147.842 86.9873 147.435 86.8247C147.232 86.7027 147.028 86.784 146.866 86.7433C146.622 86.7433 146.378 86.7433 146.174 86.662C145.361 86.296 144.466 86.0927 143.897 85.2793C143.816 85.198 143.734 85.1167 143.653 85.076C142.799 84.588 142.148 83.856 141.66 83.0833C141.579 82.9207 141.457 82.7987 141.335 82.758C140.888 82.392 140.684 81.9853 140.562 81.416C140.562 81.3753 140.522 81.2533 140.481 81.1313C140.278 80.2773 140.562 79.6673 141.376 79.22C141.742 78.976 142.026 79.0573 142.27 79.464C142.27 79.464 142.27 79.5453 142.311 79.5453C142.392 79.6673 142.474 79.7893 142.555 79.7893C142.636 79.7487 142.718 79.6673 142.718 79.5453C142.84 79.4233 142.84 79.3013 142.88 79.1387C143.572 79.4233 143.897 79.9113 144.304 80.3993C145.076 81.3347 145.89 82.148 146.866 82.7987C147.272 83.124 147.435 83.124 147.842 82.7987C148.492 82.2293 148.858 81.4567 149.184 80.7653C149.753 79.5047 150.322 78.2847 150.607 76.9427C150.729 76.536 150.892 76.0887 151.054 75.682C151.176 75.3973 151.258 75.072 151.136 74.7467C150.851 74.6653 150.648 74.8687 150.404 75.0313C149.794 75.3973 149.021 75.5193 148.33 75.6007C147.882 75.7227 147.435 75.6007 147.028 75.5193C146.174 75.316 145.564 74.8687 144.914 74.3807C144.1 73.7707 143.775 72.754 143.572 71.778C143.328 70.5987 143.49 69.3787 143.897 68.24C144.222 67.02 144.792 65.922 145.564 64.9053C146.215 64.0107 147.028 63.1973 147.801 62.4653C147.964 62.3027 148.126 62.14 148.33 62.0587C148.655 61.9367 148.899 61.7333 149.143 61.53C149.834 61.0013 150.607 60.554 151.542 60.554C151.705 60.554 151.786 60.4727 151.908 60.3913C152.071 60.31 152.274 60.2693 152.437 60.2693C153.291 60.2287 154.145 60.2693 154.958 60.554C155.243 60.6353 155.528 60.7573 155.731 60.8793C156.341 61.2047 156.341 61.2453 156.463 62.018C156.87 62.14 157.073 61.6927 157.439 61.652C157.561 61.7333 157.683 61.8147 157.805 61.9367C158.212 62.262 158.13 62.8313 158.334 63.238C158.456 63.4413 158.334 63.726 158.293 64.0107C158.212 64.2953 158.13 64.5393 158.09 64.8647C158.008 65.0273 157.886 65.2307 157.927 65.3933C158.13 66.166 157.602 66.8167 157.358 67.4673C157.236 67.9553 157.032 68.4433 156.91 68.9313C156.504 70.68 156.016 72.4287 155.487 74.1367L155.121 75.1533C154.958 75.438 154.755 75.6413 154.552 75.9667ZM147.191 70.68C147.191 71.5747 147.72 71.9407 148.452 71.6967C148.492 71.656 148.533 71.656 148.533 71.6153C149.184 71.3307 149.794 70.9647 150.322 70.5173C150.932 70.0293 151.38 69.3787 152.071 68.972C152.193 68.8907 152.234 68.7687 152.315 68.6467C152.437 68.362 152.6 68.118 152.762 67.874C153.413 67.02 153.779 66.044 153.942 64.946C154.023 64.458 153.942 64.336 153.494 64.092C153.128 64.0107 152.803 64.0107 152.396 64.092C151.868 64.2953 151.38 64.4987 150.932 64.8647C150.119 65.434 149.387 66.166 148.777 67.02C148.411 67.5487 148.004 68.118 147.72 68.6873C147.435 69.338 147.313 70.1107 147.191 70.68ZM151.461 79.1387L151.664 79.0167C151.908 78.2033 152.234 77.39 152.518 76.536C152.884 75.56 153.088 74.462 153.657 73.4453C153.698 73.364 153.738 73.242 153.698 73.1607C153.698 73.0793 153.576 72.9573 153.494 72.9167C153.413 72.876 153.291 72.9167 153.25 72.998C153.128 73.2013 153.006 73.4453 152.925 73.6893C152.559 74.9093 152.315 76.0887 151.868 77.268C151.705 77.5933 151.746 78 151.502 78.2847C151.583 78.5287 151.258 78.854 151.461 79.1387ZM154.836 74.5433C154.552 74.9907 154.552 74.9907 154.674 75.316C154.796 75.1127 154.999 74.8687 154.836 74.5433Z" fill="black"/>
</svg>
