<svg width="228" height="97" viewBox="0 0 228 97" fill="none" xmlns="http://www.w3.org/2000/svg">
<path d="M97.9243 30V5.31533H88.449V0.720001H112.3V5.31533H102.825V30H97.9243ZM115.958 4.70533V0.211668H120.858V4.70533H115.958ZM115.958 30V8.04H120.858V30H115.958ZM126.908 30L126.949 0.720001H131.91V18.6133L139.942 8.04H146.062L137.543 19.02L146.794 30H140.308L131.91 19.4267V30H126.908ZM147.193 19.1013V15.2583H159.393V19.1013H147.193ZM168.456 30V5.31533H158.98V0.720001H182.831V5.31533H173.356V30H168.456ZM192.525 30.61C190.329 30.61 188.411 30.1152 186.771 29.1257C185.13 28.1361 183.856 26.7738 182.948 25.0387C182.053 23.29 181.606 21.2838 181.606 19.02C181.606 16.7156 182.067 14.6958 182.989 12.9607C183.91 11.2256 185.191 9.87 186.832 8.894C188.472 7.918 190.37 7.43 192.525 7.43C194.734 7.43 196.659 7.92478 198.3 8.91433C199.94 9.90389 201.214 11.273 202.122 13.0217C203.03 14.7568 203.485 16.7562 203.485 19.02C203.485 21.2973 203.024 23.3103 202.102 25.059C201.194 26.7941 199.919 28.1564 198.279 29.146C196.639 30.122 194.721 30.61 192.525 30.61ZM192.525 26.0147C194.477 26.0147 195.927 25.364 196.876 24.0627C197.825 22.7613 198.3 21.0804 198.3 19.02C198.3 16.8918 197.818 15.1973 196.856 13.9367C195.893 12.6624 194.45 12.0253 192.525 12.0253C191.21 12.0253 190.126 12.3236 189.272 12.92C188.431 13.5029 187.808 14.323 187.401 15.3803C186.994 16.4241 186.791 17.6373 186.791 19.02C186.791 21.1482 187.272 22.8494 188.235 24.1237C189.211 25.3843 190.641 26.0147 192.525 26.0147ZM207.924 30L207.965 0.720001H212.926V18.6133L220.958 8.04H227.078L218.558 19.02L227.81 30H221.324L212.926 19.4267V30H207.924ZM0.135614 86L9.36695 56.72H16.5446L25.7759 86H20.7333L12.3559 59.7293H13.4539L5.17828 86H0.135614ZM5.27995 79.656V75.081H20.6519V79.656H5.27995ZM38.2565 86.61C36.2367 86.61 34.4745 86.1017 32.9698 85.085C31.4652 84.0683 30.2994 82.6857 29.4725 80.937C28.6456 79.1883 28.2322 77.216 28.2322 75.02C28.2322 72.7969 28.6456 70.8178 29.4725 69.0827C30.3129 67.334 31.499 65.9581 33.0308 64.955C34.5626 63.9383 36.3655 63.43 38.4395 63.43C40.527 63.43 42.2757 63.9383 43.6855 64.955C45.1088 65.9581 46.1865 67.334 46.9185 69.0827C47.6505 70.8313 48.0165 72.8104 48.0165 75.02C48.0165 77.2024 47.6505 79.1748 46.9185 80.937C46.1865 82.6857 45.0953 84.0683 43.6448 85.085C42.1944 86.1017 40.3983 86.61 38.2565 86.61ZM39.0088 82.218C40.3237 82.218 41.381 81.9198 42.1808 81.3233C42.9942 80.7133 43.5838 79.8661 43.9498 78.7817C44.3294 77.6972 44.5192 76.4433 44.5192 75.02C44.5192 73.5831 44.3294 72.3292 43.9498 71.2583C43.5838 70.1739 43.0077 69.3334 42.2215 68.737C41.4353 68.127 40.4186 67.822 39.1715 67.822C37.8566 67.822 36.7722 68.1473 35.9182 68.798C35.0642 69.4351 34.4338 70.3027 34.0272 71.4007C33.6205 72.4851 33.4172 73.6916 33.4172 75.02C33.4172 76.362 33.6137 77.582 34.0068 78.68C34.4135 79.7644 35.0303 80.6252 35.8572 81.2623C36.684 81.8994 37.7346 82.218 39.0088 82.218ZM44.5192 86V70.5873H43.9091V56.72H48.8502V86H44.5192ZM60.4884 86L52.5178 64.04H57.4181L62.9488 79.961L68.4591 64.04H73.3798L65.4091 86H60.4884ZM86.2184 86.61C83.9953 86.61 82.0433 86.1288 80.3624 85.1663C78.6815 84.2039 77.3666 82.8687 76.4177 81.1607C75.4824 79.4527 75.0147 77.4871 75.0147 75.264C75.0147 72.8647 75.4756 70.7839 76.3974 69.0217C77.3191 67.2459 78.6001 65.87 80.2404 64.894C81.8806 63.918 83.7784 63.43 85.9337 63.43C88.211 63.43 90.1427 63.9654 91.7287 65.0363C93.3283 66.0937 94.5144 67.5916 95.287 69.53C96.0597 71.4684 96.3511 73.7526 96.1614 76.3823H91.3017V74.593C91.2881 72.2072 90.8679 70.4653 90.041 69.3673C89.2141 68.2693 87.9128 67.7203 86.137 67.7203C84.1308 67.7203 82.6397 68.3439 81.6637 69.591C80.6877 70.8246 80.1997 72.6342 80.1997 75.02C80.1997 77.2431 80.6877 78.9647 81.6637 80.1847C82.6397 81.4047 84.063 82.0147 85.9337 82.0147C87.1401 82.0147 88.1771 81.7503 89.0447 81.2217C89.9258 80.6794 90.6036 79.9 91.078 78.8833L95.9174 80.3473C95.0769 82.3264 93.7756 83.865 92.0134 84.963C90.2647 86.061 88.333 86.61 86.2184 86.61ZM78.6544 76.3823V72.6817H93.762V76.3823H78.6544ZM100.698 86V64.04H105.029V69.3877L104.501 68.6963C104.772 67.9643 105.131 67.3001 105.578 66.7037C106.039 66.0937 106.588 65.5921 107.225 65.199C107.767 64.833 108.364 64.5483 109.015 64.345C109.679 64.1281 110.357 63.9993 111.048 63.9587C111.739 63.9044 112.41 63.9316 113.061 64.04V68.615C112.41 68.4252 111.658 68.3642 110.804 68.432C109.963 68.4998 109.204 68.737 108.527 69.1437C107.849 69.5097 107.293 69.9773 106.859 70.5467C106.439 71.116 106.127 71.7667 105.924 72.4987C105.721 73.2171 105.619 73.9966 105.619 74.837V86H100.698ZM129.812 86C128.362 86.2711 126.938 86.3863 125.542 86.3457C124.159 86.3186 122.919 86.0678 121.821 85.5933C120.723 85.1053 119.889 84.3394 119.32 83.2957C118.819 82.3468 118.554 81.3776 118.527 80.388C118.5 79.3984 118.486 78.2801 118.486 77.033V57.94H123.366V76.7483C123.366 77.6294 123.373 78.4021 123.387 79.0663C123.414 79.7306 123.556 80.2728 123.814 80.693C124.302 81.5063 125.081 81.9604 126.152 82.0553C127.223 82.1502 128.443 82.096 129.812 81.8927V86ZM114.501 67.883V64.04H129.812V67.883H114.501ZM134.941 60.7053V56.2117H139.841V60.7053H134.941ZM134.941 86V64.04H139.841V86H134.941ZM154.411 86.61C151.7 86.61 149.497 86 147.803 84.78C146.108 83.56 145.078 81.8452 144.712 79.6357L149.714 78.863C149.972 79.9474 150.541 80.8014 151.422 81.425C152.303 82.0486 153.415 82.3603 154.757 82.3603C155.936 82.3603 156.844 82.1299 157.481 81.669C158.132 81.1946 158.457 80.5507 158.457 79.7373C158.457 79.2358 158.335 78.8359 158.091 78.5377C157.861 78.2259 157.346 77.9277 156.546 77.643C155.746 77.3583 154.519 76.9991 152.866 76.5653C151.022 76.0773 149.558 75.5554 148.474 74.9997C147.389 74.4303 146.61 73.7593 146.135 72.9867C145.661 72.214 145.424 71.2787 145.424 70.1807C145.424 68.8116 145.783 67.6187 146.501 66.602C147.22 65.5853 148.223 64.8059 149.511 64.2637C150.798 63.7079 152.317 63.43 154.065 63.43C155.773 63.43 157.285 63.6943 158.6 64.223C159.928 64.7517 160.999 65.504 161.812 66.48C162.626 67.456 163.127 68.6014 163.317 69.9163L158.315 70.811C158.193 69.8757 157.766 69.1369 157.034 68.5947C156.316 68.0524 155.353 67.7474 154.147 67.6797C152.994 67.6119 152.066 67.7881 151.361 68.2083C150.656 68.615 150.304 69.1911 150.304 69.9367C150.304 70.3569 150.446 70.7161 150.731 71.0143C151.015 71.3126 151.585 71.6108 152.439 71.909C153.306 72.2072 154.594 72.5732 156.302 73.007C158.051 73.4543 159.447 73.9694 160.491 74.5523C161.548 75.1217 162.307 75.8062 162.768 76.606C163.242 77.4058 163.48 78.375 163.48 79.5137C163.48 81.7232 162.673 83.4583 161.06 84.719C159.46 85.9797 157.244 86.61 154.411 86.61ZM168.34 60.7053V56.2117H173.24V60.7053H168.34ZM168.34 86V64.04H173.24V86H168.34ZM194.52 86V75.4267C194.52 74.7353 194.473 73.9694 194.378 73.129C194.283 72.2886 194.059 71.482 193.707 70.7093C193.368 69.9231 192.853 69.2792 192.161 68.7777C191.484 68.2761 190.562 68.0253 189.396 68.0253C188.772 68.0253 188.156 68.127 187.546 68.3303C186.936 68.5337 186.38 68.8861 185.878 69.3877C185.39 69.8757 184.997 70.5534 184.699 71.421C184.401 72.275 184.252 73.373 184.252 74.715L181.344 73.4747C181.344 71.604 181.703 69.9096 182.422 68.3913C183.154 66.8731 184.225 65.6667 185.634 64.772C187.044 63.8638 188.779 63.4097 190.84 63.4097C192.466 63.4097 193.808 63.6808 194.866 64.223C195.923 64.7652 196.763 65.4566 197.387 66.297C198.011 67.1374 198.471 68.0321 198.77 68.981C199.068 69.9299 199.258 70.8313 199.339 71.6853C199.434 72.5258 199.481 73.2103 199.481 73.739V86H194.52ZM179.29 86V64.04H183.662V70.8517H184.252V86H179.29ZM214.019 96.37C212.799 96.37 211.626 96.1802 210.501 95.8007C209.39 95.4211 208.386 94.8721 207.492 94.1537C206.597 93.4488 205.865 92.5948 205.296 91.5917L209.81 89.355C210.23 90.1548 210.82 90.7444 211.579 91.124C212.351 91.5171 213.172 91.7137 214.039 91.7137C215.056 91.7137 215.964 91.5307 216.764 91.1647C217.564 90.8122 218.18 90.2836 218.614 89.5787C219.061 88.8873 219.272 88.0198 219.244 86.976V80.7337H219.854V64.04H224.145V87.0573C224.145 87.6131 224.118 88.1418 224.063 88.6433C224.023 89.1584 223.948 89.66 223.84 90.148C223.514 91.5713 222.891 92.7371 221.969 93.6453C221.047 94.5671 219.902 95.2517 218.533 95.699C217.177 96.1463 215.673 96.37 214.019 96.37ZM213.592 86.61C211.572 86.61 209.81 86.1017 208.305 85.085C206.8 84.0683 205.635 82.6857 204.808 80.937C203.981 79.1883 203.567 77.216 203.567 75.02C203.567 72.7969 203.981 70.8178 204.808 69.0827C205.648 67.334 206.834 65.9581 208.366 64.955C209.898 63.9383 211.701 63.43 213.775 63.43C215.862 63.43 217.611 63.9383 219.021 64.955C220.444 65.9581 221.522 67.334 222.254 69.0827C222.986 70.8313 223.352 72.8104 223.352 75.02C223.352 77.2024 222.986 79.1748 222.254 80.937C221.522 82.6857 220.431 84.0683 218.98 85.085C217.53 86.1017 215.734 86.61 213.592 86.61ZM214.344 82.218C215.659 82.218 216.716 81.9198 217.516 81.3233C218.329 80.7133 218.919 79.8661 219.285 78.7817C219.665 77.6972 219.854 76.4433 219.854 75.02C219.854 73.5831 219.665 72.3292 219.285 71.2583C218.919 70.1739 218.343 69.3334 217.557 68.737C216.771 68.127 215.754 67.822 214.507 67.822C213.192 67.822 212.107 68.1473 211.253 68.798C210.399 69.4351 209.769 70.3027 209.362 71.4007C208.956 72.4851 208.752 73.6916 208.752 75.02C208.752 76.362 208.949 77.582 209.342 78.68C209.749 79.7644 210.366 80.6252 211.192 81.2623C212.019 81.8994 213.07 82.218 214.344 82.218Z" fill="black"/>
</svg>
