<svg width="194" height="86" viewBox="0 0 194 86" fill="none" xmlns="http://www.w3.org/2000/svg">
<path d="M7.67667 17.4413C7.88 17.4413 8.08333 17.5227 8.04267 17.6853C7.758 18.4987 7.55467 19.2307 7.35133 20.0033C7.27 20.288 7.35133 20.654 7.148 20.9387C6.86333 21.264 6.94467 21.5487 6.98533 21.874C7.026 22.1993 6.98533 22.484 6.94467 22.7687C6.66 24.192 6.82267 25.5747 7.22933 26.9167C7.514 27.6487 8.002 28.2993 8.734 28.7467C9.466 29.194 10.1167 29.1533 10.808 28.95C12.1093 28.462 13.2887 27.852 14.1833 26.9167C14.3053 26.754 14.4273 26.632 14.5493 26.5507C15.3627 26.0627 15.8913 25.3307 16.542 24.7207C16.9893 24.2327 17.2333 23.582 17.5993 23.0533C17.7213 22.7687 17.884 22.5653 18.128 22.4027C18.25 22.2807 18.494 22.2807 18.6973 22.1993C18.7787 22.4027 18.616 22.4433 18.5347 22.5653C18.6973 22.8093 18.8193 23.0533 18.982 23.2973C18.982 23.338 19.0633 23.338 19.1447 23.338C19.348 23.1753 19.2667 22.8907 19.3887 22.6873C19.5513 22.4433 19.714 22.24 19.836 21.9553C19.9987 22.118 20.1207 22.24 20.2833 22.362C20.4053 22.4433 20.6087 22.5247 20.7307 22.6467C20.7713 22.8907 20.812 23.1753 20.812 23.5413C20.9747 23.5007 21.056 23.46 21.1373 23.46C21.178 23.5007 21.2187 23.582 21.2187 23.582C21.2187 24.1513 21.1373 24.6393 20.6087 25.0867C20.446 25.168 20.4867 25.4527 20.3647 25.5747C19.9987 26.1033 19.714 26.5507 19.2667 26.998C18.5753 27.7707 17.8027 28.4213 17.1113 29.1127C16.2167 29.9667 15.1593 30.6173 14.102 31.268C13.858 31.4307 13.614 31.634 13.3293 31.4713C13.2887 31.4713 13.2073 31.4713 13.2073 31.512C12.9633 31.6747 12.8007 32.0407 12.4347 32C12.028 31.878 11.8653 32.122 11.6213 32.244C10.7267 32.488 9.87267 32.4473 8.978 32.3253C8.28667 32.244 7.59533 32 6.98533 31.756C6.86333 31.756 6.74133 31.6747 6.70067 31.5933C6.33467 31.2273 5.84667 31.024 5.39933 30.7393C5.15533 30.536 4.99267 30.3733 4.83 30.1293C4.22 29.316 3.488 27.9333 3.244 26.8353C3.20333 26.388 3.08133 25.9 3.08133 25.412C3.122 24.8833 2.95933 24.3953 3 23.9073C3.08133 23.3787 3 22.8907 3.08133 22.4027C3.08133 22.0367 3.20333 21.63 3.244 21.264C3.32533 20.654 3.44733 20.1253 3.52867 19.5153C3.61 18.9867 3.93533 18.5393 4.01667 17.97C4.098 17.4413 4.30133 16.9127 4.50467 16.384C4.586 16.14 4.708 15.9367 4.83 15.6927C4.952 15.4893 4.952 15.2047 5.03333 14.9607C5.03333 14.92 5.03333 14.8793 5.074 14.8793C5.23667 14.6353 5.52133 14.3913 5.60267 14.1473C5.684 13.8627 5.60267 13.6593 5.76533 13.4153C5.96867 13.09 6.05 12.724 6.21267 12.3987C6.538 11.8293 6.782 11.2193 7.10733 10.6907C7.392 10.162 7.71733 9.75533 8.002 9.26733C8.246 8.77933 8.53067 8.29133 8.81533 7.844C9.38467 6.90867 10.1167 6.09533 10.7673 5.24133C10.8893 5.07867 10.9707 4.95667 11.1333 4.916C11.662 4.59067 12.0687 4.22467 12.3127 3.696C12.3533 3.65533 12.4753 3.61467 12.5973 3.61467C12.6787 3.696 12.6787 3.89933 12.8007 3.89933C12.9633 3.98067 13.0853 3.818 13.1667 3.65533C13.2073 3.61467 13.126 3.574 13.0853 3.53333C12.9633 3.53333 12.8007 3.574 12.5973 3.61467C13.0853 3.04533 13.6547 2.55733 14.3867 2.19133C14.6713 2.02867 14.956 1.78467 15.322 1.70333C16.176 1.41867 16.9893 0.971335 17.9653 1.09333C18.25 1.09333 18.4533 1.012 18.738 1.05267C18.86 1.09333 18.9413 1.256 19.1853 1.21533C19.3887 1.134 19.6327 1.09333 19.836 1.134C20.2833 1.378 20.812 1.33733 21.2593 1.58133C22.4793 2.15067 23.2927 3.00467 23.862 4.062C23.862 4.10267 23.862 4.14333 23.862 4.14333C23.6993 4.63133 24.1467 4.916 24.3093 5.32267C24.4313 5.60733 24.5533 5.93267 24.594 6.21733C24.594 6.82733 24.594 7.39667 24.594 7.966C24.594 8.21 24.594 8.41333 24.3907 8.61667C24.2687 8.698 24.3093 8.82 24.3093 8.942C24.3093 9.22667 24.35 9.552 24.2687 9.83667C23.862 11.2193 23.2927 12.5207 22.4387 13.7813C21.666 14.8387 20.7307 15.7333 19.4293 16.3433C19.1853 16.4247 18.8193 16.506 18.494 16.5467C18.3313 16.5873 18.128 16.506 17.9653 16.4247C17.6807 16.3433 17.396 16.2213 17.03 16.2213C15.9727 16.3433 15.3627 15.8147 14.8747 15.042C15.078 14.798 15.2813 14.5947 15.444 14.31C15.1593 14.0253 14.7933 14.31 14.4273 14.188C14.346 13.7 14.3867 13.1713 14.4273 12.6427C14.5087 12.358 14.6307 12.0327 15.078 11.9107C15.2 11.9107 15.2407 11.7073 15.322 11.626C15.444 11.382 15.688 11.4227 15.932 11.4633C16.054 11.748 15.81 11.992 15.81 12.236C16.054 12.4393 16.298 12.358 16.3387 12.1547C16.5827 11.87 16.8673 11.6667 17.1927 11.5447C17.64 11.6667 17.884 12.0327 17.9247 12.5207C17.9247 12.7647 18.2907 12.846 18.616 12.6427C18.6973 12.5613 18.7787 12.5207 18.8193 12.48C19.714 11.3007 20.2833 10.04 20.6493 8.698C20.69 8.53533 20.7307 8.332 20.7713 8.12867C21.0153 7.51867 20.8933 6.90867 20.7307 6.33933C20.6493 6.014 20.4867 5.72933 20.4053 5.36333C20.2833 4.75333 19.592 4.63133 19.1447 4.306C18.738 4.38733 18.3313 4.306 17.9247 4.26533C17.8027 4.22467 17.64 4.306 17.518 4.38733C16.7453 4.83467 15.8507 5.282 15.2 5.892C14.8747 6.17667 14.3867 6.33933 14.2647 6.82733C13.9393 7.03067 13.614 7.112 13.492 7.51867C13.4513 7.844 13.1667 8.088 12.9633 8.332C12.8007 8.576 12.5973 8.77933 12.4347 9.02333C12.272 8.98267 12.15 8.942 11.9873 8.942C11.9467 8.942 11.8653 8.98267 11.8247 9.02333C11.7433 9.14533 11.8653 9.186 11.9873 9.22667C12.028 9.26733 12.1093 9.26733 12.272 9.38933C12.1093 9.51133 11.9873 9.552 11.906 9.59267C11.662 9.63333 11.3773 9.63333 11.1333 9.674C10.9707 9.75533 10.8487 9.83667 10.8893 9.99933C10.93 10.1213 11.1333 10.1213 11.296 10.1213C11.3367 10.0807 11.3367 10.04 11.3773 10.04C11.4587 9.99933 11.4993 9.99933 11.6213 9.918C11.5807 10.04 11.6213 10.1213 11.5807 10.2027C11.2553 11.0567 10.6453 11.8293 10.076 12.5613C10.0353 12.6833 9.954 12.846 9.954 12.9273C9.91333 13.4153 9.62867 13.822 9.466 14.31C9.01867 15.2453 8.57133 16.14 8.16467 17.1567C8.04267 17.1973 7.88 17.3193 7.67667 17.4007C7.18867 17.7667 7.18867 17.7667 7.392 18.336C7.758 18.0513 7.71733 17.7667 7.67667 17.4413ZM11.2553 7.112C11.418 7.112 11.6213 7.112 11.54 6.868C11.54 6.746 11.4587 6.58333 11.3773 6.38C11.2553 6.624 11.1333 6.78667 11.0113 6.94933C10.9707 6.94933 10.8893 6.94933 10.808 6.99C10.564 7.03067 10.564 7.15267 10.6047 7.39667C10.686 7.43733 10.808 7.64067 10.93 7.55933C11.0113 7.51867 11.1333 7.43733 11.2553 7.27467C11.2553 7.234 11.2553 7.15267 11.2553 7.112ZM4.91133 20.898C4.99267 20.654 5.03333 20.5727 5.074 20.4507C5.15533 20.166 5.196 19.8407 5.23667 19.5967C5.96867 17.0347 6.98533 14.5947 8.16467 12.1547C8.28667 11.9513 8.44933 11.748 8.53067 11.5853C8.57133 11.504 8.53067 11.3413 8.44933 11.3007C8.40867 11.3007 8.20533 11.3007 8.16467 11.3413C7.96133 11.626 7.83933 11.9107 7.47333 12.114C7.31067 12.1547 7.22933 12.358 7.35133 12.5207C7.47333 12.8053 7.392 13.0087 7.27 13.2933C6.86333 14.1067 6.49733 14.92 6.13133 15.8147C6.00933 16.0587 5.806 16.3027 5.684 16.506C5.44 16.7907 5.48067 17.1567 5.44 17.482C5.35867 17.7667 5.15533 17.97 4.78933 18.0513C4.74867 18.0513 4.708 18.1327 4.66733 18.214C4.83 18.336 4.952 18.458 5.15533 18.5393C4.87067 18.9867 5.15533 19.5967 4.62667 20.0033C4.708 20.2473 4.78933 20.532 4.91133 20.898ZM22.1947 8.942C21.666 9.186 21.544 9.51133 21.4627 9.83667C21.3407 10.284 21.178 10.772 20.7307 11.0973C21.0153 11.26 21.2187 11.2193 21.3813 11.016C21.666 10.5687 21.91 10.1213 22.1133 9.674C22.1947 9.51133 22.1947 9.22667 22.1947 8.942ZM20.2427 4.50933C20.4053 4.50933 20.5273 4.59067 20.6087 4.55C20.8527 4.428 20.8933 4.34667 21.1373 3.818C20.812 3.61467 20.568 3.61467 20.446 3.89933C20.324 4.062 20.2833 4.306 20.2427 4.50933ZM18.738 24.3547C18.9007 24.2327 18.982 24.07 18.86 23.948C18.7787 23.826 18.6567 23.704 18.494 23.6227C18.4533 23.6227 18.4127 23.704 18.4127 23.7447C18.4127 23.9887 18.494 24.192 18.738 24.3547ZM8.65267 10.8533C8.978 10.5687 8.978 10.5687 9.05933 10.284C8.57133 10.4467 8.57133 10.4467 8.65267 10.8533ZM27.6071 23.0127C27.5665 23.094 27.6071 23.1753 27.5665 23.2973C27.2818 23.9887 26.9565 24.7207 26.7125 25.4527L26.2651 25.534C26.3465 25.6153 26.5091 25.778 26.5905 25.8593C26.5498 25.9 26.5905 25.9813 26.5498 26.022C26.1838 26.9573 25.8991 27.974 25.6958 28.95C25.5331 29.6007 25.5331 29.6007 24.9231 30.0073C24.9231 30.2107 25.1265 30.2513 25.2078 30.3733C25.2891 30.6173 25.1265 30.902 24.8418 30.902C24.6385 30.902 24.4758 30.8613 24.4351 31.0647C24.2318 31.3493 23.9878 31.4713 23.7031 31.512C23.4591 31.5527 23.2151 31.4307 23.2151 31.2273C23.2151 30.6987 23.1745 30.17 23.3778 29.6413C23.4185 29.56 23.3778 29.438 23.4185 29.316L23.3371 29.2347H23.1338C23.0931 29.3567 23.0525 29.4787 23.0118 29.6413C22.8898 29.926 22.8491 30.2513 22.6865 30.5767C22.5645 30.7393 22.5645 30.902 22.6051 31.0647C22.6051 31.1053 22.5645 31.1867 22.4831 31.1867C22.4831 31.1867 22.3611 31.2273 22.2798 31.146C22.1578 31.024 22.1171 30.8613 21.9545 30.78C21.7105 30.4547 21.5478 30.1293 21.8325 29.7633C21.7105 29.2753 21.7105 28.828 21.8325 28.3807C22.1578 27.1607 22.4018 25.8593 22.6458 24.5987C22.8898 23.7447 23.1338 22.8907 23.2558 21.996C23.3778 21.4673 23.5811 20.9387 23.7438 20.4507C23.7845 20.288 23.9065 20.2067 23.9065 20.0847C23.7845 19.434 24.0691 18.8647 24.1505 18.336C24.1505 17.7667 24.5571 17.2787 24.5571 16.75C24.5165 16.262 24.7198 15.7333 24.7605 15.2047C24.7605 14.92 24.8418 14.92 25.3705 14.8387L25.2485 14.2693C25.3705 14.2693 25.4111 14.2287 25.4925 14.188C25.5738 14.1473 25.6958 14.1067 25.7771 14.1067C25.8585 14.066 25.9398 13.9847 26.0211 13.944C26.1431 13.944 26.3058 13.9847 26.3871 13.9847L26.1025 14.676C26.0211 14.9607 26.2651 15.286 26.0618 15.6113C25.8991 15.774 25.9398 16.0993 25.9398 16.4247C26.0618 16.384 26.1838 16.3433 26.2245 16.3027C26.3058 16.018 26.3871 15.6927 26.7125 15.4893C26.7938 15.3673 26.8751 15.164 26.8751 15.042C27.0378 14.798 27.0378 14.5133 27.0378 14.188C27.3225 14.2693 27.6885 14.31 27.9325 14.31C28.1765 14.3913 28.3391 14.5947 28.3391 14.7167C28.2985 15.042 28.1765 15.3267 28.0951 15.6113C28.2578 15.652 28.3798 15.6113 28.4205 15.6113C28.6645 15.3673 28.9898 15.3267 29.2338 15.0827C29.4371 14.798 29.8031 14.676 30.1285 14.5947C30.2098 14.554 30.2911 14.5133 30.2505 14.4727C30.6165 14.066 31.0638 13.9847 31.5111 13.7813L33.2598 13.7407L33.5445 13.9033C34.6018 14.5947 34.8458 15.4893 34.8458 16.4653C34.8458 16.5873 34.7238 16.8313 34.8458 16.9533C35.1305 17.2787 34.8865 17.7667 35.2118 18.092C35.4151 18.2547 35.4151 18.4173 35.4151 18.702C35.4151 18.7427 35.6591 18.824 35.7811 18.824C35.7811 18.9867 35.8625 19.19 35.8218 19.3933C35.8625 19.678 35.6998 19.8407 35.2525 19.8407C35.1711 19.8 34.9678 19.7187 34.8051 19.8813C34.9678 20.166 35.3338 20.2473 35.5778 20.532C35.5371 20.532 35.4151 20.5727 35.4151 20.6133C35.2931 20.654 34.4391 20.898 34.3171 20.8573C34.2358 20.898 34.1545 20.898 34.1138 20.9793C34.0731 21.1013 33.8291 21.0607 33.7071 20.9387C33.4225 20.654 33.0565 20.4507 32.6091 20.3287C32.0805 19.8 31.5925 19.2307 31.5518 18.5393C31.5111 18.092 31.5111 18.092 30.9825 17.726C31.0231 18.2547 31.0231 18.2547 30.7385 18.6207C30.5758 18.7833 30.3725 18.9867 30.2911 19.1087C29.9658 19.312 29.8031 19.434 29.6405 19.8C29.5998 20.044 29.3151 20.288 29.1118 20.532C28.8271 20.9387 28.6238 21.386 28.4205 21.7927C28.0951 22.1587 27.9731 22.6467 27.5665 22.972C27.4851 22.8907 27.4038 22.7687 27.3225 22.6873C27.1598 22.6467 26.9565 22.728 26.9565 22.8907C26.9158 22.9313 26.9971 23.0127 26.9971 23.1347C27.2411 23.094 27.4445 23.0127 27.6071 23.0127ZM25.9398 18.3767L25.8585 17.4007C25.6551 17.726 25.6145 17.8073 25.4925 17.97C25.3705 18.092 25.2485 18.1733 25.2891 18.336C25.6145 18.6207 25.8991 18.58 25.9398 18.3767ZM28.4205 17.116C28.5018 17.0347 28.6238 17.0347 28.6645 16.994C28.7051 16.9533 28.7865 16.75 28.7051 16.75C28.6238 16.7093 28.4611 16.6687 28.4205 16.7093C28.3391 16.75 28.2578 16.8313 28.2171 16.9533C28.1765 16.994 28.2985 17.0753 28.4205 17.116ZM42.4791 14.1067C42.6824 14.188 42.5604 14.432 42.6824 14.554C42.8451 14.6353 43.2111 14.5133 43.3331 14.31C43.4144 14.1067 43.3331 13.9033 43.3737 13.6187C43.8617 13.6187 44.3904 13.578 44.8784 13.6187C45.0411 13.6187 45.2444 13.7 45.4071 13.7813C45.6104 13.9033 45.8544 13.944 46.1391 13.8627C46.5864 13.822 47.0744 13.9847 47.4811 14.1067C47.6844 14.4727 47.8877 14.0253 48.0504 14.1473C48.2944 14.2693 48.3757 14.554 48.7417 14.554C48.9044 14.554 49.1484 14.6353 49.3111 14.7573C50.2871 15.2453 51.0597 15.9773 51.4257 17.0347C51.6697 17.604 51.8324 18.1733 51.7917 18.8647C51.7511 19.3527 51.7511 19.3527 51.3037 19.8407C51.3851 19.922 51.4257 20.044 51.5071 20.1253C51.4664 20.2067 51.5071 20.288 51.4257 20.3287C51.0191 21.1013 50.4904 21.7927 49.7584 22.3213C49.5551 22.4433 49.3517 22.6467 49.1891 22.6873C48.8637 22.8093 48.4164 22.8093 48.1317 23.0127C47.8064 23.216 47.4811 23.338 47.1557 23.4193C46.9931 23.338 46.9117 23.2567 46.7897 23.1753C46.2611 23.6633 46.2611 23.6633 45.7324 23.6633C45.2851 23.6633 44.8784 23.582 44.4717 23.3787C44.4311 22.8907 44.0651 23.1753 43.7804 23.1753C43.6177 23.094 43.4551 22.9313 43.2517 22.7687C43.0891 22.6873 42.9671 22.5247 42.8044 22.5247C42.2757 22.484 42.3977 22.118 42.3571 21.7927C42.1537 21.7927 42.0317 21.7927 41.8691 21.7927C41.7877 21.752 41.7471 21.7113 41.7471 21.7113C41.6657 21.5487 41.7877 21.264 41.5437 21.264C41.4217 21.264 41.2591 21.4267 41.1777 21.5487C41.0557 21.9553 40.8931 22.362 40.8117 22.8093C40.6491 23.46 40.5271 24.1107 40.4457 24.7613C40.3644 25.2493 40.4051 25.6967 40.4864 26.144C40.5271 26.5507 40.6084 26.998 40.6491 27.4453C41.0557 27.8113 41.5031 28.2587 41.9911 28.6653C42.1537 28.6653 42.4384 28.6247 42.6824 28.584C43.2111 28.5027 43.8211 28.5433 44.3904 28.2993C44.8784 28.0553 45.4071 28.0147 45.9357 27.73C46.3831 27.486 46.9117 27.3233 47.3997 27.0793C47.9284 26.7947 48.4164 26.51 48.9044 26.1847C49.5957 25.7373 50.2871 25.2493 50.8971 24.802C51.0597 24.68 51.2224 24.5987 51.3851 24.5173C51.5071 24.4767 51.7511 24.4767 51.7917 24.5173C52.0764 24.8427 52.4424 24.802 52.8084 24.802C52.8897 24.8427 52.9711 24.802 53.0524 24.802C53.7031 24.8833 53.7844 25.0053 53.6624 25.8187C53.7844 25.9 53.9471 25.9813 54.1097 26.1033C54.0691 27.3233 53.1744 28.0147 52.2391 28.5433C51.8731 28.7467 51.5477 28.7873 51.1411 28.9093C51.0191 29.072 50.8564 29.316 50.7344 29.5193C50.6124 29.7227 50.1651 29.2753 50.1651 29.7633C49.7584 30.1293 49.3111 30.414 48.8637 30.536C48.6604 30.5767 48.4571 30.6173 48.3351 30.6987C47.5217 31.268 46.6271 31.5527 45.7324 31.878C44.3091 32.3253 42.9264 32.4473 41.4624 32.2847C40.8931 32.2033 40.3237 31.9593 40.2017 31.268C40.2017 31.268 40.1611 31.2273 40.1204 31.1867C39.9984 31.146 39.9171 31.146 39.8764 31.268C39.8357 31.3493 39.7951 31.39 39.7951 31.4713C39.6324 31.5527 39.5104 31.4713 39.3884 31.39C39.0631 31.146 38.7377 30.9427 38.4124 30.658C38.2091 30.414 38.0057 30.17 37.7617 29.926C37.7211 29.804 37.6397 29.7227 37.6397 29.6413C37.3551 28.6653 36.7044 27.7707 36.7857 26.6727C36.7857 26.388 36.7044 26.1033 36.6637 25.8187C36.6231 24.6393 36.7044 23.3787 37.2331 22.24C37.2737 22.0773 37.3551 21.9147 37.3144 21.6707C37.2737 21.3453 37.2737 21.02 37.5584 20.7353C37.7211 20.5727 37.8024 20.288 37.9244 20.0847C37.7211 19.8407 37.8837 19.6373 38.0464 19.434C38.1684 19.2307 38.2497 18.946 38.2497 18.702C38.4124 18.2547 38.5751 17.8073 39.1851 17.6853C39.2664 17.6853 39.3884 17.4413 39.2257 17.36C39.0631 17.1567 39.1444 16.994 39.2664 16.872C39.3884 16.75 39.5511 16.628 39.6731 16.506C39.7951 16.4247 39.9984 16.3433 39.9984 16.2213C40.1204 15.53 40.6897 15.2047 41.1371 14.798C41.4217 14.5133 41.8691 14.3507 42.2757 14.1067C42.3164 14.1067 42.3977 14.1067 42.4791 14.1067ZM39.1851 20.166C38.7784 20.8167 38.7377 21.02 38.4937 22.2807C38.6971 22.3213 38.7377 22.1993 38.7784 22.0773C39.0631 21.4673 39.2664 20.8573 39.1851 20.166C39.3884 20.0847 39.5917 19.9627 39.5917 19.678C39.3884 19.6373 39.1851 19.6373 38.8191 19.556C38.9817 19.8407 39.1037 20.0033 39.1851 20.166ZM43.6991 17.6447C43.9431 18.0107 44.1057 18.3767 44.2684 18.7427C44.5124 19.2307 44.9191 19.5153 45.3664 19.8C45.4884 19.8407 45.6511 19.922 45.7731 19.8813C46.4237 19.7593 47.1151 19.5967 47.6844 19.1087C48.0097 18.7427 47.8877 18.1733 47.3997 17.9293C46.8304 17.6447 46.0577 17.6447 45.4884 17.1973C45.4884 17.1567 45.3664 17.1567 45.2851 17.1567C45.0004 17.2787 44.7157 17.238 44.4717 17.238C44.1871 17.238 43.9837 17.482 43.6991 17.6447ZM45.0004 14.7573C45.2037 14.7573 45.4071 14.5947 45.4884 14.3913C45.4884 14.3507 45.4477 14.2287 45.4071 14.2287C45.1631 14.1067 44.9191 14.2693 44.8784 14.5133C44.8784 14.554 44.9597 14.6353 45.0004 14.7573ZM40.7304 16.262C40.8524 16.506 40.8524 16.628 40.9337 16.7093C41.0557 16.872 41.2184 16.872 41.3811 16.75C41.4624 16.7093 41.5031 16.628 41.5031 16.5467C41.5031 16.506 41.4624 16.4247 41.3811 16.4247C41.2184 16.384 41.0557 16.3433 40.7304 16.262ZM43.0484 17.6447C43.1297 17.5633 43.2111 17.5633 43.2517 17.482C43.3331 17.3193 43.0484 16.9533 42.8857 16.994C42.8044 17.0347 42.8044 17.1567 42.8044 17.1973C42.8857 17.36 42.9671 17.482 43.0484 17.6447ZM38.4937 23.2567C38.3717 23.1753 38.3311 23.1347 38.2497 23.094C38.1684 23.094 38.0464 23.1753 38.0057 23.1753C37.9244 23.2567 38.0871 23.5007 38.2497 23.46C38.2904 23.46 38.3717 23.3787 38.4937 23.2567ZM71.6752 17.0753C71.7565 17.2787 72.1225 17.1567 72.0412 17.5227C72.0005 17.6853 72.2445 17.8073 72.4479 17.8073C72.5292 17.8073 72.6512 17.8073 72.7732 17.8073C72.7325 17.9293 72.7732 18.0513 72.7325 18.1327C72.6105 18.4173 72.4072 18.6613 72.2445 18.8647C71.9599 19.2713 71.5939 19.5967 71.3499 19.9627C71.1059 20.3287 71.0245 20.776 70.8212 21.1827C70.7805 21.2233 70.7399 21.3047 70.7399 21.3453C70.6179 21.752 70.2519 21.996 70.1705 22.4433C70.1299 22.8093 70.0079 23.216 69.9265 23.6227C69.8452 24.192 69.7639 24.7613 69.6419 25.3713C69.3979 26.6727 69.2759 27.974 69.6825 29.2753C69.7232 29.5193 69.6419 29.7227 69.6012 29.9667C69.5605 30.0073 69.6012 30.0887 69.7639 30.1293C69.9265 30.17 69.9265 30.3733 69.8452 30.4547C69.6825 31.024 69.2759 31.39 68.7879 31.6747C68.3812 31.878 67.9339 31.8373 67.4459 31.7153C67.4052 31.6747 67.3239 31.5527 67.2832 31.4307C67.1205 31.1867 67.0392 30.902 66.9172 30.658C66.8359 30.4547 66.6732 30.536 66.5512 30.7393C65.9819 30.0073 65.6565 29.316 65.7785 28.3807C65.9005 27.6893 65.7785 27.0387 65.6565 26.3473C65.2499 26.3067 65.1279 26.5913 65.0059 26.754C64.3145 27.4453 63.7045 28.1773 63.0945 28.9093C62.8505 29.194 62.6065 29.4787 62.2405 29.6007C62.1592 29.6007 62.0372 29.7633 61.9559 29.8853C61.5899 30.3733 61.1019 30.658 60.5325 30.902C60.2072 31.0647 59.7599 31.268 59.4345 31.39C58.7025 31.634 57.9705 31.634 57.2792 31.3087C56.1405 30.7393 55.2865 29.9667 54.9612 28.6653C55.0832 28.5027 55.2052 28.3807 55.2865 28.218C55.2052 27.974 54.9612 28.096 54.8392 28.0553C54.7985 28.0147 54.7579 27.974 54.7579 27.9333C54.5139 25.9 54.7579 23.9073 55.4085 22.0367C56.0592 20.2473 57.0352 18.58 58.2959 17.0753C58.7025 16.628 59.2312 16.3433 59.7192 15.9367C60.1259 15.4893 60.4919 15.042 60.9392 14.676C61.5085 14.1473 62.2405 14.0253 62.9319 13.7407C63.5012 13.5373 65.3719 13.7813 65.9412 14.066C66.0632 14.1473 66.2665 14.2693 66.3885 14.3913C67.1205 15.0827 67.7712 15.8147 67.9339 16.872C68.0152 17.0753 68.0559 17.4007 68.3812 17.482C68.5032 17.3193 68.6659 17.116 68.8692 16.9127C69.0725 16.6687 69.3165 16.4653 69.5199 16.2213C69.7232 16.018 70.0079 16.0587 70.2519 16.14C70.3332 16.628 70.2925 16.994 69.9265 17.36C69.7639 17.5227 69.6825 17.8073 69.6012 18.0107C69.5605 18.0513 69.6419 18.214 69.6825 18.214C69.8045 18.214 69.9265 18.2547 69.9672 18.214C70.1299 18.0107 70.3332 17.848 70.4145 17.604C70.5365 17.3193 70.6992 16.994 71.0245 16.872C71.1872 16.7907 71.1872 16.628 71.1872 16.4653C71.1872 16.14 71.4719 16.0587 71.6752 15.9367C71.7565 15.9367 71.8785 15.9367 72.0005 15.9773C72.0412 15.9773 72.1225 16.14 72.1225 16.2213C72.0819 16.4247 72.0005 16.5873 71.8785 16.75C71.8379 16.872 71.7565 16.9533 71.6752 17.0753ZM58.3365 27.5267C58.7839 27.608 58.9465 27.4453 59.1905 27.242C60.3292 26.4287 61.2239 25.29 62.1999 24.2327C62.9725 23.4193 63.5825 22.5653 64.2332 21.63C64.5585 21.2233 65.0059 20.898 65.0872 20.3693C65.0059 20.0847 64.9245 19.7593 64.7619 19.434C64.6399 19.19 64.8839 18.9053 64.7619 18.702C64.5992 18.336 64.3145 17.9293 64.0705 17.5633C63.9892 17.4413 63.7452 17.4007 63.5825 17.482C63.2165 17.726 62.8099 17.8887 62.5659 18.1733C61.9965 18.8647 61.3052 19.3933 60.7765 20.1253C59.6379 21.7113 58.7839 23.3787 58.4992 25.29C58.3772 26.022 58.3772 26.754 58.3365 27.5267ZM57.0759 22.4433C57.3199 21.874 57.5232 21.4267 57.7265 20.9793C57.7265 20.898 57.6452 20.8573 57.5639 20.776H57.4825C57.3605 20.8573 57.2792 20.898 57.2792 21.02C57.1165 21.4267 56.9945 21.8333 56.9132 22.24C56.8725 22.24 56.9539 22.2807 57.0759 22.4433ZM69.0725 23.5007C69.2352 23.3787 69.3979 23.338 69.5199 23.216C69.5605 23.216 69.6012 23.094 69.5605 23.094C69.5199 23.0127 69.3979 22.972 69.3979 22.972C69.2352 23.094 69.0725 23.216 68.9505 23.2567C68.9099 23.2973 68.9099 23.338 68.9099 23.3787C68.9505 23.3787 68.9912 23.4193 69.0725 23.5007ZM83.1098 15.774L83.4352 16.2213C83.6385 16.6687 83.5978 16.872 83.1505 17.0753C82.9878 17.1567 82.7032 17.1973 82.5405 17.2787C82.3778 17.36 82.2558 17.482 82.1338 17.604C81.9305 17.5227 81.6865 17.4413 81.4832 17.3193C81.3612 17.36 81.2798 17.482 81.1172 17.482C80.3852 17.7667 80.1412 18.2953 80.0192 18.946C79.7345 20.2473 79.4092 21.4267 79.0432 22.6467C78.8398 23.3787 78.7585 24.1107 78.6365 24.8833C78.4738 25.778 78.2705 26.632 78.1485 27.5267C77.9858 28.828 77.7825 30.1293 78.3112 31.4713C78.3518 31.756 78.3518 32.0407 78.4332 32.3253C78.3112 32.5287 78.1485 32.732 77.9858 32.854L77.3758 32.7727C77.2945 32.9353 77.2538 33.098 77.1318 33.2607C77.0098 33.464 76.8065 33.586 76.5625 33.5047C76.2372 33.4233 76.0745 33.2607 75.9932 32.9353C75.9932 32.7727 75.9118 32.6507 75.9118 32.5287C75.7898 32.244 75.5865 32.0813 75.5052 32.1627L75.4238 32.5287C75.3832 32.6507 75.3425 32.732 75.3425 32.8133C74.9765 32.6507 74.8952 32.3253 74.7325 32.122C74.3665 31.3087 74.1225 30.5767 74.1632 29.7227C74.2445 26.8353 74.7732 23.9887 75.4238 21.1827C75.6678 20.3693 75.8712 19.5967 76.0745 18.7833L76.1558 18.2547C76.0338 18.214 75.9525 18.1733 75.8305 18.214C75.2205 18.336 74.6105 18.4987 73.9598 18.702C73.5532 18.7833 73.0652 18.824 72.6178 18.6207C72.6178 18.3767 72.6178 18.2547 72.6178 18.092C72.2925 17.8073 72.0485 18.214 71.7232 17.97C71.2758 17.482 71.1538 16.872 71.3165 16.1807C71.4792 15.5707 71.8452 15.2453 72.3738 15.0827L75.8305 14.3913C76.1152 14.3507 76.3185 14.2693 76.6032 14.2693C77.2945 14.2693 77.5792 13.822 77.7825 13.2527C77.8638 13.09 77.9045 13.0087 77.9045 12.846C78.3925 11.382 78.8805 9.95867 79.4498 8.576C79.7345 8.04733 79.8565 7.478 80.0598 6.94933C80.3445 6.258 80.5885 5.48533 80.9952 4.794C81.1172 4.50933 81.4018 4.306 81.2798 3.85867C81.4425 3.452 81.6052 3.00467 81.8085 2.63867C81.9712 2.39467 82.2152 2.39467 82.4592 2.232C82.3778 2.06933 82.3372 1.94733 82.2152 1.866C82.3372 1.66267 82.4998 1.54067 82.7032 1.66267C82.8252 1.70333 82.9472 1.82533 83.0692 1.866C83.0692 1.82533 83.1098 1.78467 83.1098 1.744C83.1098 1.54067 83.0285 1.33733 83.3132 1.41867C83.5165 1.41867 83.6385 1.622 83.5572 1.82533C83.5978 1.90667 83.5978 1.988 83.5572 2.11L83.0285 3.208C82.7438 3.24867 82.4185 3.33 82.0118 3.37067L82.7438 3.98067C82.3778 4.71267 82.1338 5.44467 81.8492 6.17667C81.7678 6.29867 81.6458 6.42067 81.5645 6.58333C81.4832 6.66467 81.3612 6.746 81.3612 6.78667C81.6052 7.27467 81.1985 7.64067 81.0765 8.00667C80.9952 8.332 80.7512 8.21 80.4665 8.21C80.3445 8.49467 80.8325 8.576 80.7105 8.77933C80.5478 9.22667 80.3852 9.63333 80.3038 10.1213C80.1818 10.528 79.8158 10.772 79.8158 11.26C79.7345 11.6667 79.4905 12.0733 79.3685 12.5207C79.3278 12.968 79.0838 13.334 79.0838 13.8627C79.2465 13.822 79.4092 13.822 79.3685 13.7407L80.1412 11.87L81.4832 8.25067L81.9305 7.112C82.3778 5.93267 82.8658 4.794 83.2725 3.61467C83.3538 3.37067 83.5165 3.208 83.5978 2.92333C83.7198 2.63867 83.9232 2.39467 84.2892 2.39467C84.4112 2.39467 84.5332 2.354 84.5332 2.27267C84.6145 2.19133 84.6552 2.06933 84.5332 1.988C84.4925 1.90667 84.3705 1.90667 84.2078 1.866C84.4925 1.58133 84.6145 1.58133 84.7772 1.70333L85.2652 2.19133C85.4685 2.39467 85.5092 2.63867 85.3872 2.842C85.2245 3.04533 85.3058 3.24867 85.4685 3.452C85.6718 3.77733 85.5092 4.02133 85.3058 4.306C85.2245 4.38733 84.9398 4.38733 84.8178 4.672L85.3058 4.75333V4.916L84.7365 5.85133L84.2892 6.70533C84.2485 6.746 84.1672 6.82733 84.1672 6.94933C84.0045 8.16933 83.3132 9.14533 83.0285 10.284C82.9878 10.5687 82.6625 10.8127 82.5405 11.0973C82.4592 11.4633 82.4998 11.87 82.1745 12.1547C82.1745 12.5207 82.0525 12.846 81.9305 13.1713C81.8492 13.5373 81.9305 13.944 82.0118 14.3507C82.2965 14.554 82.3778 14.2693 82.5405 14.31C82.7438 14.554 82.9878 14.554 83.3132 14.432C83.3538 14.432 83.3538 14.432 83.3945 14.4727C83.5978 14.7573 83.4352 15.286 83.1098 15.408L82.7438 15.53C82.7032 15.53 82.6625 15.652 82.6625 15.7333C82.7032 15.7333 82.7845 15.774 82.8658 15.774C82.9065 15.8147 82.9878 15.774 83.1098 15.774ZM78.0265 18.214C77.7825 18.214 77.6605 18.214 77.6605 18.2547C77.3758 19.1087 77.0505 19.9627 76.8065 20.8167C76.5218 21.9553 76.3185 23.1347 76.1558 24.314C76.0338 25.046 75.9118 25.778 75.8305 26.5507C75.7898 26.7133 75.8712 26.8353 76.0745 26.8353C76.3185 25.9 76.4405 24.9647 76.6032 24.0293C76.8472 23.0533 77.0912 22.0773 77.2538 21.1013C77.5385 20.2067 77.7418 19.2713 78.0265 18.214ZM72.9838 15.6113L72.7805 15.408C72.6585 15.3673 72.4958 15.6113 72.5772 15.774C72.6178 15.8147 72.6992 15.896 72.7398 15.896C72.9025 15.896 72.9838 15.8147 72.9838 15.6113ZM82.2965 14.8793C82.0118 14.8793 81.8898 14.798 81.7272 14.8387L81.4832 14.9607L81.5238 15.0827C81.5645 15.2047 81.6865 15.2047 81.8085 15.164C81.9712 15.0827 82.0118 15.0013 82.2965 14.8793ZM88.1363 16.7907C88.543 16.8313 88.3396 17.6447 88.9496 17.2787C89.2343 17.726 88.8276 18.092 88.9496 18.5393C89.0716 18.4173 89.1936 18.3767 89.3156 18.2953C89.397 18.6207 89.4783 18.8647 89.3156 19.2307C88.299 21.508 86.5096 27.8113 86.5096 30.902C85.4523 31.7967 85.859 31.3087 84.883 31.3087H84.8016C83.419 31.9593 83.8663 29.7227 83.175 30.3327C82.809 29.438 82.7276 28.5027 82.8903 27.608C83.2563 25.9 83.5003 24.1513 84.151 22.484L85.5336 18.1733C88.2176 13.1307 86.6316 19.0273 88.1363 16.7907ZM86.9976 13.2527C86.7943 12.8053 87.445 12.5207 87.2416 12.114C86.835 11.3007 89.6816 9.87733 90.0883 11.504C90.251 11.626 90.2916 11.8293 90.2916 12.0733C90.373 13.09 89.641 14.92 88.9496 14.432C88.6243 14.188 87.4043 13.944 86.9976 13.2527ZM84.5983 23.8667L84.9236 24.558C83.7443 28.1773 85.981 24.7207 85.493 23.6633C85.493 23.6227 85.4116 23.582 85.371 23.46C85.2083 23.826 84.8016 23.6227 84.5983 23.8667ZM89.6816 11.9513C89.3563 12.358 89.3563 12.3987 89.4783 12.48C89.519 12.602 89.641 12.724 89.8036 12.602C89.8036 12.3987 90.0883 12.0733 89.6816 11.9513ZM102.033 10.7313C101.992 10.894 101.992 11.0973 101.951 11.3413C102.521 11.4633 103.049 11.8293 103.7 11.748C103.863 11.382 103.456 11.26 103.456 10.9753C103.456 10.894 103.456 10.8533 103.497 10.8127C103.741 10.406 104.066 10.1213 104.391 9.75533C104.554 10.0807 104.798 10.4467 105.001 10.894C105.083 10.7313 105.123 10.6093 105.205 10.4467C105.408 10.65 105.327 10.894 105.286 11.016C105.164 11.3413 105.408 11.4227 105.489 11.5853C105.408 12.2767 105.083 12.846 104.635 13.334C104.229 13.7813 103.903 14.2693 103.578 14.7573C102.683 16.14 101.87 17.5633 100.894 18.9053C100.528 19.434 100.325 20.0847 100.04 20.654C99.6332 21.4267 99.4705 22.2807 98.8605 22.972C98.8199 23.582 98.3725 24.1107 98.2099 24.7613C98.0472 25.2493 97.8032 25.6967 97.5999 26.1847C97.5185 26.3067 97.4372 26.4287 97.3965 26.5913C97.1932 27.8113 96.5425 28.9093 96.0545 30.0887C95.9732 30.3327 95.8512 30.658 95.6072 30.78C95.3225 30.9427 95.2005 31.268 94.9159 31.4713C94.7939 31.5933 94.5905 31.6747 94.3872 31.7967C93.8992 32 93.3705 32 92.9639 31.5933C92.8419 31.512 92.7199 31.39 92.5572 31.3493C91.5812 31.024 91.3372 30.2107 91.2965 29.2753C91.2559 29.194 91.3372 29.0313 91.2965 28.9907C91.0932 28.7467 91.0525 28.462 91.0525 28.1773C91.0525 27.4047 91.0119 26.6727 91.0119 25.9407C91.0119 25.778 91.1745 25.6153 91.2559 25.4527C90.8899 24.9647 90.7679 24.3953 90.8492 23.826C90.8899 23.2973 90.8899 22.7687 91.2965 22.3213C90.6459 21.7113 91.1339 21.1827 91.3372 20.5727C91.1745 20.3287 91.0119 20.0847 91.0525 19.7187C91.0932 19.2713 91.0932 18.824 91.1745 18.4173C91.3372 17.604 91.2559 16.7093 91.2965 15.896C91.2965 15.6113 91.4185 15.286 91.4999 14.9607C91.6219 14.7573 91.8252 14.554 92.0692 14.4727C92.3539 14.3913 92.5165 14.2693 92.8012 14.188C93.0452 14.31 92.8012 14.554 92.8825 14.7573C92.9639 14.9607 92.9639 15.2047 92.9639 15.408C92.9639 15.5707 93.0452 15.7333 93.0859 15.774C93.1265 15.896 93.2485 15.9367 93.2892 15.9367C93.3705 15.896 93.4925 15.774 93.4925 15.7333C93.4519 15.2453 93.6552 14.7573 93.7772 14.066C93.8992 14.2693 93.8992 14.3507 93.9399 14.432C94.7939 15.042 94.9972 15.896 94.9159 16.8313C94.8752 18.3767 94.8345 19.922 94.7125 21.4673C94.6719 21.7113 94.7125 21.996 94.4685 22.24C94.3872 22.362 94.4279 22.484 94.5092 22.5247C94.6312 22.6467 94.7939 22.6873 94.9159 22.5653C95.0379 22.4433 95.1599 22.3213 95.2412 22.118C95.3632 21.7113 95.5259 21.3047 95.8512 21.02C95.9325 20.9387 96.0545 20.8167 96.0545 20.7353C95.9325 20.0847 96.3799 19.6373 96.5832 19.1087C96.7052 18.824 96.8272 18.58 97.1119 18.4173C97.1932 18.336 97.2745 18.214 97.2745 18.1327C97.2745 17.3193 97.8845 16.75 98.2505 16.0993C98.5352 15.408 98.9825 14.8387 99.3892 14.2287C99.5925 13.8627 99.8365 13.5373 100.04 13.212C100.569 12.358 101.179 11.6667 101.789 10.894C101.87 10.8533 101.992 10.8127 102.073 10.7313H102.033ZM95.8512 24.3953C95.6072 24.436 95.4445 24.558 95.3632 24.8427C95.3632 25.046 95.2412 25.3307 95.2005 25.534C95.0379 26.022 94.8752 26.51 94.7532 26.998C94.7125 27.12 94.7939 27.2827 94.8345 27.608C95.0379 27.12 95.1192 26.8353 95.3225 26.51C95.6885 25.8593 95.7699 25.168 95.8512 24.436C96.3392 23.7853 96.3392 23.7853 96.3799 23.2567C95.8512 23.46 95.8512 23.948 95.8512 24.3953ZM97.2745 20.6133C97.6405 20.0847 98.0065 19.6373 98.3319 19.1493C98.3319 19.1087 98.3319 19.068 98.3319 18.946C98.2505 18.946 98.0879 18.9053 98.0472 18.9867C97.7219 19.312 97.3559 19.7187 97.2339 20.2067C97.2339 20.288 97.2339 20.41 97.2745 20.6133ZM99.2265 17.238C99.3079 17.1973 99.3485 17.1567 99.3892 17.1567C99.5925 16.7907 99.7959 16.506 100.325 16.6687C100.325 16.6687 100.406 16.506 100.365 16.4247C100.365 16.384 100.325 16.3027 100.243 16.3027C99.9585 16.2213 99.7145 16.2213 99.4299 16.384C99.1859 16.5873 99.1045 16.8313 99.2265 17.238ZM93.3705 18.6613C93.2892 18.6207 93.2485 18.5393 93.1672 18.5393C92.9639 18.5393 92.7605 18.7833 92.8825 18.9867C92.9232 19.0273 92.9639 19.1087 93.0452 19.068C93.2485 19.0273 93.3705 18.824 93.3705 18.6613ZM96.7865 21.996C96.8272 21.996 96.8272 22.0773 96.9085 22.118C96.9899 21.996 97.1119 21.9553 97.2339 21.8333C97.3152 21.752 97.3559 21.5893 97.2745 21.508C97.1932 21.386 97.0305 21.4673 96.9085 21.5893C96.8679 21.7113 96.8272 21.874 96.7865 21.996ZM96.8679 20.4913C96.9492 20.288 96.9085 20.1253 96.7865 20.0847C96.7052 20.0847 96.5832 20.1253 96.5832 20.166C96.4612 20.3287 96.4612 20.4913 96.6645 20.5727C96.7052 20.5727 96.8272 20.532 96.8679 20.4913ZM102.195 15.3673V15.286C102.114 15.2453 102.073 15.164 101.992 15.0827C101.911 15.2047 101.829 15.2453 101.789 15.286C101.789 15.3673 101.829 15.4893 101.87 15.6113C101.87 15.652 101.911 15.6927 101.951 15.6927C101.992 15.652 102.114 15.6113 102.114 15.6113C102.155 15.53 102.155 15.4487 102.195 15.3673ZM102.033 10.7313H102.073C102.073 10.4873 102.155 10.3247 102.358 10.2027C102.643 9.95867 103.009 9.83667 103.293 9.674C103.578 9.796 103.456 9.95867 103.334 10.04C103.049 10.406 102.683 10.7313 102.399 11.016C102.236 10.894 102.114 10.8533 102.033 10.7313ZM108.165 14.1067C108.369 14.188 108.247 14.432 108.369 14.554C108.531 14.6353 108.897 14.5133 109.019 14.31C109.101 14.1067 109.019 13.9033 109.06 13.6187C109.548 13.6187 110.077 13.578 110.565 13.6187C110.727 13.6187 110.931 13.7 111.093 13.7813C111.297 13.9033 111.541 13.944 111.825 13.8627C112.273 13.822 112.761 13.9847 113.167 14.1067C113.371 14.4727 113.574 14.0253 113.737 14.1473C113.981 14.2693 114.062 14.554 114.428 14.554C114.591 14.554 114.835 14.6353 114.997 14.7573C115.973 15.2453 116.746 15.9773 117.112 17.0347C117.356 17.604 117.519 18.1733 117.478 18.8647C117.437 19.3527 117.437 19.3527 116.99 19.8407C117.071 19.922 117.112 20.044 117.193 20.1253C117.153 20.2067 117.193 20.288 117.112 20.3287C116.705 21.1013 116.177 21.7927 115.445 22.3213C115.241 22.4433 115.038 22.6467 114.875 22.6873C114.55 22.8093 114.103 22.8093 113.818 23.0127C113.493 23.216 113.167 23.338 112.842 23.4193C112.679 23.338 112.598 23.2567 112.476 23.1753C111.947 23.6633 111.947 23.6633 111.419 23.6633C110.971 23.6633 110.565 23.582 110.158 23.3787C110.117 22.8907 109.751 23.1753 109.467 23.1753C109.304 23.094 109.141 22.9313 108.938 22.7687C108.775 22.6873 108.653 22.5247 108.491 22.5247C107.962 22.484 108.084 22.118 108.043 21.7927C107.84 21.7927 107.718 21.7927 107.555 21.7927C107.474 21.752 107.433 21.7113 107.433 21.7113C107.352 21.5487 107.474 21.264 107.23 21.264C107.108 21.264 106.945 21.4267 106.864 21.5487C106.742 21.9553 106.579 22.362 106.498 22.8093C106.335 23.46 106.213 24.1107 106.132 24.7613C106.051 25.2493 106.091 25.6967 106.173 26.144C106.213 26.5507 106.295 26.998 106.335 27.4453C106.742 27.8113 107.189 28.2587 107.677 28.6653C107.84 28.6653 108.125 28.6247 108.369 28.584C108.897 28.5027 109.507 28.5433 110.077 28.2993C110.565 28.0553 111.093 28.0147 111.622 27.73C112.069 27.486 112.598 27.3233 113.086 27.0793C113.615 26.7947 114.103 26.51 114.591 26.1847C115.282 25.7373 115.973 25.2493 116.583 24.802C116.746 24.68 116.909 24.5987 117.071 24.5173C117.193 24.4767 117.437 24.4767 117.478 24.5173C117.763 24.8427 118.129 24.802 118.495 24.802C118.576 24.8427 118.657 24.802 118.739 24.802C119.389 24.8833 119.471 25.0053 119.349 25.8187C119.471 25.9 119.633 25.9813 119.796 26.1033C119.755 27.3233 118.861 28.0147 117.925 28.5433C117.559 28.7467 117.234 28.7873 116.827 28.9093C116.705 29.072 116.543 29.316 116.421 29.5193C116.299 29.7227 115.851 29.2753 115.851 29.7633C115.445 30.1293 114.997 30.414 114.55 30.536C114.347 30.5767 114.143 30.6173 114.021 30.6987C113.208 31.268 112.313 31.5527 111.419 31.878C109.995 32.3253 108.613 32.4473 107.149 32.2847C106.579 32.2033 106.01 31.9593 105.888 31.268C105.888 31.268 105.847 31.2273 105.807 31.1867C105.685 31.146 105.603 31.146 105.563 31.268C105.522 31.3493 105.481 31.39 105.481 31.4713C105.319 31.5527 105.197 31.4713 105.075 31.39C104.749 31.146 104.424 30.9427 104.099 30.658C103.895 30.414 103.692 30.17 103.448 29.926C103.407 29.804 103.326 29.7227 103.326 29.6413C103.041 28.6653 102.391 27.7707 102.472 26.6727C102.472 26.388 102.391 26.1033 102.35 25.8187C102.309 24.6393 102.391 23.3787 102.919 22.24C102.96 22.0773 103.041 21.9147 103.001 21.6707C102.96 21.3453 102.96 21.02 103.245 20.7353C103.407 20.5727 103.489 20.288 103.611 20.0847C103.407 19.8407 103.57 19.6373 103.733 19.434C103.855 19.2307 103.936 18.946 103.936 18.702C104.099 18.2547 104.261 17.8073 104.871 17.6853C104.953 17.6853 105.075 17.4413 104.912 17.36C104.749 17.1567 104.831 16.994 104.953 16.872C105.075 16.75 105.237 16.628 105.359 16.506C105.481 16.4247 105.685 16.3433 105.685 16.2213C105.807 15.53 106.376 15.2047 106.823 14.798C107.108 14.5133 107.555 14.3507 107.962 14.1067C108.003 14.1067 108.084 14.1067 108.165 14.1067ZM104.871 20.166C104.465 20.8167 104.424 21.02 104.18 22.2807C104.383 22.3213 104.424 22.1993 104.465 22.0773C104.749 21.4673 104.953 20.8573 104.871 20.166C105.075 20.0847 105.278 19.9627 105.278 19.678C105.075 19.6373 104.871 19.6373 104.505 19.556C104.668 19.8407 104.79 20.0033 104.871 20.166ZM109.385 17.6447C109.629 18.0107 109.792 18.3767 109.955 18.7427C110.199 19.2307 110.605 19.5153 111.053 19.8C111.175 19.8407 111.337 19.922 111.459 19.8813C112.11 19.7593 112.801 19.5967 113.371 19.1087C113.696 18.7427 113.574 18.1733 113.086 17.9293C112.517 17.6447 111.744 17.6447 111.175 17.1973C111.175 17.1567 111.053 17.1567 110.971 17.1567C110.687 17.2787 110.402 17.238 110.158 17.238C109.873 17.238 109.67 17.482 109.385 17.6447ZM110.687 14.7573C110.89 14.7573 111.093 14.5947 111.175 14.3913C111.175 14.3507 111.134 14.2287 111.093 14.2287C110.849 14.1067 110.605 14.2693 110.565 14.5133C110.565 14.554 110.646 14.6353 110.687 14.7573ZM106.417 16.262C106.539 16.506 106.539 16.628 106.62 16.7093C106.742 16.872 106.905 16.872 107.067 16.75C107.149 16.7093 107.189 16.628 107.189 16.5467C107.189 16.506 107.149 16.4247 107.067 16.4247C106.905 16.384 106.742 16.3433 106.417 16.262ZM108.735 17.6447C108.816 17.5633 108.897 17.5633 108.938 17.482C109.019 17.3193 108.735 16.9533 108.572 16.994C108.491 17.0347 108.491 17.1567 108.491 17.1973C108.572 17.36 108.653 17.482 108.735 17.6447ZM104.18 23.2567C104.058 23.1753 104.017 23.1347 103.936 23.094C103.855 23.094 103.733 23.1753 103.692 23.1753C103.611 23.2567 103.773 23.5007 103.936 23.46C103.977 23.46 104.058 23.3787 104.18 23.2567ZM11.0927 46.134C11.296 46.1747 11.418 46.256 11.54 46.256C11.54 46.1747 11.5807 46.0527 11.5807 46.012C11.54 45.9307 11.4993 45.8493 11.418 45.768C11.662 45.524 11.8247 45.3207 12.028 45.1173C12.4347 44.8327 12.8007 44.7107 13.248 44.7107C13.37 44.67 13.614 44.8733 13.5327 44.9547C13.492 45.036 13.4107 45.036 13.3293 45.0767C13.2073 45.1173 13.0853 45.1173 12.9633 45.158C13.0447 45.3207 13.1667 45.4427 13.2887 45.524C13.004 45.8493 12.76 46.012 12.4347 46.378C13.126 46.4187 13.2073 46.4187 13.37 46.0933C13.5733 45.89 13.7767 45.5647 13.98 45.3207C14.346 44.9953 14.5493 45.036 14.834 45.28C14.956 45.524 15.1593 45.6867 15.2 45.9307C15.2813 46.134 15.0373 46.5407 15.2 46.7033C15.2813 46.988 15.2407 47.11 15.1593 47.4353C15.078 47.6793 15.2407 47.8827 15.6067 47.8827C16.2573 47.7607 16.786 47.72 17.4367 47.7607C18.86 47.6793 20.2427 47.9233 21.5033 48.574C22.642 49.1027 23.5367 49.794 24.35 50.7293C24.5533 51.014 24.3907 51.502 24.8787 51.5833C25.0007 51.9087 25.1633 52.234 25.326 52.5593C25.4073 52.966 25.448 53.2913 25.5293 53.6167C25.7327 54.186 25.692 54.796 25.692 55.3653C25.692 55.528 25.6513 55.7313 25.6107 55.894C25.5293 56.0567 25.448 56.2193 25.57 56.382C25.6513 56.7887 25.6107 57.1547 25.5293 57.5613C25.4073 58.09 25.326 58.6187 25.204 59.066C25.0413 59.6353 25.0413 59.6353 24.4313 60.1233C24.472 60.2453 24.5127 60.3673 24.6753 60.4487C24.472 60.4893 24.3093 60.5707 24.228 60.652C23.8213 60.8147 23.862 60.9773 24.1873 61.2213C24.228 61.262 24.2687 61.3027 24.3907 61.3433C24.35 61.4247 24.35 61.628 24.228 61.75C24.1467 61.994 23.862 62.1567 23.9027 62.5227C23.9027 62.9293 23.6993 63.0107 23.0487 63.4173C22.9673 63.8647 22.9673 64.312 22.7233 64.7187C22.3573 65.3287 21.9913 65.9387 21.6253 66.508C21.5847 66.5893 21.4627 66.63 21.3813 66.7927C21.2187 67.118 20.8933 67.24 20.568 67.2807C20.446 67.2807 20.324 67.362 20.2427 67.4433C20.202 67.5247 20.202 67.5653 20.202 67.728C20.2427 67.728 20.2833 67.7687 20.324 67.7687C20.4053 67.8093 20.4867 67.8093 20.5273 67.8093C20.2833 68.1347 20.08 68.46 19.7547 68.8667C19.2667 69.2733 18.8193 69.7613 18.4127 70.2087C18.0873 70.4933 17.8027 70.8187 17.4773 71.0627C17.152 71.3473 16.8267 71.5913 16.2573 71.6727C16.054 71.998 15.81 72.2827 15.566 72.5673C14.6307 73.1367 13.736 73.706 12.8007 74.316C11.8653 74.8853 10.8487 75.3327 9.79133 75.78C8.16467 76.512 6.416 77.0407 4.62667 77.2847C4.098 77.3253 3.65067 77.366 3.08133 77.366C3 77.4067 2.878 77.3253 2.83733 77.2847C2.47133 77.0813 2.146 77.1627 1.82067 77.122C1.73933 77.122 1.69867 77.0407 1.57667 77C1.73933 76.7967 1.86133 76.5933 1.98333 76.39C1.86133 76.146 1.69867 75.8207 1.57667 75.6173C1.08867 75.4953 1.17 76.024 0.844667 75.9833C0.844667 75.902 0.804 75.7393 0.844667 75.658C0.844667 75.536 0.966667 75.3327 0.926 75.17C0.763333 74.682 1.12933 74.3973 1.49533 74.1127C1.98333 73.9093 2.43067 73.6653 2.878 73.706C2.91867 73.706 2.95933 73.706 3.04067 73.6653C4.50467 73.6247 4.50467 73.6247 5.72467 72.974C5.52133 72.7707 5.52133 72.7707 5.23667 72.608C5.11467 72.2013 5.03333 71.754 4.91133 71.3067C4.66733 71.266 4.78933 71.51 4.66733 71.632C4.54533 71.7133 4.50467 71.9573 4.464 72.12C4.38267 72.242 4.38267 72.4453 4.342 72.6893C3.93533 72.608 3.81333 72.2827 3.732 72.0387C3.61 71.632 3.61 71.2253 4.01667 70.9407C3.854 70.8187 3.61 70.656 3.61 70.4933C3.488 70.3307 3.488 70.1273 3.65067 69.8833C3.69133 69.802 3.89467 69.68 4.05733 69.6393C3.93533 69.5173 3.732 69.3547 3.69133 69.2733C3.69133 69.07 3.81333 68.826 3.77267 68.5413C3.69133 68.338 3.732 68.094 3.77267 67.85C3.77267 67.5653 3.854 67.3213 3.854 67.118C4.01667 67.0773 4.22 66.9553 4.342 66.8333C4.50467 66.5487 3.93533 66.7113 4.01667 66.386C4.13867 66.2233 4.05733 65.9793 4.098 65.7353C4.26067 65.2067 4.17933 64.556 4.50467 64.0273C4.464 63.3767 4.74867 62.8887 4.87067 62.2787C4.952 61.7907 5.11467 61.2213 5.318 60.774C5.35867 60.4487 5.44 60.2047 5.48067 59.92C5.52133 59.798 5.52133 59.5947 5.562 59.3913C6.172 58.2527 6.25333 56.9513 6.82267 55.772C6.86333 55.6907 6.86333 55.6093 6.86333 55.4467C6.45667 55.2433 6.13133 54.9993 5.76533 54.8367C5.72467 54.2267 6.49733 54.1453 6.538 53.698C5.928 53.332 5.806 53.4133 5.48067 53.82C5.44 53.9013 5.35867 54.0233 5.23667 54.1453C5.15533 54.1453 5.03333 54.1453 4.99267 54.1047C4.952 54.0233 4.952 53.9827 4.91133 53.8607C4.78933 53.0473 5.03333 52.3153 5.72467 51.8273C6.172 51.502 6.57867 51.136 7.22933 51.014C7.55467 50.892 7.758 50.5667 8.08333 50.3633C9.54733 49.5907 9.66933 49.428 10.198 48.0453C10.2387 47.842 10.2387 47.6793 10.3607 47.5573C10.442 47.2727 10.6047 46.988 10.7267 46.7033C10.8487 46.5407 11.0113 46.3373 11.0927 46.134ZM7.636 72.5267C7.96133 72.486 8.20533 72.4047 8.49 72.3233C8.93733 72.12 9.38467 71.754 9.832 71.5913C10.4013 71.3473 10.93 70.9407 11.418 70.778C11.9467 70.4933 12.394 70.0867 12.882 69.68C13.4107 69.3953 13.8173 69.0293 14.346 68.6633C15.1187 68.0533 15.932 67.1993 16.6233 66.4267C16.8673 66.2233 17.1113 65.898 17.3147 65.6947C17.5587 65.3287 17.8433 65.044 18.128 64.7593C18.4127 64.4747 18.4127 64.1087 18.6567 63.8647C19.0633 63.2547 19.4293 62.7667 19.7547 62.116C20.6493 60.3267 21.4627 58.456 21.666 56.5447C21.7067 56.1787 21.9507 56.138 22.1947 56.0567C21.9913 55.8127 21.7473 55.6907 21.788 55.3247C21.7473 54.552 21.6253 53.6573 21.0967 52.8847C21.0153 52.722 20.9747 52.6 20.8933 52.478C19.7953 51.624 18.4533 51.2987 17.0707 51.258C16.8267 51.2987 16.5013 51.38 16.298 51.38C15.9727 51.38 15.566 51.258 15.322 51.4613C14.468 51.6647 13.736 52.0307 12.9227 52.2747C12.5973 52.4373 12.394 52.6407 12.1907 52.9253C11.9467 53.4947 11.662 54.064 11.4993 54.6333C11.1333 55.528 10.8893 56.3007 10.4827 57.236C10.3607 57.5207 10.2793 57.8053 9.91333 58.0087C9.91333 58.2527 9.91333 58.6593 9.87267 58.944C9.71 59.3913 9.588 59.92 9.42533 60.408C9.14067 61.4247 8.89667 62.5227 8.612 63.6613C8.368 64.678 8.04267 65.8167 7.92067 66.9147C7.92067 66.996 7.83933 67.118 7.79867 67.24C7.758 67.6467 7.59533 68.1347 7.55467 68.5413C7.514 69.07 7.392 69.5173 7.18867 69.9647C7.148 70.046 7.06667 70.0867 7.026 70.0867C6.66 70.046 6.538 70.046 6.416 70.3307C6.70067 70.3713 7.026 70.4527 7.27 70.4527C7.392 71.1847 7.55467 71.8353 7.636 72.5267ZM5.684 65.1253C5.806 65.0847 5.84667 65.0847 5.84667 65.0847C6.172 64.5153 6.37533 63.9867 6.37533 63.3767C6.33467 63.0107 6.45667 62.6447 6.61933 62.238C6.82267 61.8313 6.94467 61.3027 7.10733 60.8553C7.148 60.286 7.392 59.8793 7.67667 59.4727C7.636 59.2693 7.47333 59.1473 7.59533 58.9847C7.67667 58.7 7.71733 58.4153 7.79867 58.09C7.83933 58.09 7.758 58.0087 7.71733 57.9273C7.55467 57.968 7.35133 58.0493 7.148 58.09C7.31067 58.2933 7.43267 58.456 7.148 58.578C7.10733 58.6593 7.026 58.7 6.86333 58.7813C7.10733 59.3507 7.10733 59.3507 6.94467 59.92C6.82267 60.2047 6.61933 60.4893 6.61933 60.8553C6.538 61.262 6.33467 61.5873 5.928 61.7907C5.76533 61.872 5.76533 62.116 5.88733 62.3193C5.96867 62.4413 6.13133 62.6447 6.172 62.8073C6.13133 63.0513 5.84667 63.0513 5.72467 63.1733C5.60267 63.214 5.52133 63.2953 5.48067 63.336C5.35867 63.4173 5.39933 63.458 5.318 63.5393C5.562 63.6613 5.684 63.824 5.84667 63.8647C5.806 64.1087 5.84667 64.3527 5.806 64.5153C5.806 64.7593 5.76533 64.8813 5.684 65.1253ZM13.248 71.388C13.5327 71.3067 13.6547 71.266 13.736 71.1847C14.59 70.5747 15.5253 70.046 16.2573 69.2733C16.5013 69.07 16.908 69.0293 16.9893 68.7853C17.1113 68.5007 17.3553 68.2567 17.4773 67.972C17.518 67.85 17.518 67.8093 17.518 67.6467C17.3553 67.728 17.1927 67.728 17.152 67.7687C16.8267 68.338 16.176 68.7447 15.566 69.192C15.2407 69.4767 14.8747 69.8427 14.4273 70.046C13.8987 70.2087 13.8987 70.8187 13.4513 71.0627C13.3293 71.0627 13.3293 71.1033 13.248 71.388ZM4.464 67.3213C4.66733 67.484 4.708 67.5653 4.78933 67.5653C5.318 67.7687 5.52133 67.6467 5.562 67.24C5.64333 66.8333 5.806 66.4267 6.05 66.142C6.09067 66.1013 6.05 66.02 6.05 65.9793C5.806 65.9793 5.562 65.9387 5.48067 66.02C5.35867 66.264 5.39933 66.4673 5.27733 66.5487C4.87067 66.752 5.27733 66.9147 5.23667 67.1587C4.952 67.1993 4.78933 67.1993 4.464 67.3213ZM7.88 57.5613C8.32733 56.7073 8.32733 56.7073 8.20533 56.1787C8.08333 56.4633 8.04267 56.6667 7.96133 56.87C7.83933 57.0327 7.758 57.2767 7.88 57.5613ZM7.10733 61.75C7.43267 61.994 7.67667 61.9533 7.88 61.8313C7.96133 61.8313 7.96133 61.75 8.04267 61.6687C7.96133 61.628 7.88 61.506 7.79867 61.506C7.55467 61.5873 7.43267 61.6687 7.10733 61.75ZM6.538 65.9793C6.94467 66.0607 7.27 66.3047 7.59533 66.02C7.22933 65.9387 6.904 65.898 6.538 65.9793ZM12.638 47.2727C12.4753 47.11 12.394 47.0287 12.272 46.988C12.1907 46.988 12.028 47.11 12.028 47.11C12.0687 47.2727 12.1093 47.354 12.1907 47.4353C12.3127 47.3947 12.4347 47.3947 12.638 47.2727ZM30.0487 59.1067C30.2521 59.188 30.1301 59.432 30.2521 59.554C30.4147 59.6353 30.7807 59.5133 30.9027 59.31C30.9841 59.1067 30.9027 58.9033 30.9434 58.6187C31.4314 58.6187 31.9601 58.578 32.4481 58.6187C32.6107 58.6187 32.8141 58.7 32.9767 58.7813C33.1801 58.9033 33.4241 58.944 33.7087 58.8627C34.1561 58.822 34.6441 58.9847 35.0507 59.1067C35.2541 59.4727 35.4574 59.0253 35.6201 59.1473C35.8641 59.2693 35.9454 59.554 36.3114 59.554C36.4741 59.554 36.7181 59.6353 36.8807 59.7573C37.8567 60.2453 38.6294 60.9773 38.9954 62.0347C39.2394 62.604 39.4021 63.1733 39.3614 63.8647C39.3207 64.3527 39.3207 64.3527 38.8734 64.8407C38.9547 64.922 38.9954 65.044 39.0767 65.1253C39.0361 65.2067 39.0767 65.288 38.9954 65.3287C38.5887 66.1013 38.0601 66.7927 37.3281 67.3213C37.1247 67.4433 36.9214 67.6467 36.7587 67.6873C36.4334 67.8093 35.9861 67.8093 35.7014 68.0127C35.3761 68.216 35.0507 68.338 34.7254 68.4193C34.5627 68.338 34.4814 68.2567 34.3594 68.1753C33.8307 68.6633 33.8307 68.6633 33.3021 68.6633C32.8547 68.6633 32.4481 68.582 32.0414 68.3787C32.0007 67.8907 31.6347 68.1753 31.3501 68.1753C31.1874 68.094 31.0247 67.9313 30.8214 67.7687C30.6587 67.6873 30.5367 67.5247 30.3741 67.5247C29.8454 67.484 29.9674 67.118 29.9267 66.7927C29.7234 66.7927 29.6014 66.7927 29.4387 66.7927C29.3574 66.752 29.3167 66.7113 29.3167 66.7113C29.2354 66.5487 29.3574 66.264 29.1134 66.264C28.9914 66.264 28.8287 66.4267 28.7474 66.5487C28.6254 66.9553 28.4627 67.362 28.3814 67.8093C28.2187 68.46 28.0967 69.1107 28.0154 69.7613C27.9341 70.2493 27.9747 70.6967 28.0561 71.144C28.0967 71.5507 28.1781 71.998 28.2187 72.4453C28.6254 72.8113 29.0727 73.2587 29.5607 73.6653C29.7234 73.6653 30.0081 73.6247 30.2521 73.584C30.7807 73.5027 31.3907 73.5433 31.9601 73.2993C32.4481 73.0553 32.9767 73.0147 33.5054 72.73C33.9527 72.486 34.4814 72.3233 34.9694 72.0793C35.4981 71.7947 35.9861 71.51 36.4741 71.1847C37.1654 70.7373 37.8567 70.2493 38.4667 69.802C38.6294 69.68 38.7921 69.5987 38.9547 69.5173C39.0767 69.4767 39.3207 69.4767 39.3614 69.5173C39.6461 69.8427 40.0121 69.802 40.3781 69.802C40.4594 69.8427 40.5407 69.802 40.6221 69.802C41.2727 69.8833 41.3541 70.0053 41.2321 70.8187C41.3541 70.9 41.5167 70.9813 41.6794 71.1033C41.6387 72.3233 40.7441 73.0147 39.8087 73.5433C39.4427 73.7467 39.1174 73.7873 38.7107 73.9093C38.5887 74.072 38.4261 74.316 38.3041 74.5193C38.1821 74.7227 37.7347 74.2753 37.7347 74.7633C37.3281 75.1293 36.8807 75.414 36.4334 75.536C36.2301 75.5767 36.0267 75.6173 35.9047 75.6987C35.0914 76.268 34.1967 76.5527 33.3021 76.878C31.8787 77.3253 30.4961 77.4473 29.0321 77.2847C28.4627 77.2033 27.8934 76.9593 27.7714 76.268C27.7714 76.268 27.7307 76.2273 27.6901 76.1867C27.5681 76.146 27.4867 76.146 27.4461 76.268C27.4054 76.3493 27.3647 76.39 27.3647 76.4713C27.2021 76.5527 27.0801 76.4713 26.9581 76.39C26.6327 76.146 26.3074 75.9427 25.9821 75.658C25.7787 75.414 25.5754 75.17 25.3314 74.926C25.2907 74.804 25.2094 74.7227 25.2094 74.6413C24.9247 73.6653 24.2741 72.7707 24.3554 71.6727C24.3554 71.388 24.2741 71.1033 24.2334 70.8187C24.1927 69.6393 24.2741 68.3787 24.8027 67.24C24.8434 67.0773 24.9247 66.9147 24.8841 66.6707C24.8434 66.3453 24.8434 66.02 25.1281 65.7353C25.2907 65.5727 25.3721 65.288 25.4941 65.0847C25.2907 64.8407 25.4534 64.6373 25.6161 64.434C25.7381 64.2307 25.8194 63.946 25.8194 63.702C25.9821 63.2547 26.1447 62.8073 26.7547 62.6853C26.8361 62.6853 26.9581 62.4413 26.7954 62.36C26.6327 62.1567 26.7141 61.994 26.8361 61.872C26.9581 61.75 27.1207 61.628 27.2427 61.506C27.3647 61.4247 27.5681 61.3433 27.5681 61.2213C27.6901 60.53 28.2594 60.2047 28.7067 59.798C28.9914 59.5133 29.4387 59.3507 29.8454 59.1067C29.8861 59.1067 29.9674 59.1067 30.0487 59.1067ZM26.7547 65.166C26.3481 65.8167 26.3074 66.02 26.0634 67.2807C26.2667 67.3213 26.3074 67.1993 26.3481 67.0773C26.6327 66.4673 26.8361 65.8573 26.7547 65.166C26.9581 65.0847 27.1614 64.9627 27.1614 64.678C26.9581 64.6373 26.7547 64.6373 26.3887 64.556C26.5514 64.8407 26.6734 65.0033 26.7547 65.166ZM31.2687 62.6447C31.5127 63.0107 31.6754 63.3767 31.8381 63.7427C32.0821 64.2307 32.4887 64.5153 32.9361 64.8C33.0581 64.8407 33.2207 64.922 33.3427 64.8813C33.9934 64.7593 34.6847 64.5967 35.2541 64.1087C35.5794 63.7427 35.4574 63.1733 34.9694 62.9293C34.4001 62.6447 33.6274 62.6447 33.0581 62.1973C33.0581 62.1567 32.9361 62.1567 32.8547 62.1567C32.5701 62.2787 32.2854 62.238 32.0414 62.238C31.7567 62.238 31.5534 62.482 31.2687 62.6447ZM32.5701 59.7573C32.7734 59.7573 32.9767 59.5947 33.0581 59.3913C33.0581 59.3507 33.0174 59.2287 32.9767 59.2287C32.7327 59.1067 32.4887 59.2693 32.4481 59.5133C32.4481 59.554 32.5294 59.6353 32.5701 59.7573ZM28.3001 61.262C28.4221 61.506 28.4221 61.628 28.5034 61.7093C28.6254 61.872 28.7881 61.872 28.9507 61.75C29.0321 61.7093 29.0727 61.628 29.0727 61.5467C29.0727 61.506 29.0321 61.4247 28.9507 61.4247C28.7881 61.384 28.6254 61.3433 28.3001 61.262ZM30.6181 62.6447C30.6994 62.5633 30.7807 62.5633 30.8214 62.482C30.9027 62.3193 30.6181 61.9533 30.4554 61.994C30.3741 62.0347 30.3741 62.1567 30.3741 62.1973C30.4554 62.36 30.5367 62.482 30.6181 62.6447ZM26.0634 68.2567C25.9414 68.1753 25.9007 68.1347 25.8194 68.094C25.7381 68.094 25.6161 68.1753 25.5754 68.1753C25.4941 68.2567 25.6567 68.5007 25.8194 68.46C25.8601 68.46 25.9414 68.3787 26.0634 68.2567ZM54.8529 55.7313C54.8122 55.894 54.8122 56.0973 54.7715 56.3413C55.3409 56.4633 55.8695 56.8293 56.5202 56.748C56.6829 56.382 56.2762 56.26 56.2762 55.9753C56.2762 55.894 56.2762 55.8533 56.3169 55.8127C56.5609 55.406 56.8862 55.1213 57.2115 54.7553C57.3742 55.0807 57.6182 55.4467 57.8215 55.894C57.9029 55.7313 57.9435 55.6093 58.0249 55.4467C58.2282 55.65 58.1469 55.894 58.1062 56.016C57.9842 56.3413 58.2282 56.4227 58.3095 56.5853C58.2282 57.2767 57.9029 57.846 57.4555 58.334C57.0489 58.7813 56.7235 59.2693 56.3982 59.7573C55.5035 61.14 54.6902 62.5633 53.7142 63.9053C53.3482 64.434 53.1449 65.0847 52.8602 65.654C52.4535 66.4267 52.2909 67.2807 51.6809 67.972C51.6402 68.582 51.1929 69.1107 51.0302 69.7613C50.8675 70.2493 50.6235 70.6967 50.4202 71.1847C50.3389 71.3067 50.2575 71.4287 50.2169 71.5913C50.0135 72.8113 49.3629 73.9093 48.8749 75.0887C48.7935 75.3327 48.6715 75.658 48.4275 75.78C48.1429 75.9427 48.0209 76.268 47.7362 76.4713C47.6142 76.5933 47.4109 76.6747 47.2075 76.7967C46.7195 77 46.1909 77 45.7842 76.5933C45.6622 76.512 45.5402 76.39 45.3775 76.3493C44.4015 76.024 44.1575 75.2107 44.1169 74.2753C44.0762 74.194 44.1575 74.0313 44.1169 73.9907C43.9135 73.7467 43.8729 73.462 43.8729 73.1773C43.8729 72.4047 43.8322 71.6727 43.8322 70.9407C43.8322 70.778 43.9949 70.6153 44.0762 70.4527C43.7102 69.9647 43.5882 69.3953 43.6695 68.826C43.7102 68.2973 43.7102 67.7687 44.1169 67.3213C43.4662 66.7113 43.9542 66.1827 44.1575 65.5727C43.9949 65.3287 43.8322 65.0847 43.8729 64.7187C43.9135 64.2713 43.9135 63.824 43.9949 63.4173C44.1575 62.604 44.0762 61.7093 44.1169 60.896C44.1169 60.6113 44.2389 60.286 44.3202 59.9607C44.4422 59.7573 44.6455 59.554 44.8895 59.4727C45.1742 59.3913 45.3369 59.2693 45.6215 59.188C45.8655 59.31 45.6215 59.554 45.7029 59.7573C45.7842 59.9607 45.7842 60.2047 45.7842 60.408C45.7842 60.5707 45.8655 60.7333 45.9062 60.774C45.9469 60.896 46.0689 60.9367 46.1095 60.9367C46.1909 60.896 46.3129 60.774 46.3129 60.7333C46.2722 60.2453 46.4755 59.7573 46.5975 59.066C46.7195 59.2693 46.7195 59.3507 46.7602 59.432C47.6142 60.042 47.8175 60.896 47.7362 61.8313C47.6955 63.3767 47.6549 64.922 47.5329 66.4673C47.4922 66.7113 47.5329 66.996 47.2889 67.24C47.2075 67.362 47.2482 67.484 47.3295 67.5247C47.4515 67.6467 47.6142 67.6873 47.7362 67.5653C47.8582 67.4433 47.9802 67.3213 48.0615 67.118C48.1835 66.7113 48.3462 66.3047 48.6715 66.02C48.7529 65.9387 48.8749 65.8167 48.8749 65.7353C48.7529 65.0847 49.2002 64.6373 49.4035 64.1087C49.5255 63.824 49.6475 63.58 49.9322 63.4173C50.0135 63.336 50.0949 63.214 50.0949 63.1327C50.0949 62.3193 50.7049 61.75 51.0709 61.0993C51.3555 60.408 51.8029 59.8387 52.2095 59.2287C52.4129 58.8627 52.6569 58.5373 52.8602 58.212C53.3889 57.358 53.9989 56.6667 54.6089 55.894C54.6902 55.8533 54.8122 55.8127 54.8935 55.7313H54.8529ZM48.6715 69.3953C48.4275 69.436 48.2649 69.558 48.1835 69.8427C48.1835 70.046 48.0615 70.3307 48.0209 70.534C47.8582 71.022 47.6955 71.51 47.5735 71.998C47.5329 72.12 47.6142 72.2827 47.6549 72.608C47.8582 72.12 47.9395 71.8353 48.1429 71.51C48.5089 70.8593 48.5902 70.168 48.6715 69.436C49.1595 68.7853 49.1595 68.7853 49.2002 68.2567C48.6715 68.46 48.6715 68.948 48.6715 69.3953ZM50.0949 65.6133C50.4609 65.0847 50.8269 64.6373 51.1522 64.1493C51.1522 64.1087 51.1522 64.068 51.1522 63.946C51.0709 63.946 50.9082 63.9053 50.8675 63.9867C50.5422 64.312 50.1762 64.7187 50.0542 65.2067C50.0542 65.288 50.0542 65.41 50.0949 65.6133ZM52.0469 62.238C52.1282 62.1973 52.1689 62.1567 52.2095 62.1567C52.4129 61.7907 52.6162 61.506 53.1449 61.6687C53.1449 61.6687 53.2262 61.506 53.1855 61.4247C53.1855 61.384 53.1449 61.3027 53.0635 61.3027C52.7789 61.2213 52.5349 61.2213 52.2502 61.384C52.0062 61.5873 51.9249 61.8313 52.0469 62.238ZM46.1909 63.6613C46.1095 63.6207 46.0689 63.5393 45.9875 63.5393C45.7842 63.5393 45.5809 63.7833 45.7029 63.9867C45.7435 64.0273 45.7842 64.1087 45.8655 64.068C46.0689 64.0273 46.1909 63.824 46.1909 63.6613ZM49.6069 66.996C49.6475 66.996 49.6475 67.0773 49.7289 67.118C49.8102 66.996 49.9322 66.9553 50.0542 66.8333C50.1355 66.752 50.1762 66.5893 50.0949 66.508C50.0135 66.386 49.8509 66.4673 49.7289 66.5893C49.6882 66.7113 49.6475 66.874 49.6069 66.996ZM49.6882 65.4913C49.7695 65.288 49.7289 65.1253 49.6069 65.0847C49.5255 65.0847 49.4035 65.1253 49.4035 65.166C49.2815 65.3287 49.2815 65.4913 49.4849 65.5727C49.5255 65.5727 49.6475 65.532 49.6882 65.4913ZM55.0155 60.3673V60.286C54.9342 60.2453 54.8935 60.164 54.8122 60.0827C54.7309 60.2047 54.6495 60.2453 54.6089 60.286C54.6089 60.3673 54.6495 60.4893 54.6902 60.6113C54.6902 60.652 54.7309 60.6927 54.7715 60.6927C54.8122 60.652 54.9342 60.6113 54.9342 60.6113C54.9749 60.53 54.9749 60.4487 55.0155 60.3673ZM54.8529 55.7313H54.8935C54.8935 55.4873 54.9749 55.3247 55.1782 55.2027C55.4629 54.9587 55.8289 54.8367 56.1135 54.674C56.3982 54.796 56.2762 54.9587 56.1542 55.04C55.8695 55.406 55.5035 55.7313 55.2189 56.016C55.0562 55.894 54.9342 55.8533 54.8529 55.7313ZM60.9856 59.1067C61.1889 59.188 61.0669 59.432 61.1889 59.554C61.3516 59.6353 61.7176 59.5133 61.8396 59.31C61.9209 59.1067 61.8396 58.9033 61.8802 58.6187C62.3682 58.6187 62.8969 58.578 63.3849 58.6187C63.5476 58.6187 63.7509 58.7 63.9136 58.7813C64.1169 58.9033 64.3609 58.944 64.6456 58.8627C65.0929 58.822 65.5809 58.9847 65.9876 59.1067C66.1909 59.4727 66.3942 59.0253 66.5569 59.1473C66.8009 59.2693 66.8822 59.554 67.2482 59.554C67.4109 59.554 67.6549 59.6353 67.8176 59.7573C68.7936 60.2453 69.5662 60.9773 69.9322 62.0347C70.1762 62.604 70.3389 63.1733 70.2982 63.8647C70.2576 64.3527 70.2576 64.3527 69.8102 64.8407C69.8916 64.922 69.9322 65.044 70.0136 65.1253C69.9729 65.2067 70.0136 65.288 69.9322 65.3287C69.5256 66.1013 68.9969 66.7927 68.2649 67.3213C68.0616 67.4433 67.8582 67.6467 67.6956 67.6873C67.3702 67.8093 66.9229 67.8093 66.6382 68.0127C66.3129 68.216 65.9876 68.338 65.6622 68.4193C65.4996 68.338 65.4182 68.2567 65.2962 68.1753C64.7676 68.6633 64.7676 68.6633 64.2389 68.6633C63.7916 68.6633 63.3849 68.582 62.9782 68.3787C62.9376 67.8907 62.5716 68.1753 62.2869 68.1753C62.1242 68.094 61.9616 67.9313 61.7582 67.7687C61.5956 67.6873 61.4736 67.5247 61.3109 67.5247C60.7822 67.484 60.9042 67.118 60.8636 66.7927C60.6602 66.7927 60.5382 66.7927 60.3756 66.7927C60.2942 66.752 60.2536 66.7113 60.2536 66.7113C60.1722 66.5487 60.2942 66.264 60.0502 66.264C59.9282 66.264 59.7656 66.4267 59.6842 66.5487C59.5622 66.9553 59.3996 67.362 59.3182 67.8093C59.1556 68.46 59.0336 69.1107 58.9522 69.7613C58.8709 70.2493 58.9116 70.6967 58.9929 71.144C59.0336 71.5507 59.1149 71.998 59.1556 72.4453C59.5622 72.8113 60.0096 73.2587 60.4976 73.6653C60.6602 73.6653 60.9449 73.6247 61.1889 73.584C61.7176 73.5027 62.3276 73.5433 62.8969 73.2993C63.3849 73.0553 63.9136 73.0147 64.4422 72.73C64.8896 72.486 65.4182 72.3233 65.9062 72.0793C66.4349 71.7947 66.9229 71.51 67.4109 71.1847C68.1022 70.7373 68.7936 70.2493 69.4036 69.802C69.5662 69.68 69.7289 69.5987 69.8916 69.5173C70.0136 69.4767 70.2576 69.4767 70.2982 69.5173C70.5829 69.8427 70.9489 69.802 71.3149 69.802C71.3962 69.8427 71.4776 69.802 71.5589 69.802C72.2096 69.8833 72.2909 70.0053 72.1689 70.8187C72.2909 70.9 72.4536 70.9813 72.6162 71.1033C72.5756 72.3233 71.6809 73.0147 70.7456 73.5433C70.3796 73.7467 70.0542 73.7873 69.6476 73.9093C69.5256 74.072 69.3629 74.316 69.2409 74.5193C69.1189 74.7227 68.6716 74.2753 68.6716 74.7633C68.2649 75.1293 67.8176 75.414 67.3702 75.536C67.1669 75.5767 66.9636 75.6173 66.8416 75.6987C66.0282 76.268 65.1336 76.5527 64.2389 76.878C62.8156 77.3253 61.4329 77.4473 59.9689 77.2847C59.3996 77.2033 58.8302 76.9593 58.7082 76.268C58.7082 76.268 58.6676 76.2273 58.6269 76.1867C58.5049 76.146 58.4236 76.146 58.3829 76.268C58.3422 76.3493 58.3016 76.39 58.3016 76.4713C58.1389 76.5527 58.0169 76.4713 57.8949 76.39C57.5696 76.146 57.2442 75.9427 56.9189 75.658C56.7156 75.414 56.5122 75.17 56.2682 74.926C56.2276 74.804 56.1462 74.7227 56.1462 74.6413C55.8616 73.6653 55.2109 72.7707 55.2922 71.6727C55.2922 71.388 55.2109 71.1033 55.1702 70.8187C55.1296 69.6393 55.2109 68.3787 55.7396 67.24C55.7802 67.0773 55.8616 66.9147 55.8209 66.6707C55.7802 66.3453 55.7802 66.02 56.0649 65.7353C56.2276 65.5727 56.3089 65.288 56.4309 65.0847C56.2276 64.8407 56.3902 64.6373 56.5529 64.434C56.6749 64.2307 56.7562 63.946 56.7562 63.702C56.9189 63.2547 57.0816 62.8073 57.6916 62.6853C57.7729 62.6853 57.8949 62.4413 57.7322 62.36C57.5696 62.1567 57.6509 61.994 57.7729 61.872C57.8949 61.75 58.0576 61.628 58.1796 61.506C58.3016 61.4247 58.5049 61.3433 58.5049 61.2213C58.6269 60.53 59.1962 60.2047 59.6436 59.798C59.9282 59.5133 60.3756 59.3507 60.7822 59.1067C60.8229 59.1067 60.9042 59.1067 60.9856 59.1067ZM57.6916 65.166C57.2849 65.8167 57.2442 66.02 57.0002 67.2807C57.2036 67.3213 57.2442 67.1993 57.2849 67.0773C57.5696 66.4673 57.7729 65.8573 57.6916 65.166C57.8949 65.0847 58.0982 64.9627 58.0982 64.678C57.8949 64.6373 57.6916 64.6373 57.3256 64.556C57.4882 64.8407 57.6102 65.0033 57.6916 65.166ZM62.2056 62.6447C62.4496 63.0107 62.6122 63.3767 62.7749 63.7427C63.0189 64.2307 63.4256 64.5153 63.8729 64.8C63.9949 64.8407 64.1576 64.922 64.2796 64.8813C64.9302 64.7593 65.6216 64.5967 66.1909 64.1087C66.5162 63.7427 66.3942 63.1733 65.9062 62.9293C65.3369 62.6447 64.5642 62.6447 63.9949 62.1973C63.9949 62.1567 63.8729 62.1567 63.7916 62.1567C63.5069 62.2787 63.2222 62.238 62.9782 62.238C62.6936 62.238 62.4902 62.482 62.2056 62.6447ZM63.5069 59.7573C63.7102 59.7573 63.9136 59.5947 63.9949 59.3913C63.9949 59.3507 63.9542 59.2287 63.9136 59.2287C63.6696 59.1067 63.4256 59.2693 63.3849 59.5133C63.3849 59.554 63.4662 59.6353 63.5069 59.7573ZM59.2369 61.262C59.3589 61.506 59.3589 61.628 59.4402 61.7093C59.5622 61.872 59.7249 61.872 59.8876 61.75C59.9689 61.7093 60.0096 61.628 60.0096 61.5467C60.0096 61.506 59.9689 61.4247 59.8876 61.4247C59.7249 61.384 59.5622 61.3433 59.2369 61.262ZM61.5549 62.6447C61.6362 62.5633 61.7176 62.5633 61.7582 62.482C61.8396 62.3193 61.5549 61.9533 61.3922 61.994C61.3109 62.0347 61.3109 62.1567 61.3109 62.1973C61.3922 62.36 61.4736 62.482 61.5549 62.6447ZM57.0002 68.2567C56.8782 68.1753 56.8376 68.1347 56.7562 68.094C56.6749 68.094 56.5529 68.1753 56.5122 68.1753C56.4309 68.2567 56.5936 68.5007 56.7562 68.46C56.7969 68.46 56.8782 68.3787 57.0002 68.2567ZM81.3164 54.2267V54.1047C81.4384 53.576 82.577 50.9733 82.943 50.4447L83.7564 50.8107C84.0004 51.1767 84.0817 51.5427 83.919 51.99C83.6344 52.4373 83.5937 52.478 82.9837 52.8033C83.2277 53.1287 83.4717 53.332 83.8377 53.6573C83.6344 54.2267 83.431 54.796 83.187 55.3653C83.065 55.65 82.8617 55.65 82.6177 55.7313C82.211 55.9347 82.211 55.9347 82.5364 56.4227C82.5364 56.4633 82.5364 56.504 82.6177 56.5853L80.7877 61.2213L80.5437 61.994C80.2997 62.604 80.1777 63.214 79.9744 63.7833C79.7304 64.3527 79.649 64.9627 79.3237 65.532C79.2017 65.9387 79.1204 66.386 79.0797 66.752C79.0797 67.24 78.795 67.5247 78.5104 67.6873C78.7137 67.9313 78.8764 68.1753 78.7544 68.46C78.429 69.6393 78.429 70.9407 78.2257 72.2013C78.185 72.486 78.3477 72.6893 78.4697 72.974C78.6324 73.462 78.6324 73.462 78.795 73.5433C78.8764 73.5433 78.917 73.6653 79.039 73.706C79.039 73.9907 78.9984 74.3973 79.1204 74.7227C79.2424 75.048 79.161 75.4547 79.2017 75.8207C78.9577 76.1053 78.673 76.3087 78.3884 76.5933C77.6157 77.244 76.477 77.2033 75.8264 76.39C75.6637 76.1867 75.5417 76.0647 75.379 75.8207C75.4604 75.6173 75.623 75.536 75.6637 75.414C75.7044 75.292 75.7044 75.2107 75.6637 75.17C75.623 75.1293 75.4604 75.048 75.4604 75.048C75.257 75.2513 75.135 75.4547 74.891 75.536C74.3624 74.7227 74.1184 73.7873 74.1184 72.6893C74.1184 71.4287 74.281 70.2493 74.4844 69.1107C74.7284 68.7447 75.135 69.07 75.379 68.704C75.1757 68.582 75.0537 68.5413 74.8504 68.4193C74.769 68.338 74.647 68.216 74.6877 68.1347C74.891 67.3213 74.769 66.4267 75.379 65.6947C75.4604 65.654 75.4604 65.4913 75.4604 65.3693C75.257 64.9627 75.4197 64.6373 75.5417 64.2307C75.9077 62.6853 76.477 61.0993 77.0464 59.5133C77.209 59.2287 77.4937 58.944 77.5344 58.7C77.575 58.2933 77.6157 58.0087 77.7377 57.6833C77.8597 57.236 77.8597 57.236 78.5104 56.9513C78.3884 56.8293 78.3477 56.6667 78.2257 56.504C78.795 54.674 79.6897 52.844 80.4624 51.0547C80.869 51.014 81.1944 50.9327 81.3164 50.4447C81.3977 50.1193 81.5197 50.1193 82.1704 50.3227C81.967 50.8107 81.8857 51.3393 81.6417 51.8273C80.9504 53.0473 80.5844 54.2673 80.0964 55.4873C79.649 56.504 79.405 57.5207 78.7544 58.3747C78.7137 58.4967 78.6324 58.6187 78.673 58.7813C78.673 59.2693 78.3884 59.798 78.185 60.3267C77.9004 61.0993 77.6564 61.9127 77.4124 62.726C77.2904 63.0513 77.209 63.336 77.087 63.7427C76.9244 64.2307 76.5177 64.7187 76.6804 65.3693C76.721 65.532 76.5584 65.776 76.5177 65.9793C76.355 66.874 76.1924 67.7687 76.0297 68.7447C75.989 68.826 76.0297 69.0293 76.111 69.192C76.355 69.07 76.3957 68.826 76.4364 68.6227C76.7617 66.508 77.331 64.4747 77.9817 62.482C78.3884 61.1807 78.917 59.8793 79.3237 58.7L80.3404 56.016C80.5844 55.6093 80.8284 55.162 81.0724 54.7147L81.1944 54.8773C81.357 54.9993 81.5604 55.04 81.723 54.8367C81.845 54.5927 81.6824 54.4707 81.479 54.308C81.3977 54.2673 81.357 54.2267 81.3164 54.2267ZM94.8768 67.484C95.2021 68.1753 94.9988 68.094 94.5515 68.2973C94.6328 68.5007 94.7141 68.704 94.6328 68.9073C94.4701 69.4767 94.2261 69.924 93.9008 70.534C93.8195 70.29 93.7788 70.29 93.7788 70.2087C93.7381 70.1273 93.6568 70.0867 93.6975 70.0053C93.2095 70.29 93.2095 70.29 93.6161 70.9813C93.1688 71.998 92.4775 72.8113 91.8268 73.584C91.7455 73.7467 91.5828 73.7873 91.4608 73.8687C91.3795 73.9093 91.2168 73.95 91.1355 74.1127C91.0135 74.2753 90.7695 74.3973 90.7695 74.6007C90.5661 75.0073 90.1595 75.2513 89.7935 75.4953C89.1428 76.0647 88.4515 76.4713 87.6381 76.7967C86.7435 77.122 85.8488 77.0813 84.9135 76.9593C84.7508 76.9187 84.7915 76.4713 84.5068 76.4307C84.2221 76.39 83.9781 76.2273 83.7748 76.146C83.2461 75.9427 83.0428 75.5767 83.0835 75.0887C83.0835 74.8447 82.8801 74.8447 82.7988 74.682C82.9615 74.6413 83.1241 74.6413 83.3681 74.6007C83.1241 74.316 82.7175 74.3567 82.5141 74.1533C82.2701 73.8687 82.2701 73.5433 82.2295 73.218C82.1888 72.3233 82.0261 71.388 82.1481 70.4933C82.2701 69.5173 82.3108 68.46 82.7581 67.5247C82.9615 66.9553 83.2055 66.386 83.2461 65.8573C83.2868 65.6947 83.3275 65.5727 83.4088 65.41C83.8155 64.8407 83.8155 64.1493 83.6121 63.5393C83.3681 62.6853 83.6528 61.9533 83.9781 61.14C84.1815 60.4893 84.6288 59.8793 85.1168 59.3507C85.6455 58.7407 86.2555 58.1307 86.9875 57.6833C87.3941 57.358 87.8415 57.0733 88.2888 56.9513C88.5328 56.9107 88.6955 56.8293 88.8581 56.748C89.6715 56.26 90.5255 56.1787 91.3795 56.4633C92.2335 56.6667 93.0875 56.9513 93.7788 57.5207C93.9415 57.6427 94.0635 57.7647 94.0635 57.846C94.1448 58.2933 94.6735 58.4153 94.7548 58.7407C94.8768 59.0253 95.0801 59.2693 95.1208 59.432C95.4461 60.3267 95.6495 61.262 95.7308 62.116C95.8528 63.0513 95.8935 63.946 95.7308 64.8407C95.6901 65.044 95.7308 65.288 95.7308 65.532C95.6901 65.7353 95.6901 65.9387 95.5681 66.0607C95.3241 66.3047 95.2021 66.63 95.1615 67.0367C95.1208 67.1587 94.9175 67.3213 94.8768 67.484ZM91.2575 66.386C90.9728 66.4267 90.9321 66.5893 90.8915 66.7927C90.8101 67.118 90.7288 67.24 90.4441 67.1587C90.4035 67.1587 90.3221 67.1993 90.2408 67.118C89.9968 67.0367 89.9155 67.118 89.7528 67.24C89.7121 67.362 89.5495 67.4027 89.3868 67.4433C89.1021 67.4027 88.7768 67.362 88.4515 67.2807C88.0041 67.1993 87.5975 67.118 87.1501 67.0367C86.7841 67.0367 86.6215 67.1587 86.5808 67.5247C86.5401 67.7687 86.4995 67.972 86.3368 68.1347C86.1741 68.2567 86.1741 68.3787 86.1335 68.46C86.0521 68.948 86.0521 69.436 85.9708 69.8833C85.8895 70.412 86.1741 70.9813 85.6048 71.3067C85.6048 71.3473 85.6048 71.388 85.6048 71.4287C85.9301 71.876 85.8081 72.4453 85.9708 72.9333C86.0928 73.1367 86.2961 73.218 86.5401 73.1367C87.2721 72.7707 87.8821 72.242 88.4921 71.7133C89.0208 71.2253 89.4681 70.6153 89.9968 70.1273C90.0375 70.046 90.1188 69.924 90.1595 69.8833C90.0781 69.558 90.3221 69.3547 90.4035 69.07C90.6881 68.5413 90.9728 67.972 91.2168 67.362C91.3795 67.118 91.3388 66.752 91.2575 66.386ZM91.0135 66.0607C91.3388 65.9793 91.4608 65.9793 91.5015 65.9793C91.8675 65.7353 92.0708 65.4507 92.0708 65.0847C92.1115 64.556 92.0708 64.0273 92.0708 63.5393C92.0708 62.726 91.9895 61.9533 91.7048 61.262C91.5421 60.8147 91.4201 60.408 91.0135 60.164C90.2815 60.0827 89.6715 60.4487 89.0208 60.5707C88.6548 60.6927 88.6548 61.1807 88.3701 61.4247C88.2481 61.5467 88.0448 61.6687 87.8415 61.7907C87.6788 61.994 87.5975 62.1567 87.4348 62.238C87.2721 62.6853 87.4348 63.0107 87.5161 63.4173C88.0041 63.2547 88.3701 63.458 88.7768 63.5393C89.2241 63.6207 89.6308 63.702 90.0375 63.7833C90.0375 64.068 90.0375 64.19 90.0781 64.3527C90.4848 64.5153 90.9728 64.19 91.2981 64.6373C91.4608 65.0847 91.2575 65.4913 91.0135 66.0607ZM93.1688 66.63C93.0061 66.7113 92.9655 66.7113 92.9248 66.6707C92.5181 67.5247 92.0301 68.2973 91.6641 69.1107C91.5421 69.2327 91.5828 69.4767 91.5828 69.6393C91.6235 69.7207 91.7048 69.7613 91.7048 69.802C91.7455 69.802 91.8268 69.7613 91.8675 69.7207C92.5181 68.7853 93.0061 67.8093 93.1688 66.63ZM94.6735 60.286C94.3888 60.408 94.1448 60.4487 93.9008 60.5707C93.8601 60.5707 93.7788 60.774 93.7788 60.8553C93.8195 60.9367 93.8601 61.018 93.9415 61.0587C94.2261 61.0993 94.5108 61.14 94.7955 61.1807C94.9175 61.1807 94.9581 61.018 94.8768 60.896C94.8768 60.7333 94.8361 60.5707 94.6735 60.286ZM91.0135 71.1033C91.0135 71.0627 90.8915 70.9 90.8101 70.9C90.5255 70.9 90.4441 71.0627 90.3628 71.3067C90.3628 71.3473 90.4035 71.4693 90.4441 71.4693C90.6068 71.5913 90.8101 71.51 90.9728 71.2253C90.9728 71.2253 90.9728 71.1847 91.0135 71.1033ZM87.4348 74.7633C87.4755 74.3973 87.2315 74.2347 86.9061 74.072C86.8248 74.072 86.7435 74.1533 86.7028 74.1533C86.6621 74.2347 86.6621 74.3567 86.6621 74.3567C86.9061 74.5193 87.1501 74.682 87.3535 74.8447C87.3941 74.8447 87.3941 74.804 87.4348 74.7633ZM96.7068 83.0593L96.2188 83.4253C96.1375 83.466 96.0968 83.6693 96.0968 83.6693C96.2188 83.9133 96.0561 84.1167 96.0155 84.32C95.9341 84.4827 96.0155 84.686 96.0155 84.93C95.7715 84.93 95.6088 84.93 95.4868 84.9707C95.2835 84.9707 95.1208 85.052 94.9175 85.052C94.6328 84.5233 94.7548 84.0353 94.7955 83.5473C95.1208 81.636 95.6495 79.7653 96.1781 77.8947C96.5848 76.3493 97.0728 74.8447 97.5201 73.34C97.5608 73.1367 97.6828 72.8113 97.5608 72.5673C97.2355 72.6487 97.1948 72.8113 97.1135 73.0147L96.3001 75.8613L96.2188 76.1053C96.0968 76.4307 95.8528 76.756 95.8121 77.122C95.7715 77.4473 95.7308 77.7727 95.6088 78.098L94.8361 80.8227C94.7955 80.9447 94.7955 81.148 94.7955 81.3107C94.6735 81.7173 94.6735 82.124 94.5108 82.5307C94.2261 83.1813 94.1041 83.7913 94.0228 84.4827C94.0228 84.564 93.9821 84.6453 93.9008 84.808C93.4535 84.442 93.2501 84.076 93.2095 83.5473C93.1688 82.5307 93.4128 81.514 93.6568 80.538L94.7548 76.3087C94.9581 75.8613 95.1208 75.3327 95.3241 74.804C95.4055 74.4787 95.4868 74.1127 95.6088 73.7467C96.0155 72.4453 96.3408 71.1847 96.7881 69.924C97.1541 68.826 97.1541 67.606 97.8455 66.5487C98.5368 64.5153 99.2281 62.4007 99.9195 60.3267C100.001 60.164 100.041 59.8387 100.204 59.7167C100.489 59.3913 100.692 59.1067 100.895 58.822C101.099 58.334 101.627 58.1713 102.197 58.1713C102.4 58.2933 102.319 58.4153 102.237 58.6593C102.197 58.7813 102.075 58.9033 102.197 59.066C102.481 59.1473 102.481 58.8627 102.603 58.7407C102.807 58.6593 102.929 58.456 103.051 58.2933C103.539 58.5373 103.864 58.8627 103.905 59.31C103.945 59.7573 104.108 60.164 104.189 60.6113C104.637 60.6113 104.881 60.286 105.165 60.164C106.019 59.4727 106.914 58.9847 107.89 58.5373L108.947 58.2527C109.435 58.0493 109.842 58.0493 110.289 58.3747C110.452 58.456 110.533 58.2933 110.533 58.1713C110.615 58.1307 110.696 58.09 110.737 58.1307C111.103 58.212 111.428 58.2933 111.753 58.4153C111.835 58.7 111.55 58.9033 111.631 59.188C111.713 59.6353 112.038 59.8387 112.567 59.676C112.689 59.5947 112.77 59.4727 112.973 59.554C112.851 59.7573 112.689 59.9607 112.607 60.164C112.77 60.286 113.055 60.4893 113.421 60.286C113.502 60.8147 113.827 61.262 113.624 61.7907C113.583 61.872 113.624 61.9533 113.665 62.0753C113.787 62.6853 113.746 63.336 113.543 63.946C113.299 64.5153 113.177 65.0847 113.014 65.654C112.77 66.2233 112.485 66.752 112.201 67.2807C111.347 68.7447 110.249 70.0053 108.907 71.0627C108.5 71.3067 108.175 71.5913 107.646 71.632C107.565 71.632 107.483 71.6727 107.402 71.7133C105.857 72.73 105.816 72.73 104.23 73.218C103.295 73.5027 102.319 73.6247 101.302 73.7873C100.977 73.8687 100.57 73.828 100.163 73.8687C99.6755 73.8687 99.5535 73.95 99.4315 74.3973C99.2281 74.8853 99.0655 75.4547 98.9435 75.902L98.8215 76.39C98.6181 76.878 98.6181 76.878 98.0488 77.1627L98.4961 77.4473C98.4148 77.6913 98.2521 78.0167 98.1708 78.342C98.0488 78.6267 98.0488 78.952 97.9675 79.2367L97.3575 81.6767C97.2355 82.002 96.9915 82.3273 97.0728 82.6933C97.0728 82.8153 96.8288 82.9373 96.7068 83.0593ZM107.239 62.6853C107.239 62.7667 107.321 62.97 107.321 62.97C106.711 63.2547 106.345 63.7833 105.816 64.1087C105.531 64.2713 105.409 64.556 105.003 64.556C104.921 64.556 104.84 64.6373 104.799 64.7187C104.596 65.288 104.067 65.4913 103.661 65.898C103.539 66.0607 103.376 66.1013 103.254 66.264C102.807 66.7113 102.319 67.2807 101.912 67.7687C101.302 68.4193 100.936 69.07 100.773 69.802C100.692 70.0867 100.936 70.29 101.221 70.29C101.505 70.2493 101.912 70.2087 102.197 70.0867C102.807 69.9647 103.417 69.924 103.986 69.6393C104.84 69.2327 105.775 68.8667 106.507 68.3787C106.589 68.338 106.833 68.3787 106.955 68.3787C106.995 68.1753 107.077 68.0127 107.199 67.8093C107.28 67.6467 107.402 67.484 107.565 67.3213C107.849 66.996 108.134 66.63 108.378 66.264C109.354 65.1253 109.72 63.7427 109.964 62.36C109.964 62.1567 109.964 61.9127 109.72 61.75C109.273 61.75 108.907 61.9127 108.581 62.1567C108.012 62.604 107.971 62.604 107.239 62.6853ZM110.94 64.1087C110.533 65.1253 109.842 65.9387 109.557 67.0773C110.208 66.508 110.574 66.0607 110.777 65.41C110.981 65.0033 111.225 64.6373 110.94 64.1087ZM96.7475 83.1L96.9508 83.344C96.9915 83.71 96.9101 84.0353 96.6255 84.32C96.4221 84.1167 96.5848 83.9133 96.6255 83.71C96.6255 83.5067 96.7068 83.3033 96.7475 83.1ZM98.6181 69.436C98.2115 69.5987 98.1708 69.8427 98.0895 70.046C98.0488 70.168 98.0488 70.29 98.2521 70.3307C98.4148 70.168 98.4961 70.0053 98.5368 69.802C98.5775 69.7207 98.6181 69.5987 98.6181 69.436ZM122.499 57.3173L122.337 58.2527C122.499 58.2527 122.581 58.2527 122.743 58.2933C122.499 59.4727 122.499 59.4727 121.971 59.8793C122.093 60.0827 122.215 60.2453 122.377 60.3673C122.662 60.4487 122.784 60.2453 122.906 60.0827C123.475 59.188 124.289 58.6593 125.183 58.1713C125.387 58.1307 125.59 58.0493 125.834 58.1307C125.875 58.1713 126.078 58.1713 126.119 58.09C126.607 57.6833 127.176 57.724 127.705 57.846C128.233 58.0493 128.64 58.4153 128.925 58.944C129.128 59.3507 129.494 59.7573 129.453 60.2453C129.331 61.0587 129.738 61.8313 129.738 62.604C129.738 62.6447 129.819 62.6447 129.86 62.6853C130.023 62.726 130.104 62.6447 130.226 62.5227C130.795 61.8313 131.324 61.0587 131.975 60.4487C132.544 59.8387 133.154 59.31 133.723 58.7813L135.147 57.5613C135.553 57.1953 136.001 56.7887 136.529 56.7073C136.611 56.6667 136.692 56.5447 136.814 56.504C136.936 56.3413 136.977 56.1787 137.099 56.0973L138.522 55.2027L138.847 55.1213C138.807 55.3653 138.685 55.6093 138.685 55.8127C138.644 55.894 138.725 56.016 138.807 56.0973L139.01 55.9753C139.091 55.772 139.132 55.528 139.132 55.3247C139.132 55.162 138.969 55.1213 138.847 55.1213C139.173 54.6333 139.742 54.4707 140.23 54.308C140.433 54.2267 140.718 54.186 140.962 54.1453C141.125 54.2673 141.287 54.308 141.491 54.43L142.263 54.1047C142.345 54.1453 142.426 54.1453 142.467 54.186C142.751 54.43 143.036 54.7553 143.321 54.9587C143.565 55.162 143.727 55.3653 143.565 55.65C143.565 55.7313 143.565 55.894 143.646 55.9347C144.093 56.5853 143.971 57.236 143.687 57.8053C143.239 58.5373 143.117 59.31 142.751 60.0827C142.426 60.774 142.182 61.5467 141.857 62.2787C141.694 62.6447 141.572 63.0513 141.369 63.4173C141.287 63.58 141.084 63.7833 140.84 63.946C140.677 64.068 140.84 64.19 140.881 64.312C140.759 64.434 140.596 64.4747 140.433 64.556C140.352 64.8407 140.637 64.8813 140.759 65.0033C140.759 65.2473 139.823 68.4193 139.335 69.7613C139.173 69.8833 139.091 69.6393 138.969 69.6393C138.888 69.6393 138.725 69.7613 138.725 69.802C138.807 70.0867 138.563 70.2493 138.481 70.4933C138.807 70.656 138.888 70.29 139.132 70.29C139.173 70.3713 139.213 70.4933 139.213 70.5747C139.132 70.8187 139.051 71.144 138.766 71.3473C138.685 71.2253 138.603 71.144 138.522 70.9813C138.481 71.0627 138.4 71.0627 138.4 71.1033C138.359 71.2253 138.237 71.4693 138.197 71.632C138.197 71.876 137.912 72.1607 138.156 72.2827C138.522 72.5673 138.522 72.0387 138.807 71.876V72.364C138.888 72.73 138.4 73.0147 138.522 73.3807C138.603 73.706 138.481 74.072 138.441 74.3567C138.4 74.7227 138.319 75.0887 138.197 75.4547C138.115 75.6987 138.197 76.024 138.197 76.3493C138.278 76.39 138.4 76.4713 138.441 76.4713C138.563 76.5527 138.563 76.634 138.441 76.756C138.319 77 137.912 77.0407 137.79 77.4473C137.79 77.488 137.627 77.5693 137.505 77.5287C137.343 77.488 137.18 77.488 136.977 77.5693C136.611 77.6507 136.611 77.5693 136.489 77.1627C136.407 76.5527 136.285 76.024 136.123 75.3327C136.001 75.414 135.838 75.414 135.675 75.4953C135.675 75.8207 135.675 76.1053 135.716 76.4713L135.879 77.4067L135.553 77.244C134.659 76.1867 134.537 75.0073 134.699 73.6653C134.74 73.5027 134.821 73.34 135.025 73.2993L135.431 73.1367C135.228 73.0553 135.025 72.974 134.984 72.852C134.903 72.6487 134.903 72.4047 134.943 72.1607C134.984 71.7947 135.065 71.4287 135.147 71.0627C135.269 70.8187 135.513 70.8593 135.675 70.8187C135.716 70.8187 135.797 70.7373 135.797 70.7373C135.757 70.6153 135.675 70.4933 135.594 70.4933C135.472 70.4527 135.35 70.4527 135.35 70.2493C135.35 70.1273 135.391 70.0053 135.472 69.924C135.553 69.7207 135.757 69.436 135.919 69.2327C135.757 68.9073 135.879 68.6633 135.96 68.338C136.041 67.9313 136.082 67.484 136.245 67.0773C136.57 66.1827 136.692 65.2473 137.18 64.3933C137.261 64.2713 137.302 64.068 137.302 63.946C137.343 63.4987 137.505 63.0107 137.709 62.5633C137.831 62.36 137.912 62.116 137.953 61.872C138.034 61.628 138.115 61.506 138.359 61.3433C138.4 61.3027 138.481 61.14 138.441 61.0587C138.319 60.652 138.644 60.3267 138.725 59.92C138.644 59.8387 138.563 59.7573 138.441 59.7573C138.359 59.7573 138.156 59.798 138.034 59.8793C137.749 60.4487 137.139 60.6927 136.733 61.1807C136.651 61.3027 136.489 61.4247 136.407 61.4653C136.041 61.5467 135.797 61.6687 135.757 62.0347L134.333 63.458C134.089 63.6613 133.805 63.824 133.683 64.1493C133.601 64.312 133.398 64.3527 133.235 64.434C133.113 64.5153 132.991 64.6373 132.991 64.8C132.951 65.41 132.585 65.776 131.934 65.776L132.137 66.264C131.405 66.996 131.121 68.0533 130.551 68.9887C130.348 68.948 130.185 68.9073 130.023 68.9073C129.941 68.9073 129.86 68.9887 129.86 69.0293C129.819 69.07 129.86 69.192 129.901 69.2327C130.023 69.2733 130.185 69.314 130.267 69.3953C130.226 69.9647 129.738 70.29 129.575 70.8187C129.25 71.1033 128.843 71.388 128.396 71.3067C128.111 71.2253 127.908 71.5507 127.705 71.5913C127.542 71.4693 127.379 71.2253 127.257 71.2253C126.444 71.2253 126.322 70.6967 126.037 70.2493C126.159 70.0053 126.444 70.0867 126.403 69.802C126.363 69.4767 126.078 69.5987 125.875 69.5173C125.875 69.3547 125.834 69.192 125.834 68.9887C125.834 68.2973 125.875 67.606 125.875 66.874C125.875 66.2233 125.753 65.4913 125.875 64.8407V64.3933C125.875 63.824 125.875 63.2547 126.159 62.8073C125.997 62.5633 125.834 62.5633 125.671 62.6853C125.387 62.9293 125.061 63.1327 124.858 63.4173C124.289 64.068 123.719 64.8 123.231 65.4913C122.784 66.1827 122.377 66.9147 121.93 67.6873C121.767 67.9313 121.564 68.1347 121.401 68.338C121.361 68.4193 121.239 68.46 121.239 68.5413C121.442 69.192 120.629 69.4767 120.588 70.0867C120.588 70.4527 120.385 70.7373 120.181 71.0627C120.141 71.1033 120.019 71.022 119.897 70.9813C119.734 71.3473 119.978 71.876 119.531 72.1607C119.49 72.608 119.205 72.9333 119.083 73.2993C118.839 73.7873 118.433 74.194 118.433 74.804C118.433 74.8853 118.392 75.0073 118.311 75.0887C118.148 75.536 118.026 75.9427 117.701 76.2273C117.416 76.5527 116.969 76.8373 116.562 77.0407C116.399 77.1627 116.237 77.1627 115.952 77.1627C115.871 76.512 115.627 76.024 115.301 75.4547C115.098 75.536 115.22 75.6987 115.179 75.902C115.139 76.1053 115.139 76.39 115.139 76.756C114.773 76.5527 114.61 76.39 114.366 76.2273C114.325 75.9427 114.325 75.6173 114.244 75.3733C114.163 75.0887 114.244 74.8853 114.244 74.6007C114.285 74.1533 114.773 73.828 114.569 73.34C114.732 72.852 114.813 72.4047 114.935 71.9573L115.261 70.534C115.261 70.4527 115.301 70.412 115.301 70.29C115.423 69.8833 115.749 69.558 115.749 69.0293C115.749 68.5413 115.952 68.094 116.115 67.6467C116.318 66.7927 116.562 65.9387 116.847 65.0847C117.579 62.726 118.27 60.3267 119.002 57.9273C119.124 57.602 119.246 57.3173 119.327 56.992C119.49 56.26 120.1 56.016 120.588 55.5687C120.873 56.3413 120.873 56.3413 120.669 56.8293C120.425 57.5613 120.059 58.212 119.937 59.0253L119.856 59.188C119.368 59.798 119.368 60.53 119.165 61.1807L118.636 63.4173C118.636 63.4987 118.636 63.58 118.595 63.6207C117.904 64.068 118.189 64.8407 118.026 65.41C117.904 65.776 117.823 66.1827 117.497 66.508C117.538 66.7113 117.619 66.874 117.66 67.118H117.863C118.148 66.8333 118.229 66.4673 118.311 66.1013C118.555 65.41 118.717 64.7593 118.921 64.068C118.961 63.9867 118.961 63.946 118.961 63.9053C119.612 61.8313 120.222 59.7167 120.873 57.6833C120.954 57.5207 120.995 57.358 121.035 57.236C121.523 57.1953 121.523 57.1953 122.011 56.87C122.052 56.5853 121.767 56.26 122.174 55.9347C122.418 56.016 122.581 56.2193 122.784 56.4633C122.784 56.748 122.703 57.0733 122.499 57.3173ZM137.017 69.4767C136.977 69.4767 136.895 69.4767 136.814 69.5173C136.448 69.7613 136.407 69.802 136.692 70.2493V70.3307C136.489 70.534 136.326 70.7373 136.123 70.8593C136.407 71.388 136.448 71.876 136.204 72.4047C136.123 72.5673 136.163 72.73 136.163 72.9333C136.123 73.34 136.245 73.7467 135.879 74.072C135.879 74.072 135.96 74.194 136.001 74.2347C136.082 74.2753 136.163 74.2347 136.285 74.194L136.367 74.1127C136.529 73.218 136.773 72.364 136.936 71.4693C137.017 70.8187 137.017 70.168 137.099 69.5173C137.587 68.9887 137.546 68.338 137.668 67.728C137.709 67.6873 137.587 67.606 137.505 67.606C137.465 67.606 137.383 67.6467 137.383 67.6873C137.221 68.2567 137.139 68.8667 137.017 69.4767ZM135.553 60.0827V60.774C135.594 61.0587 135.797 61.1807 136.041 61.0993L136.367 61.018C136.814 60.774 136.855 60.4893 136.489 60.1233C136.163 59.8387 136.163 59.8387 135.553 60.0827ZM127.379 68.46C126.769 68.4193 126.363 68.5413 126.078 68.9073C126.037 68.9887 126.119 69.192 126.159 69.192C126.444 69.314 126.81 69.314 126.932 69.07C127.054 68.7853 127.257 68.6633 127.379 68.46ZM141.125 58.1713C141.287 58.3747 141.491 58.6187 141.694 58.7813H141.735C141.775 58.5373 141.816 58.2933 141.897 58.09C141.979 57.7647 141.897 57.602 141.653 57.4393C141.531 57.7647 141.45 57.9273 141.125 58.1713ZM127.664 63.6207L127.217 62.726C126.769 62.848 126.688 62.97 126.851 63.2547C126.973 63.4987 127.217 63.58 127.42 63.702C127.461 63.7427 127.583 63.6613 127.664 63.6207ZM139.376 61.7093C139.579 61.7907 139.742 61.872 139.905 61.9127L140.108 61.7093C139.783 61.506 139.864 61.0993 139.864 60.7333C139.457 60.9367 139.457 61.3027 139.376 61.7093ZM137.627 64.434L138.075 65.3287C138.115 65.3693 138.237 65.3693 138.278 65.3693C138.359 65.3693 138.4 65.2473 138.4 65.166C138.4 64.8407 138.156 64.678 137.627 64.434ZM136.977 68.2567C137.099 68.0127 136.895 67.8093 136.814 67.6873C136.773 67.6467 136.611 67.5653 136.529 67.606C136.448 67.606 136.407 67.728 136.285 67.8093C136.489 68.0533 136.692 68.1753 136.977 68.2567ZM120.425 67.2807C120.1 67.362 119.978 67.4027 119.775 67.5247C119.775 67.5247 119.693 67.6873 119.734 67.728C119.775 67.8093 119.897 67.8907 119.978 67.9313C120.181 67.9313 120.303 67.8093 120.425 67.2807ZM140.23 55.4467C140.677 55.284 140.637 54.8773 140.759 54.6333C140.759 54.6333 140.637 54.552 140.555 54.552C140.352 54.796 140.311 55.0807 140.23 55.4467ZM143.158 57.846C143.321 57.6833 143.443 57.48 143.443 57.236C143.443 57.1953 143.443 57.0733 143.361 57.0327C143.321 57.0327 143.239 57.0733 143.239 57.1547C143.036 57.3173 142.995 57.5613 143.158 57.846ZM139.417 62.6853C139.376 62.6447 139.376 62.5227 139.335 62.5227C139.295 62.5227 139.173 62.5227 139.132 62.5633C139.051 62.6447 138.969 62.726 138.969 62.848C138.888 62.97 139.01 63.0513 139.173 63.0513C139.376 63.0107 139.457 62.9293 139.417 62.6853ZM140.515 60.286C140.311 60.2047 140.149 60.1233 139.945 60.0827C139.905 60.042 139.823 60.1233 139.823 60.1233C139.783 60.164 139.823 60.286 139.864 60.3267C140.027 60.4893 140.271 60.4893 140.515 60.286ZM139.173 67.6467C139.701 67.5247 139.742 67.484 139.579 66.996C139.417 67.1993 139.295 67.4027 139.173 67.6467ZM123.069 60.9773C123.109 61.018 123.231 60.9773 123.272 60.9367C123.313 60.774 123.313 60.6113 123.191 60.5707C123.15 60.53 123.028 60.53 122.987 60.5707C122.865 60.6927 122.906 60.9367 123.069 60.9773ZM148.475 59.1067C148.678 59.188 148.556 59.432 148.678 59.554C148.841 59.6353 149.206 59.5133 149.329 59.31C149.41 59.1067 149.329 58.9033 149.369 58.6187C149.857 58.6187 150.386 58.578 150.874 58.6187C151.036 58.6187 151.24 58.7 151.403 58.7813C151.606 58.9033 151.85 58.944 152.135 58.8627C152.582 58.822 153.07 58.9847 153.476 59.1067C153.68 59.4727 153.883 59.0253 154.046 59.1473C154.29 59.2693 154.371 59.554 154.737 59.554C154.9 59.554 155.144 59.6353 155.307 59.7573C156.282 60.2453 157.055 60.9773 157.421 62.0347C157.665 62.604 157.828 63.1733 157.787 63.8647C157.747 64.3527 157.747 64.3527 157.299 64.8407C157.381 64.922 157.421 65.044 157.502 65.1253C157.462 65.2067 157.502 65.288 157.421 65.3287C157.015 66.1013 156.486 66.7927 155.754 67.3213C155.55 67.4433 155.347 67.6467 155.184 67.6873C154.859 67.8093 154.412 67.8093 154.127 68.0127C153.802 68.216 153.476 68.338 153.151 68.4193C152.989 68.338 152.907 68.2567 152.785 68.1753C152.257 68.6633 152.257 68.6633 151.728 68.6633C151.281 68.6633 150.874 68.582 150.467 68.3787C150.426 67.8907 150.061 68.1753 149.776 68.1753C149.613 68.094 149.451 67.9313 149.247 67.7687C149.085 67.6873 148.963 67.5247 148.8 67.5247C148.271 67.484 148.393 67.118 148.353 66.7927C148.149 66.7927 148.027 66.7927 147.865 66.7927C147.783 66.752 147.743 66.7113 147.743 66.7113C147.661 66.5487 147.783 66.264 147.539 66.264C147.417 66.264 147.255 66.4267 147.173 66.5487C147.051 66.9553 146.889 67.362 146.807 67.8093C146.645 68.46 146.523 69.1107 146.441 69.7613C146.36 70.2493 146.401 70.6967 146.482 71.144C146.523 71.5507 146.604 71.998 146.645 72.4453C147.051 72.8113 147.499 73.2587 147.987 73.6653C148.149 73.6653 148.434 73.6247 148.678 73.584C149.206 73.5027 149.816 73.5433 150.386 73.2993C150.874 73.0553 151.403 73.0147 151.931 72.73C152.379 72.486 152.907 72.3233 153.395 72.0793C153.924 71.7947 154.412 71.51 154.9 71.1847C155.591 70.7373 156.282 70.2493 156.893 69.802C157.055 69.68 157.218 69.5987 157.381 69.5173C157.502 69.4767 157.747 69.4767 157.787 69.5173C158.072 69.8427 158.438 69.802 158.804 69.802C158.885 69.8427 158.967 69.802 159.048 69.802C159.699 69.8833 159.78 70.0053 159.658 70.8187C159.78 70.9 159.942 70.9813 160.105 71.1033C160.065 72.3233 159.17 73.0147 158.235 73.5433C157.869 73.7467 157.543 73.7873 157.136 73.9093C157.015 74.072 156.852 74.316 156.73 74.5193C156.608 74.7227 156.161 74.2753 156.161 74.7633C155.754 75.1293 155.307 75.414 154.859 75.536C154.656 75.5767 154.453 75.6173 154.33 75.6987C153.517 76.268 152.623 76.5527 151.728 76.878C150.305 77.3253 148.922 77.4473 147.458 77.2847C146.889 77.2033 146.319 76.9593 146.197 76.268C146.197 76.268 146.157 76.2273 146.116 76.1867C145.994 76.146 145.913 76.146 145.872 76.268C145.831 76.3493 145.791 76.39 145.791 76.4713C145.628 76.5527 145.506 76.4713 145.384 76.39C145.059 76.146 144.733 75.9427 144.408 75.658C144.205 75.414 144.001 75.17 143.757 74.926C143.717 74.804 143.635 74.7227 143.635 74.6413C143.351 73.6653 142.7 72.7707 142.781 71.6727C142.781 71.388 142.7 71.1033 142.659 70.8187C142.619 69.6393 142.7 68.3787 143.229 67.24C143.269 67.0773 143.351 66.9147 143.31 66.6707C143.269 66.3453 143.269 66.02 143.554 65.7353C143.717 65.5727 143.798 65.288 143.92 65.0847C143.717 64.8407 143.879 64.6373 144.042 64.434C144.164 64.2307 144.245 63.946 144.245 63.702C144.408 63.2547 144.571 62.8073 145.181 62.6853C145.262 62.6853 145.384 62.4413 145.221 62.36C145.059 62.1567 145.14 61.994 145.262 61.872C145.384 61.75 145.547 61.628 145.669 61.506C145.791 61.4247 145.994 61.3433 145.994 61.2213C146.116 60.53 146.685 60.2047 147.133 59.798C147.417 59.5133 147.865 59.3507 148.271 59.1067C148.312 59.1067 148.393 59.1067 148.475 59.1067ZM145.181 65.166C144.774 65.8167 144.733 66.02 144.489 67.2807C144.693 67.3213 144.733 67.1993 144.774 67.0773C145.059 66.4673 145.262 65.8573 145.181 65.166C145.384 65.0847 145.587 64.9627 145.587 64.678C145.384 64.6373 145.181 64.6373 144.815 64.556C144.977 64.8407 145.099 65.0033 145.181 65.166ZM149.695 62.6447C149.939 63.0107 150.101 63.3767 150.264 63.7427C150.508 64.2307 150.915 64.5153 151.362 64.8C151.484 64.8407 151.647 64.922 151.769 64.8813C152.419 64.7593 153.111 64.5967 153.68 64.1087C154.005 63.7427 153.883 63.1733 153.395 62.9293C152.826 62.6447 152.053 62.6447 151.484 62.1973C151.484 62.1567 151.362 62.1567 151.281 62.1567C150.996 62.2787 150.711 62.238 150.467 62.238C150.183 62.238 149.979 62.482 149.695 62.6447ZM150.996 59.7573C151.199 59.7573 151.403 59.5947 151.484 59.3913C151.484 59.3507 151.443 59.2287 151.403 59.2287C151.159 59.1067 150.915 59.2693 150.874 59.5133C150.874 59.554 150.955 59.6353 150.996 59.7573ZM146.726 61.262C146.848 61.506 146.848 61.628 146.929 61.7093C147.051 61.872 147.214 61.872 147.377 61.75C147.458 61.7093 147.499 61.628 147.499 61.5467C147.499 61.506 147.458 61.4247 147.377 61.4247C147.214 61.384 147.051 61.3433 146.726 61.262ZM149.044 62.6447C149.125 62.5633 149.206 62.5633 149.247 62.482C149.329 62.3193 149.044 61.9533 148.881 61.994C148.8 62.0347 148.8 62.1567 148.8 62.1973C148.881 62.36 148.963 62.482 149.044 62.6447ZM144.489 68.2567C144.367 68.1753 144.327 68.1347 144.245 68.094C144.164 68.094 144.042 68.1753 144.001 68.1753C143.92 68.2567 144.083 68.5007 144.245 68.46C144.286 68.46 144.367 68.3787 144.489 68.2567ZM174.743 63.2547C174.051 63.4987 173.482 63.8647 172.913 64.2713C171.774 65.166 170.757 66.142 169.659 67.118L168.968 67.8907C168.887 67.972 168.765 68.094 168.521 68.0533C168.399 68.0127 168.399 68.1347 168.358 68.216C168.317 68.6227 168.317 68.6227 167.992 68.704C167.911 68.7447 167.829 68.7447 167.748 68.7447C167.707 68.7447 167.707 68.7853 167.626 68.7853C167.504 68.948 167.829 68.9887 167.667 69.3547L167.301 69.7207C166.65 70.412 166.121 71.1847 165.674 71.9573C165.593 72.0387 165.471 72.0793 165.43 72.242C165.186 72.6487 164.698 72.852 164.576 73.462C164.535 73.8687 164.21 74.316 164.007 74.7227L163.519 75.5767C163.356 75.78 163.275 76.024 163.153 76.2273C162.949 76.634 162.665 76.878 162.095 76.8373C162.055 76.8373 161.933 76.8373 161.892 76.878L161.526 77.0407C161.526 76.7153 161.77 76.3087 161.282 76.0647L160.509 76.5933C160.347 76.4713 160.265 76.1867 160.021 76.0647C159.696 75.902 159.655 75.6173 159.899 75.3327C160.021 75.17 160.103 75.0073 160.021 74.7227C159.981 74.5193 160.021 74.316 160.062 74.1127C160.591 72.8113 160.835 71.4693 161.363 70.168C161.485 69.7207 161.526 69.2733 161.933 68.8667C161.933 68.826 161.973 68.7853 161.973 68.7853C161.933 68.1347 162.055 67.6467 162.38 67.1587C162.461 66.996 162.38 66.752 162.421 66.5893L162.827 65.4913L162.949 65.0847C163.112 63.9867 163.559 63.0513 163.803 61.9127C163.925 61.262 164.047 60.5707 164.291 59.8387C164.332 59.554 164.454 59.31 164.739 59.1473L165.186 59.4727C165.349 59.676 165.227 59.798 164.942 59.798C164.901 59.798 164.861 59.8387 164.82 59.8387C164.739 60.0827 165.023 60.2047 164.983 60.4487C164.901 60.5707 164.82 60.652 164.739 60.774L165.023 61.262L165.186 61.75C165.552 61.4247 165.552 61.018 165.593 60.6927C165.674 60.3673 165.755 60.0013 165.877 59.676C166.121 59.7167 166.243 59.798 166.487 59.798C166.569 59.798 166.609 59.7573 166.65 59.676C166.65 59.6353 166.65 59.5133 166.609 59.4727C166.487 59.3913 166.284 59.3913 166.121 59.2693C166.121 59.2287 166.121 59.1067 166.121 59.066C166.121 58.9847 166.284 58.9033 166.365 58.944C166.609 58.9847 166.853 59.066 167.057 59.1473C167.423 59.92 167.057 60.652 166.975 61.3433C167.057 61.3433 167.423 61.262 167.504 61.14C167.545 61.262 167.585 61.3433 167.585 61.4247C167.382 62.3193 167.097 63.2547 166.894 64.2307L166.813 64.8C167.097 64.922 167.341 64.8407 167.423 64.678C168.114 63.6613 169.293 62.9293 170.229 62.0347C170.351 61.872 170.473 61.8313 170.635 61.7093C171.205 61.384 171.733 60.9773 172.303 60.652C172.587 60.6927 172.262 60.896 172.425 61.018L172.994 61.14C173.116 60.9773 172.872 60.9367 172.791 60.774C172.994 60.3673 173.238 60.0013 173.726 59.798C174.092 59.676 174.417 59.5947 174.783 59.676C175.027 59.7573 175.068 59.7167 175.109 59.3913C175.19 59.188 175.312 59.1067 175.475 59.1473C176.003 59.1473 176.451 58.9847 176.898 58.7407C177.223 58.822 177.467 58.8627 177.833 58.9033C178.118 58.9033 178.362 58.9847 178.647 59.066C179.501 59.31 179.745 59.92 179.826 60.5707C179.948 60.9773 180.029 61.506 179.663 61.872C179.582 61.9533 179.623 62.1567 179.623 62.238C179.46 62.2787 179.338 62.2787 179.257 62.2787C178.931 62.36 178.769 62.4413 178.85 62.5633C178.891 62.6447 178.931 62.6447 179.297 62.6447C179.297 62.6447 179.338 62.726 179.297 62.7667C179.216 62.97 179.135 63.092 179.053 63.2547C178.809 63.4987 178.484 63.7833 178.525 64.1493L177.874 64.5967C177.874 64.8 177.833 65.0847 177.711 65.3693L177.305 65.9793C176.898 66.7927 176.491 67.606 176.003 68.4193C175.515 69.07 175.353 69.7207 175.068 70.3713C174.987 70.534 174.946 70.6967 174.905 70.8187C174.295 71.7133 174.255 72.73 173.97 73.6653C173.889 74.0313 174.011 74.316 174.336 74.4787C174.702 74.7227 174.824 75.048 174.743 75.3733C174.702 75.5767 174.865 75.7393 174.905 75.9427C174.743 76.4713 174.173 76.8373 173.685 77.1627C173.604 77.2847 173.401 77.2847 173.197 77.2847C172.262 77.244 171.489 76.878 170.92 76.1867C170.513 75.6173 170.229 74.8853 170.31 74.1533C170.351 73.218 170.432 72.364 170.757 71.4287C171.286 69.9647 171.855 68.5007 172.669 67.118C172.994 66.4673 173.238 65.898 173.645 65.3693C174.092 64.678 174.377 63.9867 174.743 63.2547ZM171.855 72.486C171.937 72.486 171.977 72.5267 171.977 72.486C172.506 72.0387 172.343 71.3067 172.75 70.778V70.5747L172.709 70.534C172.628 70.534 172.547 70.534 172.506 70.534L172.343 70.7373C172.181 71.266 171.937 71.9167 171.855 72.486ZM163.885 63.3767C164.21 63.3767 164.454 63.4173 164.739 63.4173C164.861 63.2953 164.861 63.1733 164.82 63.0513C164.739 62.7667 164.576 62.6853 164.373 62.8073C164.291 62.9293 164.129 63.092 163.925 63.092C163.885 63.1327 163.885 63.2547 163.885 63.3767ZM173.319 69.192C172.831 69.2327 172.953 69.558 172.831 69.6393C172.75 69.8427 172.587 69.9647 172.343 70.168C172.75 70.1273 172.953 70.0867 172.994 69.9647C173.116 69.7207 173.197 69.558 173.319 69.192ZM176.573 62.8073L177.305 62.6853C177.305 62.6447 177.305 62.5633 177.345 62.5227L176.735 62.4413C176.695 62.4007 176.573 62.482 176.532 62.482C176.491 62.5633 176.451 62.6447 176.451 62.726C176.451 62.7667 176.573 62.8073 176.573 62.8073ZM169.7 66.264C169.822 66.1013 169.741 65.9387 169.741 65.8167C169.7 65.776 169.537 65.7353 169.456 65.776C169.415 65.776 169.334 65.898 169.334 65.9387C169.456 66.0607 169.456 66.264 169.7 66.264ZM190.813 60.774L191.138 61.2213C191.342 61.6687 191.301 61.872 190.854 62.0753C190.691 62.1567 190.406 62.1973 190.244 62.2787C190.081 62.36 189.959 62.482 189.837 62.604C189.634 62.5227 189.39 62.4413 189.186 62.3193C189.064 62.36 188.983 62.482 188.82 62.482C188.088 62.7667 187.844 63.2953 187.722 63.946C187.438 65.2473 187.112 66.4267 186.746 67.6467C186.543 68.3787 186.462 69.1107 186.34 69.8833C186.177 70.778 185.974 71.632 185.852 72.5267C185.689 73.828 185.486 75.1293 186.014 76.4713C186.055 76.756 186.055 77.0407 186.136 77.3253C186.014 77.5287 185.852 77.732 185.689 77.854L185.079 77.7727C184.998 77.9353 184.957 78.098 184.835 78.2607C184.713 78.464 184.51 78.586 184.266 78.5047C183.94 78.4233 183.778 78.2607 183.696 77.9353C183.696 77.7727 183.615 77.6507 183.615 77.5287C183.493 77.244 183.29 77.0813 183.208 77.1627L183.127 77.5287C183.086 77.6507 183.046 77.732 183.046 77.8133C182.68 77.6507 182.598 77.3253 182.436 77.122C182.07 76.3087 181.826 75.5767 181.866 74.7227C181.948 71.8353 182.476 68.9887 183.127 66.1827C183.371 65.3693 183.574 64.5967 183.778 63.7833L183.859 63.2547C183.737 63.214 183.656 63.1733 183.534 63.214C182.924 63.336 182.314 63.4987 181.663 63.702C181.256 63.7833 180.768 63.824 180.321 63.6207C180.321 63.3767 180.321 63.2547 180.321 63.092C179.996 62.8073 179.752 63.214 179.426 62.97C178.979 62.482 178.857 61.872 179.02 61.1807C179.182 60.5707 179.548 60.2453 180.077 60.0827L183.534 59.3913C183.818 59.3507 184.022 59.2693 184.306 59.2693C184.998 59.2693 185.282 58.822 185.486 58.2527C185.567 58.09 185.608 58.0087 185.608 57.846C186.096 56.382 186.584 54.9587 187.153 53.576C187.438 53.0473 187.56 52.478 187.763 51.9493C188.048 51.258 188.292 50.4853 188.698 49.794C188.82 49.5093 189.105 49.306 188.983 48.8587C189.146 48.452 189.308 48.0047 189.512 47.6387C189.674 47.3947 189.918 47.3947 190.162 47.232C190.081 47.0693 190.04 46.9473 189.918 46.866C190.04 46.6627 190.203 46.5407 190.406 46.6627C190.528 46.7033 190.65 46.8253 190.772 46.866C190.772 46.8253 190.813 46.7847 190.813 46.744C190.813 46.5407 190.732 46.3373 191.016 46.4187C191.22 46.4187 191.342 46.622 191.26 46.8253C191.301 46.9067 191.301 46.988 191.26 47.11L190.732 48.208C190.447 48.2487 190.122 48.33 189.715 48.3707L190.447 48.9807C190.081 49.7127 189.837 50.4447 189.552 51.1767C189.471 51.2987 189.349 51.4207 189.268 51.5833C189.186 51.6647 189.064 51.746 189.064 51.7867C189.308 52.2747 188.902 52.6407 188.78 53.0067C188.698 53.332 188.454 53.21 188.17 53.21C188.048 53.4947 188.536 53.576 188.414 53.7793C188.251 54.2267 188.088 54.6333 188.007 55.1213C187.885 55.528 187.519 55.772 187.519 56.26C187.438 56.6667 187.194 57.0733 187.072 57.5207C187.031 57.968 186.787 58.334 186.787 58.8627C186.95 58.822 187.112 58.822 187.072 58.7407L187.844 56.87L189.186 53.2507L189.634 52.112C190.081 50.9327 190.569 49.794 190.976 48.6147C191.057 48.3707 191.22 48.208 191.301 47.9233C191.423 47.6387 191.626 47.3947 191.992 47.3947C192.114 47.3947 192.236 47.354 192.236 47.2727C192.318 47.1913 192.358 47.0693 192.236 46.988C192.196 46.9067 192.074 46.9067 191.911 46.866C192.196 46.5813 192.318 46.5813 192.48 46.7033L192.968 47.1913C193.172 47.3947 193.212 47.6387 193.09 47.842C192.928 48.0453 193.009 48.2487 193.172 48.452C193.375 48.7773 193.212 49.0213 193.009 49.306C192.928 49.3873 192.643 49.3873 192.521 49.672L193.009 49.7533V49.916L192.44 50.8513L191.992 51.7053C191.952 51.746 191.87 51.8273 191.87 51.9493C191.708 53.1693 191.016 54.1453 190.732 55.284C190.691 55.5687 190.366 55.8127 190.244 56.0973C190.162 56.4633 190.203 56.87 189.878 57.1547C189.878 57.5207 189.756 57.846 189.634 58.1713C189.552 58.5373 189.634 58.944 189.715 59.3507C190 59.554 190.081 59.2693 190.244 59.31C190.447 59.554 190.691 59.554 191.016 59.432C191.057 59.432 191.057 59.432 191.098 59.4727C191.301 59.7573 191.138 60.286 190.813 60.408L190.447 60.53C190.406 60.53 190.366 60.652 190.366 60.7333C190.406 60.7333 190.488 60.774 190.569 60.774C190.61 60.8147 190.691 60.774 190.813 60.774ZM185.73 63.214C185.486 63.214 185.364 63.214 185.364 63.2547C185.079 64.1087 184.754 64.9627 184.51 65.8167C184.225 66.9553 184.022 68.1347 183.859 69.314C183.737 70.046 183.615 70.778 183.534 71.5507C183.493 71.7133 183.574 71.8353 183.778 71.8353C184.022 70.9 184.144 69.9647 184.306 69.0293C184.55 68.0533 184.794 67.0773 184.957 66.1013C185.242 65.2067 185.445 64.2713 185.73 63.214ZM180.687 60.6113L180.484 60.408C180.362 60.3673 180.199 60.6113 180.28 60.774C180.321 60.8147 180.402 60.896 180.443 60.896C180.606 60.896 180.687 60.8147 180.687 60.6113ZM190 59.8793C189.715 59.8793 189.593 59.798 189.43 59.8387L189.186 59.9607L189.227 60.0827C189.268 60.2047 189.39 60.2047 189.512 60.164C189.674 60.0827 189.715 60.0013 190 59.8793Z" fill="black"/>
</svg>
