<svg width="261" height="96" viewBox="0 0 261 96" fill="none" xmlns="http://www.w3.org/2000/svg">
<path d="M14.2297 30.61C11.3017 30.61 8.79389 29.9729 6.70633 28.6987C4.61878 27.4109 3.01244 25.6216 1.88733 23.3307C0.775778 21.0398 0.22 18.3829 0.22 15.36C0.22 12.3371 0.775778 9.68022 1.88733 7.38933C3.01244 5.09845 4.61878 3.31589 6.70633 2.04167C8.79389 0.75389 11.3017 0.110001 14.2297 0.110001C17.605 0.110001 20.4178 0.957223 22.668 2.65167C24.9182 4.33256 26.4974 6.60311 27.4057 9.46333L22.4647 10.8257C21.8953 8.91433 20.9261 7.42322 19.557 6.35233C18.1879 5.26789 16.4121 4.72567 14.2297 4.72567C12.2641 4.72567 10.6239 5.16622 9.309 6.04733C8.00767 6.92844 7.02489 8.16878 6.36067 9.76833C5.71 11.3543 5.37789 13.2182 5.36433 15.36C5.36433 17.5018 5.68967 19.3724 6.34033 20.972C7.00456 22.558 7.99411 23.7916 9.309 24.6727C10.6239 25.5538 12.2641 25.9943 14.2297 25.9943C16.4121 25.9943 18.1879 25.4521 19.557 24.3677C20.9261 23.2832 21.8953 21.7921 22.4647 19.8943L27.4057 21.2567C26.4974 24.1169 24.9182 26.3942 22.668 28.0887C20.4178 29.7696 17.605 30.61 14.2297 30.61ZM31.8701 30V8.04H36.2011V13.3877L35.6724 12.6963C35.9435 11.9643 36.3028 11.3001 36.7501 10.7037C37.211 10.0937 37.76 9.59211 38.3971 9.199C38.9393 8.833 39.5358 8.54833 40.1864 8.345C40.8507 8.12811 41.5284 7.99933 42.2198 7.95867C42.9111 7.90444 43.5821 7.93156 44.2328 8.04V12.615C43.5821 12.4252 42.8298 12.3642 41.9758 12.432C41.1353 12.4998 40.3762 12.737 39.6984 13.1437C39.0207 13.5097 38.4649 13.9773 38.0311 14.5467C37.6109 15.116 37.2991 15.7667 37.0958 16.4987C36.8924 17.2171 36.7908 17.9966 36.7908 18.837V30H31.8701ZM57.6995 30.61C55.4764 30.61 53.5244 30.1288 51.8435 29.1663C50.1626 28.2039 48.8477 26.8687 47.8988 25.1607C46.9635 23.4527 46.4958 21.4871 46.4958 19.264C46.4958 16.8647 46.9567 14.7839 47.8785 13.0217C48.8002 11.2459 50.0812 9.87 51.7215 8.894C53.3617 7.918 55.2595 7.43 57.4148 7.43C59.6921 7.43 61.6238 7.96545 63.2098 9.03633C64.8094 10.0937 65.9955 11.5916 66.7681 13.53C67.5408 15.4684 67.8322 17.7526 67.6425 20.3823H62.7828V18.593C62.7692 16.2072 62.349 14.4653 61.5221 13.3673C60.6952 12.2693 59.3939 11.7203 57.6181 11.7203C55.6119 11.7203 54.1208 12.3439 53.1448 13.591C52.1688 14.8246 51.6808 16.6342 51.6808 19.02C51.6808 21.2431 52.1688 22.9647 53.1448 24.1847C54.1208 25.4047 55.5441 26.0147 57.4148 26.0147C58.6212 26.0147 59.6582 25.7503 60.5258 25.2217C61.4069 24.6794 62.0847 23.9 62.5591 22.8833L67.3985 24.3473C66.558 26.3264 65.2567 27.865 63.4945 28.963C61.7458 30.061 59.8141 30.61 57.6995 30.61ZM50.1355 20.3823V16.6817H65.2431V20.3823H50.1355ZM77.9229 30.61C76.3369 30.61 74.9949 30.3118 73.8969 29.7153C72.7989 29.1053 71.9652 28.2988 71.3959 27.2957C70.8401 26.2926 70.5622 25.1878 70.5622 23.9813C70.5622 22.924 70.7384 21.9751 71.0909 21.1347C71.4433 20.2807 71.9855 19.5487 72.7175 18.9387C73.4495 18.3151 74.3984 17.8068 75.5642 17.4137C76.4453 17.129 77.4755 16.8714 78.6549 16.641C79.8478 16.4106 81.1355 16.2004 82.5182 16.0107C83.9144 15.8073 85.3716 15.5904 86.8899 15.36L85.1412 16.3563C85.1548 14.8381 84.8159 13.7198 84.1245 13.0013C83.4332 12.2829 82.2674 11.9237 80.6272 11.9237C79.6377 11.9237 78.682 12.1541 77.7602 12.615C76.8384 13.0759 76.1945 13.8689 75.8285 14.994L71.3552 13.591C71.8974 11.7339 72.9277 10.2428 74.4459 9.11767C75.9777 7.99256 78.0381 7.43 80.6272 7.43C82.5792 7.43 84.294 7.74856 85.7715 8.38567C87.2626 9.02278 88.3674 10.0666 89.0859 11.517C89.479 12.2897 89.7162 13.0827 89.7975 13.896C89.8789 14.6958 89.9195 15.5701 89.9195 16.519V30H85.6292V25.242L86.3409 26.0147C85.3513 27.6007 84.1923 28.7664 82.8639 29.512C81.549 30.244 79.902 30.61 77.9229 30.61ZM78.8989 26.706C80.0104 26.706 80.9593 26.5094 81.7455 26.1163C82.5318 25.7232 83.1553 25.242 83.6162 24.6727C84.0907 24.1033 84.4092 23.5679 84.5719 23.0663C84.8294 22.4428 84.9718 21.7311 84.9989 20.9313C85.0395 20.118 85.0599 19.4606 85.0599 18.959L86.5645 19.4063C85.087 19.6368 83.8195 19.8401 82.7622 20.0163C81.7049 20.1926 80.7967 20.362 80.0375 20.5247C79.2784 20.6738 78.6074 20.8432 78.0245 21.033C77.4552 21.2363 76.974 21.4736 76.5809 21.7447C76.1878 22.0158 75.8828 22.3276 75.6659 22.68C75.4625 23.0324 75.3609 23.4459 75.3609 23.9203C75.3609 24.4626 75.4964 24.9438 75.7675 25.364C76.0387 25.7707 76.4318 26.096 76.9469 26.34C77.4755 26.584 78.1262 26.706 78.8989 26.706ZM108.084 30C106.634 30.2711 105.21 30.3863 103.814 30.3457C102.432 30.3186 101.191 30.0678 100.093 29.5933C98.9952 29.1053 98.1615 28.3394 97.5922 27.2957C97.0906 26.3468 96.8263 25.3776 96.7992 24.388C96.7721 23.3984 96.7585 22.2801 96.7585 21.033V1.94H101.639V20.7483C101.639 21.6294 101.645 22.4021 101.659 23.0663C101.686 23.7306 101.828 24.2728 102.086 24.693C102.574 25.5063 103.353 25.9604 104.424 26.0553C105.495 26.1502 106.715 26.096 108.084 25.8927V30ZM92.7732 11.883V8.04H108.084V11.883H92.7732ZM113.213 4.70533V0.211668H118.113V4.70533H113.213ZM113.213 30V8.04H118.113V30H113.213ZM130.141 30L122.171 8.04H127.071L132.602 23.961L138.112 8.04H143.033L135.062 30H130.141ZM155.871 30.61C153.648 30.61 151.696 30.1288 150.015 29.1663C148.334 28.2039 147.02 26.8687 146.071 25.1607C145.135 23.4527 144.668 21.4871 144.668 19.264C144.668 16.8647 145.129 14.7839 146.05 13.0217C146.972 11.2459 148.253 9.87 149.893 8.894C151.534 7.918 153.431 7.43 155.587 7.43C157.864 7.43 159.796 7.96545 161.382 9.03633C162.981 10.0937 164.167 11.5916 164.94 13.53C165.713 15.4684 166.004 17.7526 165.814 20.3823H160.955V18.593C160.941 16.2072 160.521 14.4653 159.694 13.3673C158.867 12.2693 157.566 11.7203 155.79 11.7203C153.784 11.7203 152.293 12.3439 151.317 13.591C150.341 14.8246 149.853 16.6342 149.853 19.02C149.853 21.2431 150.341 22.9647 151.317 24.1847C152.293 25.4047 153.716 26.0147 155.587 26.0147C156.793 26.0147 157.83 25.7503 158.698 25.2217C159.579 24.6794 160.257 23.9 160.731 22.8833L165.57 24.3473C164.73 26.3264 163.429 27.865 161.666 28.963C159.918 30.061 157.986 30.61 155.871 30.61ZM148.307 20.3823V16.6817H163.415V20.3823H148.307ZM1.84667 86V56.72H11.1797C11.4237 56.72 11.9049 56.7268 12.6233 56.7403C13.3553 56.7539 14.0602 56.8013 14.738 56.8827C17.056 57.1809 19.0148 58.0078 20.6143 59.3633C22.2274 60.7053 23.4474 62.4201 24.2743 64.5077C25.1012 66.5952 25.5147 68.8793 25.5147 71.36C25.5147 73.8407 25.1012 76.1248 24.2743 78.2123C23.4474 80.2999 22.2274 82.0214 20.6143 83.377C19.0148 84.719 17.056 85.5391 14.738 85.8373C14.0738 85.9187 13.3757 85.9661 12.6437 85.9797C11.9117 85.9932 11.4237 86 11.1797 86H1.84667ZM6.82833 81.3843H11.1797C11.5863 81.3843 12.1014 81.3708 12.725 81.3437C13.3621 81.3166 13.9247 81.2556 14.4127 81.1607C15.7953 80.9031 16.9204 80.2863 17.788 79.3103C18.6556 78.3343 19.2927 77.1482 19.6993 75.752C20.1196 74.3558 20.3297 72.8918 20.3297 71.36C20.3297 69.774 20.1196 68.2829 19.6993 66.8867C19.2791 65.4904 18.6284 64.3179 17.7473 63.369C16.8798 62.4201 15.7682 61.8169 14.4127 61.5593C13.9247 61.4509 13.3621 61.3899 12.725 61.3763C12.1014 61.3492 11.5863 61.3357 11.1797 61.3357H6.82833V81.3843ZM40.3049 86.61C38.0818 86.61 36.1298 86.1288 34.4489 85.1663C32.7681 84.2039 31.4532 82.8687 30.5043 81.1607C29.5689 79.4527 29.1013 77.4871 29.1013 75.264C29.1013 72.8647 29.5622 70.7839 30.4839 69.0217C31.4057 67.2459 32.6867 65.87 34.3269 64.894C35.9672 63.918 37.8649 63.43 40.0203 63.43C42.2976 63.43 44.2293 63.9654 45.8153 65.0363C47.4148 66.0937 48.6009 67.5916 49.3736 69.53C50.1463 71.4684 50.4377 73.7526 50.2479 76.3823H45.3883V74.593C45.3747 72.2072 44.9545 70.4653 44.1276 69.3673C43.3007 68.2693 41.9994 67.7203 40.2236 67.7203C38.2174 67.7203 36.7263 68.3439 35.7503 69.591C34.7743 70.8246 34.2863 72.6342 34.2863 75.02C34.2863 77.2431 34.7743 78.9647 35.7503 80.1847C36.7263 81.4047 38.1496 82.0147 40.0203 82.0147C41.2267 82.0147 42.2637 81.7503 43.1313 81.2217C44.0124 80.6794 44.6902 79.9 45.1646 78.8833L50.0039 80.3473C49.1635 82.3264 47.8622 83.865 46.0999 84.963C44.3513 86.061 42.4196 86.61 40.3049 86.61ZM32.7409 76.3823V72.6817H47.8486V76.3823H32.7409ZM59.9279 86L51.9572 64.04H56.8575L62.3882 79.961L67.8985 64.04H72.8192L64.8485 86H59.9279ZM85.6578 86.61C83.4347 86.61 81.4827 86.1288 79.8018 85.1663C78.1209 84.2039 76.806 82.8687 75.8571 81.1607C74.9218 79.4527 74.4541 77.4871 74.4541 75.264C74.4541 72.8647 74.915 70.7839 75.8368 69.0217C76.7586 67.2459 78.0396 65.87 79.6798 64.894C81.32 63.918 83.2178 63.43 85.3731 63.43C87.6505 63.43 89.5821 63.9654 91.1681 65.0363C92.7677 66.0937 93.9538 67.5916 94.7265 69.53C95.4991 71.4684 95.7906 73.7526 95.6008 76.3823H90.7411V74.593C90.7276 72.2072 90.3074 70.4653 89.4805 69.3673C88.6536 68.2693 87.3522 67.7203 85.5765 67.7203C83.5702 67.7203 82.0791 68.3439 81.1031 69.591C80.1271 70.8246 79.6391 72.6342 79.6391 75.02C79.6391 77.2431 80.1271 78.9647 81.1031 80.1847C82.0791 81.4047 83.5025 82.0147 85.3731 82.0147C86.5796 82.0147 87.6166 81.7503 88.4841 81.2217C89.3652 80.6794 90.043 79.9 90.5175 78.8833L95.3568 80.3473C94.5164 82.3264 93.215 83.865 91.4528 84.963C89.7041 86.061 87.7725 86.61 85.6578 86.61ZM78.0938 76.3823V72.6817H93.2015V76.3823H78.0938ZM100.544 86V56.11H105.445V86H100.544ZM121.234 86.61C119.038 86.61 117.12 86.1152 115.48 85.1257C113.84 84.1361 112.566 82.7738 111.657 81.0387C110.763 79.29 110.315 77.2838 110.315 75.02C110.315 72.7156 110.776 70.6958 111.698 68.9607C112.62 67.2256 113.901 65.87 115.541 64.894C117.181 63.918 119.079 63.43 121.234 63.43C123.444 63.43 125.369 63.9248 127.009 64.9143C128.649 65.9039 129.924 67.273 130.832 69.0217C131.74 70.7568 132.194 72.7562 132.194 75.02C132.194 77.2973 131.733 79.3103 130.811 81.059C129.903 82.7941 128.629 84.1564 126.989 85.146C125.349 86.122 123.43 86.61 121.234 86.61ZM121.234 82.0147C123.186 82.0147 124.637 81.364 125.586 80.0627C126.535 78.7613 127.009 77.0804 127.009 75.02C127.009 72.8918 126.528 71.1973 125.565 69.9367C124.603 68.6624 123.159 68.0253 121.234 68.0253C119.92 68.0253 118.835 68.3236 117.981 68.92C117.141 69.5029 116.517 70.323 116.11 71.3803C115.704 72.4241 115.5 73.6373 115.5 75.02C115.5 77.1482 115.982 78.8494 116.944 80.1237C117.92 81.3843 119.35 82.0147 121.234 82.0147ZM147.227 86.61C145.085 86.61 143.289 86.1017 141.839 85.085C140.388 84.0683 139.297 82.6857 138.565 80.937C137.833 79.1748 137.467 77.2024 137.467 75.02C137.467 72.8104 137.833 70.8313 138.565 69.0827C139.297 67.334 140.368 65.9581 141.778 64.955C143.201 63.9383 144.957 63.43 147.044 63.43C149.118 63.43 150.914 63.9383 152.432 64.955C153.964 65.9581 155.15 67.334 155.991 69.0827C156.831 70.8178 157.251 72.7969 157.251 75.02C157.251 77.216 156.838 79.1883 156.011 80.937C155.184 82.6857 154.018 84.0683 152.514 85.085C151.009 86.1017 149.247 86.61 147.227 86.61ZM136.633 95.76V64.04H140.964V79.4527H141.574V95.76H136.633ZM146.475 82.218C147.749 82.218 148.8 81.8994 149.626 81.2623C150.453 80.6252 151.063 79.7644 151.456 78.68C151.863 77.582 152.066 76.362 152.066 75.02C152.066 73.6916 151.863 72.4851 151.456 71.4007C151.05 70.3027 150.419 69.4351 149.565 68.798C148.711 68.1473 147.627 67.822 146.312 67.822C145.065 67.822 144.048 68.127 143.262 68.737C142.476 69.3334 141.893 70.1739 141.513 71.2583C141.147 72.3292 140.964 73.5831 140.964 75.02C140.964 76.4433 141.147 77.6972 141.513 78.7817C141.893 79.8661 142.483 80.7133 143.282 81.3233C144.096 81.9198 145.16 82.218 146.475 82.218ZM188.106 86V72.6613C188.106 71.1567 187.733 69.9841 186.987 69.1437C186.242 68.2897 185.232 67.8627 183.958 67.8627C183.171 67.8627 182.467 68.0457 181.843 68.4117C181.219 68.7641 180.725 69.2928 180.359 69.9977C179.993 70.689 179.81 71.5159 179.81 72.4783L177.634 71.1973C177.62 69.6791 177.959 68.3439 178.651 67.1917C179.356 66.0259 180.304 65.1177 181.497 64.467C182.69 63.8163 184.019 63.491 185.483 63.491C187.909 63.491 189.766 64.223 191.054 65.687C192.355 67.1374 193.006 69.0488 193.006 71.421V86H188.106ZM161.693 86V64.04H166.024V70.8517H166.634V86H161.693ZM174.93 86V72.7223C174.93 71.1906 174.557 69.9977 173.811 69.1437C173.066 68.2897 172.049 67.8627 170.761 67.8627C169.514 67.8627 168.511 68.2897 167.752 69.1437C167.006 69.9977 166.634 71.1092 166.634 72.4783L164.438 71.0143C164.438 69.591 164.79 68.31 165.495 67.1713C166.2 66.0327 167.149 65.138 168.342 64.4873C169.548 63.8231 170.897 63.491 172.388 63.491C174.028 63.491 175.397 63.8434 176.495 64.5483C177.607 65.2397 178.434 66.1886 178.976 67.395C179.532 68.5879 179.81 69.9367 179.81 71.4413V86H174.93ZM207.936 86.61C205.713 86.61 203.761 86.1288 202.08 85.1663C200.399 84.2039 199.084 82.8687 198.135 81.1607C197.2 79.4527 196.732 77.4871 196.732 75.264C196.732 72.8647 197.193 70.7839 198.115 69.0217C199.037 67.2459 200.318 65.87 201.958 64.894C203.598 63.918 205.496 63.43 207.651 63.43C209.928 63.43 211.86 63.9654 213.446 65.0363C215.046 66.0937 216.232 67.5916 217.004 69.53C217.777 71.4684 218.069 73.7526 217.879 76.3823H213.019V74.593C213.006 72.2072 212.585 70.4653 211.758 69.3673C210.932 68.2693 209.63 67.7203 207.854 67.7203C205.848 67.7203 204.357 68.3439 203.381 69.591C202.405 70.8246 201.917 72.6342 201.917 75.02C201.917 77.2431 202.405 78.9647 203.381 80.1847C204.357 81.4047 205.78 82.0147 207.651 82.0147C208.858 82.0147 209.895 81.7503 210.762 81.2217C211.643 80.6794 212.321 79.9 212.795 78.8833L217.635 80.3473C216.794 82.3264 215.493 83.865 213.731 84.963C211.982 86.061 210.05 86.61 207.936 86.61ZM200.372 76.3823V72.6817H215.479V76.3823H200.372ZM237.009 86V75.4267C237.009 74.7353 236.962 73.9694 236.867 73.129C236.772 72.2886 236.548 71.482 236.196 70.7093C235.857 69.9231 235.342 69.2792 234.65 68.7777C233.973 68.2761 233.051 68.0253 231.885 68.0253C231.261 68.0253 230.645 68.127 230.035 68.3303C229.425 68.5337 228.869 68.8861 228.367 69.3877C227.879 69.8757 227.486 70.5534 227.188 71.421C226.89 72.275 226.741 73.373 226.741 74.715L223.833 73.4747C223.833 71.604 224.192 69.9096 224.911 68.3913C225.643 66.8731 226.714 65.6667 228.123 64.772C229.533 63.8638 231.268 63.4097 233.329 63.4097C234.955 63.4097 236.297 63.6808 237.355 64.223C238.412 64.7652 239.252 65.4566 239.876 66.297C240.5 67.1374 240.96 68.0321 241.259 68.981C241.557 69.9299 241.747 70.8313 241.828 71.6853C241.923 72.5258 241.97 73.2103 241.97 73.739V86H237.009ZM221.779 86V64.04H226.151V70.8517H226.741V86H221.779ZM260.147 86C258.697 86.2711 257.274 86.3863 255.877 86.3457C254.495 86.3186 253.254 86.0678 252.156 85.5933C251.058 85.1053 250.225 84.3394 249.655 83.2957C249.154 82.3468 248.889 81.3776 248.862 80.388C248.835 79.3984 248.822 78.2801 248.822 77.033V57.94H253.702V76.7483C253.702 77.6294 253.708 78.4021 253.722 79.0663C253.749 79.7306 253.891 80.2728 254.149 80.693C254.637 81.5063 255.416 81.9604 256.487 82.0553C257.558 82.1502 258.778 82.096 260.147 81.8927V86ZM244.836 67.883V64.04H260.147V67.883H244.836Z" fill="black"/>
</svg>
