<svg width="92" height="94" viewBox="0 0 92 94" fill="none" xmlns="http://www.w3.org/2000/svg">
<path d="M59.9158 63.0988C67.4559 58.1978 74.8984 53.2872 82.4385 48.3863C83.4562 47.7148 83.7383 46.3433 82.8753 45.7273C78.6241 42.6053 73.9322 39.9224 69.0244 37.6041C67.1462 36.6948 65.2328 39.8836 67.1405 40.6992C71.8485 42.853 76.2134 45.4554 80.2988 48.4645C80.4331 47.561 80.6014 46.7091 80.7357 45.8055C73.1955 50.7064 65.7531 55.617 58.2129 60.518C56.1774 61.861 57.8802 64.4418 59.9158 63.0988Z" fill="black"/>
<path d="M76.3276 45.6796C57.452 45.1324 29.6762 47.4632 10.8006 46.916C6.69295 46.7499 8.9169 49.6401 12.8777 49.6922C31.7533 50.2394 59.5291 47.9086 78.4047 48.4558C82.5124 48.6219 80.4353 45.8457 76.3276 45.6796Z" fill="black"/>
</svg>
