<svg width="84" height="42" viewBox="0 0 84 42" fill="none" xmlns="http://www.w3.org/2000/svg">
<path d="M6.46716 28.7608C5.96033 27.6268 5.4611 26.4428 4.87382 25.2885C4.53292 24.6443 4.15559 23.965 3.63826 23.4518C2.93152 22.7416 1.93648 22.5564 1.14234 23.1816C0.620257 23.5958 0.228033 24.3934 0.1515 25.0366C0.0746023 25.7511 0.312306 26.5252 0.616401 27.2056C2.40417 31.3242 4.14791 35.4577 6.08974 39.5241C7.15462 41.7985 9.41454 42.3861 11.4217 40.8515C13.2304 39.4553 14.8501 37.7909 16.3822 36.0849C18.6286 33.5909 20.7293 30.9563 22.8664 28.3569C23.0432 28.1546 23.0158 27.784 23.0981 27.4476C21.6273 25.7855 19.8316 26.0614 18.1348 27.0635C16.9741 27.7654 15.9728 28.793 15.0011 29.7632C14.0515 30.7258 13.2183 31.8152 12.3932 32.7832C11.2816 32.4713 11.6367 31.7813 11.7565 31.2659C13.2083 25.1952 16.7856 20.2562 20.9833 15.7006C21.7861 14.8114 22.91 14.1457 23.9967 13.5877C36.2292 7.40214 49.0944 4.96688 62.6403 6.859C68.4655 7.68694 73.2844 10.5413 77.6305 14.1731C78.4108 14.8108 78.8155 15.8607 79.4411 16.6934C80.0374 17.5122 80.9152 17.7134 81.876 17.4354C82.9981 17.1265 83.8889 16.2075 83.8356 15.181C83.7815 14.2972 83.6326 13.3505 83.1896 12.6222C82.6016 11.6107 81.8231 10.6162 80.9042 9.8592C75.6103 5.38525 69.6363 2.16254 62.4852 1.40393C52.7357 0.362283 43.0731 0.952992 33.6751 4.20789C29.2806 5.72031 24.8937 7.18268 20.839 9.55333C18.3856 11.0017 16.3549 12.8291 14.7395 15.0856C11.9515 18.9501 9.36073 22.8902 7.82166 27.3999C7.66577 27.8088 7.40741 28.2049 7.16385 28.5723C7.09746 28.666 6.87774 28.6692 6.46716 28.7608Z" fill="black"/>
</svg>
