<svg width="104" height="118" viewBox="0 0 104 118" fill="none" xmlns="http://www.w3.org/2000/svg">
<path d="M6.49967 87.5C31.9737 74.5107 70.4119 49.7982 95.886 36.8089C101.415 34.0662 99.2723 30.5518 93.9078 33.3894C68.4337 46.3787 29.9955 71.0912 4.52145 84.0805C-1.00792 86.8232 0.970296 90.2427 6.49967 87.5Z" fill="black"/>
<path d="M91.7257 50.6106C95.3147 44.4964 98.8217 38.4043 102.411 32.2902C102.89 31.4571 102.447 30.3006 101.464 30.0813C96.5789 28.9331 91.5584 28.2614 86.5442 27.9399C84.6145 27.7996 84.6495 30.87 86.557 30.9282C91.333 31.1818 96.0553 31.8899 100.754 33.0003C100.421 32.254 100.14 31.5377 99.8072 30.7915C96.2182 36.9056 92.7113 42.9977 89.1223 49.1119C88.1631 50.7781 90.7666 52.2768 91.7257 50.6106Z" fill="black"/>
</svg>
