<svg width="103" height="118" viewBox="0 0 103 118" fill="none" xmlns="http://www.w3.org/2000/svg">
<path d="M96.6624 31.0489C71.1884 44.0381 32.7502 68.7507 7.2761 81.7399C1.74673 84.4826 3.88978 87.997 9.25431 85.1594C34.7284 72.1701 73.1666 47.4576 98.6407 34.4684C104.17 31.7256 102.192 28.3061 96.6624 31.0489Z" fill="black"/>
<path d="M11.4364 67.9383C7.84739 74.0524 4.34044 80.1445 0.751467 86.2587C0.271886 87.0918 0.715338 88.2482 1.69831 88.4675C6.5832 89.6157 11.6037 90.2875 16.6179 90.6089C18.5476 90.7492 18.5126 87.6789 16.6051 87.6206C11.8291 87.367 7.10679 86.6589 2.40809 85.5485C2.74106 86.2948 3.02195 87.0111 3.35492 87.7574C6.94389 81.6432 10.4508 75.5511 14.0398 69.437C14.999 67.7707 12.3955 66.2721 11.4364 67.9383Z" fill="black"/>
</svg>
