<svg width="76" height="52" viewBox="0 0 76 52" fill="none" xmlns="http://www.w3.org/2000/svg">
<path d="M8.14917 8.33079C8.54978 7.15506 8.99002 5.94783 9.34545 4.70252C9.53421 3.99856 9.72019 3.24405 9.69054 2.51595C9.65621 1.51463 9.05332 0.701662 8.04604 0.619053C7.38159 0.567153 6.55135 0.884469 6.05749 1.30354C5.51481 1.77462 5.16203 2.5035 4.92167 3.20894C3.42788 7.44303 1.89167 11.6581 0.546261 15.9588C-0.221767 18.3498 1.03384 20.3186 3.54881 20.5606C5.82417 20.769 8.1437 20.6522 10.4273 20.4452C13.7706 20.1473 17.1028 19.6472 20.4378 19.1976C20.705 19.1698 20.9372 18.8796 21.2265 18.6892C21.2804 16.4704 19.7771 15.4503 17.8519 15.0294C16.5239 14.7535 15.0909 14.8247 13.7187 14.874C12.3677 14.9329 11.0158 15.1638 9.75241 15.3113C9.15042 14.3261 9.88023 14.0623 10.3188 13.7663C15.5147 10.3073 21.4971 9.12414 27.6732 8.64408C28.8666 8.53914 30.143 8.81652 31.319 9.14742C44.4907 12.9426 55.573 19.9156 64.2085 30.5223C67.9124 35.094 69.4996 40.4651 70.2114 46.084C70.3489 47.0824 69.9307 48.127 69.8222 49.1628C69.7017 50.1685 70.2078 50.9134 71.1009 51.3637C72.1332 51.9012 73.4114 51.8343 74.071 51.0461C74.633 50.3618 75.1683 49.567 75.3395 48.7319C75.5973 47.5906 75.7039 46.3321 75.546 45.1521C74.7132 38.2711 72.5304 31.8438 67.8081 26.4204C61.3749 19.021 53.8942 12.8766 44.7939 8.86397C40.5451 6.98066 36.3359 5.06585 31.7519 4.04256C28.9687 3.43357 26.2372 3.39008 23.5178 3.94356C18.8448 4.87679 14.265 5.99973 10.0678 8.25578C9.67529 8.44922 9.21637 8.56356 8.78787 8.66691C8.67545 8.69037 8.51231 8.54315 8.14917 8.33079Z" fill="black"/>
</svg>
