<svg width="86" height="32" viewBox="0 0 86 32" fill="none" xmlns="http://www.w3.org/2000/svg">
<path d="M80.1461 18.5358C80.3941 17.3179 80.6234 16.0528 80.9467 14.7974C81.1402 14.0938 81.3619 13.348 81.7598 12.7332C82.3014 11.8845 83.2468 11.4842 84.1749 11.9185C84.7857 12.2072 85.3539 12.8985 85.5743 13.5089C85.811 14.1888 85.7491 14.9963 85.6002 15.727C84.7518 20.1387 83.9505 24.5553 82.9376 28.9501C82.3921 31.4035 80.2824 32.4756 77.9468 31.4221C75.8392 30.4598 73.8588 29.1941 71.9561 27.8685C69.1677 25.9321 66.4924 23.8265 63.7888 21.7631C63.568 21.6048 63.512 21.2374 63.3548 20.9273C64.4405 18.9815 66.2835 18.8541 68.1917 19.4568C69.5006 19.885 70.7246 20.6662 71.9062 21.3979C73.0644 22.1271 74.1355 23.0056 75.1713 23.7675C76.2039 23.2178 75.6967 22.6232 75.4621 22.147C72.6587 16.5468 68.0013 12.5197 62.8144 9.00335C61.8184 8.31338 60.5542 7.91235 59.3509 7.60803C45.8282 4.27632 32.5203 4.74199 19.5089 9.57857C13.9167 11.6724 9.77792 15.5204 6.28254 20.0222C5.65174 20.8165 5.48608 21.9299 5.05259 22.8801C4.64497 23.8103 3.81947 24.2004 2.80402 24.1414C1.62166 24.0879 0.53164 23.3883 0.354011 22.3754C0.209151 21.5014 0.144293 20.5453 0.420146 19.7371C0.776237 18.6207 1.32511 17.4789 2.06655 16.5377C6.31285 11.0052 11.5148 6.54287 18.4377 4.2239C27.8743 1.05513 37.5914 -0.502401 47.6444 0.596924C52.3429 1.10164 57.0228 1.55921 61.577 2.976C64.3359 3.84685 66.7605 5.18078 68.8696 7.02487C72.5029 10.1783 75.9575 13.4491 78.4969 17.5076C78.7434 17.8719 79.0886 18.2013 79.4127 18.5058C79.4996 18.5825 79.7182 18.5371 80.1461 18.5358Z" fill="black"/>
</svg>
