<svg width="86" height="42" viewBox="0 0 86 42" fill="none" xmlns="http://www.w3.org/2000/svg">
<path d="M79.5012 28.7608C80.0166 27.6268 80.5243 26.4428 81.1216 25.2885C81.4683 24.6443 81.8521 23.965 82.3782 23.4518C83.097 22.7416 84.1089 22.5564 84.9166 23.1816C85.4475 23.5958 85.8464 24.3934 85.9243 25.0366C86.0025 25.7511 85.7607 26.5252 85.4515 27.2056C83.6333 31.3242 81.8599 35.4577 79.885 39.5241C78.802 41.7985 76.5036 42.3861 74.4623 40.8515C72.6228 39.4553 70.9756 37.7909 69.4175 36.0849C67.1328 33.5909 64.9964 30.9563 62.8229 28.3569C62.6431 28.1546 62.671 27.784 62.5873 27.4476C64.0831 25.7855 65.9093 26.0614 67.6351 27.0635C68.8155 27.7654 69.8338 28.793 70.822 29.7632C71.7878 30.7258 72.6351 31.8152 73.4744 32.7832C74.6048 32.4713 74.2437 31.7813 74.1219 31.2659C72.6453 25.1952 69.0072 20.2562 64.7381 15.7006C63.9216 14.8114 62.7786 14.1457 61.6734 13.5877C49.2327 7.40214 36.1488 4.96688 22.3723 6.859C16.448 7.68694 11.5472 10.5413 7.12713 14.1731C6.33352 14.8108 5.92192 15.8607 5.28574 16.6934C4.67927 17.5122 3.78655 17.7134 2.80941 17.4354C1.66825 17.1265 0.762252 16.2075 0.816483 15.181C0.871455 14.2972 1.02293 13.3505 1.47346 12.6222C2.07147 11.6107 2.86323 10.6162 3.79773 9.8592C9.18166 5.38525 15.2573 2.16254 22.5301 1.40393C32.4454 0.362281 42.2724 0.952991 51.8303 4.20789C56.2996 5.72031 60.7611 7.18268 64.8848 9.55333C67.38 11.0017 69.4452 12.8291 71.0881 15.0856C73.9236 18.9501 76.5584 22.8902 78.1236 27.3999C78.2822 27.8088 78.5449 28.2049 78.7926 28.5723C78.8601 28.666 79.0836 28.6692 79.5012 28.7608Z" fill="black"/>
</svg>
