<svg width="102" height="119" viewBox="0 0 102 119" fill="none" xmlns="http://www.w3.org/2000/svg">
<path d="M95.8982 90.1708C70.3976 75.6913 32.5312 48.6565 7.03063 34.1769C1.48633 31.1118 4.18283 27.6566 9.5407 30.8095C35.0412 45.2891 72.9077 72.3239 98.4083 86.8034C103.953 89.8685 101.442 93.2359 95.8982 90.1708Z" fill="black"/>
<path d="M9.7976 48.3896C6.71747 42.0039 3.72182 35.6449 0.641697 29.2591C0.232036 28.3895 0.841371 27.2391 1.91156 27.067C7.23693 26.1523 12.6493 25.7278 18.0131 25.6583C20.0793 25.6148 19.6748 28.7275 17.6419 28.6889C12.5393 28.7018 7.43924 29.1784 2.31614 30.0643C2.75906 29.3243 3.14308 28.6121 3.58599 27.8722C6.66612 34.2579 9.66177 40.6169 12.7419 47.0027C13.5612 48.7419 10.6169 50.1289 9.7976 48.3896Z" fill="black"/>
</svg>
