<svg width="85" height="32" viewBox="0 0 85 32" fill="none" xmlns="http://www.w3.org/2000/svg">
<path d="M5.55552 18.5358C5.31161 17.3179 5.08615 16.0528 4.76824 14.7974C4.57801 14.0939 4.35999 13.348 3.96875 12.7332C3.43629 11.8845 2.5067 11.4842 1.59413 11.9185C0.993453 12.2072 0.43479 12.8985 0.218126 13.5089C-0.0146477 14.1888 0.0462568 14.9963 0.192603 15.727C1.02679 20.1387 1.81474 24.5553 2.8107 28.9501C3.34708 31.4035 5.42148 32.4756 7.71796 31.4221C9.79032 30.4598 11.7376 29.1941 13.6085 27.8685C16.3502 25.9321 18.9808 23.8265 21.6391 21.7631C21.8562 21.6048 21.9113 21.2374 22.0659 20.9273C20.9984 18.9815 19.1862 18.8541 17.3099 19.4568C16.0229 19.885 14.8194 20.6662 13.6575 21.3979C12.5187 22.1271 11.4656 23.0056 10.447 23.7675C9.43177 23.2178 9.93044 22.6232 10.1611 22.147C12.9176 16.5468 17.4972 12.5197 22.5972 9.00335C23.5766 8.31338 24.8197 7.91235 26.0028 7.60803C39.2993 4.27632 52.3846 4.74199 65.1783 9.57857C70.6769 11.6724 74.7465 15.5204 78.1834 20.0222C78.8037 20.8165 78.9666 21.9299 79.3928 22.8801C79.7936 23.8103 80.6053 24.2004 81.6038 24.1414C82.7663 24.0879 83.8381 23.3883 84.0128 22.3754C84.1552 21.5014 84.219 20.5453 83.9477 19.7371C83.5976 18.6207 83.0579 17.4789 82.3289 16.5377C78.1536 11.0052 73.0387 6.54287 66.2316 4.2239C56.9528 1.05513 47.3983 -0.5024 37.5135 0.596926C32.8935 1.10164 28.292 1.55921 23.8139 2.976C21.1012 3.84685 18.7172 5.18078 16.6434 7.02487C13.0708 10.1783 9.67399 13.4491 7.1771 17.5076C6.93477 17.8719 6.59531 18.2013 6.27664 18.5058C6.1912 18.5825 5.9762 18.5371 5.55552 18.5358Z" fill="black"/>
</svg>
