<svg width="102" height="119" viewBox="0 0 102 119" fill="none" xmlns="http://www.w3.org/2000/svg">
<path d="M6.02273 28.3775C31.5233 42.8571 69.3897 69.8919 94.8903 84.3714C100.435 87.4365 97.7381 90.8918 92.3802 87.7388C66.8796 73.2593 29.0132 46.2245 3.51265 31.7449C-2.03165 28.6798 0.478433 25.3124 6.02273 28.3775Z" fill="black"/>
<path d="M92.1233 70.1587C95.2034 76.5444 98.1991 82.9035 101.279 89.2892C101.689 90.1588 101.08 91.3092 100.009 91.4813C94.684 92.3961 89.2715 92.8205 83.9078 92.89C81.8416 92.9336 82.2461 89.8209 84.279 89.8594C89.3816 89.8465 94.4817 89.37 99.6048 88.4841C99.1618 89.224 98.7778 89.9362 98.3349 90.6762C95.2548 84.2905 92.2591 77.9314 89.179 71.5457C88.3597 69.8065 91.304 68.4195 92.1233 70.1587Z" fill="black"/>
</svg>
