<svg width="91" height="92" viewBox="0 0 91 92" fill="none" xmlns="http://www.w3.org/2000/svg">
<path d="M25.5222 31.8554C19.7279 35.9407 14.0175 40.0399 8.22322 44.1253C7.44231 44.6858 7.36839 45.9222 8.17299 46.5279C12.1472 49.5916 16.4418 52.2774 20.8753 54.6417C22.5746 55.5666 23.8112 52.756 22.0981 51.915C17.8535 49.7109 13.8455 47.1153 10.0252 44.1629C10.0202 44.9801 9.98006 45.7485 9.97499 46.5656C15.7692 42.4802 21.4797 38.3811 27.2739 34.2957C28.8358 33.1746 27.084 30.7342 25.5222 31.8554Z" fill="black"/>
<path d="M78.016 43.2094C59.1405 42.6622 31.3647 44.9929 12.4891 44.4458C8.38142 44.2797 10.6054 47.1699 14.5662 47.222C33.4418 47.7691 61.2176 45.4384 80.0931 45.9856C84.2008 46.1517 82.1237 43.3755 78.016 43.2094Z" fill="black"/>
</svg>
