<svg width="78" height="52" viewBox="0 0 78 52" fill="none" xmlns="http://www.w3.org/2000/svg">
<path d="M69.3481 8.33079C68.9407 7.15506 68.4929 5.94783 68.1314 4.70252C67.9395 3.99856 67.7503 3.24405 67.7805 2.51595C67.8154 1.51463 68.4286 0.701661 69.453 0.619052C70.1287 0.567152 70.9731 0.884468 71.4753 1.30354C72.0273 1.77462 72.386 2.5035 72.6305 3.20894C74.1497 7.44303 75.712 11.6581 77.0803 15.9588C77.8614 18.3498 76.5845 20.3186 74.0267 20.5606C71.7126 20.769 69.3536 20.6522 67.0312 20.4452C63.631 20.1473 60.2421 19.6472 56.8504 19.1976C56.5786 19.1698 56.3425 18.8796 56.0483 18.6892C55.9935 16.4704 57.5223 15.4503 59.4803 15.0294C60.8309 14.7535 62.2883 14.8247 63.6838 14.874C65.0578 14.9329 66.4327 15.1638 67.7176 15.3113C68.3298 14.3261 67.5876 14.0623 67.1415 13.7663C61.8573 10.3073 55.7731 9.12414 49.4919 8.64408C48.2782 8.53913 46.98 8.81652 45.7841 9.14742C32.3883 12.9426 21.1174 19.9156 12.335 30.5223C8.56814 35.094 6.95392 40.4651 6.23001 46.084C6.09013 47.0824 6.51542 48.127 6.62577 49.1628C6.74832 50.1685 6.2336 50.9134 5.32532 51.3637C4.27549 51.9012 2.97558 51.8343 2.30471 51.0461C1.73316 50.3618 1.1888 49.567 1.01467 48.7319C0.752505 47.5906 0.64408 46.3321 0.804616 45.1521C1.6516 38.2711 3.87153 31.8438 8.67421 26.4204C15.2168 19.021 22.8248 12.8766 32.0799 8.86396C36.401 6.98066 40.6818 5.06584 45.3438 4.04255C48.1744 3.43357 50.9524 3.39008 53.718 3.94356C58.4705 4.87679 63.1282 5.99973 67.3968 8.25578C67.796 8.44922 68.2627 8.56356 68.6985 8.66691C68.8129 8.69037 68.9788 8.54315 69.3481 8.33079Z" fill="black"/>
</svg>
