<svg width="25" height="25" viewBox="0 0 29 29" fill="none" xmlns="http://www.w3.org/2000/svg">
<path d="M27.9176 14.5654C27.9176 22.1698 21.7666 28.3208 14.1622 28.3208C6.5579 28.3208 0.373047 22.136 0.373047 14.5654C0.373047 6.99491 6.52411 0.810059 14.1284 0.810059C21.7328 0.810059 27.8838 6.96112 27.8838 14.5654H27.9176Z" fill="#0618DE"/>
<path d="M14.161 28.693C6.35384 28.693 0 22.3392 0 14.532C0 6.72493 6.35384 0.371094 14.161 0.371094C21.9681 0.371094 28.3219 6.72493 28.3219 14.532C28.3219 22.3392 21.9681 28.693 14.161 28.693ZM14.161 1.18223C6.7932 1.18223 0.777332 7.1981 0.777332 14.5658C0.777332 21.9336 6.7932 27.9495 14.161 27.9495C21.5287 27.9495 27.5446 21.9336 27.5446 14.5658C27.5446 7.1981 21.5287 1.18223 14.161 1.18223Z" fill="#0618DE"/>
<g style="mix-blend-mode:multiply">
<path d="M14.1607 0.777344C6.55633 0.777344 0.405273 6.9284 0.405273 14.5327C0.405273 22.1371 6.55633 28.2881 14.1607 28.2881C21.765 28.2881 27.9161 22.1371 27.9161 14.5327C27.9161 6.9284 21.765 0.777344 14.1607 0.777344ZM12.8426 22.475C7.46885 22.475 3.10904 18.1152 3.10904 12.7415C3.10904 7.36777 7.46885 3.00795 12.8426 3.00795C18.2163 3.00795 22.5761 7.36777 22.5761 12.7415C22.5761 18.1152 18.2163 22.475 12.8426 22.475Z" fill="#0618DE"/>
</g>
<g style="mix-blend-mode:screen">
<path d="M12.8104 7.50286C12.8104 8.95614 11.6275 10.139 10.1743 10.139C8.72098 10.139 7.53809 8.95614 7.53809 7.50286C7.53809 6.04959 8.72098 4.8667 10.1743 4.8667C11.6275 4.8667 12.8104 6.04959 12.8104 7.50286Z" fill="#0618DE"/>
</g>
<g style="mix-blend-mode:screen">
<path d="M8.44756 12.132C8.44756 12.9431 7.80542 13.5853 6.99429 13.5853C6.18316 13.5853 5.54102 12.9431 5.54102 12.132C5.54102 11.3209 6.18316 10.6787 6.99429 10.6787C7.80542 10.6787 8.44756 11.3209 8.44756 12.132Z" fill="#0618DE"/>
</g>
</svg>
