<svg width="27" height="27" viewBox="0 0 27 27" fill="none" xmlns="http://www.w3.org/2000/svg">
<path d="M8.27097 0.986328C6.26575 0.992498 4.34442 1.7918 2.92651 3.20972C1.5086 4.62763 0.709295 6.54896 0.703125 8.55418L0.703125 19.1515C0.709295 21.1567 1.5086 23.0781 2.92651 24.496C4.34442 25.9139 6.26575 26.7132 8.27097 26.7194H18.8683C20.8735 26.7132 22.7949 25.9139 24.2128 24.496C25.6307 23.0781 26.43 21.1567 26.4361 19.1515V8.55418C26.43 6.54896 25.6307 4.62763 24.2128 3.20972C22.7949 1.7918 20.8735 0.992498 18.8683 0.986328L8.27097 0.986328ZM8.27097 3.32569H18.8683C20.255 3.32569 21.5849 3.87655 22.5654 4.85708C23.5459 5.83761 24.0968 7.1675 24.0968 8.55418V19.1515C24.0968 20.5382 23.5459 21.8681 22.5654 22.8486C21.5849 23.8291 20.255 24.38 18.8683 24.38H8.27097C6.88429 24.38 5.55441 23.8291 4.57388 22.8486C3.59335 21.8681 3.04249 20.5382 3.04249 19.1515V8.55418C3.04249 7.1675 3.59335 5.83761 4.57388 4.85708C5.55441 3.87655 6.88429 3.32569 8.27097 3.32569ZM20.4825 5.8873C20.271 5.88499 20.0636 5.94574 19.8868 6.0618C19.7099 6.17787 19.5717 6.34398 19.4897 6.53895C19.4077 6.73391 19.3856 6.94889 19.4263 7.15645C19.467 7.36401 19.5686 7.55474 19.7182 7.7043C19.8677 7.85386 20.0585 7.95547 20.266 7.99617C20.4736 8.03687 20.6886 8.0148 20.8835 7.9328C21.0785 7.85079 21.2446 7.71255 21.3607 7.53573C21.4767 7.35891 21.5375 7.15151 21.5352 6.94001C21.5352 6.66082 21.4243 6.39305 21.2268 6.19563C21.0294 5.99821 20.7617 5.8873 20.4825 5.8873ZM13.5696 6.83474C12.1816 6.83474 10.8247 7.24635 9.67059 8.01751C8.51647 8.78866 7.61694 9.88474 7.08576 11.1671C6.55458 12.4495 6.4156 13.8606 6.68639 15.222C6.95719 16.5834 7.62559 17.8339 8.60709 18.8154C9.58859 19.7969 10.8391 20.4653 12.2005 20.7361C13.5619 21.0069 14.973 20.8679 16.2553 20.3367C17.5377 19.8055 18.6338 18.906 19.405 17.7519C20.1761 16.5978 20.5877 15.2409 20.5877 13.8528C20.5877 11.9915 19.8483 10.2064 18.5322 8.8903C17.216 7.57415 15.431 6.83474 13.5696 6.83474ZM13.5696 9.17411C14.495 9.17411 15.3996 9.44851 16.169 9.96262C16.9384 10.4767 17.5381 11.2074 17.8922 12.0624C18.2463 12.9173 18.339 13.858 18.1585 14.7656C17.9779 15.6732 17.5323 16.5069 16.878 17.1612C16.2237 17.8155 15.39 18.2611 14.4824 18.4417C13.5748 18.6222 12.6341 18.5295 11.7792 18.1754C10.9242 17.8213 10.1935 17.2216 9.67941 16.4522C9.16531 15.6828 8.89091 14.7782 8.89091 13.8528C8.89091 12.612 9.38384 11.4219 10.2613 10.5445C11.1387 9.66705 12.3288 9.17411 13.5696 9.17411Z" fill="#0618DD"/>
</svg>
