<svg width="157" height="231" viewBox="0 0 157 231" fill="none" xmlns="http://www.w3.org/2000/svg">
<path d="M48.9798 115.601V225.831L1.96875 202.208V90.4004L48.9798 115.601Z" fill="#0618DD"/>
<path d="M50.633 228.515L0.313477 203.231V87.6367L50.633 114.607V228.515ZM3.62199 201.19L47.3245 223.152V116.591L3.62199 93.165V201.19Z" fill="#0618DD"/>
<path d="M152.432 52.0863L104.163 24.7051L3.22559 87.9636L48.9792 115.601L152.432 52.0863Z" fill="#0618DD"/>
<path d="M48.9603 117.522L0 87.9496L104.162 23.7393L155.774 53.0171L48.9603 117.522ZM6.44492 87.9777L48.9954 113.677L149.122 53.0487L104.197 27.5641L6.44492 87.9777Z" fill="#0618DD"/>
<path d="M75.8127 100.892V56.7614C75.8127 51.753 68.9358 47.6929 60.4503 47.6929C51.9648 47.6929 45.0879 51.753 45.0879 56.7614V100.892C45.0879 100.892 19.0729 163.508 16.6108 169.1C14.7985 173.216 12.4629 176.577 12.4629 180.441C12.4629 190.616 31.6255 206.161 60.4503 206.161C89.2751 206.161 109.014 191.711 109.014 181.389C109.014 177.287 106.833 170.536 104.704 166.146C102.26 161.106 75.8127 100.896 75.8127 100.896V100.892Z" fill="white"/>
<path d="M60.4505 207.768C47.2059 207.768 34.5444 204.47 24.805 198.486C16.2001 193.196 10.8545 186.284 10.8545 180.44C10.8545 177.195 12.2418 174.399 13.7134 171.438C14.1911 170.476 14.6863 169.478 15.1394 168.453C17.482 163.135 41.5337 105.254 43.4795 100.572V56.7606C43.4795 50.7758 50.9359 46.0835 60.4505 46.0835C69.9651 46.0835 77.4215 50.7723 77.4215 56.7606V100.554C79.4727 105.226 103.837 160.67 106.151 165.443C108.371 170.026 110.623 176.973 110.623 181.388C110.623 193.586 88.7063 207.768 60.454 207.768H60.4505ZM60.4505 49.3007C52.9941 49.3007 46.6932 52.7181 46.6932 56.7606V101.215L46.5702 101.51C45.5095 104.067 20.5236 164.206 18.0791 169.749C17.5979 170.844 17.0852 171.874 16.5899 172.868C15.2342 175.593 14.0647 177.95 14.0647 180.44C14.0647 188.939 31.6749 204.551 60.447 204.551C89.2191 204.551 107.402 190.608 107.402 181.388C107.402 177.5 105.263 170.992 103.254 166.844C100.823 161.832 75.4196 103.996 74.3378 101.538L74.2008 101.229V56.7606C74.2008 52.7181 67.8999 49.3007 60.447 49.3007H60.4505Z" fill="#0618DD"/>
<path d="M60.4511 68.4039C50.3922 68.4039 42.5107 63.2901 42.5107 56.7574C42.5107 50.2246 50.3922 45.1108 60.4511 45.1108C70.5101 45.1108 78.3915 50.2246 78.3915 56.7574C78.3915 63.2901 70.5136 68.4039 60.4511 68.4039ZM60.4511 50.2668C52.9174 50.2668 47.6632 53.6877 47.6632 56.7574C47.6632 59.827 52.9139 63.2479 60.4511 63.2479C67.9884 63.2479 73.2356 59.827 73.2356 56.7574C73.2356 53.6877 67.9848 50.2668 60.4511 50.2668Z" fill="white"/>
<path d="M60.4508 70.013C49.4891 70.013 40.9053 64.1932 40.9053 56.7614C40.9053 49.3295 49.4926 43.5098 60.4508 43.5098C71.4089 43.5098 79.9963 49.3295 79.9963 56.7614C79.9963 64.1932 71.4089 70.013 60.4508 70.013ZM60.4508 46.7234C51.4454 46.7234 44.119 51.2261 44.119 56.7614C44.119 62.2966 51.4454 66.7993 60.4508 66.7993C69.4561 66.7993 76.7826 62.2966 76.7826 56.7614C76.7826 51.2261 69.4561 46.7234 60.4508 46.7234ZM60.4508 64.8605C52.5131 64.8605 46.0577 61.2289 46.0577 56.7614C46.0577 52.2938 52.5131 48.6622 60.4508 48.6622C68.3884 48.6622 74.8438 52.2973 74.8438 56.7614C74.8438 61.2254 68.3884 64.8605 60.4508 64.8605ZM60.4508 51.8759C53.2191 51.8759 49.2714 55.1036 49.2714 56.7614C49.2714 58.4191 53.2191 61.6469 60.4508 61.6469C67.6824 61.6469 71.6301 58.4191 71.6301 56.7614C71.6301 55.1036 67.6859 51.8759 60.4508 51.8759Z" fill="#0618DD"/>
<path d="M60.334 196.555C42.7027 196.555 28.1024 192.098 23.1361 185.2C21.0885 182.355 20.6811 179.212 21.8893 175.594L22.2264 174.59C25.3944 168.117 40.3495 137.578 41.4137 135.407C43.953 131.965 50.5419 128.527 59.6526 128.527C59.9441 128.527 60.2392 128.527 60.5342 128.537C68.1978 128.548 75.0537 130.508 78.032 133.535C78.9171 134.434 79.3597 135.351 79.3456 136.257L79.3386 136.64L96.2043 171.242L96.2885 171.358C99.7446 176.065 100.573 180.272 98.7541 183.869C94.9118 191.459 79.472 196.555 60.3375 196.555H60.3305H60.334Z" fill="#E51C1C"/>
<path d="M59.653 130.132C59.9305 130.132 60.215 130.132 60.4995 130.143H60.5346H60.5697C68.7813 130.153 74.6818 132.418 76.8875 134.659C77.2808 135.06 77.748 135.657 77.7409 136.233L77.7304 136.998L78.0676 137.687L94.7014 171.815L94.8279 172.075L95 172.31C98.1118 176.546 98.8704 180.09 97.3251 183.142C93.8058 190.093 78.5944 194.95 60.3344 194.95C43.4687 194.95 29.044 190.655 24.443 184.266C22.7185 181.871 22.3814 179.201 23.4175 176.107L23.7195 175.204C26.9297 168.647 41.2876 139.32 42.7909 136.257C44.6172 133.894 50.0541 130.136 59.653 130.136M59.653 126.922C49.4325 126.922 42.6152 130.968 40.0338 134.579L20.2003 175.085H20.3689C15.1708 190.619 37.7297 198.167 60.3344 198.167C85.6504 198.167 111.026 188.709 97.5885 170.41L80.9546 136.282C81.0284 131.077 71.8545 126.946 60.5732 126.932C60.2641 126.925 59.9551 126.922 59.653 126.922Z" fill="#0618DD"/>
<path d="M50.6309 116.757V226.984L154.452 167.343V55.5425L50.6309 116.757Z" fill="white"/>
<path d="M48.7027 230.314V115.658L156.38 52.1675V168.46L48.6992 230.318L48.7027 230.314ZM52.5591 117.86V223.651L152.524 166.227V58.9215L52.5591 117.86Z" fill="#0618DD"/>
<path d="M103.632 154.352L111.088 126.781L117.266 123.216L124.449 142.337L118.636 145.691L117.326 141.631L110.54 145.55L109.202 151.138L103.632 154.352ZM111.636 140.419L116.23 137.767L113.979 130.522L111.636 140.423V140.419Z" fill="#0618DD"/>
<path d="M126.395 141.209V117.941L134.185 113.441C136.274 112.237 138.136 111.573 139.769 111.457C141.402 111.341 142.695 111.871 143.65 113.055C144.602 114.239 145.08 116.188 145.08 118.91C145.08 121.467 144.602 123.876 143.65 126.138C142.695 128.396 141.392 130.43 139.741 132.232C138.087 134.037 136.225 135.533 134.157 136.727L126.398 141.209H126.395ZM131.782 132.657L133.974 131.392C135.719 130.384 137.079 129.025 138.052 127.311C139.024 125.597 139.513 123.824 139.513 121.987C139.513 120.125 139.067 118.885 138.175 118.26C137.282 117.635 135.881 117.874 133.974 118.977L131.782 120.241V132.66V132.657Z" fill="#0618DD"/>
<path d="M61.2627 205.04V181.771L66.6504 178.663V196.488L79.1258 189.284V194.724L61.2627 205.036V205.04Z" fill="#0618DD"/>
<path d="M81.2363 193.509L88.6928 165.938L94.8708 162.373L102.053 181.494L96.2405 184.848L94.9305 180.788L88.1449 184.707L86.8067 190.295L81.2363 193.509ZM89.2407 179.576L93.8347 176.924L91.5833 169.678L89.2407 179.576Z" fill="#0618DD"/>
<path d="M104.162 180.271V157.002L116.694 149.767C118.134 148.935 119.321 148.426 120.255 148.236C121.189 148.046 121.92 148.096 122.447 148.384C122.974 148.672 123.349 149.104 123.574 149.683C123.799 150.263 123.908 150.923 123.908 151.667C123.908 152.549 123.746 153.417 123.42 154.263C123.096 155.113 122.703 155.882 122.247 156.578C121.79 157.269 121.358 157.814 120.954 158.211C121.46 158.081 122.029 158.063 122.657 158.155C123.286 158.246 123.834 158.548 124.301 159.057C124.768 159.57 125 160.406 125 161.572C125 163.876 124.294 165.973 122.886 167.859C121.474 169.745 119.412 171.473 116.694 173.039L104.162 180.274V180.271ZM109.427 163.314L116.054 159.489C116.683 159.127 117.245 158.622 117.744 157.972C118.239 157.326 118.488 156.56 118.488 155.675C118.488 154.674 118.229 154.151 117.712 154.098C117.196 154.049 116.641 154.193 116.054 154.533L109.427 158.358V163.31V163.314ZM109.427 172.836L116.448 168.782C116.873 168.537 117.326 168.217 117.804 167.827C118.281 167.437 118.685 166.946 119.022 166.356C119.356 165.765 119.525 165.052 119.525 164.217C119.525 163.426 119.356 162.935 119.022 162.745C118.689 162.555 118.281 162.534 117.804 162.682C117.326 162.829 116.876 163.026 116.448 163.272L109.427 167.325V172.836Z" fill="#0618DD"/>
<path d="M126.832 163.926L130.278 157.649C130.878 157.923 131.668 158.032 132.645 157.979C133.621 157.927 134.678 157.568 135.816 156.912C136.396 156.578 136.954 156.132 137.492 155.581C138.029 155.026 138.296 154.407 138.296 153.719C138.296 153.143 138.004 152.827 137.425 152.774C136.845 152.722 136.02 152.827 134.945 153.09L133.755 153.378C132.873 153.575 131.998 153.666 131.131 153.645C130.263 153.628 129.543 153.371 128.974 152.88C128.406 152.388 128.121 151.545 128.121 150.347C128.121 148.974 128.437 147.562 129.069 146.108C129.702 144.658 130.643 143.256 131.886 141.904C133.129 140.555 134.643 139.365 136.427 138.336C137.843 137.517 139.072 136.976 140.115 136.706C141.155 136.439 142.019 136.327 142.707 136.372C143.396 136.418 143.898 136.527 144.221 136.695L141.323 142.157C140.572 142.016 139.789 141.995 138.974 142.101C138.159 142.206 137.32 142.508 136.463 143.003C135.904 143.326 135.374 143.762 134.868 144.306C134.362 144.854 134.113 145.437 134.113 146.055C134.113 146.744 134.415 147.067 135.016 147.032C135.616 146.997 136.378 146.867 137.302 146.642L138.331 146.379C139.062 146.178 139.796 146.038 140.537 145.954C141.278 145.869 141.959 145.915 142.581 146.087C143.202 146.259 143.701 146.642 144.077 147.235C144.453 147.829 144.639 148.711 144.639 149.887C144.639 151.239 144.246 152.672 143.462 154.19C142.679 155.707 141.625 157.143 140.308 158.506C138.988 159.865 137.523 161.01 135.915 161.941C133.769 163.181 131.97 163.919 130.52 164.157C129.069 164.396 127.844 164.319 126.832 163.926Z" fill="#0618DD"/>
<path d="M65.3792 42.4581C61.3296 42.4581 58.0352 39.1637 58.0352 35.1141C58.0352 31.0645 61.3296 27.77 65.3792 27.77C69.4288 27.77 72.7232 31.0645 72.7232 35.1141C72.7232 39.1637 69.4288 42.4581 65.3792 42.4581ZM65.3792 30.341C62.7485 30.341 60.6061 32.4834 60.6061 35.1141C60.6061 37.7447 62.7485 39.8872 65.3792 39.8872C68.0098 39.8872 70.1523 37.7447 70.1523 35.1141C70.1523 32.4834 68.0098 30.341 65.3792 30.341Z" fill="#0618DD"/>
<path d="M51.6112 39.6813C45.3032 39.6813 40.1719 34.55 40.1719 28.242C40.1719 21.9341 45.3032 16.8027 51.6112 16.8027C57.9191 16.8027 63.0505 21.9341 63.0505 28.242C63.0505 34.55 57.9191 39.6813 51.6112 39.6813ZM51.6112 19.3737C46.7222 19.3737 42.7428 23.353 42.7428 28.242C42.7428 33.131 46.7222 37.1104 51.6112 37.1104C56.5002 37.1104 60.4795 33.131 60.4795 28.242C60.4795 23.353 56.5002 19.3737 51.6112 19.3737Z" fill="#0618DD"/>
<path d="M64.3099 15.0885C60.1479 15.0885 56.7656 11.7027 56.7656 7.54424C56.7656 3.38578 60.1479 0 64.3099 0C68.4718 0 71.8541 3.38578 71.8541 7.54424C71.8541 11.7027 68.4683 15.0885 64.3099 15.0885ZM64.3099 2.57094C61.5668 2.57094 59.3366 4.8012 59.3366 7.54424C59.3366 10.2873 61.5668 12.5175 64.3099 12.5175C67.0529 12.5175 69.2832 10.2873 69.2832 7.54424C69.2832 4.8012 67.0529 2.57094 64.3099 2.57094Z" fill="#0618DD"/>
</svg>
