<svg width="25" height="27" viewBox="0 0 25 27" fill="none" xmlns="http://www.w3.org/2000/svg">
<path d="M20.1858 8.15523C19.1578 7.92618 18.227 7.3611 17.5289 6.54237C16.8309 5.72363 16.4022 4.69404 16.3052 3.6037V3.13086H12.7592V17.7901C12.757 18.4391 12.5597 19.071 12.1949 19.5972C11.8301 20.1233 11.3163 20.5171 10.7255 20.7234C10.1348 20.9296 9.49689 20.9378 8.90143 20.7469C8.30597 20.556 7.7829 20.1755 7.40573 19.659C7.0227 19.1338 6.81022 18.4952 6.79911 17.8357C6.788 17.1762 6.97883 16.5302 7.34394 15.9914C7.70904 15.4525 8.22942 15.0488 8.82964 14.8388C9.42985 14.6287 10.0787 14.6233 10.6821 14.8233V11.0706C9.33658 10.8768 7.96662 11.126 6.76379 11.7832C5.56096 12.4405 4.58543 13.4729 3.97364 14.7361C3.36185 15.9993 3.14441 17.4302 3.35173 18.8284C3.55905 20.2267 4.18076 21.5225 5.1299 22.5346C6.03504 23.4994 7.19563 24.1612 8.46352 24.4358C9.7314 24.7103 11.0491 24.5851 12.2483 24.0761C13.4476 23.567 14.474 22.6973 15.1966 21.5779C15.9192 20.4585 16.3052 19.1401 16.3052 17.7912V10.3007C17.7383 11.3679 19.4566 11.9402 21.2182 11.9369V8.26674C20.8713 8.26719 20.5252 8.22982 20.1858 8.15523Z" fill="#0618DD"/>
</svg>
