<svg width="27" height="20" viewBox="0 0 27 20" fill="none" xmlns="http://www.w3.org/2000/svg">
<path d="M25.8309 4.28652C25.6879 3.38388 25.402 2.33081 24.8302 1.57861C24.1154 0.826415 23.2576 0.375097 22.2569 0.375097C18.6828 0.0742188 13.2503 0.0742188 13.2503 0.0742188C13.2503 0.0742188 7.81777 0.0742188 4.24374 0.375097C3.24301 0.375097 2.38525 0.826415 1.67044 1.57861C1.0986 2.33081 0.812673 3.38388 0.669712 4.28652C0.52675 5.79091 0.383789 7.2953 0.383789 8.79969V10.9058C0.383789 12.4102 0.52675 13.9146 0.669712 15.419C0.812673 16.3217 1.0986 17.3747 1.67044 18.1269C2.38525 18.8791 3.52894 19.3304 4.52967 19.3304C6.53112 19.6313 13.2503 19.6313 13.2503 19.6313C13.2503 19.6313 18.6828 19.6313 22.2569 19.3304C23.2576 19.3304 24.1154 18.8791 24.8302 18.1269C25.402 17.3747 25.6879 16.3217 25.8309 15.419C25.9739 13.9146 26.1168 12.4102 26.1168 10.9058V8.79969C26.1168 7.2953 25.9739 5.79091 25.8309 4.28652ZM10.534 13.4633V5.64047L17.5391 9.55189L10.534 13.4633Z" fill="#0618DD"/>
</svg>
